<svg width="800" height="50" version="1.1" x="0" viewBox="0 0 800 50" xmlns="http://www.w3.org/2000/svg" y="0" xmlns:xlink="http://www.w3.org/1999/xlink" preserveAspectRatio="none"  >
<g class="clusterblast-cluster" label="Query sequence"  >
<text class="clusterblast-acc" x="5" y="20"  >
Query sequence</text>
<line y1="35" x1="10" y2="35" style="stroke-width:1; stroke:grey; " x2="778.0"  />
<polygon description="&lt;b&gt;B8063_RS02105&lt;/b&gt;&lt;br&gt;FAD-dependent monooxygenase&lt;br&gt;Location: 393271 - 394405" id="knownclusterblast-3_q0_0_all" points="0,35 5,30 42,30 42,40 5,40 0,35 " class="clusterblast-orf" style="stroke-width:1; stroke:black; fill:white; " locus_tag="B8063_RS02105"  />
<polygon description="&lt;b&gt;B8063_RS02110&lt;/b&gt;&lt;br&gt;A/G-specific adenine glycosylase&lt;br&gt;Location: 394409 - 395393" id="knownclusterblast-3_q1_0_all" points="42,35 47,30 78,30 78,40 47,40 42,35 " class="clusterblast-orf" style="stroke-width:1; stroke:black; fill:white; " locus_tag="B8063_RS02110"  />
<polygon description="&lt;b&gt;B8063_RS02115&lt;/b&gt;&lt;br&gt;DUF721 domain-containing protein&lt;br&gt;Location: 395393 - 395876" id="knownclusterblast-3_q2_0_all" points="78,40 91,40 96,35 91,30 78,30 78,40 " class="clusterblast-orf" style="stroke-width:1; stroke:black; fill:white; " locus_tag="B8063_RS02115"  />
<polygon description="&lt;b&gt;B8063_RS02120&lt;/b&gt;&lt;br&gt;disulfide bond formation protein DsbA&lt;br&gt;Location: 395872 - 396451" id="knownclusterblast-3_q3_0_all" points="96,40 112,40 117,35 112,30 96,30 96,40 " class="clusterblast-orf" style="stroke-width:1; stroke:black; fill:white; " locus_tag="B8063_RS02120"  />
<polygon description="&lt;b&gt;B8063_RS02125&lt;/b&gt;&lt;br&gt;chromosome segregation protein SMC&lt;br&gt;Location: 396459 - 399033" id="knownclusterblast-3_q4_0_all" points="117,40 207,40 212,35 207,30 117,30 117,40 " class="clusterblast-orf" style="stroke-width:1; stroke:black; fill:white; " locus_tag="B8063_RS02125"  />
<polygon description="&lt;b&gt;B8063_RS02130&lt;/b&gt;&lt;br&gt;hypothetical protein&lt;br&gt;Location: 399038 - 399314" id="knownclusterblast-3_q5_0_all" points="212,40 217,40 222,35 217,30 212,30 212,40 " class="clusterblast-orf" style="stroke-width:1; stroke:black; fill:white; " locus_tag="B8063_RS02130"  />
<polygon description="&lt;b&gt;B8063_RS02135&lt;/b&gt;&lt;br&gt;F0F1 ATP synthase subunit A&lt;br&gt;Location: 399321 - 400056" id="knownclusterblast-3_q6_0_all" points="223,40 245,40 250,35 245,30 223,30 223,40 " class="clusterblast-orf" style="stroke-width:1; stroke:black; fill:white; " locus_tag="B8063_RS02135"  />
<polygon description="&lt;b&gt;B8063_RS02140&lt;/b&gt;&lt;br&gt;ATP synthase subunit C&lt;br&gt;Location: 400076 - 400304" id="knownclusterblast-3_q7_0_all" points="250,40 254,40 259,35 254,30 250,30 250,40 " class="clusterblast-orf" style="stroke-width:1; stroke:black; fill:white; " locus_tag="B8063_RS02140"  />
<polygon description="&lt;b&gt;B8063_RS02145&lt;/b&gt;&lt;br&gt;F0F1 ATP synthase subunit B&lt;br&gt;Location: 400307 - 400895" id="knownclusterblast-3_q8_0_all" points="259,40 275,40 280,35 275,30 259,30 259,40 " class="clusterblast-orf" style="stroke-width:1; stroke:black; fill:white; " locus_tag="B8063_RS02145"  />
<polygon description="&lt;b&gt;B8063_RS02150&lt;/b&gt;&lt;br&gt;ATPase&lt;br&gt;Location: 400887 - 401382" id="knownclusterblast-3_q9_0_all" points="280,40 293,40 298,35 293,30 280,30 280,40 " class="clusterblast-orf" style="stroke-width:1; stroke:black; fill:white; " locus_tag="B8063_RS02150"  />
<polygon description="&lt;b&gt;B8063_RS02155&lt;/b&gt;&lt;br&gt;phytoene desaturase&lt;br&gt;Location: 401431 - 402883" id="knownclusterblast-3_q10_0_all" points="300,40 349,40 354,35 349,30 300,30 300,40 " class="clusterblast-orf" style="stroke-width:1; stroke:black; fill:white; " locus_tag="B8063_RS02155"  />
<polygon description="&lt;b&gt;B8063_RS02160&lt;/b&gt;&lt;br&gt;phytoene synthase&lt;br&gt;Location: 402882 - 403737" id="knownclusterblast-3_q11_0_all" points="354,40 380,40 385,35 380,30 354,30 354,40 " class="clusterblast-orf" style="stroke-width:1; stroke:black; fill:white; " locus_tag="B8063_RS02160"  />
<polygon description="&lt;b&gt;B8063_RS02165&lt;/b&gt;&lt;br&gt;lycopene cyclase&lt;br&gt;Location: 403723 - 404797" id="knownclusterblast-3_q12_0_all" points="385,40 419,40 424,35 419,30 385,30 385,40 " class="clusterblast-orf" style="stroke-width:1; stroke:black; fill:white; " locus_tag="B8063_RS02165"  />
<polygon description="&lt;b&gt;B8063_RS02170&lt;/b&gt;&lt;br&gt;hypothetical protein&lt;br&gt;Location: 404793 - 405693" id="knownclusterblast-3_q13_0_all" points="424,40 452,40 457,35 452,30 424,30 424,40 " class="clusterblast-orf" style="stroke-width:1; stroke:black; fill:white; " locus_tag="B8063_RS02170"  />
<polygon description="&lt;b&gt;B8063_RS02175&lt;/b&gt;&lt;br&gt;4-hydroxy-3-methylbut-2-enyl diphosphate reductase&lt;br&gt;Location: 405682 - 406627" id="knownclusterblast-3_q14_0_all" points="457,40 486,40 491,35 486,30 457,30 457,40 " class="clusterblast-orf" style="stroke-width:1; stroke:black; fill:white; " locus_tag="B8063_RS02175"  />
<polygon description="&lt;b&gt;B8063_RS02180&lt;/b&gt;&lt;br&gt;homoserine kinase&lt;br&gt;Location: 406626 - 407592" id="knownclusterblast-3_q15_0_all" points="491,40 522,40 527,35 522,30 491,30 491,40 " class="clusterblast-orf" style="stroke-width:1; stroke:black; fill:white; " locus_tag="B8063_RS02180"  />
<polygon description="&lt;b&gt;B8063_RS02185&lt;/b&gt;&lt;br&gt;ribonuclease HI&lt;br&gt;Location: 407591 - 408014" id="knownclusterblast-3_q16_0_all" points="527,40 537,40 542,35 537,30 527,30 527,40 " class="clusterblast-orf" style="stroke-width:1; stroke:black; fill:white; " locus_tag="B8063_RS02185"  />
<polygon description="&lt;b&gt;B8063_RS02190&lt;/b&gt;&lt;br&gt;hypothetical protein&lt;br&gt;Location: 408058 - 409492" id="knownclusterblast-3_q17_0_all" points="544,35 549,30 597,30 597,40 549,40 544,35 " class="clusterblast-orf" style="stroke-width:1; stroke:black; fill:white; " locus_tag="B8063_RS02190"  />
<polygon description="&lt;b&gt;B8063_RS02195&lt;/b&gt;&lt;br&gt;peroxiredoxin&lt;br&gt;Location: 409583 - 410069" id="knownclusterblast-3_q18_0_all" points="600,35 605,30 618,30 618,40 605,40 600,35 " class="clusterblast-orf" style="stroke-width:1; stroke:black; fill:white; " locus_tag="B8063_RS02195"  />
<polygon description="&lt;b&gt;B8063_RS02200&lt;/b&gt;&lt;br&gt;threonine synthase&lt;br&gt;Location: 410065 - 411439" id="knownclusterblast-3_q19_0_all" points="618,35 623,30 669,30 669,40 623,40 618,35 " class="clusterblast-orf" style="stroke-width:1; stroke:black; fill:white; " locus_tag="B8063_RS02200"  />
<polygon description="&lt;b&gt;B8063_RS02205&lt;/b&gt;&lt;br&gt;SURF1 family protein&lt;br&gt;Location: 411438 - 412092" id="knownclusterblast-3_q20_0_all" points="668,35 673,30 693,30 693,40 673,40 668,35 " class="clusterblast-orf" style="stroke-width:1; stroke:black; fill:white; " locus_tag="B8063_RS02205"  />
<polygon description="&lt;b&gt;B8063_RS02210&lt;/b&gt;&lt;br&gt;cytochrome c oxidase subunit 3&lt;br&gt;Location: 412098 - 412887" id="knownclusterblast-3_q21_0_all" points="693,35 698,30 722,30 722,40 698,40 693,35 " class="clusterblast-orf" style="stroke-width:1; stroke:black; fill:white; " locus_tag="B8063_RS02210"  />
<polygon description="&lt;b&gt;B8063_RS02215&lt;/b&gt;&lt;br&gt;cytochrome c oxidase assembly protein&lt;br&gt;Location: 412889 - 413435" id="knownclusterblast-3_q22_0_all" points="722,35 727,30 742,30 742,40 727,40 722,35 " class="clusterblast-orf" style="stroke-width:1; stroke:black; fill:white; " locus_tag="B8063_RS02215"  />
<polygon description="&lt;b&gt;B8063_RS02220&lt;/b&gt;&lt;br&gt;serine protease&lt;br&gt;Location: 413434 - 413557" id="knownclusterblast-3_q23_0_all" points="742,35 746,30 746,40 742,35 " class="clusterblast-orf" style="stroke-width:1; stroke:black; fill:white; " locus_tag="B8063_RS02220"  />
<polygon description="&lt;b&gt;B8063_RS02225&lt;/b&gt;&lt;br&gt;protoheme IX farnesyltransferase&lt;br&gt;Location: 413556 - 414465" id="knownclusterblast-3_q24_0_all" points="746,35 751,30 780,30 780,40 751,40 746,35 " class="clusterblast-orf" style="stroke-width:1; stroke:black; fill:white; " locus_tag="B8063_RS02225"  />
</g>
</svg>
