<svg width="800" height="50" version="1.1" x="0" viewBox="0 0 800 50" xmlns="http://www.w3.org/2000/svg" y="0" xmlns:xlink="http://www.w3.org/1999/xlink" preserveAspectRatio="none"  >
<g class="clusterblast-cluster" label="Query sequence"  >
<text class="clusterblast-acc" x="5" y="20"  >
Query sequence</text>
<line y1="35" x1="10" y2="35" style="stroke-width:1; stroke:grey; " x2="778.0"  />
<polygon description="&lt;b&gt;B8063_RS01735&lt;/b&gt;&lt;br&gt;NAD-dependent DNA ligase LigA&lt;br&gt;Location: 317050 - 319060" id="knownclusterblast-1_q0_0_all" points="0,35 5,30 67,30 67,40 5,40 0,35 " class="clusterblast-orf" style="stroke-width:1; stroke:black; fill:white; " locus_tag="B8063_RS01735"  />
<polygon description="&lt;b&gt;B8063_RS01740&lt;/b&gt;&lt;br&gt;outer membrane protein assembly factor BamD&lt;br&gt;Location: 319069 - 319909" id="knownclusterblast-1_q1_0_all" points="68,35 73,30 96,30 96,40 73,40 68,35 " class="clusterblast-orf" style="stroke-width:1; stroke:black; fill:white; " locus_tag="B8063_RS01740"  />
<polygon description="&lt;b&gt;B8063_RS01745&lt;/b&gt;&lt;br&gt;UDP-3-O-[3-hydroxymyristoyl] N-acetylglucosamine deacetylase&lt;br&gt;Location: 319946 - 320867" id="knownclusterblast-1_q2_0_all" points="97,35 102,30 128,30 128,40 102,40 97,35 " class="clusterblast-orf" style="stroke-width:1; stroke:black; fill:white; " locus_tag="B8063_RS01745"  />
<polygon description="&lt;b&gt;B8063_RS01750&lt;/b&gt;&lt;br&gt;hypothetical protein&lt;br&gt;Location: 320929 - 322093" id="knownclusterblast-1_q3_0_all" points="130,35 135,30 169,30 169,40 135,40 130,35 " class="clusterblast-orf" style="stroke-width:1; stroke:black; fill:white; " locus_tag="B8063_RS01750"  />
<polygon description="&lt;b&gt;B8063_RS01755&lt;/b&gt;&lt;br&gt;hypothetical protein&lt;br&gt;Location: 322100 - 322790" id="knownclusterblast-1_q4_0_all" points="169,35 174,30 193,30 193,40 174,40 169,35 " class="clusterblast-orf" style="stroke-width:1; stroke:black; fill:white; " locus_tag="B8063_RS01755"  />
<polygon description="&lt;b&gt;B8063_RS01760&lt;/b&gt;&lt;br&gt;D-alanine--D-alanine ligase&lt;br&gt;Location: 322770 - 323691" id="knownclusterblast-1_q5_0_all" points="192,35 197,30 223,30 223,40 197,40 192,35 " class="clusterblast-orf" style="stroke-width:1; stroke:black; fill:white; " locus_tag="B8063_RS01760"  />
<polygon description="&lt;b&gt;B8063_RS01765&lt;/b&gt;&lt;br&gt;UDP-N-acetylmuramate dehydrogenase&lt;br&gt;Location: 323687 - 324593" id="knownclusterblast-1_q6_0_all" points="223,35 228,30 253,30 253,40 228,40 223,35 " class="clusterblast-orf" style="stroke-width:1; stroke:black; fill:white; " locus_tag="B8063_RS01765"  />
<polygon description="&lt;b&gt;B8063_RS01770&lt;/b&gt;&lt;br&gt;UDP-N-acetylmuramate--L-alanine ligase&lt;br&gt;Location: 324603 - 325983" id="knownclusterblast-1_q7_0_all" points="253,35 258,30 300,30 300,40 258,40 253,35 " class="clusterblast-orf" style="stroke-width:1; stroke:black; fill:white; " locus_tag="B8063_RS01770"  />
<polygon description="&lt;b&gt;B8063_RS01775&lt;/b&gt;&lt;br&gt;hypothetical protein&lt;br&gt;Location: 325972 - 327037" id="knownclusterblast-1_q8_0_all" points="299,35 304,30 335,30 335,40 304,40 299,35 " class="clusterblast-orf" style="stroke-width:1; stroke:black; fill:white; " locus_tag="B8063_RS01775"  />
<polygon description="&lt;b&gt;B8063_RS01780&lt;/b&gt;&lt;br&gt;cell division protein FtsW&lt;br&gt;Location: 327033 - 328146" id="knownclusterblast-1_q9_0_all" points="335,35 340,30 372,30 372,40 340,40 335,35 " class="clusterblast-orf" style="stroke-width:1; stroke:black; fill:white; " locus_tag="B8063_RS01780"  />
<polygon description="&lt;b&gt;B8063_RS01785&lt;/b&gt;&lt;br&gt;UDP-N-acetylmuramoyl-L-alanine--D-glutamate ligase&lt;br&gt;Location: 328138 - 329440" id="knownclusterblast-1_q10_0_all" points="372,35 377,30 416,30 416,40 377,40 372,35 " class="clusterblast-orf" style="stroke-width:1; stroke:black; fill:white; " locus_tag="B8063_RS01785"  />
<polygon description="&lt;b&gt;B8063_RS01790&lt;/b&gt;&lt;br&gt;phospho-N-acetylmuramoyl-pentapeptide- transferase&lt;br&gt;Location: 329436 - 330522" id="knownclusterblast-1_q11_0_all" points="416,35 421,30 452,30 452,40 421,40 416,35 " class="clusterblast-orf" style="stroke-width:1; stroke:black; fill:white; " locus_tag="B8063_RS01790"  />
<polygon description="&lt;b&gt;B8063_RS01795&lt;/b&gt;&lt;br&gt;UDP-N-acetylmuramoyl-L-alanyl-D-glutamate--2, 6-diaminopimelate ligase&lt;br&gt;Location: 330525 - 333345" id="knownclusterblast-1_q12_0_all" points="452,35 457,30 547,30 547,40 457,40 452,35 " class="clusterblast-orf" style="stroke-width:1; stroke:black; fill:white; " locus_tag="B8063_RS01795"  />
<polygon description="&lt;b&gt;B8063_RS01800&lt;/b&gt;&lt;br&gt;cell division protein FtsI&lt;br&gt;Location: 333356 - 335067" id="knownclusterblast-1_q13_0_all" points="547,35 552,30 605,30 605,40 552,40 547,35 " class="clusterblast-orf" style="stroke-width:1; stroke:black; fill:white; " locus_tag="B8063_RS01800"  />
<polygon description="&lt;b&gt;B8063_RS01805&lt;/b&gt;&lt;br&gt;16S rRNA (cytosine(1402)-N(4))-methyltransferase RsmH&lt;br&gt;Location: 335246 - 336248" id="knownclusterblast-1_q14_0_all" points="611,35 616,30 644,30 644,40 616,40 611,35 " class="clusterblast-orf" style="stroke-width:1; stroke:black; fill:white; " locus_tag="B8063_RS01805"  />
<polygon description="&lt;b&gt;B8063_RS01810&lt;/b&gt;&lt;br&gt;cell division protein FtsZ&lt;br&gt;Location: 336266 - 337694" id="knownclusterblast-1_q15_0_all" points="645,35 650,30 693,30 693,40 650,40 645,35 " class="clusterblast-orf" style="stroke-width:1; stroke:black; fill:white; " locus_tag="B8063_RS01810"  />
<polygon description="&lt;b&gt;B8063_RS01815&lt;/b&gt;&lt;br&gt;transcriptional regulator MraZ&lt;br&gt;Location: 337705 - 338161" id="knownclusterblast-1_q16_0_all" points="693,35 698,30 709,30 709,40 698,40 693,35 " class="clusterblast-orf" style="stroke-width:1; stroke:black; fill:white; " locus_tag="B8063_RS01815"  />
<polygon description="&lt;b&gt;B8063_RS01825&lt;/b&gt;&lt;br&gt;N-acetylmuramoyl-L-alanine amidase&lt;br&gt;Location: 338708 - 339434" id="knownclusterblast-1_q17_0_all" points="727,35 732,30 751,30 751,40 732,40 727,35 " class="clusterblast-orf" style="stroke-width:1; stroke:black; fill:white; " locus_tag="B8063_RS01825"  />
<polygon description="&lt;b&gt;B8063_RS01830&lt;/b&gt;&lt;br&gt;VacJ family lipoprotein&lt;br&gt;Location: 339488 - 340286" id="knownclusterblast-1_q18_0_all" points="753,40 775,40 780,35 775,30 753,30 753,40 " class="clusterblast-orf" style="stroke-width:1; stroke:black; fill:white; " locus_tag="B8063_RS01830"  />
</g>
</svg>
