<svg width="800" height="150" version="1.1" x="0" viewBox="0 0 800 150" xmlns="http://www.w3.org/2000/svg" y="0" xmlns:xlink="http://www.w3.org/1999/xlink" preserveAspectRatio="none"  >
<g class="clusterblast-cluster" label="Query sequence"  >
<text class="clusterblast-acc" x="5" y="20"  >
Query sequence</text>
<line y1="35" x1="10" y2="35" style="stroke-width:1; stroke:grey; " x2="778.0"  />
<polygon description="&lt;b&gt;B8063_RS05680&lt;/b&gt;&lt;br&gt;iron ABC transporter permease&lt;br&gt;Location: 1104291 - 1105902" id="knownclusterblast-6_q0_0_all" points="0,40 13,40 18,35 13,30 0,30 0,40 " class="clusterblast-orf" style="stroke-width:1; stroke:black; fill:white; " locus_tag="B8063_RS05680"  />
<polygon description="&lt;b&gt;B8063_RS05685&lt;/b&gt;&lt;br&gt;ABC transporter ATP-binding protein&lt;br&gt;Location: 1105901 - 1106960" id="knownclusterblast-6_q1_0_all" points="18,40 25,40 30,35 25,30 18,30 18,40 " class="clusterblast-orf" style="stroke-width:1; stroke:black; fill:white; " locus_tag="B8063_RS05685"  />
<polygon description="&lt;b&gt;B8063_RS05690&lt;/b&gt;&lt;br&gt;CHASE2 domain-containing protein&lt;br&gt;Location: 1107042 - 1109238" id="knownclusterblast-6_q2_0_all" points="31,40 51,40 56,35 51,30 31,30 31,40 " class="clusterblast-orf" style="stroke-width:1; stroke:black; fill:white; " locus_tag="B8063_RS05690"  />
<polygon description="&lt;b&gt;B8063_RS05695&lt;/b&gt;&lt;br&gt;hypothetical protein&lt;br&gt;Location: 1109239 - 1109692" id="knownclusterblast-6_q3_0_all" points="56,35 61,30 61,30 61,40 61,40 56,35 " class="clusterblast-orf" style="stroke-width:1; stroke:black; fill:white; " locus_tag="B8063_RS05695"  />
<polygon description="&lt;b&gt;B8063_RS05700&lt;/b&gt;&lt;br&gt;hypothetical protein&lt;br&gt;Location: 1109677 - 1113217" id="knownclusterblast-6_q4_0_all" points="61,40 96,40 101,35 96,30 61,30 61,40 " class="clusterblast-orf" style="stroke-width:1; stroke:black; fill:white; " locus_tag="B8063_RS05700"  />
<polygon description="&lt;b&gt;B8063_RS05705&lt;/b&gt;&lt;br&gt;hypothetical protein&lt;br&gt;Location: 1113219 - 1114563" id="knownclusterblast-6_q5_0_all" points="101,40 111,40 116,35 111,30 101,30 101,40 " class="clusterblast-orf" style="stroke-width:1; stroke:black; fill:white; " locus_tag="B8063_RS05705"  />
<polygon description="&lt;b&gt;B8063_RS05710&lt;/b&gt;&lt;br&gt;hypothetical protein&lt;br&gt;Location: 1114537 - 1115686" id="knownclusterblast-6_q6_0_all" points="116,35 121,30 129,30 129,40 121,40 116,35 " class="clusterblast-orf" style="stroke-width:1; stroke:black; fill:white; " locus_tag="B8063_RS05710"  />
<polygon description="&lt;b&gt;B8063_RS05715&lt;/b&gt;&lt;br&gt;hypothetical protein&lt;br&gt;Location: 1115855 - 1118003" id="knownclusterblast-6_q7_0_all" points="131,40 150,40 155,35 150,30 131,30 131,40 " class="clusterblast-orf" style="stroke-width:1; stroke:black; fill:white; " locus_tag="B8063_RS05715"  />
<polygon description="&lt;b&gt;B8063_RS05720&lt;/b&gt;&lt;br&gt;hypothetical protein&lt;br&gt;Location: 1118007 - 1119423" id="knownclusterblast-6_q8_0_all" points="155,40 166,40 171,35 166,30 155,30 155,40 " class="clusterblast-orf" style="stroke-width:1; stroke:black; fill:#d81515; " locus_tag="B8063_RS05720"  />
<polygon description="&lt;b&gt;B8063_RS05725&lt;/b&gt;&lt;br&gt;hypothetical protein&lt;br&gt;Location: 1119511 - 1121086" id="knownclusterblast-6_q9_0_all" points="172,40 185,40 190,35 185,30 172,30 172,40 " class="clusterblast-orf" style="stroke-width:1; stroke:black; fill:white; " locus_tag="B8063_RS05725"  />
<polygon description="&lt;b&gt;B8063_RS05730&lt;/b&gt;&lt;br&gt;glycosyltransferase family 2 protein&lt;br&gt;Location: 1121105 - 1121951" id="knownclusterblast-6_q10_0_all" points="190,40 195,40 200,35 195,30 190,30 190,40 " class="clusterblast-orf" style="stroke-width:1; stroke:black; fill:white; " locus_tag="B8063_RS05730"  />
<polygon description="&lt;b&gt;B8063_RS05735&lt;/b&gt;&lt;br&gt;acylneuraminate cytidylyltransferase family protein&lt;br&gt;Location: 1122027 - 1122708" id="knownclusterblast-6_q11_0_all" points="201,40 204,40 209,35 204,30 201,30 201,40 " class="clusterblast-orf" style="stroke-width:1; stroke:black; fill:white; " locus_tag="B8063_RS05735"  />
<polygon description="&lt;b&gt;B8063_RS05740&lt;/b&gt;&lt;br&gt;DUF115 domain-containing protein&lt;br&gt;Location: 1122691 - 1123546" id="knownclusterblast-6_q12_0_all" points="208,40 213,40 218,35 213,30 208,30 208,40 " class="clusterblast-orf" style="stroke-width:1; stroke:black; fill:white; " locus_tag="B8063_RS05740"  />
<polygon description="&lt;b&gt;B8063_RS05745&lt;/b&gt;&lt;br&gt;asparagine synthase (glutamine-hydrolyzing)&lt;br&gt;Location: 1123552 - 1125361" id="knownclusterblast-6_q13_0_all" points="218,40 234,40 239,35 234,30 218,30 218,40 " class="clusterblast-orf" style="stroke-width:1; stroke:black; fill:white; " locus_tag="B8063_RS05745"  />
<polygon description="&lt;b&gt;B8063_RS05750&lt;/b&gt;&lt;br&gt;hypothetical protein&lt;br&gt;Location: 1125347 - 1126505" id="knownclusterblast-6_q14_0_all" points="238,40 247,40 252,35 247,30 238,30 238,40 " class="clusterblast-orf" style="stroke-width:1; stroke:black; fill:white; " locus_tag="B8063_RS05750"  />
<polygon description="&lt;b&gt;B8063_RS05755&lt;/b&gt;&lt;br&gt;hypothetical protein&lt;br&gt;Location: 1126514 - 1127591" id="knownclusterblast-6_q15_0_all" points="252,40 259,40 264,35 259,30 252,30 252,40 " class="clusterblast-orf" style="stroke-width:1; stroke:black; fill:white; " locus_tag="B8063_RS05755"  />
<polygon description="&lt;b&gt;B8063_RS05760&lt;/b&gt;&lt;br&gt;hypothetical protein&lt;br&gt;Location: 1127582 - 1128611" id="knownclusterblast-6_q16_0_all" points="264,35 269,30 276,30 276,40 269,40 264,35 " class="clusterblast-orf" style="stroke-width:1; stroke:black; fill:white; " locus_tag="B8063_RS05760"  />
<polygon description="&lt;b&gt;B8063_RS05765&lt;/b&gt;&lt;br&gt;hypothetical protein&lt;br&gt;Location: 1128649 - 1130194" id="knownclusterblast-6_q17_0_all" points="276,40 288,40 293,35 288,30 276,30 276,40 " class="clusterblast-orf" style="stroke-width:1; stroke:black; fill:white; " locus_tag="B8063_RS05765"  />
<polygon description="&lt;b&gt;B8063_RS05770&lt;/b&gt;&lt;br&gt;aldo/keto reductase&lt;br&gt;Location: 1130193 - 1131003" id="knownclusterblast-6_q18_0_all" points="293,40 298,40 303,35 298,30 293,30 293,40 " class="clusterblast-orf" style="stroke-width:1; stroke:black; fill:white; " locus_tag="B8063_RS05770"  />
<polygon description="&lt;b&gt;B8063_RS05775&lt;/b&gt;&lt;br&gt;hypothetical protein&lt;br&gt;Location: 1130995 - 1132543" id="knownclusterblast-6_q19_0_all" points="303,40 315,40 320,35 315,30 303,30 303,40 " class="clusterblast-orf" style="stroke-width:1; stroke:black; fill:white; " locus_tag="B8063_RS05775"  />
<polygon description="&lt;b&gt;B8063_RS05780&lt;/b&gt;&lt;br&gt;methyltransferase domain-containing protein&lt;br&gt;Location: 1132529 - 1133234" id="knownclusterblast-6_q20_0_all" points="320,35 325,30 328,30 328,40 325,40 320,35 " class="clusterblast-orf" style="stroke-width:1; stroke:black; fill:white; " locus_tag="B8063_RS05780"  />
<polygon description="&lt;b&gt;B8063_RS05785&lt;/b&gt;&lt;br&gt;hypothetical protein&lt;br&gt;Location: 1133356 - 1134526" id="knownclusterblast-6_q21_0_all" points="329,35 334,30 343,30 343,40 334,40 329,35 " class="clusterblast-orf" style="stroke-width:1; stroke:black; fill:white; " locus_tag="B8063_RS05785"  />
<polygon description="&lt;b&gt;B8063_RS05790&lt;/b&gt;&lt;br&gt;asparagine synthase (glutamine-hydrolyzing)&lt;br&gt;Location: 1134525 - 1136319" id="knownclusterblast-6_q22_0_all" points="343,35 348,30 363,30 363,40 348,40 343,35 " class="clusterblast-orf" style="stroke-width:1; stroke:black; fill:white; " locus_tag="B8063_RS05790"  />
<polygon description="&lt;b&gt;B8063_RS05795&lt;/b&gt;&lt;br&gt;FkbM family methyltransferase&lt;br&gt;Location: 1136320 - 1137040" id="knownclusterblast-6_q23_0_all" points="363,35 368,30 371,30 371,40 368,40 363,35 " class="clusterblast-orf" style="stroke-width:1; stroke:black; fill:white; " locus_tag="B8063_RS05795"  />
<polygon description="&lt;b&gt;B8063_RS05800&lt;/b&gt;&lt;br&gt;hypothetical protein&lt;br&gt;Location: 1137040 - 1138372" id="knownclusterblast-6_q24_0_all" points="371,35 376,30 386,30 386,40 376,40 371,35 " class="clusterblast-orf" style="stroke-width:1; stroke:black; fill:white; " locus_tag="B8063_RS05800"  />
<polygon description="&lt;b&gt;B8063_RS05805&lt;/b&gt;&lt;br&gt;hypothetical protein&lt;br&gt;Location: 1138422 - 1138617" id="knownclusterblast-6_q25_0_all" points="387,40 389,35 387,30 387,40 " class="clusterblast-orf" style="stroke-width:1; stroke:black; fill:white; " locus_tag="B8063_RS05805"  />
<polygon description="&lt;b&gt;B8063_RS05810&lt;/b&gt;&lt;br&gt;hypothetical protein&lt;br&gt;Location: 1138606 - 1139365" id="knownclusterblast-6_q26_0_all" points="389,40 393,40 398,35 393,30 389,30 389,40 " class="clusterblast-orf" style="stroke-width:1; stroke:black; fill:white; " locus_tag="B8063_RS05810"  />
<polygon description="&lt;b&gt;B8063_RS05815&lt;/b&gt;&lt;br&gt;glycosyltransferase&lt;br&gt;Location: 1139365 - 1140088" id="knownclusterblast-6_q27_0_all" points="398,40 401,40 406,35 401,30 398,30 398,40 " class="clusterblast-orf" style="stroke-width:1; stroke:black; fill:white; " locus_tag="B8063_RS05815"  />
<polygon description="&lt;b&gt;B8063_RS05820&lt;/b&gt;&lt;br&gt;class I SAM-dependent methyltransferase&lt;br&gt;Location: 1140288 - 1141188" id="knownclusterblast-6_q28_0_all" points="408,40 413,40 418,35 413,30 408,30 408,40 " class="clusterblast-orf" style="stroke-width:1; stroke:black; fill:white; " locus_tag="B8063_RS05820"  />
<polygon description="&lt;b&gt;B8063_RS05825&lt;/b&gt;&lt;br&gt;hypothetical protein&lt;br&gt;Location: 1141338 - 1142859" id="knownclusterblast-6_q29_0_all" points="420,40 432,40 437,35 432,30 420,30 420,40 " class="clusterblast-orf" style="stroke-width:1; stroke:black; fill:white; " locus_tag="B8063_RS05825"  />
<polygon description="&lt;b&gt;B8063_RS05830&lt;/b&gt;&lt;br&gt;NAD-dependent dehydratase&lt;br&gt;Location: 1142941 - 1143952" id="knownclusterblast-6_q30_0_all" points="438,40 445,40 450,35 445,30 438,30 438,40 " class="clusterblast-orf" style="stroke-width:1; stroke:black; fill:white; " locus_tag="B8063_RS05830"  />
<polygon description="&lt;b&gt;B8063_RS05835&lt;/b&gt;&lt;br&gt;GDP-mannose 4,6-dehydratase&lt;br&gt;Location: 1144050 - 1145085" id="knownclusterblast-6_q31_0_all" points="451,40 457,40 462,35 457,30 451,30 451,40 " class="clusterblast-orf" style="stroke-width:1; stroke:black; fill:#15d8d8; " locus_tag="B8063_RS05835"  />
<polygon description="&lt;b&gt;B8063_RS05840&lt;/b&gt;&lt;br&gt;UDP-glucose 4-epimerase GalE&lt;br&gt;Location: 1145062 - 1146067" id="knownclusterblast-6_q32_0_all" points="462,35 467,30 474,30 474,40 467,40 462,35 " class="clusterblast-orf" style="stroke-width:1; stroke:black; fill:white; " locus_tag="B8063_RS05840"  />
<polygon description="&lt;b&gt;B8063_RS05845&lt;/b&gt;&lt;br&gt;FAD-dependent oxidoreductase&lt;br&gt;Location: 1146090 - 1148532" id="knownclusterblast-6_q33_0_all" points="474,40 497,40 502,35 497,30 474,30 474,40 " class="clusterblast-orf" style="stroke-width:1; stroke:black; fill:white; " locus_tag="B8063_RS05845"  />
<polygon description="&lt;b&gt;B8063_RS05850&lt;/b&gt;&lt;br&gt;GMP reductase&lt;br&gt;Location: 1148532 - 1149567" id="knownclusterblast-6_q34_0_all" points="502,35 507,30 513,30 513,40 507,40 502,35 " class="clusterblast-orf" style="stroke-width:1; stroke:black; fill:white; " locus_tag="B8063_RS05850"  />
<polygon description="&lt;b&gt;B8063_RS05855&lt;/b&gt;&lt;br&gt;hypothetical protein&lt;br&gt;Location: 1149651 - 1150656" id="knownclusterblast-6_q35_0_all" points="514,35 519,30 526,30 526,40 519,40 514,35 " class="clusterblast-orf" style="stroke-width:1; stroke:black; fill:white; " locus_tag="B8063_RS05855"  />
<polygon description="&lt;b&gt;B8063_RS05860&lt;/b&gt;&lt;br&gt;CRTAC1 family protein&lt;br&gt;Location: 1150813 - 1152232" id="knownclusterblast-6_q36_0_all" points="527,40 539,40 544,35 539,30 527,30 527,40 " class="clusterblast-orf" style="stroke-width:1; stroke:black; fill:white; " locus_tag="B8063_RS05860"  />
<polygon description="&lt;b&gt;B8063_RS05865&lt;/b&gt;&lt;br&gt;hypothetical protein&lt;br&gt;Location: 1152488 - 1153148" id="knownclusterblast-6_q37_0_all" points="546,40 549,40 554,35 549,30 546,30 546,40 " class="clusterblast-orf" style="stroke-width:1; stroke:black; fill:white; " locus_tag="B8063_RS05865"  />
<polygon description="&lt;b&gt;B8063_RS05875&lt;/b&gt;&lt;br&gt;adenine phosphoribosyltransferase&lt;br&gt;Location: 1153258 - 1153786" id="knownclusterblast-6_q38_0_all" points="555,35 560,30 561,30 561,40 560,40 555,35 " class="clusterblast-orf" style="stroke-width:1; stroke:black; fill:white; " locus_tag="B8063_RS05875"  />
<polygon description="&lt;b&gt;B8063_RS05880&lt;/b&gt;&lt;br&gt;S-methyl-5'-thioadenosine phosphorylase&lt;br&gt;Location: 1153826 - 1154705" id="knownclusterblast-6_q39_0_all" points="562,40 567,40 572,35 567,30 562,30 562,40 " class="clusterblast-orf" style="stroke-width:1; stroke:black; fill:white; " locus_tag="B8063_RS05880"  />
<polygon description="&lt;b&gt;B8063_RS05885&lt;/b&gt;&lt;br&gt;S-methyl-5-thioribose-1-phosphate isomerase&lt;br&gt;Location: 1154694 - 1155771" id="knownclusterblast-6_q40_0_all" points="571,40 579,40 584,35 579,30 571,30 571,40 " class="clusterblast-orf" style="stroke-width:1; stroke:black; fill:white; " locus_tag="B8063_RS05885"  />
<polygon description="&lt;b&gt;B8063_RS05890&lt;/b&gt;&lt;br&gt;class II aldolase&lt;br&gt;Location: 1155767 - 1156400" id="knownclusterblast-6_q41_0_all" points="584,40 586,40 591,35 586,30 584,30 584,40 " class="clusterblast-orf" style="stroke-width:1; stroke:black; fill:white; " locus_tag="B8063_RS05890"  />
<polygon description="&lt;b&gt;B8063_RS05895&lt;/b&gt;&lt;br&gt;adenosylmethionine decarboxylase&lt;br&gt;Location: 1156403 - 1157444" id="knownclusterblast-6_q42_0_all" points="591,40 598,40 603,35 598,30 591,30 591,40 " class="clusterblast-orf" style="stroke-width:1; stroke:black; fill:white; " locus_tag="B8063_RS05895"  />
<polygon description="&lt;b&gt;B8063_RS05900&lt;/b&gt;&lt;br&gt;ABC transporter substrate-binding protein&lt;br&gt;Location: 1157503 - 1158355" id="knownclusterblast-6_q43_0_all" points="603,40 608,40 613,35 608,30 603,30 603,40 " class="clusterblast-orf" style="stroke-width:1; stroke:black; fill:white; " locus_tag="B8063_RS05900"  />
<polygon description="&lt;b&gt;B8063_RS05905&lt;/b&gt;&lt;br&gt;ABC transporter permease&lt;br&gt;Location: 1158398 - 1159091" id="knownclusterblast-6_q44_0_all" points="613,40 616,40 621,35 616,30 613,30 613,40 " class="clusterblast-orf" style="stroke-width:1; stroke:black; fill:white; " locus_tag="B8063_RS05905"  />
<polygon description="&lt;b&gt;B8063_RS05910&lt;/b&gt;&lt;br&gt;ABC transporter permease&lt;br&gt;Location: 1159091 - 1159769" id="knownclusterblast-6_q45_0_all" points="621,40 624,40 629,35 624,30 621,30 621,40 " class="clusterblast-orf" style="stroke-width:1; stroke:black; fill:white; " locus_tag="B8063_RS05910"  />
<polygon description="&lt;b&gt;B8063_RS05915&lt;/b&gt;&lt;br&gt;MATE family efflux transporter&lt;br&gt;Location: 1159765 - 1161076" id="knownclusterblast-6_q46_0_all" points="629,35 634,30 644,30 644,40 634,40 629,35 " class="clusterblast-orf" style="stroke-width:1; stroke:black; fill:white; " locus_tag="B8063_RS05915"  />
<polygon description="&lt;b&gt;B8063_RS05920&lt;/b&gt;&lt;br&gt;hypothetical protein&lt;br&gt;Location: 1161083 - 1161473" id="knownclusterblast-6_q47_0_all" points="644,35 648,30 648,40 644,35 " class="clusterblast-orf" style="stroke-width:1; stroke:black; fill:white; " locus_tag="B8063_RS05920"  />
<polygon description="&lt;b&gt;B8063_RS05925&lt;/b&gt;&lt;br&gt;lipopolysaccharide heptosyltransferase family protein&lt;br&gt;Location: 1161505 - 1162447" id="knownclusterblast-6_q48_0_all" points="649,40 654,40 659,35 654,30 649,30 649,40 " class="clusterblast-orf" style="stroke-width:1; stroke:black; fill:white; " locus_tag="B8063_RS05925"  />
<polygon description="&lt;b&gt;B8063_RS05930&lt;/b&gt;&lt;br&gt;hypothetical protein&lt;br&gt;Location: 1162451 - 1162868" id="knownclusterblast-6_q49_0_all" points="659,35 664,30 664,30 664,40 664,40 659,35 " class="clusterblast-orf" style="stroke-width:1; stroke:black; fill:white; " locus_tag="B8063_RS05930"  />
<polygon description="&lt;b&gt;B8063_RS05935&lt;/b&gt;&lt;br&gt;glycosyltransferase family 4 protein&lt;br&gt;Location: 1162877 - 1163960" id="knownclusterblast-6_q50_0_all" points="664,35 669,30 677,30 677,40 669,40 664,35 " class="clusterblast-orf" style="stroke-width:1; stroke:black; fill:white; " locus_tag="B8063_RS05935"  />
<polygon description="&lt;b&gt;B8063_RS05940&lt;/b&gt;&lt;br&gt;thioredoxin family protein&lt;br&gt;Location: 1163959 - 1164517" id="knownclusterblast-6_q51_0_all" points="677,35 682,30 683,30 683,40 682,40 677,35 " class="clusterblast-orf" style="stroke-width:1; stroke:black; fill:white; " locus_tag="B8063_RS05940"  />
<polygon description="&lt;b&gt;B8063_RS05945&lt;/b&gt;&lt;br&gt;gamma carbonic anhydrase family protein&lt;br&gt;Location: 1164534 - 1165047" id="knownclusterblast-6_q52_0_all" points="683,40 684,40 689,35 684,30 683,30 683,40 " class="clusterblast-orf" style="stroke-width:1; stroke:black; fill:white; " locus_tag="B8063_RS05945"  />
<polygon description="&lt;b&gt;B8063_RS05950&lt;/b&gt;&lt;br&gt;flavin-binding protein&lt;br&gt;Location: 1165043 - 1165643" id="knownclusterblast-6_q53_0_all" points="689,35 694,30 696,30 696,40 694,40 689,35 " class="clusterblast-orf" style="stroke-width:1; stroke:black; fill:white; " locus_tag="B8063_RS05950"  />
<polygon description="&lt;b&gt;B8063_RS05955&lt;/b&gt;&lt;br&gt;NAD(P)-dependent oxidoreductase&lt;br&gt;Location: 1165646 - 1166516" id="knownclusterblast-6_q54_0_all" points="696,35 701,30 706,30 706,40 701,40 696,35 " class="clusterblast-orf" style="stroke-width:1; stroke:black; fill:white; " locus_tag="B8063_RS05955"  />
<polygon description="&lt;b&gt;B8063_RS05960&lt;/b&gt;&lt;br&gt;MFS transporter&lt;br&gt;Location: 1166524 - 1167733" id="knownclusterblast-6_q55_0_all" points="706,40 714,40 719,35 714,30 706,30 706,40 " class="clusterblast-orf" style="stroke-width:1; stroke:black; fill:white; " locus_tag="B8063_RS05960"  />
<polygon description="&lt;b&gt;B8063_RS05965&lt;/b&gt;&lt;br&gt;DNA-directed RNA polymerase subunit omega&lt;br&gt;Location: 1167776 - 1168295" id="knownclusterblast-6_q56_0_all" points="720,40 721,40 726,35 721,30 720,30 720,40 " class="clusterblast-orf" style="stroke-width:1; stroke:black; fill:white; " locus_tag="B8063_RS05965"  />
<polygon description="&lt;b&gt;B8063_RS05970&lt;/b&gt;&lt;br&gt;hypothetical protein&lt;br&gt;Location: 1168356 - 1169361" id="knownclusterblast-6_q57_0_all" points="726,35 731,30 738,30 738,40 731,40 726,35 " class="clusterblast-orf" style="stroke-width:1; stroke:black; fill:white; " locus_tag="B8063_RS05970"  />
<polygon description="&lt;b&gt;B8063_RS05975&lt;/b&gt;&lt;br&gt;aminomethyl transferase family protein&lt;br&gt;Location: 1169526 - 1170702" id="knownclusterblast-6_q58_0_all" points="740,35 745,30 753,30 753,40 745,40 740,35 " class="clusterblast-orf" style="stroke-width:1; stroke:black; fill:white; " locus_tag="B8063_RS05975"  />
<polygon description="&lt;b&gt;B8063_RS05980&lt;/b&gt;&lt;br&gt;aspartyl/glutamyl-tRNA(Asn/Gln) amidotransferase subunit C&lt;br&gt;Location: 1170712 - 1173043" id="knownclusterblast-6_q59_0_all" points="753,35 758,30 780,30 780,40 758,40 753,35 " class="clusterblast-orf" style="stroke-width:1; stroke:black; fill:white; " locus_tag="B8063_RS05980"  />
</g>
<g class="clusterblast-cluster" label="BGC0000732" description="BGC0000732_c1: Capsular polysaccharide (11% of genes show similarity), saccharide"  >
<text class="clusterblast-acc" x="5" y="70"  >
<a xlink:href="https://mibig.secondarymetabolites.org/go/BGC0000732/1" target="_blank">BGC0000732</a>:                                                          Capsular polysaccharide (11% of genes show similarity), saccharide</text>
<line y1="85" x1="10" y2="85" style="stroke-width:1; stroke:grey; " x2="778.0"  />
</g>
<g id="a6_000"  >
<polygon description="&lt;b&gt;BAF47039.1&lt;/b&gt;&lt;br&gt;UDP-glucose pyrophosphorylase&lt;br&gt;Location: 152 - 1048" id="knownclusterblast-6_all_6_1_0" points="274,90 279,90 284,85 279,80 274,80 274,90 " class="clusterblast-orf" style="stroke-width:1; stroke:black; fill:white; " locus_tag="BAF47039.1"  />
</g>
<g id="a6_001"  >
<polygon description="&lt;b&gt;BAF47040.1&lt;/b&gt;&lt;br&gt;acid phosphatase homologue&lt;br&gt;Location: 1442 - 2071" id="knownclusterblast-6_all_6_1_1" points="288,90 291,90 296,85 291,80 288,80 288,90 " class="clusterblast-orf" style="stroke-width:1; stroke:black; fill:white; " locus_tag="BAF47040.1"  />
</g>
<g id="a6_002"  >
<polygon description="&lt;b&gt;BAF47041.1&lt;/b&gt;&lt;br&gt;surface assembly of capsule&lt;br&gt;Location: 3029 - 4468" id="knownclusterblast-6_all_6_1_2" points="306,90 318,90 323,85 318,80 306,80 306,90 " class="clusterblast-orf" style="stroke-width:1; stroke:black; fill:white; " locus_tag="BAF47041.1"  />
</g>
<g id="a6_003"  >
<polygon description="&lt;b&gt;BAF47042.1&lt;/b&gt;&lt;br&gt;multimeric putative translocation channel&lt;br&gt;Location: 4614 - 5747" id="knownclusterblast-6_all_6_1_3" points="324,90 332,90 337,85 332,80 324,80 324,90 " class="clusterblast-orf" style="stroke-width:1; stroke:black; fill:white; " locus_tag="BAF47042.1"  />
</g>
<g id="a6_004"  >
<polygon description="&lt;b&gt;BAF47043.1&lt;/b&gt;&lt;br&gt;protein tyrosine phosphatase&lt;br&gt;Location: 5753 - 6187" id="knownclusterblast-6_all_6_1_4" points="337,90 337,90 342,85 337,80 337,80 337,90 " class="clusterblast-orf" style="stroke-width:1; stroke:black; fill:white; " locus_tag="BAF47043.1"  />
</g>
<g id="a6_005"  >
<polygon description="&lt;b&gt;BAF47044.1&lt;/b&gt;&lt;br&gt;putative transmembrane protein&lt;br&gt;Location: 6206 - 8356" id="knownclusterblast-6_all_6_1_5" points="342,90 362,90 367,85 362,80 342,80 342,90 " class="clusterblast-orf" style="stroke-width:1; stroke:black; fill:white; " locus_tag="BAF47044.1"  />
</g>
<g id="a6_006"  >
<polygon description="&lt;b&gt;BAF47045.1&lt;/b&gt;&lt;br&gt;putative glycosyltransferase&lt;br&gt;Location: 8408 - 9568" id="knownclusterblast-6_all_6_1_6" points="367,90 376,90 381,85 376,80 367,80 367,90 " class="clusterblast-orf" style="stroke-width:1; stroke:black; fill:white; " locus_tag="BAF47045.1"  />
</g>
<g id="a6_007"  >
<polygon description="&lt;b&gt;BAF47046.1&lt;/b&gt;&lt;br&gt;flippase&lt;br&gt;Location: 9653 - 10819" id="knownclusterblast-6_all_6_1_7" points="382,90 390,90 395,85 390,80 382,80 382,90 " class="clusterblast-orf" style="stroke-width:1; stroke:black; fill:white; " locus_tag="BAF47046.1"  />
</g>
<g id="a6_008"  >
<polygon description="&lt;b&gt;BAF47047.1&lt;/b&gt;&lt;br&gt;polymerase&lt;br&gt;Location: 10916 - 11998" id="knownclusterblast-6_all_6_1_8" points="396,90 403,90 408,85 403,80 396,80 396,90 " class="clusterblast-orf" style="stroke-width:1; stroke:black; fill:white; " locus_tag="BAF47047.1"  />
</g>
<g id="a6_009"  >
<polygon description="&lt;b&gt;BAF47048.1&lt;/b&gt;&lt;br&gt;putative acetyltransferase&lt;br&gt;Location: 11973 - 12575" id="knownclusterblast-6_all_6_1_9" points="408,90 410,90 415,85 410,80 408,80 408,90 " class="clusterblast-orf" style="stroke-width:1; stroke:black; fill:white; " locus_tag="BAF47048.1"  />
</g>
<g id="a6_0010"  >
<polygon description="&lt;b&gt;BAF47049.1&lt;/b&gt;&lt;br&gt;putative glycosyltransferase&lt;br&gt;Location: 12568 - 13488" id="knownclusterblast-6_all_6_1_10" points="415,90 420,90 425,85 420,80 415,80 415,90 " class="clusterblast-orf" style="stroke-width:1; stroke:black; fill:white; " locus_tag="BAF47049.1"  />
</g>
<g id="a6_0011"  >
<polygon description="&lt;b&gt;BAF47050.1&lt;/b&gt;&lt;br&gt;GDP-D-mannose dehydratase&lt;br&gt;Location: 13499 - 14617&lt;br&gt;&lt;br&gt;&lt;b&gt;BlastP hit with B8063_RS05835&lt;/b&gt;&lt;br&gt;Percentage identity: 46&lt;br&gt;Percentage coverage: 103&lt;br&gt;BLAST bit score: 299&lt;br&gt;E-value: 9e-81" id="knownclusterblast-6_all_6_1_11" points="425,90 433,90 438,85 433,80 425,80 425,90 " class="clusterblast-orf" style="stroke-width:1; stroke:black; fill:#15d8d8; " locus_tag="BAF47050.1"  />
</g>
<g id="a6_0012"  >
<polygon description="&lt;b&gt;BAF47051.1&lt;/b&gt;&lt;br&gt;GDP-fucose synthetase&lt;br&gt;Location: 14586 - 15590" id="knownclusterblast-6_all_6_1_12" points="438,90 444,90 449,85 444,80 438,80 438,90 " class="clusterblast-orf" style="stroke-width:1; stroke:black; fill:white; " locus_tag="BAF47051.1"  />
</g>
<g id="a6_0013"  >
<polygon description="&lt;b&gt;BAF47052.1&lt;/b&gt;&lt;br&gt;putative GDP-mannose&lt;br&gt;Location: 15592 - 16050" id="knownclusterblast-6_all_6_1_13" points="449,90 449,90 454,85 449,80 449,80 449,90 " class="clusterblast-orf" style="stroke-width:1; stroke:black; fill:white; " locus_tag="BAF47052.1"  />
</g>
<g id="a6_0014"  >
<polygon description="&lt;b&gt;BAF47053.1&lt;/b&gt;&lt;br&gt;putative glycosyl transferase&lt;br&gt;Location: 16062 - 17276" id="knownclusterblast-6_all_6_1_14" points="454,90 463,90 468,85 463,80 454,80 454,90 " class="clusterblast-orf" style="stroke-width:1; stroke:black; fill:white; " locus_tag="BAF47053.1"  />
</g>
<g id="a6_0015"  >
<polygon description="&lt;b&gt;BAF47054.1&lt;/b&gt;&lt;br&gt;putative CPS biosynthesis glycosyltransferase&lt;br&gt;Location: 17580 - 18983&lt;br&gt;&lt;br&gt;&lt;b&gt;BlastP hit with B8063_RS05720&lt;/b&gt;&lt;br&gt;Percentage identity: 46&lt;br&gt;Percentage coverage: 41&lt;br&gt;BLAST bit score: 165&lt;br&gt;E-value: 2.1e-40" id="knownclusterblast-6_all_6_1_15" points="471,90 482,90 487,85 482,80 471,80 471,90 " class="clusterblast-orf" style="stroke-width:1; stroke:black; fill:#d81515; " locus_tag="BAF47054.1"  />
</g>
<g id="a6_0016"  >
<polygon description="&lt;b&gt;BAF47055.1&lt;/b&gt;&lt;br&gt;6-phosphogluconate dehydrogenase&lt;br&gt;Location: 19147 - 20553" id="knownclusterblast-6_all_6_1_16" points="489,90 500,90 505,85 500,80 489,80 489,90 " class="clusterblast-orf" style="stroke-width:1; stroke:black; fill:white; " locus_tag="BAF47055.1"  />
</g>
<g class="clusterblast-cluster" label="BGC0000733" description="BGC0000733_c1: Capsular polysaccharide (11% of genes show similarity), saccharide"  >
<text class="clusterblast-acc" x="5" y="120"  >
<a xlink:href="https://mibig.secondarymetabolites.org/go/BGC0000733/1" target="_blank">BGC0000733</a>:                                                          Capsular polysaccharide (11% of genes show similarity), saccharide</text>
<line y1="135" x1="10" y2="135" style="stroke-width:1; stroke:grey; " x2="778.0"  />
</g>
<g id="a6_000"  >
<polygon description="&lt;b&gt;BAF47056.1&lt;/b&gt;&lt;br&gt;UDP-glucose pyrophosphorylase&lt;br&gt;Location: 152 - 1048" id="knownclusterblast-6_all_6_2_0" points="274,140 279,140 284,135 279,130 274,130 274,140 " class="clusterblast-orf" style="stroke-width:1; stroke:black; fill:white; " locus_tag="BAF47056.1"  />
</g>
<g id="a6_001"  >
<polygon description="&lt;b&gt;BAF47057.1&lt;/b&gt;&lt;br&gt;acid phosphatase homologue&lt;br&gt;Location: 1441 - 2070" id="knownclusterblast-6_all_6_2_1" points="288,140 291,140 296,135 291,130 288,130 288,140 " class="clusterblast-orf" style="stroke-width:1; stroke:black; fill:white; " locus_tag="BAF47057.1"  />
</g>
<g id="a6_002"  >
<polygon description="&lt;b&gt;BAF47058.1&lt;/b&gt;&lt;br&gt;surface assembly of capsule&lt;br&gt;Location: 3030 - 4469" id="knownclusterblast-6_all_6_2_2" points="306,140 318,140 323,135 318,130 306,130 306,140 " class="clusterblast-orf" style="stroke-width:1; stroke:black; fill:white; " locus_tag="BAF47058.1"  />
</g>
<g id="a6_003"  >
<polygon description="&lt;b&gt;BAF47059.1&lt;/b&gt;&lt;br&gt;multimeric putative translocation channel&lt;br&gt;Location: 4615 - 5748" id="knownclusterblast-6_all_6_2_3" points="324,140 332,140 337,135 332,130 324,130 324,140 " class="clusterblast-orf" style="stroke-width:1; stroke:black; fill:white; " locus_tag="BAF47059.1"  />
</g>
<g id="a6_004"  >
<polygon description="&lt;b&gt;BAF47060.1&lt;/b&gt;&lt;br&gt;protein tyrosine phosphatase&lt;br&gt;Location: 5754 - 6188" id="knownclusterblast-6_all_6_2_4" points="337,140 337,140 342,135 337,130 337,130 337,140 " class="clusterblast-orf" style="stroke-width:1; stroke:black; fill:white; " locus_tag="BAF47060.1"  />
</g>
<g id="a6_005"  >
<polygon description="&lt;b&gt;BAF47061.1&lt;/b&gt;&lt;br&gt;putative transmembrane protein&lt;br&gt;Location: 6207 - 8357" id="knownclusterblast-6_all_6_2_5" points="342,140 362,140 367,135 362,130 342,130 342,140 " class="clusterblast-orf" style="stroke-width:1; stroke:black; fill:white; " locus_tag="BAF47061.1"  />
</g>
<g id="a6_006"  >
<polygon description="&lt;b&gt;BAF47062.1&lt;/b&gt;&lt;br&gt;putative glycosyltransferase&lt;br&gt;Location: 8410 - 9570" id="knownclusterblast-6_all_6_2_6" points="367,140 376,140 381,135 376,130 367,130 367,140 " class="clusterblast-orf" style="stroke-width:1; stroke:black; fill:white; " locus_tag="BAF47062.1"  />
</g>
<g id="a6_007"  >
<polygon description="&lt;b&gt;BAF47063.1&lt;/b&gt;&lt;br&gt;flippase&lt;br&gt;Location: 9655 - 10821" id="knownclusterblast-6_all_6_2_7" points="382,140 390,140 395,135 390,130 382,130 382,140 " class="clusterblast-orf" style="stroke-width:1; stroke:black; fill:white; " locus_tag="BAF47063.1"  />
</g>
<g id="a6_008"  >
<polygon description="&lt;b&gt;BAF47064.1&lt;/b&gt;&lt;br&gt;serotype K54 polymerase&lt;br&gt;Location: 10918 - 12000" id="knownclusterblast-6_all_6_2_8" points="396,140 403,140 408,135 403,130 396,130 396,140 " class="clusterblast-orf" style="stroke-width:1; stroke:black; fill:white; " locus_tag="BAF47064.1"  />
</g>
<g id="a6_009"  >
<polygon description="&lt;b&gt;BAF47065.1&lt;/b&gt;&lt;br&gt;putative acetyltransferase&lt;br&gt;Location: 12142 - 12576" id="knownclusterblast-6_all_6_2_9" points="410,140 410,140 415,135 410,130 410,130 410,140 " class="clusterblast-orf" style="stroke-width:1; stroke:black; fill:white; " locus_tag="BAF47065.1"  />
</g>
<g id="a6_0010"  >
<polygon description="&lt;b&gt;BAF47066.1&lt;/b&gt;&lt;br&gt;putative glycosyltransferase&lt;br&gt;Location: 12569 - 13489" id="knownclusterblast-6_all_6_2_10" points="415,140 420,140 425,135 420,130 415,130 415,140 " class="clusterblast-orf" style="stroke-width:1; stroke:black; fill:white; " locus_tag="BAF47066.1"  />
</g>
<g id="a6_0011"  >
<polygon description="&lt;b&gt;BAF47067.1&lt;/b&gt;&lt;br&gt;GDP-D-mannose dehydratase&lt;br&gt;Location: 13500 - 14618&lt;br&gt;&lt;br&gt;&lt;b&gt;BlastP hit with B8063_RS05835&lt;/b&gt;&lt;br&gt;Percentage identity: 46&lt;br&gt;Percentage coverage: 103&lt;br&gt;BLAST bit score: 299&lt;br&gt;E-value: 9e-81" id="knownclusterblast-6_all_6_2_11" points="425,140 433,140 438,135 433,130 425,130 425,140 " class="clusterblast-orf" style="stroke-width:1; stroke:black; fill:#15d8d8; " locus_tag="BAF47067.1"  />
</g>
<g id="a6_0012"  >
<polygon description="&lt;b&gt;BAF47068.1&lt;/b&gt;&lt;br&gt;GDP-fucose synthetase&lt;br&gt;Location: 14622 - 15590" id="knownclusterblast-6_all_6_2_12" points="438,140 444,140 449,135 444,130 438,130 438,140 " class="clusterblast-orf" style="stroke-width:1; stroke:black; fill:white; " locus_tag="BAF47068.1"  />
</g>
<g id="a6_0013"  >
<polygon description="&lt;b&gt;BAF47069.1&lt;/b&gt;&lt;br&gt;putative GDP-mannose&lt;br&gt;Location: 15592 - 16050" id="knownclusterblast-6_all_6_2_13" points="449,140 449,140 454,135 449,130 449,130 449,140 " class="clusterblast-orf" style="stroke-width:1; stroke:black; fill:white; " locus_tag="BAF47069.1"  />
</g>
<g id="a6_0014"  >
<polygon description="&lt;b&gt;BAF47070.1&lt;/b&gt;&lt;br&gt;putative glycosyl transferase&lt;br&gt;Location: 16062 - 17276" id="knownclusterblast-6_all_6_2_14" points="454,140 463,140 468,135 463,130 454,130 454,140 " class="clusterblast-orf" style="stroke-width:1; stroke:black; fill:white; " locus_tag="BAF47070.1"  />
</g>
<g id="a6_0015"  >
<polygon description="&lt;b&gt;BAF47071.1&lt;/b&gt;&lt;br&gt;putative CPS biosynthesis glycosyltransferase&lt;br&gt;Location: 17579 - 18982&lt;br&gt;&lt;br&gt;&lt;b&gt;BlastP hit with B8063_RS05720&lt;/b&gt;&lt;br&gt;Percentage identity: 46&lt;br&gt;Percentage coverage: 41&lt;br&gt;BLAST bit score: 165&lt;br&gt;E-value: 2.1e-40" id="knownclusterblast-6_all_6_2_15" points="471,140 482,140 487,135 482,130 471,130 471,140 " class="clusterblast-orf" style="stroke-width:1; stroke:black; fill:#d81515; " locus_tag="BAF47071.1"  />
</g>
<g id="a6_0016"  >
<polygon description="&lt;b&gt;BAF47072.1&lt;/b&gt;&lt;br&gt;6-phosphogluconate dehydrogenase&lt;br&gt;Location: 19146 - 20552" id="knownclusterblast-6_all_6_2_16" points="489,140 500,140 505,135 500,130 489,130 489,140 " class="clusterblast-orf" style="stroke-width:1; stroke:black; fill:white; " locus_tag="BAF47072.1"  />
</g>
</svg>
