<svg width="800" height="50" version="1.1" x="0" viewBox="0 0 800 50" xmlns="http://www.w3.org/2000/svg" y="0" xmlns:xlink="http://www.w3.org/1999/xlink" preserveAspectRatio="none"  >
<g class="clusterblast-cluster" label="Query sequence"  >
<text class="clusterblast-acc" x="5" y="20"  >
Query sequence</text>
<line y1="35" x1="10" y2="35" style="stroke-width:1; stroke:grey; " x2="778.0"  />
<polygon description="&lt;b&gt;B8063_RS06215&lt;/b&gt;&lt;br&gt;phosphoribosylformylglycinamidine synthase I&lt;br&gt;Location: 1225092 - 1225776" id="knownclusterblast-7_q0_0_all" points="0,35 5,30 25,30 25,40 5,40 0,35 " class="clusterblast-orf" style="stroke-width:1; stroke:black; fill:white; " locus_tag="B8063_RS06215"  />
<polygon description="&lt;b&gt;B8063_RS06220&lt;/b&gt;&lt;br&gt;phosphoribosylformylglycinamidine synthase subunit PurS&lt;br&gt;Location: 1225782 - 1226016" id="knownclusterblast-7_q1_0_all" points="25,35 30,30 34,30 34,40 30,40 25,35 " class="clusterblast-orf" style="stroke-width:1; stroke:black; fill:white; " locus_tag="B8063_RS06220"  />
<polygon description="&lt;b&gt;B8063_RS06225&lt;/b&gt;&lt;br&gt;phosphoribosylaminoimidazolesuccinocarboxamide synthase&lt;br&gt;Location: 1226015 - 1226801" id="knownclusterblast-7_q2_0_all" points="34,35 39,30 63,30 63,40 39,40 34,35 " class="clusterblast-orf" style="stroke-width:1; stroke:black; fill:white; " locus_tag="B8063_RS06225"  />
<polygon description="&lt;b&gt;B8063_RS06230&lt;/b&gt;&lt;br&gt;adenylosuccinate lyase&lt;br&gt;Location: 1226800 - 1228093" id="knownclusterblast-7_q3_0_all" points="63,35 68,30 110,30 110,40 68,40 63,35 " class="clusterblast-orf" style="stroke-width:1; stroke:black; fill:white; " locus_tag="B8063_RS06230"  />
<polygon description="&lt;b&gt;B8063_RS06235&lt;/b&gt;&lt;br&gt;type I methionyl aminopeptidase&lt;br&gt;Location: 1228092 - 1228869" id="knownclusterblast-7_q4_0_all" points="110,35 115,30 139,30 139,40 115,40 110,35 " class="clusterblast-orf" style="stroke-width:1; stroke:black; fill:white; " locus_tag="B8063_RS06235"  />
<polygon description="&lt;b&gt;B8063_RS06240&lt;/b&gt;&lt;br&gt;sugar fermentation stimulation protein SfsA&lt;br&gt;Location: 1228858 - 1229548" id="knownclusterblast-7_q5_0_all" points="138,35 143,30 164,30 164,40 143,40 138,35 " class="clusterblast-orf" style="stroke-width:1; stroke:black; fill:white; " locus_tag="B8063_RS06240"  />
<polygon description="&lt;b&gt;B8063_RS06245&lt;/b&gt;&lt;br&gt;competence/damage-inducible protein A&lt;br&gt;Location: 1229569 - 1230322" id="knownclusterblast-7_q6_0_all" points="165,40 187,40 192,35 187,30 165,30 165,40 " class="clusterblast-orf" style="stroke-width:1; stroke:black; fill:white; " locus_tag="B8063_RS06245"  />
<polygon description="&lt;b&gt;B8063_RS06250&lt;/b&gt;&lt;br&gt;gamma-glutamylcyclotransferase&lt;br&gt;Location: 1230321 - 1230729" id="knownclusterblast-7_q7_0_all" points="192,40 202,40 207,35 202,30 192,30 192,40 " class="clusterblast-orf" style="stroke-width:1; stroke:black; fill:white; " locus_tag="B8063_RS06250"  />
<polygon description="&lt;b&gt;B8063_RS06255&lt;/b&gt;&lt;br&gt;branched-chain amino acid ABC transporter permease&lt;br&gt;Location: 1230732 - 1231425" id="knownclusterblast-7_q8_0_all" points="207,40 228,40 233,35 228,30 207,30 207,40 " class="clusterblast-orf" style="stroke-width:1; stroke:black; fill:white; " locus_tag="B8063_RS06255"  />
<polygon description="&lt;b&gt;B8063_RS06260&lt;/b&gt;&lt;br&gt;AzlD domain-containing protein&lt;br&gt;Location: 1231421 - 1231736" id="knownclusterblast-7_q9_0_all" points="233,40 239,40 244,35 239,30 233,30 233,40 " class="clusterblast-orf" style="stroke-width:1; stroke:black; fill:white; " locus_tag="B8063_RS06260"  />
<polygon description="&lt;b&gt;B8063_RS06265&lt;/b&gt;&lt;br&gt;homoserine dehydrogenase&lt;br&gt;Location: 1231738 - 1233031" id="knownclusterblast-7_q10_0_all" points="244,40 287,40 292,35 287,30 244,30 244,40 " class="clusterblast-orf" style="stroke-width:1; stroke:black; fill:white; " locus_tag="B8063_RS06265"  />
<polygon description="&lt;b&gt;B8063_RS06270&lt;/b&gt;&lt;br&gt;tetratricopeptide repeat protein&lt;br&gt;Location: 1233022 - 1234723" id="knownclusterblast-7_q11_0_all" points="292,35 297,30 354,30 354,40 297,40 292,35 " class="clusterblast-orf" style="stroke-width:1; stroke:black; fill:white; " locus_tag="B8063_RS06270"  />
<polygon description="&lt;b&gt;B8063_RS06275&lt;/b&gt;&lt;br&gt;hypothetical protein&lt;br&gt;Location: 1234757 - 1236479" id="knownclusterblast-7_q12_0_all" points="356,35 361,30 419,30 419,40 361,40 356,35 " class="clusterblast-orf" style="stroke-width:1; stroke:black; fill:white; " locus_tag="B8063_RS06275"  />
<polygon description="&lt;b&gt;B8063_RS06280&lt;/b&gt;&lt;br&gt;glycosyl transferase&lt;br&gt;Location: 1236478 - 1237699" id="knownclusterblast-7_q13_0_all" points="419,35 424,30 464,30 464,40 424,40 419,35 " class="clusterblast-orf" style="stroke-width:1; stroke:black; fill:white; " locus_tag="B8063_RS06280"  />
<polygon description="&lt;b&gt;B8063_RS06285&lt;/b&gt;&lt;br&gt;hypothetical protein&lt;br&gt;Location: 1237707 - 1238517" id="knownclusterblast-7_q14_0_all" points="464,35 469,30 494,30 494,40 469,40 464,35 " class="clusterblast-orf" style="stroke-width:1; stroke:black; fill:white; " locus_tag="B8063_RS06285"  />
<polygon description="&lt;b&gt;B8063_RS06290&lt;/b&gt;&lt;br&gt;superinfection immunity protein&lt;br&gt;Location: 1238652 - 1238967" id="knownclusterblast-7_q15_0_all" points="499,35 504,30 511,30 511,40 504,40 499,35 " class="clusterblast-orf" style="stroke-width:1; stroke:black; fill:white; " locus_tag="B8063_RS06290"  />
<polygon description="&lt;b&gt;B8063_RS06295&lt;/b&gt;&lt;br&gt;hypothetical protein&lt;br&gt;Location: 1238893 - 1241446" id="knownclusterblast-7_q16_0_all" points="508,40 597,40 602,35 597,30 508,30 508,40 " class="clusterblast-orf" style="stroke-width:1; stroke:black; fill:white; " locus_tag="B8063_RS06295"  />
<polygon description="&lt;b&gt;B8063_RS06305&lt;/b&gt;&lt;br&gt;NAD kinase&lt;br&gt;Location: 1241640 - 1242414" id="knownclusterblast-7_q17_0_all" points="609,40 632,40 637,35 632,30 609,30 609,40 " class="clusterblast-orf" style="stroke-width:1; stroke:black; fill:white; " locus_tag="B8063_RS06305"  />
<polygon description="&lt;b&gt;B8063_RS06310&lt;/b&gt;&lt;br&gt;hypothetical protein&lt;br&gt;Location: 1242414 - 1242876" id="knownclusterblast-7_q18_0_all" points="637,40 649,40 654,35 649,30 637,30 637,40 " class="clusterblast-orf" style="stroke-width:1; stroke:black; fill:white; " locus_tag="B8063_RS06310"  />
<polygon description="&lt;b&gt;B8063_RS06315&lt;/b&gt;&lt;br&gt;hypothetical protein&lt;br&gt;Location: 1243051 - 1243531" id="knownclusterblast-7_q19_0_all" points="661,40 674,40 679,35 674,30 661,30 661,40 " class="clusterblast-orf" style="stroke-width:1; stroke:black; fill:white; " locus_tag="B8063_RS06315"  />
<polygon description="&lt;b&gt;B8063_RS06325&lt;/b&gt;&lt;br&gt;23S rRNA (guanosine(2251)-2'-O)-methyltransferase RlmB&lt;br&gt;Location: 1243677 - 1244421" id="knownclusterblast-7_q20_0_all" points="684,35 689,30 711,30 711,40 689,40 684,35 " class="clusterblast-orf" style="stroke-width:1; stroke:black; fill:white; " locus_tag="B8063_RS06325"  />
<polygon description="&lt;b&gt;B8063_RS06340&lt;/b&gt;&lt;br&gt;elongation factor Tu&lt;br&gt;Location: 1244801 - 1245992" id="knownclusterblast-7_q21_0_all" points="725,40 764,40 769,35 764,30 725,30 725,40 " class="clusterblast-orf" style="stroke-width:1; stroke:black; fill:white; " locus_tag="B8063_RS06340"  />
<polygon description="&lt;b&gt;B8063_RS06350&lt;/b&gt;&lt;br&gt;preprotein translocase subunit SecE&lt;br&gt;Location: 1246091 - 1246283" id="knownclusterblast-7_q22_0_all" points="773,40 775,40 780,35 775,30 773,30 773,40 " class="clusterblast-orf" style="stroke-width:1; stroke:black; fill:white; " locus_tag="B8063_RS06350"  />
</g>
</svg>
