<svg width="800" height="50" version="1.1" x="0" viewBox="0 0 800 50" xmlns="http://www.w3.org/2000/svg" y="0" xmlns:xlink="http://www.w3.org/1999/xlink" preserveAspectRatio="none"  >
<g class="clusterblast-cluster" label="Query sequence"  >
<text class="clusterblast-acc" x="5" y="20"  >
Query sequence</text>
<line y1="35" x1="10" y2="35" style="stroke-width:1; stroke:grey; " x2="778.0"  />
<polygon description="&lt;b&gt;B8063_RS06660&lt;/b&gt;&lt;br&gt;4-hydroxy-tetrahydrodipicolinate synthase&lt;br&gt;Location: 1299975 - 1300863" id="subclusterblast-8_q0_0_all" points="0,40 14,40 19,35 14,30 0,30 0,40 " class="clusterblast-orf" style="stroke-width:1; stroke:black; fill:white; " locus_tag="B8063_RS06660"  />
<polygon description="&lt;b&gt;B8063_RS06665&lt;/b&gt;&lt;br&gt;SsrA-binding protein SmpB&lt;br&gt;Location: 1300855 - 1301326" id="subclusterblast-8_q1_0_all" points="18,40 23,40 28,35 23,30 18,30 18,40 " class="clusterblast-orf" style="stroke-width:1; stroke:black; fill:white; " locus_tag="B8063_RS06665"  />
<polygon description="&lt;b&gt;B8063_RS06670&lt;/b&gt;&lt;br&gt;2-amino-4-hydroxy-6- hydroxymethyldihydropteridine diphosphokinase&lt;br&gt;Location: 1301252 - 1301819" id="subclusterblast-8_q2_0_all" points="27,40 34,40 39,35 34,30 27,30 27,40 " class="clusterblast-orf" style="stroke-width:1; stroke:black; fill:white; " locus_tag="B8063_RS06670"  />
<polygon description="&lt;b&gt;B8063_RS06675&lt;/b&gt;&lt;br&gt;RelA/SpoT family protein&lt;br&gt;Location: 1301840 - 1303586" id="subclusterblast-8_q3_0_all" points="39,40 72,40 77,35 72,30 39,30 39,40 " class="clusterblast-orf" style="stroke-width:1; stroke:black; fill:white; " locus_tag="B8063_RS06675"  />
<polygon description="&lt;b&gt;B8063_RS06680&lt;/b&gt;&lt;br&gt;orotate phosphoribosyltransferase&lt;br&gt;Location: 1303542 - 1304133" id="subclusterblast-8_q4_0_all" points="76,40 83,40 88,35 83,30 76,30 76,40 " class="clusterblast-orf" style="stroke-width:1; stroke:black; fill:white; " locus_tag="B8063_RS06680"  />
<polygon description="&lt;b&gt;B8063_RS06685&lt;/b&gt;&lt;br&gt;pyridoxine 5'-phosphate synthase&lt;br&gt;Location: 1304129 - 1304849" id="subclusterblast-8_q5_0_all" points="88,40 99,40 104,35 99,30 88,30 88,40 " class="clusterblast-orf" style="stroke-width:1; stroke:black; fill:white; " locus_tag="B8063_RS06685"  />
<polygon description="&lt;b&gt;B8063_RS06690&lt;/b&gt;&lt;br&gt;holo-ACP synthase&lt;br&gt;Location: 1304850 - 1305237" id="subclusterblast-8_q6_0_all" points="104,40 107,40 112,35 107,30 104,30 104,40 " class="clusterblast-orf" style="stroke-width:1; stroke:black; fill:white; " locus_tag="B8063_RS06690"  />
<polygon description="&lt;b&gt;B8063_RS06695&lt;/b&gt;&lt;br&gt;signal peptidase I&lt;br&gt;Location: 1305236 - 1305965" id="subclusterblast-8_q7_0_all" points="112,40 122,40 127,35 122,30 112,30 112,40 " class="clusterblast-orf" style="stroke-width:1; stroke:black; fill:white; " locus_tag="B8063_RS06695"  />
<polygon description="&lt;b&gt;B8063_RS06700&lt;/b&gt;&lt;br&gt;ribonuclease III&lt;br&gt;Location: 1305964 - 1306630" id="subclusterblast-8_q8_0_all" points="127,40 136,40 141,35 136,30 127,30 127,40 " class="clusterblast-orf" style="stroke-width:1; stroke:black; fill:white; " locus_tag="B8063_RS06700"  />
<polygon description="&lt;b&gt;B8063_RS06705&lt;/b&gt;&lt;br&gt;DNA repair protein RecO&lt;br&gt;Location: 1306626 - 1307340" id="subclusterblast-8_q9_0_all" points="141,40 152,40 157,35 152,30 141,30 141,40 " class="clusterblast-orf" style="stroke-width:1; stroke:black; fill:white; " locus_tag="B8063_RS06705"  />
<polygon description="&lt;b&gt;B8063_RS06710&lt;/b&gt;&lt;br&gt;porphobilinogen synthase&lt;br&gt;Location: 1307296 - 1308283" id="subclusterblast-8_q10_0_all" points="156,35 161,30 177,30 177,40 161,40 156,35 " class="clusterblast-orf" style="stroke-width:1; stroke:black; fill:white; " locus_tag="B8063_RS06710"  />
<polygon description="&lt;b&gt;B8063_RS06715&lt;/b&gt;&lt;br&gt;peptide-aspartate beta-dioxygenase&lt;br&gt;Location: 1308356 - 1308980" id="subclusterblast-8_q11_0_all" points="178,40 186,40 191,35 186,30 178,30 178,40 " class="clusterblast-orf" style="stroke-width:1; stroke:black; fill:white; " locus_tag="B8063_RS06715"  />
<polygon description="&lt;b&gt;B8063_RS06720&lt;/b&gt;&lt;br&gt;ribose 5-phosphate isomerase B&lt;br&gt;Location: 1308981 - 1309407" id="subclusterblast-8_q12_0_all" points="192,40 196,40 201,35 196,30 192,30 192,40 " class="clusterblast-orf" style="stroke-width:1; stroke:black; fill:white; " locus_tag="B8063_RS06720"  />
<polygon description="&lt;b&gt;B8063_RS06725&lt;/b&gt;&lt;br&gt;serine hydroxymethyltransferase&lt;br&gt;Location: 1309408 - 1310719" id="subclusterblast-8_q13_0_all" points="201,40 224,40 229,35 224,30 201,30 201,40 " class="clusterblast-orf" style="stroke-width:1; stroke:black; fill:white; " locus_tag="B8063_RS06725"  />
<polygon description="&lt;b&gt;B8063_RS06730&lt;/b&gt;&lt;br&gt;transcriptional repressor NrdR&lt;br&gt;Location: 1310726 - 1311185" id="subclusterblast-8_q14_0_all" points="229,40 233,40 238,35 233,30 229,30 229,40 " class="clusterblast-orf" style="stroke-width:1; stroke:black; fill:white; " locus_tag="B8063_RS06730"  />
<polygon description="&lt;b&gt;B8063_RS06735&lt;/b&gt;&lt;br&gt;bifunctional diaminohydroxyphosphoribosylaminopyrimidine deaminase/5-amino-6-(5-phosphoribosylamino)uracil reductase RibD&lt;br&gt;Location: 1311165 - 1312260" id="subclusterblast-8_q15_0_all" points="238,40 256,40 261,35 256,30 238,30 238,40 " class="clusterblast-orf" style="stroke-width:1; stroke:black; fill:white; " locus_tag="B8063_RS06735"  />
<polygon description="&lt;b&gt;B8063_RS06740&lt;/b&gt;&lt;br&gt;riboflavin synthase subunit alpha&lt;br&gt;Location: 1312261 - 1312855" id="subclusterblast-8_q16_0_all" points="261,40 269,40 274,35 269,30 261,30 261,40 " class="clusterblast-orf" style="stroke-width:1; stroke:black; fill:white; " locus_tag="B8063_RS06740"  />
<polygon description="&lt;b&gt;B8063_RS06745&lt;/b&gt;&lt;br&gt;3,4-dihydroxy-2-butanone-4-phosphate synthase&lt;br&gt;Location: 1312841 - 1313945" id="subclusterblast-8_q17_0_all" points="274,40 292,40 297,35 292,30 274,30 274,40 " class="clusterblast-orf" style="stroke-width:1; stroke:black; fill:white; " locus_tag="B8063_RS06745"  />
<polygon description="&lt;b&gt;B8063_RS06750&lt;/b&gt;&lt;br&gt;6,7-dimethyl-8-ribityllumazine synthase&lt;br&gt;Location: 1313941 - 1314334" id="subclusterblast-8_q18_0_all" points="297,40 301,40 306,35 301,30 297,30 297,40 " class="clusterblast-orf" style="stroke-width:1; stroke:black; fill:white; " locus_tag="B8063_RS06750"  />
<polygon description="&lt;b&gt;B8063_RS06755&lt;/b&gt;&lt;br&gt;antitermination protein&lt;br&gt;Location: 1314334 - 1314739" id="subclusterblast-8_q19_0_all" points="306,40 309,40 314,35 309,30 306,30 306,40 " class="clusterblast-orf" style="stroke-width:1; stroke:black; fill:white; " locus_tag="B8063_RS06755"  />
<polygon description="&lt;b&gt;B8063_RS06760&lt;/b&gt;&lt;br&gt;thiamine-phosphate kinase&lt;br&gt;Location: 1314731 - 1315691" id="subclusterblast-8_q20_0_all" points="314,40 329,40 334,35 329,30 314,30 314,40 " class="clusterblast-orf" style="stroke-width:1; stroke:black; fill:white; " locus_tag="B8063_RS06760"  />
<polygon description="&lt;b&gt;B8063_RS06765&lt;/b&gt;&lt;br&gt;sodium-translocating pyrophosphatase&lt;br&gt;Location: 1315768 - 1317880" id="subclusterblast-8_q21_0_all" points="336,40 376,40 381,35 376,30 336,30 336,40 " class="clusterblast-orf" style="stroke-width:1; stroke:black; fill:white; " locus_tag="B8063_RS06765"  />
<polygon description="&lt;b&gt;B8063_RS06770&lt;/b&gt;&lt;br&gt;outer membrane protein assembly factor BamE&lt;br&gt;Location: 1317876 - 1318338" id="subclusterblast-8_q22_0_all" points="381,35 386,30 391,30 391,40 386,40 381,35 " class="clusterblast-orf" style="stroke-width:1; stroke:black; fill:white; " locus_tag="B8063_RS06770"  />
<polygon description="&lt;b&gt;B8063_RS06775&lt;/b&gt;&lt;br&gt;ubiquinol-cytochrome C reductase&lt;br&gt;Location: 1318338 - 1318812" id="subclusterblast-8_q23_0_all" points="391,40 396,40 401,35 396,30 391,30 391,40 " class="clusterblast-orf" style="stroke-width:1; stroke:black; fill:white; " locus_tag="B8063_RS06775"  />
<polygon description="&lt;b&gt;B8063_RS06780&lt;/b&gt;&lt;br&gt;50S ribosomal protein L32&lt;br&gt;Location: 1318814 - 1318994" id="subclusterblast-8_q24_0_all" points="401,40 405,35 401,30 401,40 " class="clusterblast-orf" style="stroke-width:1; stroke:black; fill:white; " locus_tag="B8063_RS06780"  />
<polygon description="&lt;b&gt;B8063_RS06785&lt;/b&gt;&lt;br&gt;phosphate acyltransferase PlsX&lt;br&gt;Location: 1319000 - 1320008" id="subclusterblast-8_q25_0_all" points="405,40 421,40 426,35 421,30 405,30 405,40 " class="clusterblast-orf" style="stroke-width:1; stroke:black; fill:white; " locus_tag="B8063_RS06785"  />
<polygon description="&lt;b&gt;B8063_RS06790&lt;/b&gt;&lt;br&gt;integration host factor subunit alpha&lt;br&gt;Location: 1320011 - 1320302" id="subclusterblast-8_q26_0_all" points="426,40 428,40 433,35 428,30 426,30 426,40 " class="clusterblast-orf" style="stroke-width:1; stroke:black; fill:white; " locus_tag="B8063_RS06790"  />
<polygon description="&lt;b&gt;B8063_RS06795&lt;/b&gt;&lt;br&gt;MerR family transcriptional regulator&lt;br&gt;Location: 1320294 - 1320663" id="subclusterblast-8_q27_0_all" points="432,40 435,40 440,35 435,30 432,30 432,40 " class="clusterblast-orf" style="stroke-width:1; stroke:black; fill:white; " locus_tag="B8063_RS06795"  />
<polygon description="&lt;b&gt;B8063_RS06800&lt;/b&gt;&lt;br&gt;50S ribosomal protein L33&lt;br&gt;Location: 1320664 - 1320856" id="subclusterblast-8_q28_0_all" points="440,40 444,35 440,30 440,40 " class="clusterblast-orf" style="stroke-width:1; stroke:black; fill:white; " locus_tag="B8063_RS06800"  />
<polygon description="&lt;b&gt;B8063_RS06805&lt;/b&gt;&lt;br&gt;chorismate mutase&lt;br&gt;Location: 1320856 - 1321147" id="subclusterblast-8_q29_0_all" points="444,35 449,30 451,30 451,40 449,40 444,35 " class="clusterblast-orf" style="stroke-width:1; stroke:black; fill:white; " locus_tag="B8063_RS06805"  />
<polygon description="&lt;b&gt;B8063_RS06810&lt;/b&gt;&lt;br&gt;heme A synthase&lt;br&gt;Location: 1321190 - 1322225" id="subclusterblast-8_q30_0_all" points="452,40 469,40 474,35 469,30 452,30 452,40 " class="clusterblast-orf" style="stroke-width:1; stroke:black; fill:white; " locus_tag="B8063_RS06810"  />
<polygon description="&lt;b&gt;B8063_RS06815&lt;/b&gt;&lt;br&gt;O-acetylhomoserine aminocarboxypropyltransferase/cysteine synthase&lt;br&gt;Location: 1322202 - 1323531" id="subclusterblast-8_q31_0_all" points="473,35 478,30 501,30 501,40 478,40 473,35 " class="clusterblast-orf" style="stroke-width:1; stroke:black; fill:white; " locus_tag="B8063_RS06815"  />
<polygon description="&lt;b&gt;B8063_RS06820&lt;/b&gt;&lt;br&gt;hypothetical protein&lt;br&gt;Location: 1323685 - 1324795" id="subclusterblast-8_q32_0_all" points="505,35 510,30 528,30 528,40 510,40 505,35 " class="clusterblast-orf" style="stroke-width:1; stroke:black; fill:white; " locus_tag="B8063_RS06820"  />
<polygon description="&lt;b&gt;B8063_RS06825&lt;/b&gt;&lt;br&gt;alpha/beta hydrolase&lt;br&gt;Location: 1324794 - 1325616" id="subclusterblast-8_q33_0_all" points="528,35 533,30 546,30 546,40 533,40 528,35 " class="clusterblast-orf" style="stroke-width:1; stroke:black; fill:white; " locus_tag="B8063_RS06825"  />
<polygon description="&lt;b&gt;B8063_RS06830&lt;/b&gt;&lt;br&gt;O-acetylhomoserine aminocarboxypropyltransferase/cysteine synthase&lt;br&gt;Location: 1325612 - 1326944" id="subclusterblast-8_q34_0_all" points="546,35 551,30 574,30 574,40 551,40 546,35 " class="clusterblast-orf" style="stroke-width:1; stroke:black; fill:white; " locus_tag="B8063_RS06830"  />
<polygon description="&lt;b&gt;B8063_RS06835&lt;/b&gt;&lt;br&gt;50S ribosomal protein L13&lt;br&gt;Location: 1327074 - 1327533" id="subclusterblast-8_q35_0_all" points="577,40 582,40 587,35 582,30 577,30 577,40 " class="clusterblast-orf" style="stroke-width:1; stroke:black; fill:white; " locus_tag="B8063_RS06835"  />
<polygon description="&lt;b&gt;B8063_RS06840&lt;/b&gt;&lt;br&gt;30S ribosomal protein S9&lt;br&gt;Location: 1327534 - 1327963" id="subclusterblast-8_q36_0_all" points="587,40 591,40 596,35 591,30 587,30 587,40 " class="clusterblast-orf" style="stroke-width:1; stroke:black; fill:white; " locus_tag="B8063_RS06840"  />
<polygon description="&lt;b&gt;B8063_RS06845&lt;/b&gt;&lt;br&gt;N-acetyl-gamma-glutamyl-phosphate reductase&lt;br&gt;Location: 1327996 - 1329022" id="subclusterblast-8_q37_0_all" points="596,40 613,40 618,35 613,30 596,30 596,40 " class="clusterblast-orf" style="stroke-width:1; stroke:black; fill:white; " locus_tag="B8063_RS06845"  />
<polygon description="&lt;b&gt;B8063_RS06850&lt;/b&gt;&lt;br&gt;hypothetical protein&lt;br&gt;Location: 1329014 - 1329227" id="subclusterblast-8_q38_0_all" points="618,40 618,40 623,35 618,30 618,30 618,40 " class="clusterblast-orf" style="stroke-width:1; stroke:black; fill:white; " locus_tag="B8063_RS06850"  />
<polygon description="&lt;b&gt;B8063_RS06855&lt;/b&gt;&lt;br&gt;homoserine dehydrogenase&lt;br&gt;Location: 1329231 - 1330521" id="subclusterblast-8_q39_0_all" points="623,40 645,40 650,35 645,30 623,30 623,40 " class="clusterblast-orf" style="stroke-width:1; stroke:black; fill:white; " locus_tag="B8063_RS06855"  />
<polygon description="&lt;b&gt;B8063_RS06860&lt;/b&gt;&lt;br&gt;glutathione peroxidase&lt;br&gt;Location: 1330513 - 1331026" id="subclusterblast-8_q40_0_all" points="650,35 655,30 661,30 661,40 655,40 650,35 " class="clusterblast-orf" style="stroke-width:1; stroke:black; fill:white; " locus_tag="B8063_RS06860"  />
<polygon description="&lt;b&gt;B8063_RS06865&lt;/b&gt;&lt;br&gt;Na+/H+ antiporter NhaA&lt;br&gt;Location: 1331073 - 1332249" id="subclusterblast-8_q41_0_all" points="662,35 667,30 687,30 687,40 667,40 662,35 " class="clusterblast-orf" style="stroke-width:1; stroke:black; fill:white; " locus_tag="B8063_RS06865"  />
<polygon description="&lt;b&gt;B8063_RS06870&lt;/b&gt;&lt;br&gt;hypothetical protein&lt;br&gt;Location: 1332248 - 1332746" id="subclusterblast-8_q42_0_all" points="687,35 692,30 698,30 698,40 692,40 687,35 " class="clusterblast-orf" style="stroke-width:1; stroke:black; fill:white; " locus_tag="B8063_RS06870"  />
<polygon description="&lt;b&gt;B8063_RS06880&lt;/b&gt;&lt;br&gt;hypothetical protein&lt;br&gt;Location: 1332924 - 1333206" id="subclusterblast-8_q43_0_all" points="701,40 702,40 707,35 702,30 701,30 701,40 " class="clusterblast-orf" style="stroke-width:1; stroke:black; fill:white; " locus_tag="B8063_RS06880"  />
<polygon description="&lt;b&gt;B8063_RS06885&lt;/b&gt;&lt;br&gt;transporter&lt;br&gt;Location: 1333210 - 1334203" id="subclusterblast-8_q44_0_all" points="708,40 724,40 729,35 724,30 708,30 708,40 " class="clusterblast-orf" style="stroke-width:1; stroke:black; fill:white; " locus_tag="B8063_RS06885"  />
<polygon description="&lt;b&gt;B8063_RS06890&lt;/b&gt;&lt;br&gt;fructose-bisphosphatase class II&lt;br&gt;Location: 1334202 - 1335150" id="subclusterblast-8_q45_0_all" points="729,40 744,40 749,35 744,30 729,30 729,40 " class="clusterblast-orf" style="stroke-width:1; stroke:black; fill:white; " locus_tag="B8063_RS06890"  />
<polygon description="&lt;b&gt;B8063_RS06900&lt;/b&gt;&lt;br&gt;excinuclease ABC subunit C&lt;br&gt;Location: 1335302 - 1335575" id="subclusterblast-8_q46_0_all" points="752,40 753,40 758,35 753,30 752,30 752,40 " class="clusterblast-orf" style="stroke-width:1; stroke:black; fill:white; " locus_tag="B8063_RS06900"  />
<polygon description="&lt;b&gt;B8063_RS06905&lt;/b&gt;&lt;br&gt;hypothetical protein&lt;br&gt;Location: 1335558 - 1336599" id="subclusterblast-8_q47_0_all" points="758,40 775,40 780,35 775,30 758,30 758,40 " class="clusterblast-orf" style="stroke-width:1; stroke:black; fill:white; " locus_tag="B8063_RS06905"  />
</g>
</svg>
