<svg width="800" height="50" version="1.1" x="0" viewBox="0 0 800 50" xmlns="http://www.w3.org/2000/svg" y="0" xmlns:xlink="http://www.w3.org/1999/xlink" preserveAspectRatio="none"  >
<g class="clusterblast-cluster" label="Query sequence"  >
<text class="clusterblast-acc" x="5" y="20"  >
Query sequence</text>
<line y1="35" x1="10" y2="35" style="stroke-width:1; stroke:grey; " x2="778.0"  />
<polygon description="&lt;b&gt;B8063_RS04185&lt;/b&gt;&lt;br&gt;hypothetical protein&lt;br&gt;Location: 782954 - 784070" id="subclusterblast-5_q0_0_all" points="0,35 5,30 16,30 16,40 5,40 0,35 " class="clusterblast-orf" style="stroke-width:1; stroke:black; fill:white; " locus_tag="B8063_RS04185"  />
<polygon description="&lt;b&gt;B8063_RS04190&lt;/b&gt;&lt;br&gt;phosphonopyruvate decarboxylase&lt;br&gt;Location: 784070 - 785171" id="subclusterblast-5_q1_0_all" points="16,35 21,30 32,30 32,40 21,40 16,35 " class="clusterblast-orf" style="stroke-width:1; stroke:black; fill:white; " locus_tag="B8063_RS04190"  />
<polygon description="&lt;b&gt;B8063_RS04195&lt;/b&gt;&lt;br&gt;phosphoenolpyruvate mutase&lt;br&gt;Location: 785163 - 786465" id="subclusterblast-5_q2_0_all" points="32,35 37,30 51,30 51,40 37,40 32,35 " class="clusterblast-orf" style="stroke-width:1; stroke:black; fill:white; " locus_tag="B8063_RS04195"  />
<polygon description="&lt;b&gt;B8063_RS04200&lt;/b&gt;&lt;br&gt;adenylyl-sulfate kinase&lt;br&gt;Location: 786531 - 787053" id="subclusterblast-5_q3_0_all" points="52,35 57,30 60,30 60,40 57,40 52,35 " class="clusterblast-orf" style="stroke-width:1; stroke:black; fill:white; " locus_tag="B8063_RS04200"  />
<polygon description="&lt;b&gt;B8063_RS04205&lt;/b&gt;&lt;br&gt;hypothetical protein&lt;br&gt;Location: 787420 - 789403" id="subclusterblast-5_q4_0_all" points="66,40 90,40 95,35 90,30 66,30 66,40 " class="clusterblast-orf" style="stroke-width:1; stroke:black; fill:white; " locus_tag="B8063_RS04205"  />
<polygon description="&lt;b&gt;B8063_RS04210&lt;/b&gt;&lt;br&gt;SDR family NAD-dependent epimerase/dehydratase&lt;br&gt;Location: 789623 - 790622" id="subclusterblast-5_q5_0_all" points="98,40 108,40 113,35 108,30 98,30 98,40 " class="clusterblast-orf" style="stroke-width:1; stroke:black; fill:white; " locus_tag="B8063_RS04210"  />
<polygon description="&lt;b&gt;B8063_RS04215&lt;/b&gt;&lt;br&gt;aminotransferase DegT&lt;br&gt;Location: 790608 - 791769" id="subclusterblast-5_q6_0_all" points="113,40 125,40 130,35 125,30 113,30 113,40 " class="clusterblast-orf" style="stroke-width:1; stroke:black; fill:white; " locus_tag="B8063_RS04215"  />
<polygon description="&lt;b&gt;B8063_RS04220&lt;/b&gt;&lt;br&gt;formyl transferase&lt;br&gt;Location: 791769 - 792663" id="subclusterblast-5_q7_0_all" points="130,40 138,40 143,35 138,30 130,30 130,40 " class="clusterblast-orf" style="stroke-width:1; stroke:black; fill:white; " locus_tag="B8063_RS04220"  />
<polygon description="&lt;b&gt;B8063_RS04225&lt;/b&gt;&lt;br&gt;N-acetylneuraminate synthase&lt;br&gt;Location: 792652 - 793657" id="subclusterblast-5_q8_0_all" points="143,40 153,40 158,35 153,30 143,30 143,40 " class="clusterblast-orf" style="stroke-width:1; stroke:black; fill:white; " locus_tag="B8063_RS04225"  />
<polygon description="&lt;b&gt;B8063_RS04230&lt;/b&gt;&lt;br&gt;UDP-N-acetylglucosamine 2-epimerase (hydrolyzing)&lt;br&gt;Location: 793656 - 794823" id="subclusterblast-5_q9_0_all" points="158,40 170,40 175,35 170,30 158,30 158,40 " class="clusterblast-orf" style="stroke-width:1; stroke:black; fill:white; " locus_tag="B8063_RS04230"  />
<polygon description="&lt;b&gt;B8063_RS04235&lt;/b&gt;&lt;br&gt;CBS domain-containing protein&lt;br&gt;Location: 794878 - 795931" id="subclusterblast-5_q10_0_all" points="176,40 186,40 191,35 186,30 176,30 176,40 " class="clusterblast-orf" style="stroke-width:1; stroke:black; fill:white; " locus_tag="B8063_RS04235"  />
<polygon description="&lt;b&gt;B8063_RS04240&lt;/b&gt;&lt;br&gt;hypothetical protein&lt;br&gt;Location: 795953 - 796952" id="subclusterblast-5_q11_0_all" points="191,40 201,40 206,35 201,30 191,30 191,40 " class="clusterblast-orf" style="stroke-width:1; stroke:black; fill:white; " locus_tag="B8063_RS04240"  />
<polygon description="&lt;b&gt;B8063_RS04245&lt;/b&gt;&lt;br&gt;3-deoxy-manno-octulosonate cytidylyltransferase&lt;br&gt;Location: 796962 - 797766" id="subclusterblast-5_q12_0_all" points="206,40 213,40 218,35 213,30 206,30 206,40 " class="clusterblast-orf" style="stroke-width:1; stroke:black; fill:white; " locus_tag="B8063_RS04245"  />
<polygon description="&lt;b&gt;B8063_RS04250&lt;/b&gt;&lt;br&gt;hypothetical protein&lt;br&gt;Location: 797996 - 799832" id="subclusterblast-5_q13_0_all" points="222,35 227,30 249,30 249,40 227,40 222,35 " class="clusterblast-orf" style="stroke-width:1; stroke:black; fill:white; " locus_tag="B8063_RS04250"  />
<polygon description="&lt;b&gt;B8063_RS04255&lt;/b&gt;&lt;br&gt;hypothetical protein&lt;br&gt;Location: 799983 - 800367" id="subclusterblast-5_q14_0_all" points="251,35 256,30 257,30 257,40 256,40 251,35 " class="clusterblast-orf" style="stroke-width:1; stroke:black; fill:white; " locus_tag="B8063_RS04255"  />
<polygon description="&lt;b&gt;B8063_RS04260&lt;/b&gt;&lt;br&gt;hypothetical protein&lt;br&gt;Location: 800519 - 801962" id="subclusterblast-5_q15_0_all" points="259,40 275,40 280,35 275,30 259,30 259,40 " class="clusterblast-orf" style="stroke-width:1; stroke:black; fill:white; " locus_tag="B8063_RS04260"  />
<polygon description="&lt;b&gt;B8063_RS04265&lt;/b&gt;&lt;br&gt;hypothetical protein&lt;br&gt;Location: 801958 - 803698" id="subclusterblast-5_q16_0_all" points="280,40 301,40 306,35 301,30 280,30 280,40 " class="clusterblast-orf" style="stroke-width:1; stroke:black; fill:white; " locus_tag="B8063_RS04265"  />
<polygon description="&lt;b&gt;B8063_RS04270&lt;/b&gt;&lt;br&gt;hypothetical protein&lt;br&gt;Location: 803699 - 804734" id="subclusterblast-5_q17_0_all" points="306,40 316,40 321,35 316,30 306,30 306,40 " class="clusterblast-orf" style="stroke-width:1; stroke:black; fill:white; " locus_tag="B8063_RS04270"  />
<polygon description="&lt;b&gt;B8063_RS04275&lt;/b&gt;&lt;br&gt;hypothetical protein&lt;br&gt;Location: 804720 - 805245" id="subclusterblast-5_q18_0_all" points="321,40 324,40 329,35 324,30 321,30 321,40 " class="clusterblast-orf" style="stroke-width:1; stroke:black; fill:white; " locus_tag="B8063_RS04275"  />
<polygon description="&lt;b&gt;B8063_RS04280&lt;/b&gt;&lt;br&gt;hypothetical protein&lt;br&gt;Location: 805247 - 806192" id="subclusterblast-5_q19_0_all" points="329,40 337,40 342,35 337,30 329,30 329,40 " class="clusterblast-orf" style="stroke-width:1; stroke:black; fill:white; " locus_tag="B8063_RS04280"  />
<polygon description="&lt;b&gt;B8063_RS04285&lt;/b&gt;&lt;br&gt;SDR family NAD(P)-dependent oxidoreductase&lt;br&gt;Location: 806188 - 806893" id="subclusterblast-5_q20_0_all" points="342,40 348,40 353,35 348,30 342,30 342,40 " class="clusterblast-orf" style="stroke-width:1; stroke:black; fill:white; " locus_tag="B8063_RS04285"  />
<polygon description="&lt;b&gt;B8063_RS04290&lt;/b&gt;&lt;br&gt;hypothetical protein&lt;br&gt;Location: 806868 - 807612" id="subclusterblast-5_q21_0_all" points="352,40 358,40 363,35 358,30 352,30 352,40 " class="clusterblast-orf" style="stroke-width:1; stroke:black; fill:white; " locus_tag="B8063_RS04290"  />
<polygon description="&lt;b&gt;B8063_RS04295&lt;/b&gt;&lt;br&gt;hypothetical protein&lt;br&gt;Location: 807675 - 808845" id="subclusterblast-5_q22_0_all" points="364,40 377,40 382,35 377,30 364,30 364,40 " class="clusterblast-orf" style="stroke-width:1; stroke:black; fill:white; " locus_tag="B8063_RS04295"  />
<polygon description="&lt;b&gt;B8063_RS04300&lt;/b&gt;&lt;br&gt;hypothetical protein&lt;br&gt;Location: 808944 - 810063" id="subclusterblast-5_q23_0_all" points="383,40 395,40 400,35 395,30 383,30 383,40 " class="clusterblast-orf" style="stroke-width:1; stroke:black; fill:white; " locus_tag="B8063_RS04300"  />
<polygon description="&lt;b&gt;B8063_RS04305&lt;/b&gt;&lt;br&gt;O-antigen ligase domain-containing protein&lt;br&gt;Location: 810124 - 811354" id="subclusterblast-5_q24_0_all" points="401,40 414,40 419,35 414,30 401,30 401,40 " class="clusterblast-orf" style="stroke-width:1; stroke:black; fill:white; " locus_tag="B8063_RS04305"  />
<polygon description="&lt;b&gt;B8063_RS04310&lt;/b&gt;&lt;br&gt;hypothetical protein&lt;br&gt;Location: 811440 - 812766" id="subclusterblast-5_q25_0_all" points="420,40 434,40 439,35 434,30 420,30 420,40 " class="clusterblast-orf" style="stroke-width:1; stroke:black; fill:white; " locus_tag="B8063_RS04310"  />
<polygon description="&lt;b&gt;B8063_RS04315&lt;/b&gt;&lt;br&gt;glycosyltransferase WbuB&lt;br&gt;Location: 812749 - 814039" id="subclusterblast-5_q26_0_all" points="439,40 453,40 458,35 453,30 439,30 439,40 " class="clusterblast-orf" style="stroke-width:1; stroke:black; fill:white; " locus_tag="B8063_RS04315"  />
<polygon description="&lt;b&gt;B8063_RS04320&lt;/b&gt;&lt;br&gt;nucleotide sugar dehydrogenase&lt;br&gt;Location: 814166 - 815474" id="subclusterblast-5_q27_0_all" points="460,40 474,40 479,35 474,30 460,30 460,40 " class="clusterblast-orf" style="stroke-width:1; stroke:black; fill:white; " locus_tag="B8063_RS04320"  />
<polygon description="&lt;b&gt;B8063_RS04325&lt;/b&gt;&lt;br&gt;CDP-alcohol phosphatidyltransferase family protein&lt;br&gt;Location: 815519 - 816209" id="subclusterblast-5_q28_0_all" points="480,40 485,40 490,35 485,30 480,30 480,40 " class="clusterblast-orf" style="stroke-width:1; stroke:black; fill:white; " locus_tag="B8063_RS04325"  />
<polygon description="&lt;b&gt;B8063_RS04330&lt;/b&gt;&lt;br&gt;asparagine synthase (glutamine-hydrolyzing)&lt;br&gt;Location: 816226 - 818080" id="subclusterblast-5_q29_0_all" points="491,40 513,40 518,35 513,30 491,30 491,40 " class="clusterblast-orf" style="stroke-width:1; stroke:black; fill:white; " locus_tag="B8063_RS04330"  />
<polygon description="&lt;b&gt;B8063_RS04335&lt;/b&gt;&lt;br&gt;hypothetical protein&lt;br&gt;Location: 818076 - 819174" id="subclusterblast-5_q30_0_all" points="518,40 529,40 534,35 529,30 518,30 518,40 " class="clusterblast-orf" style="stroke-width:1; stroke:black; fill:white; " locus_tag="B8063_RS04335"  />
<polygon description="&lt;b&gt;B8063_RS04340&lt;/b&gt;&lt;br&gt;thiamine pyrophosphate-dependent dehydrogenase E1 component subunit alpha&lt;br&gt;Location: 819183 - 820164" id="subclusterblast-5_q31_0_all" points="534,40 544,40 549,35 544,30 534,30 534,40 " class="clusterblast-orf" style="stroke-width:1; stroke:black; fill:white; " locus_tag="B8063_RS04340"  />
<polygon description="&lt;b&gt;B8063_RS04345&lt;/b&gt;&lt;br&gt;hypothetical protein&lt;br&gt;Location: 820156 - 821140" id="subclusterblast-5_q32_0_all" points="549,40 558,40 563,35 558,30 549,30 549,40 " class="clusterblast-orf" style="stroke-width:1; stroke:black; fill:white; " locus_tag="B8063_RS04345"  />
<polygon description="&lt;b&gt;B8063_RS04350&lt;/b&gt;&lt;br&gt;class I SAM-dependent methyltransferase&lt;br&gt;Location: 821139 - 821790" id="subclusterblast-5_q33_0_all" points="563,40 568,40 573,35 568,30 563,30 563,40 " class="clusterblast-orf" style="stroke-width:1; stroke:black; fill:white; " locus_tag="B8063_RS04350"  />
<polygon description="&lt;b&gt;B8063_RS04355&lt;/b&gt;&lt;br&gt;DegT/DnrJ/EryC1/StrS family aminotransferase&lt;br&gt;Location: 821792 - 822899" id="subclusterblast-5_q34_0_all" points="573,40 584,40 589,35 584,30 573,30 573,40 " class="clusterblast-orf" style="stroke-width:1; stroke:black; fill:white; " locus_tag="B8063_RS04355"  />
<polygon description="&lt;b&gt;B8063_RS04360&lt;/b&gt;&lt;br&gt;sugar transferase&lt;br&gt;Location: 822909 - 823638" id="subclusterblast-5_q35_0_all" points="589,40 595,40 600,35 595,30 589,30 589,40 " class="clusterblast-orf" style="stroke-width:1; stroke:black; fill:white; " locus_tag="B8063_RS04360"  />
<polygon description="&lt;b&gt;B8063_RS04365&lt;/b&gt;&lt;br&gt;polysaccharide biosynthesis protein&lt;br&gt;Location: 823741 - 825673" id="subclusterblast-5_q36_0_all" points="601,40 625,40 630,35 625,30 601,30 601,40 " class="clusterblast-orf" style="stroke-width:1; stroke:black; fill:white; " locus_tag="B8063_RS04365"  />
<polygon description="&lt;b&gt;B8063_RS04375&lt;/b&gt;&lt;br&gt;ADP-L-glycero-D-manno-heptose-6-epimerase&lt;br&gt;Location: 825926 - 826820" id="subclusterblast-5_q37_0_all" points="634,40 642,40 647,35 642,30 634,30 634,40 " class="clusterblast-orf" style="stroke-width:1; stroke:black; fill:white; " locus_tag="B8063_RS04375"  />
<polygon description="&lt;b&gt;B8063_RS04380&lt;/b&gt;&lt;br&gt;50S ribosomal protein L36&lt;br&gt;Location: 826819 - 826945" id="subclusterblast-5_q38_0_all" points="647,40 649,35 647,30 647,40 " class="clusterblast-orf" style="stroke-width:1; stroke:black; fill:white; " locus_tag="B8063_RS04380"  />
<polygon description="&lt;b&gt;B8063_RS04385&lt;/b&gt;&lt;br&gt;aa3-type cytochrome c oxidase subunit IV&lt;br&gt;Location: 826949 - 827060" id="subclusterblast-5_q39_0_all" points="649,40 650,35 649,30 649,40 " class="clusterblast-orf" style="stroke-width:1; stroke:black; fill:white; " locus_tag="B8063_RS04385"  />
<polygon description="&lt;b&gt;B8063_RS04390&lt;/b&gt;&lt;br&gt;NAD(P) transhydrogenase subunit alpha&lt;br&gt;Location: 827060 - 828149" id="subclusterblast-5_q40_0_all" points="650,40 661,40 666,35 661,30 650,30 650,40 " class="clusterblast-orf" style="stroke-width:1; stroke:black; fill:white; " locus_tag="B8063_RS04390"  />
<polygon description="&lt;b&gt;B8063_RS04395&lt;/b&gt;&lt;br&gt;NAD(P) transhydrogenase subunit alpha&lt;br&gt;Location: 828151 - 828454" id="subclusterblast-5_q41_0_all" points="666,40 666,40 671,35 666,30 666,30 666,40 " class="clusterblast-orf" style="stroke-width:1; stroke:black; fill:white; " locus_tag="B8063_RS04395"  />
<polygon description="&lt;b&gt;B8063_RS04400&lt;/b&gt;&lt;br&gt;NAD synthetase&lt;br&gt;Location: 828463 - 829858" id="subclusterblast-5_q42_0_all" points="671,40 687,40 692,35 687,30 671,30 671,40 " class="clusterblast-orf" style="stroke-width:1; stroke:black; fill:white; " locus_tag="B8063_RS04400"  />
<polygon description="&lt;b&gt;B8063_RS04405&lt;/b&gt;&lt;br&gt;transaldolase&lt;br&gt;Location: 829859 - 830552" id="subclusterblast-5_q43_0_all" points="692,40 697,40 702,35 697,30 692,30 692,40 " class="clusterblast-orf" style="stroke-width:1; stroke:black; fill:white; " locus_tag="B8063_RS04405"  />
<polygon description="&lt;b&gt;B8063_RS04415&lt;/b&gt;&lt;br&gt;30S ribosomal protein S21&lt;br&gt;Location: 830636 - 830831" id="subclusterblast-5_q44_0_all" points="703,35 706,30 706,40 703,35 " class="clusterblast-orf" style="stroke-width:1; stroke:black; fill:white; " locus_tag="B8063_RS04415"  />
<polygon description="&lt;b&gt;B8063_RS04420&lt;/b&gt;&lt;br&gt;DUF1013 domain-containing protein&lt;br&gt;Location: 830890 - 831460" id="subclusterblast-5_q45_0_all" points="707,35 712,30 715,30 715,40 712,40 707,35 " class="clusterblast-orf" style="stroke-width:1; stroke:black; fill:white; " locus_tag="B8063_RS04420"  />
<polygon description="&lt;b&gt;B8063_RS04425&lt;/b&gt;&lt;br&gt;50S ribosomal protein L31&lt;br&gt;Location: 831459 - 831690" id="subclusterblast-5_q46_0_all" points="715,35 719,30 719,40 715,35 " class="clusterblast-orf" style="stroke-width:1; stroke:black; fill:white; " locus_tag="B8063_RS04425"  />
<polygon description="&lt;b&gt;B8063_RS04430&lt;/b&gt;&lt;br&gt;inositol monophosphatase&lt;br&gt;Location: 831727 - 832474" id="subclusterblast-5_q47_0_all" points="719,35 724,30 730,30 730,40 724,40 719,35 " class="clusterblast-orf" style="stroke-width:1; stroke:black; fill:white; " locus_tag="B8063_RS04430"  />
<polygon description="&lt;b&gt;B8063_RS04435&lt;/b&gt;&lt;br&gt;elongation factor P&lt;br&gt;Location: 832477 - 833038" id="subclusterblast-5_q48_0_all" points="730,35 735,30 739,30 739,40 735,40 730,35 " class="clusterblast-orf" style="stroke-width:1; stroke:black; fill:white; " locus_tag="B8063_RS04435"  />
<polygon description="&lt;b&gt;B8063_RS04440&lt;/b&gt;&lt;br&gt;thiamine phosphate synthase&lt;br&gt;Location: 833034 - 833652" id="subclusterblast-5_q49_0_all" points="739,35 744,30 748,30 748,40 744,40 739,35 " class="clusterblast-orf" style="stroke-width:1; stroke:black; fill:white; " locus_tag="B8063_RS04440"  />
<polygon description="&lt;b&gt;B8063_RS04445&lt;/b&gt;&lt;br&gt;fructose-bisphosphate aldolase class I&lt;br&gt;Location: 833635 - 834649" id="subclusterblast-5_q50_0_all" points="747,35 752,30 762,30 762,40 752,40 747,35 " class="clusterblast-orf" style="stroke-width:1; stroke:black; fill:white; " locus_tag="B8063_RS04445"  />
<polygon description="&lt;b&gt;B8063_RS04450&lt;/b&gt;&lt;br&gt;phosphoglycerate kinase&lt;br&gt;Location: 834649 - 835822" id="subclusterblast-5_q51_0_all" points="762,35 767,30 780,30 780,40 767,40 762,35 " class="clusterblast-orf" style="stroke-width:1; stroke:black; fill:white; " locus_tag="B8063_RS04450"  />
</g>
</svg>
