<svg width="800" height="50" version="1.1" x="0" viewBox="0 0 800 50" xmlns="http://www.w3.org/2000/svg" y="0" xmlns:xlink="http://www.w3.org/1999/xlink" preserveAspectRatio="none"  >
<g class="clusterblast-cluster" label="Query sequence"  >
<text class="clusterblast-acc" x="5" y="20"  >
Query sequence</text>
<line y1="35" x1="10" y2="35" style="stroke-width:1; stroke:grey; " x2="778.0"  />
<polygon description="&lt;b&gt;B8063_RS01910&lt;/b&gt;&lt;br&gt;RNA polymerase sigma factor RpoD&lt;br&gt;Location: 354445 - 356281" id="subclusterblast-2_q0_0_all" points="0,35 5,30 65,30 65,40 5,40 0,35 " class="clusterblast-orf" style="stroke-width:1; stroke:black; fill:white; " locus_tag="B8063_RS01910"  />
<polygon description="&lt;b&gt;B8063_RS01915&lt;/b&gt;&lt;br&gt;DNA primase&lt;br&gt;Location: 356346 - 358122" id="subclusterblast-2_q1_0_all" points="67,35 72,30 130,30 130,40 72,40 67,35 " class="clusterblast-orf" style="stroke-width:1; stroke:black; fill:white; " locus_tag="B8063_RS01915"  />
<polygon description="&lt;b&gt;B8063_RS01920&lt;/b&gt;&lt;br&gt;glutamyl-tRNA amidotransferase&lt;br&gt;Location: 358118 - 358583" id="subclusterblast-2_q2_0_all" points="130,35 135,30 146,30 146,40 135,40 130,35 " class="clusterblast-orf" style="stroke-width:1; stroke:black; fill:white; " locus_tag="B8063_RS01920"  />
<polygon description="&lt;b&gt;B8063_RS01925&lt;/b&gt;&lt;br&gt;carbamoyl-phosphate synthase small subunit&lt;br&gt;Location: 358705 - 359899" id="subclusterblast-2_q3_0_all" points="151,40 188,40 193,35 188,30 151,30 151,40 " class="clusterblast-orf" style="stroke-width:1; stroke:black; fill:white; " locus_tag="B8063_RS01925"  />
<polygon description="&lt;b&gt;B8063_RS01930&lt;/b&gt;&lt;br&gt;carbamoyl-phosphate synthase large subunit&lt;br&gt;Location: 359876 - 363107" id="subclusterblast-2_q4_0_all" points="192,40 302,40 307,35 302,30 192,30 192,40 " class="clusterblast-orf" style="stroke-width:1; stroke:black; fill:white; " locus_tag="B8063_RS01930"  />
<polygon description="&lt;b&gt;B8063_RS01935&lt;/b&gt;&lt;br&gt;hypothetical protein&lt;br&gt;Location: 363322 - 363985" id="subclusterblast-2_q5_0_all" points="314,35 319,30 338,30 338,40 319,40 314,35 " class="clusterblast-orf" style="stroke-width:1; stroke:black; fill:white; " locus_tag="B8063_RS01935"  />
<polygon description="&lt;b&gt;B8063_RS01940&lt;/b&gt;&lt;br&gt;nucleoside-diphosphate sugar epimerase&lt;br&gt;Location: 363984 - 364929" id="subclusterblast-2_q6_0_all" points="338,35 343,30 371,30 371,40 343,40 338,35 " class="clusterblast-orf" style="stroke-width:1; stroke:black; fill:white; " locus_tag="B8063_RS01940"  />
<polygon description="&lt;b&gt;B8063_RS01945&lt;/b&gt;&lt;br&gt;thioredoxin-disulfide reductase&lt;br&gt;Location: 364950 - 365898" id="subclusterblast-2_q7_0_all" points="372,40 400,40 405,35 400,30 372,30 372,40 " class="clusterblast-orf" style="stroke-width:1; stroke:black; fill:white; " locus_tag="B8063_RS01945"  />
<polygon description="&lt;b&gt;B8063_RS01950&lt;/b&gt;&lt;br&gt;pyridoxal phosphate-dependent aminotransferase&lt;br&gt;Location: 365909 - 367109" id="subclusterblast-2_q8_0_all" points="406,35 411,30 448,30 448,40 411,40 406,35 " class="clusterblast-orf" style="stroke-width:1; stroke:black; fill:white; " locus_tag="B8063_RS01950"  />
<polygon description="&lt;b&gt;B8063_RS01955&lt;/b&gt;&lt;br&gt;excinuclease ABC subunit UvrB&lt;br&gt;Location: 367145 - 369323" id="subclusterblast-2_q9_0_all" points="450,40 522,40 527,35 522,30 450,30 450,40 " class="clusterblast-orf" style="stroke-width:1; stroke:black; fill:white; " locus_tag="B8063_RS01955"  />
<polygon description="&lt;b&gt;B8063_RS01960&lt;/b&gt;&lt;br&gt;short chain dehydrogenase&lt;br&gt;Location: 369301 - 370057" id="subclusterblast-2_q10_0_all" points="526,40 548,40 553,35 548,30 526,30 526,40 " class="clusterblast-orf" style="stroke-width:1; stroke:black; fill:white; " locus_tag="B8063_RS01960"  />
<polygon description="&lt;b&gt;B8063_RS01965&lt;/b&gt;&lt;br&gt;dihydroneopterin aldolase&lt;br&gt;Location: 370070 - 370496" id="subclusterblast-2_q11_0_all" points="553,40 563,40 568,35 563,30 553,30 553,40 " class="clusterblast-orf" style="stroke-width:1; stroke:black; fill:white; " locus_tag="B8063_RS01965"  />
<polygon description="&lt;b&gt;B8063_RS01970&lt;/b&gt;&lt;br&gt;excinuclease ABC subunit UvrC&lt;br&gt;Location: 370482 - 372318" id="subclusterblast-2_q12_0_all" points="568,40 628,40 633,35 628,30 568,30 568,40 " class="clusterblast-orf" style="stroke-width:1; stroke:black; fill:white; " locus_tag="B8063_RS01970"  />
<polygon description="&lt;b&gt;B8063_RS01975&lt;/b&gt;&lt;br&gt;CDP-diacylglycerol--glycerol-3-phosphate 3-phosphatidyltransferase&lt;br&gt;Location: 372314 - 372899" id="subclusterblast-2_q13_0_all" points="633,40 648,40 653,35 648,30 633,30 633,40 " class="clusterblast-orf" style="stroke-width:1; stroke:black; fill:white; " locus_tag="B8063_RS01975"  />
<polygon description="&lt;b&gt;B8063_RS01980&lt;/b&gt;&lt;br&gt;branched-chain amino acid aminotransferase&lt;br&gt;Location: 372895 - 373777" id="subclusterblast-2_q14_0_all" points="653,35 658,30 684,30 684,40 658,40 653,35 " class="clusterblast-orf" style="stroke-width:1; stroke:black; fill:white; " locus_tag="B8063_RS01980"  />
<polygon description="&lt;b&gt;B8063_RS01985&lt;/b&gt;&lt;br&gt;MarR family transcriptional regulator&lt;br&gt;Location: 373837 - 374281" id="subclusterblast-2_q15_0_all" points="687,40 697,40 702,35 697,30 687,30 687,40 " class="clusterblast-orf" style="stroke-width:1; stroke:black; fill:white; " locus_tag="B8063_RS01985"  />
<polygon description="&lt;b&gt;B8063_RS01990&lt;/b&gt;&lt;br&gt;DNA-binding response regulator&lt;br&gt;Location: 374267 - 374945" id="subclusterblast-2_q16_0_all" points="702,40 721,40 726,35 721,30 702,30 702,40 " class="clusterblast-orf" style="stroke-width:1; stroke:black; fill:white; " locus_tag="B8063_RS01990"  />
<polygon description="&lt;b&gt;B8063_RS01995&lt;/b&gt;&lt;br&gt;HAMP domain-containing protein&lt;br&gt;Location: 374925 - 376239" id="subclusterblast-2_q17_0_all" points="725,40 767,40 772,35 767,30 725,30 725,40 " class="clusterblast-orf" style="stroke-width:1; stroke:black; fill:white; " locus_tag="B8063_RS01995"  />
<polygon description="&lt;b&gt;B8063_RS02000&lt;/b&gt;&lt;br&gt;hypothetical protein&lt;br&gt;Location: 376219 - 376471" id="subclusterblast-2_q18_0_all" points="771,35 776,30 780,30 780,40 776,40 771,35 " class="clusterblast-orf" style="stroke-width:1; stroke:black; fill:white; " locus_tag="B8063_RS02000"  />
</g>
</svg>
