<svg width="800" height="50" version="1.1" x="0" viewBox="0 0 800 50" xmlns="http://www.w3.org/2000/svg" y="0" xmlns:xlink="http://www.w3.org/1999/xlink" preserveAspectRatio="none"  >
<g class="clusterblast-cluster" label="Query sequence"  >
<text class="clusterblast-acc" x="5" y="20"  >
Query sequence</text>
<line y1="35" x1="10" y2="35" style="stroke-width:1; stroke:grey; " x2="778.0"  />
<polygon description="&lt;b&gt;B8063_RS03470&lt;/b&gt;&lt;br&gt;apolipoprotein N-acyltransferase&lt;br&gt;Location: 644807 - 646355" id="subclusterblast-4_q0_0_all" points="0,40 51,40 56,35 51,30 0,30 0,40 " class="clusterblast-orf" style="stroke-width:1; stroke:black; fill:white; " locus_tag="B8063_RS03470"  />
<polygon description="&lt;b&gt;B8063_RS03475&lt;/b&gt;&lt;br&gt;methionine adenosyltransferase&lt;br&gt;Location: 646347 - 647517" id="subclusterblast-4_q1_0_all" points="55,40 92,40 97,35 92,30 55,30 55,40 " class="clusterblast-orf" style="stroke-width:1; stroke:black; fill:white; " locus_tag="B8063_RS03475"  />
<polygon description="&lt;b&gt;B8063_RS03480&lt;/b&gt;&lt;br&gt;transcription termination/antitermination protein NusA&lt;br&gt;Location: 647613 - 649167" id="subclusterblast-4_q2_0_all" points="101,40 152,40 157,35 152,30 101,30 101,40 " class="clusterblast-orf" style="stroke-width:1; stroke:black; fill:white; " locus_tag="B8063_RS03480"  />
<polygon description="&lt;b&gt;B8063_RS03485&lt;/b&gt;&lt;br&gt;translation initiation factor IF-2&lt;br&gt;Location: 649177 - 651400" id="subclusterblast-4_q3_0_all" points="157,40 232,40 237,35 232,30 157,30 157,40 " class="clusterblast-orf" style="stroke-width:1; stroke:black; fill:white; " locus_tag="B8063_RS03485"  />
<polygon description="&lt;b&gt;B8063_RS03490&lt;/b&gt;&lt;br&gt;30S ribosome-binding factor RbfA&lt;br&gt;Location: 651399 - 651762" id="subclusterblast-4_q4_0_all" points="237,40 245,40 250,35 245,30 237,30 237,40 " class="clusterblast-orf" style="stroke-width:1; stroke:black; fill:white; " locus_tag="B8063_RS03490"  />
<polygon description="&lt;b&gt;B8063_RS03495&lt;/b&gt;&lt;br&gt;30S ribosomal protein S15&lt;br&gt;Location: 651772 - 652021" id="subclusterblast-4_q5_0_all" points="251,40 255,40 260,35 255,30 251,30 251,40 " class="clusterblast-orf" style="stroke-width:1; stroke:black; fill:white; " locus_tag="B8063_RS03495"  />
<polygon description="&lt;b&gt;B8063_RS03500&lt;/b&gt;&lt;br&gt;polyribonucleotide nucleotidyltransferase&lt;br&gt;Location: 652032 - 654105" id="subclusterblast-4_q6_0_all" points="260,40 330,40 335,35 330,30 260,30 260,40 " class="clusterblast-orf" style="stroke-width:1; stroke:black; fill:white; " locus_tag="B8063_RS03500"  />
<polygon description="&lt;b&gt;B8063_RS03505&lt;/b&gt;&lt;br&gt;DUF805 domain-containing protein&lt;br&gt;Location: 654194 - 654566" id="subclusterblast-4_q7_0_all" points="338,40 346,40 351,35 346,30 338,30 338,40 " class="clusterblast-orf" style="stroke-width:1; stroke:black; fill:white; " locus_tag="B8063_RS03505"  />
<polygon description="&lt;b&gt;B8063_RS03510&lt;/b&gt;&lt;br&gt;beta-ketoacyl-[acyl-carrier-protein] synthase I&lt;br&gt;Location: 654620 - 656621" id="subclusterblast-4_q8_0_all" points="353,35 358,30 425,30 425,40 358,40 353,35 " class="clusterblast-orf" style="stroke-width:1; stroke:black; fill:white; " locus_tag="B8063_RS03510"  />
<polygon description="&lt;b&gt;B8063_RS03515&lt;/b&gt;&lt;br&gt;bifunctional 3-hydroxydecanoyl-ACP dehydratase/trans-2-decenoyl-ACP isomerase&lt;br&gt;Location: 656620 - 657121" id="subclusterblast-4_q9_0_all" points="425,35 430,30 443,30 443,40 430,40 425,35 " class="clusterblast-orf" style="stroke-width:1; stroke:black; fill:white; " locus_tag="B8063_RS03515"  />
<polygon description="&lt;b&gt;B8063_RS03520&lt;/b&gt;&lt;br&gt;transcriptional repressor&lt;br&gt;Location: 657192 - 657612" id="subclusterblast-4_q10_0_all" points="446,40 456,40 461,35 456,30 446,30 446,40 " class="clusterblast-orf" style="stroke-width:1; stroke:black; fill:white; " locus_tag="B8063_RS03520"  />
<polygon description="&lt;b&gt;B8063_RS03525&lt;/b&gt;&lt;br&gt;rubrerythrin&lt;br&gt;Location: 657719 - 658136" id="subclusterblast-4_q11_0_all" points="465,40 475,40 480,35 475,30 465,30 465,40 " class="clusterblast-orf" style="stroke-width:1; stroke:black; fill:white; " locus_tag="B8063_RS03525"  />
<polygon description="&lt;b&gt;B8063_RS03530&lt;/b&gt;&lt;br&gt;glycerol-3-phosphate dehydrogenase&lt;br&gt;Location: 658238 - 659564" id="subclusterblast-4_q12_0_all" points="484,40 526,40 531,35 526,30 484,30 484,40 " class="clusterblast-orf" style="stroke-width:1; stroke:black; fill:white; " locus_tag="B8063_RS03530"  />
<polygon description="&lt;b&gt;B8063_RS03535&lt;/b&gt;&lt;br&gt;DUF3501 domain-containing protein&lt;br&gt;Location: 659566 - 660160" id="subclusterblast-4_q13_0_all" points="531,40 548,40 553,35 548,30 531,30 531,40 " class="clusterblast-orf" style="stroke-width:1; stroke:black; fill:white; " locus_tag="B8063_RS03535"  />
<polygon description="&lt;b&gt;B8063_RS03540&lt;/b&gt;&lt;br&gt;hypothetical protein&lt;br&gt;Location: 660152 - 660521" id="subclusterblast-4_q14_0_all" points="553,35 558,30 566,30 566,40 558,40 553,35 " class="clusterblast-orf" style="stroke-width:1; stroke:black; fill:white; " locus_tag="B8063_RS03540"  />
<polygon description="&lt;b&gt;B8063_RS03545&lt;/b&gt;&lt;br&gt;HesA/MoeB/ThiF family protein&lt;br&gt;Location: 660586 - 661345" id="subclusterblast-4_q15_0_all" points="568,35 573,30 595,30 595,40 573,40 568,35 " class="clusterblast-orf" style="stroke-width:1; stroke:black; fill:white; " locus_tag="B8063_RS03545"  />
<polygon description="&lt;b&gt;B8063_RS03550&lt;/b&gt;&lt;br&gt;dUTP diphosphatase&lt;br&gt;Location: 661341 - 661779" id="subclusterblast-4_q16_0_all" points="595,35 600,30 611,30 611,40 600,40 595,35 " class="clusterblast-orf" style="stroke-width:1; stroke:black; fill:white; " locus_tag="B8063_RS03550"  />
<polygon description="&lt;b&gt;B8063_RS03555&lt;/b&gt;&lt;br&gt;bifunctional phosphopantothenoylcysteine decarboxylase/phosphopantothenate--cysteine ligase CoaBC&lt;br&gt;Location: 661778 - 662978" id="subclusterblast-4_q17_0_all" points="611,35 616,30 654,30 654,40 616,40 611,35 " class="clusterblast-orf" style="stroke-width:1; stroke:black; fill:white; " locus_tag="B8063_RS03555"  />
<polygon description="&lt;b&gt;B8063_RS03560&lt;/b&gt;&lt;br&gt;2-polyprenylphenol 6-hydroxylase&lt;br&gt;Location: 662986 - 664555" id="subclusterblast-4_q18_0_all" points="655,35 660,30 711,30 711,40 660,40 655,35 " class="clusterblast-orf" style="stroke-width:1; stroke:black; fill:white; " locus_tag="B8063_RS03560"  />
<polygon description="&lt;b&gt;B8063_RS03565&lt;/b&gt;&lt;br&gt;bifunctional demethylmenaquinone methyltransferase/2-methoxy-6-polyprenyl-1,4-benzoquinol methylase UbiE&lt;br&gt;Location: 664551 - 665256" id="subclusterblast-4_q19_0_all" points="711,35 716,30 736,30 736,40 716,40 711,35 " class="clusterblast-orf" style="stroke-width:1; stroke:black; fill:white; " locus_tag="B8063_RS03565"  />
<polygon description="&lt;b&gt;B8063_RS03570&lt;/b&gt;&lt;br&gt;bifunctional DNA-formamidopyrimidine glycosylase/DNA-(apurinic or apyrimidinic site) lyase&lt;br&gt;Location: 665289 - 666153" id="subclusterblast-4_q20_0_all" points="738,40 764,40 769,35 764,30 738,30 738,40 " class="clusterblast-orf" style="stroke-width:1; stroke:black; fill:white; " locus_tag="B8063_RS03570"  />
<polygon description="&lt;b&gt;B8063_RS03575&lt;/b&gt;&lt;br&gt;30S ribosomal protein S20&lt;br&gt;Location: 666204 - 666465" id="subclusterblast-4_q21_0_all" points="770,40 775,40 780,35 775,30 770,30 770,40 " class="clusterblast-orf" style="stroke-width:1; stroke:black; fill:white; " locus_tag="B8063_RS03575"  />
</g>
</svg>
