<svg version="1.1" preserveAspectRatio="none" width="800" y="0" xmlns:xlink="http://www.w3.org/1999/xlink" height="230" x="0" xmlns="http://www.w3.org/2000/svg" viewBox="0 0 800 230"  >
<g label="Query sequence" class="clusterblast-cluster"  >
<text class="clusterblast-acc" y="20" x="5"  >
Query sequence</text>
<line style="stroke-width:1; stroke:grey; " y1="35" x2="778.0" y2="35" x1="10"  />
<polygon class="clusterblast-orf" style="stroke-width:1; stroke:black; fill:white; " points="0,40 12,40 17,35 12,30 0,30 0,40 " description="&lt;b&gt;P773_RS0100420&lt;/b&gt;&lt;br&gt;aspartate aminotransferase family protein&lt;br&gt;Location: 65229 - 66576" id="dummy-1_q0_0_all" locus_tag="P773_RS0100420"  />
<polygon class="clusterblast-orf" style="stroke-width:1; stroke:black; fill:#d81515; " points="17,40 27,40 32,35 27,30 17,30 17,40 " description="&lt;b&gt;P773_RS0100425&lt;/b&gt;&lt;br&gt;alanine dehydrogenase&lt;br&gt;Location: 66608 - 67724" id="dummy-1_q1_0_all" locus_tag="P773_RS0100425"  />
<polygon class="clusterblast-orf" style="stroke-width:1; stroke:black; fill:white; " points="32,40 40,40 45,35 40,30 32,30 32,40 " description="&lt;b&gt;P773_RS0100430&lt;/b&gt;&lt;br&gt;NAD-dependent dehydratase&lt;br&gt;Location: 67758 - 68769" id="dummy-1_q2_0_all" locus_tag="P773_RS0100430"  />
<polygon class="clusterblast-orf" style="stroke-width:1; stroke:black; fill:white; " points="50,40 53,40 58,35 53,30 50,30 50,40 " description="&lt;b&gt;P773_RS0100435&lt;/b&gt;&lt;br&gt;methyltransferase domain-containing protein&lt;br&gt;Location: 69104 - 69731" id="dummy-1_q3_0_all" locus_tag="P773_RS0100435"  />
<polygon class="clusterblast-orf" style="stroke-width:1; stroke:black; fill:white; " points="58,35 63,30 64,30 64,40 63,40 58,35 " description="&lt;b&gt;P773_RS0100440&lt;/b&gt;&lt;br&gt;hypothetical protein&lt;br&gt;Location: 69733 - 70186" id="dummy-1_q4_0_all" locus_tag="P773_RS0100440"  />
<polygon class="clusterblast-orf" style="stroke-width:1; stroke:black; fill:white; " points="64,40 98,40 103,35 98,30 64,30 64,40 " description="&lt;b&gt;P773_RS0100445&lt;/b&gt;&lt;br&gt;hypothetical protein&lt;br&gt;Location: 70171 - 73210" id="dummy-1_q5_0_all" locus_tag="P773_RS0100445"  />
<polygon class="clusterblast-orf" style="stroke-width:1; stroke:black; fill:white; " points="103,40 115,40 120,35 115,30 103,30 103,40 " description="&lt;b&gt;P773_RS0100450&lt;/b&gt;&lt;br&gt;hypothetical protein&lt;br&gt;Location: 73212 - 74544" id="dummy-1_q6_0_all" locus_tag="P773_RS0100450"  />
<polygon class="clusterblast-orf" style="stroke-width:1; stroke:black; fill:white; " points="120,35 125,30 135,30 135,40 125,40 120,35 " description="&lt;b&gt;P773_RS0100455&lt;/b&gt;&lt;br&gt;hypothetical protein&lt;br&gt;Location: 74533 - 75652" id="dummy-1_q7_0_all" locus_tag="P773_RS0100455"  />
<polygon class="clusterblast-orf" style="stroke-width:1; stroke:black; fill:white; " points="137,40 160,40 165,35 160,30 137,30 137,40 " description="&lt;b&gt;P773_RS0100460&lt;/b&gt;&lt;br&gt;hypothetical protein&lt;br&gt;Location: 75861 - 78003" id="dummy-1_q8_0_all" locus_tag="P773_RS0100460"  />
<polygon class="clusterblast-orf" style="stroke-width:1; stroke:black; fill:#33d815; " points="165,40 178,40 183,35 178,30 165,30 165,40 " description="&lt;b&gt;P773_RS07810&lt;/b&gt;&lt;br&gt;hypothetical protein&lt;br&gt;Location: 78006 - 79419" id="dummy-1_q9_0_all" locus_tag="P773_RS07810"  />
<polygon class="clusterblast-orf" style="stroke-width:1; stroke:black; fill:white; " points="185,40 202,40 207,35 202,30 185,30 185,40 " description="&lt;b&gt;P773_RS0100470&lt;/b&gt;&lt;br&gt;hypothetical protein&lt;br&gt;Location: 79512 - 81273" id="dummy-1_q10_0_all" locus_tag="P773_RS0100470"  />
<polygon class="clusterblast-orf" style="stroke-width:1; stroke:black; fill:#15abd8; " points="208,40 215,40 220,35 215,30 208,30 208,40 " description="&lt;b&gt;P773_RS0100475&lt;/b&gt;&lt;br&gt;glycosyltransferase family 2 protein&lt;br&gt;Location: 81336 - 82230" id="dummy-1_q11_0_all" locus_tag="P773_RS0100475"  />
<polygon class="clusterblast-orf" style="stroke-width:1; stroke:black; fill:white; " points="220,35 225,30 243,30 243,40 225,40 220,35 " description="&lt;b&gt;P773_RS0100480&lt;/b&gt;&lt;br&gt;asparagine synthase (glutamine-hydrolyzing)&lt;br&gt;Location: 82231 - 84034" id="dummy-1_q12_0_all" locus_tag="P773_RS0100480"  />
<polygon class="clusterblast-orf" style="stroke-width:1; stroke:black; fill:#8d15d8; " points="243,35 248,30 258,30 258,40 248,40 243,35 " description="&lt;b&gt;P773_RS0100485&lt;/b&gt;&lt;br&gt;hypothetical protein&lt;br&gt;Location: 84021 - 85218" id="dummy-1_q13_0_all" locus_tag="P773_RS0100485"  />
<polygon class="clusterblast-orf" style="stroke-width:1; stroke:black; fill:white; " points="259,35 264,30 275,30 275,40 264,40 259,35 " description="&lt;b&gt;P773_RS0100490&lt;/b&gt;&lt;br&gt;hypothetical protein&lt;br&gt;Location: 85244 - 86516" id="dummy-1_q14_0_all" locus_tag="P773_RS0100490"  />
<polygon class="clusterblast-orf" style="stroke-width:1; stroke:black; fill:white; " points="275,35 280,30 290,30 290,40 280,40 275,35 " description="&lt;b&gt;P773_RS0100495&lt;/b&gt;&lt;br&gt;hypothetical protein&lt;br&gt;Location: 86505 - 87684" id="dummy-1_q15_0_all" locus_tag="P773_RS0100495"  />
<polygon class="clusterblast-orf" style="stroke-width:1; stroke:black; fill:white; " points="291,35 296,30 304,30 304,40 296,40 291,35 " description="&lt;b&gt;P773_RS0100500&lt;/b&gt;&lt;br&gt;hypothetical protein&lt;br&gt;Location: 87725 - 88754" id="dummy-1_q16_0_all" locus_tag="P773_RS0100500"  />
<polygon class="clusterblast-orf" style="stroke-width:1; stroke:black; fill:#d86f15; " points="304,35 309,30 318,30 318,40 309,40 304,35 " description="&lt;b&gt;P773_RS0100505&lt;/b&gt;&lt;br&gt;glycosyltransferase family 1 protein&lt;br&gt;Location: 88759 - 89845" id="dummy-1_q17_0_all" locus_tag="P773_RS0100505"  />
<polygon class="clusterblast-orf" style="stroke-width:1; stroke:black; fill:white; " points="318,35 323,30 338,30 338,40 323,40 318,35 " description="&lt;b&gt;P773_RS0100510&lt;/b&gt;&lt;br&gt;hypothetical protein&lt;br&gt;Location: 89834 - 91379" id="dummy-1_q18_0_all" locus_tag="P773_RS0100510"  />
<polygon class="clusterblast-orf" style="stroke-width:1; stroke:black; fill:white; " points="338,35 343,30 354,30 354,40 343,40 338,35 " description="&lt;b&gt;P773_RS0100515&lt;/b&gt;&lt;br&gt;hypothetical protein&lt;br&gt;Location: 91398 - 92574" id="dummy-1_q19_0_all" locus_tag="P773_RS0100515"  />
<polygon class="clusterblast-orf" style="stroke-width:1; stroke:black; fill:#15d851; " points="354,35 359,30 363,30 363,40 359,40 354,35 " description="&lt;b&gt;P773_RS0100520&lt;/b&gt;&lt;br&gt;FkbM family methyltransferase&lt;br&gt;Location: 92566 - 93286" id="dummy-1_q20_0_all" locus_tag="P773_RS0100520"  />
<polygon class="clusterblast-orf" style="stroke-width:1; stroke:black; fill:white; " points="364,35 369,30 374,30 374,40 369,40 364,35 " description="&lt;b&gt;P773_RS0100525&lt;/b&gt;&lt;br&gt;glycosyltransferase&lt;br&gt;Location: 93379 - 94117" id="dummy-1_q21_0_all" locus_tag="P773_RS0100525"  />
<polygon class="clusterblast-orf" style="stroke-width:1; stroke:black; fill:white; " points="374,35 379,30 384,30 384,40 379,40 374,35 " description="&lt;b&gt;P773_RS0100530&lt;/b&gt;&lt;br&gt;hypothetical protein&lt;br&gt;Location: 94123 - 94930" id="dummy-1_q22_0_all" locus_tag="P773_RS0100530"  />
<polygon class="clusterblast-orf" style="stroke-width:1; stroke:black; fill:white; " points="384,35 389,30 402,30 402,40 389,40 384,35 " description="&lt;b&gt;P773_RS0100535&lt;/b&gt;&lt;br&gt;hypothetical protein&lt;br&gt;Location: 94935 - 96273" id="dummy-1_q23_0_all" locus_tag="P773_RS0100535"  />
<polygon class="clusterblast-orf" style="stroke-width:1; stroke:black; fill:#1551d8; " points="403,35 408,30 411,30 411,40 408,40 403,35 " description="&lt;b&gt;P773_RS07710&lt;/b&gt;&lt;br&gt;SIS domain-containing protein&lt;br&gt;Location: 96376 - 97003" id="dummy-1_q24_0_all" locus_tag="P773_RS07710"  />
<polygon class="clusterblast-orf" style="stroke-width:1; stroke:black; fill:#d815c9; " points="412,40 420,40 425,35 420,30 412,30 412,40 " description="&lt;b&gt;P773_RS0100545&lt;/b&gt;&lt;br&gt;hypothetical protein&lt;br&gt;Location: 97112 - 98084" id="dummy-1_q25_0_all" locus_tag="P773_RS0100545"  />
<polygon class="clusterblast-orf" style="stroke-width:1; stroke:black; fill:#d8c915; " points="425,40 436,40 441,35 436,30 425,30 425,40 " description="&lt;b&gt;P773_RS0100550&lt;/b&gt;&lt;br&gt;hypothetical protein&lt;br&gt;Location: 98083 - 99334" id="dummy-1_q26_0_all" locus_tag="P773_RS0100550"  />
<polygon class="clusterblast-orf" style="stroke-width:1; stroke:black; fill:#15d8ab; " points="442,40 449,40 454,35 449,30 442,30 442,40 " description="&lt;b&gt;P773_RS0100555&lt;/b&gt;&lt;br&gt;hypothetical protein&lt;br&gt;Location: 99373 - 100339" id="dummy-1_q27_0_all" locus_tag="P773_RS0100555"  />
<polygon class="clusterblast-orf" style="stroke-width:1; stroke:black; fill:#d815c9; " points="456,35 461,30 469,30 469,40 461,40 456,35 " description="&lt;b&gt;P773_RS0100560&lt;/b&gt;&lt;br&gt;UDP-glucuronate 5-epimerase&lt;br&gt;Location: 100462 - 101473" id="dummy-1_q28_0_all" locus_tag="P773_RS0100560"  />
<polygon class="clusterblast-orf" style="stroke-width:1; stroke:black; fill:#3315d8; " points="473,40 477,40 482,35 477,30 473,30 473,40 " description="&lt;b&gt;P773_RS0100565&lt;/b&gt;&lt;br&gt;transaldolase&lt;br&gt;Location: 101792 - 102488" id="dummy-1_q29_0_all" locus_tag="P773_RS0100565"  />
<polygon class="clusterblast-orf" style="stroke-width:1; stroke:black; fill:white; " points="482,40 509,40 514,35 509,30 482,30 482,40 " description="&lt;b&gt;P773_RS0100570&lt;/b&gt;&lt;br&gt;sarcosine dehydrogenase&lt;br&gt;Location: 102517 - 104962" id="dummy-1_q30_0_all" locus_tag="P773_RS0100570"  />
<polygon class="clusterblast-orf" style="stroke-width:1; stroke:black; fill:white; " points="515,40 517,35 515,30 515,40 " description="&lt;b&gt;P773_RS0100575&lt;/b&gt;&lt;br&gt;hypothetical protein&lt;br&gt;Location: 105011 - 105221" id="dummy-1_q31_0_all" locus_tag="P773_RS0100575"  />
<polygon class="clusterblast-orf" style="stroke-width:1; stroke:black; fill:white; " points="520,35 525,30 526,30 526,40 525,40 520,35 " description="&lt;b&gt;P773_RS0100585&lt;/b&gt;&lt;br&gt;adenine phosphoribosyltransferase&lt;br&gt;Location: 105387 - 105915" id="dummy-1_q32_0_all" locus_tag="P773_RS0100585"  />
<polygon class="clusterblast-orf" style="stroke-width:1; stroke:black; fill:white; " points="527,40 533,40 538,35 533,30 527,30 527,40 " description="&lt;b&gt;P773_RS0100590&lt;/b&gt;&lt;br&gt;S-methyl-5'-thioadenosine phosphorylase&lt;br&gt;Location: 105956 - 106829" id="dummy-1_q33_0_all" locus_tag="P773_RS0100590"  />
<polygon class="clusterblast-orf" style="stroke-width:1; stroke:black; fill:white; " points="538,40 547,40 552,35 547,30 538,30 538,40 " description="&lt;b&gt;P773_RS0100595&lt;/b&gt;&lt;br&gt;S-methyl-5-thioribose-1-phosphate isomerase&lt;br&gt;Location: 106825 - 107896" id="dummy-1_q34_0_all" locus_tag="P773_RS0100595"  />
<polygon class="clusterblast-orf" style="stroke-width:1; stroke:black; fill:white; " points="552,40 555,40 560,35 555,30 552,30 552,40 " description="&lt;b&gt;P773_RS0100600&lt;/b&gt;&lt;br&gt;fuculose phosphate aldolase&lt;br&gt;Location: 107892 - 108525" id="dummy-1_q35_0_all" locus_tag="P773_RS0100600"  />
<polygon class="clusterblast-orf" style="stroke-width:1; stroke:black; fill:white; " points="560,40 569,40 574,35 569,30 560,30 560,40 " description="&lt;b&gt;P773_RS0100605&lt;/b&gt;&lt;br&gt;adenosylmethionine decarboxylase&lt;br&gt;Location: 108528 - 109569" id="dummy-1_q36_0_all" locus_tag="P773_RS0100605"  />
<polygon class="clusterblast-orf" style="stroke-width:1; stroke:black; fill:white; " points="575,40 581,40 586,35 581,30 575,30 575,40 " description="&lt;b&gt;P773_RS0100610&lt;/b&gt;&lt;br&gt;ABC transporter substrate-binding protein&lt;br&gt;Location: 109628 - 110480" id="dummy-1_q37_0_all" locus_tag="P773_RS0100610"  />
<polygon class="clusterblast-orf" style="stroke-width:1; stroke:black; fill:#d8156f; " points="586,40 590,40 595,35 590,30 586,30 586,40 " description="&lt;b&gt;P773_RS0100615&lt;/b&gt;&lt;br&gt;ABC transporter permease&lt;br&gt;Location: 110524 - 111217" id="dummy-1_q38_0_all" locus_tag="P773_RS0100615"  />
<polygon class="clusterblast-orf" style="stroke-width:1; stroke:black; fill:#8dd815; " points="595,40 599,40 604,35 599,30 595,30 595,40 " description="&lt;b&gt;P773_RS0100620&lt;/b&gt;&lt;br&gt;ABC transporter permease&lt;br&gt;Location: 111216 - 111894" id="dummy-1_q39_0_all" locus_tag="P773_RS0100620"  />
<polygon class="clusterblast-orf" style="stroke-width:1; stroke:black; fill:white; " points="604,40 609,40 614,35 609,30 604,30 604,40 " description="&lt;b&gt;P773_RS0100625&lt;/b&gt;&lt;br&gt;phytanoyl-CoA dioxygenase&lt;br&gt;Location: 111896 - 112685" id="dummy-1_q40_0_all" locus_tag="P773_RS0100625"  />
<polygon class="clusterblast-orf" style="stroke-width:1; stroke:black; fill:white; " points="614,35 619,30 619,30 619,40 619,40 614,35 " description="&lt;b&gt;P773_RS0100630&lt;/b&gt;&lt;br&gt;hypothetical protein&lt;br&gt;Location: 112674 - 113064" id="dummy-1_q41_0_all" locus_tag="P773_RS0100630"  />
<polygon class="clusterblast-orf" style="stroke-width:1; stroke:black; fill:white; " points="619,40 627,40 632,35 627,30 619,30 619,40 " description="&lt;b&gt;P773_RS0100635&lt;/b&gt;&lt;br&gt;glycosyl transferase family 1&lt;br&gt;Location: 113096 - 114038" id="dummy-1_q42_0_all" locus_tag="P773_RS0100635"  />
<polygon class="clusterblast-orf" style="stroke-width:1; stroke:black; fill:white; " points="632,35 637,30 643,30 643,40 637,40 632,35 " description="&lt;b&gt;P773_RS0100640&lt;/b&gt;&lt;br&gt;EamA/RhaT family transporter&lt;br&gt;Location: 114052 - 114940" id="dummy-1_q43_0_all" locus_tag="P773_RS0100640"  />
<polygon class="clusterblast-orf" style="stroke-width:1; stroke:black; fill:white; " points="644,35 649,30 658,30 658,40 649,40 644,35 " description="&lt;b&gt;P773_RS0100645&lt;/b&gt;&lt;br&gt;glycosyl transferase&lt;br&gt;Location: 114979 - 116062" id="dummy-1_q44_0_all" locus_tag="P773_RS0100645"  />
<polygon class="clusterblast-orf" style="stroke-width:1; stroke:black; fill:white; " points="658,35 663,30 665,30 665,40 663,40 658,35 " description="&lt;b&gt;P773_RS0100650&lt;/b&gt;&lt;br&gt;thioredoxin family protein&lt;br&gt;Location: 116061 - 116616" id="dummy-1_q45_0_all" locus_tag="P773_RS0100650"  />
<polygon class="clusterblast-orf" style="stroke-width:1; stroke:black; fill:white; " points="665,40 667,40 672,35 667,30 665,30 665,40 " description="&lt;b&gt;P773_RS0100655&lt;/b&gt;&lt;br&gt;gamma carbonic anhydrase family protein&lt;br&gt;Location: 116636 - 117149" id="dummy-1_q46_0_all" locus_tag="P773_RS0100655"  />
<polygon class="clusterblast-orf" style="stroke-width:1; stroke:black; fill:white; " points="672,40 676,35 672,30 672,40 " description="&lt;b&gt;P773_RS0100660&lt;/b&gt;&lt;br&gt;DUF1330 domain-containing protein&lt;br&gt;Location: 117161 - 117452" id="dummy-1_q47_0_all" locus_tag="P773_RS0100660"  />
<polygon class="clusterblast-orf" style="stroke-width:1; stroke:black; fill:white; " points="676,35 681,30 684,30 684,40 681,40 676,35 " description="&lt;b&gt;P773_RS0100665&lt;/b&gt;&lt;br&gt;flavin-binding protein&lt;br&gt;Location: 117461 - 118061" id="dummy-1_q48_0_all" locus_tag="P773_RS0100665"  />
<polygon class="clusterblast-orf" style="stroke-width:1; stroke:black; fill:white; " points="684,35 689,30 695,30 695,40 689,40 684,35 " description="&lt;b&gt;P773_RS0100670&lt;/b&gt;&lt;br&gt;NAD(P)-dependent oxidoreductase&lt;br&gt;Location: 118067 - 118937" id="dummy-1_q49_0_all" locus_tag="P773_RS0100670"  />
<polygon class="clusterblast-orf" style="stroke-width:1; stroke:black; fill:white; " points="695,40 706,40 711,35 706,30 695,30 695,40 " description="&lt;b&gt;P773_RS0100675&lt;/b&gt;&lt;br&gt;MFS transporter&lt;br&gt;Location: 118951 - 120157" id="dummy-1_q50_0_all" locus_tag="P773_RS0100675"  />
<polygon class="clusterblast-orf" style="stroke-width:1; stroke:black; fill:white; " points="711,40 713,40 718,35 713,30 711,30 711,40 " description="&lt;b&gt;P773_RS0100680&lt;/b&gt;&lt;br&gt;DNA-directed RNA polymerase subunit omega&lt;br&gt;Location: 120200 - 120716" id="dummy-1_q51_0_all" locus_tag="P773_RS0100680"  />
<polygon class="clusterblast-orf" style="stroke-width:1; stroke:black; fill:white; " points="719,35 724,30 732,30 732,40 724,40 719,35 " description="&lt;b&gt;P773_RS0100685&lt;/b&gt;&lt;br&gt;hypothetical protein&lt;br&gt;Location: 120778 - 121792" id="dummy-1_q52_0_all" locus_tag="P773_RS0100685"  />
<polygon class="clusterblast-orf" style="stroke-width:1; stroke:black; fill:white; " points="734,35 739,30 749,30 749,40 739,40 734,35 " description="&lt;b&gt;P773_RS0100690&lt;/b&gt;&lt;br&gt;aminomethyltransferase&lt;br&gt;Location: 121945 - 123124" id="dummy-1_q53_0_all" locus_tag="P773_RS0100690"  />
<polygon class="clusterblast-orf" style="stroke-width:1; stroke:black; fill:white; " points="749,35 754,30 780,30 780,40 754,40 749,35 " description="&lt;b&gt;P773_RS0100695&lt;/b&gt;&lt;br&gt;biotin transporter BioY&lt;br&gt;Location: 123134 - 125465" id="dummy-1_q54_0_all" locus_tag="P773_RS0100695"  />
</g>
<g label="NZ_CP017605" class="clusterblast-cluster" description="NZ_CP017605_c1: Candidatus Hamiltonella defensa strain NY26 chromosome (9% of genes show similarity), phosphonate"  >
<text class="clusterblast-acc" y="70" x="5"  >
<a xlink:href="https://antismash-db.secondarymetabolites.org/go/NZ_CP017605/1" target="_blank">NZ_CP017605_c1</a>: Candidatus Hamiltonella defensa strain NY26 chromosome (9% of genes show similarity), phosphonate</text>
<line style="stroke-width:1; stroke:grey; " y1="85" x2="778.0" y2="85" x1="10"  />
</g>
<g id="a1_000"  >
<polygon class="clusterblast-orf" style="stroke-width:1; stroke:black; fill:white; " points="141,90 147,90 152,85 147,80 141,80 141,90 " description="&lt;b&gt;BJP44_RS01035&lt;/b&gt;&lt;br&gt;SPFH/Band 7/PHB domain protein&lt;br&gt;Location: 225407 - 224526" id="dummy-1_h1_9_0" locus_tag="BJP44_RS01035"  />
</g>
<g id="a1_001"  >
<polygon class="clusterblast-orf" style="stroke-width:1; stroke:black; fill:white; " points="156,90 167,90 172,85 167,80 156,80 156,90 " description="&lt;b&gt;BJP44_RS01030&lt;/b&gt;&lt;br&gt;hypothetical protein&lt;br&gt;Location: 224240 - 222993" id="dummy-1_h1_9_1" locus_tag="BJP44_RS01030"  />
</g>
<g id="a1_002"  >
<polygon class="clusterblast-orf" style="stroke-width:1; stroke:black; fill:white; " points="176,90 178,85 176,80 176,90 " description="&lt;b&gt;BJP44_RS01025&lt;/b&gt;&lt;br&gt;hypothetical protein&lt;br&gt;Location: 222698 - 222498" id="dummy-1_h1_9_2" locus_tag="BJP44_RS01025"  />
</g>
<g id="a1_003"  >
<polygon class="clusterblast-orf" style="stroke-width:1; stroke:black; fill:white; " points="179,90 183,90 188,85 183,80 179,80 179,90 " description="&lt;b&gt;BJP44_RS01020&lt;/b&gt;&lt;br&gt;DUF481 domain-containing protein&lt;br&gt;Location: 222481 - 221726" id="dummy-1_h1_9_3" locus_tag="BJP44_RS01020"  />
</g>
<g id="a1_004"  >
<polygon class="clusterblast-orf" style="stroke-width:1; stroke:black; fill:white; " points="192,90 204,90 209,85 204,80 192,80 192,90 " description="&lt;b&gt;BJP44_RS01015&lt;/b&gt;&lt;br&gt;tRNA(Ile)-lysidine synthetase&lt;br&gt;Location: 221478 - 220105" id="dummy-1_h1_9_4" locus_tag="BJP44_RS01015"  />
</g>
<g id="a1_005"  >
<polygon class="clusterblast-orf" style="stroke-width:1; stroke:black; fill:white; " points="211,90 227,90 232,85 227,80 211,80 211,90 " description="&lt;b&gt;BJP44_RS01010&lt;/b&gt;&lt;br&gt;NAD+ synthase&lt;br&gt;Location: 220004 - 218388" id="dummy-1_h1_9_5" locus_tag="BJP44_RS01010"  />
</g>
<g id="a1_006"  >
<polygon class="clusterblast-orf" style="stroke-width:1; stroke:black; fill:white; " points="234,85 239,80 239,80 239,90 239,90 234,85 " description="&lt;b&gt;BJP44_RS01005&lt;/b&gt;&lt;br&gt;Crl family RNA polymerase assembly factor&lt;br&gt;Location: 218234 - 217821" id="dummy-1_h1_9_6" locus_tag="BJP44_RS01005"  />
</g>
<g id="a1_007"  >
<polygon class="clusterblast-orf" style="stroke-width:1; stroke:black; fill:white; " points="246,90 250,90 255,85 250,80 246,80 246,90 " description="&lt;b&gt;BJP44_RS01000&lt;/b&gt;&lt;br&gt;7-carboxy-7-deazaguanine synthase QueE&lt;br&gt;Location: 217244 - 216573" id="dummy-1_h1_9_7" locus_tag="BJP44_RS01000"  />
</g>
<g id="a1_008"  >
<polygon class="clusterblast-orf" style="stroke-width:1; stroke:black; fill:white; " points="255,90 296,90 301,85 296,80 255,80 255,90 " description="&lt;b&gt;BJP44_RS00995&lt;/b&gt;&lt;br&gt;DNA polymerase III subunit alpha&lt;br&gt;Location: 216541 - 213060" id="dummy-1_h1_9_8" locus_tag="BJP44_RS00995"  />
</g>
<g id="a1_009"  >
<polygon class="clusterblast-orf" style="stroke-width:1; stroke:black; fill:white; " points="301,90 308,90 313,85 308,80 301,80 301,90 " description="&lt;b&gt;BJP44_RS00990&lt;/b&gt;&lt;br&gt;acetyl-CoA carboxylase carboxyl transferase subunit alpha&lt;br&gt;Location: 213041 - 212082" id="dummy-1_h1_9_9" locus_tag="BJP44_RS00990"  />
</g>
<g id="a1_0010"  >
<polygon class="clusterblast-orf" style="stroke-width:1; stroke:black; fill:white; " points="315,90 323,90 328,85 323,80 315,80 315,90 " description="&lt;b&gt;BJP44_RS00985&lt;/b&gt;&lt;br&gt;ferrochelatase&lt;br&gt;Location: 211927 - 210968" id="dummy-1_h1_9_10" locus_tag="BJP44_RS00985"  />
</g>
<g id="a1_0011"  >
<polygon class="clusterblast-orf" style="stroke-width:1; stroke:black; fill:white; " points="330,90 345,90 350,85 345,80 330,80 330,90 " description="&lt;b&gt;BJP44_RS00980&lt;/b&gt;&lt;br&gt;virulence factor mviN-like protein&lt;br&gt;Location: 210773 - 209268" id="dummy-1_h1_9_11" locus_tag="BJP44_RS00980"  />
</g>
<g id="a1_0012"  >
<polygon class="clusterblast-orf" style="stroke-width:1; stroke:black; fill:white; " points="350,90 355,90 360,85 355,80 350,80 350,90 " description="&lt;b&gt;BJP44_RS00975&lt;/b&gt;&lt;br&gt;phosphocholine cytidylyltransferase family protein&lt;br&gt;Location: 209222 - 208458" id="dummy-1_h1_9_12" locus_tag="BJP44_RS00975"  />
</g>
<g id="a1_0013"  >
<polygon class="clusterblast-orf" style="stroke-width:1; stroke:black; fill:white; " points="361,90 377,90 382,85 377,80 361,80 361,90 " description="&lt;b&gt;BJP44_RS00970&lt;/b&gt;&lt;br&gt;phosphoenolpyruvate mutase&lt;br&gt;Location: 208380 - 206737" id="dummy-1_h1_9_13" locus_tag="BJP44_RS00970"  />
</g>
<g id="a1_0014"  >
<polygon class="clusterblast-orf" style="stroke-width:1; stroke:black; fill:white; " points="382,90 393,90 398,85 393,80 382,80 382,90 " description="&lt;b&gt;BJP44_RS00965&lt;/b&gt;&lt;br&gt;phosphonopyruvate decarboxylase&lt;br&gt;Location: 206740 - 205553" id="dummy-1_h1_9_14" locus_tag="BJP44_RS00965"  />
</g>
<g id="a1_0015"  >
<polygon class="clusterblast-orf" style="stroke-width:1; stroke:black; fill:white; " points="398,90 407,90 412,85 407,80 398,80 398,90 " description="&lt;b&gt;BJP44_RS00960&lt;/b&gt;&lt;br&gt;aminotransferase class V-fold PLP-dependent enzyme&lt;br&gt;Location: 205553 - 204462" id="dummy-1_h1_9_15" locus_tag="BJP44_RS00960"  />
</g>
<g id="a1_0016"  >
<polygon class="clusterblast-orf" style="stroke-width:1; stroke:black; fill:white; " points="412,90 417,90 422,85 417,80 412,80 412,90 " description="&lt;b&gt;BJP44_RS00955&lt;/b&gt;&lt;br&gt;class I SAM-dependent methyltransferase&lt;br&gt;Location: 204443 - 203694" id="dummy-1_h1_9_16" locus_tag="BJP44_RS00955"  />
</g>
<g id="a1_0017"  >
<polygon class="clusterblast-orf" style="stroke-width:1; stroke:black; fill:white; " points="428,90 431,85 428,80 428,90 " description="&lt;b&gt;BJP44_RS00950&lt;/b&gt;&lt;br&gt;hypothetical protein&lt;br&gt;Location: 203224 - 202997" id="dummy-1_h1_9_17" locus_tag="BJP44_RS00950"  />
</g>
<g id="a1_0018"  >
<polygon class="clusterblast-orf" style="stroke-width:1; stroke:black; fill:white; " points="433,90 436,85 433,80 433,90 " description="&lt;b&gt;BJP44_RS00945&lt;/b&gt;&lt;br&gt;LicD family protein&lt;br&gt;Location: 202794 - 202612" id="dummy-1_h1_9_18" locus_tag="BJP44_RS00945"  />
</g>
<g id="a1_0019"  >
<polygon class="clusterblast-orf" style="stroke-width:1; stroke:black; fill:white; " points="437,90 447,90 452,85 447,80 437,80 437,90 " description="&lt;b&gt;BJP44_RS00940&lt;/b&gt;&lt;br&gt;CDP-glycerol--poly(glycerophosphate) glycerophosphotransferase&lt;br&gt;Location: 202544 - 201390" id="dummy-1_h1_9_19" locus_tag="BJP44_RS00940"  />
</g>
<g id="a1_0020"  >
<polygon class="clusterblast-orf" style="stroke-width:1; stroke:black; fill:white; " points="452,90 461,90 466,85 461,80 452,80 452,90 " description="&lt;b&gt;BJP44_RS00935&lt;/b&gt;&lt;br&gt;hypothetical protein&lt;br&gt;Location: 201389 - 200289" id="dummy-1_h1_9_20" locus_tag="BJP44_RS00935"  />
</g>
<g id="a1_0021"  >
<polygon class="clusterblast-orf" style="stroke-width:1; stroke:black; fill:white; " points="466,90 475,90 480,85 475,80 466,80 466,90 " description="&lt;b&gt;BJP44_RS00930&lt;/b&gt;&lt;br&gt;EpsG family protein&lt;br&gt;Location: 200299 - 199226" id="dummy-1_h1_9_21" locus_tag="BJP44_RS00930"  />
</g>
<g id="a1_0022"  >
<polygon class="clusterblast-orf" style="stroke-width:1; stroke:black; fill:white; " points="480,90 481,90 486,85 481,80 480,80 480,90 " description="&lt;b&gt;BJP44_RS00925&lt;/b&gt;&lt;br&gt;glycerol-3-phosphate cytidylyltransferase&lt;br&gt;Location: 199226 - 198756" id="dummy-1_h1_9_22" locus_tag="BJP44_RS00925"  />
</g>
<g id="a1_0023"  >
<polygon class="clusterblast-orf" style="stroke-width:1; stroke:black; fill:white; " points="486,90 494,90 499,85 494,80 486,80 486,90 " description="&lt;b&gt;BJP44_RS00920&lt;/b&gt;&lt;br&gt;hypothetical protein&lt;br&gt;Location: 198755 - 197733" id="dummy-1_h1_9_23" locus_tag="BJP44_RS00920"  />
</g>
<g id="a1_0024"  >
<polygon class="clusterblast-orf" style="stroke-width:1; stroke:black; fill:white; " points="504,90 508,90 513,85 508,80 504,80 504,90 " description="&lt;b&gt;BJP44_RS00915&lt;/b&gt;&lt;br&gt;peptidoglycan bridge formation glycyltransferase FemA/FemB family protein&lt;br&gt;Location: 197341 - 196679" id="dummy-1_h1_9_24" locus_tag="BJP44_RS00915"  />
</g>
<g id="a1_0025"  >
<polygon class="clusterblast-orf" style="stroke-width:1; stroke:black; fill:white; " points="515,90 525,90 530,85 525,80 515,80 515,90 " description="&lt;b&gt;BJP44_RS00910&lt;/b&gt;&lt;br&gt;hypothetical protein&lt;br&gt;Location: 196521 - 195343" id="dummy-1_h1_9_25" locus_tag="BJP44_RS00910"  />
</g>
<g id="a1_0026"  >
<polygon class="clusterblast-orf" style="stroke-width:1; stroke:black; fill:white; " points="536,90 545,90 550,85 545,80 536,80 536,90 " description="&lt;b&gt;BJP44_RS00905&lt;/b&gt;&lt;br&gt;UDP-glucose 4-epimerase GalE&lt;br&gt;Location: 194846 - 193800" id="dummy-1_h1_9_26" locus_tag="BJP44_RS00905"  />
</g>
<g id="a1_0027"  >
<polygon class="clusterblast-orf" style="stroke-width:1; stroke:black; fill:#d815c9; " points="552,90 560,90 565,85 560,80 552,80 552,90 " description="&lt;b&gt;BJP44_RS00900&lt;/b&gt;&lt;br&gt;dTDP-glucose 4,6-dehydratase&lt;br&gt;Location: 193610 - 192642&lt;br&gt;&lt;br&gt;&lt;b&gt;BlastP hit with P773_RS0100545&lt;/b&gt;&lt;br&gt;Percentage identity: 41&lt;br&gt;Percentage coverage: 99&lt;br&gt;BLAST bit score: 218&lt;br&gt;E-value: 8.2e-55" id="dummy-1_h1_9_27" locus_tag="BJP44_RS00900"  />
</g>
<g id="a1_0028"  >
<polygon class="clusterblast-orf" style="stroke-width:1; stroke:black; fill:white; " points="565,90 571,90 576,85 571,80 565,80 565,90 " description="&lt;b&gt;BJP44_RS00895&lt;/b&gt;&lt;br&gt;glycosyl transferase group 2&lt;br&gt;Location: 192611 - 191811" id="dummy-1_h1_9_28" locus_tag="BJP44_RS00895"  />
</g>
<g id="a1_0029"  >
<polygon class="clusterblast-orf" style="stroke-width:1; stroke:black; fill:#d8c915; " points="576,90 596,90 601,85 596,80 576,80 576,90 " description="&lt;b&gt;BJP44_RS00890&lt;/b&gt;&lt;br&gt;hypothetical protein&lt;br&gt;Location: 191779 - 189878&lt;br&gt;&lt;br&gt;&lt;b&gt;BlastP hit with P773_RS0100550&lt;/b&gt;&lt;br&gt;Percentage identity: 34&lt;br&gt;Percentage coverage: 96&lt;br&gt;BLAST bit score: 220&lt;br&gt;E-value: 4.7e-55" id="dummy-1_h1_9_29" locus_tag="BJP44_RS00890"  />
</g>
<g id="a1_0030"  >
<polygon class="clusterblast-orf" style="stroke-width:1; stroke:black; fill:#15d8ab; " points="601,90 609,90 614,85 609,80 601,80 601,90 " description="&lt;b&gt;BJP44_RS00885&lt;/b&gt;&lt;br&gt;GHMP kinase&lt;br&gt;Location: 189871 - 188869&lt;br&gt;&lt;br&gt;&lt;b&gt;BlastP hit with P773_RS0100555&lt;/b&gt;&lt;br&gt;Percentage identity: 53&lt;br&gt;Percentage coverage: 18&lt;br&gt;BLAST bit score: 65&lt;br&gt;E-value: 1.1e-08" id="dummy-1_h1_9_30" locus_tag="BJP44_RS00885"  />
</g>
<g id="a1_0031"  >
<polygon class="clusterblast-orf" style="stroke-width:1; stroke:black; fill:white; " points="615,90 616,90 621,85 616,80 615,80 615,90 " description="&lt;b&gt;BJP44_RS00880&lt;/b&gt;&lt;br&gt;SIS domain-containing protein&lt;br&gt;Location: 188800 - 188306" id="dummy-1_h1_9_31" locus_tag="BJP44_RS00880"  />
</g>
<g id="a1_0032"  >
<polygon class="clusterblast-orf" style="stroke-width:1; stroke:black; fill:white; " points="621,90 633,90 638,85 633,80 621,80 621,90 " description="&lt;b&gt;BJP44_RS00875&lt;/b&gt;&lt;br&gt;mannose-1-phosphate guanylyltransferase/mannose-6-phosphate isomerase&lt;br&gt;Location: 188292 - 186975" id="dummy-1_h1_9_32" locus_tag="BJP44_RS00875"  />
</g>
</svg>
