<svg version="1.1" preserveAspectRatio="none" width="800" y="0" xmlns:xlink="http://www.w3.org/1999/xlink" height="230" x="0" xmlns="http://www.w3.org/2000/svg" viewBox="0 0 800 230"  >
<g label="Query sequence" class="clusterblast-cluster"  >
<text class="clusterblast-acc" y="20" x="5"  >
Query sequence</text>
<line style="stroke-width:1; stroke:grey; " y1="35" x2="778.0" y2="35" x1="10"  />
<polygon class="clusterblast-orf" style="stroke-width:1; stroke:black; fill:white; " points="0,40 12,40 17,35 12,30 0,30 0,40 " description="&lt;b&gt;P773_RS0100420&lt;/b&gt;&lt;br&gt;aspartate aminotransferase family protein&lt;br&gt;Location: 65229 - 66576" id="dummy-1_q0_0_all" locus_tag="P773_RS0100420"  />
<polygon class="clusterblast-orf" style="stroke-width:1; stroke:black; fill:#d81515; " points="17,40 27,40 32,35 27,30 17,30 17,40 " description="&lt;b&gt;P773_RS0100425&lt;/b&gt;&lt;br&gt;alanine dehydrogenase&lt;br&gt;Location: 66608 - 67724" id="dummy-1_q1_0_all" locus_tag="P773_RS0100425"  />
<polygon class="clusterblast-orf" style="stroke-width:1; stroke:black; fill:white; " points="32,40 40,40 45,35 40,30 32,30 32,40 " description="&lt;b&gt;P773_RS0100430&lt;/b&gt;&lt;br&gt;NAD-dependent dehydratase&lt;br&gt;Location: 67758 - 68769" id="dummy-1_q2_0_all" locus_tag="P773_RS0100430"  />
<polygon class="clusterblast-orf" style="stroke-width:1; stroke:black; fill:white; " points="50,40 53,40 58,35 53,30 50,30 50,40 " description="&lt;b&gt;P773_RS0100435&lt;/b&gt;&lt;br&gt;methyltransferase domain-containing protein&lt;br&gt;Location: 69104 - 69731" id="dummy-1_q3_0_all" locus_tag="P773_RS0100435"  />
<polygon class="clusterblast-orf" style="stroke-width:1; stroke:black; fill:white; " points="58,35 63,30 64,30 64,40 63,40 58,35 " description="&lt;b&gt;P773_RS0100440&lt;/b&gt;&lt;br&gt;hypothetical protein&lt;br&gt;Location: 69733 - 70186" id="dummy-1_q4_0_all" locus_tag="P773_RS0100440"  />
<polygon class="clusterblast-orf" style="stroke-width:1; stroke:black; fill:white; " points="64,40 98,40 103,35 98,30 64,30 64,40 " description="&lt;b&gt;P773_RS0100445&lt;/b&gt;&lt;br&gt;hypothetical protein&lt;br&gt;Location: 70171 - 73210" id="dummy-1_q5_0_all" locus_tag="P773_RS0100445"  />
<polygon class="clusterblast-orf" style="stroke-width:1; stroke:black; fill:white; " points="103,40 115,40 120,35 115,30 103,30 103,40 " description="&lt;b&gt;P773_RS0100450&lt;/b&gt;&lt;br&gt;hypothetical protein&lt;br&gt;Location: 73212 - 74544" id="dummy-1_q6_0_all" locus_tag="P773_RS0100450"  />
<polygon class="clusterblast-orf" style="stroke-width:1; stroke:black; fill:white; " points="120,35 125,30 135,30 135,40 125,40 120,35 " description="&lt;b&gt;P773_RS0100455&lt;/b&gt;&lt;br&gt;hypothetical protein&lt;br&gt;Location: 74533 - 75652" id="dummy-1_q7_0_all" locus_tag="P773_RS0100455"  />
<polygon class="clusterblast-orf" style="stroke-width:1; stroke:black; fill:white; " points="137,40 160,40 165,35 160,30 137,30 137,40 " description="&lt;b&gt;P773_RS0100460&lt;/b&gt;&lt;br&gt;hypothetical protein&lt;br&gt;Location: 75861 - 78003" id="dummy-1_q8_0_all" locus_tag="P773_RS0100460"  />
<polygon class="clusterblast-orf" style="stroke-width:1; stroke:black; fill:#33d815; " points="165,40 178,40 183,35 178,30 165,30 165,40 " description="&lt;b&gt;P773_RS07810&lt;/b&gt;&lt;br&gt;hypothetical protein&lt;br&gt;Location: 78006 - 79419" id="dummy-1_q9_0_all" locus_tag="P773_RS07810"  />
<polygon class="clusterblast-orf" style="stroke-width:1; stroke:black; fill:white; " points="185,40 202,40 207,35 202,30 185,30 185,40 " description="&lt;b&gt;P773_RS0100470&lt;/b&gt;&lt;br&gt;hypothetical protein&lt;br&gt;Location: 79512 - 81273" id="dummy-1_q10_0_all" locus_tag="P773_RS0100470"  />
<polygon class="clusterblast-orf" style="stroke-width:1; stroke:black; fill:#15abd8; " points="208,40 215,40 220,35 215,30 208,30 208,40 " description="&lt;b&gt;P773_RS0100475&lt;/b&gt;&lt;br&gt;glycosyltransferase family 2 protein&lt;br&gt;Location: 81336 - 82230" id="dummy-1_q11_0_all" locus_tag="P773_RS0100475"  />
<polygon class="clusterblast-orf" style="stroke-width:1; stroke:black; fill:white; " points="220,35 225,30 243,30 243,40 225,40 220,35 " description="&lt;b&gt;P773_RS0100480&lt;/b&gt;&lt;br&gt;asparagine synthase (glutamine-hydrolyzing)&lt;br&gt;Location: 82231 - 84034" id="dummy-1_q12_0_all" locus_tag="P773_RS0100480"  />
<polygon class="clusterblast-orf" style="stroke-width:1; stroke:black; fill:#8d15d8; " points="243,35 248,30 258,30 258,40 248,40 243,35 " description="&lt;b&gt;P773_RS0100485&lt;/b&gt;&lt;br&gt;hypothetical protein&lt;br&gt;Location: 84021 - 85218" id="dummy-1_q13_0_all" locus_tag="P773_RS0100485"  />
<polygon class="clusterblast-orf" style="stroke-width:1; stroke:black; fill:white; " points="259,35 264,30 275,30 275,40 264,40 259,35 " description="&lt;b&gt;P773_RS0100490&lt;/b&gt;&lt;br&gt;hypothetical protein&lt;br&gt;Location: 85244 - 86516" id="dummy-1_q14_0_all" locus_tag="P773_RS0100490"  />
<polygon class="clusterblast-orf" style="stroke-width:1; stroke:black; fill:white; " points="275,35 280,30 290,30 290,40 280,40 275,35 " description="&lt;b&gt;P773_RS0100495&lt;/b&gt;&lt;br&gt;hypothetical protein&lt;br&gt;Location: 86505 - 87684" id="dummy-1_q15_0_all" locus_tag="P773_RS0100495"  />
<polygon class="clusterblast-orf" style="stroke-width:1; stroke:black; fill:white; " points="291,35 296,30 304,30 304,40 296,40 291,35 " description="&lt;b&gt;P773_RS0100500&lt;/b&gt;&lt;br&gt;hypothetical protein&lt;br&gt;Location: 87725 - 88754" id="dummy-1_q16_0_all" locus_tag="P773_RS0100500"  />
<polygon class="clusterblast-orf" style="stroke-width:1; stroke:black; fill:#d86f15; " points="304,35 309,30 318,30 318,40 309,40 304,35 " description="&lt;b&gt;P773_RS0100505&lt;/b&gt;&lt;br&gt;glycosyltransferase family 1 protein&lt;br&gt;Location: 88759 - 89845" id="dummy-1_q17_0_all" locus_tag="P773_RS0100505"  />
<polygon class="clusterblast-orf" style="stroke-width:1; stroke:black; fill:white; " points="318,35 323,30 338,30 338,40 323,40 318,35 " description="&lt;b&gt;P773_RS0100510&lt;/b&gt;&lt;br&gt;hypothetical protein&lt;br&gt;Location: 89834 - 91379" id="dummy-1_q18_0_all" locus_tag="P773_RS0100510"  />
<polygon class="clusterblast-orf" style="stroke-width:1; stroke:black; fill:white; " points="338,35 343,30 354,30 354,40 343,40 338,35 " description="&lt;b&gt;P773_RS0100515&lt;/b&gt;&lt;br&gt;hypothetical protein&lt;br&gt;Location: 91398 - 92574" id="dummy-1_q19_0_all" locus_tag="P773_RS0100515"  />
<polygon class="clusterblast-orf" style="stroke-width:1; stroke:black; fill:#15d851; " points="354,35 359,30 363,30 363,40 359,40 354,35 " description="&lt;b&gt;P773_RS0100520&lt;/b&gt;&lt;br&gt;FkbM family methyltransferase&lt;br&gt;Location: 92566 - 93286" id="dummy-1_q20_0_all" locus_tag="P773_RS0100520"  />
<polygon class="clusterblast-orf" style="stroke-width:1; stroke:black; fill:white; " points="364,35 369,30 374,30 374,40 369,40 364,35 " description="&lt;b&gt;P773_RS0100525&lt;/b&gt;&lt;br&gt;glycosyltransferase&lt;br&gt;Location: 93379 - 94117" id="dummy-1_q21_0_all" locus_tag="P773_RS0100525"  />
<polygon class="clusterblast-orf" style="stroke-width:1; stroke:black; fill:white; " points="374,35 379,30 384,30 384,40 379,40 374,35 " description="&lt;b&gt;P773_RS0100530&lt;/b&gt;&lt;br&gt;hypothetical protein&lt;br&gt;Location: 94123 - 94930" id="dummy-1_q22_0_all" locus_tag="P773_RS0100530"  />
<polygon class="clusterblast-orf" style="stroke-width:1; stroke:black; fill:white; " points="384,35 389,30 402,30 402,40 389,40 384,35 " description="&lt;b&gt;P773_RS0100535&lt;/b&gt;&lt;br&gt;hypothetical protein&lt;br&gt;Location: 94935 - 96273" id="dummy-1_q23_0_all" locus_tag="P773_RS0100535"  />
<polygon class="clusterblast-orf" style="stroke-width:1; stroke:black; fill:#1551d8; " points="403,35 408,30 411,30 411,40 408,40 403,35 " description="&lt;b&gt;P773_RS07710&lt;/b&gt;&lt;br&gt;SIS domain-containing protein&lt;br&gt;Location: 96376 - 97003" id="dummy-1_q24_0_all" locus_tag="P773_RS07710"  />
<polygon class="clusterblast-orf" style="stroke-width:1; stroke:black; fill:#d815c9; " points="412,40 420,40 425,35 420,30 412,30 412,40 " description="&lt;b&gt;P773_RS0100545&lt;/b&gt;&lt;br&gt;hypothetical protein&lt;br&gt;Location: 97112 - 98084" id="dummy-1_q25_0_all" locus_tag="P773_RS0100545"  />
<polygon class="clusterblast-orf" style="stroke-width:1; stroke:black; fill:#d8c915; " points="425,40 436,40 441,35 436,30 425,30 425,40 " description="&lt;b&gt;P773_RS0100550&lt;/b&gt;&lt;br&gt;hypothetical protein&lt;br&gt;Location: 98083 - 99334" id="dummy-1_q26_0_all" locus_tag="P773_RS0100550"  />
<polygon class="clusterblast-orf" style="stroke-width:1; stroke:black; fill:#15d8ab; " points="442,40 449,40 454,35 449,30 442,30 442,40 " description="&lt;b&gt;P773_RS0100555&lt;/b&gt;&lt;br&gt;hypothetical protein&lt;br&gt;Location: 99373 - 100339" id="dummy-1_q27_0_all" locus_tag="P773_RS0100555"  />
<polygon class="clusterblast-orf" style="stroke-width:1; stroke:black; fill:#d815c9; " points="456,35 461,30 469,30 469,40 461,40 456,35 " description="&lt;b&gt;P773_RS0100560&lt;/b&gt;&lt;br&gt;UDP-glucuronate 5-epimerase&lt;br&gt;Location: 100462 - 101473" id="dummy-1_q28_0_all" locus_tag="P773_RS0100560"  />
<polygon class="clusterblast-orf" style="stroke-width:1; stroke:black; fill:#3315d8; " points="473,40 477,40 482,35 477,30 473,30 473,40 " description="&lt;b&gt;P773_RS0100565&lt;/b&gt;&lt;br&gt;transaldolase&lt;br&gt;Location: 101792 - 102488" id="dummy-1_q29_0_all" locus_tag="P773_RS0100565"  />
<polygon class="clusterblast-orf" style="stroke-width:1; stroke:black; fill:white; " points="482,40 509,40 514,35 509,30 482,30 482,40 " description="&lt;b&gt;P773_RS0100570&lt;/b&gt;&lt;br&gt;sarcosine dehydrogenase&lt;br&gt;Location: 102517 - 104962" id="dummy-1_q30_0_all" locus_tag="P773_RS0100570"  />
<polygon class="clusterblast-orf" style="stroke-width:1; stroke:black; fill:white; " points="515,40 517,35 515,30 515,40 " description="&lt;b&gt;P773_RS0100575&lt;/b&gt;&lt;br&gt;hypothetical protein&lt;br&gt;Location: 105011 - 105221" id="dummy-1_q31_0_all" locus_tag="P773_RS0100575"  />
<polygon class="clusterblast-orf" style="stroke-width:1; stroke:black; fill:white; " points="520,35 525,30 526,30 526,40 525,40 520,35 " description="&lt;b&gt;P773_RS0100585&lt;/b&gt;&lt;br&gt;adenine phosphoribosyltransferase&lt;br&gt;Location: 105387 - 105915" id="dummy-1_q32_0_all" locus_tag="P773_RS0100585"  />
<polygon class="clusterblast-orf" style="stroke-width:1; stroke:black; fill:white; " points="527,40 533,40 538,35 533,30 527,30 527,40 " description="&lt;b&gt;P773_RS0100590&lt;/b&gt;&lt;br&gt;S-methyl-5'-thioadenosine phosphorylase&lt;br&gt;Location: 105956 - 106829" id="dummy-1_q33_0_all" locus_tag="P773_RS0100590"  />
<polygon class="clusterblast-orf" style="stroke-width:1; stroke:black; fill:white; " points="538,40 547,40 552,35 547,30 538,30 538,40 " description="&lt;b&gt;P773_RS0100595&lt;/b&gt;&lt;br&gt;S-methyl-5-thioribose-1-phosphate isomerase&lt;br&gt;Location: 106825 - 107896" id="dummy-1_q34_0_all" locus_tag="P773_RS0100595"  />
<polygon class="clusterblast-orf" style="stroke-width:1; stroke:black; fill:white; " points="552,40 555,40 560,35 555,30 552,30 552,40 " description="&lt;b&gt;P773_RS0100600&lt;/b&gt;&lt;br&gt;fuculose phosphate aldolase&lt;br&gt;Location: 107892 - 108525" id="dummy-1_q35_0_all" locus_tag="P773_RS0100600"  />
<polygon class="clusterblast-orf" style="stroke-width:1; stroke:black; fill:white; " points="560,40 569,40 574,35 569,30 560,30 560,40 " description="&lt;b&gt;P773_RS0100605&lt;/b&gt;&lt;br&gt;adenosylmethionine decarboxylase&lt;br&gt;Location: 108528 - 109569" id="dummy-1_q36_0_all" locus_tag="P773_RS0100605"  />
<polygon class="clusterblast-orf" style="stroke-width:1; stroke:black; fill:white; " points="575,40 581,40 586,35 581,30 575,30 575,40 " description="&lt;b&gt;P773_RS0100610&lt;/b&gt;&lt;br&gt;ABC transporter substrate-binding protein&lt;br&gt;Location: 109628 - 110480" id="dummy-1_q37_0_all" locus_tag="P773_RS0100610"  />
<polygon class="clusterblast-orf" style="stroke-width:1; stroke:black; fill:#d8156f; " points="586,40 590,40 595,35 590,30 586,30 586,40 " description="&lt;b&gt;P773_RS0100615&lt;/b&gt;&lt;br&gt;ABC transporter permease&lt;br&gt;Location: 110524 - 111217" id="dummy-1_q38_0_all" locus_tag="P773_RS0100615"  />
<polygon class="clusterblast-orf" style="stroke-width:1; stroke:black; fill:#8dd815; " points="595,40 599,40 604,35 599,30 595,30 595,40 " description="&lt;b&gt;P773_RS0100620&lt;/b&gt;&lt;br&gt;ABC transporter permease&lt;br&gt;Location: 111216 - 111894" id="dummy-1_q39_0_all" locus_tag="P773_RS0100620"  />
<polygon class="clusterblast-orf" style="stroke-width:1; stroke:black; fill:white; " points="604,40 609,40 614,35 609,30 604,30 604,40 " description="&lt;b&gt;P773_RS0100625&lt;/b&gt;&lt;br&gt;phytanoyl-CoA dioxygenase&lt;br&gt;Location: 111896 - 112685" id="dummy-1_q40_0_all" locus_tag="P773_RS0100625"  />
<polygon class="clusterblast-orf" style="stroke-width:1; stroke:black; fill:white; " points="614,35 619,30 619,30 619,40 619,40 614,35 " description="&lt;b&gt;P773_RS0100630&lt;/b&gt;&lt;br&gt;hypothetical protein&lt;br&gt;Location: 112674 - 113064" id="dummy-1_q41_0_all" locus_tag="P773_RS0100630"  />
<polygon class="clusterblast-orf" style="stroke-width:1; stroke:black; fill:white; " points="619,40 627,40 632,35 627,30 619,30 619,40 " description="&lt;b&gt;P773_RS0100635&lt;/b&gt;&lt;br&gt;glycosyl transferase family 1&lt;br&gt;Location: 113096 - 114038" id="dummy-1_q42_0_all" locus_tag="P773_RS0100635"  />
<polygon class="clusterblast-orf" style="stroke-width:1; stroke:black; fill:white; " points="632,35 637,30 643,30 643,40 637,40 632,35 " description="&lt;b&gt;P773_RS0100640&lt;/b&gt;&lt;br&gt;EamA/RhaT family transporter&lt;br&gt;Location: 114052 - 114940" id="dummy-1_q43_0_all" locus_tag="P773_RS0100640"  />
<polygon class="clusterblast-orf" style="stroke-width:1; stroke:black; fill:white; " points="644,35 649,30 658,30 658,40 649,40 644,35 " description="&lt;b&gt;P773_RS0100645&lt;/b&gt;&lt;br&gt;glycosyl transferase&lt;br&gt;Location: 114979 - 116062" id="dummy-1_q44_0_all" locus_tag="P773_RS0100645"  />
<polygon class="clusterblast-orf" style="stroke-width:1; stroke:black; fill:white; " points="658,35 663,30 665,30 665,40 663,40 658,35 " description="&lt;b&gt;P773_RS0100650&lt;/b&gt;&lt;br&gt;thioredoxin family protein&lt;br&gt;Location: 116061 - 116616" id="dummy-1_q45_0_all" locus_tag="P773_RS0100650"  />
<polygon class="clusterblast-orf" style="stroke-width:1; stroke:black; fill:white; " points="665,40 667,40 672,35 667,30 665,30 665,40 " description="&lt;b&gt;P773_RS0100655&lt;/b&gt;&lt;br&gt;gamma carbonic anhydrase family protein&lt;br&gt;Location: 116636 - 117149" id="dummy-1_q46_0_all" locus_tag="P773_RS0100655"  />
<polygon class="clusterblast-orf" style="stroke-width:1; stroke:black; fill:white; " points="672,40 676,35 672,30 672,40 " description="&lt;b&gt;P773_RS0100660&lt;/b&gt;&lt;br&gt;DUF1330 domain-containing protein&lt;br&gt;Location: 117161 - 117452" id="dummy-1_q47_0_all" locus_tag="P773_RS0100660"  />
<polygon class="clusterblast-orf" style="stroke-width:1; stroke:black; fill:white; " points="676,35 681,30 684,30 684,40 681,40 676,35 " description="&lt;b&gt;P773_RS0100665&lt;/b&gt;&lt;br&gt;flavin-binding protein&lt;br&gt;Location: 117461 - 118061" id="dummy-1_q48_0_all" locus_tag="P773_RS0100665"  />
<polygon class="clusterblast-orf" style="stroke-width:1; stroke:black; fill:white; " points="684,35 689,30 695,30 695,40 689,40 684,35 " description="&lt;b&gt;P773_RS0100670&lt;/b&gt;&lt;br&gt;NAD(P)-dependent oxidoreductase&lt;br&gt;Location: 118067 - 118937" id="dummy-1_q49_0_all" locus_tag="P773_RS0100670"  />
<polygon class="clusterblast-orf" style="stroke-width:1; stroke:black; fill:white; " points="695,40 706,40 711,35 706,30 695,30 695,40 " description="&lt;b&gt;P773_RS0100675&lt;/b&gt;&lt;br&gt;MFS transporter&lt;br&gt;Location: 118951 - 120157" id="dummy-1_q50_0_all" locus_tag="P773_RS0100675"  />
<polygon class="clusterblast-orf" style="stroke-width:1; stroke:black; fill:white; " points="711,40 713,40 718,35 713,30 711,30 711,40 " description="&lt;b&gt;P773_RS0100680&lt;/b&gt;&lt;br&gt;DNA-directed RNA polymerase subunit omega&lt;br&gt;Location: 120200 - 120716" id="dummy-1_q51_0_all" locus_tag="P773_RS0100680"  />
<polygon class="clusterblast-orf" style="stroke-width:1; stroke:black; fill:white; " points="719,35 724,30 732,30 732,40 724,40 719,35 " description="&lt;b&gt;P773_RS0100685&lt;/b&gt;&lt;br&gt;hypothetical protein&lt;br&gt;Location: 120778 - 121792" id="dummy-1_q52_0_all" locus_tag="P773_RS0100685"  />
<polygon class="clusterblast-orf" style="stroke-width:1; stroke:black; fill:white; " points="734,35 739,30 749,30 749,40 739,40 734,35 " description="&lt;b&gt;P773_RS0100690&lt;/b&gt;&lt;br&gt;aminomethyltransferase&lt;br&gt;Location: 121945 - 123124" id="dummy-1_q53_0_all" locus_tag="P773_RS0100690"  />
<polygon class="clusterblast-orf" style="stroke-width:1; stroke:black; fill:white; " points="749,35 754,30 780,30 780,40 754,40 749,35 " description="&lt;b&gt;P773_RS0100695&lt;/b&gt;&lt;br&gt;biotin transporter BioY&lt;br&gt;Location: 123134 - 125465" id="dummy-1_q54_0_all" locus_tag="P773_RS0100695"  />
</g>
<g label="NZ_MTJN01000002" class="clusterblast-cluster" description="NZ_MTJN01000002_c5: Rhodoferax fermentans strain JCM 7819 contig02, whole gen... (6% of genes show similarity), acyl_amino_acids"  >
<text class="clusterblast-acc" y="70" x="5"  >
<a xlink:href="https://antismash-db.secondarymetabolites.org/go/NZ_MTJN01000002/5" target="_blank">NZ_MTJN01000002_c5</a>: Rhodoferax fermentans strain JCM 7819 contig02, whole gen... (6% of genes show similarity), acyl_amino_acids</text>
<line style="stroke-width:1; stroke:grey; " y1="85" x2="778.0" y2="85" x1="10"  />
</g>
<g id="a1_000"  >
<polygon class="clusterblast-orf" style="stroke-width:1; stroke:black; fill:white; " points="16,90 16,90 21,85 16,80 16,80 16,90 " description="&lt;b&gt;RF819_RS11545&lt;/b&gt;&lt;br&gt;hypothetical protein&lt;br&gt;Location: 2467407 - 2466976" id="dummy-1_h1_5_0" locus_tag="RF819_RS11545"  />
</g>
<g id="a1_001"  >
<polygon class="clusterblast-orf" style="stroke-width:1; stroke:black; fill:white; " points="21,90 33,90 38,85 33,80 21,80 21,90 " description="&lt;b&gt;RF819_RS11540&lt;/b&gt;&lt;br&gt;FAD-binding oxidoreductase&lt;br&gt;Location: 2466979 - 2465684" id="dummy-1_h1_5_1" locus_tag="RF819_RS11540"  />
</g>
<g id="a1_002"  >
<polygon class="clusterblast-orf" style="stroke-width:1; stroke:black; fill:white; " points="38,90 43,90 48,85 43,80 38,80 38,90 " description="&lt;b&gt;RF819_RS11535&lt;/b&gt;&lt;br&gt;short-chain dehydrogenase&lt;br&gt;Location: 2465682 - 2464930" id="dummy-1_h1_5_2" locus_tag="RF819_RS11535"  />
</g>
<g id="a1_003"  >
<polygon class="clusterblast-orf" style="stroke-width:1; stroke:black; fill:white; " points="65,90 71,90 76,85 71,80 65,80 65,90 " description="&lt;b&gt;RF819_RS11530&lt;/b&gt;&lt;br&gt;hypothetical protein&lt;br&gt;Location: 2463585 - 2462734" id="dummy-1_h1_5_3" locus_tag="RF819_RS11530"  />
</g>
<g id="a1_004"  >
<polygon class="clusterblast-orf" style="stroke-width:1; stroke:black; fill:white; " points="76,90 77,90 82,85 77,80 76,80 76,90 " description="&lt;b&gt;RF819_RS11525&lt;/b&gt;&lt;br&gt;GtrA family protein&lt;br&gt;Location: 2462737 - 2462291" id="dummy-1_h1_5_4" locus_tag="RF819_RS11525"  />
</g>
<g id="a1_005"  >
<polygon class="clusterblast-orf" style="stroke-width:1; stroke:black; fill:white; " points="82,90 89,90 94,85 89,80 82,80 82,90 " description="&lt;b&gt;RF819_RS11520&lt;/b&gt;&lt;br&gt;glycosyltransferase&lt;br&gt;Location: 2462280 - 2461333" id="dummy-1_h1_5_5" locus_tag="RF819_RS11520"  />
</g>
<g id="a1_006"  >
<polygon class="clusterblast-orf" style="stroke-width:1; stroke:black; fill:white; " points="94,90 110,90 115,85 110,80 94,80 94,90 " description="&lt;b&gt;RF819_RS11515&lt;/b&gt;&lt;br&gt;hypothetical protein&lt;br&gt;Location: 2461336 - 2459771" id="dummy-1_h1_5_6" locus_tag="RF819_RS11515"  />
</g>
<g id="a1_007"  >
<polygon class="clusterblast-orf" style="stroke-width:1; stroke:black; fill:white; " points="118,90 119,90 124,85 119,80 118,80 118,90 " description="&lt;b&gt;RF819_RS11510&lt;/b&gt;&lt;br&gt;hypothetical protein&lt;br&gt;Location: 2459514 - 2459050" id="dummy-1_h1_5_7" locus_tag="RF819_RS11510"  />
</g>
<g id="a1_008"  >
<polygon class="clusterblast-orf" style="stroke-width:1; stroke:black; fill:white; " points="125,90 138,90 143,85 138,80 125,80 125,90 " description="&lt;b&gt;RF819_RS11505&lt;/b&gt;&lt;br&gt;putative O-glycosylation ligase, exosortase A system-associated&lt;br&gt;Location: 2458972 - 2457593" id="dummy-1_h1_5_8" locus_tag="RF819_RS11505"  />
</g>
<g id="a1_009"  >
<polygon class="clusterblast-orf" style="stroke-width:1; stroke:black; fill:white; " points="142,90 151,90 156,85 151,80 142,80 142,90 " description="&lt;b&gt;RF819_RS11500&lt;/b&gt;&lt;br&gt;hypothetical protein&lt;br&gt;Location: 2457612 - 2456593" id="dummy-1_h1_5_9" locus_tag="RF819_RS11500"  />
</g>
<g id="a1_0010"  >
<polygon class="clusterblast-orf" style="stroke-width:1; stroke:black; fill:white; " points="172,90 186,90 191,85 186,80 172,80 172,90 " description="&lt;b&gt;RF819_RS11495&lt;/b&gt;&lt;br&gt;hypothetical protein&lt;br&gt;Location: 2455365 - 2453890" id="dummy-1_h1_5_10" locus_tag="RF819_RS11495"  />
</g>
<g id="a1_0011"  >
<polygon class="clusterblast-orf" style="stroke-width:1; stroke:black; fill:white; " points="191,85 196,80 213,80 213,90 196,90 191,85 " description="&lt;b&gt;RF819_RS11490&lt;/b&gt;&lt;br&gt;hypothetical protein&lt;br&gt;Location: 2453877 - 2452150" id="dummy-1_h1_5_11" locus_tag="RF819_RS11490"  />
</g>
<g id="a1_0012"  >
<polygon class="clusterblast-orf" style="stroke-width:1; stroke:black; fill:white; " points="213,85 218,80 225,80 225,90 218,90 213,85 " description="&lt;b&gt;RF819_RS11485&lt;/b&gt;&lt;br&gt;glycosyltransferase family 2 protein&lt;br&gt;Location: 2452187 - 2451201" id="dummy-1_h1_5_12" locus_tag="RF819_RS11485"  />
</g>
<g id="a1_0013"  >
<polygon class="clusterblast-orf" style="stroke-width:1; stroke:black; fill:white; " points="228,90 233,90 238,85 233,80 228,80 228,90 " description="&lt;b&gt;RF819_RS11480&lt;/b&gt;&lt;br&gt;FkbM family methyltransferase&lt;br&gt;Location: 2451014 - 2450250" id="dummy-1_h1_5_13" locus_tag="RF819_RS11480"  />
</g>
<g id="a1_0014"  >
<polygon class="clusterblast-orf" style="stroke-width:1; stroke:black; fill:white; " points="238,85 243,80 253,80 253,90 243,90 238,85 " description="&lt;b&gt;RF819_RS11475&lt;/b&gt;&lt;br&gt;hypothetical protein&lt;br&gt;Location: 2450218 - 2449085" id="dummy-1_h1_5_14" locus_tag="RF819_RS11475"  />
</g>
<g id="a1_0015"  >
<polygon class="clusterblast-orf" style="stroke-width:1; stroke:black; fill:white; " points="258,90 287,90 292,85 287,80 258,80 258,90 " description="&lt;b&gt;RF819_RS11470&lt;/b&gt;&lt;br&gt;hypothetical protein&lt;br&gt;Location: 2448688 - 2446082" id="dummy-1_h1_5_15" locus_tag="RF819_RS11470"  />
</g>
<g id="a1_0016"  >
<polygon class="clusterblast-orf" style="stroke-width:1; stroke:black; fill:#d81515; " points="294,90 303,90 308,85 303,80 294,80 294,90 " description="&lt;b&gt;RF819_RS11465&lt;/b&gt;&lt;br&gt;alanine dehydrogenase&lt;br&gt;Location: 2445929 - 2444817&lt;br&gt;&lt;br&gt;&lt;b&gt;BlastP hit with P773_RS0100425&lt;/b&gt;&lt;br&gt;Percentage identity: 55&lt;br&gt;Percentage coverage: 100&lt;br&gt;BLAST bit score: 391&lt;br&gt;E-value: 1.4e-106" id="dummy-1_h1_5_16" locus_tag="RF819_RS11465"  />
</g>
<g id="a1_0017"  >
<polygon class="clusterblast-orf" style="stroke-width:1; stroke:black; fill:white; " points="309,85 314,80 320,80 320,90 314,90 309,85 " description="&lt;b&gt;RF819_RS11460&lt;/b&gt;&lt;br&gt;PEP-CTERM sorting domain-containing protein&lt;br&gt;Location: 2444713 - 2443901" id="dummy-1_h1_5_17" locus_tag="RF819_RS11460"  />
</g>
<g id="a1_0018"  >
<polygon class="clusterblast-orf" style="stroke-width:1; stroke:black; fill:white; " points="322,85 327,80 363,80 363,90 327,90 322,85 " description="&lt;b&gt;RF819_RS11455&lt;/b&gt;&lt;br&gt;PEP-CTERM system TPR-repeat protein PrsT&lt;br&gt;Location: 2443711 - 2440604" id="dummy-1_h1_5_18" locus_tag="RF819_RS11455"  />
</g>
<g id="a1_0019"  >
<polygon class="clusterblast-orf" style="stroke-width:1; stroke:black; fill:white; " points="361,90 366,90 371,85 366,80 361,80 361,90 " description="&lt;b&gt;RF819_RS11450&lt;/b&gt;&lt;br&gt;serine protease&lt;br&gt;Location: 2440716 - 2439925" id="dummy-1_h1_5_19" locus_tag="RF819_RS11450"  />
</g>
<g id="a1_0020"  >
<polygon class="clusterblast-orf" style="stroke-width:1; stroke:black; fill:white; " points="372,85 377,80 389,80 389,90 377,90 372,85 " description="&lt;b&gt;RF819_RS11445&lt;/b&gt;&lt;br&gt;GNAT family N-acetyltransferase&lt;br&gt;Location: 2439904 - 2438606" id="dummy-1_h1_5_20" locus_tag="RF819_RS11445"  />
</g>
<g id="a1_0021"  >
<polygon class="clusterblast-orf" style="stroke-width:1; stroke:black; fill:white; " points="393,90 396,85 393,80 393,90 " description="&lt;b&gt;RF819_RS11440&lt;/b&gt;&lt;br&gt;hypothetical protein&lt;br&gt;Location: 2438274 - 2438005" id="dummy-1_h1_5_21" locus_tag="RF819_RS11440"  />
</g>
<g id="a1_0022"  >
<polygon class="clusterblast-orf" style="stroke-width:1; stroke:black; fill:#d815c9; " points="396,90 405,90 410,85 405,80 396,80 396,90 " description="&lt;b&gt;RF819_RS11435&lt;/b&gt;&lt;br&gt;NAD-dependent epimerase&lt;br&gt;Location: 2437994 - 2436987&lt;br&gt;&lt;br&gt;&lt;b&gt;BlastP hit with P773_RS0100560&lt;/b&gt;&lt;br&gt;Percentage identity: 47&lt;br&gt;Percentage coverage: 99&lt;br&gt;BLAST bit score: 306&lt;br&gt;E-value: 3.1e-81" id="dummy-1_h1_5_22" locus_tag="RF819_RS11435"  />
</g>
<g id="a1_0023"  >
<polygon class="clusterblast-orf" style="stroke-width:1; stroke:black; fill:white; " points="410,85 415,80 415,80 415,90 415,90 410,85 " description="&lt;b&gt;RF819_RS11430&lt;/b&gt;&lt;br&gt;low molecular weight phosphotyrosine protein phosphatase&lt;br&gt;Location: 2436986 - 2436531" id="dummy-1_h1_5_23" locus_tag="RF819_RS11430"  />
</g>
<g id="a1_0024"  >
<polygon class="clusterblast-orf" style="stroke-width:1; stroke:black; fill:white; " points="417,90 422,90 427,85 422,80 417,80 417,90 " description="&lt;b&gt;RF819_RS11425&lt;/b&gt;&lt;br&gt;outer membrane lipoprotein-sorting protein&lt;br&gt;Location: 2436389 - 2435604" id="dummy-1_h1_5_24" locus_tag="RF819_RS11425"  />
</g>
<g id="a1_0025"  >
<polygon class="clusterblast-orf" style="stroke-width:1; stroke:black; fill:white; " points="427,90 439,90 444,85 439,80 427,80 427,90 " description="&lt;b&gt;RF819_RS11420&lt;/b&gt;&lt;br&gt;hypothetical protein&lt;br&gt;Location: 2435601 - 2434318" id="dummy-1_h1_5_25" locus_tag="RF819_RS11420"  />
</g>
<g id="a1_0026"  >
<polygon class="clusterblast-orf" style="stroke-width:1; stroke:black; fill:white; " points="445,85 450,80 457,80 457,90 450,90 445,85 " description="&lt;b&gt;RF819_RS11415&lt;/b&gt;&lt;br&gt;lytic transglycosylase&lt;br&gt;Location: 2434234 - 2433347" id="dummy-1_h1_5_26" locus_tag="RF819_RS11415"  />
</g>
<g id="a1_0027"  >
<polygon class="clusterblast-orf" style="stroke-width:1; stroke:black; fill:white; " points="457,85 462,80 473,80 473,90 462,90 457,85 " description="&lt;b&gt;RF819_RS11410&lt;/b&gt;&lt;br&gt;GNAT family N-acetyltransferase&lt;br&gt;Location: 2433337 - 2432111" id="dummy-1_h1_5_27" locus_tag="RF819_RS11410"  />
</g>
<g id="a1_0028"  >
<polygon class="clusterblast-orf" style="stroke-width:1; stroke:black; fill:white; " points="473,90 476,85 473,80 473,90 " description="&lt;b&gt;RF819_RS11405&lt;/b&gt;&lt;br&gt;acyl carrier protein&lt;br&gt;Location: 2432108 - 2431857" id="dummy-1_h1_5_28" locus_tag="RF819_RS11405"  />
</g>
<g id="a1_0029"  >
<polygon class="clusterblast-orf" style="stroke-width:1; stroke:black; fill:white; " points="476,90 482,90 487,85 482,80 476,80 476,90 " description="&lt;b&gt;RF819_RS11400&lt;/b&gt;&lt;br&gt;hydrolase 2, exosortase A system-associated&lt;br&gt;Location: 2431841 - 2430996" id="dummy-1_h1_5_29" locus_tag="RF819_RS11400"  />
</g>
<g id="a1_0030"  >
<polygon class="clusterblast-orf" style="stroke-width:1; stroke:black; fill:white; " points="487,90 493,90 498,85 493,80 487,80 487,90 " description="&lt;b&gt;RF819_RS11395&lt;/b&gt;&lt;br&gt;hydrolase 1, exosortase A system-associated&lt;br&gt;Location: 2430972 - 2430142" id="dummy-1_h1_5_30" locus_tag="RF819_RS11395"  />
</g>
<g id="a1_0031"  >
<polygon class="clusterblast-orf" style="stroke-width:1; stroke:black; fill:white; " points="499,90 515,90 520,85 515,80 499,80 499,90 " description="&lt;b&gt;RF819_RS11390&lt;/b&gt;&lt;br&gt;acyl-CoA ligase (AMP-forming), exosortase A system-associated&lt;br&gt;Location: 2430087 - 2428453" id="dummy-1_h1_5_31" locus_tag="RF819_RS11390"  />
</g>
<g id="a1_0032"  >
<polygon class="clusterblast-orf" style="stroke-width:1; stroke:black; fill:white; " points="521,90 531,90 536,85 531,80 521,80 521,90 " description="&lt;b&gt;RF819_RS11385&lt;/b&gt;&lt;br&gt;pyridoxal-dependent decarboxylase, exosortase A system-associated&lt;br&gt;Location: 2428405 - 2427200" id="dummy-1_h1_5_32" locus_tag="RF819_RS11385"  />
</g>
<g id="a1_0033"  >
<polygon class="clusterblast-orf" style="stroke-width:1; stroke:black; fill:white; " points="536,90 557,90 562,85 557,80 536,80 536,90 " description="&lt;b&gt;RF819_RS11380&lt;/b&gt;&lt;br&gt;hypothetical protein&lt;br&gt;Location: 2427193 - 2425223" id="dummy-1_h1_5_33" locus_tag="RF819_RS11380"  />
</g>
<g id="a1_0034"  >
<polygon class="clusterblast-orf" style="stroke-width:1; stroke:black; fill:white; " points="563,90 575,90 580,85 575,80 563,80 563,90 " description="&lt;b&gt;RF819_RS11375&lt;/b&gt;&lt;br&gt;UDP-glucose/GDP-mannose dehydrogenase family protein&lt;br&gt;Location: 2425168 - 2423846" id="dummy-1_h1_5_34" locus_tag="RF819_RS11375"  />
</g>
<g id="a1_0035"  >
<polygon class="clusterblast-orf" style="stroke-width:1; stroke:black; fill:#33d815; " points="581,90 593,90 598,85 593,80 581,80 581,90 " description="&lt;b&gt;RF819_RS11370&lt;/b&gt;&lt;br&gt;exopolysaccharide biosynthesis polyprenyl glycosylphosphotransferase&lt;br&gt;Location: 2423774 - 2422404&lt;br&gt;&lt;br&gt;&lt;b&gt;BlastP hit with P773_RS07810&lt;/b&gt;&lt;br&gt;Percentage identity: 37&lt;br&gt;Percentage coverage: 40&lt;br&gt;BLAST bit score: 130&lt;br&gt;E-value: 5.6e-28" id="dummy-1_h1_5_35" locus_tag="RF819_RS11370"  />
</g>
<g id="a1_0036"  >
<polygon class="clusterblast-orf" style="stroke-width:1; stroke:black; fill:white; " points="599,90 621,90 626,85 621,80 599,80 599,90 " description="&lt;b&gt;RF819_RS11365&lt;/b&gt;&lt;br&gt;PEP-CTERM system histidine kinase PrsK&lt;br&gt;Location: 2422390 - 2420282" id="dummy-1_h1_5_36" locus_tag="RF819_RS11365"  />
</g>
<g id="a1_0037"  >
<polygon class="clusterblast-orf" style="stroke-width:1; stroke:black; fill:white; " points="626,90 638,90 643,85 638,80 626,80 626,90 " description="&lt;b&gt;RF819_RS11360&lt;/b&gt;&lt;br&gt;PEP-CTERM-box response regulator transcription factor&lt;br&gt;Location: 2420285 - 2418927" id="dummy-1_h1_5_37" locus_tag="RF819_RS11360"  />
</g>
<g id="a1_0038"  >
<polygon class="clusterblast-orf" style="stroke-width:1; stroke:black; fill:white; " points="644,90 675,90 680,85 675,80 644,80 644,90 " description="&lt;b&gt;RF819_RS11355&lt;/b&gt;&lt;br&gt;PEP-CTERM system TPR-repeat protein PrsT&lt;br&gt;Location: 2418889 - 2416115" id="dummy-1_h1_5_38" locus_tag="RF819_RS11355"  />
</g>
<g id="a1_0039"  >
<polygon class="clusterblast-orf" style="stroke-width:1; stroke:black; fill:white; " points="691,90 694,85 691,80 691,90 " description="&lt;b&gt;RF819_RS11350&lt;/b&gt;&lt;br&gt;hypothetical protein&lt;br&gt;Location: 2415238 - 2415020" id="dummy-1_h1_5_39" locus_tag="RF819_RS11350"  />
</g>
<g id="a1_0040"  >
<polygon class="clusterblast-orf" style="stroke-width:1; stroke:black; fill:white; " points="695,90 700,90 705,85 700,80 695,80 695,90 " description="&lt;b&gt;RF819_RS11345&lt;/b&gt;&lt;br&gt;HprK-related kinase A&lt;br&gt;Location: 2414964 - 2414143" id="dummy-1_h1_5_40" locus_tag="RF819_RS11345"  />
</g>
<g id="a1_0041"  >
<polygon class="clusterblast-orf" style="stroke-width:1; stroke:black; fill:white; " points="705,90 715,90 720,85 715,80 705,80 705,90 " description="&lt;b&gt;RF819_RS11340&lt;/b&gt;&lt;br&gt;hypothetical protein&lt;br&gt;Location: 2414131 - 2413046" id="dummy-1_h1_5_41" locus_tag="RF819_RS11340"  />
</g>
<g id="a1_0042"  >
<polygon class="clusterblast-orf" style="stroke-width:1; stroke:black; fill:white; " points="720,90 740,90 745,85 740,80 720,80 720,90 " description="&lt;b&gt;RF819_RS11335&lt;/b&gt;&lt;br&gt;ABC transporter ATP-binding protein&lt;br&gt;Location: 2413017 - 2411044" id="dummy-1_h1_5_42" locus_tag="RF819_RS11335"  />
</g>
<g id="a1_0043"  >
<polygon class="clusterblast-orf" style="stroke-width:1; stroke:black; fill:white; " points="746,85 751,80 753,80 753,90 751,90 746,85 " description="&lt;b&gt;RF819_RS11330&lt;/b&gt;&lt;br&gt;MarR family transcriptional regulator&lt;br&gt;Location: 2410987 - 2410499" id="dummy-1_h1_5_43" locus_tag="RF819_RS11330"  />
</g>
<g id="a1_0044"  >
<polygon class="clusterblast-orf" style="stroke-width:1; stroke:black; fill:white; " points="754,85 759,80 763,80 763,90 759,90 754,85 " description="&lt;b&gt;RF819_RS11325&lt;/b&gt;&lt;br&gt;dihydrodipicolinate reductase&lt;br&gt;Location: 2410414 - 2409662" id="dummy-1_h1_5_44" locus_tag="RF819_RS11325"  />
</g>
</svg>
