<svg version="1.1" preserveAspectRatio="none" width="800" y="0" xmlns:xlink="http://www.w3.org/1999/xlink" height="230" x="0" xmlns="http://www.w3.org/2000/svg" viewBox="0 0 800 230"  >
<g label="Query sequence" class="clusterblast-cluster"  >
<text class="clusterblast-acc" y="20" x="5"  >
Query sequence</text>
<line style="stroke-width:1; stroke:grey; " y1="35" x2="778.0" y2="35" x1="10"  />
<polygon class="clusterblast-orf" style="stroke-width:1; stroke:black; fill:white; " points="0,40 11,40 16,35 11,30 0,30 0,40 " description="&lt;b&gt;P773_RS0101415&lt;/b&gt;&lt;br&gt;4-hydroxy-tetrahydrodipicolinate synthase&lt;br&gt;Location: 250375 - 251257" id="dummy-2_q0_0_all" locus_tag="P773_RS0101415"  />
<polygon class="clusterblast-orf" style="stroke-width:1; stroke:black; fill:white; " points="16,40 19,40 24,35 19,30 16,30 16,40 " description="&lt;b&gt;P773_RS0101420&lt;/b&gt;&lt;br&gt;SsrA-binding protein SmpB&lt;br&gt;Location: 251256 - 251727" id="dummy-2_q1_0_all" locus_tag="P773_RS0101420"  />
<polygon class="clusterblast-orf" style="stroke-width:1; stroke:black; fill:white; " points="24,40 28,40 33,35 28,30 24,30 24,40 " description="&lt;b&gt;P773_RS0101425&lt;/b&gt;&lt;br&gt;2-amino-4-hydroxy-6- hydroxymethyldihydropteridine diphosphokinase&lt;br&gt;Location: 251692 - 252205" id="dummy-2_q2_0_all" locus_tag="P773_RS0101425"  />
<polygon class="clusterblast-orf" style="stroke-width:1; stroke:black; fill:#d81515; " points="33,40 60,40 65,35 60,30 33,30 33,40 " description="&lt;b&gt;P773_RS0101430&lt;/b&gt;&lt;br&gt;bifunctional (p)ppGpp synthetase/guanosine-3',5'-bis(diphosphate) 3'-pyrophosphohydrolase&lt;br&gt;Location: 252224 - 253970" id="dummy-2_q3_0_all" locus_tag="P773_RS0101430"  />
<polygon class="clusterblast-orf" style="stroke-width:1; stroke:black; fill:white; " points="64,40 70,40 75,35 70,30 64,30 64,40 " description="&lt;b&gt;P773_RS0101435&lt;/b&gt;&lt;br&gt;orotate phosphoribosyltransferase&lt;br&gt;Location: 253926 - 254514" id="dummy-2_q4_0_all" locus_tag="P773_RS0101435"  />
<polygon class="clusterblast-orf" style="stroke-width:1; stroke:black; fill:#5cd815; " points="75,40 83,40 88,35 83,30 75,30 75,40 " description="&lt;b&gt;P773_RS0101440&lt;/b&gt;&lt;br&gt;pyridoxine 5'-phosphate synthase&lt;br&gt;Location: 254510 - 255230" id="dummy-2_q5_0_all" locus_tag="P773_RS0101440"  />
<polygon class="clusterblast-orf" style="stroke-width:1; stroke:black; fill:#15a3d8; " points="88,40 90,40 95,35 90,30 88,30 88,40 " description="&lt;b&gt;P773_RS0101445&lt;/b&gt;&lt;br&gt;holo-[acyl-carrier-protein] synthase&lt;br&gt;Location: 255233 - 255620" id="dummy-2_q6_0_all" locus_tag="P773_RS0101445"  />
<polygon class="clusterblast-orf" style="stroke-width:1; stroke:black; fill:#9115d8; " points="95,40 103,40 108,35 103,30 95,30 95,40 " description="&lt;b&gt;P773_RS0101450&lt;/b&gt;&lt;br&gt;signal peptidase I&lt;br&gt;Location: 255616 - 256354" id="dummy-2_q7_0_all" locus_tag="P773_RS0101450"  />
<polygon class="clusterblast-orf" style="stroke-width:1; stroke:black; fill:#d84a15; " points="108,40 116,40 121,35 116,30 108,30 108,40 " description="&lt;b&gt;P773_RS0101455&lt;/b&gt;&lt;br&gt;ribonuclease III&lt;br&gt;Location: 256353 - 257016" id="dummy-2_q8_0_all" locus_tag="P773_RS0101455"  />
<polygon class="clusterblast-orf" style="stroke-width:1; stroke:black; fill:white; " points="121,40 128,40 133,35 128,30 121,30 121,40 " description="&lt;b&gt;P773_RS0101460&lt;/b&gt;&lt;br&gt;DNA repair protein RecO&lt;br&gt;Location: 257023 - 257704" id="dummy-2_q9_0_all" locus_tag="P773_RS0101460"  />
<polygon class="clusterblast-orf" style="stroke-width:1; stroke:black; fill:#27d815; " points="133,35 138,30 151,30 151,40 138,40 133,35 " description="&lt;b&gt;P773_RS0101465&lt;/b&gt;&lt;br&gt;porphobilinogen synthase&lt;br&gt;Location: 257704 - 258694" id="dummy-2_q10_0_all" locus_tag="P773_RS0101465"  />
<polygon class="clusterblast-orf" style="stroke-width:1; stroke:black; fill:white; " points="153,40 159,40 164,35 159,30 153,30 153,40 " description="&lt;b&gt;P773_RS0101470&lt;/b&gt;&lt;br&gt;peptide-aspartate beta-dioxygenase&lt;br&gt;Location: 258790 - 259381" id="dummy-2_q11_0_all" locus_tag="P773_RS0101470"  />
<polygon class="clusterblast-orf" style="stroke-width:1; stroke:black; fill:#156ed8; " points="164,40 166,40 171,35 166,30 164,30 164,40 " description="&lt;b&gt;P773_RS0101475&lt;/b&gt;&lt;br&gt;ribose 5-phosphate isomerase B&lt;br&gt;Location: 259382 - 259808" id="dummy-2_q12_0_all" locus_tag="P773_RS0101475"  />
<polygon class="clusterblast-orf" style="stroke-width:1; stroke:black; fill:#c715d8; " points="171,40 190,40 195,35 190,30 171,30 171,40 " description="&lt;b&gt;P773_RS0101480&lt;/b&gt;&lt;br&gt;serine hydroxymethyltransferase&lt;br&gt;Location: 259810 - 261118" id="dummy-2_q13_0_all" locus_tag="P773_RS0101480"  />
<polygon class="clusterblast-orf" style="stroke-width:1; stroke:black; fill:#d88015; " points="195,40 199,40 204,35 199,30 195,30 195,40 " description="&lt;b&gt;P773_RS0101485&lt;/b&gt;&lt;br&gt;transcriptional repressor NrdR&lt;br&gt;Location: 261120 - 261579" id="dummy-2_q14_0_all" locus_tag="P773_RS0101485"  />
<polygon class="clusterblast-orf" style="stroke-width:1; stroke:black; fill:#15d839; " points="203,40 218,40 223,35 218,30 203,30 203,40 " description="&lt;b&gt;P773_RS0101490&lt;/b&gt;&lt;br&gt;bifunctional diaminohydroxyphosphoribosylaminopyrimidine deaminase/5-amino-6-(5-phosphoribosylamino)uracil reductase RibD&lt;br&gt;Location: 261559 - 262666" id="dummy-2_q15_0_all" locus_tag="P773_RS0101490"  />
<polygon class="clusterblast-orf" style="stroke-width:1; stroke:black; fill:#1539d8; " points="223,40 229,40 234,35 229,30 223,30 223,40 " description="&lt;b&gt;P773_RS0101495&lt;/b&gt;&lt;br&gt;riboflavin synthase&lt;br&gt;Location: 262667 - 263261" id="dummy-2_q16_0_all" locus_tag="P773_RS0101495"  />
<polygon class="clusterblast-orf" style="stroke-width:1; stroke:black; fill:#d815b5; " points="234,40 249,40 254,35 249,30 234,30 234,40 " description="&lt;b&gt;P773_RS0101500&lt;/b&gt;&lt;br&gt;3,4-dihydroxy-2-butanone-4-phosphate synthase&lt;br&gt;Location: 263247 - 264348" id="dummy-2_q17_0_all" locus_tag="P773_RS0101500"  />
<polygon class="clusterblast-orf" style="stroke-width:1; stroke:black; fill:#d8b515; " points="254,40 256,40 261,35 256,30 254,30 254,40 " description="&lt;b&gt;P773_RS0101505&lt;/b&gt;&lt;br&gt;6,7-dimethyl-8-ribityllumazine synthase&lt;br&gt;Location: 264347 - 264737" id="dummy-2_q18_0_all" locus_tag="P773_RS0101505"  />
<polygon class="clusterblast-orf" style="stroke-width:1; stroke:black; fill:white; " points="261,40 263,40 268,35 263,30 261,30 261,40 " description="&lt;b&gt;P773_RS0101510&lt;/b&gt;&lt;br&gt;antitermination protein&lt;br&gt;Location: 264733 - 265138" id="dummy-2_q19_0_all" locus_tag="P773_RS0101510"  />
<polygon class="clusterblast-orf" style="stroke-width:1; stroke:black; fill:white; " points="268,40 281,40 286,35 281,30 268,30 268,40 " description="&lt;b&gt;P773_RS0101515&lt;/b&gt;&lt;br&gt;thiamine-phosphate kinase&lt;br&gt;Location: 265130 - 266090" id="dummy-2_q20_0_all" locus_tag="P773_RS0101515"  />
<polygon class="clusterblast-orf" style="stroke-width:1; stroke:black; fill:#15d86e; " points="287,40 320,40 325,35 320,30 287,30 287,40 " description="&lt;b&gt;P773_RS0101520&lt;/b&gt;&lt;br&gt;sodium-translocating pyrophosphatase&lt;br&gt;Location: 266168 - 268274" id="dummy-2_q21_0_all" locus_tag="P773_RS0101520"  />
<polygon class="clusterblast-orf" style="stroke-width:1; stroke:black; fill:white; " points="325,35 330,30 334,30 334,40 330,40 325,35 " description="&lt;b&gt;P773_RS0101525&lt;/b&gt;&lt;br&gt;outer membrane protein assembly factor BamE&lt;br&gt;Location: 268260 - 268746" id="dummy-2_q22_0_all" locus_tag="P773_RS0101525"  />
<polygon class="clusterblast-orf" style="stroke-width:1; stroke:black; fill:white; " points="334,40 337,40 342,35 337,30 334,30 334,40 " description="&lt;b&gt;P773_RS0101530&lt;/b&gt;&lt;br&gt;ubiquinol-cytochrome c reductase&lt;br&gt;Location: 268744 - 269212" id="dummy-2_q23_0_all" locus_tag="P773_RS0101530"  />
<polygon class="clusterblast-orf" style="stroke-width:1; stroke:black; fill:white; " points="342,40 346,35 342,30 342,40 " description="&lt;b&gt;P773_RS0101535&lt;/b&gt;&lt;br&gt;50S ribosomal protein L32&lt;br&gt;Location: 269214 - 269397" id="dummy-2_q24_0_all" locus_tag="P773_RS0101535"  />
<polygon class="clusterblast-orf" style="stroke-width:1; stroke:black; fill:#2715d8; " points="346,40 360,40 365,35 360,30 346,30 346,40 " description="&lt;b&gt;P773_RS0101540&lt;/b&gt;&lt;br&gt;phosphate acyltransferase PlsX&lt;br&gt;Location: 269426 - 270428" id="dummy-2_q25_0_all" locus_tag="P773_RS0101540"  />
<polygon class="clusterblast-orf" style="stroke-width:1; stroke:black; fill:#d81580; " points="365,40 365,40 370,35 365,30 365,30 365,40 " description="&lt;b&gt;P773_RS0101545&lt;/b&gt;&lt;br&gt;integration host factor subunit alpha&lt;br&gt;Location: 270432 - 270732" id="dummy-2_q26_0_all" locus_tag="P773_RS0101545"  />
<polygon class="clusterblast-orf" style="stroke-width:1; stroke:black; fill:#c7d815; " points="370,40 372,40 377,35 372,30 370,30 370,40 " description="&lt;b&gt;P773_RS0101550&lt;/b&gt;&lt;br&gt;transcriptional regulator&lt;br&gt;Location: 270721 - 271096" id="dummy-2_q27_0_all" locus_tag="P773_RS0101550"  />
<polygon class="clusterblast-orf" style="stroke-width:1; stroke:black; fill:white; " points="377,40 380,35 377,30 377,40 " description="&lt;b&gt;P773_RS0101555&lt;/b&gt;&lt;br&gt;50S ribosomal protein L33&lt;br&gt;Location: 271097 - 271289" id="dummy-2_q28_0_all" locus_tag="P773_RS0101555"  />
<polygon class="clusterblast-orf" style="stroke-width:1; stroke:black; fill:white; " points="380,35 385,30 385,30 385,40 385,40 380,35 " description="&lt;b&gt;P773_RS0101560&lt;/b&gt;&lt;br&gt;chorismate mutase&lt;br&gt;Location: 271289 - 271580" id="dummy-2_q29_0_all" locus_tag="P773_RS0101560"  />
<polygon class="clusterblast-orf" style="stroke-width:1; stroke:black; fill:#15d8a3; " points="386,40 400,40 405,35 400,30 386,30 386,40 " description="&lt;b&gt;P773_RS0101565&lt;/b&gt;&lt;br&gt;heme A synthase&lt;br&gt;Location: 271623 - 272655" id="dummy-2_q30_0_all" locus_tag="P773_RS0101565"  />
<polygon class="clusterblast-orf" style="stroke-width:1; stroke:black; fill:#5c15d8; " points="405,35 410,30 429,30 429,40 410,40 405,35 " description="&lt;b&gt;P773_RS0101570&lt;/b&gt;&lt;br&gt;O-acetylhomoserine aminocarboxypropyltransferase&lt;br&gt;Location: 272637 - 273966" id="dummy-2_q31_0_all" locus_tag="P773_RS0101570"  />
<polygon class="clusterblast-orf" style="stroke-width:1; stroke:black; fill:#d8154a; " points="433,40 436,40 441,35 436,30 433,30 433,40 " description="&lt;b&gt;P773_RS0101575&lt;/b&gt;&lt;br&gt;50S ribosomal protein L13&lt;br&gt;Location: 274173 - 274632" id="dummy-2_q32_0_all" locus_tag="P773_RS0101575"  />
<polygon class="clusterblast-orf" style="stroke-width:1; stroke:black; fill:#91d815; " points="441,40 444,40 449,35 444,30 441,30 441,40 " description="&lt;b&gt;P773_RS0101580&lt;/b&gt;&lt;br&gt;30S ribosomal protein S9&lt;br&gt;Location: 274633 - 275071" id="dummy-2_q33_0_all" locus_tag="P773_RS0101580"  />
<polygon class="clusterblast-orf" style="stroke-width:1; stroke:black; fill:white; " points="450,40 463,40 468,35 463,30 450,30 450,40 " description="&lt;b&gt;P773_RS0101585&lt;/b&gt;&lt;br&gt;N-acetyl-gamma-glutamyl-phosphate reductase&lt;br&gt;Location: 275104 - 276124" id="dummy-2_q34_0_all" locus_tag="P773_RS0101585"  />
<polygon class="clusterblast-orf" style="stroke-width:1; stroke:black; fill:white; " points="468,40 472,35 468,30 468,40 " description="&lt;b&gt;P773_RS0101590&lt;/b&gt;&lt;br&gt;hypothetical protein&lt;br&gt;Location: 276123 - 276351" id="dummy-2_q35_0_all" locus_tag="P773_RS0101590"  />
<polygon class="clusterblast-orf" style="stroke-width:1; stroke:black; fill:#15d8d8; " points="472,40 491,40 496,35 491,30 472,30 472,40 " description="&lt;b&gt;P773_RS0101595&lt;/b&gt;&lt;br&gt;homoserine dehydrogenase&lt;br&gt;Location: 276347 - 277640" id="dummy-2_q36_0_all" locus_tag="P773_RS0101595"  />
<polygon class="clusterblast-orf" style="stroke-width:1; stroke:black; fill:white; " points="496,40 507,40 512,35 507,30 496,30 496,40 " description="&lt;b&gt;P773_RS0101600&lt;/b&gt;&lt;br&gt;transporter&lt;br&gt;Location: 277642 - 278545" id="dummy-2_q37_0_all" locus_tag="P773_RS0101600"  />
<polygon class="clusterblast-orf" style="stroke-width:1; stroke:black; fill:white; " points="513,40 523,40 528,35 523,30 513,30 513,40 " description="&lt;b&gt;P773_RS0101605&lt;/b&gt;&lt;br&gt;EamA/RhaT family transporter&lt;br&gt;Location: 278562 - 279417" id="dummy-2_q38_0_all" locus_tag="P773_RS0101605"  />
<polygon class="clusterblast-orf" style="stroke-width:1; stroke:black; fill:white; " points="538,35 543,30 543,30 543,40 543,40 538,35 " description="&lt;b&gt;P773_RS0101610&lt;/b&gt;&lt;br&gt;methylated-DNA--[protein]-cysteine S-methyltransferase&lt;br&gt;Location: 279957 - 280242" id="dummy-2_q39_0_all" locus_tag="P773_RS0101610"  />
<polygon class="clusterblast-orf" style="stroke-width:1; stroke:black; fill:white; " points="543,35 548,30 551,30 551,40 548,40 543,35 " description="&lt;b&gt;P773_RS0101615&lt;/b&gt;&lt;br&gt;N-acetyltransferase&lt;br&gt;Location: 280213 - 280651" id="dummy-2_q40_0_all" locus_tag="P773_RS0101615"  />
<polygon class="clusterblast-orf" style="stroke-width:1; stroke:black; fill:white; " points="551,35 556,30 560,30 560,40 556,40 551,35 " description="&lt;b&gt;P773_RS0101620&lt;/b&gt;&lt;br&gt;DUF2938 domain-containing protein&lt;br&gt;Location: 280694 - 281189" id="dummy-2_q41_0_all" locus_tag="P773_RS0101620"  />
<polygon class="clusterblast-orf" style="stroke-width:1; stroke:black; fill:white; " points="566,40 578,40 583,35 578,30 566,30 566,40 " description="&lt;b&gt;P773_RS0101630&lt;/b&gt;&lt;br&gt;integrase&lt;br&gt;Location: 281485 - 282442" id="dummy-2_q42_0_all" locus_tag="P773_RS0101630"  />
<polygon class="clusterblast-orf" style="stroke-width:1; stroke:black; fill:white; " points="583,35 588,30 602,30 602,40 588,40 583,35 " description="&lt;b&gt;P773_RS0101635&lt;/b&gt;&lt;br&gt;glycosyl transferase family 1&lt;br&gt;Location: 282448 - 283489" id="dummy-2_q43_0_all" locus_tag="P773_RS0101635"  />
<polygon class="clusterblast-orf" style="stroke-width:1; stroke:black; fill:white; " points="602,35 606,30 606,40 602,35 " description="&lt;b&gt;P773_RS0101640&lt;/b&gt;&lt;br&gt;excinuclease ABC subunit C&lt;br&gt;Location: 283460 - 283718" id="dummy-2_q44_0_all" locus_tag="P773_RS0101640"  />
<polygon class="clusterblast-orf" style="stroke-width:1; stroke:black; fill:white; " points="609,35 614,30 640,30 640,40 614,40 609,35 " description="&lt;b&gt;P773_RS0101650&lt;/b&gt;&lt;br&gt;single-stranded-DNA-specific exonuclease RecJ&lt;br&gt;Location: 283864 - 285559" id="dummy-2_q45_0_all" locus_tag="P773_RS0101650"  />
<polygon class="clusterblast-orf" style="stroke-width:1; stroke:black; fill:white; " points="640,35 645,30 657,30 657,40 645,40 640,35 " description="&lt;b&gt;P773_RS0101655&lt;/b&gt;&lt;br&gt;fructose-bisphosphatase class II&lt;br&gt;Location: 285555 - 286503" id="dummy-2_q46_0_all" locus_tag="P773_RS0101655"  />
<polygon class="clusterblast-orf" style="stroke-width:1; stroke:black; fill:white; " points="657,35 662,30 675,30 675,40 662,40 657,35 " description="&lt;b&gt;P773_RS0101660&lt;/b&gt;&lt;br&gt;hypothetical protein&lt;br&gt;Location: 286502 - 287495" id="dummy-2_q47_0_all" locus_tag="P773_RS0101660"  />
<polygon class="clusterblast-orf" style="stroke-width:1; stroke:black; fill:white; " points="675,35 680,30 680,30 680,40 680,40 675,35 " description="&lt;b&gt;P773_RS0101665&lt;/b&gt;&lt;br&gt;hypothetical protein&lt;br&gt;Location: 287498 - 287780" id="dummy-2_q48_0_all" locus_tag="P773_RS0101665"  />
<polygon class="clusterblast-orf" style="stroke-width:1; stroke:black; fill:white; " points="683,40 687,40 692,35 687,30 683,30 683,40 " description="&lt;b&gt;P773_RS0101675&lt;/b&gt;&lt;br&gt;hypothetical protein&lt;br&gt;Location: 287957 - 288446" id="dummy-2_q49_0_all" locus_tag="P773_RS0101675"  />
<polygon class="clusterblast-orf" style="stroke-width:1; stroke:black; fill:white; " points="692,40 709,40 714,35 709,30 692,30 692,40 " description="&lt;b&gt;P773_RS0101680&lt;/b&gt;&lt;br&gt;Na+/H+ antiporter NhaA&lt;br&gt;Location: 288452 - 289634" id="dummy-2_q50_0_all" locus_tag="P773_RS0101680"  />
<polygon class="clusterblast-orf" style="stroke-width:1; stroke:black; fill:white; " points="714,40 719,40 724,35 719,30 714,30 714,40 " description="&lt;b&gt;P773_RS0101685&lt;/b&gt;&lt;br&gt;glutathione peroxidase&lt;br&gt;Location: 289663 - 290173" id="dummy-2_q51_0_all" locus_tag="P773_RS0101685"  />
<polygon class="clusterblast-orf" style="stroke-width:1; stroke:black; fill:white; " points="724,35 729,30 738,30 738,40 729,40 724,35 " description="&lt;b&gt;P773_RS0101690&lt;/b&gt;&lt;br&gt;MBL fold hydrolase&lt;br&gt;Location: 290167 - 290944" id="dummy-2_q52_0_all" locus_tag="P773_RS0101690"  />
<polygon class="clusterblast-orf" style="stroke-width:1; stroke:black; fill:white; " points="738,35 743,30 752,30 752,40 743,40 738,35 " description="&lt;b&gt;P773_RS0101695&lt;/b&gt;&lt;br&gt;TatD family deoxyribonuclease&lt;br&gt;Location: 290951 - 291713" id="dummy-2_q53_0_all" locus_tag="P773_RS0101695"  />
<polygon class="clusterblast-orf" style="stroke-width:1; stroke:black; fill:white; " points="752,35 757,30 780,30 780,40 757,40 752,35 " description="&lt;b&gt;P773_RS0101700&lt;/b&gt;&lt;br&gt;methionine--tRNA ligase&lt;br&gt;Location: 291705 - 293247" id="dummy-2_q54_0_all" locus_tag="P773_RS0101700"  />
</g>
<g label="NZ_KB915634" class="clusterblast-cluster" description="NZ_KB915634_c2: Bartonella vinsonii subsp. berkhoffii str. Tweed scaffold05, ... (15% of genes show similarity), arylpolyene"  >
<text class="clusterblast-acc" y="70" x="5"  >
<a xlink:href="https://antismash-db.secondarymetabolites.org/go/NZ_KB915634/2" target="_blank">NZ_KB915634_c2</a>: Bartonella vinsonii subsp. berkhoffii str. Tweed scaffold05, ... (15% of genes show similarity), arylpolyene</text>
<line style="stroke-width:1; stroke:grey; " y1="85" x2="778.0" y2="85" x1="10"  />
</g>
<g id="a2_000"  >
<polygon class="clusterblast-orf" style="stroke-width:1; stroke:black; fill:white; " points="72,90 78,90 83,85 78,80 72,80 72,90 " description="&lt;b&gt;BVTW_RS04480&lt;/b&gt;&lt;br&gt;hypothetical protein&lt;br&gt;Location: 182 - 787" id="dummy-2_h2_7_0" locus_tag="BVTW_RS04480"  />
</g>
<g id="a2_001"  >
<polygon class="clusterblast-orf" style="stroke-width:1; stroke:black; fill:white; " points="89,90 102,90 107,85 102,80 89,80 89,90 " description="&lt;b&gt;BVTW_RS04485&lt;/b&gt;&lt;br&gt;transposase&lt;br&gt;Location: 1092 - 2120" id="dummy-2_h2_7_1" locus_tag="BVTW_RS04485"  />
</g>
<g id="a2_002"  >
<polygon class="clusterblast-orf" style="stroke-width:1; stroke:black; fill:white; " points="107,90 107,90 112,85 107,80 107,80 107,90 " description="&lt;b&gt;BVTW_RS04490&lt;/b&gt;&lt;br&gt;hypothetical protein&lt;br&gt;Location: 2117 - 2401" id="dummy-2_h2_7_2" locus_tag="BVTW_RS04490"  />
</g>
<g id="a2_003"  >
<polygon class="clusterblast-orf" style="stroke-width:1; stroke:black; fill:white; " points="112,90 112,90 117,85 112,80 112,80 112,90 " description="&lt;b&gt;BVTW_RS04495&lt;/b&gt;&lt;br&gt;hypothetical protein&lt;br&gt;Location: 2398 - 2676" id="dummy-2_h2_7_3" locus_tag="BVTW_RS04495"  />
</g>
<g id="a2_004"  >
<polygon class="clusterblast-orf" style="stroke-width:1; stroke:black; fill:white; " points="117,90 123,90 128,85 123,80 117,80 117,90 " description="&lt;b&gt;BVTW_RS04500&lt;/b&gt;&lt;br&gt;DUF3164 domain-containing protein&lt;br&gt;Location: 2660 - 3283" id="dummy-2_h2_7_4" locus_tag="BVTW_RS04500"  />
</g>
<g id="a2_005"  >
<polygon class="clusterblast-orf" style="stroke-width:1; stroke:black; fill:white; " points="129,90 135,90 140,85 135,80 129,80 129,90 " description="&lt;b&gt;BVTW_RS04505&lt;/b&gt;&lt;br&gt;regulatory protein GemA&lt;br&gt;Location: 3296 - 3928" id="dummy-2_h2_7_5" locus_tag="BVTW_RS04505"  />
</g>
<g id="a2_006"  >
<polygon class="clusterblast-orf" style="stroke-width:1; stroke:black; fill:white; " points="141,90 167,90 172,85 167,80 141,80 141,90 " description="&lt;b&gt;BVTW_RS04510&lt;/b&gt;&lt;br&gt;phage tail tape measure protein&lt;br&gt;Location: 3971 - 5685" id="dummy-2_h2_7_6" locus_tag="BVTW_RS04510"  />
</g>
<g id="a2_007"  >
<polygon class="clusterblast-orf" style="stroke-width:1; stroke:black; fill:white; " points="173,90 176,90 181,85 176,80 173,80 173,90 " description="&lt;b&gt;BVTW_RS04515&lt;/b&gt;&lt;br&gt;phage tail protein U&lt;br&gt;Location: 5716 - 6147" id="dummy-2_h2_7_7" locus_tag="BVTW_RS04515"  />
</g>
<g id="a2_008"  >
<polygon class="clusterblast-orf" style="stroke-width:1; stroke:black; fill:white; " points="181,90 181,90 186,85 181,80 181,80 181,90 " description="&lt;b&gt;BVTW_RS04520&lt;/b&gt;&lt;br&gt;phage tail protein X&lt;br&gt;Location: 6174 - 6428" id="dummy-2_h2_7_8" locus_tag="BVTW_RS04520"  />
</g>
<g id="a2_009"  >
<polygon class="clusterblast-orf" style="stroke-width:1; stroke:black; fill:white; " points="186,90 199,90 204,85 199,80 186,80 186,90 " description="&lt;b&gt;BVTW_RS04525&lt;/b&gt;&lt;br&gt;late control protein&lt;br&gt;Location: 6428 - 7416" id="dummy-2_h2_7_9" locus_tag="BVTW_RS04525"  />
</g>
<g id="a2_0010"  >
<polygon class="clusterblast-orf" style="stroke-width:1; stroke:black; fill:white; " points="206,90 216,90 221,85 216,80 206,80 206,90 " description="&lt;b&gt;BVTW_RS04530&lt;/b&gt;&lt;br&gt;DNA methyltransferase&lt;br&gt;Location: 7558 - 8375" id="dummy-2_h2_7_10" locus_tag="BVTW_RS04530"  />
</g>
<g id="a2_0011"  >
<polygon class="clusterblast-orf" style="stroke-width:1; stroke:black; fill:white; " points="240,90 242,90 247,85 242,80 240,80 240,90 " description="&lt;b&gt;BVTW_RS04540&lt;/b&gt;&lt;br&gt;iron-sulfur cluster assembly accessory protein&lt;br&gt;Location: 9427 - 9804" id="dummy-2_h2_7_11" locus_tag="BVTW_RS04540"  />
</g>
<g id="a2_0012"  >
<polygon class="clusterblast-orf" style="stroke-width:1; stroke:black; fill:white; " points="247,85 252,80 263,80 263,90 252,90 247,85 " description="&lt;b&gt;BVTW_RS04545&lt;/b&gt;&lt;br&gt;nucleoside triphosphate pyrophosphohydrolase&lt;br&gt;Location: 9807 - 10698" id="dummy-2_h2_7_12" locus_tag="BVTW_RS04545"  />
</g>
<g id="a2_0013"  >
<polygon class="clusterblast-orf" style="stroke-width:1; stroke:black; fill:white; " points="264,85 269,80 281,80 281,90 269,90 264,85 " description="&lt;b&gt;BVTW_RS04550&lt;/b&gt;&lt;br&gt;lipid A biosynthesis lauroyl acyltransferase&lt;br&gt;Location: 10729 - 11658" id="dummy-2_h2_7_13" locus_tag="BVTW_RS04550"  />
</g>
<g id="a2_0014"  >
<polygon class="clusterblast-orf" style="stroke-width:1; stroke:black; fill:white; " points="281,85 286,80 300,80 300,90 286,90 281,85 " description="&lt;b&gt;BVTW_RS04555&lt;/b&gt;&lt;br&gt;alcohol dehydrogenase&lt;br&gt;Location: 11665 - 12693" id="dummy-2_h2_7_14" locus_tag="BVTW_RS04555"  />
</g>
<g id="a2_0015"  >
<polygon class="clusterblast-orf" style="stroke-width:1; stroke:black; fill:white; " points="301,85 306,80 324,80 324,90 306,90 301,85 " description="&lt;b&gt;BVTW_RS04560&lt;/b&gt;&lt;br&gt;beta-ketoacyl-ACP synthase II&lt;br&gt;Location: 12762 - 14036" id="dummy-2_h2_7_15" locus_tag="BVTW_RS04560"  />
</g>
<g id="a2_0016"  >
<polygon class="clusterblast-orf" style="stroke-width:1; stroke:black; fill:white; " points="324,85 329,80 346,80 346,90 329,90 324,85 " description="&lt;b&gt;BVTW_RS04565&lt;/b&gt;&lt;br&gt;beta-ketoacyl-ACP synthase II&lt;br&gt;Location: 14051 - 15226" id="dummy-2_h2_7_16" locus_tag="BVTW_RS04565"  />
</g>
<g id="a2_0017"  >
<polygon class="clusterblast-orf" style="stroke-width:1; stroke:black; fill:white; " points="346,85 351,80 351,80 351,90 351,90 346,85 " description="&lt;b&gt;BVTW_RS04570&lt;/b&gt;&lt;br&gt;acyl carrier protein&lt;br&gt;Location: 15239 - 15523" id="dummy-2_h2_7_17" locus_tag="BVTW_RS04570"  />
</g>
<g id="a2_0018"  >
<polygon class="clusterblast-orf" style="stroke-width:1; stroke:black; fill:white; " points="355,85 360,80 397,80 397,90 360,90 355,85 " description="&lt;b&gt;BVTW_RS04575&lt;/b&gt;&lt;br&gt;NADP-dependent malic enzyme&lt;br&gt;Location: 15719 - 18037" id="dummy-2_h2_7_18" locus_tag="BVTW_RS04575"  />
</g>
<g id="a2_0019"  >
<polygon class="clusterblast-orf" style="stroke-width:1; stroke:black; fill:white; " points="410,85 415,80 494,80 494,90 415,90 410,85 " description="&lt;b&gt;BVTW_RS04580&lt;/b&gt;&lt;br&gt;hypothetical protein&lt;br&gt;Location: 18779 - 23356" id="dummy-2_h2_7_19" locus_tag="BVTW_RS04580"  />
</g>
<g id="a2_0020"  >
<polygon class="clusterblast-orf" style="stroke-width:1; stroke:black; fill:white; " points="504,90 508,85 504,80 504,90 " description="&lt;b&gt;BVTW_RS04585&lt;/b&gt;&lt;br&gt;RNA chaperone Hfq&lt;br&gt;Location: 23926 - 24165" id="dummy-2_h2_7_20" locus_tag="BVTW_RS04585"  />
</g>
<g id="a2_0021"  >
<polygon class="clusterblast-orf" style="stroke-width:1; stroke:black; fill:white; " points="509,90 529,90 534,85 529,80 509,80 509,90 " description="&lt;b&gt;BVTW_RS04590&lt;/b&gt;&lt;br&gt;GTPase HflX&lt;br&gt;Location: 24222 - 25565" id="dummy-2_h2_7_21" locus_tag="BVTW_RS04590"  />
</g>
<g id="a2_0022"  >
<polygon class="clusterblast-orf" style="stroke-width:1; stroke:black; fill:white; " points="536,90 564,90 569,85 564,80 536,80 536,90 " description="&lt;b&gt;BVTW_RS04595&lt;/b&gt;&lt;br&gt;membrane protein&lt;br&gt;Location: 25707 - 27476" id="dummy-2_h2_7_22" locus_tag="BVTW_RS04595"  />
</g>
<g id="a2_0023"  >
<polygon class="clusterblast-orf" style="stroke-width:1; stroke:black; fill:#15d8a3; " points="571,90 586,90 591,85 586,80 571,80 571,90 " description="&lt;b&gt;BVTW_RS04600&lt;/b&gt;&lt;br&gt;heme A synthase&lt;br&gt;Location: 27602 - 28693&lt;br&gt;&lt;br&gt;&lt;b&gt;BlastP hit with P773_RS0101565&lt;/b&gt;&lt;br&gt;Percentage identity: 41&lt;br&gt;Percentage coverage: 93&lt;br&gt;BLAST bit score: 212&lt;br&gt;E-value: 1.1e-52" id="dummy-2_h2_7_23" locus_tag="BVTW_RS04600"  />
</g>
<g id="a2_0024"  >
<polygon class="clusterblast-orf" style="stroke-width:1; stroke:black; fill:white; " points="591,85 596,80 608,80 608,90 596,90 591,85 " description="&lt;b&gt;BVTW_RS04605&lt;/b&gt;&lt;br&gt;N-acetyl-gamma-glutamyl-phosphate reductase&lt;br&gt;Location: 28710 - 29645" id="dummy-2_h2_7_24" locus_tag="BVTW_RS04605"  />
</g>
<g id="a2_0025"  >
<polygon class="clusterblast-orf" style="stroke-width:1; stroke:black; fill:white; " points="609,85 613,80 613,90 609,85 " description="&lt;b&gt;BVTW_RS04610&lt;/b&gt;&lt;br&gt;hypothetical protein&lt;br&gt;Location: 29699 - 29932" id="dummy-2_h2_7_25" locus_tag="BVTW_RS04610"  />
</g>
<g id="a2_0026"  >
<polygon class="clusterblast-orf" style="stroke-width:1; stroke:black; fill:#c715d8; " points="614,90 633,90 638,85 633,80 614,80 614,90 " description="&lt;b&gt;BVTW_RS04615&lt;/b&gt;&lt;br&gt;serine hydroxymethyltransferase&lt;br&gt;Location: 29989 - 31302&lt;br&gt;&lt;br&gt;&lt;b&gt;BlastP hit with P773_RS0101480&lt;/b&gt;&lt;br&gt;Percentage identity: 63&lt;br&gt;Percentage coverage: 99&lt;br&gt;BLAST bit score: 543&lt;br&gt;E-value: 1.9e-152" id="dummy-2_h2_7_26" locus_tag="BVTW_RS04615"  />
</g>
<g id="a2_0027"  >
<polygon class="clusterblast-orf" style="stroke-width:1; stroke:black; fill:#d88015; " points="638,90 642,90 647,85 642,80 638,80 638,90 " description="&lt;b&gt;BVTW_RS04620&lt;/b&gt;&lt;br&gt;transcriptional repressor NrdR&lt;br&gt;Location: 31316 - 31801&lt;br&gt;&lt;br&gt;&lt;b&gt;BlastP hit with P773_RS0101485&lt;/b&gt;&lt;br&gt;Percentage identity: 59&lt;br&gt;Percentage coverage: 97&lt;br&gt;BLAST bit score: 165&lt;br&gt;E-value: 3.9e-39" id="dummy-2_h2_7_27" locus_tag="BVTW_RS04620"  />
</g>
<g id="a2_0028"  >
<polygon class="clusterblast-orf" style="stroke-width:1; stroke:black; fill:#15d839; " points="647,90 663,90 668,85 663,80 647,80 647,90 " description="&lt;b&gt;BVTW_RS04625&lt;/b&gt;&lt;br&gt;bifunctional diaminohydroxyphosphoribosylaminopyrimidine deaminase/5-amino-6-(5-phosphoribosylamino)uracil reductase RibD&lt;br&gt;Location: 31794 - 32921&lt;br&gt;&lt;br&gt;&lt;b&gt;BlastP hit with P773_RS0101490&lt;/b&gt;&lt;br&gt;Percentage identity: 37&lt;br&gt;Percentage coverage: 90&lt;br&gt;BLAST bit score: 182&lt;br&gt;E-value: 7.4e-44" id="dummy-2_h2_7_28" locus_tag="BVTW_RS04625"  />
</g>
<g id="a2_0029"  >
<polygon class="clusterblast-orf" style="stroke-width:1; stroke:black; fill:white; " points="667,90 674,90 679,85 674,80 667,80 667,90 " description="&lt;b&gt;BVTW_RS04630&lt;/b&gt;&lt;br&gt;riboflavin synthase&lt;br&gt;Location: 32903 - 33520" id="dummy-2_h2_7_29" locus_tag="BVTW_RS04630"  />
</g>
<g id="a2_0030"  >
<polygon class="clusterblast-orf" style="stroke-width:1; stroke:black; fill:#d8b515; " points="680,90 683,90 688,85 683,80 680,80 680,90 " description="&lt;b&gt;BVTW_RS04635&lt;/b&gt;&lt;br&gt;6,7-dimethyl-8-ribityllumazine synthase&lt;br&gt;Location: 33598 - 34050&lt;br&gt;&lt;br&gt;&lt;b&gt;BlastP hit with P773_RS0101505&lt;/b&gt;&lt;br&gt;Percentage identity: 43&lt;br&gt;Percentage coverage: 105&lt;br&gt;BLAST bit score: 98&lt;br&gt;E-value: 4.9e-19" id="dummy-2_h2_7_30" locus_tag="BVTW_RS04635"  />
</g>
<g id="a2_0031"  >
<polygon class="clusterblast-orf" style="stroke-width:1; stroke:black; fill:white; " points="688,90 692,90 697,85 692,80 688,80 688,90 " description="&lt;b&gt;BVTW_RS04640&lt;/b&gt;&lt;br&gt;transcription antitermination factor NusB&lt;br&gt;Location: 34053 - 34523" id="dummy-2_h2_7_31" locus_tag="BVTW_RS04640"  />
</g>
<g id="a2_0032"  >
<polygon class="clusterblast-orf" style="stroke-width:1; stroke:black; fill:white; " points="698,85 703,80 707,80 707,90 703,90 698,85 " description="&lt;b&gt;BVTW_RS04645&lt;/b&gt;&lt;br&gt;outer membrane protein assembly factor BamE&lt;br&gt;Location: 34601 - 35080" id="dummy-2_h2_7_32" locus_tag="BVTW_RS04645"  />
</g>
</svg>
