<svg version="1.1" preserveAspectRatio="none" width="800" y="0" xmlns:xlink="http://www.w3.org/1999/xlink" height="230" x="0" xmlns="http://www.w3.org/2000/svg" viewBox="0 0 800 230"  >
<g label="Query sequence" class="clusterblast-cluster"  >
<text class="clusterblast-acc" y="20" x="5"  >
Query sequence</text>
<line style="stroke-width:1; stroke:grey; " y1="35" x2="778.0" y2="35" x1="10"  />
<polygon class="clusterblast-orf" style="stroke-width:1; stroke:black; fill:white; " points="0,40 12,40 17,35 12,30 0,30 0,40 " description="&lt;b&gt;P773_RS0100420&lt;/b&gt;&lt;br&gt;aspartate aminotransferase family protein&lt;br&gt;Location: 65229 - 66576" id="dummy-1_q0_0_all" locus_tag="P773_RS0100420"  />
<polygon class="clusterblast-orf" style="stroke-width:1; stroke:black; fill:#d81515; " points="17,40 27,40 32,35 27,30 17,30 17,40 " description="&lt;b&gt;P773_RS0100425&lt;/b&gt;&lt;br&gt;alanine dehydrogenase&lt;br&gt;Location: 66608 - 67724" id="dummy-1_q1_0_all" locus_tag="P773_RS0100425"  />
<polygon class="clusterblast-orf" style="stroke-width:1; stroke:black; fill:white; " points="32,40 40,40 45,35 40,30 32,30 32,40 " description="&lt;b&gt;P773_RS0100430&lt;/b&gt;&lt;br&gt;NAD-dependent dehydratase&lt;br&gt;Location: 67758 - 68769" id="dummy-1_q2_0_all" locus_tag="P773_RS0100430"  />
<polygon class="clusterblast-orf" style="stroke-width:1; stroke:black; fill:white; " points="50,40 53,40 58,35 53,30 50,30 50,40 " description="&lt;b&gt;P773_RS0100435&lt;/b&gt;&lt;br&gt;methyltransferase domain-containing protein&lt;br&gt;Location: 69104 - 69731" id="dummy-1_q3_0_all" locus_tag="P773_RS0100435"  />
<polygon class="clusterblast-orf" style="stroke-width:1; stroke:black; fill:white; " points="58,35 63,30 64,30 64,40 63,40 58,35 " description="&lt;b&gt;P773_RS0100440&lt;/b&gt;&lt;br&gt;hypothetical protein&lt;br&gt;Location: 69733 - 70186" id="dummy-1_q4_0_all" locus_tag="P773_RS0100440"  />
<polygon class="clusterblast-orf" style="stroke-width:1; stroke:black; fill:white; " points="64,40 98,40 103,35 98,30 64,30 64,40 " description="&lt;b&gt;P773_RS0100445&lt;/b&gt;&lt;br&gt;hypothetical protein&lt;br&gt;Location: 70171 - 73210" id="dummy-1_q5_0_all" locus_tag="P773_RS0100445"  />
<polygon class="clusterblast-orf" style="stroke-width:1; stroke:black; fill:white; " points="103,40 115,40 120,35 115,30 103,30 103,40 " description="&lt;b&gt;P773_RS0100450&lt;/b&gt;&lt;br&gt;hypothetical protein&lt;br&gt;Location: 73212 - 74544" id="dummy-1_q6_0_all" locus_tag="P773_RS0100450"  />
<polygon class="clusterblast-orf" style="stroke-width:1; stroke:black; fill:white; " points="120,35 125,30 135,30 135,40 125,40 120,35 " description="&lt;b&gt;P773_RS0100455&lt;/b&gt;&lt;br&gt;hypothetical protein&lt;br&gt;Location: 74533 - 75652" id="dummy-1_q7_0_all" locus_tag="P773_RS0100455"  />
<polygon class="clusterblast-orf" style="stroke-width:1; stroke:black; fill:white; " points="137,40 160,40 165,35 160,30 137,30 137,40 " description="&lt;b&gt;P773_RS0100460&lt;/b&gt;&lt;br&gt;hypothetical protein&lt;br&gt;Location: 75861 - 78003" id="dummy-1_q8_0_all" locus_tag="P773_RS0100460"  />
<polygon class="clusterblast-orf" style="stroke-width:1; stroke:black; fill:#33d815; " points="165,40 178,40 183,35 178,30 165,30 165,40 " description="&lt;b&gt;P773_RS07810&lt;/b&gt;&lt;br&gt;hypothetical protein&lt;br&gt;Location: 78006 - 79419" id="dummy-1_q9_0_all" locus_tag="P773_RS07810"  />
<polygon class="clusterblast-orf" style="stroke-width:1; stroke:black; fill:white; " points="185,40 202,40 207,35 202,30 185,30 185,40 " description="&lt;b&gt;P773_RS0100470&lt;/b&gt;&lt;br&gt;hypothetical protein&lt;br&gt;Location: 79512 - 81273" id="dummy-1_q10_0_all" locus_tag="P773_RS0100470"  />
<polygon class="clusterblast-orf" style="stroke-width:1; stroke:black; fill:#15abd8; " points="208,40 215,40 220,35 215,30 208,30 208,40 " description="&lt;b&gt;P773_RS0100475&lt;/b&gt;&lt;br&gt;glycosyltransferase family 2 protein&lt;br&gt;Location: 81336 - 82230" id="dummy-1_q11_0_all" locus_tag="P773_RS0100475"  />
<polygon class="clusterblast-orf" style="stroke-width:1; stroke:black; fill:white; " points="220,35 225,30 243,30 243,40 225,40 220,35 " description="&lt;b&gt;P773_RS0100480&lt;/b&gt;&lt;br&gt;asparagine synthase (glutamine-hydrolyzing)&lt;br&gt;Location: 82231 - 84034" id="dummy-1_q12_0_all" locus_tag="P773_RS0100480"  />
<polygon class="clusterblast-orf" style="stroke-width:1; stroke:black; fill:#8d15d8; " points="243,35 248,30 258,30 258,40 248,40 243,35 " description="&lt;b&gt;P773_RS0100485&lt;/b&gt;&lt;br&gt;hypothetical protein&lt;br&gt;Location: 84021 - 85218" id="dummy-1_q13_0_all" locus_tag="P773_RS0100485"  />
<polygon class="clusterblast-orf" style="stroke-width:1; stroke:black; fill:white; " points="259,35 264,30 275,30 275,40 264,40 259,35 " description="&lt;b&gt;P773_RS0100490&lt;/b&gt;&lt;br&gt;hypothetical protein&lt;br&gt;Location: 85244 - 86516" id="dummy-1_q14_0_all" locus_tag="P773_RS0100490"  />
<polygon class="clusterblast-orf" style="stroke-width:1; stroke:black; fill:white; " points="275,35 280,30 290,30 290,40 280,40 275,35 " description="&lt;b&gt;P773_RS0100495&lt;/b&gt;&lt;br&gt;hypothetical protein&lt;br&gt;Location: 86505 - 87684" id="dummy-1_q15_0_all" locus_tag="P773_RS0100495"  />
<polygon class="clusterblast-orf" style="stroke-width:1; stroke:black; fill:white; " points="291,35 296,30 304,30 304,40 296,40 291,35 " description="&lt;b&gt;P773_RS0100500&lt;/b&gt;&lt;br&gt;hypothetical protein&lt;br&gt;Location: 87725 - 88754" id="dummy-1_q16_0_all" locus_tag="P773_RS0100500"  />
<polygon class="clusterblast-orf" style="stroke-width:1; stroke:black; fill:#d86f15; " points="304,35 309,30 318,30 318,40 309,40 304,35 " description="&lt;b&gt;P773_RS0100505&lt;/b&gt;&lt;br&gt;glycosyltransferase family 1 protein&lt;br&gt;Location: 88759 - 89845" id="dummy-1_q17_0_all" locus_tag="P773_RS0100505"  />
<polygon class="clusterblast-orf" style="stroke-width:1; stroke:black; fill:white; " points="318,35 323,30 338,30 338,40 323,40 318,35 " description="&lt;b&gt;P773_RS0100510&lt;/b&gt;&lt;br&gt;hypothetical protein&lt;br&gt;Location: 89834 - 91379" id="dummy-1_q18_0_all" locus_tag="P773_RS0100510"  />
<polygon class="clusterblast-orf" style="stroke-width:1; stroke:black; fill:white; " points="338,35 343,30 354,30 354,40 343,40 338,35 " description="&lt;b&gt;P773_RS0100515&lt;/b&gt;&lt;br&gt;hypothetical protein&lt;br&gt;Location: 91398 - 92574" id="dummy-1_q19_0_all" locus_tag="P773_RS0100515"  />
<polygon class="clusterblast-orf" style="stroke-width:1; stroke:black; fill:#15d851; " points="354,35 359,30 363,30 363,40 359,40 354,35 " description="&lt;b&gt;P773_RS0100520&lt;/b&gt;&lt;br&gt;FkbM family methyltransferase&lt;br&gt;Location: 92566 - 93286" id="dummy-1_q20_0_all" locus_tag="P773_RS0100520"  />
<polygon class="clusterblast-orf" style="stroke-width:1; stroke:black; fill:white; " points="364,35 369,30 374,30 374,40 369,40 364,35 " description="&lt;b&gt;P773_RS0100525&lt;/b&gt;&lt;br&gt;glycosyltransferase&lt;br&gt;Location: 93379 - 94117" id="dummy-1_q21_0_all" locus_tag="P773_RS0100525"  />
<polygon class="clusterblast-orf" style="stroke-width:1; stroke:black; fill:white; " points="374,35 379,30 384,30 384,40 379,40 374,35 " description="&lt;b&gt;P773_RS0100530&lt;/b&gt;&lt;br&gt;hypothetical protein&lt;br&gt;Location: 94123 - 94930" id="dummy-1_q22_0_all" locus_tag="P773_RS0100530"  />
<polygon class="clusterblast-orf" style="stroke-width:1; stroke:black; fill:white; " points="384,35 389,30 402,30 402,40 389,40 384,35 " description="&lt;b&gt;P773_RS0100535&lt;/b&gt;&lt;br&gt;hypothetical protein&lt;br&gt;Location: 94935 - 96273" id="dummy-1_q23_0_all" locus_tag="P773_RS0100535"  />
<polygon class="clusterblast-orf" style="stroke-width:1; stroke:black; fill:#1551d8; " points="403,35 408,30 411,30 411,40 408,40 403,35 " description="&lt;b&gt;P773_RS07710&lt;/b&gt;&lt;br&gt;SIS domain-containing protein&lt;br&gt;Location: 96376 - 97003" id="dummy-1_q24_0_all" locus_tag="P773_RS07710"  />
<polygon class="clusterblast-orf" style="stroke-width:1; stroke:black; fill:#d815c9; " points="412,40 420,40 425,35 420,30 412,30 412,40 " description="&lt;b&gt;P773_RS0100545&lt;/b&gt;&lt;br&gt;hypothetical protein&lt;br&gt;Location: 97112 - 98084" id="dummy-1_q25_0_all" locus_tag="P773_RS0100545"  />
<polygon class="clusterblast-orf" style="stroke-width:1; stroke:black; fill:#d8c915; " points="425,40 436,40 441,35 436,30 425,30 425,40 " description="&lt;b&gt;P773_RS0100550&lt;/b&gt;&lt;br&gt;hypothetical protein&lt;br&gt;Location: 98083 - 99334" id="dummy-1_q26_0_all" locus_tag="P773_RS0100550"  />
<polygon class="clusterblast-orf" style="stroke-width:1; stroke:black; fill:#15d8ab; " points="442,40 449,40 454,35 449,30 442,30 442,40 " description="&lt;b&gt;P773_RS0100555&lt;/b&gt;&lt;br&gt;hypothetical protein&lt;br&gt;Location: 99373 - 100339" id="dummy-1_q27_0_all" locus_tag="P773_RS0100555"  />
<polygon class="clusterblast-orf" style="stroke-width:1; stroke:black; fill:#d815c9; " points="456,35 461,30 469,30 469,40 461,40 456,35 " description="&lt;b&gt;P773_RS0100560&lt;/b&gt;&lt;br&gt;UDP-glucuronate 5-epimerase&lt;br&gt;Location: 100462 - 101473" id="dummy-1_q28_0_all" locus_tag="P773_RS0100560"  />
<polygon class="clusterblast-orf" style="stroke-width:1; stroke:black; fill:#3315d8; " points="473,40 477,40 482,35 477,30 473,30 473,40 " description="&lt;b&gt;P773_RS0100565&lt;/b&gt;&lt;br&gt;transaldolase&lt;br&gt;Location: 101792 - 102488" id="dummy-1_q29_0_all" locus_tag="P773_RS0100565"  />
<polygon class="clusterblast-orf" style="stroke-width:1; stroke:black; fill:white; " points="482,40 509,40 514,35 509,30 482,30 482,40 " description="&lt;b&gt;P773_RS0100570&lt;/b&gt;&lt;br&gt;sarcosine dehydrogenase&lt;br&gt;Location: 102517 - 104962" id="dummy-1_q30_0_all" locus_tag="P773_RS0100570"  />
<polygon class="clusterblast-orf" style="stroke-width:1; stroke:black; fill:white; " points="515,40 517,35 515,30 515,40 " description="&lt;b&gt;P773_RS0100575&lt;/b&gt;&lt;br&gt;hypothetical protein&lt;br&gt;Location: 105011 - 105221" id="dummy-1_q31_0_all" locus_tag="P773_RS0100575"  />
<polygon class="clusterblast-orf" style="stroke-width:1; stroke:black; fill:white; " points="520,35 525,30 526,30 526,40 525,40 520,35 " description="&lt;b&gt;P773_RS0100585&lt;/b&gt;&lt;br&gt;adenine phosphoribosyltransferase&lt;br&gt;Location: 105387 - 105915" id="dummy-1_q32_0_all" locus_tag="P773_RS0100585"  />
<polygon class="clusterblast-orf" style="stroke-width:1; stroke:black; fill:white; " points="527,40 533,40 538,35 533,30 527,30 527,40 " description="&lt;b&gt;P773_RS0100590&lt;/b&gt;&lt;br&gt;S-methyl-5'-thioadenosine phosphorylase&lt;br&gt;Location: 105956 - 106829" id="dummy-1_q33_0_all" locus_tag="P773_RS0100590"  />
<polygon class="clusterblast-orf" style="stroke-width:1; stroke:black; fill:white; " points="538,40 547,40 552,35 547,30 538,30 538,40 " description="&lt;b&gt;P773_RS0100595&lt;/b&gt;&lt;br&gt;S-methyl-5-thioribose-1-phosphate isomerase&lt;br&gt;Location: 106825 - 107896" id="dummy-1_q34_0_all" locus_tag="P773_RS0100595"  />
<polygon class="clusterblast-orf" style="stroke-width:1; stroke:black; fill:white; " points="552,40 555,40 560,35 555,30 552,30 552,40 " description="&lt;b&gt;P773_RS0100600&lt;/b&gt;&lt;br&gt;fuculose phosphate aldolase&lt;br&gt;Location: 107892 - 108525" id="dummy-1_q35_0_all" locus_tag="P773_RS0100600"  />
<polygon class="clusterblast-orf" style="stroke-width:1; stroke:black; fill:white; " points="560,40 569,40 574,35 569,30 560,30 560,40 " description="&lt;b&gt;P773_RS0100605&lt;/b&gt;&lt;br&gt;adenosylmethionine decarboxylase&lt;br&gt;Location: 108528 - 109569" id="dummy-1_q36_0_all" locus_tag="P773_RS0100605"  />
<polygon class="clusterblast-orf" style="stroke-width:1; stroke:black; fill:white; " points="575,40 581,40 586,35 581,30 575,30 575,40 " description="&lt;b&gt;P773_RS0100610&lt;/b&gt;&lt;br&gt;ABC transporter substrate-binding protein&lt;br&gt;Location: 109628 - 110480" id="dummy-1_q37_0_all" locus_tag="P773_RS0100610"  />
<polygon class="clusterblast-orf" style="stroke-width:1; stroke:black; fill:#d8156f; " points="586,40 590,40 595,35 590,30 586,30 586,40 " description="&lt;b&gt;P773_RS0100615&lt;/b&gt;&lt;br&gt;ABC transporter permease&lt;br&gt;Location: 110524 - 111217" id="dummy-1_q38_0_all" locus_tag="P773_RS0100615"  />
<polygon class="clusterblast-orf" style="stroke-width:1; stroke:black; fill:#8dd815; " points="595,40 599,40 604,35 599,30 595,30 595,40 " description="&lt;b&gt;P773_RS0100620&lt;/b&gt;&lt;br&gt;ABC transporter permease&lt;br&gt;Location: 111216 - 111894" id="dummy-1_q39_0_all" locus_tag="P773_RS0100620"  />
<polygon class="clusterblast-orf" style="stroke-width:1; stroke:black; fill:white; " points="604,40 609,40 614,35 609,30 604,30 604,40 " description="&lt;b&gt;P773_RS0100625&lt;/b&gt;&lt;br&gt;phytanoyl-CoA dioxygenase&lt;br&gt;Location: 111896 - 112685" id="dummy-1_q40_0_all" locus_tag="P773_RS0100625"  />
<polygon class="clusterblast-orf" style="stroke-width:1; stroke:black; fill:white; " points="614,35 619,30 619,30 619,40 619,40 614,35 " description="&lt;b&gt;P773_RS0100630&lt;/b&gt;&lt;br&gt;hypothetical protein&lt;br&gt;Location: 112674 - 113064" id="dummy-1_q41_0_all" locus_tag="P773_RS0100630"  />
<polygon class="clusterblast-orf" style="stroke-width:1; stroke:black; fill:white; " points="619,40 627,40 632,35 627,30 619,30 619,40 " description="&lt;b&gt;P773_RS0100635&lt;/b&gt;&lt;br&gt;glycosyl transferase family 1&lt;br&gt;Location: 113096 - 114038" id="dummy-1_q42_0_all" locus_tag="P773_RS0100635"  />
<polygon class="clusterblast-orf" style="stroke-width:1; stroke:black; fill:white; " points="632,35 637,30 643,30 643,40 637,40 632,35 " description="&lt;b&gt;P773_RS0100640&lt;/b&gt;&lt;br&gt;EamA/RhaT family transporter&lt;br&gt;Location: 114052 - 114940" id="dummy-1_q43_0_all" locus_tag="P773_RS0100640"  />
<polygon class="clusterblast-orf" style="stroke-width:1; stroke:black; fill:white; " points="644,35 649,30 658,30 658,40 649,40 644,35 " description="&lt;b&gt;P773_RS0100645&lt;/b&gt;&lt;br&gt;glycosyl transferase&lt;br&gt;Location: 114979 - 116062" id="dummy-1_q44_0_all" locus_tag="P773_RS0100645"  />
<polygon class="clusterblast-orf" style="stroke-width:1; stroke:black; fill:white; " points="658,35 663,30 665,30 665,40 663,40 658,35 " description="&lt;b&gt;P773_RS0100650&lt;/b&gt;&lt;br&gt;thioredoxin family protein&lt;br&gt;Location: 116061 - 116616" id="dummy-1_q45_0_all" locus_tag="P773_RS0100650"  />
<polygon class="clusterblast-orf" style="stroke-width:1; stroke:black; fill:white; " points="665,40 667,40 672,35 667,30 665,30 665,40 " description="&lt;b&gt;P773_RS0100655&lt;/b&gt;&lt;br&gt;gamma carbonic anhydrase family protein&lt;br&gt;Location: 116636 - 117149" id="dummy-1_q46_0_all" locus_tag="P773_RS0100655"  />
<polygon class="clusterblast-orf" style="stroke-width:1; stroke:black; fill:white; " points="672,40 676,35 672,30 672,40 " description="&lt;b&gt;P773_RS0100660&lt;/b&gt;&lt;br&gt;DUF1330 domain-containing protein&lt;br&gt;Location: 117161 - 117452" id="dummy-1_q47_0_all" locus_tag="P773_RS0100660"  />
<polygon class="clusterblast-orf" style="stroke-width:1; stroke:black; fill:white; " points="676,35 681,30 684,30 684,40 681,40 676,35 " description="&lt;b&gt;P773_RS0100665&lt;/b&gt;&lt;br&gt;flavin-binding protein&lt;br&gt;Location: 117461 - 118061" id="dummy-1_q48_0_all" locus_tag="P773_RS0100665"  />
<polygon class="clusterblast-orf" style="stroke-width:1; stroke:black; fill:white; " points="684,35 689,30 695,30 695,40 689,40 684,35 " description="&lt;b&gt;P773_RS0100670&lt;/b&gt;&lt;br&gt;NAD(P)-dependent oxidoreductase&lt;br&gt;Location: 118067 - 118937" id="dummy-1_q49_0_all" locus_tag="P773_RS0100670"  />
<polygon class="clusterblast-orf" style="stroke-width:1; stroke:black; fill:white; " points="695,40 706,40 711,35 706,30 695,30 695,40 " description="&lt;b&gt;P773_RS0100675&lt;/b&gt;&lt;br&gt;MFS transporter&lt;br&gt;Location: 118951 - 120157" id="dummy-1_q50_0_all" locus_tag="P773_RS0100675"  />
<polygon class="clusterblast-orf" style="stroke-width:1; stroke:black; fill:white; " points="711,40 713,40 718,35 713,30 711,30 711,40 " description="&lt;b&gt;P773_RS0100680&lt;/b&gt;&lt;br&gt;DNA-directed RNA polymerase subunit omega&lt;br&gt;Location: 120200 - 120716" id="dummy-1_q51_0_all" locus_tag="P773_RS0100680"  />
<polygon class="clusterblast-orf" style="stroke-width:1; stroke:black; fill:white; " points="719,35 724,30 732,30 732,40 724,40 719,35 " description="&lt;b&gt;P773_RS0100685&lt;/b&gt;&lt;br&gt;hypothetical protein&lt;br&gt;Location: 120778 - 121792" id="dummy-1_q52_0_all" locus_tag="P773_RS0100685"  />
<polygon class="clusterblast-orf" style="stroke-width:1; stroke:black; fill:white; " points="734,35 739,30 749,30 749,40 739,40 734,35 " description="&lt;b&gt;P773_RS0100690&lt;/b&gt;&lt;br&gt;aminomethyltransferase&lt;br&gt;Location: 121945 - 123124" id="dummy-1_q53_0_all" locus_tag="P773_RS0100690"  />
<polygon class="clusterblast-orf" style="stroke-width:1; stroke:black; fill:white; " points="749,35 754,30 780,30 780,40 754,40 749,35 " description="&lt;b&gt;P773_RS0100695&lt;/b&gt;&lt;br&gt;biotin transporter BioY&lt;br&gt;Location: 123134 - 125465" id="dummy-1_q54_0_all" locus_tag="P773_RS0100695"  />
</g>
<g label="NZ_CP016539" class="clusterblast-cluster" description="NZ_CP016539_c2: Planococcus plakortidis strain DSM 23997, complete genome (4% of genes show similarity), nrps"  >
<text class="clusterblast-acc" y="70" x="5"  >
<a xlink:href="https://antismash-db.secondarymetabolites.org/go/NZ_CP016539/2" target="_blank">NZ_CP016539_c2</a>: Planococcus plakortidis strain DSM 23997, complete genome (4% of genes show similarity), nrps</text>
<line style="stroke-width:1; stroke:grey; " y1="85" x2="778.0" y2="85" x1="10"  />
</g>
<g id="a1_000"  >
<polygon class="clusterblast-orf" style="stroke-width:1; stroke:black; fill:#d815c9; " points="103,90 111,90 116,85 111,80 103,80 103,90 " description="&lt;b&gt;BBI15_RS12075&lt;/b&gt;&lt;br&gt;NAD-dependent epimerase&lt;br&gt;Location: 2398497 - 2397487&lt;br&gt;&lt;br&gt;&lt;b&gt;BlastP hit with P773_RS0100545&lt;/b&gt;&lt;br&gt;Percentage identity: 31&lt;br&gt;Percentage coverage: 74&lt;br&gt;BLAST bit score: 77&lt;br&gt;E-value: 3.8e-12&lt;br&gt;&lt;br&gt;&lt;b&gt;BlastP hit with P773_RS0100560&lt;/b&gt;&lt;br&gt;Percentage identity: 49&lt;br&gt;Percentage coverage: 99&lt;br&gt;BLAST bit score: 330&lt;br&gt;E-value: 2.6e-88" id="dummy-1_h1_2_0" locus_tag="BBI15_RS12075"  />
</g>
<g id="a1_001"  >
<polygon class="clusterblast-orf" style="stroke-width:1; stroke:black; fill:white; " points="116,90 127,90 132,85 127,80 116,80 116,90 " description="&lt;b&gt;BBI15_RS12070&lt;/b&gt;&lt;br&gt;nucleotide sugar dehydrogenase&lt;br&gt;Location: 2397487 - 2396207" id="dummy-1_h1_2_1" locus_tag="BBI15_RS12070"  />
</g>
<g id="a1_002"  >
<polygon class="clusterblast-orf" style="stroke-width:1; stroke:black; fill:white; " points="132,90 142,90 147,85 142,80 132,80 132,90 " description="&lt;b&gt;BBI15_RS12065&lt;/b&gt;&lt;br&gt;glycosyltransferase family 1 protein&lt;br&gt;Location: 2396219 - 2395032" id="dummy-1_h1_2_2" locus_tag="BBI15_RS12065"  />
</g>
<g id="a1_003"  >
<polygon class="clusterblast-orf" style="stroke-width:1; stroke:black; fill:#33d815; " points="147,90 150,90 155,85 150,80 147,80 147,90 " description="&lt;b&gt;BBI15_RS12060&lt;/b&gt;&lt;br&gt;sugar transferase&lt;br&gt;Location: 2395048 - 2394443&lt;br&gt;&lt;br&gt;&lt;b&gt;BlastP hit with P773_RS07810&lt;/b&gt;&lt;br&gt;Percentage identity: 39&lt;br&gt;Percentage coverage: 40&lt;br&gt;BLAST bit score: 133&lt;br&gt;E-value: 5e-29" id="dummy-1_h1_2_3" locus_tag="BBI15_RS12060"  />
</g>
<g id="a1_004"  >
<polygon class="clusterblast-orf" style="stroke-width:1; stroke:black; fill:white; " points="155,90 159,90 164,85 159,80 155,80 155,90 " description="&lt;b&gt;BBI15_RS12055&lt;/b&gt;&lt;br&gt;acetyltransferase&lt;br&gt;Location: 2394441 - 2393785" id="dummy-1_h1_2_4" locus_tag="BBI15_RS12055"  />
</g>
<g id="a1_005"  >
<polygon class="clusterblast-orf" style="stroke-width:1; stroke:black; fill:white; " points="164,90 174,90 179,85 174,80 164,80 164,90 " description="&lt;b&gt;BBI15_RS12050&lt;/b&gt;&lt;br&gt;pyridoxal phosphate-dependent aminotransferase&lt;br&gt;Location: 2393774 - 2392608" id="dummy-1_h1_2_5" locus_tag="BBI15_RS12050"  />
</g>
<g id="a1_006"  >
<polygon class="clusterblast-orf" style="stroke-width:1; stroke:black; fill:white; " points="180,90 187,90 192,85 187,80 180,80 180,90 " description="&lt;b&gt;BBI15_RS12045&lt;/b&gt;&lt;br&gt;hypothetical protein&lt;br&gt;Location: 2392487 - 2391558" id="dummy-1_h1_2_6" locus_tag="BBI15_RS12045"  />
</g>
<g id="a1_007"  >
<polygon class="clusterblast-orf" style="stroke-width:1; stroke:black; fill:white; " points="195,90 199,90 204,85 199,80 195,80 195,90 " description="&lt;b&gt;BBI15_RS12040&lt;/b&gt;&lt;br&gt;GntR family transcriptional regulator&lt;br&gt;Location: 2391346 - 2390657" id="dummy-1_h1_2_7" locus_tag="BBI15_RS12040"  />
</g>
<g id="a1_008"  >
<polygon class="clusterblast-orf" style="stroke-width:1; stroke:black; fill:white; " points="205,90 213,90 218,85 213,80 205,80 205,90 " description="&lt;b&gt;BBI15_RS12035&lt;/b&gt;&lt;br&gt;hypothetical protein&lt;br&gt;Location: 2390624 - 2389566" id="dummy-1_h1_2_8" locus_tag="BBI15_RS12035"  />
</g>
<g id="a1_009"  >
<polygon class="clusterblast-orf" style="stroke-width:1; stroke:black; fill:white; " points="219,90 224,90 229,85 224,80 219,80 219,90 " description="&lt;b&gt;BBI15_RS12030&lt;/b&gt;&lt;br&gt;amino acid ABC transporter ATP-binding protein&lt;br&gt;Location: 2389522 - 2388758" id="dummy-1_h1_2_9" locus_tag="BBI15_RS12030"  />
</g>
<g id="a1_0010"  >
<polygon class="clusterblast-orf" style="stroke-width:1; stroke:black; fill:white; " points="229,90 235,90 240,85 235,80 229,80 229,90 " description="&lt;b&gt;BBI15_RS12025&lt;/b&gt;&lt;br&gt;amino acid ABC transporter substrate-binding protein&lt;br&gt;Location: 2388733 - 2387897" id="dummy-1_h1_2_10" locus_tag="BBI15_RS12025"  />
</g>
<g id="a1_0011"  >
<polygon class="clusterblast-orf" style="stroke-width:1; stroke:black; fill:white; " points="241,90 245,90 250,85 245,80 241,80 241,90 " description="&lt;b&gt;BBI15_RS12020&lt;/b&gt;&lt;br&gt;amino acid ABC transporter permease&lt;br&gt;Location: 2387806 - 2387096" id="dummy-1_h1_2_11" locus_tag="BBI15_RS12020"  />
</g>
<g id="a1_0012"  >
<polygon class="clusterblast-orf" style="stroke-width:1; stroke:black; fill:white; " points="250,90 254,90 259,85 254,80 250,80 250,90 " description="&lt;b&gt;BBI15_RS12015&lt;/b&gt;&lt;br&gt;hypothetical protein&lt;br&gt;Location: 2387095 - 2386403" id="dummy-1_h1_2_12" locus_tag="BBI15_RS12015"  />
</g>
<g id="a1_0013"  >
<polygon class="clusterblast-orf" style="stroke-width:1; stroke:black; fill:white; " points="263,90 264,90 269,85 264,80 263,80 263,90 " description="&lt;b&gt;BBI15_RS12010&lt;/b&gt;&lt;br&gt;hypothetical protein&lt;br&gt;Location: 2386148 - 2385612" id="dummy-1_h1_2_13" locus_tag="BBI15_RS12010"  />
</g>
<g id="a1_0014"  >
<polygon class="clusterblast-orf" style="stroke-width:1; stroke:black; fill:white; " points="274,85 279,80 281,80 281,90 279,90 274,85 " description="&lt;b&gt;BBI15_RS12005&lt;/b&gt;&lt;br&gt;transposase&lt;br&gt;Location: 2385256 - 2384750" id="dummy-1_h1_2_14" locus_tag="BBI15_RS12005"  />
</g>
<g id="a1_0015"  >
<polygon class="clusterblast-orf" style="stroke-width:1; stroke:black; fill:white; " points="285,90 289,90 294,85 289,80 285,80 285,90 " description="&lt;b&gt;BBI15_RS12000&lt;/b&gt;&lt;br&gt;hypothetical protein&lt;br&gt;Location: 2384390 - 2383689" id="dummy-1_h1_2_15" locus_tag="BBI15_RS12000"  />
</g>
<g id="a1_0016"  >
<polygon class="clusterblast-orf" style="stroke-width:1; stroke:black; fill:white; " points="295,85 300,80 315,80 315,90 300,90 295,85 " description="&lt;b&gt;BBI15_RS11995&lt;/b&gt;&lt;br&gt;hypothetical protein&lt;br&gt;Location: 2383631 - 2382081" id="dummy-1_h1_2_16" locus_tag="BBI15_RS11995"  />
</g>
<g id="a1_0017"  >
<polygon class="clusterblast-orf" style="stroke-width:1; stroke:black; fill:white; " points="315,85 320,80 324,80 324,90 320,90 315,85 " description="&lt;b&gt;BBI15_RS11990&lt;/b&gt;&lt;br&gt;ABC transporter ATP-binding protein&lt;br&gt;Location: 2382088 - 2381375" id="dummy-1_h1_2_17" locus_tag="BBI15_RS11990"  />
</g>
<g id="a1_0018"  >
<polygon class="clusterblast-orf" style="stroke-width:1; stroke:black; fill:white; " points="325,85 330,80 335,80 335,90 330,90 325,85 " description="&lt;b&gt;BBI15_RS11985&lt;/b&gt;&lt;br&gt;hypothetical protein&lt;br&gt;Location: 2381356 - 2380589" id="dummy-1_h1_2_18" locus_tag="BBI15_RS11985"  />
</g>
<g id="a1_0019"  >
<polygon class="clusterblast-orf" style="stroke-width:1; stroke:black; fill:white; " points="334,85 339,80 346,80 346,90 339,90 334,85 " description="&lt;b&gt;BBI15_RS11980&lt;/b&gt;&lt;br&gt;ABC transporter ATP-binding protein&lt;br&gt;Location: 2380592 - 2379702" id="dummy-1_h1_2_19" locus_tag="BBI15_RS11980"  />
</g>
<g id="a1_0020"  >
<polygon class="clusterblast-orf" style="stroke-width:1; stroke:black; fill:white; " points="346,85 349,80 349,90 346,85 " description="&lt;b&gt;BBI15_RS11975&lt;/b&gt;&lt;br&gt;hypothetical protein&lt;br&gt;Location: 2379727 - 2379476" id="dummy-1_h1_2_20" locus_tag="BBI15_RS11975"  />
</g>
<g id="a1_0021"  >
<polygon class="clusterblast-orf" style="stroke-width:1; stroke:black; fill:white; " points="356,90 364,90 369,85 364,80 356,80 356,90 " description="&lt;b&gt;BBI15_RS11970&lt;/b&gt;&lt;br&gt;hypothetical protein&lt;br&gt;Location: 2378897 - 2377956" id="dummy-1_h1_2_21" locus_tag="BBI15_RS11970"  />
</g>
<g id="a1_0022"  >
<polygon class="clusterblast-orf" style="stroke-width:1; stroke:black; fill:white; " points="369,90 370,90 375,85 370,80 369,80 369,90 " description="&lt;b&gt;BBI15_RS11965&lt;/b&gt;&lt;br&gt;hypothetical protein&lt;br&gt;Location: 2377927 - 2377427" id="dummy-1_h1_2_22" locus_tag="BBI15_RS11965"  />
</g>
<g id="a1_0023"  >
<polygon class="clusterblast-orf" style="stroke-width:1; stroke:black; fill:white; " points="376,90 384,90 389,85 384,80 376,80 376,90 " description="&lt;b&gt;BBI15_RS11960&lt;/b&gt;&lt;br&gt;hypothetical protein&lt;br&gt;Location: 2377415 - 2376414" id="dummy-1_h1_2_23" locus_tag="BBI15_RS11960"  />
</g>
<g id="a1_0024"  >
<polygon class="clusterblast-orf" style="stroke-width:1; stroke:black; fill:white; " points="388,90 393,90 398,85 393,80 388,80 388,90 " description="&lt;b&gt;BBI15_RS11955&lt;/b&gt;&lt;br&gt;thioesterase&lt;br&gt;Location: 2376447 - 2375695" id="dummy-1_h1_2_24" locus_tag="BBI15_RS11955"  />
</g>
<g id="a1_0025"  >
<polygon class="clusterblast-orf" style="stroke-width:1; stroke:black; fill:white; " points="397,90 406,90 411,85 406,80 397,80 397,90 " description="&lt;b&gt;BBI15_RS11950&lt;/b&gt;&lt;br&gt;hypothetical protein&lt;br&gt;Location: 2375762 - 2374650" id="dummy-1_h1_2_25" locus_tag="BBI15_RS11950"  />
</g>
<g id="a1_0026"  >
<polygon class="clusterblast-orf" style="stroke-width:1; stroke:black; fill:white; " points="410,90 415,90 420,85 415,80 410,80 410,90 " description="&lt;b&gt;BBI15_RS16300&lt;/b&gt;&lt;br&gt;hypothetical protein&lt;br&gt;Location: 2374725 - 2373964" id="dummy-1_h1_2_26" locus_tag="BBI15_RS16300"  />
</g>
<g id="a1_0027"  >
<polygon class="clusterblast-orf" style="stroke-width:1; stroke:black; fill:white; " points="421,90 422,90 427,85 422,80 421,80 421,90 " description="&lt;b&gt;BBI15_RS11940&lt;/b&gt;&lt;br&gt;hypothetical protein&lt;br&gt;Location: 2373934 - 2373416" id="dummy-1_h1_2_27" locus_tag="BBI15_RS11940"  />
</g>
<g id="a1_0028"  >
<polygon class="clusterblast-orf" style="stroke-width:1; stroke:black; fill:white; " points="430,90 433,90 438,85 433,80 430,80 430,90 " description="&lt;b&gt;BBI15_RS11935&lt;/b&gt;&lt;br&gt;hypothetical protein&lt;br&gt;Location: 2373221 - 2372580" id="dummy-1_h1_2_28" locus_tag="BBI15_RS11935"  />
</g>
<g id="a1_0029"  >
<polygon class="clusterblast-orf" style="stroke-width:1; stroke:black; fill:white; " points="439,90 439,90 444,85 439,80 439,80 439,90 " description="&lt;b&gt;BBI15_RS11930&lt;/b&gt;&lt;br&gt;hypothetical protein&lt;br&gt;Location: 2372525 - 2372166" id="dummy-1_h1_2_29" locus_tag="BBI15_RS11930"  />
</g>
<g id="a1_0030"  >
<polygon class="clusterblast-orf" style="stroke-width:1; stroke:black; fill:white; " points="450,90 453,90 458,85 453,80 450,80 450,90 " description="&lt;b&gt;BBI15_RS11925&lt;/b&gt;&lt;br&gt;hypothetical protein&lt;br&gt;Location: 2371671 - 2371090" id="dummy-1_h1_2_30" locus_tag="BBI15_RS11925"  />
</g>
<g id="a1_0031"  >
<polygon class="clusterblast-orf" style="stroke-width:1; stroke:black; fill:white; " points="459,90 462,90 467,85 462,80 459,80 459,90 " description="&lt;b&gt;BBI15_RS11920&lt;/b&gt;&lt;br&gt;HAD family hydrolase&lt;br&gt;Location: 2370952 - 2370335" id="dummy-1_h1_2_31" locus_tag="BBI15_RS11920"  />
</g>
<g id="a1_0032"  >
<polygon class="clusterblast-orf" style="stroke-width:1; stroke:black; fill:white; " points="468,85 473,80 474,80 474,90 473,90 468,85 " description="&lt;b&gt;BBI15_RS11915&lt;/b&gt;&lt;br&gt;VanZ family protein&lt;br&gt;Location: 2370285 - 2369812" id="dummy-1_h1_2_32" locus_tag="BBI15_RS11915"  />
</g>
<g id="a1_0033"  >
<polygon class="clusterblast-orf" style="stroke-width:1; stroke:black; fill:white; " points="474,85 479,80 485,80 485,90 479,90 474,85 " description="&lt;b&gt;BBI15_RS11910&lt;/b&gt;&lt;br&gt;hypothetical protein&lt;br&gt;Location: 2369781 - 2368996" id="dummy-1_h1_2_33" locus_tag="BBI15_RS11910"  />
</g>
<g id="a1_0034"  >
<polygon class="clusterblast-orf" style="stroke-width:1; stroke:black; fill:white; " points="488,90 490,90 495,85 490,80 488,80 488,90 " description="&lt;b&gt;BBI15_RS11905&lt;/b&gt;&lt;br&gt;hypothetical protein&lt;br&gt;Location: 2368714 - 2368199" id="dummy-1_h1_2_34" locus_tag="BBI15_RS11905"  />
</g>
<g id="a1_0035"  >
<polygon class="clusterblast-orf" style="stroke-width:1; stroke:black; fill:white; " points="498,90 511,90 516,85 511,80 498,80 498,90 " description="&lt;b&gt;BBI15_RS11900&lt;/b&gt;&lt;br&gt;sodium:alanine symporter family protein&lt;br&gt;Location: 2367979 - 2366570" id="dummy-1_h1_2_35" locus_tag="BBI15_RS11900"  />
</g>
<g id="a1_0036"  >
<polygon class="clusterblast-orf" style="stroke-width:1; stroke:black; fill:white; " points="519,90 522,85 519,80 519,90 " description="&lt;b&gt;BBI15_RS11895&lt;/b&gt;&lt;br&gt;hypothetical protein&lt;br&gt;Location: 2366306 - 2366094" id="dummy-1_h1_2_36" locus_tag="BBI15_RS11895"  />
</g>
<g id="a1_0037"  >
<polygon class="clusterblast-orf" style="stroke-width:1; stroke:black; fill:white; " points="526,90 527,90 532,85 527,80 526,80 526,90 " description="&lt;b&gt;BBI15_RS11890&lt;/b&gt;&lt;br&gt;hypothetical protein&lt;br&gt;Location: 2365776 - 2365366" id="dummy-1_h1_2_37" locus_tag="BBI15_RS11890"  />
</g>
<g id="a1_0038"  >
<polygon class="clusterblast-orf" style="stroke-width:1; stroke:black; fill:white; " points="540,90 556,90 561,85 556,80 540,80 540,90 " description="&lt;b&gt;BBI15_RS11885&lt;/b&gt;&lt;br&gt;hypothetical protein&lt;br&gt;Location: 2364702 - 2363077" id="dummy-1_h1_2_38" locus_tag="BBI15_RS11885"  />
</g>
<g id="a1_0039"  >
<polygon class="clusterblast-orf" style="stroke-width:1; stroke:black; fill:white; " points="562,90 565,90 570,85 565,80 562,80 562,90 " description="&lt;b&gt;BBI15_RS11880&lt;/b&gt;&lt;br&gt;hypothetical protein&lt;br&gt;Location: 2363010 - 2362375" id="dummy-1_h1_2_39" locus_tag="BBI15_RS11880"  />
</g>
<g id="a1_0040"  >
<polygon class="clusterblast-orf" style="stroke-width:1; stroke:black; fill:white; " points="572,90 572,90 577,85 572,80 572,80 572,90 " description="&lt;b&gt;BBI15_RS11875&lt;/b&gt;&lt;br&gt;hypothetical protein&lt;br&gt;Location: 2362282 - 2361836" id="dummy-1_h1_2_40" locus_tag="BBI15_RS11875"  />
</g>
<g id="a1_0041"  >
<polygon class="clusterblast-orf" style="stroke-width:1; stroke:black; fill:white; " points="578,90 581,85 578,80 578,90 " description="&lt;b&gt;BBI15_RS11870&lt;/b&gt;&lt;br&gt;XRE family transcriptional regulator&lt;br&gt;Location: 2361822 - 2361550" id="dummy-1_h1_2_41" locus_tag="BBI15_RS11870"  />
</g>
<g id="a1_0042"  >
<polygon class="clusterblast-orf" style="stroke-width:1; stroke:black; fill:white; " points="583,85 588,80 605,80 605,90 588,90 583,85 " description="&lt;b&gt;BBI15_RS11865&lt;/b&gt;&lt;br&gt;phosphoenolpyruvate--protein phosphotransferase&lt;br&gt;Location: 2361410 - 2359704" id="dummy-1_h1_2_42" locus_tag="BBI15_RS11865"  />
</g>
<g id="a1_0043"  >
<polygon class="clusterblast-orf" style="stroke-width:1; stroke:black; fill:white; " points="605,85 608,80 608,90 605,85 " description="&lt;b&gt;BBI15_RS11860&lt;/b&gt;&lt;br&gt;phosphocarrier protein HPr&lt;br&gt;Location: 2359707 - 2359438" id="dummy-1_h1_2_43" locus_tag="BBI15_RS11860"  />
</g>
<g id="a1_0044"  >
<polygon class="clusterblast-orf" style="stroke-width:1; stroke:black; fill:white; " points="615,90 635,90 640,85 635,80 615,80 615,90 " description="&lt;b&gt;BBI15_RS11855&lt;/b&gt;&lt;br&gt;PTS mannitol transporter subunit IICBA&lt;br&gt;Location: 2358942 - 2356999" id="dummy-1_h1_2_44" locus_tag="BBI15_RS11855"  />
</g>
<g id="a1_0045"  >
<polygon class="clusterblast-orf" style="stroke-width:1; stroke:black; fill:white; " points="650,90 671,90 676,85 671,80 650,80 650,90 " description="&lt;b&gt;BBI15_RS11850&lt;/b&gt;&lt;br&gt;PRD domain-containing protein&lt;br&gt;Location: 2356257 - 2354188" id="dummy-1_h1_2_45" locus_tag="BBI15_RS11850"  />
</g>
</svg>
