<svg version="1.1" preserveAspectRatio="none" width="800" y="0" xmlns:xlink="http://www.w3.org/1999/xlink" height="230" x="0" xmlns="http://www.w3.org/2000/svg" viewBox="0 0 800 230"  >
<g label="Query sequence" class="clusterblast-cluster"  >
<text class="clusterblast-acc" y="20" x="5"  >
Query sequence</text>
<line style="stroke-width:1; stroke:grey; " y1="35" x2="778.0" y2="35" x1="10"  />
<polygon class="clusterblast-orf" style="stroke-width:1; stroke:black; fill:#d81515; " points="28,40 40,40 45,35 40,30 28,30 28,40 " description="&lt;b&gt;P773_RS0106105&lt;/b&gt;&lt;br&gt;succinate--CoA ligase subunit alpha&lt;br&gt;Location: 1124766 - 1125642" id="dummy-7_q0_0_all" locus_tag="P773_RS0106105"  />
<polygon class="clusterblast-orf" style="stroke-width:1; stroke:black; fill:#77d815; " points="46,40 97,40 102,35 97,30 46,30 46,40 " description="&lt;b&gt;P773_RS0106110&lt;/b&gt;&lt;br&gt;2-oxoglutarate dehydrogenase E1 component&lt;br&gt;Location: 1125677 - 1128587" id="dummy-7_q1_0_all" locus_tag="P773_RS0106110"  />
<polygon class="clusterblast-orf" style="stroke-width:1; stroke:black; fill:#15d8d8; " points="103,40 123,40 128,35 123,30 103,30 103,40 " description="&lt;b&gt;P773_RS0106115&lt;/b&gt;&lt;br&gt;dihydrolipoyllysine-residue succinyltransferase&lt;br&gt;Location: 1128593 - 1129913" id="dummy-7_q2_0_all" locus_tag="P773_RS0106115"  />
<polygon class="clusterblast-orf" style="stroke-width:1; stroke:black; fill:#7715d8; " points="128,40 151,40 156,35 151,30 128,30 128,40 " description="&lt;b&gt;P773_RS0106120&lt;/b&gt;&lt;br&gt;dihydrolipoyl dehydrogenase&lt;br&gt;Location: 1129913 - 1131314" id="dummy-7_q3_0_all" locus_tag="P773_RS0106120"  />
<polygon class="clusterblast-orf" style="stroke-width:1; stroke:black; fill:white; " points="157,40 171,40 176,35 171,30 157,30 157,40 " description="&lt;b&gt;P773_RS0106125&lt;/b&gt;&lt;br&gt;hypothetical protein&lt;br&gt;Location: 1131353 - 1132364" id="dummy-7_q4_0_all" locus_tag="P773_RS0106125"  />
<polygon class="clusterblast-orf" style="stroke-width:1; stroke:black; fill:white; " points="176,40 186,40 191,35 186,30 176,30 176,40 " description="&lt;b&gt;P773_RS0106130&lt;/b&gt;&lt;br&gt;hypothetical protein&lt;br&gt;Location: 1132356 - 1133121" id="dummy-7_q5_0_all" locus_tag="P773_RS0106130"  />
<polygon class="clusterblast-orf" style="stroke-width:1; stroke:black; fill:white; " points="191,40 202,40 207,35 202,30 191,30 191,40 " description="&lt;b&gt;P773_RS0106135&lt;/b&gt;&lt;br&gt;hypothetical protein&lt;br&gt;Location: 1133110 - 1133914" id="dummy-7_q6_0_all" locus_tag="P773_RS0106135"  />
<polygon class="clusterblast-orf" style="stroke-width:1; stroke:black; fill:white; " points="206,40 216,40 221,35 216,30 206,30 206,40 " description="&lt;b&gt;P773_RS0106140&lt;/b&gt;&lt;br&gt;hypothetical protein&lt;br&gt;Location: 1133903 - 1134674" id="dummy-7_q7_0_all" locus_tag="P773_RS0106140"  />
<polygon class="clusterblast-orf" style="stroke-width:1; stroke:black; fill:#d85015; " points="221,40 255,40 260,35 255,30 221,30 221,40 " description="&lt;b&gt;P773_RS0106145&lt;/b&gt;&lt;br&gt;primosomal protein N'&lt;br&gt;Location: 1134673 - 1136629" id="dummy-7_q8_0_all" locus_tag="P773_RS0106145"  />
<polygon class="clusterblast-orf" style="stroke-width:1; stroke:black; fill:white; " points="262,40 268,40 273,35 268,30 262,30 262,40 " description="&lt;b&gt;P773_RS0106150&lt;/b&gt;&lt;br&gt;ATP synthase F1 subunit delta&lt;br&gt;Location: 1136738 - 1137296" id="dummy-7_q9_0_all" locus_tag="P773_RS0106150"  />
<polygon class="clusterblast-orf" style="stroke-width:1; stroke:black; fill:#3cd815; " points="273,40 298,40 303,35 298,30 273,30 273,40 " description="&lt;b&gt;P773_RS0106155&lt;/b&gt;&lt;br&gt;F0F1 ATP synthase subunit alpha&lt;br&gt;Location: 1137296 - 1138832" id="dummy-7_q10_0_all" locus_tag="P773_RS0106155"  />
<polygon class="clusterblast-orf" style="stroke-width:1; stroke:black; fill:#159ed8; " points="303,40 315,40 320,35 315,30 303,30 303,40 " description="&lt;b&gt;P773_RS0106160&lt;/b&gt;&lt;br&gt;F0F1 ATP synthase subunit gamma&lt;br&gt;Location: 1138838 - 1139714" id="dummy-7_q11_0_all" locus_tag="P773_RS0106160"  />
<polygon class="clusterblast-orf" style="stroke-width:1; stroke:black; fill:#b115d8; " points="320,40 343,40 348,35 343,30 320,30 320,40 " description="&lt;b&gt;P773_RS0106165&lt;/b&gt;&lt;br&gt;F0F1 ATP synthase subunit beta&lt;br&gt;Location: 1139716 - 1141135" id="dummy-7_q12_0_all" locus_tag="P773_RS0106165"  />
<polygon class="clusterblast-orf" style="stroke-width:1; stroke:black; fill:white; " points="348,40 350,40 355,35 350,30 348,30 348,40 " description="&lt;b&gt;P773_RS0106170&lt;/b&gt;&lt;br&gt;ATP synthase F1 subunit epsilon&lt;br&gt;Location: 1141134 - 1141527" id="dummy-7_q13_0_all" locus_tag="P773_RS0106170"  />
<polygon class="clusterblast-orf" style="stroke-width:1; stroke:black; fill:#d88a15; " points="355,35 360,30 365,30 365,40 360,40 355,35 " description="&lt;b&gt;P773_RS0106175&lt;/b&gt;&lt;br&gt;RNA pyrophosphohydrolase&lt;br&gt;Location: 1141519 - 1141996" id="dummy-7_q14_0_all" locus_tag="P773_RS0106175"  />
<polygon class="clusterblast-orf" style="stroke-width:1; stroke:black; fill:#15d829; " points="365,35 370,30 387,30 387,40 370,40 365,35 " description="&lt;b&gt;P773_RS0106180&lt;/b&gt;&lt;br&gt;S41 family peptidase&lt;br&gt;Location: 1141997 - 1143137" id="dummy-7_q15_0_all" locus_tag="P773_RS0106180"  />
<polygon class="clusterblast-orf" style="stroke-width:1; stroke:black; fill:#1563d8; " points="387,35 392,30 394,30 394,40 392,40 387,35 " description="&lt;b&gt;P773_RS0106185&lt;/b&gt;&lt;br&gt;ribosome silencing factor&lt;br&gt;Location: 1143133 - 1143484" id="dummy-7_q16_0_all" locus_tag="P773_RS0106185"  />
<polygon class="clusterblast-orf" style="stroke-width:1; stroke:black; fill:white; " points="394,35 399,30 404,30 404,40 399,40 394,35 " description="&lt;b&gt;P773_RS0106190&lt;/b&gt;&lt;br&gt;nicotinate (nicotinamide) nucleotide adenylyltransferase&lt;br&gt;Location: 1143501 - 1144020" id="dummy-7_q17_0_all" locus_tag="P773_RS0106190"  />
<polygon class="clusterblast-orf" style="stroke-width:1; stroke:black; fill:#d815c5; " points="404,35 409,30 429,30 429,40 409,40 404,35 " description="&lt;b&gt;P773_RS0106195&lt;/b&gt;&lt;br&gt;glutamate-5-semialdehyde dehydrogenase&lt;br&gt;Location: 1144021 - 1145272" id="dummy-7_q18_0_all" locus_tag="P773_RS0106195"  />
<polygon class="clusterblast-orf" style="stroke-width:1; stroke:black; fill:#d8c515; " points="429,35 434,30 450,30 450,40 434,40 429,35 " description="&lt;b&gt;P773_RS0106200&lt;/b&gt;&lt;br&gt;glutamate 5-kinase&lt;br&gt;Location: 1145273 - 1146380" id="dummy-7_q19_0_all" locus_tag="P773_RS0106200"  />
<polygon class="clusterblast-orf" style="stroke-width:1; stroke:black; fill:#15d863; " points="450,35 455,30 469,30 469,40 455,40 450,35 " description="&lt;b&gt;P773_RS0106205&lt;/b&gt;&lt;br&gt;GTPase ObgE&lt;br&gt;Location: 1146369 - 1147353" id="dummy-7_q20_0_all" locus_tag="P773_RS0106205"  />
<polygon class="clusterblast-orf" style="stroke-width:1; stroke:black; fill:#1529d8; " points="470,35 475,30 475,30 475,40 475,40 470,35 " description="&lt;b&gt;P773_RS0106210&lt;/b&gt;&lt;br&gt;50S ribosomal protein L27&lt;br&gt;Location: 1147380 - 1147635" id="dummy-7_q21_0_all" locus_tag="P773_RS0106210"  />
<polygon class="clusterblast-orf" style="stroke-width:1; stroke:black; fill:#d8158a; " points="475,35 480,30 483,30 483,40 480,40 475,35 " description="&lt;b&gt;P773_RS0106215&lt;/b&gt;&lt;br&gt;50S ribosomal protein L21&lt;br&gt;Location: 1147647 - 1148037" id="dummy-7_q22_0_all" locus_tag="P773_RS0106215"  />
<polygon class="clusterblast-orf" style="stroke-width:1; stroke:black; fill:white; " points="484,35 489,30 498,30 498,40 489,40 484,35 " description="&lt;b&gt;P773_RS0106220&lt;/b&gt;&lt;br&gt;hydroxyacylglutathione hydrolase&lt;br&gt;Location: 1148102 - 1148822" id="dummy-7_q23_0_all" locus_tag="P773_RS0106220"  />
<polygon class="clusterblast-orf" style="stroke-width:1; stroke:black; fill:#b1d815; " points="498,35 503,30 510,30 510,40 503,40 498,35 " description="&lt;b&gt;P773_RS0106225&lt;/b&gt;&lt;br&gt;methionine biosynthesis protein MetW&lt;br&gt;Location: 1148823 - 1149420" id="dummy-7_q24_0_all" locus_tag="P773_RS0106225"  />
<polygon class="clusterblast-orf" style="stroke-width:1; stroke:black; fill:#15d89e; " points="510,35 515,30 532,30 532,40 515,40 510,35 " description="&lt;b&gt;P773_RS0106230&lt;/b&gt;&lt;br&gt;homoserine O-acetyltransferase&lt;br&gt;Location: 1149422 - 1150541" id="dummy-7_q25_0_all" locus_tag="P773_RS0106230"  />
<polygon class="clusterblast-orf" style="stroke-width:1; stroke:black; fill:#3c15d8; " points="535,40 551,40 556,35 551,30 535,30 535,40 " description="&lt;b&gt;P773_RS0106235&lt;/b&gt;&lt;br&gt;histidinol-phosphate transaminase&lt;br&gt;Location: 1150731 - 1151814" id="dummy-7_q26_0_all" locus_tag="P773_RS0106235"  />
<polygon class="clusterblast-orf" style="stroke-width:1; stroke:black; fill:#d81550; " points="556,40 569,40 574,35 569,30 556,30 556,40 " description="&lt;b&gt;P773_RS0106240&lt;/b&gt;&lt;br&gt;prephenate dehydrogenase/arogenate dehydrogenase family protein&lt;br&gt;Location: 1151813 - 1152710" id="dummy-7_q27_0_all" locus_tag="P773_RS0106240"  />
<polygon class="clusterblast-orf" style="stroke-width:1; stroke:black; fill:white; " points="574,35 579,30 589,30 589,40 579,40 574,35 " description="&lt;b&gt;P773_RS0106245&lt;/b&gt;&lt;br&gt;hypothetical protein&lt;br&gt;Location: 1152706 - 1153453" id="dummy-7_q28_0_all" locus_tag="P773_RS0106245"  />
<polygon class="clusterblast-orf" style="stroke-width:1; stroke:black; fill:white; " points="588,35 593,30 615,30 615,40 593,40 588,35 " description="&lt;b&gt;P773_RS0106250&lt;/b&gt;&lt;br&gt;MFS transporter&lt;br&gt;Location: 1153442 - 1154813" id="dummy-7_q29_0_all" locus_tag="P773_RS0106250"  />
<polygon class="clusterblast-orf" style="stroke-width:1; stroke:black; fill:white; " points="615,35 620,30 643,30 643,40 620,40 615,35 " description="&lt;b&gt;P773_RS0106255&lt;/b&gt;&lt;br&gt;TrkH family potassium uptake protein&lt;br&gt;Location: 1154815 - 1156255" id="dummy-7_q30_0_all" locus_tag="P773_RS0106255"  />
<polygon class="clusterblast-orf" style="stroke-width:1; stroke:black; fill:white; " points="645,40 671,40 676,35 671,30 645,30 645,40 " description="&lt;b&gt;P773_RS0106260&lt;/b&gt;&lt;br&gt;lysine--tRNA ligase&lt;br&gt;Location: 1156345 - 1157908" id="dummy-7_q31_0_all" locus_tag="P773_RS0106260"  />
<polygon class="clusterblast-orf" style="stroke-width:1; stroke:black; fill:white; " points="676,40 691,40 696,35 691,30 676,30 676,40 " description="&lt;b&gt;P773_RS0106265&lt;/b&gt;&lt;br&gt;quinone-dependent dihydroorotate dehydrogenase&lt;br&gt;Location: 1157907 - 1158960" id="dummy-7_q32_0_all" locus_tag="P773_RS0106265"  />
<polygon class="clusterblast-orf" style="stroke-width:1; stroke:black; fill:white; " points="697,40 698,40 703,35 698,30 697,30 697,40 " description="&lt;b&gt;P773_RS0106270&lt;/b&gt;&lt;br&gt;50S ribosomal protein L28&lt;br&gt;Location: 1159012 - 1159324" id="dummy-7_q33_0_all" locus_tag="P773_RS0106270"  />
<polygon class="clusterblast-orf" style="stroke-width:1; stroke:black; fill:white; " points="703,40 709,40 714,35 709,30 703,30 703,40 " description="&lt;b&gt;P773_RS0106275&lt;/b&gt;&lt;br&gt;membrane protein&lt;br&gt;Location: 1159323 - 1159878" id="dummy-7_q34_0_all" locus_tag="P773_RS0106275"  />
<polygon class="clusterblast-orf" style="stroke-width:1; stroke:black; fill:white; " points="714,35 719,30 731,30 731,40 719,40 714,35 " description="&lt;b&gt;P773_RS0106280&lt;/b&gt;&lt;br&gt;agmatinase&lt;br&gt;Location: 1159874 - 1160750" id="dummy-7_q35_0_all" locus_tag="P773_RS0106280"  />
<polygon class="clusterblast-orf" style="stroke-width:1; stroke:black; fill:white; " points="731,35 736,30 752,30 752,40 736,40 731,35 " description="&lt;b&gt;P773_RS0106285&lt;/b&gt;&lt;br&gt;deoxyhypusine synthase&lt;br&gt;Location: 1160752 - 1161796" id="dummy-7_q36_0_all" locus_tag="P773_RS0106285"  />
</g>
<g label="NZ_LMKT01000023" class="clusterblast-cluster" description="NZ_LMKT01000023_c2: Sphingomonas sp. Leaf226 contig 3, whole genome shotgun s... (8% of genes show similarity), t3pks"  >
<text class="clusterblast-acc" y="70" x="5"  >
<a xlink:href="https://antismash-db.secondarymetabolites.org/go/NZ_LMKT01000023/2" target="_blank">NZ_LMKT01000023_c2</a>: Sphingomonas sp. Leaf226 contig 3, whole genome shotgun s... (8% of genes show similarity), t3pks</text>
<line style="stroke-width:1; stroke:grey; " y1="85" x2="778.0" y2="85" x1="10"  />
</g>
<g id="a7_000"  >
<polygon class="clusterblast-orf" style="stroke-width:1; stroke:black; fill:white; " points="0,90 3,90 8,85 3,80 0,80 0,90 " description="&lt;b&gt;ASE77_RS09140&lt;/b&gt;&lt;br&gt;6,7-dimethyl-8-ribityllumazine synthase&lt;br&gt;Location: 154359 - 153937" id="dummy-7_h7_4_0" locus_tag="ASE77_RS09140"  />
</g>
<g id="a7_001"  >
<polygon class="clusterblast-orf" style="stroke-width:1; stroke:black; fill:white; " points="9,85 14,80 17,80 17,90 14,90 9,85 " description="&lt;b&gt;ASE77_RS09135&lt;/b&gt;&lt;br&gt;hypothetical protein&lt;br&gt;Location: 153886 - 153440" id="dummy-7_h7_4_1" locus_tag="ASE77_RS09135"  />
</g>
<g id="a7_002"  >
<polygon class="clusterblast-orf" style="stroke-width:1; stroke:black; fill:white; " points="21,85 26,80 42,80 42,90 26,90 21,85 " description="&lt;b&gt;ASE77_RS09130&lt;/b&gt;&lt;br&gt;alkene reductase&lt;br&gt;Location: 153259 - 152171" id="dummy-7_h7_4_2" locus_tag="ASE77_RS09130"  />
</g>
<g id="a7_003"  >
<polygon class="clusterblast-orf" style="stroke-width:1; stroke:black; fill:white; " points="43,90 57,90 62,85 57,80 43,80 43,90 " description="&lt;b&gt;ASE77_RS09125&lt;/b&gt;&lt;br&gt;EamA/RhaT family transporter&lt;br&gt;Location: 152120 - 151143" id="dummy-7_h7_4_3" locus_tag="ASE77_RS09125"  />
</g>
<g id="a7_004"  >
<polygon class="clusterblast-orf" style="stroke-width:1; stroke:black; fill:white; " points="62,90 70,90 75,85 70,80 62,80 62,90 " description="&lt;b&gt;ASE77_RS09120&lt;/b&gt;&lt;br&gt;COQ9 family protein&lt;br&gt;Location: 151146 - 150493" id="dummy-7_h7_4_4" locus_tag="ASE77_RS09120"  />
</g>
<g id="a7_005"  >
<polygon class="clusterblast-orf" style="stroke-width:1; stroke:black; fill:white; " points="77,90 78,90 83,85 78,80 77,80 77,90 " description="&lt;b&gt;ASE77_RS19665&lt;/b&gt;&lt;br&gt;ferrous iron transport protein A&lt;br&gt;Location: 150386 - 150111" id="dummy-7_h7_4_5" locus_tag="ASE77_RS19665"  />
</g>
<g id="a7_006"  >
<polygon class="clusterblast-orf" style="stroke-width:1; stroke:black; fill:white; " points="83,90 114,90 119,85 114,80 83,80 83,90 " description="&lt;b&gt;ASE77_RS09110&lt;/b&gt;&lt;br&gt;ferrous iron transporter B&lt;br&gt;Location: 150097 - 148235" id="dummy-7_h7_4_6" locus_tag="ASE77_RS09110"  />
</g>
<g id="a7_007"  >
<polygon class="clusterblast-orf" style="stroke-width:1; stroke:black; fill:white; " points="119,90 126,90 131,85 126,80 119,80 119,90 " description="&lt;b&gt;ASE77_RS09105&lt;/b&gt;&lt;br&gt;single-stranded DNA-binding protein&lt;br&gt;Location: 148226 - 147642" id="dummy-7_h7_4_7" locus_tag="ASE77_RS09105"  />
</g>
<g id="a7_008"  >
<polygon class="clusterblast-orf" style="stroke-width:1; stroke:black; fill:white; " points="133,90 156,90 161,85 156,80 133,80 133,90 " description="&lt;b&gt;ASE77_RS09100&lt;/b&gt;&lt;br&gt;histidine kinase&lt;br&gt;Location: 147540 - 146089" id="dummy-7_h7_4_8" locus_tag="ASE77_RS09100"  />
</g>
<g id="a7_009"  >
<polygon class="clusterblast-orf" style="stroke-width:1; stroke:black; fill:white; " points="161,85 166,80 169,80 169,90 166,90 161,85 " description="&lt;b&gt;ASE77_RS09095&lt;/b&gt;&lt;br&gt;response regulator&lt;br&gt;Location: 146072 - 145677" id="dummy-7_h7_4_9" locus_tag="ASE77_RS09095"  />
</g>
<g id="a7_0010"  >
<polygon class="clusterblast-orf" style="stroke-width:1; stroke:black; fill:#b1d815; " points="171,85 176,80 183,80 183,90 176,90 171,85 " description="&lt;b&gt;ASE77_RS09090&lt;/b&gt;&lt;br&gt;methionine biosynthesis protein MetW&lt;br&gt;Location: 145566 - 144946&lt;br&gt;&lt;br&gt;&lt;b&gt;BlastP hit with P773_RS0106225&lt;/b&gt;&lt;br&gt;Percentage identity: 47&lt;br&gt;Percentage coverage: 81&lt;br&gt;BLAST bit score: 170&lt;br&gt;E-value: 2e-40" id="dummy-7_h7_4_10" locus_tag="ASE77_RS09090"  />
</g>
<g id="a7_0011"  >
<polygon class="clusterblast-orf" style="stroke-width:1; stroke:black; fill:#15d89e; " points="183,85 188,80 206,80 206,90 188,90 183,85 " description="&lt;b&gt;ASE77_RS09085&lt;/b&gt;&lt;br&gt;homoserine O-acetyltransferase&lt;br&gt;Location: 144949 - 143810&lt;br&gt;&lt;br&gt;&lt;b&gt;BlastP hit with P773_RS0106230&lt;/b&gt;&lt;br&gt;Percentage identity: 58&lt;br&gt;Percentage coverage: 94&lt;br&gt;BLAST bit score: 427&lt;br&gt;E-value: 1.3e-117" id="dummy-7_h7_4_11" locus_tag="ASE77_RS09085"  />
</g>
<g id="a7_0012"  >
<polygon class="clusterblast-orf" style="stroke-width:1; stroke:black; fill:#3c15d8; " points="207,90 224,90 229,85 224,80 207,80 207,90 " description="&lt;b&gt;ASE77_RS09080&lt;/b&gt;&lt;br&gt;histidinol-phosphate transaminase&lt;br&gt;Location: 143736 - 142639&lt;br&gt;&lt;br&gt;&lt;b&gt;BlastP hit with P773_RS0106235&lt;/b&gt;&lt;br&gt;Percentage identity: 36&lt;br&gt;Percentage coverage: 101&lt;br&gt;BLAST bit score: 222&lt;br&gt;E-value: 6.3e-56" id="dummy-7_h7_4_12" locus_tag="ASE77_RS09080"  />
</g>
<g id="a7_0013"  >
<polygon class="clusterblast-orf" style="stroke-width:1; stroke:black; fill:#d81550; " points="229,90 241,90 246,85 241,80 229,80 229,90 " description="&lt;b&gt;ASE77_RS09075&lt;/b&gt;&lt;br&gt;cyclohexadienyl dehydrogenase&lt;br&gt;Location: 142639 - 141731&lt;br&gt;&lt;br&gt;&lt;b&gt;BlastP hit with P773_RS0106240&lt;/b&gt;&lt;br&gt;Percentage identity: 34&lt;br&gt;Percentage coverage: 99&lt;br&gt;BLAST bit score: 194&lt;br&gt;E-value: 1.5e-47" id="dummy-7_h7_4_13" locus_tag="ASE77_RS09075"  />
</g>
<g id="a7_0014"  >
<polygon class="clusterblast-orf" style="stroke-width:1; stroke:black; fill:white; " points="247,85 252,80 260,80 260,90 252,90 247,85 " description="&lt;b&gt;ASE77_RS09070&lt;/b&gt;&lt;br&gt;1-acyl-sn-glycerol-3-phosphate acyltransferase&lt;br&gt;Location: 141705 - 141019" id="dummy-7_h7_4_14" locus_tag="ASE77_RS09070"  />
</g>
<g id="a7_0015"  >
<polygon class="clusterblast-orf" style="stroke-width:1; stroke:black; fill:white; " points="260,85 265,80 271,80 271,90 265,90 260,85 " description="&lt;b&gt;ASE77_RS09065&lt;/b&gt;&lt;br&gt;YdcF family protein&lt;br&gt;Location: 141022 - 140486" id="dummy-7_h7_4_15" locus_tag="ASE77_RS09065"  />
</g>
<g id="a7_0016"  >
<polygon class="clusterblast-orf" style="stroke-width:1; stroke:black; fill:white; " points="271,85 276,80 288,80 288,90 276,90 271,85 " description="&lt;b&gt;ASE77_RS09060&lt;/b&gt;&lt;br&gt;permease&lt;br&gt;Location: 140489 - 139611" id="dummy-7_h7_4_16" locus_tag="ASE77_RS09060"  />
</g>
<g id="a7_0017"  >
<polygon class="clusterblast-orf" style="stroke-width:1; stroke:black; fill:white; " points="288,85 293,80 302,80 302,90 293,90 288,85 " description="&lt;b&gt;ASE77_RS09055&lt;/b&gt;&lt;br&gt;cell division ATP-binding protein FtsE&lt;br&gt;Location: 139614 - 138904" id="dummy-7_h7_4_17" locus_tag="ASE77_RS09055"  />
</g>
<g id="a7_0018"  >
<polygon class="clusterblast-orf" style="stroke-width:1; stroke:black; fill:white; " points="305,90 308,85 305,80 305,90 " description="&lt;b&gt;ASE77_RS19660&lt;/b&gt;&lt;br&gt;hypothetical protein&lt;br&gt;Location: 138705 - 138556" id="dummy-7_h7_4_18" locus_tag="ASE77_RS19660"  />
</g>
<g id="a7_0019"  >
<polygon class="clusterblast-orf" style="stroke-width:1; stroke:black; fill:white; " points="311,90 320,90 325,85 320,80 311,80 311,90 " description="&lt;b&gt;ASE77_RS09050&lt;/b&gt;&lt;br&gt;hypothetical protein&lt;br&gt;Location: 138399 - 137719" id="dummy-7_h7_4_19" locus_tag="ASE77_RS09050"  />
</g>
<g id="a7_0020"  >
<polygon class="clusterblast-orf" style="stroke-width:1; stroke:black; fill:white; " points="334,85 339,80 349,80 349,90 339,90 334,85 " description="&lt;b&gt;ASE77_RS09040&lt;/b&gt;&lt;br&gt;PilZ domain-containing protein&lt;br&gt;Location: 137225 - 136497" id="dummy-7_h7_4_20" locus_tag="ASE77_RS09040"  />
</g>
<g id="a7_0021"  >
<polygon class="clusterblast-orf" style="stroke-width:1; stroke:black; fill:white; " points="352,85 357,80 362,80 362,90 357,90 352,85 " description="&lt;b&gt;ASE77_RS09035&lt;/b&gt;&lt;br&gt;hypothetical protein&lt;br&gt;Location: 136305 - 135838" id="dummy-7_h7_4_21" locus_tag="ASE77_RS09035"  />
</g>
<g id="a7_0022"  >
<polygon class="clusterblast-orf" style="stroke-width:1; stroke:black; fill:white; " points="372,90 390,90 395,85 390,80 372,80 372,90 " description="&lt;b&gt;ASE77_RS09030&lt;/b&gt;&lt;br&gt;type III polyketide synthase&lt;br&gt;Location: 135298 - 134120" id="dummy-7_h7_4_22" locus_tag="ASE77_RS09030"  />
</g>
<g id="a7_0023"  >
<polygon class="clusterblast-orf" style="stroke-width:1; stroke:black; fill:white; " points="395,90 404,90 409,85 404,80 395,80 395,90 " description="&lt;b&gt;ASE77_RS09025&lt;/b&gt;&lt;br&gt;methyltransferase domain-containing protein&lt;br&gt;Location: 134126 - 133428" id="dummy-7_h7_4_23" locus_tag="ASE77_RS09025"  />
</g>
<g id="a7_0024"  >
<polygon class="clusterblast-orf" style="stroke-width:1; stroke:black; fill:white; " points="408,90 425,90 430,85 425,80 408,80 408,90 " description="&lt;b&gt;ASE77_RS09020&lt;/b&gt;&lt;br&gt;FAD-binding monooxygenase&lt;br&gt;Location: 133449 - 132346" id="dummy-7_h7_4_24" locus_tag="ASE77_RS09020"  />
</g>
<g id="a7_0025"  >
<polygon class="clusterblast-orf" style="stroke-width:1; stroke:black; fill:white; " points="432,90 469,90 474,85 469,80 432,80 432,90 " description="&lt;b&gt;ASE77_RS09015&lt;/b&gt;&lt;br&gt;penicillin-binding protein&lt;br&gt;Location: 132226 - 130067" id="dummy-7_h7_4_25" locus_tag="ASE77_RS09015"  />
</g>
<g id="a7_0026"  >
<polygon class="clusterblast-orf" style="stroke-width:1; stroke:black; fill:white; " points="474,85 479,80 487,80 487,90 479,90 474,85 " description="&lt;b&gt;ASE77_RS09010&lt;/b&gt;&lt;br&gt;M48 family peptidase&lt;br&gt;Location: 130091 - 129417" id="dummy-7_h7_4_26" locus_tag="ASE77_RS09010"  />
</g>
<g id="a7_0027"  >
<polygon class="clusterblast-orf" style="stroke-width:1; stroke:black; fill:white; " points="487,85 492,80 496,80 496,90 492,90 487,85 " description="&lt;b&gt;ASE77_RS09005&lt;/b&gt;&lt;br&gt;YcgN family cysteine cluster protein&lt;br&gt;Location: 129412 - 128978" id="dummy-7_h7_4_27" locus_tag="ASE77_RS09005"  />
</g>
<g id="a7_0028"  >
<polygon class="clusterblast-orf" style="stroke-width:1; stroke:black; fill:white; " points="496,85 501,80 507,80 507,90 501,90 496,85 " description="&lt;b&gt;ASE77_RS09000&lt;/b&gt;&lt;br&gt;SCO family protein&lt;br&gt;Location: 128981 - 128382" id="dummy-7_h7_4_28" locus_tag="ASE77_RS09000"  />
</g>
<g id="a7_0029"  >
<polygon class="clusterblast-orf" style="stroke-width:1; stroke:black; fill:white; " points="510,90 517,90 522,85 517,80 510,80 510,90 " description="&lt;b&gt;ASE77_RS08995&lt;/b&gt;&lt;br&gt;ankyrin repeat domain-containing protein&lt;br&gt;Location: 128244 - 127651" id="dummy-7_h7_4_29" locus_tag="ASE77_RS08995"  />
</g>
<g id="a7_0030"  >
<polygon class="clusterblast-orf" style="stroke-width:1; stroke:black; fill:white; " points="523,85 528,80 532,80 532,90 528,90 523,85 " description="&lt;b&gt;ASE77_RS08990&lt;/b&gt;&lt;br&gt;DNA repair protein MmcB-related protein&lt;br&gt;Location: 127590 - 127093" id="dummy-7_h7_4_30" locus_tag="ASE77_RS08990"  />
</g>
<g id="a7_0031"  >
<polygon class="clusterblast-orf" style="stroke-width:1; stroke:black; fill:white; " points="535,85 540,80 548,80 548,90 540,90 535,85 " description="&lt;b&gt;ASE77_RS08985&lt;/b&gt;&lt;br&gt;cell wall hydrolase&lt;br&gt;Location: 126976 - 126317" id="dummy-7_h7_4_31" locus_tag="ASE77_RS08985"  />
</g>
<g id="a7_0032"  >
<polygon class="clusterblast-orf" style="stroke-width:1; stroke:black; fill:white; " points="551,85 556,80 557,80 557,90 556,90 551,85 " description="&lt;b&gt;ASE77_RS08980&lt;/b&gt;&lt;br&gt;DUF1491 domain-containing protein&lt;br&gt;Location: 126163 - 125837" id="dummy-7_h7_4_32" locus_tag="ASE77_RS08980"  />
</g>
<g id="a7_0033"  >
<polygon class="clusterblast-orf" style="stroke-width:1; stroke:black; fill:white; " points="557,85 562,80 567,80 567,90 562,90 557,85 " description="&lt;b&gt;ASE77_RS08975&lt;/b&gt;&lt;br&gt;PaaI family thioesterase&lt;br&gt;Location: 125826 - 125347" id="dummy-7_h7_4_33" locus_tag="ASE77_RS08975"  />
</g>
<g id="a7_0034"  >
<polygon class="clusterblast-orf" style="stroke-width:1; stroke:black; fill:white; " points="566,85 571,80 576,80 576,90 571,90 566,85 " description="&lt;b&gt;ASE77_RS08970&lt;/b&gt;&lt;br&gt;PTS lactose transporter subunit IIC&lt;br&gt;Location: 125357 - 124890" id="dummy-7_h7_4_34" locus_tag="ASE77_RS08970"  />
</g>
<g id="a7_0035"  >
<polygon class="clusterblast-orf" style="stroke-width:1; stroke:black; fill:white; " points="578,85 583,80 589,80 589,90 583,90 578,85 " description="&lt;b&gt;ASE77_RS08965&lt;/b&gt;&lt;br&gt;ribosomal subunit interface protein&lt;br&gt;Location: 124787 - 124191" id="dummy-7_h7_4_35" locus_tag="ASE77_RS08965"  />
</g>
<g id="a7_0036"  >
<polygon class="clusterblast-orf" style="stroke-width:1; stroke:black; fill:white; " points="590,85 595,80 604,80 604,90 595,90 590,85 " description="&lt;b&gt;ASE77_RS08960&lt;/b&gt;&lt;br&gt;DNA polymerase III subunit epsilon&lt;br&gt;Location: 124141 - 123449" id="dummy-7_h7_4_36" locus_tag="ASE77_RS08960"  />
</g>
<g id="a7_0037"  >
<polygon class="clusterblast-orf" style="stroke-width:1; stroke:black; fill:white; " points="604,85 609,80 615,80 615,90 609,90 604,85 " description="&lt;b&gt;ASE77_RS08955&lt;/b&gt;&lt;br&gt;dephospho-CoA kinase&lt;br&gt;Location: 123441 - 122854" id="dummy-7_h7_4_37" locus_tag="ASE77_RS08955"  />
</g>
<g id="a7_0038"  >
<polygon class="clusterblast-orf" style="stroke-width:1; stroke:black; fill:white; " points="615,85 620,80 631,80 631,90 620,90 615,85 " description="&lt;b&gt;ASE77_RS08950&lt;/b&gt;&lt;br&gt;shikimate dehydrogenase&lt;br&gt;Location: 122857 - 122042" id="dummy-7_h7_4_38" locus_tag="ASE77_RS08950"  />
</g>
<g id="a7_0039"  >
<polygon class="clusterblast-orf" style="stroke-width:1; stroke:black; fill:white; " points="634,85 639,80 645,80 645,90 639,90 634,85 " description="&lt;b&gt;ASE77_RS08945&lt;/b&gt;&lt;br&gt;septum formation protein Maf&lt;br&gt;Location: 121922 - 121329" id="dummy-7_h7_4_39" locus_tag="ASE77_RS08945"  />
</g>
<g id="a7_0040"  >
<polygon class="clusterblast-orf" style="stroke-width:1; stroke:black; fill:white; " points="645,85 650,80 661,80 661,90 650,90 645,85 " description="&lt;b&gt;ASE77_RS08940&lt;/b&gt;&lt;br&gt;kinase/pyrophosphorylase&lt;br&gt;Location: 121332 - 120517" id="dummy-7_h7_4_40" locus_tag="ASE77_RS08940"  />
</g>
<g id="a7_0041"  >
<polygon class="clusterblast-orf" style="stroke-width:1; stroke:black; fill:white; " points="668,90 683,90 688,85 683,80 668,80 668,90 " description="&lt;b&gt;ASE77_RS08935&lt;/b&gt;&lt;br&gt;uroporphyrinogen decarboxylase&lt;br&gt;Location: 120167 - 119139" id="dummy-7_h7_4_41" locus_tag="ASE77_RS08935"  />
</g>
<g id="a7_0042"  >
<polygon class="clusterblast-orf" style="stroke-width:1; stroke:black; fill:white; " points="688,90 692,90 697,85 692,80 688,80 688,90 " description="&lt;b&gt;ASE77_RS08930&lt;/b&gt;&lt;br&gt;membrane protein&lt;br&gt;Location: 119142 - 118681" id="dummy-7_h7_4_42" locus_tag="ASE77_RS08930"  />
</g>
<g id="a7_0043"  >
<polygon class="clusterblast-orf" style="stroke-width:1; stroke:black; fill:white; " points="703,90 722,90 727,85 722,80 703,80 703,90 " description="&lt;b&gt;ASE77_RS08925&lt;/b&gt;&lt;br&gt;transcription termination factor Rho&lt;br&gt;Location: 118386 - 117130" id="dummy-7_h7_4_43" locus_tag="ASE77_RS08925"  />
</g>
<g id="a7_0044"  >
<polygon class="clusterblast-orf" style="stroke-width:1; stroke:black; fill:white; " points="732,90 741,90 746,85 741,80 732,80 732,90 " description="&lt;b&gt;ASE77_RS08920&lt;/b&gt;&lt;br&gt;membrane protein&lt;br&gt;Location: 116892 - 116173" id="dummy-7_h7_4_44" locus_tag="ASE77_RS08920"  />
</g>
<g id="a7_0045"  >
<polygon class="clusterblast-orf" style="stroke-width:1; stroke:black; fill:white; " points="751,85 756,80 764,80 764,90 756,90 751,85 " description="&lt;b&gt;ASE77_RS08915&lt;/b&gt;&lt;br&gt;dienelactone hydrolase family protein&lt;br&gt;Location: 115936 - 115235" id="dummy-7_h7_4_45" locus_tag="ASE77_RS08915"  />
</g>
<g id="a7_0046"  >
<polygon class="clusterblast-orf" style="stroke-width:1; stroke:black; fill:white; " points="764,85 769,80 773,80 773,90 769,90 764,85 " description="&lt;b&gt;ASE77_RS08910&lt;/b&gt;&lt;br&gt;cysteine methyltransferase&lt;br&gt;Location: 115238 - 114765" id="dummy-7_h7_4_46" locus_tag="ASE77_RS08910"  />
</g>
<g id="a7_0047"  >
<polygon class="clusterblast-orf" style="stroke-width:1; stroke:black; fill:white; " points="775,90 775,90 780,85 775,80 775,80 775,90 " description="&lt;b&gt;ASE77_RS08905&lt;/b&gt;&lt;br&gt;hypothetical protein&lt;br&gt;Location: 114708 - 114454" id="dummy-7_h7_4_47" locus_tag="ASE77_RS08905"  />
</g>
</svg>
