<svg version="1.1" preserveAspectRatio="none" width="800" y="0" xmlns:xlink="http://www.w3.org/1999/xlink" height="230" x="0" xmlns="http://www.w3.org/2000/svg" viewBox="0 0 800 230"  >
<g label="Query sequence" class="clusterblast-cluster"  >
<text class="clusterblast-acc" y="20" x="5"  >
Query sequence</text>
<line style="stroke-width:1; stroke:grey; " y1="35" x2="778.0" y2="35" x1="10"  />
<polygon class="clusterblast-orf" style="stroke-width:1; stroke:black; fill:white; " points="20,35 25,30 28,30 28,40 25,40 20,35 " description="&lt;b&gt;P773_RS0105755&lt;/b&gt;&lt;br&gt;EVE domain-containing protein&lt;br&gt;Location: 1063773 - 1064187" id="dummy-6_q0_0_all" locus_tag="P773_RS0105755"  />
<polygon class="clusterblast-orf" style="stroke-width:1; stroke:black; fill:white; " points="28,35 33,30 48,30 48,40 33,40 28,35 " description="&lt;b&gt;P773_RS0105760&lt;/b&gt;&lt;br&gt;tRNA (adenosine(37)-N6)-threonylcarbamoyltransferase complex transferase subunit TsaD&lt;br&gt;Location: 1064186 - 1065260" id="dummy-6_q1_0_all" locus_tag="P773_RS0105760"  />
<polygon class="clusterblast-orf" style="stroke-width:1; stroke:black; fill:white; " points="49,40 61,40 66,35 61,30 49,30 49,40 " description="&lt;b&gt;P773_RS0105765&lt;/b&gt;&lt;br&gt;hydroxymethylbilane synthase&lt;br&gt;Location: 1065316 - 1066234" id="dummy-6_q2_0_all" locus_tag="P773_RS0105765"  />
<polygon class="clusterblast-orf" style="stroke-width:1; stroke:black; fill:white; " points="66,40 74,40 79,35 74,30 66,30 66,40 " description="&lt;b&gt;P773_RS0105770&lt;/b&gt;&lt;br&gt;uroporphyrinogen-III synthase&lt;br&gt;Location: 1066235 - 1066934" id="dummy-6_q3_0_all" locus_tag="P773_RS0105770"  />
<polygon class="clusterblast-orf" style="stroke-width:1; stroke:black; fill:white; " points="79,40 95,40 100,35 95,30 79,30 79,40 " description="&lt;b&gt;P773_RS0105775&lt;/b&gt;&lt;br&gt;mechanosensitive ion channel family protein&lt;br&gt;Location: 1066936 - 1068022" id="dummy-6_q4_0_all" locus_tag="P773_RS0105775"  />
<polygon class="clusterblast-orf" style="stroke-width:1; stroke:black; fill:white; " points="99,40 100,40 105,35 100,30 99,30 99,40 " description="&lt;b&gt;P773_RS0105780&lt;/b&gt;&lt;br&gt;YggT family protein&lt;br&gt;Location: 1068018 - 1068309" id="dummy-6_q5_0_all" locus_tag="P773_RS0105780"  />
<polygon class="clusterblast-orf" style="stroke-width:1; stroke:black; fill:white; " points="105,40 116,40 121,35 116,30 105,30 105,40 " description="&lt;b&gt;P773_RS0105785&lt;/b&gt;&lt;br&gt;bifunctional 5,10-methylene-tetrahydrofolate dehydrogenase/5,10-methylene-tetrahydrofolate cyclohydrolase&lt;br&gt;Location: 1068318 - 1069164" id="dummy-6_q6_0_all" locus_tag="P773_RS0105785"  />
<polygon class="clusterblast-orf" style="stroke-width:1; stroke:black; fill:white; " points="121,40 125,35 121,30 121,40 " description="&lt;b&gt;P773_RS0105790&lt;/b&gt;&lt;br&gt;hypothetical protein&lt;br&gt;Location: 1069201 - 1069405" id="dummy-6_q7_0_all" locus_tag="P773_RS0105790"  />
<polygon class="clusterblast-orf" style="stroke-width:1; stroke:black; fill:white; " points="125,40 125,40 130,35 125,30 125,30 125,40 " description="&lt;b&gt;P773_RS0105795&lt;/b&gt;&lt;br&gt;hypothetical protein&lt;br&gt;Location: 1069408 - 1069675" id="dummy-6_q8_0_all" locus_tag="P773_RS0105795"  />
<polygon class="clusterblast-orf" style="stroke-width:1; stroke:black; fill:white; " points="130,35 135,30 147,30 147,40 135,40 130,35 " description="&lt;b&gt;P773_RS0105800&lt;/b&gt;&lt;br&gt;membrane protein&lt;br&gt;Location: 1069671 - 1070574" id="dummy-6_q9_0_all" locus_tag="P773_RS0105800"  />
<polygon class="clusterblast-orf" style="stroke-width:1; stroke:black; fill:white; " points="148,35 153,30 167,30 167,40 153,40 148,35 " description="&lt;b&gt;P773_RS0105805&lt;/b&gt;&lt;br&gt;MBL fold metallo-hydrolase&lt;br&gt;Location: 1070641 - 1071625" id="dummy-6_q10_0_all" locus_tag="P773_RS0105805"  />
<polygon class="clusterblast-orf" style="stroke-width:1; stroke:black; fill:white; " points="167,35 172,30 187,30 187,40 172,40 167,35 " description="&lt;b&gt;P773_RS0105810&lt;/b&gt;&lt;br&gt;PQQ-dependent sugar dehydrogenase&lt;br&gt;Location: 1071628 - 1072726" id="dummy-6_q11_0_all" locus_tag="P773_RS0105810"  />
<polygon class="clusterblast-orf" style="stroke-width:1; stroke:black; fill:#d81515; " points="187,35 192,30 200,30 200,40 192,40 187,35 " description="&lt;b&gt;P773_RS0105815&lt;/b&gt;&lt;br&gt;short-chain dehydrogenase&lt;br&gt;Location: 1072700 - 1073411" id="dummy-6_q12_0_all" locus_tag="P773_RS0105815"  />
<polygon class="clusterblast-orf" style="stroke-width:1; stroke:black; fill:#33d815; " points="201,40 223,40 228,35 223,30 201,30 201,40 " description="&lt;b&gt;P773_RS0105820&lt;/b&gt;&lt;br&gt;cryptochrome/photolyase family protein&lt;br&gt;Location: 1073438 - 1074929" id="dummy-6_q13_0_all" locus_tag="P773_RS0105820"  />
<polygon class="clusterblast-orf" style="stroke-width:1; stroke:black; fill:white; " points="228,40 231,35 228,30 228,40 " description="&lt;b&gt;P773_RS07920&lt;/b&gt;&lt;br&gt;DUF2256 domain-containing protein&lt;br&gt;Location: 1074928 - 1075051" id="dummy-6_q14_0_all" locus_tag="P773_RS07920"  />
<polygon class="clusterblast-orf" style="stroke-width:1; stroke:black; fill:white; " points="231,40 233,40 238,35 233,30 231,30 231,40 " description="&lt;b&gt;P773_RS0105830&lt;/b&gt;&lt;br&gt;DedA family protein&lt;br&gt;Location: 1075047 - 1075464" id="dummy-6_q15_0_all" locus_tag="P773_RS0105830"  />
<polygon class="clusterblast-orf" style="stroke-width:1; stroke:black; fill:white; " points="238,40 247,40 252,35 247,30 238,30 238,40 " description="&lt;b&gt;P773_RS0105835&lt;/b&gt;&lt;br&gt;type 1 glutamine amidotransferase&lt;br&gt;Location: 1075467 - 1076187" id="dummy-6_q16_0_all" locus_tag="P773_RS0105835"  />
<polygon class="clusterblast-orf" style="stroke-width:1; stroke:black; fill:white; " points="252,40 256,35 252,30 252,40 " description="&lt;b&gt;P773_RS0105840&lt;/b&gt;&lt;br&gt;hypothetical protein&lt;br&gt;Location: 1076183 - 1076405" id="dummy-6_q17_0_all" locus_tag="P773_RS0105840"  />
<polygon class="clusterblast-orf" style="stroke-width:1; stroke:black; fill:white; " points="257,40 292,40 297,35 292,30 257,30 257,40 " description="&lt;b&gt;P773_RS0105845&lt;/b&gt;&lt;br&gt;ammonium transporter&lt;br&gt;Location: 1076452 - 1078600" id="dummy-6_q18_0_all" locus_tag="P773_RS0105845"  />
<polygon class="clusterblast-orf" style="stroke-width:1; stroke:black; fill:white; " points="297,35 302,30 319,30 319,40 302,40 297,35 " description="&lt;b&gt;P773_RS0105850&lt;/b&gt;&lt;br&gt;deoxyribodipyrimidine photo-lyase&lt;br&gt;Location: 1078630 - 1079770" id="dummy-6_q19_0_all" locus_tag="P773_RS0105850"  />
<polygon class="clusterblast-orf" style="stroke-width:1; stroke:black; fill:white; " points="319,35 324,30 326,30 326,40 324,40 319,35 " description="&lt;b&gt;P773_RS0105855&lt;/b&gt;&lt;br&gt;phosphate starvation protein PhoH&lt;br&gt;Location: 1079776 - 1080157" id="dummy-6_q20_0_all" locus_tag="P773_RS0105855"  />
<polygon class="clusterblast-orf" style="stroke-width:1; stroke:black; fill:white; " points="326,35 331,30 334,30 334,40 331,40 326,35 " description="&lt;b&gt;P773_RS0105860&lt;/b&gt;&lt;br&gt;hypothetical protein&lt;br&gt;Location: 1080156 - 1080615" id="dummy-6_q21_0_all" locus_tag="P773_RS0105860"  />
<polygon class="clusterblast-orf" style="stroke-width:1; stroke:black; fill:white; " points="336,35 341,30 358,30 358,40 341,40 336,35 " description="&lt;b&gt;P773_RS0105865&lt;/b&gt;&lt;br&gt;argininosuccinate synthase&lt;br&gt;Location: 1080675 - 1081857" id="dummy-6_q22_0_all" locus_tag="P773_RS0105865"  />
<polygon class="clusterblast-orf" style="stroke-width:1; stroke:black; fill:white; " points="358,35 363,30 367,30 367,40 363,40 358,35 " description="&lt;b&gt;P773_RS0105870&lt;/b&gt;&lt;br&gt;hypothetical protein&lt;br&gt;Location: 1081860 - 1082373" id="dummy-6_q23_0_all" locus_tag="P773_RS0105870"  />
<polygon class="clusterblast-orf" style="stroke-width:1; stroke:black; fill:white; " points="367,35 372,30 386,30 386,40 372,40 367,35 " description="&lt;b&gt;P773_RS0105875&lt;/b&gt;&lt;br&gt;aldo/keto reductase&lt;br&gt;Location: 1082363 - 1083401" id="dummy-6_q24_0_all" locus_tag="P773_RS0105875"  />
<polygon class="clusterblast-orf" style="stroke-width:1; stroke:black; fill:#15abd8; " points="388,40 397,40 402,35 397,30 388,30 388,40 " description="&lt;b&gt;P773_RS0105880&lt;/b&gt;&lt;br&gt;BAX inhibitor (BI)-1/YccA family protein&lt;br&gt;Location: 1083484 - 1084246" id="dummy-6_q25_0_all" locus_tag="P773_RS0105880"  />
<polygon class="clusterblast-orf" style="stroke-width:1; stroke:black; fill:white; " points="402,35 407,30 409,30 409,40 407,40 402,35 " description="&lt;b&gt;P773_RS0105885&lt;/b&gt;&lt;br&gt;DUF2794 domain-containing protein&lt;br&gt;Location: 1084254 - 1084593" id="dummy-6_q26_0_all" locus_tag="P773_RS0105885"  />
<polygon class="clusterblast-orf" style="stroke-width:1; stroke:black; fill:white; " points="409,35 414,30 419,30 419,40 414,40 409,35 " description="&lt;b&gt;P773_RS0105890&lt;/b&gt;&lt;br&gt;septation protein A&lt;br&gt;Location: 1084585 - 1085137" id="dummy-6_q27_0_all" locus_tag="P773_RS0105890"  />
<polygon class="clusterblast-orf" style="stroke-width:1; stroke:black; fill:white; " points="420,40 421,40 426,35 421,30 420,30 420,40 " description="&lt;b&gt;P773_RS0105895&lt;/b&gt;&lt;br&gt;heat shock protein HspQ&lt;br&gt;Location: 1085223 - 1085544" id="dummy-6_q28_0_all" locus_tag="P773_RS0105895"  />
<polygon class="clusterblast-orf" style="stroke-width:1; stroke:black; fill:#8d15d8; " points="430,40 438,40 443,35 438,30 430,30 430,40 " description="&lt;b&gt;P773_RS0105900&lt;/b&gt;&lt;br&gt;heme transporter HemC&lt;br&gt;Location: 1085720 - 1086428" id="dummy-6_q29_0_all" locus_tag="P773_RS0105900"  />
<polygon class="clusterblast-orf" style="stroke-width:1; stroke:black; fill:white; " points="443,40 447,35 443,30 443,40 " description="&lt;b&gt;P773_RS0105905&lt;/b&gt;&lt;br&gt;heme exporter protein D&lt;br&gt;Location: 1086424 - 1086652" id="dummy-6_q30_0_all" locus_tag="P773_RS0105905"  />
<polygon class="clusterblast-orf" style="stroke-width:1; stroke:black; fill:#d86f15; " points="447,40 450,40 455,35 450,30 447,30 447,40 " description="&lt;b&gt;P773_RS0105910&lt;/b&gt;&lt;br&gt;cytochrome c maturation protein CcmE&lt;br&gt;Location: 1086662 - 1087079" id="dummy-6_q31_0_all" locus_tag="P773_RS0105910"  />
<polygon class="clusterblast-orf" style="stroke-width:1; stroke:black; fill:#15d851; " points="455,40 485,40 490,35 485,30 455,30 455,40 " description="&lt;b&gt;P773_RS0105915&lt;/b&gt;&lt;br&gt;cytochrome c biogenesis protein&lt;br&gt;Location: 1087082 - 1088960" id="dummy-6_q32_0_all" locus_tag="P773_RS0105915"  />
<polygon class="clusterblast-orf" style="stroke-width:1; stroke:black; fill:#1551d8; " points="490,40 495,40 500,35 495,30 490,30 490,40 " description="&lt;b&gt;P773_RS0105920&lt;/b&gt;&lt;br&gt;DsbE family thiol:disulfide interchange protein&lt;br&gt;Location: 1088952 - 1089471" id="dummy-6_q33_0_all" locus_tag="P773_RS0105920"  />
<polygon class="clusterblast-orf" style="stroke-width:1; stroke:black; fill:#d815c9; " points="500,40 501,40 506,35 501,30 500,30 500,40 " description="&lt;b&gt;P773_RS0105925&lt;/b&gt;&lt;br&gt;cytochrome c-type biogenesis protein CcmH&lt;br&gt;Location: 1089467 - 1089830" id="dummy-6_q34_0_all" locus_tag="P773_RS0105925"  />
<polygon class="clusterblast-orf" style="stroke-width:1; stroke:black; fill:white; " points="507,40 511,40 516,35 511,30 507,30 507,40 " description="&lt;b&gt;P773_RS0105930&lt;/b&gt;&lt;br&gt;acyloxyacyl hydrolase&lt;br&gt;Location: 1089840 - 1090353" id="dummy-6_q35_0_all" locus_tag="P773_RS0105930"  />
<polygon class="clusterblast-orf" style="stroke-width:1; stroke:black; fill:white; " points="516,40 533,40 538,35 533,30 516,30 516,40 " description="&lt;b&gt;P773_RS0105935&lt;/b&gt;&lt;br&gt;alpha-hydroxy-acid oxidizing protein&lt;br&gt;Location: 1090362 - 1091514" id="dummy-6_q36_0_all" locus_tag="P773_RS0105935"  />
<polygon class="clusterblast-orf" style="stroke-width:1; stroke:black; fill:white; " points="538,40 554,40 559,35 554,30 538,30 538,40 " description="&lt;b&gt;P773_RS0105940&lt;/b&gt;&lt;br&gt;alpha-hydroxy-acid oxidizing protein&lt;br&gt;Location: 1091516 - 1092668" id="dummy-6_q37_0_all" locus_tag="P773_RS0105940"  />
<polygon class="clusterblast-orf" style="stroke-width:1; stroke:black; fill:white; " points="560,40 576,40 581,35 576,30 560,30 560,40 " description="&lt;b&gt;P773_RS0105945&lt;/b&gt;&lt;br&gt;aspartate aminotransferase&lt;br&gt;Location: 1092683 - 1093850" id="dummy-6_q38_0_all" locus_tag="P773_RS0105945"  />
<polygon class="clusterblast-orf" style="stroke-width:1; stroke:black; fill:white; " points="582,40 603,40 608,35 603,30 582,30 582,40 " description="&lt;b&gt;P773_RS0105950&lt;/b&gt;&lt;br&gt;FAD-binding protein&lt;br&gt;Location: 1093889 - 1095263" id="dummy-6_q39_0_all" locus_tag="P773_RS0105950"  />
<polygon class="clusterblast-orf" style="stroke-width:1; stroke:black; fill:#d8c915; " points="608,40 621,40 626,35 621,30 608,30 608,40 " description="&lt;b&gt;P773_RS0105955&lt;/b&gt;&lt;br&gt;D-glycerate dehydrogenase&lt;br&gt;Location: 1095278 - 1096235" id="dummy-6_q40_0_all" locus_tag="P773_RS0105955"  />
<polygon class="clusterblast-orf" style="stroke-width:1; stroke:black; fill:#15d8ab; " points="628,40 645,40 650,35 645,30 628,30 628,40 " description="&lt;b&gt;P773_RS0105960&lt;/b&gt;&lt;br&gt;C4-dicarboxylate ABC transporter&lt;br&gt;Location: 1096361 - 1097519" id="dummy-6_q41_0_all" locus_tag="P773_RS0105960"  />
<polygon class="clusterblast-orf" style="stroke-width:1; stroke:black; fill:#3315d8; " points="651,40 657,40 662,35 657,30 651,30 651,40 " description="&lt;b&gt;P773_RS0105965&lt;/b&gt;&lt;br&gt;TRAP transporter permease DctQ&lt;br&gt;Location: 1097591 - 1098179" id="dummy-6_q42_0_all" locus_tag="P773_RS0105965"  />
<polygon class="clusterblast-orf" style="stroke-width:1; stroke:black; fill:#d8156f; " points="662,40 682,40 687,35 682,30 662,30 662,40 " description="&lt;b&gt;P773_RS0105970&lt;/b&gt;&lt;br&gt;C4-dicarboxylate ABC transporter&lt;br&gt;Location: 1098168 - 1099530" id="dummy-6_q43_0_all" locus_tag="P773_RS0105970"  />
<polygon class="clusterblast-orf" style="stroke-width:1; stroke:black; fill:#8dd815; " points="687,40 707,40 712,35 707,30 687,30 687,40 " description="&lt;b&gt;P773_RS0105975&lt;/b&gt;&lt;br&gt;amidase&lt;br&gt;Location: 1099532 - 1100861" id="dummy-6_q44_0_all" locus_tag="P773_RS0105975"  />
<polygon class="clusterblast-orf" style="stroke-width:1; stroke:black; fill:white; " points="716,40 728,40 733,35 728,30 716,30 716,40 " description="&lt;b&gt;P773_RS0105985&lt;/b&gt;&lt;br&gt;EamA/RhaT family transporter&lt;br&gt;Location: 1101057 - 1101963" id="dummy-6_q45_0_all" locus_tag="P773_RS0105985"  />
<polygon class="clusterblast-orf" style="stroke-width:1; stroke:black; fill:white; " points="732,40 743,40 748,35 743,30 732,30 732,40 " description="&lt;b&gt;P773_RS0105990&lt;/b&gt;&lt;br&gt;alpha/beta hydrolase&lt;br&gt;Location: 1101946 - 1102765" id="dummy-6_q46_0_all" locus_tag="P773_RS0105990"  />
<polygon class="clusterblast-orf" style="stroke-width:1; stroke:black; fill:white; " points="749,40 754,40 759,35 754,30 749,30 749,40 " description="&lt;b&gt;P773_RS0105995&lt;/b&gt;&lt;br&gt;hypothetical protein&lt;br&gt;Location: 1102813 - 1103377" id="dummy-6_q47_0_all" locus_tag="P773_RS0105995"  />
</g>
<g label="NZ_CP016397" class="clusterblast-cluster" description="NZ_CP016397_c8: Legionella clemsonensis strain CDC-D5610 chromosome, complete... (14% of genes show similarity), nrps"  >
<text class="clusterblast-acc" y="70" x="5"  >
<a xlink:href="https://antismash-db.secondarymetabolites.org/go/NZ_CP016397/8" target="_blank">NZ_CP016397_c8</a>: Legionella clemsonensis strain CDC-D5610 chromosome, complete... (14% of genes show similarity), nrps</text>
<line style="stroke-width:1; stroke:grey; " y1="85" x2="778.0" y2="85" x1="10"  />
</g>
<g id="a6_000"  >
<polygon class="clusterblast-orf" style="stroke-width:1; stroke:black; fill:white; " points="0,90 6,90 11,85 6,80 0,80 0,90 " description="&lt;b&gt;clem_RS08795&lt;/b&gt;&lt;br&gt;hypothetical protein&lt;br&gt;Location: 2028460 - 2027825" id="dummy-6_h6_10_0" locus_tag="clem_RS08795"  />
</g>
<g id="a6_001"  >
<polygon class="clusterblast-orf" style="stroke-width:1; stroke:black; fill:white; " points="15,90 74,90 79,85 74,80 15,80 15,90 " description="&lt;b&gt;clem_RS08790&lt;/b&gt;&lt;br&gt;DNA polymerase III subunit alpha&lt;br&gt;Location: 2027631 - 2024185" id="dummy-6_h6_10_1" locus_tag="clem_RS08790"  />
</g>
<g id="a6_002"  >
<polygon class="clusterblast-orf" style="stroke-width:1; stroke:black; fill:white; " points="80,85 85,80 134,80 134,90 85,90 80,85 " description="&lt;b&gt;clem_RS08785&lt;/b&gt;&lt;br&gt;Flp family type IVb pilin&lt;br&gt;Location: 2024137 - 2021225" id="dummy-6_h6_10_2" locus_tag="clem_RS08785"  />
</g>
<g id="a6_003"  >
<polygon class="clusterblast-orf" style="stroke-width:1; stroke:black; fill:white; " points="137,85 142,80 164,80 164,90 142,90 137,85 " description="&lt;b&gt;clem_RS08780&lt;/b&gt;&lt;br&gt;HlyD family type I secretion periplasmic adaptor subunit&lt;br&gt;Location: 2021070 - 2019652" id="dummy-6_h6_10_3" locus_tag="clem_RS08780"  />
</g>
<g id="a6_004"  >
<polygon class="clusterblast-orf" style="stroke-width:1; stroke:black; fill:white; " points="162,85 167,80 194,80 194,90 167,90 162,85 " description="&lt;b&gt;clem_RS08775&lt;/b&gt;&lt;br&gt;type I secretion system permease/ATPase&lt;br&gt;Location: 2019755 - 2018040" id="dummy-6_h6_10_4" locus_tag="clem_RS08775"  />
</g>
<g id="a6_005"  >
<polygon class="clusterblast-orf" style="stroke-width:1; stroke:black; fill:white; " points="199,90 205,90 210,85 205,80 199,80 199,90 " description="&lt;b&gt;clem_RS08770&lt;/b&gt;&lt;br&gt;hypothetical protein&lt;br&gt;Location: 2017775 - 2017185" id="dummy-6_h6_10_5" locus_tag="clem_RS08770"  />
</g>
<g id="a6_006"  >
<polygon class="clusterblast-orf" style="stroke-width:1; stroke:black; fill:white; " points="212,90 233,90 238,85 233,80 212,80 212,90 " description="&lt;b&gt;clem_RS08765&lt;/b&gt;&lt;br&gt;sigma-54-dependent Fis family transcriptional regulator&lt;br&gt;Location: 2017072 - 2015675" id="dummy-6_h6_10_6" locus_tag="clem_RS08765"  />
</g>
<g id="a6_007"  >
<polygon class="clusterblast-orf" style="stroke-width:1; stroke:black; fill:white; " points="238,85 243,80 244,80 244,90 243,90 238,85 " description="&lt;b&gt;clem_RS08760&lt;/b&gt;&lt;br&gt;hypothetical protein&lt;br&gt;Location: 2015659 - 2015342" id="dummy-6_h6_10_7" locus_tag="clem_RS08760"  />
</g>
<g id="a6_008"  >
<polygon class="clusterblast-orf" style="stroke-width:1; stroke:black; fill:white; " points="248,85 253,80 276,80 276,90 253,90 248,85 " description="&lt;b&gt;clem_RS08755&lt;/b&gt;&lt;br&gt;hypothetical protein&lt;br&gt;Location: 2015134 - 2013638" id="dummy-6_h6_10_8" locus_tag="clem_RS08755"  />
</g>
<g id="a6_009"  >
<polygon class="clusterblast-orf" style="stroke-width:1; stroke:black; fill:white; " points="278,85 283,80 296,80 296,90 283,90 278,85 " description="&lt;b&gt;clem_RS08750&lt;/b&gt;&lt;br&gt;hypothetical protein&lt;br&gt;Location: 2013541 - 2012561" id="dummy-6_h6_10_9" locus_tag="clem_RS08750"  />
</g>
<g id="a6_0010"  >
<polygon class="clusterblast-orf" style="stroke-width:1; stroke:black; fill:white; " points="304,90 341,90 346,85 341,80 304,80 304,90 " description="&lt;b&gt;clem_RS08745&lt;/b&gt;&lt;br&gt;MMPL family transporter&lt;br&gt;Location: 2012125 - 2009903" id="dummy-6_h6_10_10" locus_tag="clem_RS08745"  />
</g>
<g id="a6_0011"  >
<polygon class="clusterblast-orf" style="stroke-width:1; stroke:black; fill:white; " points="347,90 403,90 408,85 403,80 347,80 347,90 " description="&lt;b&gt;clem_RS08740&lt;/b&gt;&lt;br&gt;non-ribosomal peptide synthetase&lt;br&gt;Location: 2009830 - 2006546" id="dummy-6_h6_10_11" locus_tag="clem_RS08740"  />
</g>
<g id="a6_0012"  >
<polygon class="clusterblast-orf" style="stroke-width:1; stroke:black; fill:white; " points="410,90 411,90 416,85 411,80 410,80 410,90 " description="&lt;b&gt;clem_RS08735&lt;/b&gt;&lt;br&gt;hypothetical protein&lt;br&gt;Location: 2006471 - 2006124" id="dummy-6_h6_10_12" locus_tag="clem_RS08735"  />
</g>
<g id="a6_0013"  >
<polygon class="clusterblast-orf" style="stroke-width:1; stroke:black; fill:white; " points="417,90 425,90 430,85 425,80 417,80 417,90 " description="&lt;b&gt;clem_RS08730&lt;/b&gt;&lt;br&gt;hypothetical protein&lt;br&gt;Location: 2006058 - 2005402" id="dummy-6_h6_10_13" locus_tag="clem_RS08730"  />
</g>
<g id="a6_0014"  >
<polygon class="clusterblast-orf" style="stroke-width:1; stroke:black; fill:white; " points="430,85 433,80 433,90 430,85 " description="&lt;b&gt;clem_RS08725&lt;/b&gt;&lt;br&gt;DUF1328 domain-containing protein&lt;br&gt;Location: 2005396 - 2005202" id="dummy-6_h6_10_14" locus_tag="clem_RS08725"  />
</g>
<g id="a6_0015"  >
<polygon class="clusterblast-orf" style="stroke-width:1; stroke:black; fill:white; " points="436,85 441,80 453,80 453,90 441,90 436,85 " description="&lt;b&gt;clem_RS08720&lt;/b&gt;&lt;br&gt;protease SohB&lt;br&gt;Location: 2005075 - 2004134" id="dummy-6_h6_10_15" locus_tag="clem_RS08720"  />
</g>
<g id="a6_0016"  >
<polygon class="clusterblast-orf" style="stroke-width:1; stroke:black; fill:white; " points="457,90 496,90 501,85 496,80 457,80 457,90 " description="&lt;b&gt;clem_RS08715&lt;/b&gt;&lt;br&gt;hypothetical protein&lt;br&gt;Location: 2003927 - 2001585" id="dummy-6_h6_10_16" locus_tag="clem_RS08715"  />
</g>
<g id="a6_0017"  >
<polygon class="clusterblast-orf" style="stroke-width:1; stroke:black; fill:white; " points="504,90 511,90 516,85 511,80 504,80 504,90 " description="&lt;b&gt;clem_RS08710&lt;/b&gt;&lt;br&gt;cytochrome c biogenesis heme-transporting ATPase CcmA&lt;br&gt;Location: 2001401 - 2000802" id="dummy-6_h6_10_17" locus_tag="clem_RS08710"  />
</g>
<g id="a6_0018"  >
<polygon class="clusterblast-orf" style="stroke-width:1; stroke:black; fill:white; " points="516,90 523,90 528,85 523,80 516,80 516,90 " description="&lt;b&gt;clem_RS08705&lt;/b&gt;&lt;br&gt;heme exporter protein CcmB&lt;br&gt;Location: 2000785 - 2000114" id="dummy-6_h6_10_18" locus_tag="clem_RS08705"  />
</g>
<g id="a6_0019"  >
<polygon class="clusterblast-orf" style="stroke-width:1; stroke:black; fill:#8d15d8; " points="529,90 538,90 543,85 538,80 529,80 529,90 " description="&lt;b&gt;clem_RS08700&lt;/b&gt;&lt;br&gt;heme ABC transporter permease&lt;br&gt;Location: 2000071 - 1999328&lt;br&gt;&lt;br&gt;&lt;b&gt;BlastP hit with P773_RS0105900&lt;/b&gt;&lt;br&gt;Percentage identity: 39&lt;br&gt;Percentage coverage: 96&lt;br&gt;BLAST bit score: 166&lt;br&gt;E-value: 3.5e-39" id="dummy-6_h6_10_19" locus_tag="clem_RS08700"  />
</g>
<g id="a6_0020"  >
<polygon class="clusterblast-orf" style="stroke-width:1; stroke:black; fill:white; " points="543,90 546,85 543,80 543,90 " description="&lt;b&gt;clem_RS08695&lt;/b&gt;&lt;br&gt;heme exporter protein CcmD&lt;br&gt;Location: 1999304 - 1999167" id="dummy-6_h6_10_20" locus_tag="clem_RS08695"  />
</g>
<g id="a6_0021"  >
<polygon class="clusterblast-orf" style="stroke-width:1; stroke:black; fill:#d86f15; " points="546,90 549,90 554,85 549,80 546,80 546,90 " description="&lt;b&gt;clem_RS08690&lt;/b&gt;&lt;br&gt;cytochrome c maturation protein CcmE&lt;br&gt;Location: 1999170 - 1998721&lt;br&gt;&lt;br&gt;&lt;b&gt;BlastP hit with P773_RS0105910&lt;/b&gt;&lt;br&gt;Percentage identity: 45&lt;br&gt;Percentage coverage: 82&lt;br&gt;BLAST bit score: 103&lt;br&gt;E-value: 2.1e-20" id="dummy-6_h6_10_21" locus_tag="clem_RS08690"  />
</g>
<g id="a6_0022"  >
<polygon class="clusterblast-orf" style="stroke-width:1; stroke:black; fill:#15d851; " points="554,90 586,90 591,85 586,80 554,80 554,90 " description="&lt;b&gt;clem_RS08685&lt;/b&gt;&lt;br&gt;heme lyase CcmF/NrfE family subunit&lt;br&gt;Location: 1998724 - 1996775&lt;br&gt;&lt;br&gt;&lt;b&gt;BlastP hit with P773_RS0105915&lt;/b&gt;&lt;br&gt;Percentage identity: 34&lt;br&gt;Percentage coverage: 102&lt;br&gt;BLAST bit score: 324&lt;br&gt;E-value: 2.7e-86" id="dummy-6_h6_10_22" locus_tag="clem_RS08685"  />
</g>
<g id="a6_0023"  >
<polygon class="clusterblast-orf" style="stroke-width:1; stroke:black; fill:#1551d8; " points="591,90 595,90 600,85 595,80 591,80 591,90 " description="&lt;b&gt;clem_RS08680&lt;/b&gt;&lt;br&gt;DsbE family thiol:disulfide interchange protein&lt;br&gt;Location: 1996778 - 1996251&lt;br&gt;&lt;br&gt;&lt;b&gt;BlastP hit with P773_RS0105920&lt;/b&gt;&lt;br&gt;Percentage identity: 35&lt;br&gt;Percentage coverage: 101&lt;br&gt;BLAST bit score: 92&lt;br&gt;E-value: 6.1e-17" id="dummy-6_h6_10_23" locus_tag="clem_RS08680"  />
</g>
<g id="a6_0024"  >
<polygon class="clusterblast-orf" style="stroke-width:1; stroke:black; fill:#d815c9; " points="600,90 603,90 608,85 603,80 600,80 600,90 " description="&lt;b&gt;clem_RS08675&lt;/b&gt;&lt;br&gt;cytochrome c-type biogenesis protein CcmH&lt;br&gt;Location: 1996254 - 1995853&lt;br&gt;&lt;br&gt;&lt;b&gt;BlastP hit with P773_RS0105925&lt;/b&gt;&lt;br&gt;Percentage identity: 32&lt;br&gt;Percentage coverage: 95&lt;br&gt;BLAST bit score: 63&lt;br&gt;E-value: 1.6e-08" id="dummy-6_h6_10_24" locus_tag="clem_RS08675"  />
</g>
<g id="a6_0025"  >
<polygon class="clusterblast-orf" style="stroke-width:1; stroke:black; fill:white; " points="608,90 615,90 620,85 615,80 608,80 608,90 " description="&lt;b&gt;clem_RS08670&lt;/b&gt;&lt;br&gt;tetratricopeptide repeat protein&lt;br&gt;Location: 1995860 - 1995198" id="dummy-6_h6_10_25" locus_tag="clem_RS08670"  />
</g>
<g id="a6_0026"  >
<polygon class="clusterblast-orf" style="stroke-width:1; stroke:black; fill:white; " points="620,90 638,90 643,85 638,80 620,80 620,90 " description="&lt;b&gt;clem_RS08665&lt;/b&gt;&lt;br&gt;hypothetical protein&lt;br&gt;Location: 1995190 - 1993952" id="dummy-6_h6_10_26" locus_tag="clem_RS08665"  />
</g>
<g id="a6_0027"  >
<polygon class="clusterblast-orf" style="stroke-width:1; stroke:black; fill:white; " points="644,90 655,90 660,85 655,80 644,80 644,90 " description="&lt;b&gt;clem_RS08660&lt;/b&gt;&lt;br&gt;LD-carboxypeptidase&lt;br&gt;Location: 1993928 - 1993032" id="dummy-6_h6_10_27" locus_tag="clem_RS08660"  />
</g>
<g id="a6_0028"  >
<polygon class="clusterblast-orf" style="stroke-width:1; stroke:black; fill:white; " points="666,90 670,85 666,80 666,90 " description="&lt;b&gt;clem_RS08655&lt;/b&gt;&lt;br&gt;dodecin domain-containing protein&lt;br&gt;Location: 1992725 - 1992519" id="dummy-6_h6_10_28" locus_tag="clem_RS08655"  />
</g>
<g id="a6_0029"  >
<polygon class="clusterblast-orf" style="stroke-width:1; stroke:black; fill:white; " points="673,85 678,80 707,80 707,90 678,90 673,85 " description="&lt;b&gt;clem_RS08650&lt;/b&gt;&lt;br&gt;DNA helicase RecQ&lt;br&gt;Location: 1992342 - 1990513" id="dummy-6_h6_10_29" locus_tag="clem_RS08650"  />
</g>
<g id="a6_0030"  >
<polygon class="clusterblast-orf" style="stroke-width:1; stroke:black; fill:white; " points="711,90 728,90 733,85 728,80 711,80 711,90 " description="&lt;b&gt;clem_RS08645&lt;/b&gt;&lt;br&gt;acyl-CoA dehydrogenase&lt;br&gt;Location: 1990301 - 1989147" id="dummy-6_h6_10_30" locus_tag="clem_RS08645"  />
</g>
<g id="a6_0031"  >
<polygon class="clusterblast-orf" style="stroke-width:1; stroke:black; fill:white; " points="734,90 743,90 748,85 743,80 734,80 734,90 " description="&lt;b&gt;clem_RS08640&lt;/b&gt;&lt;br&gt;enoyl-CoA hydratase&lt;br&gt;Location: 1989097 - 1988321" id="dummy-6_h6_10_31" locus_tag="clem_RS08640"  />
</g>
<g id="a6_0032"  >
<polygon class="clusterblast-orf" style="stroke-width:1; stroke:black; fill:white; " points="748,90 763,90 768,85 763,80 748,80 748,90 " description="&lt;b&gt;clem_RS08635&lt;/b&gt;&lt;br&gt;enoyl-CoA hydratase/isomerase family protein&lt;br&gt;Location: 1988317 - 1987265" id="dummy-6_h6_10_32" locus_tag="clem_RS08635"  />
</g>
<g id="a6_0033"  >
<polygon class="clusterblast-orf" style="stroke-width:1; stroke:black; fill:white; " points="770,90 775,90 780,85 775,80 770,80 770,90 " description="&lt;b&gt;clem_RS08630&lt;/b&gt;&lt;br&gt;hypothetical protein&lt;br&gt;Location: 1987159 - 1986653" id="dummy-6_h6_10_33" locus_tag="clem_RS08630"  />
</g>
</svg>
