<svg version="1.1" preserveAspectRatio="none" width="800" y="0" xmlns:xlink="http://www.w3.org/1999/xlink" height="230" x="0" xmlns="http://www.w3.org/2000/svg" viewBox="0 0 800 230"  >
<g label="Query sequence" class="clusterblast-cluster"  >
<text class="clusterblast-acc" y="20" x="5"  >
Query sequence</text>
<line style="stroke-width:1; stroke:grey; " y1="35" x2="778.0" y2="35" x1="10"  />
<polygon class="clusterblast-orf" style="stroke-width:1; stroke:black; fill:white; " points="0,40 11,40 16,35 11,30 0,30 0,40 " description="&lt;b&gt;P773_RS0101415&lt;/b&gt;&lt;br&gt;4-hydroxy-tetrahydrodipicolinate synthase&lt;br&gt;Location: 250375 - 251257" id="dummy-2_q0_0_all" locus_tag="P773_RS0101415"  />
<polygon class="clusterblast-orf" style="stroke-width:1; stroke:black; fill:white; " points="16,40 19,40 24,35 19,30 16,30 16,40 " description="&lt;b&gt;P773_RS0101420&lt;/b&gt;&lt;br&gt;SsrA-binding protein SmpB&lt;br&gt;Location: 251256 - 251727" id="dummy-2_q1_0_all" locus_tag="P773_RS0101420"  />
<polygon class="clusterblast-orf" style="stroke-width:1; stroke:black; fill:white; " points="24,40 28,40 33,35 28,30 24,30 24,40 " description="&lt;b&gt;P773_RS0101425&lt;/b&gt;&lt;br&gt;2-amino-4-hydroxy-6- hydroxymethyldihydropteridine diphosphokinase&lt;br&gt;Location: 251692 - 252205" id="dummy-2_q2_0_all" locus_tag="P773_RS0101425"  />
<polygon class="clusterblast-orf" style="stroke-width:1; stroke:black; fill:#d81515; " points="33,40 60,40 65,35 60,30 33,30 33,40 " description="&lt;b&gt;P773_RS0101430&lt;/b&gt;&lt;br&gt;bifunctional (p)ppGpp synthetase/guanosine-3',5'-bis(diphosphate) 3'-pyrophosphohydrolase&lt;br&gt;Location: 252224 - 253970" id="dummy-2_q3_0_all" locus_tag="P773_RS0101430"  />
<polygon class="clusterblast-orf" style="stroke-width:1; stroke:black; fill:white; " points="64,40 70,40 75,35 70,30 64,30 64,40 " description="&lt;b&gt;P773_RS0101435&lt;/b&gt;&lt;br&gt;orotate phosphoribosyltransferase&lt;br&gt;Location: 253926 - 254514" id="dummy-2_q4_0_all" locus_tag="P773_RS0101435"  />
<polygon class="clusterblast-orf" style="stroke-width:1; stroke:black; fill:#5cd815; " points="75,40 83,40 88,35 83,30 75,30 75,40 " description="&lt;b&gt;P773_RS0101440&lt;/b&gt;&lt;br&gt;pyridoxine 5'-phosphate synthase&lt;br&gt;Location: 254510 - 255230" id="dummy-2_q5_0_all" locus_tag="P773_RS0101440"  />
<polygon class="clusterblast-orf" style="stroke-width:1; stroke:black; fill:#15a3d8; " points="88,40 90,40 95,35 90,30 88,30 88,40 " description="&lt;b&gt;P773_RS0101445&lt;/b&gt;&lt;br&gt;holo-[acyl-carrier-protein] synthase&lt;br&gt;Location: 255233 - 255620" id="dummy-2_q6_0_all" locus_tag="P773_RS0101445"  />
<polygon class="clusterblast-orf" style="stroke-width:1; stroke:black; fill:#9115d8; " points="95,40 103,40 108,35 103,30 95,30 95,40 " description="&lt;b&gt;P773_RS0101450&lt;/b&gt;&lt;br&gt;signal peptidase I&lt;br&gt;Location: 255616 - 256354" id="dummy-2_q7_0_all" locus_tag="P773_RS0101450"  />
<polygon class="clusterblast-orf" style="stroke-width:1; stroke:black; fill:#d84a15; " points="108,40 116,40 121,35 116,30 108,30 108,40 " description="&lt;b&gt;P773_RS0101455&lt;/b&gt;&lt;br&gt;ribonuclease III&lt;br&gt;Location: 256353 - 257016" id="dummy-2_q8_0_all" locus_tag="P773_RS0101455"  />
<polygon class="clusterblast-orf" style="stroke-width:1; stroke:black; fill:white; " points="121,40 128,40 133,35 128,30 121,30 121,40 " description="&lt;b&gt;P773_RS0101460&lt;/b&gt;&lt;br&gt;DNA repair protein RecO&lt;br&gt;Location: 257023 - 257704" id="dummy-2_q9_0_all" locus_tag="P773_RS0101460"  />
<polygon class="clusterblast-orf" style="stroke-width:1; stroke:black; fill:#27d815; " points="133,35 138,30 151,30 151,40 138,40 133,35 " description="&lt;b&gt;P773_RS0101465&lt;/b&gt;&lt;br&gt;porphobilinogen synthase&lt;br&gt;Location: 257704 - 258694" id="dummy-2_q10_0_all" locus_tag="P773_RS0101465"  />
<polygon class="clusterblast-orf" style="stroke-width:1; stroke:black; fill:white; " points="153,40 159,40 164,35 159,30 153,30 153,40 " description="&lt;b&gt;P773_RS0101470&lt;/b&gt;&lt;br&gt;peptide-aspartate beta-dioxygenase&lt;br&gt;Location: 258790 - 259381" id="dummy-2_q11_0_all" locus_tag="P773_RS0101470"  />
<polygon class="clusterblast-orf" style="stroke-width:1; stroke:black; fill:#156ed8; " points="164,40 166,40 171,35 166,30 164,30 164,40 " description="&lt;b&gt;P773_RS0101475&lt;/b&gt;&lt;br&gt;ribose 5-phosphate isomerase B&lt;br&gt;Location: 259382 - 259808" id="dummy-2_q12_0_all" locus_tag="P773_RS0101475"  />
<polygon class="clusterblast-orf" style="stroke-width:1; stroke:black; fill:#c715d8; " points="171,40 190,40 195,35 190,30 171,30 171,40 " description="&lt;b&gt;P773_RS0101480&lt;/b&gt;&lt;br&gt;serine hydroxymethyltransferase&lt;br&gt;Location: 259810 - 261118" id="dummy-2_q13_0_all" locus_tag="P773_RS0101480"  />
<polygon class="clusterblast-orf" style="stroke-width:1; stroke:black; fill:#d88015; " points="195,40 199,40 204,35 199,30 195,30 195,40 " description="&lt;b&gt;P773_RS0101485&lt;/b&gt;&lt;br&gt;transcriptional repressor NrdR&lt;br&gt;Location: 261120 - 261579" id="dummy-2_q14_0_all" locus_tag="P773_RS0101485"  />
<polygon class="clusterblast-orf" style="stroke-width:1; stroke:black; fill:#15d839; " points="203,40 218,40 223,35 218,30 203,30 203,40 " description="&lt;b&gt;P773_RS0101490&lt;/b&gt;&lt;br&gt;bifunctional diaminohydroxyphosphoribosylaminopyrimidine deaminase/5-amino-6-(5-phosphoribosylamino)uracil reductase RibD&lt;br&gt;Location: 261559 - 262666" id="dummy-2_q15_0_all" locus_tag="P773_RS0101490"  />
<polygon class="clusterblast-orf" style="stroke-width:1; stroke:black; fill:#1539d8; " points="223,40 229,40 234,35 229,30 223,30 223,40 " description="&lt;b&gt;P773_RS0101495&lt;/b&gt;&lt;br&gt;riboflavin synthase&lt;br&gt;Location: 262667 - 263261" id="dummy-2_q16_0_all" locus_tag="P773_RS0101495"  />
<polygon class="clusterblast-orf" style="stroke-width:1; stroke:black; fill:#d815b5; " points="234,40 249,40 254,35 249,30 234,30 234,40 " description="&lt;b&gt;P773_RS0101500&lt;/b&gt;&lt;br&gt;3,4-dihydroxy-2-butanone-4-phosphate synthase&lt;br&gt;Location: 263247 - 264348" id="dummy-2_q17_0_all" locus_tag="P773_RS0101500"  />
<polygon class="clusterblast-orf" style="stroke-width:1; stroke:black; fill:#d8b515; " points="254,40 256,40 261,35 256,30 254,30 254,40 " description="&lt;b&gt;P773_RS0101505&lt;/b&gt;&lt;br&gt;6,7-dimethyl-8-ribityllumazine synthase&lt;br&gt;Location: 264347 - 264737" id="dummy-2_q18_0_all" locus_tag="P773_RS0101505"  />
<polygon class="clusterblast-orf" style="stroke-width:1; stroke:black; fill:white; " points="261,40 263,40 268,35 263,30 261,30 261,40 " description="&lt;b&gt;P773_RS0101510&lt;/b&gt;&lt;br&gt;antitermination protein&lt;br&gt;Location: 264733 - 265138" id="dummy-2_q19_0_all" locus_tag="P773_RS0101510"  />
<polygon class="clusterblast-orf" style="stroke-width:1; stroke:black; fill:white; " points="268,40 281,40 286,35 281,30 268,30 268,40 " description="&lt;b&gt;P773_RS0101515&lt;/b&gt;&lt;br&gt;thiamine-phosphate kinase&lt;br&gt;Location: 265130 - 266090" id="dummy-2_q20_0_all" locus_tag="P773_RS0101515"  />
<polygon class="clusterblast-orf" style="stroke-width:1; stroke:black; fill:#15d86e; " points="287,40 320,40 325,35 320,30 287,30 287,40 " description="&lt;b&gt;P773_RS0101520&lt;/b&gt;&lt;br&gt;sodium-translocating pyrophosphatase&lt;br&gt;Location: 266168 - 268274" id="dummy-2_q21_0_all" locus_tag="P773_RS0101520"  />
<polygon class="clusterblast-orf" style="stroke-width:1; stroke:black; fill:white; " points="325,35 330,30 334,30 334,40 330,40 325,35 " description="&lt;b&gt;P773_RS0101525&lt;/b&gt;&lt;br&gt;outer membrane protein assembly factor BamE&lt;br&gt;Location: 268260 - 268746" id="dummy-2_q22_0_all" locus_tag="P773_RS0101525"  />
<polygon class="clusterblast-orf" style="stroke-width:1; stroke:black; fill:white; " points="334,40 337,40 342,35 337,30 334,30 334,40 " description="&lt;b&gt;P773_RS0101530&lt;/b&gt;&lt;br&gt;ubiquinol-cytochrome c reductase&lt;br&gt;Location: 268744 - 269212" id="dummy-2_q23_0_all" locus_tag="P773_RS0101530"  />
<polygon class="clusterblast-orf" style="stroke-width:1; stroke:black; fill:white; " points="342,40 346,35 342,30 342,40 " description="&lt;b&gt;P773_RS0101535&lt;/b&gt;&lt;br&gt;50S ribosomal protein L32&lt;br&gt;Location: 269214 - 269397" id="dummy-2_q24_0_all" locus_tag="P773_RS0101535"  />
<polygon class="clusterblast-orf" style="stroke-width:1; stroke:black; fill:#2715d8; " points="346,40 360,40 365,35 360,30 346,30 346,40 " description="&lt;b&gt;P773_RS0101540&lt;/b&gt;&lt;br&gt;phosphate acyltransferase PlsX&lt;br&gt;Location: 269426 - 270428" id="dummy-2_q25_0_all" locus_tag="P773_RS0101540"  />
<polygon class="clusterblast-orf" style="stroke-width:1; stroke:black; fill:#d81580; " points="365,40 365,40 370,35 365,30 365,30 365,40 " description="&lt;b&gt;P773_RS0101545&lt;/b&gt;&lt;br&gt;integration host factor subunit alpha&lt;br&gt;Location: 270432 - 270732" id="dummy-2_q26_0_all" locus_tag="P773_RS0101545"  />
<polygon class="clusterblast-orf" style="stroke-width:1; stroke:black; fill:#c7d815; " points="370,40 372,40 377,35 372,30 370,30 370,40 " description="&lt;b&gt;P773_RS0101550&lt;/b&gt;&lt;br&gt;transcriptional regulator&lt;br&gt;Location: 270721 - 271096" id="dummy-2_q27_0_all" locus_tag="P773_RS0101550"  />
<polygon class="clusterblast-orf" style="stroke-width:1; stroke:black; fill:white; " points="377,40 380,35 377,30 377,40 " description="&lt;b&gt;P773_RS0101555&lt;/b&gt;&lt;br&gt;50S ribosomal protein L33&lt;br&gt;Location: 271097 - 271289" id="dummy-2_q28_0_all" locus_tag="P773_RS0101555"  />
<polygon class="clusterblast-orf" style="stroke-width:1; stroke:black; fill:white; " points="380,35 385,30 385,30 385,40 385,40 380,35 " description="&lt;b&gt;P773_RS0101560&lt;/b&gt;&lt;br&gt;chorismate mutase&lt;br&gt;Location: 271289 - 271580" id="dummy-2_q29_0_all" locus_tag="P773_RS0101560"  />
<polygon class="clusterblast-orf" style="stroke-width:1; stroke:black; fill:#15d8a3; " points="386,40 400,40 405,35 400,30 386,30 386,40 " description="&lt;b&gt;P773_RS0101565&lt;/b&gt;&lt;br&gt;heme A synthase&lt;br&gt;Location: 271623 - 272655" id="dummy-2_q30_0_all" locus_tag="P773_RS0101565"  />
<polygon class="clusterblast-orf" style="stroke-width:1; stroke:black; fill:#5c15d8; " points="405,35 410,30 429,30 429,40 410,40 405,35 " description="&lt;b&gt;P773_RS0101570&lt;/b&gt;&lt;br&gt;O-acetylhomoserine aminocarboxypropyltransferase&lt;br&gt;Location: 272637 - 273966" id="dummy-2_q31_0_all" locus_tag="P773_RS0101570"  />
<polygon class="clusterblast-orf" style="stroke-width:1; stroke:black; fill:#d8154a; " points="433,40 436,40 441,35 436,30 433,30 433,40 " description="&lt;b&gt;P773_RS0101575&lt;/b&gt;&lt;br&gt;50S ribosomal protein L13&lt;br&gt;Location: 274173 - 274632" id="dummy-2_q32_0_all" locus_tag="P773_RS0101575"  />
<polygon class="clusterblast-orf" style="stroke-width:1; stroke:black; fill:#91d815; " points="441,40 444,40 449,35 444,30 441,30 441,40 " description="&lt;b&gt;P773_RS0101580&lt;/b&gt;&lt;br&gt;30S ribosomal protein S9&lt;br&gt;Location: 274633 - 275071" id="dummy-2_q33_0_all" locus_tag="P773_RS0101580"  />
<polygon class="clusterblast-orf" style="stroke-width:1; stroke:black; fill:white; " points="450,40 463,40 468,35 463,30 450,30 450,40 " description="&lt;b&gt;P773_RS0101585&lt;/b&gt;&lt;br&gt;N-acetyl-gamma-glutamyl-phosphate reductase&lt;br&gt;Location: 275104 - 276124" id="dummy-2_q34_0_all" locus_tag="P773_RS0101585"  />
<polygon class="clusterblast-orf" style="stroke-width:1; stroke:black; fill:white; " points="468,40 472,35 468,30 468,40 " description="&lt;b&gt;P773_RS0101590&lt;/b&gt;&lt;br&gt;hypothetical protein&lt;br&gt;Location: 276123 - 276351" id="dummy-2_q35_0_all" locus_tag="P773_RS0101590"  />
<polygon class="clusterblast-orf" style="stroke-width:1; stroke:black; fill:#15d8d8; " points="472,40 491,40 496,35 491,30 472,30 472,40 " description="&lt;b&gt;P773_RS0101595&lt;/b&gt;&lt;br&gt;homoserine dehydrogenase&lt;br&gt;Location: 276347 - 277640" id="dummy-2_q36_0_all" locus_tag="P773_RS0101595"  />
<polygon class="clusterblast-orf" style="stroke-width:1; stroke:black; fill:white; " points="496,40 507,40 512,35 507,30 496,30 496,40 " description="&lt;b&gt;P773_RS0101600&lt;/b&gt;&lt;br&gt;transporter&lt;br&gt;Location: 277642 - 278545" id="dummy-2_q37_0_all" locus_tag="P773_RS0101600"  />
<polygon class="clusterblast-orf" style="stroke-width:1; stroke:black; fill:white; " points="513,40 523,40 528,35 523,30 513,30 513,40 " description="&lt;b&gt;P773_RS0101605&lt;/b&gt;&lt;br&gt;EamA/RhaT family transporter&lt;br&gt;Location: 278562 - 279417" id="dummy-2_q38_0_all" locus_tag="P773_RS0101605"  />
<polygon class="clusterblast-orf" style="stroke-width:1; stroke:black; fill:white; " points="538,35 543,30 543,30 543,40 543,40 538,35 " description="&lt;b&gt;P773_RS0101610&lt;/b&gt;&lt;br&gt;methylated-DNA--[protein]-cysteine S-methyltransferase&lt;br&gt;Location: 279957 - 280242" id="dummy-2_q39_0_all" locus_tag="P773_RS0101610"  />
<polygon class="clusterblast-orf" style="stroke-width:1; stroke:black; fill:white; " points="543,35 548,30 551,30 551,40 548,40 543,35 " description="&lt;b&gt;P773_RS0101615&lt;/b&gt;&lt;br&gt;N-acetyltransferase&lt;br&gt;Location: 280213 - 280651" id="dummy-2_q40_0_all" locus_tag="P773_RS0101615"  />
<polygon class="clusterblast-orf" style="stroke-width:1; stroke:black; fill:white; " points="551,35 556,30 560,30 560,40 556,40 551,35 " description="&lt;b&gt;P773_RS0101620&lt;/b&gt;&lt;br&gt;DUF2938 domain-containing protein&lt;br&gt;Location: 280694 - 281189" id="dummy-2_q41_0_all" locus_tag="P773_RS0101620"  />
<polygon class="clusterblast-orf" style="stroke-width:1; stroke:black; fill:white; " points="566,40 578,40 583,35 578,30 566,30 566,40 " description="&lt;b&gt;P773_RS0101630&lt;/b&gt;&lt;br&gt;integrase&lt;br&gt;Location: 281485 - 282442" id="dummy-2_q42_0_all" locus_tag="P773_RS0101630"  />
<polygon class="clusterblast-orf" style="stroke-width:1; stroke:black; fill:white; " points="583,35 588,30 602,30 602,40 588,40 583,35 " description="&lt;b&gt;P773_RS0101635&lt;/b&gt;&lt;br&gt;glycosyl transferase family 1&lt;br&gt;Location: 282448 - 283489" id="dummy-2_q43_0_all" locus_tag="P773_RS0101635"  />
<polygon class="clusterblast-orf" style="stroke-width:1; stroke:black; fill:white; " points="602,35 606,30 606,40 602,35 " description="&lt;b&gt;P773_RS0101640&lt;/b&gt;&lt;br&gt;excinuclease ABC subunit C&lt;br&gt;Location: 283460 - 283718" id="dummy-2_q44_0_all" locus_tag="P773_RS0101640"  />
<polygon class="clusterblast-orf" style="stroke-width:1; stroke:black; fill:white; " points="609,35 614,30 640,30 640,40 614,40 609,35 " description="&lt;b&gt;P773_RS0101650&lt;/b&gt;&lt;br&gt;single-stranded-DNA-specific exonuclease RecJ&lt;br&gt;Location: 283864 - 285559" id="dummy-2_q45_0_all" locus_tag="P773_RS0101650"  />
<polygon class="clusterblast-orf" style="stroke-width:1; stroke:black; fill:white; " points="640,35 645,30 657,30 657,40 645,40 640,35 " description="&lt;b&gt;P773_RS0101655&lt;/b&gt;&lt;br&gt;fructose-bisphosphatase class II&lt;br&gt;Location: 285555 - 286503" id="dummy-2_q46_0_all" locus_tag="P773_RS0101655"  />
<polygon class="clusterblast-orf" style="stroke-width:1; stroke:black; fill:white; " points="657,35 662,30 675,30 675,40 662,40 657,35 " description="&lt;b&gt;P773_RS0101660&lt;/b&gt;&lt;br&gt;hypothetical protein&lt;br&gt;Location: 286502 - 287495" id="dummy-2_q47_0_all" locus_tag="P773_RS0101660"  />
<polygon class="clusterblast-orf" style="stroke-width:1; stroke:black; fill:white; " points="675,35 680,30 680,30 680,40 680,40 675,35 " description="&lt;b&gt;P773_RS0101665&lt;/b&gt;&lt;br&gt;hypothetical protein&lt;br&gt;Location: 287498 - 287780" id="dummy-2_q48_0_all" locus_tag="P773_RS0101665"  />
<polygon class="clusterblast-orf" style="stroke-width:1; stroke:black; fill:white; " points="683,40 687,40 692,35 687,30 683,30 683,40 " description="&lt;b&gt;P773_RS0101675&lt;/b&gt;&lt;br&gt;hypothetical protein&lt;br&gt;Location: 287957 - 288446" id="dummy-2_q49_0_all" locus_tag="P773_RS0101675"  />
<polygon class="clusterblast-orf" style="stroke-width:1; stroke:black; fill:white; " points="692,40 709,40 714,35 709,30 692,30 692,40 " description="&lt;b&gt;P773_RS0101680&lt;/b&gt;&lt;br&gt;Na+/H+ antiporter NhaA&lt;br&gt;Location: 288452 - 289634" id="dummy-2_q50_0_all" locus_tag="P773_RS0101680"  />
<polygon class="clusterblast-orf" style="stroke-width:1; stroke:black; fill:white; " points="714,40 719,40 724,35 719,30 714,30 714,40 " description="&lt;b&gt;P773_RS0101685&lt;/b&gt;&lt;br&gt;glutathione peroxidase&lt;br&gt;Location: 289663 - 290173" id="dummy-2_q51_0_all" locus_tag="P773_RS0101685"  />
<polygon class="clusterblast-orf" style="stroke-width:1; stroke:black; fill:white; " points="724,35 729,30 738,30 738,40 729,40 724,35 " description="&lt;b&gt;P773_RS0101690&lt;/b&gt;&lt;br&gt;MBL fold hydrolase&lt;br&gt;Location: 290167 - 290944" id="dummy-2_q52_0_all" locus_tag="P773_RS0101690"  />
<polygon class="clusterblast-orf" style="stroke-width:1; stroke:black; fill:white; " points="738,35 743,30 752,30 752,40 743,40 738,35 " description="&lt;b&gt;P773_RS0101695&lt;/b&gt;&lt;br&gt;TatD family deoxyribonuclease&lt;br&gt;Location: 290951 - 291713" id="dummy-2_q53_0_all" locus_tag="P773_RS0101695"  />
<polygon class="clusterblast-orf" style="stroke-width:1; stroke:black; fill:white; " points="752,35 757,30 780,30 780,40 757,40 752,35 " description="&lt;b&gt;P773_RS0101700&lt;/b&gt;&lt;br&gt;methionine--tRNA ligase&lt;br&gt;Location: 291705 - 293247" id="dummy-2_q54_0_all" locus_tag="P773_RS0101700"  />
</g>
<g label="NC_007517" class="clusterblast-cluster" description="NC_007517_c2: Geobacter metallireducens GS-15, complete genome (15% of genes show similarity), other"  >
<text class="clusterblast-acc" y="70" x="5"  >
<a xlink:href="https://antismash-db.secondarymetabolites.org/go/NC_007517/2" target="_blank">NC_007517_c2</a>: Geobacter metallireducens GS-15, complete genome (15% of genes show similarity), other</text>
<line style="stroke-width:1; stroke:grey; " y1="85" x2="778.0" y2="85" x1="10"  />
</g>
<g id="a2_000"  >
<polygon class="clusterblast-orf" style="stroke-width:1; stroke:black; fill:white; " points="27,90 38,90 43,85 38,80 27,80 27,90 " description="&lt;b&gt;GMET_RS07990&lt;/b&gt;&lt;br&gt;tRNA pseudouridine synthase B&lt;br&gt;Location: 1790972 - 1791886" id="dummy-2_h2_3_0" locus_tag="GMET_RS07990"  />
</g>
<g id="a2_001"  >
<polygon class="clusterblast-orf" style="stroke-width:1; stroke:black; fill:white; " points="45,90 45,90 50,85 45,80 45,80 45,90 " description="&lt;b&gt;GMET_RS07995&lt;/b&gt;&lt;br&gt;30S ribosomal protein S15&lt;br&gt;Location: 1792001 - 1792267" id="dummy-2_h2_3_1" locus_tag="GMET_RS07995"  />
</g>
<g id="a2_002"  >
<polygon class="clusterblast-orf" style="stroke-width:1; stroke:black; fill:white; " points="54,90 88,90 93,85 88,80 54,80 54,90 " description="&lt;b&gt;GMET_RS08000&lt;/b&gt;&lt;br&gt;polyribonucleotide nucleotidyltransferase&lt;br&gt;Location: 1792503 - 1794596" id="dummy-2_h2_3_2" locus_tag="GMET_RS08000"  />
</g>
<g id="a2_003"  >
<polygon class="clusterblast-orf" style="stroke-width:1; stroke:black; fill:white; " points="94,90 111,90 116,85 111,80 94,80 94,90 " description="&lt;b&gt;GMET_RS08005&lt;/b&gt;&lt;br&gt;insulinase family protein&lt;br&gt;Location: 1794651 - 1795907" id="dummy-2_h2_3_3" locus_tag="GMET_RS08005"  />
</g>
<g id="a2_004"  >
<polygon class="clusterblast-orf" style="stroke-width:1; stroke:black; fill:white; " points="117,90 120,90 125,85 120,80 117,80 117,90 " description="&lt;b&gt;GMET_RS08010&lt;/b&gt;&lt;br&gt;dUTP diphosphatase&lt;br&gt;Location: 1795915 - 1796361" id="dummy-2_h2_3_4" locus_tag="GMET_RS08010"  />
</g>
<g id="a2_005"  >
<polygon class="clusterblast-orf" style="stroke-width:1; stroke:black; fill:white; " points="125,90 140,90 145,85 140,80 125,80 125,90 " description="&lt;b&gt;GMET_RS08015&lt;/b&gt;&lt;br&gt;aminopeptidase&lt;br&gt;Location: 1796377 - 1797483" id="dummy-2_h2_3_5" locus_tag="GMET_RS08015"  />
</g>
<g id="a2_006"  >
<polygon class="clusterblast-orf" style="stroke-width:1; stroke:black; fill:white; " points="145,90 151,90 156,85 151,80 145,80 145,90 " description="&lt;b&gt;GMET_RS08020&lt;/b&gt;&lt;br&gt;threonylcarbamoyl-AMP synthase&lt;br&gt;Location: 1797489 - 1798100" id="dummy-2_h2_3_6" locus_tag="GMET_RS08020"  />
</g>
<g id="a2_007"  >
<polygon class="clusterblast-orf" style="stroke-width:1; stroke:black; fill:white; " points="159,90 164,90 169,85 164,80 159,80 159,90 " description="&lt;b&gt;GMET_RS08025&lt;/b&gt;&lt;br&gt;DUF177 domain-containing protein&lt;br&gt;Location: 1798274 - 1798813" id="dummy-2_h2_3_7" locus_tag="GMET_RS08025"  />
</g>
<g id="a2_008"  >
<polygon class="clusterblast-orf" style="stroke-width:1; stroke:black; fill:white; " points="169,90 173,85 169,80 169,90 " description="&lt;b&gt;GMET_RS08030&lt;/b&gt;&lt;br&gt;50S ribosomal protein L32&lt;br&gt;Location: 1798827 - 1799009" id="dummy-2_h2_3_8" locus_tag="GMET_RS08030"  />
</g>
<g id="a2_009"  >
<polygon class="clusterblast-orf" style="stroke-width:1; stroke:black; fill:#2715d8; " points="174,90 187,90 192,85 187,80 174,80 174,90 " description="&lt;b&gt;GMET_RS08035&lt;/b&gt;&lt;br&gt;phosphate acyltransferase&lt;br&gt;Location: 1799052 - 1800089&lt;br&gt;&lt;br&gt;&lt;b&gt;BlastP hit with P773_RS0101540&lt;/b&gt;&lt;br&gt;Percentage identity: 32&lt;br&gt;Percentage coverage: 99&lt;br&gt;BLAST bit score: 195&lt;br&gt;E-value: 1e-47" id="dummy-2_h2_3_9" locus_tag="GMET_RS08035"  />
</g>
<g id="a2_0010"  >
<polygon class="clusterblast-orf" style="stroke-width:1; stroke:black; fill:white; " points="193,90 206,90 211,85 206,80 193,80 193,90 " description="&lt;b&gt;GMET_RS08040&lt;/b&gt;&lt;br&gt;ketoacyl-ACP synthase III&lt;br&gt;Location: 1800102 - 1801082" id="dummy-2_h2_3_10" locus_tag="GMET_RS08040"  />
</g>
<g id="a2_0011"  >
<polygon class="clusterblast-orf" style="stroke-width:1; stroke:black; fill:white; " points="211,90 223,90 228,85 223,80 211,80 211,90 " description="&lt;b&gt;GMET_RS08045&lt;/b&gt;&lt;br&gt;[acyl-carrier-protein] S-malonyltransferase&lt;br&gt;Location: 1801106 - 1802032" id="dummy-2_h2_3_11" locus_tag="GMET_RS08045"  />
</g>
<g id="a2_0012"  >
<polygon class="clusterblast-orf" style="stroke-width:1; stroke:black; fill:white; " points="228,90 236,90 241,85 236,80 228,80 228,90 " description="&lt;b&gt;GMET_RS08050&lt;/b&gt;&lt;br&gt;3-oxoacyl-[acyl-carrier-protein] reductase&lt;br&gt;Location: 1802040 - 1802780" id="dummy-2_h2_3_12" locus_tag="GMET_RS08050"  />
</g>
<g id="a2_0013"  >
<polygon class="clusterblast-orf" style="stroke-width:1; stroke:black; fill:white; " points="243,90 247,85 243,80 243,90 " description="&lt;b&gt;GMET_RS08055&lt;/b&gt;&lt;br&gt;acyl carrier protein&lt;br&gt;Location: 1802879 - 1803112" id="dummy-2_h2_3_13" locus_tag="GMET_RS08055"  />
</g>
<g id="a2_0014"  >
<polygon class="clusterblast-orf" style="stroke-width:1; stroke:black; fill:white; " points="249,90 267,90 272,85 267,80 249,80 249,90 " description="&lt;b&gt;GMET_RS08060&lt;/b&gt;&lt;br&gt;beta-ketoacyl-[acyl-carrier-protein] synthase II&lt;br&gt;Location: 1803205 - 1804437" id="dummy-2_h2_3_14" locus_tag="GMET_RS08060"  />
</g>
<g id="a2_0015"  >
<polygon class="clusterblast-orf" style="stroke-width:1; stroke:black; fill:#156ed8; " points="272,90 275,90 280,85 275,80 272,80 272,90 " description="&lt;b&gt;GMET_RS08065&lt;/b&gt;&lt;br&gt;ribose 5-phosphate isomerase B&lt;br&gt;Location: 1804450 - 1804896&lt;br&gt;&lt;br&gt;&lt;b&gt;BlastP hit with P773_RS0101475&lt;/b&gt;&lt;br&gt;Percentage identity: 42&lt;br&gt;Percentage coverage: 98&lt;br&gt;BLAST bit score: 118&lt;br&gt;E-value: 6.6e-25" id="dummy-2_h2_3_15" locus_tag="GMET_RS08065"  />
</g>
<g id="a2_0016"  >
<polygon class="clusterblast-orf" style="stroke-width:1; stroke:black; fill:#c715d8; " points="282,90 299,90 304,85 299,80 282,80 282,90 " description="&lt;b&gt;GMET_RS08070&lt;/b&gt;&lt;br&gt;serine hydroxymethyltransferase&lt;br&gt;Location: 1804988 - 1806235&lt;br&gt;&lt;br&gt;&lt;b&gt;BlastP hit with P773_RS0101480&lt;/b&gt;&lt;br&gt;Percentage identity: 55&lt;br&gt;Percentage coverage: 94&lt;br&gt;BLAST bit score: 452&lt;br&gt;E-value: 4.5e-125" id="dummy-2_h2_3_16" locus_tag="GMET_RS08070"  />
</g>
<g id="a2_0017"  >
<polygon class="clusterblast-orf" style="stroke-width:1; stroke:black; fill:white; " points="306,85 311,80 321,80 321,90 311,90 306,85 " description="&lt;b&gt;GMET_RS08075&lt;/b&gt;&lt;br&gt;chemotaxis protein CheX&lt;br&gt;Location: 1806314 - 1807177" id="dummy-2_h2_3_17" locus_tag="GMET_RS08075"  />
</g>
<g id="a2_0018"  >
<polygon class="clusterblast-orf" style="stroke-width:1; stroke:black; fill:white; " points="322,85 327,80 329,80 329,90 327,90 322,85 " description="&lt;b&gt;GMET_RS08080&lt;/b&gt;&lt;br&gt;response regulator&lt;br&gt;Location: 1807237 - 1807596" id="dummy-2_h2_3_18" locus_tag="GMET_RS08080"  />
</g>
<g id="a2_0019"  >
<polygon class="clusterblast-orf" style="stroke-width:1; stroke:black; fill:white; " points="337,90 337,90 342,85 337,80 337,80 337,90 " description="&lt;b&gt;GMET_RS08085&lt;/b&gt;&lt;br&gt;HU family DNA-binding protein&lt;br&gt;Location: 1808018 - 1808308" id="dummy-2_h2_3_19" locus_tag="GMET_RS08085"  />
</g>
<g id="a2_0020"  >
<polygon class="clusterblast-orf" style="stroke-width:1; stroke:black; fill:white; " points="345,85 349,80 349,90 345,85 " description="&lt;b&gt;GMET_RS08090&lt;/b&gt;&lt;br&gt;hypothetical protein&lt;br&gt;Location: 1808457 - 1808696" id="dummy-2_h2_3_20" locus_tag="GMET_RS08090"  />
</g>
<g id="a2_0021"  >
<polygon class="clusterblast-orf" style="stroke-width:1; stroke:black; fill:white; " points="351,90 354,85 351,80 351,90 " description="&lt;b&gt;GMET_RS18325&lt;/b&gt;&lt;br&gt;UMUC domain protein DNA-repair protein&lt;br&gt;Location: 1808811 - 1808948" id="dummy-2_h2_3_21" locus_tag="GMET_RS18325"  />
</g>
<g id="a2_0022"  >
<polygon class="clusterblast-orf" style="stroke-width:1; stroke:black; fill:white; " points="355,90 356,90 361,85 356,80 355,80 355,90 " description="&lt;b&gt;GMET_RS08095&lt;/b&gt;&lt;br&gt;TSCPD domain-containing protein&lt;br&gt;Location: 1809046 - 1809375" id="dummy-2_h2_3_22" locus_tag="GMET_RS08095"  />
</g>
<g id="a2_0023"  >
<polygon class="clusterblast-orf" style="stroke-width:1; stroke:black; fill:white; " points="363,90 365,90 370,85 365,80 363,80 363,90 " description="&lt;b&gt;GMET_RS08100&lt;/b&gt;&lt;br&gt;DUF1653 domain-containing protein&lt;br&gt;Location: 1809445 - 1809858" id="dummy-2_h2_3_23" locus_tag="GMET_RS08100"  />
</g>
<g id="a2_0024"  >
<polygon class="clusterblast-orf" style="stroke-width:1; stroke:black; fill:white; " points="377,90 417,90 422,85 417,80 377,80 377,90 " description="&lt;b&gt;GMET_RS08105&lt;/b&gt;&lt;br&gt;AMP-binding protein&lt;br&gt;Location: 1810253 - 1812727" id="dummy-2_h2_3_24" locus_tag="GMET_RS08105"  />
</g>
<g id="a2_0025"  >
<polygon class="clusterblast-orf" style="stroke-width:1; stroke:black; fill:white; " points="422,90 465,90 470,85 465,80 422,80 422,90 " description="&lt;b&gt;GMET_RS08110&lt;/b&gt;&lt;br&gt;cation-translocating P-type ATPase&lt;br&gt;Location: 1812731 - 1815346" id="dummy-2_h2_3_25" locus_tag="GMET_RS08110"  />
</g>
<g id="a2_0026"  >
<polygon class="clusterblast-orf" style="stroke-width:1; stroke:black; fill:white; " points="470,85 475,80 478,80 478,90 475,90 470,85 " description="&lt;b&gt;GMET_RS08115&lt;/b&gt;&lt;br&gt;archease&lt;br&gt;Location: 1815350 - 1815781" id="dummy-2_h2_3_26" locus_tag="GMET_RS08115"  />
</g>
<g id="a2_0027"  >
<polygon class="clusterblast-orf" style="stroke-width:1; stroke:black; fill:white; " points="478,85 483,80 498,80 498,90 483,90 478,85 " description="&lt;b&gt;GMET_RS08120&lt;/b&gt;&lt;br&gt;cobyrinic acid a,c-diamide synthase&lt;br&gt;Location: 1815801 - 1816892" id="dummy-2_h2_3_27" locus_tag="GMET_RS08120"  />
</g>
<g id="a2_0028"  >
<polygon class="clusterblast-orf" style="stroke-width:1; stroke:black; fill:white; " points="503,90 504,90 509,85 504,80 503,80 503,90 " description="&lt;b&gt;GMET_RS08125&lt;/b&gt;&lt;br&gt;hypothetical protein&lt;br&gt;Location: 1817135 - 1817482" id="dummy-2_h2_3_28" locus_tag="GMET_RS08125"  />
</g>
<g id="a2_0029"  >
<polygon class="clusterblast-orf" style="stroke-width:1; stroke:black; fill:white; " points="509,90 512,90 517,85 512,80 509,80 509,90 " description="&lt;b&gt;GMET_RS08130&lt;/b&gt;&lt;br&gt;DUF327 domain-containing protein&lt;br&gt;Location: 1817486 - 1817941" id="dummy-2_h2_3_29" locus_tag="GMET_RS08130"  />
</g>
<g id="a2_0030"  >
<polygon class="clusterblast-orf" style="stroke-width:1; stroke:black; fill:white; " points="518,85 523,80 544,80 544,90 523,90 518,85 " description="&lt;b&gt;GMET_RS08135&lt;/b&gt;&lt;br&gt;RtcB family protein&lt;br&gt;Location: 1817957 - 1819414" id="dummy-2_h2_3_30" locus_tag="GMET_RS08135"  />
</g>
<g id="a2_0031"  >
<polygon class="clusterblast-orf" style="stroke-width:1; stroke:black; fill:white; " points="546,85 551,80 556,80 556,90 551,90 546,85 " description="&lt;b&gt;GMET_RS08140&lt;/b&gt;&lt;br&gt;HD domain-containing protein&lt;br&gt;Location: 1819516 - 1820061" id="dummy-2_h2_3_31" locus_tag="GMET_RS08140"  />
</g>
<g id="a2_0032"  >
<polygon class="clusterblast-orf" style="stroke-width:1; stroke:black; fill:white; " points="558,90 559,90 564,85 559,80 558,80 558,90 " description="&lt;b&gt;GMET_RS08145&lt;/b&gt;&lt;br&gt;peptide chain release factor-like protein&lt;br&gt;Location: 1820172 - 1820495" id="dummy-2_h2_3_32" locus_tag="GMET_RS08145"  />
</g>
<g id="a2_0033"  >
<polygon class="clusterblast-orf" style="stroke-width:1; stroke:black; fill:white; " points="565,90 569,90 574,85 569,80 565,80 565,90 " description="&lt;b&gt;GMET_RS08150&lt;/b&gt;&lt;br&gt;cytidine deaminase&lt;br&gt;Location: 1820578 - 1821042" id="dummy-2_h2_3_33" locus_tag="GMET_RS08150"  />
</g>
<g id="a2_0034"  >
<polygon class="clusterblast-orf" style="stroke-width:1; stroke:black; fill:#d88015; " points="574,90 577,90 582,85 577,80 574,80 574,90 " description="&lt;b&gt;GMET_RS08155&lt;/b&gt;&lt;br&gt;transcriptional regulator NrdR&lt;br&gt;Location: 1821039 - 1821491&lt;br&gt;&lt;br&gt;&lt;b&gt;BlastP hit with P773_RS0101485&lt;/b&gt;&lt;br&gt;Percentage identity: 43&lt;br&gt;Percentage coverage: 100&lt;br&gt;BLAST bit score: 121&lt;br&gt;E-value: 1.1e-25" id="dummy-2_h2_3_34" locus_tag="GMET_RS08155"  />
</g>
<g id="a2_0035"  >
<polygon class="clusterblast-orf" style="stroke-width:1; stroke:black; fill:white; " points="582,90 597,90 602,85 597,80 582,80 582,90 " description="&lt;b&gt;GMET_RS08160&lt;/b&gt;&lt;br&gt;bifunctional diaminohydroxyphosphoribosylaminopyrimidine deaminase/5-amino-6-(5-phosphoribosylamino)uracil reductase RibD&lt;br&gt;Location: 1821495 - 1822607" id="dummy-2_h2_3_35" locus_tag="GMET_RS08160"  />
</g>
<g id="a2_0036"  >
<polygon class="clusterblast-orf" style="stroke-width:1; stroke:black; fill:#1539d8; " points="602,90 609,90 614,85 609,80 602,80 602,90 " description="&lt;b&gt;GMET_RS08165&lt;/b&gt;&lt;br&gt;riboflavin synthase&lt;br&gt;Location: 1822589 - 1823239&lt;br&gt;&lt;br&gt;&lt;b&gt;BlastP hit with P773_RS0101495&lt;/b&gt;&lt;br&gt;Percentage identity: 34&lt;br&gt;Percentage coverage: 96&lt;br&gt;BLAST bit score: 123&lt;br&gt;E-value: 2.2e-26" id="dummy-2_h2_3_36" locus_tag="GMET_RS08165"  />
</g>
<g id="a2_0037"  >
<polygon class="clusterblast-orf" style="stroke-width:1; stroke:black; fill:#d815b5; " points="614,90 631,90 636,85 631,80 614,80 614,90 " description="&lt;b&gt;GMET_RS08170&lt;/b&gt;&lt;br&gt;bifunctional 3,4-dihydroxy-2-butanone-4-phosphate synthase/GTP cyclohydrolase II&lt;br&gt;Location: 1823280 - 1824482&lt;br&gt;&lt;br&gt;&lt;b&gt;BlastP hit with P773_RS0101500&lt;/b&gt;&lt;br&gt;Percentage identity: 42&lt;br&gt;Percentage coverage: 101&lt;br&gt;BLAST bit score: 256&lt;br&gt;E-value: 5.2e-66" id="dummy-2_h2_3_37" locus_tag="GMET_RS08170"  />
</g>
<g id="a2_0038"  >
<polygon class="clusterblast-orf" style="stroke-width:1; stroke:black; fill:white; " points="637,90 640,90 645,85 640,80 637,80 637,90 " description="&lt;b&gt;GMET_RS08175&lt;/b&gt;&lt;br&gt;6,7-dimethyl-8-ribityllumazine synthase&lt;br&gt;Location: 1824506 - 1824973" id="dummy-2_h2_3_38" locus_tag="GMET_RS08175"  />
</g>
<g id="a2_0039"  >
<polygon class="clusterblast-orf" style="stroke-width:1; stroke:black; fill:white; " points="645,90 648,90 653,85 648,80 645,80 645,90 " description="&lt;b&gt;GMET_RS08180&lt;/b&gt;&lt;br&gt;N utilization substance protein B&lt;br&gt;Location: 1824973 - 1825389" id="dummy-2_h2_3_39" locus_tag="GMET_RS08180"  />
</g>
<g id="a2_0040"  >
<polygon class="clusterblast-orf" style="stroke-width:1; stroke:black; fill:#15d8d8; " points="654,90 672,90 677,85 672,80 654,80 654,90 " description="&lt;b&gt;GMET_RS08185&lt;/b&gt;&lt;br&gt;homoserine dehydrogenase&lt;br&gt;Location: 1825433 - 1826743&lt;br&gt;&lt;br&gt;&lt;b&gt;BlastP hit with P773_RS0101595&lt;/b&gt;&lt;br&gt;Percentage identity: 33&lt;br&gt;Percentage coverage: 101&lt;br&gt;BLAST bit score: 228&lt;br&gt;E-value: 1.4e-57" id="dummy-2_h2_3_40" locus_tag="GMET_RS08185"  />
</g>
<g id="a2_0041"  >
<polygon class="clusterblast-orf" style="stroke-width:1; stroke:black; fill:white; " points="678,85 683,80 691,80 691,90 683,90 678,85 " description="&lt;b&gt;GMET_RS08190&lt;/b&gt;&lt;br&gt;haloacid dehalogenase&lt;br&gt;Location: 1826798 - 1827484" id="dummy-2_h2_3_41" locus_tag="GMET_RS08190"  />
</g>
<g id="a2_0042"  >
<polygon class="clusterblast-orf" style="stroke-width:1; stroke:black; fill:white; " points="691,85 696,80 717,80 717,90 696,90 691,85 " description="&lt;b&gt;GMET_RS08195&lt;/b&gt;&lt;br&gt;threonine synthase&lt;br&gt;Location: 1827511 - 1828896" id="dummy-2_h2_3_42" locus_tag="GMET_RS08195"  />
</g>
<g id="a2_0043"  >
<polygon class="clusterblast-orf" style="stroke-width:1; stroke:black; fill:white; " points="720,90 732,90 737,85 732,80 720,80 720,90 " description="&lt;b&gt;GMET_RS08200&lt;/b&gt;&lt;br&gt;MoxR family ATPase&lt;br&gt;Location: 1829064 - 1830005" id="dummy-2_h2_3_43" locus_tag="GMET_RS08200"  />
</g>
<g id="a2_0044"  >
<polygon class="clusterblast-orf" style="stroke-width:1; stroke:black; fill:white; " points="737,90 747,90 752,85 747,80 737,80 737,90 " description="&lt;b&gt;GMET_RS08205&lt;/b&gt;&lt;br&gt;DUF58 domain-containing protein&lt;br&gt;Location: 1830002 - 1830868" id="dummy-2_h2_3_44" locus_tag="GMET_RS08205"  />
</g>
</svg>
