<svg version="1.1" preserveAspectRatio="none" width="800" y="0" xmlns:xlink="http://www.w3.org/1999/xlink" height="230" x="0" xmlns="http://www.w3.org/2000/svg" viewBox="0 0 800 230"  >
<g label="Query sequence" class="clusterblast-cluster"  >
<text class="clusterblast-acc" y="20" x="5"  >
Query sequence</text>
<line style="stroke-width:1; stroke:grey; " y1="35" x2="778.0" y2="35" x1="10"  />
<polygon class="clusterblast-orf" style="stroke-width:1; stroke:black; fill:#d81515; " points="162,35 167,30 172,30 172,40 167,40 162,35 " description="&lt;b&gt;P773_RS0102035&lt;/b&gt;&lt;br&gt;phosphate regulon transcriptional regulatory protein PhoB&lt;br&gt;Location: 349897 - 350581" id="dummy-3_q0_0_all" locus_tag="P773_RS0102035"  />
<polygon class="clusterblast-orf" style="stroke-width:1; stroke:black; fill:#5cd815; " points="172,35 177,30 183,30 183,40 177,40 172,35 " description="&lt;b&gt;P773_RS0102040&lt;/b&gt;&lt;br&gt;phosphate transport system regulatory protein PhoU&lt;br&gt;Location: 350584 - 351292" id="dummy-3_q1_0_all" locus_tag="P773_RS0102040"  />
<polygon class="clusterblast-orf" style="stroke-width:1; stroke:black; fill:#15a3d8; " points="183,35 188,30 195,30 195,40 188,40 183,35 " description="&lt;b&gt;P773_RS0102045&lt;/b&gt;&lt;br&gt;phosphate ABC transporter ATP-binding protein&lt;br&gt;Location: 351291 - 352047" id="dummy-3_q2_0_all" locus_tag="P773_RS0102045"  />
<polygon class="clusterblast-orf" style="stroke-width:1; stroke:black; fill:#c715d8; " points="195,35 200,30 214,30 214,40 200,40 195,35 " description="&lt;b&gt;P773_RS0102050&lt;/b&gt;&lt;br&gt;phosphate ABC transporter, permease protein PstA&lt;br&gt;Location: 352050 - 353322" id="dummy-3_q3_0_all" locus_tag="P773_RS0102050"  />
<polygon class="clusterblast-orf" style="stroke-width:1; stroke:black; fill:#d88015; " points="214,35 219,30 235,30 235,40 219,40 214,35 " description="&lt;b&gt;P773_RS0102055&lt;/b&gt;&lt;br&gt;phosphate ABC transporter permease subunit PstC&lt;br&gt;Location: 353314 - 354700" id="dummy-3_q4_0_all" locus_tag="P773_RS0102055"  />
<polygon class="clusterblast-orf" style="stroke-width:1; stroke:black; fill:#15d839; " points="236,35 241,30 252,30 252,40 241,40 236,35 " description="&lt;b&gt;P773_RS0102060&lt;/b&gt;&lt;br&gt;phosphate-binding protein&lt;br&gt;Location: 354775 - 355810" id="dummy-3_q5_0_all" locus_tag="P773_RS0102060"  />
<polygon class="clusterblast-orf" style="stroke-width:1; stroke:black; fill:white; " points="254,35 259,30 262,30 262,40 259,40 254,35 " description="&lt;b&gt;P773_RS0102065&lt;/b&gt;&lt;br&gt;hypothetical protein&lt;br&gt;Location: 355916 - 356483" id="dummy-3_q6_0_all" locus_tag="P773_RS0102065"  />
<polygon class="clusterblast-orf" style="stroke-width:1; stroke:black; fill:#1539d8; " points="265,35 270,30 282,30 282,40 270,40 265,35 " description="&lt;b&gt;P773_RS0102070&lt;/b&gt;&lt;br&gt;hypothetical protein&lt;br&gt;Location: 356628 - 357777" id="dummy-3_q7_0_all" locus_tag="P773_RS0102070"  />
<polygon class="clusterblast-orf" style="stroke-width:1; stroke:black; fill:white; " points="283,40 291,40 296,35 291,30 283,30 283,40 " description="&lt;b&gt;P773_RS0102075&lt;/b&gt;&lt;br&gt;GNAT family N-acetyltransferase&lt;br&gt;Location: 357848 - 358676" id="dummy-3_q8_0_all" locus_tag="P773_RS0102075"  />
<polygon class="clusterblast-orf" style="stroke-width:1; stroke:black; fill:#d81580; " points="296,40 302,40 307,35 302,30 296,30 296,40 " description="&lt;b&gt;P773_RS0102080&lt;/b&gt;&lt;br&gt;hypothetical protein&lt;br&gt;Location: 358675 - 359413" id="dummy-3_q9_0_all" locus_tag="P773_RS0102080"  />
<polygon class="clusterblast-orf" style="stroke-width:1; stroke:black; fill:white; " points="307,35 312,30 322,30 322,40 312,40 307,35 " description="&lt;b&gt;P773_RS0102085&lt;/b&gt;&lt;br&gt;glycosyltransferase family 1 protein&lt;br&gt;Location: 359405 - 360410" id="dummy-3_q10_0_all" locus_tag="P773_RS0102085"  />
<polygon class="clusterblast-orf" style="stroke-width:1; stroke:black; fill:white; " points="322,35 327,30 335,30 335,40 327,40 322,35 " description="&lt;b&gt;P773_RS0102090&lt;/b&gt;&lt;br&gt;UDP-2,3-diacylglucosamine diphosphatase&lt;br&gt;Location: 360412 - 361246" id="dummy-3_q11_0_all" locus_tag="P773_RS0102090"  />
<polygon class="clusterblast-orf" style="stroke-width:1; stroke:black; fill:white; " points="337,40 345,40 350,35 345,30 337,30 337,40 " description="&lt;b&gt;P773_RS0102095&lt;/b&gt;&lt;br&gt;hypothetical protein&lt;br&gt;Location: 361330 - 362221" id="dummy-3_q12_0_all" locus_tag="P773_RS0102095"  />
<polygon class="clusterblast-orf" style="stroke-width:1; stroke:black; fill:white; " points="351,40 354,35 351,30 351,40 " description="&lt;b&gt;P773_RS0102100&lt;/b&gt;&lt;br&gt;hypothetical protein&lt;br&gt;Location: 362290 - 362500" id="dummy-3_q13_0_all" locus_tag="P773_RS0102100"  />
<polygon class="clusterblast-orf" style="stroke-width:1; stroke:black; fill:white; " points="357,35 362,30 374,30 374,40 362,40 357,35 " description="&lt;b&gt;P773_RS0102105&lt;/b&gt;&lt;br&gt;hypothetical protein&lt;br&gt;Location: 362701 - 363799" id="dummy-3_q14_0_all" locus_tag="P773_RS0102105"  />
<polygon class="clusterblast-orf" style="stroke-width:1; stroke:black; fill:white; " points="374,35 379,30 391,30 391,40 379,40 374,35 " description="&lt;b&gt;P773_RS0102110&lt;/b&gt;&lt;br&gt;phosphonopyruvate decarboxylase&lt;br&gt;Location: 363795 - 364893" id="dummy-3_q15_0_all" locus_tag="P773_RS0102110"  />
<polygon class="clusterblast-orf" style="stroke-width:1; stroke:black; fill:white; " points="391,35 396,30 411,30 411,40 396,40 391,35 " description="&lt;b&gt;P773_RS0102115&lt;/b&gt;&lt;br&gt;phosphoenolpyruvate mutase&lt;br&gt;Location: 364885 - 366187" id="dummy-3_q16_0_all" locus_tag="P773_RS0102115"  />
<polygon class="clusterblast-orf" style="stroke-width:1; stroke:black; fill:white; " points="411,35 416,30 431,30 431,40 416,40 411,35 " description="&lt;b&gt;P773_RS0102120&lt;/b&gt;&lt;br&gt;hypothetical protein&lt;br&gt;Location: 366183 - 367488" id="dummy-3_q17_0_all" locus_tag="P773_RS0102120"  />
<polygon class="clusterblast-orf" style="stroke-width:1; stroke:black; fill:white; " points="433,35 438,30 450,30 450,40 438,40 433,35 " description="&lt;b&gt;P773_RS0102125&lt;/b&gt;&lt;br&gt;hypothetical protein&lt;br&gt;Location: 367607 - 368726" id="dummy-3_q18_0_all" locus_tag="P773_RS0102125"  />
<polygon class="clusterblast-orf" style="stroke-width:1; stroke:black; fill:white; " points="450,35 455,30 468,30 468,40 455,40 450,35 " description="&lt;b&gt;P773_RS0102130&lt;/b&gt;&lt;br&gt;mannose-6-phosphate isomerase&lt;br&gt;Location: 368750 - 369956" id="dummy-3_q19_0_all" locus_tag="P773_RS0102130"  />
<polygon class="clusterblast-orf" style="stroke-width:1; stroke:black; fill:white; " points="468,35 473,30 495,30 495,40 473,40 468,35 " description="&lt;b&gt;P773_RS0102135&lt;/b&gt;&lt;br&gt;dihydroxy-acid dehydratase&lt;br&gt;Location: 369955 - 371674" id="dummy-3_q20_0_all" locus_tag="P773_RS0102135"  />
<polygon class="clusterblast-orf" style="stroke-width:1; stroke:black; fill:white; " points="495,35 500,30 535,30 535,40 500,40 495,35 " description="&lt;b&gt;P773_RS0102140&lt;/b&gt;&lt;br&gt;valine--tRNA ligase&lt;br&gt;Location: 371673 - 374301" id="dummy-3_q21_0_all" locus_tag="P773_RS0102140"  />
<polygon class="clusterblast-orf" style="stroke-width:1; stroke:black; fill:white; " points="541,35 546,30 547,30 547,40 546,40 541,35 " description="&lt;b&gt;P773_RS0102155&lt;/b&gt;&lt;br&gt;XRE family transcriptional regulator&lt;br&gt;Location: 374716 - 375088" id="dummy-3_q22_0_all" locus_tag="P773_RS0102155"  />
<polygon class="clusterblast-orf" style="stroke-width:1; stroke:black; fill:#15a3d8; " points="550,35 555,30 561,30 561,40 555,40 550,35 " description="&lt;b&gt;P773_RS0102160&lt;/b&gt;&lt;br&gt;amino acid ABC transporter ATP-binding protein&lt;br&gt;Location: 375275 - 376010" id="dummy-3_q23_0_all" locus_tag="P773_RS0102160"  />
<polygon class="clusterblast-orf" style="stroke-width:1; stroke:black; fill:#c7d815; " points="561,35 566,30 583,30 583,40 566,40 561,35 " description="&lt;b&gt;P773_RS0102165&lt;/b&gt;&lt;br&gt;amino acid ABC transporter permease&lt;br&gt;Location: 376009 - 377452" id="dummy-3_q24_0_all" locus_tag="P773_RS0102165"  />
<polygon class="clusterblast-orf" style="stroke-width:1; stroke:black; fill:#15d8a3; " points="583,35 588,30 601,30 601,40 588,40 583,35 " description="&lt;b&gt;P773_RS0102170&lt;/b&gt;&lt;br&gt;amino acid ABC transporter permease&lt;br&gt;Location: 377451 - 378597" id="dummy-3_q25_0_all" locus_tag="P773_RS0102170"  />
<polygon class="clusterblast-orf" style="stroke-width:1; stroke:black; fill:#5c15d8; " points="602,35 607,30 618,30 618,40 607,40 602,35 " description="&lt;b&gt;P773_RS0102175&lt;/b&gt;&lt;br&gt;amino acid ABC transporter substrate-binding protein&lt;br&gt;Location: 378669 - 379710" id="dummy-3_q26_0_all" locus_tag="P773_RS0102175"  />
</g>
<g label="NZ_CP015848" class="clusterblast-cluster" description="NZ_CP015848_c2: Magnetospirillum sp. ME-1, complete genome (14% of genes show similarity), terpene"  >
<text class="clusterblast-acc" y="70" x="5"  >
<a xlink:href="https://antismash-db.secondarymetabolites.org/go/NZ_CP015848/2" target="_blank">NZ_CP015848_c2</a>: Magnetospirillum sp. ME-1, complete genome (14% of genes show similarity), terpene</text>
<line style="stroke-width:1; stroke:grey; " y1="85" x2="778.0" y2="85" x1="10"  />
</g>
<g id="a3_000"  >
<polygon class="clusterblast-orf" style="stroke-width:1; stroke:black; fill:white; " points="0,90 19,90 24,85 19,80 0,80 0,90 " description="&lt;b&gt;WV31_RS17790&lt;/b&gt;&lt;br&gt;fumarate hydratase&lt;br&gt;Location: 3801449 - 3803065" id="dummy-3_h3_7_0" locus_tag="WV31_RS17790"  />
</g>
<g id="a3_001"  >
<polygon class="clusterblast-orf" style="stroke-width:1; stroke:black; fill:white; " points="26,90 26,90 31,85 26,80 26,80 26,90 " description="&lt;b&gt;WV31_RS17795&lt;/b&gt;&lt;br&gt;hypothetical protein&lt;br&gt;Location: 3803168 - 3803524" id="dummy-3_h3_7_1" locus_tag="WV31_RS17795"  />
</g>
<g id="a3_002"  >
<polygon class="clusterblast-orf" style="stroke-width:1; stroke:black; fill:white; " points="32,90 34,90 39,85 34,80 32,80 32,90 " description="&lt;b&gt;WV31_RS17800&lt;/b&gt;&lt;br&gt;DUF983 domain-containing protein&lt;br&gt;Location: 3803570 - 3804025" id="dummy-3_h3_7_2" locus_tag="WV31_RS17800"  />
</g>
<g id="a3_003"  >
<polygon class="clusterblast-orf" style="stroke-width:1; stroke:black; fill:#d81515; " points="39,85 44,80 50,80 50,90 44,90 39,85 " description="&lt;b&gt;WV31_RS17805&lt;/b&gt;&lt;br&gt;DNA-binding response regulator&lt;br&gt;Location: 3804056 - 3804760&lt;br&gt;&lt;br&gt;&lt;b&gt;BlastP hit with P773_RS0102035&lt;/b&gt;&lt;br&gt;Percentage identity: 33&lt;br&gt;Percentage coverage: 101&lt;br&gt;BLAST bit score: 116&lt;br&gt;E-value: 5.2e-24" id="dummy-3_h3_7_3" locus_tag="WV31_RS17805"  />
</g>
<g id="a3_004"  >
<polygon class="clusterblast-orf" style="stroke-width:1; stroke:black; fill:white; " points="53,90 64,90 69,85 64,80 53,80 53,90 " description="&lt;b&gt;WV31_RS17810&lt;/b&gt;&lt;br&gt;two-component sensor histidine kinase&lt;br&gt;Location: 3804921 - 3805973" id="dummy-3_h3_7_4" locus_tag="WV31_RS17810"  />
</g>
<g id="a3_005"  >
<polygon class="clusterblast-orf" style="stroke-width:1; stroke:black; fill:white; " points="73,85 78,80 81,80 81,90 78,90 73,85 " description="&lt;b&gt;WV31_RS17815&lt;/b&gt;&lt;br&gt;hypothetical protein&lt;br&gt;Location: 3806248 - 3806799" id="dummy-3_h3_7_5" locus_tag="WV31_RS17815"  />
</g>
<g id="a3_006"  >
<polygon class="clusterblast-orf" style="stroke-width:1; stroke:black; fill:white; " points="82,85 86,80 86,90 82,85 " description="&lt;b&gt;WV31_RS17820&lt;/b&gt;&lt;br&gt;DUF2794 domain-containing protein&lt;br&gt;Location: 3806816 - 3807133" id="dummy-3_h3_7_6" locus_tag="WV31_RS17820"  />
</g>
<g id="a3_007"  >
<polygon class="clusterblast-orf" style="stroke-width:1; stroke:black; fill:white; " points="88,85 93,80 94,80 94,90 93,90 88,85 " description="&lt;b&gt;WV31_RS17825&lt;/b&gt;&lt;br&gt;hypothetical protein&lt;br&gt;Location: 3807233 - 3807625" id="dummy-3_h3_7_7" locus_tag="WV31_RS17825"  />
</g>
<g id="a3_008"  >
<polygon class="clusterblast-orf" style="stroke-width:1; stroke:black; fill:white; " points="95,90 99,90 104,85 99,80 95,80 95,90 " description="&lt;b&gt;WV31_RS17830&lt;/b&gt;&lt;br&gt;thioredoxin family protein&lt;br&gt;Location: 3807713 - 3808270" id="dummy-3_h3_7_8" locus_tag="WV31_RS17830"  />
</g>
<g id="a3_009"  >
<polygon class="clusterblast-orf" style="stroke-width:1; stroke:black; fill:white; " points="105,90 111,90 116,85 111,80 105,80 105,90 " description="&lt;b&gt;WV31_RS17835&lt;/b&gt;&lt;br&gt;hypothetical protein&lt;br&gt;Location: 3808377 - 3809060" id="dummy-3_h3_7_9" locus_tag="WV31_RS17835"  />
</g>
<g id="a3_0010"  >
<polygon class="clusterblast-orf" style="stroke-width:1; stroke:black; fill:white; " points="116,90 131,90 136,85 131,80 116,80 116,90 " description="&lt;b&gt;WV31_RS17840&lt;/b&gt;&lt;br&gt;pyrrolo-quinoline quinone&lt;br&gt;Location: 3809064 - 3810395" id="dummy-3_h3_7_10" locus_tag="WV31_RS17840"  />
</g>
<g id="a3_0011"  >
<polygon class="clusterblast-orf" style="stroke-width:1; stroke:black; fill:white; " points="136,90 153,90 158,85 153,80 136,80 136,90 " description="&lt;b&gt;WV31_RS17845&lt;/b&gt;&lt;br&gt;ribosome biogenesis GTPase Der&lt;br&gt;Location: 3810406 - 3811788" id="dummy-3_h3_7_11" locus_tag="WV31_RS17845"  />
</g>
<g id="a3_0012"  >
<polygon class="clusterblast-orf" style="stroke-width:1; stroke:black; fill:white; " points="159,85 164,80 165,80 165,90 164,90 159,85 " description="&lt;b&gt;WV31_RS17850&lt;/b&gt;&lt;br&gt;hypothetical protein&lt;br&gt;Location: 3811881 - 3812260" id="dummy-3_h3_7_12" locus_tag="WV31_RS17850"  />
</g>
<g id="a3_0013"  >
<polygon class="clusterblast-orf" style="stroke-width:1; stroke:black; fill:white; " points="167,90 172,90 177,85 172,80 167,80 167,90 " description="&lt;b&gt;WV31_RS17855&lt;/b&gt;&lt;br&gt;DNA-binding response regulator&lt;br&gt;Location: 3812414 - 3813043" id="dummy-3_h3_7_13" locus_tag="WV31_RS17855"  />
</g>
<g id="a3_0014"  >
<polygon class="clusterblast-orf" style="stroke-width:1; stroke:black; fill:white; " points="179,85 184,80 187,80 187,90 184,90 179,85 " description="&lt;b&gt;WV31_RS17860&lt;/b&gt;&lt;br&gt;hypothetical protein&lt;br&gt;Location: 3813168 - 3813680" id="dummy-3_h3_7_14" locus_tag="WV31_RS17860"  />
</g>
<g id="a3_0015"  >
<polygon class="clusterblast-orf" style="stroke-width:1; stroke:black; fill:white; " points="188,90 189,90 194,85 189,80 188,80 188,90 " description="&lt;b&gt;WV31_RS17865&lt;/b&gt;&lt;br&gt;hypothetical protein&lt;br&gt;Location: 3813788 - 3814165" id="dummy-3_h3_7_15" locus_tag="WV31_RS17865"  />
</g>
<g id="a3_0016"  >
<polygon class="clusterblast-orf" style="stroke-width:1; stroke:black; fill:white; " points="197,85 202,80 210,80 210,90 202,90 197,85 " description="&lt;b&gt;WV31_RS17870&lt;/b&gt;&lt;br&gt;hypothetical protein&lt;br&gt;Location: 3814355 - 3815224" id="dummy-3_h3_7_16" locus_tag="WV31_RS17870"  />
</g>
<g id="a3_0017"  >
<polygon class="clusterblast-orf" style="stroke-width:1; stroke:black; fill:white; " points="212,90 215,90 220,85 215,80 212,80 212,90 " description="&lt;b&gt;WV31_RS17875&lt;/b&gt;&lt;br&gt;antibiotic biosynthesis monooxygenase&lt;br&gt;Location: 3815333 - 3815887" id="dummy-3_h3_7_17" locus_tag="WV31_RS17875"  />
</g>
<g id="a3_0018"  >
<polygon class="clusterblast-orf" style="stroke-width:1; stroke:black; fill:white; " points="220,85 225,80 225,80 225,90 225,90 220,85 " description="&lt;b&gt;WV31_RS17880&lt;/b&gt;&lt;br&gt;DUF3572 domain-containing protein&lt;br&gt;Location: 3815897 - 3816181" id="dummy-3_h3_7_18" locus_tag="WV31_RS17880"  />
</g>
<g id="a3_0019"  >
<polygon class="clusterblast-orf" style="stroke-width:1; stroke:black; fill:white; " points="225,85 228,80 228,90 225,85 " description="&lt;b&gt;WV31_RS17885&lt;/b&gt;&lt;br&gt;hypothetical protein&lt;br&gt;Location: 3816174 - 3816362" id="dummy-3_h3_7_19" locus_tag="WV31_RS17885"  />
</g>
<g id="a3_0020"  >
<polygon class="clusterblast-orf" style="stroke-width:1; stroke:black; fill:white; " points="230,90 240,90 245,85 240,80 230,80 230,90 " description="&lt;b&gt;WV31_RS17890&lt;/b&gt;&lt;br&gt;ABC transporter&lt;br&gt;Location: 3816512 - 3817510" id="dummy-3_h3_7_20" locus_tag="WV31_RS17890"  />
</g>
<g id="a3_0021"  >
<polygon class="clusterblast-orf" style="stroke-width:1; stroke:black; fill:white; " points="245,90 282,90 287,85 282,80 245,80 245,90 " description="&lt;b&gt;WV31_RS17895&lt;/b&gt;&lt;br&gt;PAS domain S-box protein&lt;br&gt;Location: 3817500 - 3820250" id="dummy-3_h3_7_21" locus_tag="WV31_RS17895"  />
</g>
<g id="a3_0022"  >
<polygon class="clusterblast-orf" style="stroke-width:1; stroke:black; fill:white; " points="288,85 293,80 294,80 294,90 293,90 288,85 " description="&lt;b&gt;WV31_RS17900&lt;/b&gt;&lt;br&gt;DUF2934 domain-containing protein&lt;br&gt;Location: 3820297 - 3820716" id="dummy-3_h3_7_22" locus_tag="WV31_RS17900"  />
</g>
<g id="a3_0023"  >
<polygon class="clusterblast-orf" style="stroke-width:1; stroke:black; fill:white; " points="299,85 303,80 303,90 299,85 " description="&lt;b&gt;WV31_RS17905&lt;/b&gt;&lt;br&gt;aryl-sulfate sulfotransferase&lt;br&gt;Location: 3821051 - 3821272" id="dummy-3_h3_7_23" locus_tag="WV31_RS17905"  />
</g>
<g id="a3_0024"  >
<polygon class="clusterblast-orf" style="stroke-width:1; stroke:black; fill:white; " points="303,85 308,80 363,80 363,90 308,90 303,85 " description="&lt;b&gt;WV31_RS17910&lt;/b&gt;&lt;br&gt;peptide synthetase&lt;br&gt;Location: 3821269 - 3825246" id="dummy-3_h3_7_24" locus_tag="WV31_RS17910"  />
</g>
<g id="a3_0025"  >
<polygon class="clusterblast-orf" style="stroke-width:1; stroke:black; fill:white; " points="363,85 368,80 373,80 373,90 368,90 363,85 " description="&lt;b&gt;WV31_RS17915&lt;/b&gt;&lt;br&gt;phosphopantetheinyl transferase&lt;br&gt;Location: 3825243 - 3825854" id="dummy-3_h3_7_25" locus_tag="WV31_RS17915"  />
</g>
<g id="a3_0026"  >
<polygon class="clusterblast-orf" style="stroke-width:1; stroke:black; fill:white; " points="373,90 387,90 392,85 387,80 373,80 373,90 " description="&lt;b&gt;WV31_RS17920&lt;/b&gt;&lt;br&gt;hypothetical protein&lt;br&gt;Location: 3825903 - 3827084" id="dummy-3_h3_7_26" locus_tag="WV31_RS17920"  />
</g>
<g id="a3_0027"  >
<polygon class="clusterblast-orf" style="stroke-width:1; stroke:black; fill:white; " points="391,90 412,90 417,85 412,80 391,80 391,90 " description="&lt;b&gt;WV31_RS17925&lt;/b&gt;&lt;br&gt;hypothetical protein&lt;br&gt;Location: 3827081 - 3828763" id="dummy-3_h3_7_27" locus_tag="WV31_RS17925"  />
</g>
<g id="a3_0028"  >
<polygon class="clusterblast-orf" style="stroke-width:1; stroke:black; fill:white; " points="420,90 431,90 436,85 431,80 420,80 420,90 " description="&lt;b&gt;WV31_RS17930&lt;/b&gt;&lt;br&gt;NAD-dependent dehydratase&lt;br&gt;Location: 3828979 - 3829971" id="dummy-3_h3_7_28" locus_tag="WV31_RS17930"  />
</g>
<g id="a3_0029"  >
<polygon class="clusterblast-orf" style="stroke-width:1; stroke:black; fill:white; " points="436,90 448,90 453,85 448,80 436,80 436,90 " description="&lt;b&gt;WV31_RS17935&lt;/b&gt;&lt;br&gt;glycosyl transferase family 2&lt;br&gt;Location: 3829968 - 3831131" id="dummy-3_h3_7_29" locus_tag="WV31_RS17935"  />
</g>
<g id="a3_0030"  >
<polygon class="clusterblast-orf" style="stroke-width:1; stroke:black; fill:white; " points="453,90 462,90 467,85 462,80 453,80 453,90 " description="&lt;b&gt;WV31_RS17940&lt;/b&gt;&lt;br&gt;squalene synthase HpnD&lt;br&gt;Location: 3831137 - 3831997" id="dummy-3_h3_7_30" locus_tag="WV31_RS17940"  />
</g>
<g id="a3_0031"  >
<polygon class="clusterblast-orf" style="stroke-width:1; stroke:black; fill:white; " points="467,90 492,90 497,85 492,80 467,80 467,90 " description="&lt;b&gt;WV31_RS17945&lt;/b&gt;&lt;br&gt;squalene--hopene cyclase&lt;br&gt;Location: 3832019 - 3833974" id="dummy-3_h3_7_31" locus_tag="WV31_RS17945"  />
</g>
<g id="a3_0032"  >
<polygon class="clusterblast-orf" style="stroke-width:1; stroke:black; fill:white; " points="497,90 503,90 508,85 503,80 497,80 497,90 " description="&lt;b&gt;WV31_RS17950&lt;/b&gt;&lt;br&gt;nucleoside phosphorylase&lt;br&gt;Location: 3833964 - 3834671" id="dummy-3_h3_7_32" locus_tag="WV31_RS17950"  />
</g>
<g id="a3_0033"  >
<polygon class="clusterblast-orf" style="stroke-width:1; stroke:black; fill:white; " points="507,85 512,80 524,80 524,90 512,90 507,85 " description="&lt;b&gt;WV31_RS17955&lt;/b&gt;&lt;br&gt;hopanoid biosynthesis associated radical SAM protein HpnH&lt;br&gt;Location: 3834618 - 3835769" id="dummy-3_h3_7_33" locus_tag="WV31_RS17955"  />
</g>
<g id="a3_0034"  >
<polygon class="clusterblast-orf" style="stroke-width:1; stroke:black; fill:#d81515; " points="528,85 533,80 539,80 539,90 533,90 528,85 " description="&lt;b&gt;WV31_RS17960&lt;/b&gt;&lt;br&gt;phosphate regulon transcriptional regulatory protein PhoB&lt;br&gt;Location: 3835990 - 3836712&lt;br&gt;&lt;br&gt;&lt;b&gt;BlastP hit with P773_RS0102035&lt;/b&gt;&lt;br&gt;Percentage identity: 53&lt;br&gt;Percentage coverage: 98&lt;br&gt;BLAST bit score: 255&lt;br&gt;E-value: 4.2e-66" id="dummy-3_h3_7_34" locus_tag="WV31_RS17960"  />
</g>
<g id="a3_0035"  >
<polygon class="clusterblast-orf" style="stroke-width:1; stroke:black; fill:#5cd815; " points="539,85 544,80 549,80 549,90 544,90 539,85 " description="&lt;b&gt;WV31_RS17965&lt;/b&gt;&lt;br&gt;phosphate transport system regulatory protein PhoU&lt;br&gt;Location: 3836709 - 3837404&lt;br&gt;&lt;br&gt;&lt;b&gt;BlastP hit with P773_RS0102040&lt;/b&gt;&lt;br&gt;Percentage identity: 43&lt;br&gt;Percentage coverage: 94&lt;br&gt;BLAST bit score: 191&lt;br&gt;E-value: 7.8e-47" id="dummy-3_h3_7_35" locus_tag="WV31_RS17965"  />
</g>
<g id="a3_0036"  >
<polygon class="clusterblast-orf" style="stroke-width:1; stroke:black; fill:#15a3d8; " points="552,85 557,80 563,80 563,90 557,90 552,85 " description="&lt;b&gt;WV31_RS17970&lt;/b&gt;&lt;br&gt;phosphate ABC transporter ATP-binding protein&lt;br&gt;Location: 3837550 - 3838329&lt;br&gt;&lt;br&gt;&lt;b&gt;BlastP hit with P773_RS0102045&lt;/b&gt;&lt;br&gt;Percentage identity: 67&lt;br&gt;Percentage coverage: 100&lt;br&gt;BLAST bit score: 352&lt;br&gt;E-value: 3.7e-95&lt;br&gt;&lt;br&gt;&lt;b&gt;BlastP hit with P773_RS0102160&lt;/b&gt;&lt;br&gt;Percentage identity: 35&lt;br&gt;Percentage coverage: 99&lt;br&gt;BLAST bit score: 148&lt;br&gt;E-value: 1.3e-33" id="dummy-3_h3_7_36" locus_tag="WV31_RS17970"  />
</g>
<g id="a3_0037"  >
<polygon class="clusterblast-orf" style="stroke-width:1; stroke:black; fill:#c715d8; " points="564,85 569,80 583,80 583,90 569,90 564,85 " description="&lt;b&gt;WV31_RS17975&lt;/b&gt;&lt;br&gt;phosphate ABC transporter, permease protein PstA&lt;br&gt;Location: 3838334 - 3839608&lt;br&gt;&lt;br&gt;&lt;b&gt;BlastP hit with P773_RS0102050&lt;/b&gt;&lt;br&gt;Percentage identity: 50&lt;br&gt;Percentage coverage: 98&lt;br&gt;BLAST bit score: 362&lt;br&gt;E-value: 7.8e-98" id="dummy-3_h3_7_37" locus_tag="WV31_RS17975"  />
</g>
<g id="a3_0038"  >
<polygon class="clusterblast-orf" style="stroke-width:1; stroke:black; fill:#d88015; " points="583,85 588,80 604,80 604,90 588,90 583,85 " description="&lt;b&gt;WV31_RS17980&lt;/b&gt;&lt;br&gt;phosphate ABC transporter permease subunit PstC&lt;br&gt;Location: 3839610 - 3840983&lt;br&gt;&lt;br&gt;&lt;b&gt;BlastP hit with P773_RS0102055&lt;/b&gt;&lt;br&gt;Percentage identity: 41&lt;br&gt;Percentage coverage: 100&lt;br&gt;BLAST bit score: 324&lt;br&gt;E-value: 2.6e-86" id="dummy-3_h3_7_38" locus_tag="WV31_RS17980"  />
</g>
<g id="a3_0039"  >
<polygon class="clusterblast-orf" style="stroke-width:1; stroke:black; fill:#15d839; " points="605,85 610,80 621,80 621,90 610,90 605,85 " description="&lt;b&gt;WV31_RS17985&lt;/b&gt;&lt;br&gt;phosphate ABC transporter substrate-binding protein&lt;br&gt;Location: 3841041 - 3842066&lt;br&gt;&lt;br&gt;&lt;b&gt;BlastP hit with P773_RS0102060&lt;/b&gt;&lt;br&gt;Percentage identity: 47&lt;br&gt;Percentage coverage: 99&lt;br&gt;BLAST bit score: 287&lt;br&gt;E-value: 2.6e-75" id="dummy-3_h3_7_39" locus_tag="WV31_RS17985"  />
</g>
<g id="a3_0040"  >
<polygon class="clusterblast-orf" style="stroke-width:1; stroke:black; fill:white; " points="622,85 627,80 645,80 645,90 627,90 622,85 " description="&lt;b&gt;WV31_RS17990&lt;/b&gt;&lt;br&gt;PLP-dependent aminotransferase family protein&lt;br&gt;Location: 3842182 - 3843639" id="dummy-3_h3_7_40" locus_tag="WV31_RS17990"  />
</g>
<g id="a3_0041"  >
<polygon class="clusterblast-orf" style="stroke-width:1; stroke:black; fill:white; " points="648,90 652,90 657,85 652,80 648,80 648,90 " description="&lt;b&gt;WV31_RS17995&lt;/b&gt;&lt;br&gt;pyridoxamine 5'-phosphate oxidase family protein&lt;br&gt;Location: 3843830 - 3844420" id="dummy-3_h3_7_41" locus_tag="WV31_RS17995"  />
</g>
<g id="a3_0042"  >
<polygon class="clusterblast-orf" style="stroke-width:1; stroke:black; fill:white; " points="657,85 662,80 663,80 663,90 662,90 657,85 " description="&lt;b&gt;WV31_RS18000&lt;/b&gt;&lt;br&gt;hemerythrin&lt;br&gt;Location: 3844417 - 3844827" id="dummy-3_h3_7_42" locus_tag="WV31_RS18000"  />
</g>
<g id="a3_0043"  >
<polygon class="clusterblast-orf" style="stroke-width:1; stroke:black; fill:white; " points="664,85 669,80 674,80 674,90 669,90 664,85 " description="&lt;b&gt;WV31_RS18005&lt;/b&gt;&lt;br&gt;ribulose-phosphate 3-epimerase&lt;br&gt;Location: 3844894 - 3845535" id="dummy-3_h3_7_43" locus_tag="WV31_RS18005"  />
</g>
<g id="a3_0044"  >
<polygon class="clusterblast-orf" style="stroke-width:1; stroke:black; fill:white; " points="676,85 681,80 692,80 692,90 681,90 676,85 " description="&lt;b&gt;WV31_RS18010&lt;/b&gt;&lt;br&gt;fructose-bisphosphate aldolase class II&lt;br&gt;Location: 3845657 - 3846721" id="dummy-3_h3_7_44" locus_tag="WV31_RS18010"  />
</g>
<g id="a3_0045"  >
<polygon class="clusterblast-orf" style="stroke-width:1; stroke:black; fill:white; " points="692,85 697,80 723,80 723,90 697,90 692,85 " description="&lt;b&gt;WV31_RS18015&lt;/b&gt;&lt;br&gt;transketolase&lt;br&gt;Location: 3846764 - 3848734" id="dummy-3_h3_7_45" locus_tag="WV31_RS18015"  />
</g>
<g id="a3_0046"  >
<polygon class="clusterblast-orf" style="stroke-width:1; stroke:black; fill:white; " points="723,85 728,80 738,80 738,90 728,90 723,85 " description="&lt;b&gt;WV31_RS18020&lt;/b&gt;&lt;br&gt;fructose-bisphosphatase class II&lt;br&gt;Location: 3848767 - 3849729" id="dummy-3_h3_7_46" locus_tag="WV31_RS18020"  />
</g>
<g id="a3_0047"  >
<polygon class="clusterblast-orf" style="stroke-width:1; stroke:black; fill:white; " points="740,85 743,80 743,90 740,85 " description="&lt;b&gt;WV31_RS18025&lt;/b&gt;&lt;br&gt;AsnC family transcriptional regulator&lt;br&gt;Location: 3849859 - 3850098" id="dummy-3_h3_7_47" locus_tag="WV31_RS18025"  />
</g>
<g id="a3_0048"  >
<polygon class="clusterblast-orf" style="stroke-width:1; stroke:black; fill:white; " points="744,85 749,80 769,80 769,90 749,90 744,85 " description="&lt;b&gt;WV31_RS18030&lt;/b&gt;&lt;br&gt;ATP-dependent helicase&lt;br&gt;Location: 3850113 - 3851792" id="dummy-3_h3_7_48" locus_tag="WV31_RS18030"  />
</g>
<g id="a3_0049"  >
<polygon class="clusterblast-orf" style="stroke-width:1; stroke:black; fill:white; " points="771,90 775,90 780,85 775,80 771,80 771,90 " description="&lt;b&gt;WV31_RS18035&lt;/b&gt;&lt;br&gt;hydrolase&lt;br&gt;Location: 3851913 - 3852455" id="dummy-3_h3_7_49" locus_tag="WV31_RS18035"  />
</g>
</svg>
