<svg version="1.1" preserveAspectRatio="none" width="800" y="0" xmlns:xlink="http://www.w3.org/1999/xlink" height="230" x="0" xmlns="http://www.w3.org/2000/svg" viewBox="0 0 800 230"  >
<g label="Query sequence" class="clusterblast-cluster"  >
<text class="clusterblast-acc" y="20" x="5"  >
Query sequence</text>
<line style="stroke-width:1; stroke:grey; " y1="35" x2="778.0" y2="35" x1="10"  />
<polygon class="clusterblast-orf" style="stroke-width:1; stroke:black; fill:#d81515; " points="163,35 168,30 174,30 174,40 168,40 163,35 " description="&lt;b&gt;P773_RS0102035&lt;/b&gt;&lt;br&gt;phosphate regulon transcriptional regulatory protein PhoB&lt;br&gt;Location: 349897 - 350581" id="dummy-3_q0_0_all" locus_tag="P773_RS0102035"  />
<polygon class="clusterblast-orf" style="stroke-width:1; stroke:black; fill:#5cd815; " points="174,35 179,30 184,30 184,40 179,40 174,35 " description="&lt;b&gt;P773_RS0102040&lt;/b&gt;&lt;br&gt;phosphate transport system regulatory protein PhoU&lt;br&gt;Location: 350584 - 351292" id="dummy-3_q1_0_all" locus_tag="P773_RS0102040"  />
<polygon class="clusterblast-orf" style="stroke-width:1; stroke:black; fill:#15a3d8; " points="184,35 189,30 196,30 196,40 189,40 184,35 " description="&lt;b&gt;P773_RS0102045&lt;/b&gt;&lt;br&gt;phosphate ABC transporter ATP-binding protein&lt;br&gt;Location: 351291 - 352047" id="dummy-3_q2_0_all" locus_tag="P773_RS0102045"  />
<polygon class="clusterblast-orf" style="stroke-width:1; stroke:black; fill:#c715d8; " points="196,35 201,30 215,30 215,40 201,40 196,35 " description="&lt;b&gt;P773_RS0102050&lt;/b&gt;&lt;br&gt;phosphate ABC transporter, permease protein PstA&lt;br&gt;Location: 352050 - 353322" id="dummy-3_q3_0_all" locus_tag="P773_RS0102050"  />
<polygon class="clusterblast-orf" style="stroke-width:1; stroke:black; fill:#d88015; " points="215,35 220,30 236,30 236,40 220,40 215,35 " description="&lt;b&gt;P773_RS0102055&lt;/b&gt;&lt;br&gt;phosphate ABC transporter permease subunit PstC&lt;br&gt;Location: 353314 - 354700" id="dummy-3_q4_0_all" locus_tag="P773_RS0102055"  />
<polygon class="clusterblast-orf" style="stroke-width:1; stroke:black; fill:#15d839; " points="237,35 242,30 253,30 253,40 242,40 237,35 " description="&lt;b&gt;P773_RS0102060&lt;/b&gt;&lt;br&gt;phosphate-binding protein&lt;br&gt;Location: 354775 - 355810" id="dummy-3_q5_0_all" locus_tag="P773_RS0102060"  />
<polygon class="clusterblast-orf" style="stroke-width:1; stroke:black; fill:white; " points="255,35 260,30 263,30 263,40 260,40 255,35 " description="&lt;b&gt;P773_RS0102065&lt;/b&gt;&lt;br&gt;hypothetical protein&lt;br&gt;Location: 355916 - 356483" id="dummy-3_q6_0_all" locus_tag="P773_RS0102065"  />
<polygon class="clusterblast-orf" style="stroke-width:1; stroke:black; fill:#1539d8; " points="265,35 270,30 283,30 283,40 270,40 265,35 " description="&lt;b&gt;P773_RS0102070&lt;/b&gt;&lt;br&gt;hypothetical protein&lt;br&gt;Location: 356628 - 357777" id="dummy-3_q7_0_all" locus_tag="P773_RS0102070"  />
<polygon class="clusterblast-orf" style="stroke-width:1; stroke:black; fill:white; " points="284,40 292,40 297,35 292,30 284,30 284,40 " description="&lt;b&gt;P773_RS0102075&lt;/b&gt;&lt;br&gt;GNAT family N-acetyltransferase&lt;br&gt;Location: 357848 - 358676" id="dummy-3_q8_0_all" locus_tag="P773_RS0102075"  />
<polygon class="clusterblast-orf" style="stroke-width:1; stroke:black; fill:#d81580; " points="297,40 303,40 308,35 303,30 297,30 297,40 " description="&lt;b&gt;P773_RS0102080&lt;/b&gt;&lt;br&gt;hypothetical protein&lt;br&gt;Location: 358675 - 359413" id="dummy-3_q9_0_all" locus_tag="P773_RS0102080"  />
<polygon class="clusterblast-orf" style="stroke-width:1; stroke:black; fill:white; " points="308,35 313,30 323,30 323,40 313,40 308,35 " description="&lt;b&gt;P773_RS0102085&lt;/b&gt;&lt;br&gt;glycosyltransferase family 1 protein&lt;br&gt;Location: 359405 - 360410" id="dummy-3_q10_0_all" locus_tag="P773_RS0102085"  />
<polygon class="clusterblast-orf" style="stroke-width:1; stroke:black; fill:white; " points="323,35 328,30 336,30 336,40 328,40 323,35 " description="&lt;b&gt;P773_RS0102090&lt;/b&gt;&lt;br&gt;UDP-2,3-diacylglucosamine diphosphatase&lt;br&gt;Location: 360412 - 361246" id="dummy-3_q11_0_all" locus_tag="P773_RS0102090"  />
<polygon class="clusterblast-orf" style="stroke-width:1; stroke:black; fill:white; " points="337,40 345,40 350,35 345,30 337,30 337,40 " description="&lt;b&gt;P773_RS0102095&lt;/b&gt;&lt;br&gt;hypothetical protein&lt;br&gt;Location: 361330 - 362221" id="dummy-3_q12_0_all" locus_tag="P773_RS0102095"  />
<polygon class="clusterblast-orf" style="stroke-width:1; stroke:black; fill:white; " points="351,40 355,35 351,30 351,40 " description="&lt;b&gt;P773_RS0102100&lt;/b&gt;&lt;br&gt;hypothetical protein&lt;br&gt;Location: 362290 - 362500" id="dummy-3_q13_0_all" locus_tag="P773_RS0102100"  />
<polygon class="clusterblast-orf" style="stroke-width:1; stroke:black; fill:white; " points="358,35 363,30 374,30 374,40 363,40 358,35 " description="&lt;b&gt;P773_RS0102105&lt;/b&gt;&lt;br&gt;hypothetical protein&lt;br&gt;Location: 362701 - 363799" id="dummy-3_q14_0_all" locus_tag="P773_RS0102105"  />
<polygon class="clusterblast-orf" style="stroke-width:1; stroke:black; fill:white; " points="374,35 379,30 391,30 391,40 379,40 374,35 " description="&lt;b&gt;P773_RS0102110&lt;/b&gt;&lt;br&gt;phosphonopyruvate decarboxylase&lt;br&gt;Location: 363795 - 364893" id="dummy-3_q15_0_all" locus_tag="P773_RS0102110"  />
<polygon class="clusterblast-orf" style="stroke-width:1; stroke:black; fill:white; " points="391,35 396,30 411,30 411,40 396,40 391,35 " description="&lt;b&gt;P773_RS0102115&lt;/b&gt;&lt;br&gt;phosphoenolpyruvate mutase&lt;br&gt;Location: 364885 - 366187" id="dummy-3_q16_0_all" locus_tag="P773_RS0102115"  />
<polygon class="clusterblast-orf" style="stroke-width:1; stroke:black; fill:white; " points="411,35 416,30 430,30 430,40 416,40 411,35 " description="&lt;b&gt;P773_RS0102120&lt;/b&gt;&lt;br&gt;hypothetical protein&lt;br&gt;Location: 366183 - 367488" id="dummy-3_q17_0_all" locus_tag="P773_RS0102120"  />
<polygon class="clusterblast-orf" style="stroke-width:1; stroke:black; fill:white; " points="432,35 437,30 449,30 449,40 437,40 432,35 " description="&lt;b&gt;P773_RS0102125&lt;/b&gt;&lt;br&gt;hypothetical protein&lt;br&gt;Location: 367607 - 368726" id="dummy-3_q18_0_all" locus_tag="P773_RS0102125"  />
<polygon class="clusterblast-orf" style="stroke-width:1; stroke:black; fill:white; " points="450,35 455,30 468,30 468,40 455,40 450,35 " description="&lt;b&gt;P773_RS0102130&lt;/b&gt;&lt;br&gt;mannose-6-phosphate isomerase&lt;br&gt;Location: 368750 - 369956" id="dummy-3_q19_0_all" locus_tag="P773_RS0102130"  />
<polygon class="clusterblast-orf" style="stroke-width:1; stroke:black; fill:white; " points="468,35 473,30 494,30 494,40 473,40 468,35 " description="&lt;b&gt;P773_RS0102135&lt;/b&gt;&lt;br&gt;dihydroxy-acid dehydratase&lt;br&gt;Location: 369955 - 371674" id="dummy-3_q20_0_all" locus_tag="P773_RS0102135"  />
<polygon class="clusterblast-orf" style="stroke-width:1; stroke:black; fill:white; " points="494,35 499,30 534,30 534,40 499,40 494,35 " description="&lt;b&gt;P773_RS0102140&lt;/b&gt;&lt;br&gt;valine--tRNA ligase&lt;br&gt;Location: 371673 - 374301" id="dummy-3_q21_0_all" locus_tag="P773_RS0102140"  />
<polygon class="clusterblast-orf" style="stroke-width:1; stroke:black; fill:white; " points="540,35 545,30 546,30 546,40 545,40 540,35 " description="&lt;b&gt;P773_RS0102155&lt;/b&gt;&lt;br&gt;XRE family transcriptional regulator&lt;br&gt;Location: 374716 - 375088" id="dummy-3_q22_0_all" locus_tag="P773_RS0102155"  />
<polygon class="clusterblast-orf" style="stroke-width:1; stroke:black; fill:#15a3d8; " points="549,35 554,30 560,30 560,40 554,40 549,35 " description="&lt;b&gt;P773_RS0102160&lt;/b&gt;&lt;br&gt;amino acid ABC transporter ATP-binding protein&lt;br&gt;Location: 375275 - 376010" id="dummy-3_q23_0_all" locus_tag="P773_RS0102160"  />
<polygon class="clusterblast-orf" style="stroke-width:1; stroke:black; fill:#c7d815; " points="560,35 565,30 582,30 582,40 565,40 560,35 " description="&lt;b&gt;P773_RS0102165&lt;/b&gt;&lt;br&gt;amino acid ABC transporter permease&lt;br&gt;Location: 376009 - 377452" id="dummy-3_q24_0_all" locus_tag="P773_RS0102165"  />
<polygon class="clusterblast-orf" style="stroke-width:1; stroke:black; fill:#15d8a3; " points="582,35 587,30 599,30 599,40 587,40 582,35 " description="&lt;b&gt;P773_RS0102170&lt;/b&gt;&lt;br&gt;amino acid ABC transporter permease&lt;br&gt;Location: 377451 - 378597" id="dummy-3_q25_0_all" locus_tag="P773_RS0102170"  />
<polygon class="clusterblast-orf" style="stroke-width:1; stroke:black; fill:#5c15d8; " points="600,35 605,30 616,30 616,40 605,40 600,35 " description="&lt;b&gt;P773_RS0102175&lt;/b&gt;&lt;br&gt;amino acid ABC transporter substrate-binding protein&lt;br&gt;Location: 378669 - 379710" id="dummy-3_q26_0_all" locus_tag="P773_RS0102175"  />
</g>
<g label="NZ_JXSL01000020" class="clusterblast-cluster" description="NZ_JXSL01000020_c3: Magnetospirillum magnetotacticum MS-1 contig 3, whole gen... (14% of genes show similarity), terpene"  >
<text class="clusterblast-acc" y="70" x="5"  >
<a xlink:href="https://antismash-db.secondarymetabolites.org/go/NZ_JXSL01000020/3" target="_blank">NZ_JXSL01000020_c3</a>: Magnetospirillum magnetotacticum MS-1 contig 3, whole gen... (14% of genes show similarity), terpene</text>
<line style="stroke-width:1; stroke:grey; " y1="85" x2="778.0" y2="85" x1="10"  />
</g>
<g id="a3_000"  >
<polygon class="clusterblast-orf" style="stroke-width:1; stroke:black; fill:white; " points="0,90 0,90 5,85 0,80 0,80 0,90 " description="&lt;b&gt;CCC_RS02800&lt;/b&gt;&lt;br&gt;hypothetical protein&lt;br&gt;Location: 85401 - 85772" id="dummy-3_h3_5_0" locus_tag="CCC_RS02800"  />
</g>
<g id="a3_001"  >
<polygon class="clusterblast-orf" style="stroke-width:1; stroke:black; fill:white; " points="6,90 8,90 13,85 8,80 6,80 6,90 " description="&lt;b&gt;CCC_RS02805&lt;/b&gt;&lt;br&gt;DUF983 domain-containing protein&lt;br&gt;Location: 85819 - 86274" id="dummy-3_h3_5_1" locus_tag="CCC_RS02805"  />
</g>
<g id="a3_002"  >
<polygon class="clusterblast-orf" style="stroke-width:1; stroke:black; fill:#d81515; " points="14,85 19,80 25,80 25,90 19,90 14,85 " description="&lt;b&gt;CCC_RS02810&lt;/b&gt;&lt;br&gt;DNA-binding response regulator&lt;br&gt;Location: 86373 - 87077&lt;br&gt;&lt;br&gt;&lt;b&gt;BlastP hit with P773_RS0102035&lt;/b&gt;&lt;br&gt;Percentage identity: 32&lt;br&gt;Percentage coverage: 101&lt;br&gt;BLAST bit score: 116&lt;br&gt;E-value: 5.2e-24" id="dummy-3_h3_5_2" locus_tag="CCC_RS02810"  />
</g>
<g id="a3_003"  >
<polygon class="clusterblast-orf" style="stroke-width:1; stroke:black; fill:white; " points="27,90 38,90 43,85 38,80 27,80 27,90 " description="&lt;b&gt;CCC_RS02815&lt;/b&gt;&lt;br&gt;two-component sensor histidine kinase&lt;br&gt;Location: 87242 - 88291" id="dummy-3_h3_5_3" locus_tag="CCC_RS02815"  />
</g>
<g id="a3_004"  >
<polygon class="clusterblast-orf" style="stroke-width:1; stroke:black; fill:white; " points="55,85 60,80 63,80 63,90 60,90 55,85 " description="&lt;b&gt;CCC_RS02820&lt;/b&gt;&lt;br&gt;hypothetical protein&lt;br&gt;Location: 89044 - 89601" id="dummy-3_h3_5_4" locus_tag="CCC_RS02820"  />
</g>
<g id="a3_005"  >
<polygon class="clusterblast-orf" style="stroke-width:1; stroke:black; fill:white; " points="63,85 68,80 69,80 69,90 68,90 63,85 " description="&lt;b&gt;CCC_RS02825&lt;/b&gt;&lt;br&gt;DUF2794 domain-containing protein&lt;br&gt;Location: 89613 - 89948" id="dummy-3_h3_5_5" locus_tag="CCC_RS02825"  />
</g>
<g id="a3_006"  >
<polygon class="clusterblast-orf" style="stroke-width:1; stroke:black; fill:white; " points="70,85 75,80 76,80 76,90 75,90 70,85 " description="&lt;b&gt;CCC_RS02830&lt;/b&gt;&lt;br&gt;hypothetical protein&lt;br&gt;Location: 90029 - 90421" id="dummy-3_h3_5_6" locus_tag="CCC_RS02830"  />
</g>
<g id="a3_007"  >
<polygon class="clusterblast-orf" style="stroke-width:1; stroke:black; fill:white; " points="77,90 80,90 85,85 80,80 77,80 77,90 " description="&lt;b&gt;CCC_RS02835&lt;/b&gt;&lt;br&gt;thioredoxin family protein&lt;br&gt;Location: 90507 - 91061" id="dummy-3_h3_5_7" locus_tag="CCC_RS02835"  />
</g>
<g id="a3_008"  >
<polygon class="clusterblast-orf" style="stroke-width:1; stroke:black; fill:white; " points="88,90 93,90 98,85 93,80 88,80 88,90 " description="&lt;b&gt;CCC_RS02840&lt;/b&gt;&lt;br&gt;hypothetical protein&lt;br&gt;Location: 91212 - 91895" id="dummy-3_h3_5_8" locus_tag="CCC_RS02840"  />
</g>
<g id="a3_009"  >
<polygon class="clusterblast-orf" style="stroke-width:1; stroke:black; fill:white; " points="98,90 113,90 118,85 113,80 98,80 98,90 " description="&lt;b&gt;CCC_RS02845&lt;/b&gt;&lt;br&gt;pyrrolo-quinoline quinone&lt;br&gt;Location: 91899 - 93230" id="dummy-3_h3_5_9" locus_tag="CCC_RS02845"  />
</g>
<g id="a3_0010"  >
<polygon class="clusterblast-orf" style="stroke-width:1; stroke:black; fill:white; " points="119,90 135,90 140,85 135,80 119,80 119,90 " description="&lt;b&gt;CCC_RS02850&lt;/b&gt;&lt;br&gt;ribosome biogenesis GTPase Der&lt;br&gt;Location: 93241 - 94635" id="dummy-3_h3_5_10" locus_tag="CCC_RS02850"  />
</g>
<g id="a3_0011"  >
<polygon class="clusterblast-orf" style="stroke-width:1; stroke:black; fill:white; " points="145,85 150,80 151,80 151,90 150,90 145,85 " description="&lt;b&gt;CCC_RS02855&lt;/b&gt;&lt;br&gt;hypothetical protein&lt;br&gt;Location: 94985 - 95365" id="dummy-3_h3_5_11" locus_tag="CCC_RS02855"  />
</g>
<g id="a3_0012"  >
<polygon class="clusterblast-orf" style="stroke-width:1; stroke:black; fill:white; " points="153,90 158,90 163,85 158,80 153,80 153,90 " description="&lt;b&gt;CCC_RS02860&lt;/b&gt;&lt;br&gt;DNA-binding response regulator&lt;br&gt;Location: 95518 - 96147" id="dummy-3_h3_5_12" locus_tag="CCC_RS02860"  />
</g>
<g id="a3_0013"  >
<polygon class="clusterblast-orf" style="stroke-width:1; stroke:black; fill:white; " points="163,85 168,80 170,80 170,90 168,90 163,85 " description="&lt;b&gt;CCC_RS02865&lt;/b&gt;&lt;br&gt;hypothetical protein&lt;br&gt;Location: 96148 - 96651" id="dummy-3_h3_5_13" locus_tag="CCC_RS02865"  />
</g>
<g id="a3_0014"  >
<polygon class="clusterblast-orf" style="stroke-width:1; stroke:black; fill:white; " points="172,90 173,90 178,85 173,80 172,80 172,90 " description="&lt;b&gt;CCC_RS02870&lt;/b&gt;&lt;br&gt;hypothetical protein&lt;br&gt;Location: 96765 - 97157" id="dummy-3_h3_5_14" locus_tag="CCC_RS02870"  />
</g>
<g id="a3_0015"  >
<polygon class="clusterblast-orf" style="stroke-width:1; stroke:black; fill:white; " points="181,85 186,80 194,80 194,90 186,90 181,85 " description="&lt;b&gt;CCC_RS02875&lt;/b&gt;&lt;br&gt;hypothetical protein&lt;br&gt;Location: 97323 - 98183" id="dummy-3_h3_5_15" locus_tag="CCC_RS02875"  />
</g>
<g id="a3_0016"  >
<polygon class="clusterblast-orf" style="stroke-width:1; stroke:black; fill:white; " points="195,90 199,90 204,85 199,80 195,80 195,90 " description="&lt;b&gt;CCC_RS02880&lt;/b&gt;&lt;br&gt;hypothetical protein&lt;br&gt;Location: 98297 - 98884" id="dummy-3_h3_5_16" locus_tag="CCC_RS02880"  />
</g>
<g id="a3_0017"  >
<polygon class="clusterblast-orf" style="stroke-width:1; stroke:black; fill:white; " points="204,85 208,80 208,90 204,85 " description="&lt;b&gt;CCC_RS02885&lt;/b&gt;&lt;br&gt;DUF3572 domain-containing protein&lt;br&gt;Location: 98861 - 99145" id="dummy-3_h3_5_17" locus_tag="CCC_RS02885"  />
</g>
<g id="a3_0018"  >
<polygon class="clusterblast-orf" style="stroke-width:1; stroke:black; fill:white; " points="208,85 211,80 211,90 208,85 " description="&lt;b&gt;CCC_RS02890&lt;/b&gt;&lt;br&gt;hypothetical protein&lt;br&gt;Location: 99138 - 99326" id="dummy-3_h3_5_18" locus_tag="CCC_RS02890"  />
</g>
<g id="a3_0019"  >
<polygon class="clusterblast-orf" style="stroke-width:1; stroke:black; fill:white; " points="214,90 223,90 228,85 223,80 214,80 214,90 " description="&lt;b&gt;CCC_RS02895&lt;/b&gt;&lt;br&gt;ABC transporter&lt;br&gt;Location: 99495 - 100475" id="dummy-3_h3_5_19" locus_tag="CCC_RS02895"  />
</g>
<g id="a3_0020"  >
<polygon class="clusterblast-orf" style="stroke-width:1; stroke:black; fill:white; " points="228,90 265,90 270,85 265,80 228,80 228,90 " description="&lt;b&gt;CCC_RS02900&lt;/b&gt;&lt;br&gt;sensor domain-containing diguanylate cyclase&lt;br&gt;Location: 100465 - 103215" id="dummy-3_h3_5_20" locus_tag="CCC_RS02900"  />
</g>
<g id="a3_0021"  >
<polygon class="clusterblast-orf" style="stroke-width:1; stroke:black; fill:white; " points="270,85 275,80 277,80 277,90 275,90 270,85 " description="&lt;b&gt;CCC_RS02905&lt;/b&gt;&lt;br&gt;DUF2934 domain-containing protein&lt;br&gt;Location: 103228 - 103647" id="dummy-3_h3_5_21" locus_tag="CCC_RS02905"  />
</g>
<g id="a3_0022"  >
<polygon class="clusterblast-orf" style="stroke-width:1; stroke:black; fill:white; " points="281,85 285,80 285,90 281,85 " description="&lt;b&gt;CCC_RS02910&lt;/b&gt;&lt;br&gt;aryl-sulfate sulfotransferase&lt;br&gt;Location: 103967 - 104179" id="dummy-3_h3_5_22" locus_tag="CCC_RS02910"  />
</g>
<g id="a3_0023"  >
<polygon class="clusterblast-orf" style="stroke-width:1; stroke:black; fill:white; " points="285,85 290,80 345,80 345,90 290,90 285,85 " description="&lt;b&gt;CCC_RS02915&lt;/b&gt;&lt;br&gt;non-ribosomal peptide synthase&lt;br&gt;Location: 104188 - 108162" id="dummy-3_h3_5_23" locus_tag="CCC_RS02915"  />
</g>
<g id="a3_0024"  >
<polygon class="clusterblast-orf" style="stroke-width:1; stroke:black; fill:white; " points="345,85 350,80 354,80 354,90 350,90 345,85 " description="&lt;b&gt;CCC_RS02920&lt;/b&gt;&lt;br&gt;4'-phosphopantetheinyl transferase&lt;br&gt;Location: 108159 - 108773" id="dummy-3_h3_5_24" locus_tag="CCC_RS02920"  />
</g>
<g id="a3_0025"  >
<polygon class="clusterblast-orf" style="stroke-width:1; stroke:black; fill:white; " points="355,90 368,90 373,85 368,80 355,80 355,90 " description="&lt;b&gt;CCC_RS02925&lt;/b&gt;&lt;br&gt;sel1 repeat family protein&lt;br&gt;Location: 108834 - 110003" id="dummy-3_h3_5_25" locus_tag="CCC_RS02925"  />
</g>
<g id="a3_0026"  >
<polygon class="clusterblast-orf" style="stroke-width:1; stroke:black; fill:white; " points="373,90 394,90 399,85 394,80 373,80 373,90 " description="&lt;b&gt;CCC_RS02930&lt;/b&gt;&lt;br&gt;hypothetical protein&lt;br&gt;Location: 110000 - 111682" id="dummy-3_h3_5_26" locus_tag="CCC_RS02930"  />
</g>
<g id="a3_0027"  >
<polygon class="clusterblast-orf" style="stroke-width:1; stroke:black; fill:white; " points="402,90 413,90 418,85 413,80 402,80 402,90 " description="&lt;b&gt;CCC_RS02935&lt;/b&gt;&lt;br&gt;NAD-dependent dehydratase&lt;br&gt;Location: 111933 - 112925" id="dummy-3_h3_5_27" locus_tag="CCC_RS02935"  />
</g>
<g id="a3_0028"  >
<polygon class="clusterblast-orf" style="stroke-width:1; stroke:black; fill:white; " points="418,90 430,90 435,85 430,80 418,80 418,90 " description="&lt;b&gt;CCC_RS02940&lt;/b&gt;&lt;br&gt;glycosyltransferase involved in cell wall biogenesis&lt;br&gt;Location: 112922 - 114085" id="dummy-3_h3_5_28" locus_tag="CCC_RS02940"  />
</g>
<g id="a3_0029"  >
<polygon class="clusterblast-orf" style="stroke-width:1; stroke:black; fill:white; " points="435,90 443,90 448,85 443,80 435,80 435,90 " description="&lt;b&gt;CCC_RS02945&lt;/b&gt;&lt;br&gt;squalene synthase HpnD&lt;br&gt;Location: 114091 - 114951" id="dummy-3_h3_5_29" locus_tag="CCC_RS02945"  />
</g>
<g id="a3_0030"  >
<polygon class="clusterblast-orf" style="stroke-width:1; stroke:black; fill:white; " points="449,90 473,90 478,85 473,80 449,80 449,90 " description="&lt;b&gt;CCC_RS02950&lt;/b&gt;&lt;br&gt;squalene--hopene cyclase&lt;br&gt;Location: 114974 - 116929" id="dummy-3_h3_5_30" locus_tag="CCC_RS02950"  />
</g>
<g id="a3_0031"  >
<polygon class="clusterblast-orf" style="stroke-width:1; stroke:black; fill:white; " points="481,90 486,90 491,85 486,80 481,80 481,90 " description="&lt;b&gt;CCC_RS02955&lt;/b&gt;&lt;br&gt;nucleoside phosphorylase&lt;br&gt;Location: 117078 - 117728" id="dummy-3_h3_5_31" locus_tag="CCC_RS02955"  />
</g>
<g id="a3_0032"  >
<polygon class="clusterblast-orf" style="stroke-width:1; stroke:black; fill:white; " points="490,85 495,80 507,80 507,90 495,90 490,85 " description="&lt;b&gt;CCC_RS02960&lt;/b&gt;&lt;br&gt;hopanoid biosynthesis associated radical SAM protein HpnH&lt;br&gt;Location: 117678 - 118826" id="dummy-3_h3_5_32" locus_tag="CCC_RS02960"  />
</g>
<g id="a3_0033"  >
<polygon class="clusterblast-orf" style="stroke-width:1; stroke:black; fill:#d81515; " points="511,85 516,80 522,80 522,90 516,90 511,85 " description="&lt;b&gt;CCC_RS02965&lt;/b&gt;&lt;br&gt;phosphate regulon transcriptional regulatory protein PhoB&lt;br&gt;Location: 119047 - 119769&lt;br&gt;&lt;br&gt;&lt;b&gt;BlastP hit with P773_RS0102035&lt;/b&gt;&lt;br&gt;Percentage identity: 53&lt;br&gt;Percentage coverage: 98&lt;br&gt;BLAST bit score: 257&lt;br&gt;E-value: 1.5e-66" id="dummy-3_h3_5_33" locus_tag="CCC_RS02965"  />
</g>
<g id="a3_0034"  >
<polygon class="clusterblast-orf" style="stroke-width:1; stroke:black; fill:#5cd815; " points="521,85 526,80 532,80 532,90 526,90 521,85 " description="&lt;b&gt;CCC_RS02970&lt;/b&gt;&lt;br&gt;phosphate transport system regulatory protein PhoU&lt;br&gt;Location: 119766 - 120461&lt;br&gt;&lt;br&gt;&lt;b&gt;BlastP hit with P773_RS0102040&lt;/b&gt;&lt;br&gt;Percentage identity: 45&lt;br&gt;Percentage coverage: 94&lt;br&gt;BLAST bit score: 186&lt;br&gt;E-value: 2.5e-45" id="dummy-3_h3_5_34" locus_tag="CCC_RS02970"  />
</g>
<g id="a3_0035"  >
<polygon class="clusterblast-orf" style="stroke-width:1; stroke:black; fill:#15a3d8; " points="532,85 537,80 544,80 544,90 537,90 532,85 " description="&lt;b&gt;CCC_RS02975&lt;/b&gt;&lt;br&gt;phosphate ABC transporter ATP-binding protein&lt;br&gt;Location: 120463 - 121242&lt;br&gt;&lt;br&gt;&lt;b&gt;BlastP hit with P773_RS0102045&lt;/b&gt;&lt;br&gt;Percentage identity: 68&lt;br&gt;Percentage coverage: 100&lt;br&gt;BLAST bit score: 355&lt;br&gt;E-value: 4.3e-96&lt;br&gt;&lt;br&gt;&lt;b&gt;BlastP hit with P773_RS0102160&lt;/b&gt;&lt;br&gt;Percentage identity: 36&lt;br&gt;Percentage coverage: 99&lt;br&gt;BLAST bit score: 149&lt;br&gt;E-value: 3.5e-34" id="dummy-3_h3_5_35" locus_tag="CCC_RS02975"  />
</g>
<g id="a3_0036"  >
<polygon class="clusterblast-orf" style="stroke-width:1; stroke:black; fill:#c715d8; " points="544,85 549,80 563,80 563,90 549,90 544,85 " description="&lt;b&gt;CCC_RS02980&lt;/b&gt;&lt;br&gt;phosphate ABC transporter, permease protein PstA&lt;br&gt;Location: 121250 - 122533&lt;br&gt;&lt;br&gt;&lt;b&gt;BlastP hit with P773_RS0102050&lt;/b&gt;&lt;br&gt;Percentage identity: 49&lt;br&gt;Percentage coverage: 98&lt;br&gt;BLAST bit score: 354&lt;br&gt;E-value: 2.1e-95" id="dummy-3_h3_5_36" locus_tag="CCC_RS02980"  />
</g>
<g id="a3_0037"  >
<polygon class="clusterblast-orf" style="stroke-width:1; stroke:black; fill:#d88015; " points="563,85 568,80 584,80 584,90 568,90 563,85 " description="&lt;b&gt;CCC_RS02985&lt;/b&gt;&lt;br&gt;phosphate ABC transporter permease subunit PstC&lt;br&gt;Location: 122526 - 123899&lt;br&gt;&lt;br&gt;&lt;b&gt;BlastP hit with P773_RS0102055&lt;/b&gt;&lt;br&gt;Percentage identity: 43&lt;br&gt;Percentage coverage: 101&lt;br&gt;BLAST bit score: 333&lt;br&gt;E-value: 4.2e-89" id="dummy-3_h3_5_37" locus_tag="CCC_RS02985"  />
</g>
<g id="a3_0038"  >
<polygon class="clusterblast-orf" style="stroke-width:1; stroke:black; fill:#15d839; " points="585,85 590,80 601,80 601,90 590,90 585,85 " description="&lt;b&gt;CCC_RS02990&lt;/b&gt;&lt;br&gt;phosphate ABC transporter substrate-binding protein&lt;br&gt;Location: 123960 - 124985&lt;br&gt;&lt;br&gt;&lt;b&gt;BlastP hit with P773_RS0102060&lt;/b&gt;&lt;br&gt;Percentage identity: 48&lt;br&gt;Percentage coverage: 99&lt;br&gt;BLAST bit score: 288&lt;br&gt;E-value: 1.2e-75" id="dummy-3_h3_5_38" locus_tag="CCC_RS02990"  />
</g>
<g id="a3_0039"  >
<polygon class="clusterblast-orf" style="stroke-width:1; stroke:black; fill:white; " points="603,85 608,80 624,80 624,90 608,90 603,85 " description="&lt;b&gt;CCC_RS02995&lt;/b&gt;&lt;br&gt;PLP-dependent aminotransferase family protein&lt;br&gt;Location: 125102 - 126550" id="dummy-3_h3_5_39" locus_tag="CCC_RS02995"  />
</g>
<g id="a3_0040"  >
<polygon class="clusterblast-orf" style="stroke-width:1; stroke:black; fill:white; " points="627,90 630,90 635,85 630,80 627,80 627,90 " description="&lt;b&gt;CCC_RS03000&lt;/b&gt;&lt;br&gt;pyridoxamine 5'-phosphate oxidase family protein&lt;br&gt;Location: 126716 - 127237" id="dummy-3_h3_5_40" locus_tag="CCC_RS03000"  />
</g>
<g id="a3_0041"  >
<polygon class="clusterblast-orf" style="stroke-width:1; stroke:black; fill:white; " points="635,85 640,80 645,80 645,90 640,90 635,85 " description="&lt;b&gt;CCC_RS03005&lt;/b&gt;&lt;br&gt;ribulose-phosphate 3-epimerase&lt;br&gt;Location: 127244 - 127885" id="dummy-3_h3_5_41" locus_tag="CCC_RS03005"  />
</g>
<g id="a3_0042"  >
<polygon class="clusterblast-orf" style="stroke-width:1; stroke:black; fill:white; " points="647,85 652,80 663,80 663,90 652,90 647,85 " description="&lt;b&gt;CCC_RS03010&lt;/b&gt;&lt;br&gt;fructose-bisphosphate aldolase class II&lt;br&gt;Location: 128037 - 129101" id="dummy-3_h3_5_42" locus_tag="CCC_RS03010"  />
</g>
<g id="a3_0043"  >
<polygon class="clusterblast-orf" style="stroke-width:1; stroke:black; fill:white; " points="664,85 669,80 694,80 694,90 669,90 664,85 " description="&lt;b&gt;CCC_RS03015&lt;/b&gt;&lt;br&gt;transketolase&lt;br&gt;Location: 129144 - 131117" id="dummy-3_h3_5_43" locus_tag="CCC_RS03015"  />
</g>
<g id="a3_0044"  >
<polygon class="clusterblast-orf" style="stroke-width:1; stroke:black; fill:white; " points="694,85 699,80 709,80 709,90 699,90 694,85 " description="&lt;b&gt;CCC_RS03020&lt;/b&gt;&lt;br&gt;fructose-bisphosphatase class II&lt;br&gt;Location: 131148 - 132104" id="dummy-3_h3_5_44" locus_tag="CCC_RS03020"  />
</g>
<g id="a3_0045"  >
<polygon class="clusterblast-orf" style="stroke-width:1; stroke:black; fill:white; " points="714,85 719,80 737,80 737,90 719,90 714,85 " description="&lt;b&gt;CCC_RS03025&lt;/b&gt;&lt;br&gt;acetyl-CoA hydrolase&lt;br&gt;Location: 132433 - 133941" id="dummy-3_h3_5_45" locus_tag="CCC_RS03025"  />
</g>
<g id="a3_0046"  >
<polygon class="clusterblast-orf" style="stroke-width:1; stroke:black; fill:white; " points="740,85 743,80 743,90 740,85 " description="&lt;b&gt;CCC_RS03030&lt;/b&gt;&lt;br&gt;Lrp/AsnC family transcriptional regulator&lt;br&gt;Location: 134138 - 134377" id="dummy-3_h3_5_46" locus_tag="CCC_RS03030"  />
</g>
<g id="a3_0047"  >
<polygon class="clusterblast-orf" style="stroke-width:1; stroke:black; fill:white; " points="744,85 749,80 769,80 769,90 749,90 744,85 " description="&lt;b&gt;CCC_RS03035&lt;/b&gt;&lt;br&gt;ATP-dependent helicase&lt;br&gt;Location: 134391 - 136094" id="dummy-3_h3_5_47" locus_tag="CCC_RS03035"  />
</g>
<g id="a3_0048"  >
<polygon class="clusterblast-orf" style="stroke-width:1; stroke:black; fill:white; " points="771,90 775,90 780,85 775,80 771,80 771,90 " description="&lt;b&gt;CCC_RS03040&lt;/b&gt;&lt;br&gt;hydrolase&lt;br&gt;Location: 136213 - 136755" id="dummy-3_h3_5_48" locus_tag="CCC_RS03040"  />
</g>
</svg>
