<svg version="1.1" preserveAspectRatio="none" width="800" y="0" xmlns:xlink="http://www.w3.org/1999/xlink" height="230" x="0" xmlns="http://www.w3.org/2000/svg" viewBox="0 0 800 230"  >
<g label="Query sequence" class="clusterblast-cluster"  >
<text class="clusterblast-acc" y="20" x="5"  >
Query sequence</text>
<line style="stroke-width:1; stroke:grey; " y1="35" x2="778.0" y2="35" x1="10"  />
<polygon class="clusterblast-orf" style="stroke-width:1; stroke:black; fill:#d81515; " points="126,35 131,30 138,30 138,40 131,40 126,35 " description="&lt;b&gt;P773_RS0102035&lt;/b&gt;&lt;br&gt;phosphate regulon transcriptional regulatory protein PhoB&lt;br&gt;Location: 349897 - 350581" id="dummy-3_q0_0_all" locus_tag="P773_RS0102035"  />
<polygon class="clusterblast-orf" style="stroke-width:1; stroke:black; fill:#5cd815; " points="138,35 143,30 151,30 151,40 143,40 138,35 " description="&lt;b&gt;P773_RS0102040&lt;/b&gt;&lt;br&gt;phosphate transport system regulatory protein PhoU&lt;br&gt;Location: 350584 - 351292" id="dummy-3_q1_0_all" locus_tag="P773_RS0102040"  />
<polygon class="clusterblast-orf" style="stroke-width:1; stroke:black; fill:#15a3d8; " points="151,35 156,30 164,30 164,40 156,40 151,35 " description="&lt;b&gt;P773_RS0102045&lt;/b&gt;&lt;br&gt;phosphate ABC transporter ATP-binding protein&lt;br&gt;Location: 351291 - 352047" id="dummy-3_q2_0_all" locus_tag="P773_RS0102045"  />
<polygon class="clusterblast-orf" style="stroke-width:1; stroke:black; fill:#c715d8; " points="164,35 169,30 187,30 187,40 169,40 164,35 " description="&lt;b&gt;P773_RS0102050&lt;/b&gt;&lt;br&gt;phosphate ABC transporter, permease protein PstA&lt;br&gt;Location: 352050 - 353322" id="dummy-3_q3_0_all" locus_tag="P773_RS0102050"  />
<polygon class="clusterblast-orf" style="stroke-width:1; stroke:black; fill:#d88015; " points="186,35 191,30 211,30 211,40 191,40 186,35 " description="&lt;b&gt;P773_RS0102055&lt;/b&gt;&lt;br&gt;phosphate ABC transporter permease subunit PstC&lt;br&gt;Location: 353314 - 354700" id="dummy-3_q4_0_all" locus_tag="P773_RS0102055"  />
<polygon class="clusterblast-orf" style="stroke-width:1; stroke:black; fill:#15d839; " points="212,35 217,30 231,30 231,40 217,40 212,35 " description="&lt;b&gt;P773_RS0102060&lt;/b&gt;&lt;br&gt;phosphate-binding protein&lt;br&gt;Location: 354775 - 355810" id="dummy-3_q5_0_all" locus_tag="P773_RS0102060"  />
<polygon class="clusterblast-orf" style="stroke-width:1; stroke:black; fill:white; " points="232,35 237,30 242,30 242,40 237,40 232,35 " description="&lt;b&gt;P773_RS0102065&lt;/b&gt;&lt;br&gt;hypothetical protein&lt;br&gt;Location: 355916 - 356483" id="dummy-3_q6_0_all" locus_tag="P773_RS0102065"  />
<polygon class="clusterblast-orf" style="stroke-width:1; stroke:black; fill:#1539d8; " points="245,35 250,30 265,30 265,40 250,40 245,35 " description="&lt;b&gt;P773_RS0102070&lt;/b&gt;&lt;br&gt;hypothetical protein&lt;br&gt;Location: 356628 - 357777" id="dummy-3_q7_0_all" locus_tag="P773_RS0102070"  />
<polygon class="clusterblast-orf" style="stroke-width:1; stroke:black; fill:white; " points="267,40 276,40 281,35 276,30 267,30 267,40 " description="&lt;b&gt;P773_RS0102075&lt;/b&gt;&lt;br&gt;GNAT family N-acetyltransferase&lt;br&gt;Location: 357848 - 358676" id="dummy-3_q8_0_all" locus_tag="P773_RS0102075"  />
<polygon class="clusterblast-orf" style="stroke-width:1; stroke:black; fill:#d81580; " points="281,40 289,40 294,35 289,30 281,30 281,40 " description="&lt;b&gt;P773_RS0102080&lt;/b&gt;&lt;br&gt;hypothetical protein&lt;br&gt;Location: 358675 - 359413" id="dummy-3_q9_0_all" locus_tag="P773_RS0102080"  />
<polygon class="clusterblast-orf" style="stroke-width:1; stroke:black; fill:white; " points="294,35 299,30 312,30 312,40 299,40 294,35 " description="&lt;b&gt;P773_RS0102085&lt;/b&gt;&lt;br&gt;glycosyltransferase family 1 protein&lt;br&gt;Location: 359405 - 360410" id="dummy-3_q10_0_all" locus_tag="P773_RS0102085"  />
<polygon class="clusterblast-orf" style="stroke-width:1; stroke:black; fill:white; " points="312,35 317,30 327,30 327,40 317,40 312,35 " description="&lt;b&gt;P773_RS0102090&lt;/b&gt;&lt;br&gt;UDP-2,3-diacylglucosamine diphosphatase&lt;br&gt;Location: 360412 - 361246" id="dummy-3_q11_0_all" locus_tag="P773_RS0102090"  />
<polygon class="clusterblast-orf" style="stroke-width:1; stroke:black; fill:white; " points="328,40 339,40 344,35 339,30 328,30 328,40 " description="&lt;b&gt;P773_RS0102095&lt;/b&gt;&lt;br&gt;hypothetical protein&lt;br&gt;Location: 361330 - 362221" id="dummy-3_q12_0_all" locus_tag="P773_RS0102095"  />
<polygon class="clusterblast-orf" style="stroke-width:1; stroke:black; fill:white; " points="345,40 349,35 345,30 345,40 " description="&lt;b&gt;P773_RS0102100&lt;/b&gt;&lt;br&gt;hypothetical protein&lt;br&gt;Location: 362290 - 362500" id="dummy-3_q13_0_all" locus_tag="P773_RS0102100"  />
<polygon class="clusterblast-orf" style="stroke-width:1; stroke:black; fill:white; " points="352,35 357,30 372,30 372,40 357,40 352,35 " description="&lt;b&gt;P773_RS0102105&lt;/b&gt;&lt;br&gt;hypothetical protein&lt;br&gt;Location: 362701 - 363799" id="dummy-3_q14_0_all" locus_tag="P773_RS0102105"  />
<polygon class="clusterblast-orf" style="stroke-width:1; stroke:black; fill:white; " points="372,35 377,30 391,30 391,40 377,40 372,35 " description="&lt;b&gt;P773_RS0102110&lt;/b&gt;&lt;br&gt;phosphonopyruvate decarboxylase&lt;br&gt;Location: 363795 - 364893" id="dummy-3_q15_0_all" locus_tag="P773_RS0102110"  />
<polygon class="clusterblast-orf" style="stroke-width:1; stroke:black; fill:white; " points="391,35 396,30 414,30 414,40 396,40 391,35 " description="&lt;b&gt;P773_RS0102115&lt;/b&gt;&lt;br&gt;phosphoenolpyruvate mutase&lt;br&gt;Location: 364885 - 366187" id="dummy-3_q16_0_all" locus_tag="P773_RS0102115"  />
<polygon class="clusterblast-orf" style="stroke-width:1; stroke:black; fill:white; " points="414,35 419,30 437,30 437,40 419,40 414,35 " description="&lt;b&gt;P773_RS0102120&lt;/b&gt;&lt;br&gt;hypothetical protein&lt;br&gt;Location: 366183 - 367488" id="dummy-3_q17_0_all" locus_tag="P773_RS0102120"  />
<polygon class="clusterblast-orf" style="stroke-width:1; stroke:black; fill:white; " points="439,35 444,30 459,30 459,40 444,40 439,35 " description="&lt;b&gt;P773_RS0102125&lt;/b&gt;&lt;br&gt;hypothetical protein&lt;br&gt;Location: 367607 - 368726" id="dummy-3_q18_0_all" locus_tag="P773_RS0102125"  />
<polygon class="clusterblast-orf" style="stroke-width:1; stroke:black; fill:white; " points="460,35 465,30 481,30 481,40 465,40 460,35 " description="&lt;b&gt;P773_RS0102130&lt;/b&gt;&lt;br&gt;mannose-6-phosphate isomerase&lt;br&gt;Location: 368750 - 369956" id="dummy-3_q19_0_all" locus_tag="P773_RS0102130"  />
<polygon class="clusterblast-orf" style="stroke-width:1; stroke:black; fill:white; " points="481,35 486,30 511,30 511,40 486,40 481,35 " description="&lt;b&gt;P773_RS0102135&lt;/b&gt;&lt;br&gt;dihydroxy-acid dehydratase&lt;br&gt;Location: 369955 - 371674" id="dummy-3_q20_0_all" locus_tag="P773_RS0102135"  />
<polygon class="clusterblast-orf" style="stroke-width:1; stroke:black; fill:white; " points="511,35 516,30 558,30 558,40 516,40 511,35 " description="&lt;b&gt;P773_RS0102140&lt;/b&gt;&lt;br&gt;valine--tRNA ligase&lt;br&gt;Location: 371673 - 374301" id="dummy-3_q21_0_all" locus_tag="P773_RS0102140"  />
<polygon class="clusterblast-orf" style="stroke-width:1; stroke:black; fill:white; " points="565,35 570,30 572,30 572,40 570,40 565,35 " description="&lt;b&gt;P773_RS0102155&lt;/b&gt;&lt;br&gt;XRE family transcriptional regulator&lt;br&gt;Location: 374716 - 375088" id="dummy-3_q22_0_all" locus_tag="P773_RS0102155"  />
<polygon class="clusterblast-orf" style="stroke-width:1; stroke:black; fill:#15a3d8; " points="575,35 580,30 588,30 588,40 580,40 575,35 " description="&lt;b&gt;P773_RS0102160&lt;/b&gt;&lt;br&gt;amino acid ABC transporter ATP-binding protein&lt;br&gt;Location: 375275 - 376010" id="dummy-3_q23_0_all" locus_tag="P773_RS0102160"  />
<polygon class="clusterblast-orf" style="stroke-width:1; stroke:black; fill:#c7d815; " points="588,35 593,30 613,30 613,40 593,40 588,35 " description="&lt;b&gt;P773_RS0102165&lt;/b&gt;&lt;br&gt;amino acid ABC transporter permease&lt;br&gt;Location: 376009 - 377452" id="dummy-3_q24_0_all" locus_tag="P773_RS0102165"  />
<polygon class="clusterblast-orf" style="stroke-width:1; stroke:black; fill:#15d8a3; " points="613,35 618,30 634,30 634,40 618,40 613,35 " description="&lt;b&gt;P773_RS0102170&lt;/b&gt;&lt;br&gt;amino acid ABC transporter permease&lt;br&gt;Location: 377451 - 378597" id="dummy-3_q25_0_all" locus_tag="P773_RS0102170"  />
<polygon class="clusterblast-orf" style="stroke-width:1; stroke:black; fill:#5c15d8; " points="635,35 640,30 653,30 653,40 640,40 635,35 " description="&lt;b&gt;P773_RS0102175&lt;/b&gt;&lt;br&gt;amino acid ABC transporter substrate-binding protein&lt;br&gt;Location: 378669 - 379710" id="dummy-3_q26_0_all" locus_tag="P773_RS0102175"  />
</g>
<g label="NZ_BCNS01000145" class="clusterblast-cluster" description="NZ_BCNS01000145_c5: Marinobacterium profundum strain PAMC 27536, whole genome... (18% of genes show similarity), t1pks"  >
<text class="clusterblast-acc" y="70" x="5"  >
<a xlink:href="https://antismash-db.secondarymetabolites.org/go/NZ_BCNS01000145/5" target="_blank">NZ_BCNS01000145_c5</a>: Marinobacterium profundum strain PAMC 27536, whole genome... (18% of genes show similarity), t1pks</text>
<line style="stroke-width:1; stroke:grey; " y1="85" x2="778.0" y2="85" x1="10"  />
</g>
<g id="a3_000"  >
<polygon class="clusterblast-orf" style="stroke-width:1; stroke:black; fill:white; " points="0,90 12,90 17,85 12,80 0,80 0,90 " description="&lt;b&gt;MPRO_RS17470&lt;/b&gt;&lt;br&gt;hypothetical protein&lt;br&gt;Location: 67667 - 68632" id="dummy-3_h3_10_0" locus_tag="MPRO_RS17470"  />
</g>
<g id="a3_001"  >
<polygon class="clusterblast-orf" style="stroke-width:1; stroke:black; fill:white; " points="17,90 48,90 53,85 48,80 17,80 17,90 " description="&lt;b&gt;MPRO_RS17475&lt;/b&gt;&lt;br&gt;hypothetical protein&lt;br&gt;Location: 68632 - 70701" id="dummy-3_h3_10_1" locus_tag="MPRO_RS17475"  />
</g>
<g id="a3_002"  >
<polygon class="clusterblast-orf" style="stroke-width:1; stroke:black; fill:white; " points="54,90 66,90 71,85 66,80 54,80 54,90 " description="&lt;b&gt;MPRO_RS17480&lt;/b&gt;&lt;br&gt;glycosyltransferase family 1 protein&lt;br&gt;Location: 70773 - 71684" id="dummy-3_h3_10_2" locus_tag="MPRO_RS17480"  />
</g>
<g id="a3_003"  >
<polygon class="clusterblast-orf" style="stroke-width:1; stroke:black; fill:white; " points="71,90 101,90 106,85 101,80 71,80 71,90 " description="&lt;b&gt;MPRO_RS17485&lt;/b&gt;&lt;br&gt;capsular polysaccharide biosynthesis protein&lt;br&gt;Location: 71681 - 73681" id="dummy-3_h3_10_3" locus_tag="MPRO_RS17485"  />
</g>
<g id="a3_004"  >
<polygon class="clusterblast-orf" style="stroke-width:1; stroke:black; fill:white; " points="106,85 111,80 137,80 137,90 111,90 106,85 " description="&lt;b&gt;MPRO_RS17490&lt;/b&gt;&lt;br&gt;carboxylate transporter&lt;br&gt;Location: 73696 - 75423" id="dummy-3_h3_10_4" locus_tag="MPRO_RS17490"  />
</g>
<g id="a3_005"  >
<polygon class="clusterblast-orf" style="stroke-width:1; stroke:black; fill:white; " points="156,90 167,90 172,85 167,80 156,80 156,90 " description="&lt;b&gt;MPRO_RS17495&lt;/b&gt;&lt;br&gt;sulfate adenylyltransferase subunit CysD&lt;br&gt;Location: 76513 - 77412" id="dummy-3_h3_10_5" locus_tag="MPRO_RS17495"  />
</g>
<g id="a3_006"  >
<polygon class="clusterblast-orf" style="stroke-width:1; stroke:black; fill:white; " points="172,90 201,90 206,85 201,80 172,80 172,90 " description="&lt;b&gt;MPRO_RS17500&lt;/b&gt;&lt;br&gt;sulfate adenylyltransferase subunit CysN&lt;br&gt;Location: 77412 - 79322" id="dummy-3_h3_10_6" locus_tag="MPRO_RS17500"  />
</g>
<g id="a3_007"  >
<polygon class="clusterblast-orf" style="stroke-width:1; stroke:black; fill:white; " points="207,90 216,90 221,85 216,80 207,80 207,90 " description="&lt;b&gt;MPRO_RS17505&lt;/b&gt;&lt;br&gt;3'(2'),5'-bisphosphate nucleotidase&lt;br&gt;Location: 79392 - 80192" id="dummy-3_h3_10_7" locus_tag="MPRO_RS17505"  />
</g>
<g id="a3_008"  >
<polygon class="clusterblast-orf" style="stroke-width:1; stroke:black; fill:white; " points="230,90 254,90 259,85 254,80 230,80 230,90 " description="&lt;b&gt;MPRO_RS17510&lt;/b&gt;&lt;br&gt;glucose-6-phosphate isomerase&lt;br&gt;Location: 80687 - 82330" id="dummy-3_h3_10_8" locus_tag="MPRO_RS17510"  />
</g>
<g id="a3_009"  >
<polygon class="clusterblast-orf" style="stroke-width:1; stroke:black; fill:white; " points="260,90 278,90 283,85 278,80 260,80 260,90 " description="&lt;b&gt;MPRO_RS17515&lt;/b&gt;&lt;br&gt;UDP-glucose/GDP-mannose dehydrogenase family protein&lt;br&gt;Location: 82401 - 83678" id="dummy-3_h3_10_9" locus_tag="MPRO_RS17515"  />
</g>
<g id="a3_0010"  >
<polygon class="clusterblast-orf" style="stroke-width:1; stroke:black; fill:white; " points="284,90 303,90 308,85 303,80 284,80 284,90 " description="&lt;b&gt;MPRO_RS17520&lt;/b&gt;&lt;br&gt;phosphomannomutase/phosphoglucomutase&lt;br&gt;Location: 83763 - 85130" id="dummy-3_h3_10_10" locus_tag="MPRO_RS17520"  />
</g>
<g id="a3_0011"  >
<polygon class="clusterblast-orf" style="stroke-width:1; stroke:black; fill:white; " points="311,90 442,90 447,85 442,80 311,80 311,90 " description="&lt;b&gt;MPRO_RS17525&lt;/b&gt;&lt;br&gt;KR domain-containing protein&lt;br&gt;Location: 85277 - 92932" id="dummy-3_h3_10_11" locus_tag="MPRO_RS17525"  />
</g>
<g id="a3_0012"  >
<polygon class="clusterblast-orf" style="stroke-width:1; stroke:black; fill:white; " points="446,90 466,90 471,85 466,80 446,80 446,90 " description="&lt;b&gt;MPRO_RS17530&lt;/b&gt;&lt;br&gt;8-amino-7-oxononanoate synthase&lt;br&gt;Location: 92929 - 94290" id="dummy-3_h3_10_12" locus_tag="MPRO_RS17530"  />
</g>
<g id="a3_0013"  >
<polygon class="clusterblast-orf" style="stroke-width:1; stroke:black; fill:white; " points="472,90 481,90 486,85 481,80 472,80 472,90 " description="&lt;b&gt;MPRO_RS17535&lt;/b&gt;&lt;br&gt;hypothetical protein&lt;br&gt;Location: 94389 - 95174" id="dummy-3_h3_10_13" locus_tag="MPRO_RS17535"  />
</g>
<g id="a3_0014"  >
<polygon class="clusterblast-orf" style="stroke-width:1; stroke:black; fill:white; " points="488,85 493,80 514,80 514,90 493,90 488,85 " description="&lt;b&gt;MPRO_RS17540&lt;/b&gt;&lt;br&gt;LTA synthase family protein&lt;br&gt;Location: 95262 - 96758" id="dummy-3_h3_10_14" locus_tag="MPRO_RS17540"  />
</g>
<g id="a3_0015"  >
<polygon class="clusterblast-orf" style="stroke-width:1; stroke:black; fill:white; " points="515,85 520,80 528,80 528,90 520,90 515,85 " description="&lt;b&gt;MPRO_RS17545&lt;/b&gt;&lt;br&gt;KR domain-containing protein&lt;br&gt;Location: 96782 - 97564" id="dummy-3_h3_10_15" locus_tag="MPRO_RS17545"  />
</g>
<g id="a3_0016"  >
<polygon class="clusterblast-orf" style="stroke-width:1; stroke:black; fill:white; " points="528,85 533,80 550,80 550,90 533,90 528,85 " description="&lt;b&gt;MPRO_RS17550&lt;/b&gt;&lt;br&gt;hypothetical protein&lt;br&gt;Location: 97552 - 98808" id="dummy-3_h3_10_16" locus_tag="MPRO_RS17550"  />
</g>
<g id="a3_0017"  >
<polygon class="clusterblast-orf" style="stroke-width:1; stroke:black; fill:white; " points="552,85 557,80 565,80 565,90 557,90 552,85 " description="&lt;b&gt;MPRO_RS17555&lt;/b&gt;&lt;br&gt;molecular chaperone DnaJ&lt;br&gt;Location: 98897 - 99619" id="dummy-3_h3_10_17" locus_tag="MPRO_RS17555"  />
</g>
<g id="a3_0018"  >
<polygon class="clusterblast-orf" style="stroke-width:1; stroke:black; fill:white; " points="565,85 570,80 578,80 578,90 570,90 565,85 " description="&lt;b&gt;MPRO_RS17560&lt;/b&gt;&lt;br&gt;hypothetical protein&lt;br&gt;Location: 99649 - 100347" id="dummy-3_h3_10_18" locus_tag="MPRO_RS17560"  />
</g>
<g id="a3_0019"  >
<polygon class="clusterblast-orf" style="stroke-width:1; stroke:black; fill:#d81580; " points="579,85 584,80 610,80 610,90 584,90 579,85 " description="&lt;b&gt;MPRO_RS17565&lt;/b&gt;&lt;br&gt;GNAT family N-acetyltransferase&lt;br&gt;Location: 100435 - 102180&lt;br&gt;&lt;br&gt;&lt;b&gt;BlastP hit with P773_RS0102080&lt;/b&gt;&lt;br&gt;Percentage identity: 33&lt;br&gt;Percentage coverage: 82&lt;br&gt;BLAST bit score: 107&lt;br&gt;E-value: 2e-21" id="dummy-3_h3_10_19" locus_tag="MPRO_RS17565"  />
</g>
<g id="a3_0020"  >
<polygon class="clusterblast-orf" style="stroke-width:1; stroke:black; fill:white; " points="620,90 634,90 639,85 634,80 620,80 620,90 " description="&lt;b&gt;MPRO_RS17570&lt;/b&gt;&lt;br&gt;DNA polymerase IV&lt;br&gt;Location: 102737 - 103810" id="dummy-3_h3_10_20" locus_tag="MPRO_RS17570"  />
</g>
<g id="a3_0021"  >
<polygon class="clusterblast-orf" style="stroke-width:1; stroke:black; fill:white; " points="639,85 644,80 646,80 646,90 644,90 639,85 " description="&lt;b&gt;MPRO_RS17575&lt;/b&gt;&lt;br&gt;type III effector&lt;br&gt;Location: 103838 - 104179" id="dummy-3_h3_10_21" locus_tag="MPRO_RS17575"  />
</g>
<g id="a3_0022"  >
<polygon class="clusterblast-orf" style="stroke-width:1; stroke:black; fill:#15a3d8; " points="651,85 656,80 665,80 665,90 656,90 651,85 " description="&lt;b&gt;MPRO_RS17580&lt;/b&gt;&lt;br&gt;amino acid ABC transporter ATP-binding protein&lt;br&gt;Location: 104495 - 105256&lt;br&gt;&lt;br&gt;&lt;b&gt;BlastP hit with P773_RS0102045&lt;/b&gt;&lt;br&gt;Percentage identity: 35&lt;br&gt;Percentage coverage: 98&lt;br&gt;BLAST bit score: 148&lt;br&gt;E-value: 8.1e-34&lt;br&gt;&lt;br&gt;&lt;b&gt;BlastP hit with P773_RS0102160&lt;/b&gt;&lt;br&gt;Percentage identity: 69&lt;br&gt;Percentage coverage: 98&lt;br&gt;BLAST bit score: 348&lt;br&gt;E-value: 5.2e-94" id="dummy-3_h3_10_22" locus_tag="MPRO_RS17580"  />
</g>
<g id="a3_0023"  >
<polygon class="clusterblast-orf" style="stroke-width:1; stroke:black; fill:#c7d815; " points="665,85 670,80 684,80 684,90 670,90 665,85 " description="&lt;b&gt;MPRO_RS17585&lt;/b&gt;&lt;br&gt;amino acid ABC transporter permease&lt;br&gt;Location: 105278 - 106378&lt;br&gt;&lt;br&gt;&lt;b&gt;BlastP hit with P773_RS0102165&lt;/b&gt;&lt;br&gt;Percentage identity: 39&lt;br&gt;Percentage coverage: 83&lt;br&gt;BLAST bit score: 292&lt;br&gt;E-value: 6.6e-77" id="dummy-3_h3_10_23" locus_tag="MPRO_RS17585"  />
</g>
<g id="a3_0024"  >
<polygon class="clusterblast-orf" style="stroke-width:1; stroke:black; fill:#15d8a3; " points="685,85 690,80 706,80 706,90 690,90 685,85 " description="&lt;b&gt;MPRO_RS17590&lt;/b&gt;&lt;br&gt;amino acid ABC transporter permease&lt;br&gt;Location: 106403 - 107611&lt;br&gt;&lt;br&gt;&lt;b&gt;BlastP hit with P773_RS0102170&lt;/b&gt;&lt;br&gt;Percentage identity: 47&lt;br&gt;Percentage coverage: 99&lt;br&gt;BLAST bit score: 319&lt;br&gt;E-value: 4e-85" id="dummy-3_h3_10_24" locus_tag="MPRO_RS17590"  />
</g>
<g id="a3_0025"  >
<polygon class="clusterblast-orf" style="stroke-width:1; stroke:black; fill:#5c15d8; " points="709,85 714,80 727,80 727,90 714,90 709,85 " description="&lt;b&gt;MPRO_RS17595&lt;/b&gt;&lt;br&gt;amino acid ABC transporter substrate-binding protein&lt;br&gt;Location: 107756 - 108772&lt;br&gt;&lt;br&gt;&lt;b&gt;BlastP hit with P773_RS0102175&lt;/b&gt;&lt;br&gt;Percentage identity: 52&lt;br&gt;Percentage coverage: 97&lt;br&gt;BLAST bit score: 365&lt;br&gt;E-value: 7.6e-99" id="dummy-3_h3_10_25" locus_tag="MPRO_RS17595"  />
</g>
<g id="a3_0026"  >
<polygon class="clusterblast-orf" style="stroke-width:1; stroke:black; fill:white; " points="743,85 748,80 780,80 780,90 748,90 743,85 " description="&lt;b&gt;MPRO_RS17600&lt;/b&gt;&lt;br&gt;methionine--tRNA ligase&lt;br&gt;Location: 109713 - 111752" id="dummy-3_h3_10_26" locus_tag="MPRO_RS17600"  />
</g>
</svg>
