<svg version="1.1" preserveAspectRatio="none" width="800" y="0" xmlns:xlink="http://www.w3.org/1999/xlink" height="230" x="0" xmlns="http://www.w3.org/2000/svg" viewBox="0 0 800 230"  >
<g label="Query sequence" class="clusterblast-cluster"  >
<text class="clusterblast-acc" y="20" x="5"  >
Query sequence</text>
<line style="stroke-width:1; stroke:grey; " y1="35" x2="778.0" y2="35" x1="10"  />
<polygon class="clusterblast-orf" style="stroke-width:1; stroke:black; fill:#d81515; " points="67,40 77,40 82,35 77,30 67,30 67,40 " description="&lt;b&gt;P773_RS0107165&lt;/b&gt;&lt;br&gt;biphenyl 2,3-dioxygenase&lt;br&gt;Location: 1328932 - 1329700" id="dummy-11_q0_0_all" locus_tag="P773_RS0107165"  />
<polygon class="clusterblast-orf" style="stroke-width:1; stroke:black; fill:#63d815; " points="84,40 85,40 90,35 85,30 84,30 84,40 " description="&lt;b&gt;P773_RS0107170&lt;/b&gt;&lt;br&gt;(2Fe-2S) ferredoxin&lt;br&gt;Location: 1329782 - 1330103" id="dummy-11_q1_0_all" locus_tag="P773_RS0107170"  />
<polygon class="clusterblast-orf" style="stroke-width:1; stroke:black; fill:#15b1d8; " points="90,40 105,40 110,35 105,30 90,30 90,40 " description="&lt;b&gt;P773_RS0107175&lt;/b&gt;&lt;br&gt;NAD(P)/FAD-dependent oxidoreductase&lt;br&gt;Location: 1330103 - 1331120" id="dummy-11_q2_0_all" locus_tag="P773_RS0107175"  />
<polygon class="clusterblast-orf" style="stroke-width:1; stroke:black; fill:#b115d8; " points="110,40 117,40 122,35 117,30 110,30 110,40 " description="&lt;b&gt;P773_RS0107180&lt;/b&gt;&lt;br&gt;thiol:disulfide oxidoreductase&lt;br&gt;Location: 1331116 - 1331743" id="dummy-11_q3_0_all" locus_tag="P773_RS0107180"  />
<polygon class="clusterblast-orf" style="stroke-width:1; stroke:black; fill:white; " points="127,35 132,30 143,30 143,40 132,40 127,35 " description="&lt;b&gt;P773_RS0107185&lt;/b&gt;&lt;br&gt;phytanoyl-CoA dioxygenase&lt;br&gt;Location: 1331959 - 1332787" id="dummy-11_q4_0_all" locus_tag="P773_RS0107185"  />
<polygon class="clusterblast-orf" style="stroke-width:1; stroke:black; fill:white; " points="143,40 153,40 158,35 153,30 143,30 143,40 " description="&lt;b&gt;P773_RS0107190&lt;/b&gt;&lt;br&gt;MOSC domain-containing protein&lt;br&gt;Location: 1332806 - 1333592" id="dummy-11_q5_0_all" locus_tag="P773_RS0107190"  />
<polygon class="clusterblast-orf" style="stroke-width:1; stroke:black; fill:#d86315; " points="160,40 172,40 177,35 172,30 160,30 160,40 " description="&lt;b&gt;P773_RS0107195&lt;/b&gt;&lt;br&gt;ABC transporter substrate-binding protein&lt;br&gt;Location: 1333693 - 1334539" id="dummy-11_q6_0_all" locus_tag="P773_RS0107195"  />
<polygon class="clusterblast-orf" style="stroke-width:1; stroke:black; fill:#15d815; " points="178,40 187,40 192,35 187,30 178,30 178,40 " description="&lt;b&gt;P773_RS0107200&lt;/b&gt;&lt;br&gt;ectoine/hydroxyectoine ABC transporter permease subunit EhuC&lt;br&gt;Location: 1334612 - 1335284" id="dummy-11_q7_0_all" locus_tag="P773_RS0107200"  />
<polygon class="clusterblast-orf" style="stroke-width:1; stroke:black; fill:#15d815; " points="192,40 200,40 205,35 200,30 192,30 192,40 " description="&lt;b&gt;P773_RS0107205&lt;/b&gt;&lt;br&gt;ectoine/hydroxyectoine ABC transporter permease subunit EhuD&lt;br&gt;Location: 1335285 - 1335972" id="dummy-11_q8_0_all" locus_tag="P773_RS0107205"  />
<polygon class="clusterblast-orf" style="stroke-width:1; stroke:black; fill:#1563d8; " points="205,40 215,40 220,35 215,30 205,30 205,40 " description="&lt;b&gt;P773_RS0107210&lt;/b&gt;&lt;br&gt;ectoine/hydroxyectoine ABC transporter ATP-binding protein EhuA&lt;br&gt;Location: 1335973 - 1336762" id="dummy-11_q9_0_all" locus_tag="P773_RS0107210"  />
<polygon class="clusterblast-orf" style="stroke-width:1; stroke:black; fill:#d815b1; " points="221,35 226,30 231,30 231,40 226,40 221,35 " description="&lt;b&gt;P773_RS0107215&lt;/b&gt;&lt;br&gt;molecular chaperone DnaK&lt;br&gt;Location: 1336773 - 1337316" id="dummy-11_q10_0_all" locus_tag="P773_RS0107215"  />
<polygon class="clusterblast-orf" style="stroke-width:1; stroke:black; fill:#d8b115; " points="233,40 255,40 260,35 255,30 233,30 233,40 " description="&lt;b&gt;P773_RS0107220&lt;/b&gt;&lt;br&gt;membrane protein&lt;br&gt;Location: 1337394 - 1338786" id="dummy-11_q11_0_all" locus_tag="P773_RS0107220"  />
<polygon class="clusterblast-orf" style="stroke-width:1; stroke:black; fill:#15d863; " points="260,40 272,40 277,35 272,30 260,30 260,40 " description="&lt;b&gt;P773_RS0107225&lt;/b&gt;&lt;br&gt;glycosyl transferase&lt;br&gt;Location: 1338786 - 1339656" id="dummy-11_q12_0_all" locus_tag="P773_RS0107225"  />
<polygon class="clusterblast-orf" style="stroke-width:1; stroke:black; fill:white; " points="277,35 282,30 302,30 302,40 282,40 277,35 " description="&lt;b&gt;P773_RS0107230&lt;/b&gt;&lt;br&gt;DNA polymerase V UmuC&lt;br&gt;Location: 1339664 - 1340945" id="dummy-11_q13_0_all" locus_tag="P773_RS0107230"  />
<polygon class="clusterblast-orf" style="stroke-width:1; stroke:black; fill:white; " points="302,35 307,30 310,30 310,40 307,40 302,35 " description="&lt;b&gt;P773_RS0107235&lt;/b&gt;&lt;br&gt;error-prone repair protein UmuD&lt;br&gt;Location: 1340922 - 1341318" id="dummy-11_q14_0_all" locus_tag="P773_RS0107235"  />
<polygon class="clusterblast-orf" style="stroke-width:1; stroke:black; fill:white; " points="313,40 315,40 320,35 315,30 313,30 313,40 " description="&lt;b&gt;P773_RS0107240&lt;/b&gt;&lt;br&gt;GFA family protein&lt;br&gt;Location: 1341499 - 1341868" id="dummy-11_q15_0_all" locus_tag="P773_RS0107240"  />
<polygon class="clusterblast-orf" style="stroke-width:1; stroke:black; fill:white; " points="320,40 323,40 328,35 323,30 320,30 320,40 " description="&lt;b&gt;P773_RS0107245&lt;/b&gt;&lt;br&gt;GFA family protein&lt;br&gt;Location: 1341869 - 1342235" id="dummy-11_q16_0_all" locus_tag="P773_RS0107245"  />
<polygon class="clusterblast-orf" style="stroke-width:1; stroke:black; fill:#1515d8; " points="328,40 341,40 346,35 341,30 328,30 328,40 " description="&lt;b&gt;P773_RS0107250&lt;/b&gt;&lt;br&gt;uridine kinase&lt;br&gt;Location: 1342241 - 1343171" id="dummy-11_q17_0_all" locus_tag="P773_RS0107250"  />
<polygon class="clusterblast-orf" style="stroke-width:1; stroke:black; fill:white; " points="346,40 366,40 371,35 366,30 346,30 346,40 " description="&lt;b&gt;P773_RS0107255&lt;/b&gt;&lt;br&gt;membrane protein&lt;br&gt;Location: 1343167 - 1344460" id="dummy-11_q18_0_all" locus_tag="P773_RS0107255"  />
<polygon class="clusterblast-orf" style="stroke-width:1; stroke:black; fill:white; " points="373,40 391,40 396,35 391,30 373,30 373,40 " description="&lt;b&gt;P773_RS0107260&lt;/b&gt;&lt;br&gt;recombinase RecA&lt;br&gt;Location: 1344568 - 1345717" id="dummy-11_q19_0_all" locus_tag="P773_RS0107260"  />
<polygon class="clusterblast-orf" style="stroke-width:1; stroke:black; fill:white; " points="398,40 445,40 450,35 445,30 398,30 398,40 " description="&lt;b&gt;P773_RS0107265&lt;/b&gt;&lt;br&gt;alanine--tRNA ligase&lt;br&gt;Location: 1345815 - 1348482" id="dummy-11_q20_0_all" locus_tag="P773_RS0107265"  />
<polygon class="clusterblast-orf" style="stroke-width:1; stroke:black; fill:white; " points="450,35 455,30 473,30 473,40 455,40 450,35 " description="&lt;b&gt;P773_RS0107270&lt;/b&gt;&lt;br&gt;isocitrate dehydrogenase (NADP(+))&lt;br&gt;Location: 1348473 - 1349688" id="dummy-11_q21_0_all" locus_tag="P773_RS0107270"  />
<polygon class="clusterblast-orf" style="stroke-width:1; stroke:black; fill:white; " points="475,40 482,40 487,35 482,30 475,30 475,40 " description="&lt;b&gt;P773_RS0107275&lt;/b&gt;&lt;br&gt;phosphatidylserine decarboxylase family protein&lt;br&gt;Location: 1349764 - 1350412" id="dummy-11_q22_0_all" locus_tag="P773_RS0107275"  />
<polygon class="clusterblast-orf" style="stroke-width:1; stroke:black; fill:white; " points="488,40 498,40 503,35 498,30 488,30 488,40 " description="&lt;b&gt;P773_RS0107280&lt;/b&gt;&lt;br&gt;CDP-diacylglycerol--serine O-phosphatidyltransferase&lt;br&gt;Location: 1350414 - 1351221" id="dummy-11_q23_0_all" locus_tag="P773_RS0107280"  />
<polygon class="clusterblast-orf" style="stroke-width:1; stroke:black; fill:white; " points="503,40 516,40 521,35 516,30 503,30 503,40 " description="&lt;b&gt;P773_RS0107285&lt;/b&gt;&lt;br&gt;glycosyl transferase&lt;br&gt;Location: 1351220 - 1352132" id="dummy-11_q24_0_all" locus_tag="P773_RS0107285"  />
<polygon class="clusterblast-orf" style="stroke-width:1; stroke:black; fill:white; " points="521,40 528,40 533,35 528,30 521,30 521,40 " description="&lt;b&gt;P773_RS0107290&lt;/b&gt;&lt;br&gt;RlmE family RNA methyltransferase&lt;br&gt;Location: 1352132 - 1352744" id="dummy-11_q25_0_all" locus_tag="P773_RS0107290"  />
<polygon class="clusterblast-orf" style="stroke-width:1; stroke:black; fill:white; " points="534,40 550,40 555,35 550,30 534,30 534,40 " description="&lt;b&gt;P773_RS0107295&lt;/b&gt;&lt;br&gt;guanosine monophosphate reductase&lt;br&gt;Location: 1352775 - 1353858" id="dummy-11_q26_0_all" locus_tag="P773_RS0107295"  />
<polygon class="clusterblast-orf" style="stroke-width:1; stroke:black; fill:white; " points="555,40 558,40 563,35 558,30 555,30 555,40 " description="&lt;b&gt;P773_RS0107300&lt;/b&gt;&lt;br&gt;hypothetical protein&lt;br&gt;Location: 1353857 - 1354295" id="dummy-11_q27_0_all" locus_tag="P773_RS0107300"  />
<polygon class="clusterblast-orf" style="stroke-width:1; stroke:black; fill:white; " points="563,40 589,40 594,35 589,30 563,30 563,40 " description="&lt;b&gt;P773_RS0107305&lt;/b&gt;&lt;br&gt;glutamine-hydrolyzing GMP synthase&lt;br&gt;Location: 1354284 - 1355847" id="dummy-11_q28_0_all" locus_tag="P773_RS0107305"  />
<polygon class="clusterblast-orf" style="stroke-width:1; stroke:black; fill:white; " points="594,40 596,40 601,35 596,30 594,30 594,40 " description="&lt;b&gt;P773_RS0107310&lt;/b&gt;&lt;br&gt;hypothetical protein&lt;br&gt;Location: 1355847 - 1356228" id="dummy-11_q29_0_all" locus_tag="P773_RS0107310"  />
<polygon class="clusterblast-orf" style="stroke-width:1; stroke:black; fill:white; " points="602,40 612,40 617,35 612,30 602,30 602,40 " description="&lt;b&gt;P773_RS0107315&lt;/b&gt;&lt;br&gt;3-methyl-2-oxobutanoate hydroxymethyltransferase&lt;br&gt;Location: 1356279 - 1357053" id="dummy-11_q30_0_all" locus_tag="P773_RS0107315"  />
<polygon class="clusterblast-orf" style="stroke-width:1; stroke:black; fill:white; " points="617,35 622,30 629,30 629,40 622,40 617,35 " description="&lt;b&gt;P773_RS0107320&lt;/b&gt;&lt;br&gt;membrane protein&lt;br&gt;Location: 1357053 - 1357668" id="dummy-11_q31_0_all" locus_tag="P773_RS0107320"  />
<polygon class="clusterblast-orf" style="stroke-width:1; stroke:black; fill:#d81563; " points="632,40 646,40 651,35 646,30 632,30 632,40 " description="&lt;b&gt;P773_RS0107325&lt;/b&gt;&lt;br&gt;C4-dicarboxylate ABC transporter substrate-binding protein&lt;br&gt;Location: 1357793 - 1358768" id="dummy-11_q32_0_all" locus_tag="P773_RS0107325"  />
<polygon class="clusterblast-orf" style="stroke-width:1; stroke:black; fill:#b1d815; " points="652,40 657,40 662,35 657,30 652,30 652,40 " description="&lt;b&gt;P773_RS0107330&lt;/b&gt;&lt;br&gt;TRAP transporter small permease&lt;br&gt;Location: 1358822 - 1359314" id="dummy-11_q33_0_all" locus_tag="P773_RS0107330"  />
<polygon class="clusterblast-orf" style="stroke-width:1; stroke:black; fill:#15d8b1; " points="662,40 682,40 687,35 682,30 662,30 662,40 " description="&lt;b&gt;P773_RS0107335&lt;/b&gt;&lt;br&gt;C4-dicarboxylate ABC transporter permease&lt;br&gt;Location: 1359316 - 1360627" id="dummy-11_q34_0_all" locus_tag="P773_RS0107335"  />
<polygon class="clusterblast-orf" style="stroke-width:1; stroke:black; fill:white; " points="687,35 692,30 697,30 697,40 692,40 687,35 " description="&lt;b&gt;P773_RS0107340&lt;/b&gt;&lt;br&gt;hypothetical protein&lt;br&gt;Location: 1360629 - 1361118" id="dummy-11_q35_0_all" locus_tag="P773_RS0107340"  />
<polygon class="clusterblast-orf" style="stroke-width:1; stroke:black; fill:#6315d8; " points="697,35 702,30 712,30 712,40 702,40 697,35 " description="&lt;b&gt;P773_RS0107345&lt;/b&gt;&lt;br&gt;LamB/YcsF family protein&lt;br&gt;Location: 1361120 - 1361894" id="dummy-11_q36_0_all" locus_tag="P773_RS0107345"  />
</g>
<g label="NZ_CP003915" class="clusterblast-cluster" description="NZ_CP003915_c4: Advenella mimigardefordensis DPN7, complete genome (9% of genes show similarity), resorcinol"  >
<text class="clusterblast-acc" y="70" x="5"  >
<a xlink:href="https://antismash-db.secondarymetabolites.org/go/NZ_CP003915/4" target="_blank">NZ_CP003915_c4</a>: Advenella mimigardefordensis DPN7, complete genome (9% of genes show similarity), resorcinol</text>
<line style="stroke-width:1; stroke:grey; " y1="85" x2="778.0" y2="85" x1="10"  />
</g>
<g id="a11_000"  >
<polygon class="clusterblast-orf" style="stroke-width:1; stroke:black; fill:white; " points="0,90 2,90 7,85 2,80 0,80 0,90 " description="&lt;b&gt;MIM_RS10335&lt;/b&gt;&lt;br&gt;fluoride efflux transporter CrcB&lt;br&gt;Location: 2244228 - 2244617" id="dummy-11_h11_10_0" locus_tag="MIM_RS10335"  />
</g>
<g id="a11_001"  >
<polygon class="clusterblast-orf" style="stroke-width:1; stroke:black; fill:#b115d8; " points="10,85 15,80 24,80 24,90 15,90 10,85 " description="&lt;b&gt;MIM_RS10340&lt;/b&gt;&lt;br&gt;thiol:disulfide oxidoreductase&lt;br&gt;Location: 2244778 - 2245473&lt;br&gt;&lt;br&gt;&lt;b&gt;BlastP hit with P773_RS0107180&lt;/b&gt;&lt;br&gt;Percentage identity: 44&lt;br&gt;Percentage coverage: 103&lt;br&gt;BLAST bit score: 174&lt;br&gt;E-value: 1.1e-41" id="dummy-11_h11_10_1" locus_tag="MIM_RS10340"  />
</g>
<g id="a11_002"  >
<polygon class="clusterblast-orf" style="stroke-width:1; stroke:black; fill:white; " points="24,85 29,80 33,80 33,90 29,90 24,85 " description="&lt;b&gt;MIM_RS10345&lt;/b&gt;&lt;br&gt;glutathione peroxidase&lt;br&gt;Location: 2245470 - 2245952" id="dummy-11_h11_10_2" locus_tag="MIM_RS10345"  />
</g>
<g id="a11_003"  >
<polygon class="clusterblast-orf" style="stroke-width:1; stroke:black; fill:white; " points="33,85 38,80 51,80 51,90 38,90 33,85 " description="&lt;b&gt;MIM_RS10350&lt;/b&gt;&lt;br&gt;EamA family transporter&lt;br&gt;Location: 2245949 - 2246848" id="dummy-11_h11_10_3" locus_tag="MIM_RS10350"  />
</g>
<g id="a11_004"  >
<polygon class="clusterblast-orf" style="stroke-width:1; stroke:black; fill:white; " points="52,85 57,80 58,80 58,90 57,90 52,85 " description="&lt;b&gt;MIM_RS22510&lt;/b&gt;&lt;br&gt;hypothetical protein&lt;br&gt;Location: 2246901 - 2247209" id="dummy-11_h11_10_4" locus_tag="MIM_RS22510"  />
</g>
<g id="a11_005"  >
<polygon class="clusterblast-orf" style="stroke-width:1; stroke:black; fill:white; " points="58,85 63,80 77,80 77,90 63,90 58,85 " description="&lt;b&gt;MIM_RS10355&lt;/b&gt;&lt;br&gt;tripartite tricarboxylate transporter substrate binding protein BugE&lt;br&gt;Location: 2247210 - 2248193" id="dummy-11_h11_10_5" locus_tag="MIM_RS10355"  />
</g>
<g id="a11_006"  >
<polygon class="clusterblast-orf" style="stroke-width:1; stroke:black; fill:white; " points="79,85 84,80 99,80 99,90 84,90 79,85 " description="&lt;b&gt;MIM_RS10360&lt;/b&gt;&lt;br&gt;EamA family transporter&lt;br&gt;Location: 2248316 - 2249299" id="dummy-11_h11_10_6" locus_tag="MIM_RS10360"  />
</g>
<g id="a11_007"  >
<polygon class="clusterblast-orf" style="stroke-width:1; stroke:black; fill:white; " points="99,85 104,80 116,80 116,90 104,90 99,85 " description="&lt;b&gt;MIM_RS10365&lt;/b&gt;&lt;br&gt;LysR family transcriptional regulator&lt;br&gt;Location: 2249301 - 2250170" id="dummy-11_h11_10_7" locus_tag="MIM_RS10365"  />
</g>
<g id="a11_008"  >
<polygon class="clusterblast-orf" style="stroke-width:1; stroke:black; fill:white; " points="118,90 127,90 132,85 127,80 118,80 118,90 " description="&lt;b&gt;MIM_RS10370&lt;/b&gt;&lt;br&gt;RraA family protein&lt;br&gt;Location: 2250300 - 2250989" id="dummy-11_h11_10_8" locus_tag="MIM_RS10370"  />
</g>
<g id="a11_009"  >
<polygon class="clusterblast-orf" style="stroke-width:1; stroke:black; fill:white; " points="132,90 146,90 151,85 146,80 132,80 132,90 " description="&lt;b&gt;MIM_RS10375&lt;/b&gt;&lt;br&gt;3-phosphoglycerate dehydrogenase&lt;br&gt;Location: 2250992 - 2251978" id="dummy-11_h11_10_9" locus_tag="MIM_RS10375"  />
</g>
<g id="a11_0010"  >
<polygon class="clusterblast-orf" style="stroke-width:1; stroke:black; fill:white; " points="153,90 167,90 172,85 167,80 153,80 153,90 " description="&lt;b&gt;MIM_RS10380&lt;/b&gt;&lt;br&gt;tripartite tricarboxylate transporter substrate binding protein&lt;br&gt;Location: 2252067 - 2253041" id="dummy-11_h11_10_10" locus_tag="MIM_RS10380"  />
</g>
<g id="a11_0011"  >
<polygon class="clusterblast-orf" style="stroke-width:1; stroke:black; fill:white; " points="172,90 190,90 195,85 190,80 172,80 172,90 " description="&lt;b&gt;MIM_RS10385&lt;/b&gt;&lt;br&gt;alpha-hydroxy-acid oxidizing protein&lt;br&gt;Location: 2253057 - 2254238" id="dummy-11_h11_10_11" locus_tag="MIM_RS10385"  />
</g>
<g id="a11_0012"  >
<polygon class="clusterblast-orf" style="stroke-width:1; stroke:black; fill:white; " points="196,90 217,90 222,85 217,80 196,80 196,90 " description="&lt;b&gt;MIM_RS10390&lt;/b&gt;&lt;br&gt;peptidase M20&lt;br&gt;Location: 2254299 - 2255609" id="dummy-11_h11_10_12" locus_tag="MIM_RS10390"  />
</g>
<g id="a11_0013"  >
<polygon class="clusterblast-orf" style="stroke-width:1; stroke:black; fill:white; " points="222,90 229,90 234,85 229,80 222,80 222,90 " description="&lt;b&gt;MIM_RS10395&lt;/b&gt;&lt;br&gt;DNA-3-methyladenine glycosylase 2 family protein&lt;br&gt;Location: 2255612 - 2256232" id="dummy-11_h11_10_13" locus_tag="MIM_RS10395"  />
</g>
<g id="a11_0014"  >
<polygon class="clusterblast-orf" style="stroke-width:1; stroke:black; fill:white; " points="239,90 247,90 252,85 247,80 239,80 239,90 " description="&lt;b&gt;MIM_RS10400&lt;/b&gt;&lt;br&gt;dimethylmenaquinone methyltransferase&lt;br&gt;Location: 2256466 - 2257134" id="dummy-11_h11_10_14" locus_tag="MIM_RS10400"  />
</g>
<g id="a11_0015"  >
<polygon class="clusterblast-orf" style="stroke-width:1; stroke:black; fill:white; " points="253,90 265,90 270,85 265,80 253,80 253,90 " description="&lt;b&gt;MIM_RS10405&lt;/b&gt;&lt;br&gt;amino acid ABC transporter substrate-binding protein&lt;br&gt;Location: 2257176 - 2258042" id="dummy-11_h11_10_15" locus_tag="MIM_RS10405"  />
</g>
<g id="a11_0016"  >
<polygon class="clusterblast-orf" style="stroke-width:1; stroke:black; fill:#15d815; " points="271,90 279,90 284,85 279,80 271,80 271,90 " description="&lt;b&gt;MIM_RS10410&lt;/b&gt;&lt;br&gt;amino acid ABC transporter permease&lt;br&gt;Location: 2258095 - 2258748&lt;br&gt;&lt;br&gt;&lt;b&gt;BlastP hit with P773_RS0107200&lt;/b&gt;&lt;br&gt;Percentage identity: 35&lt;br&gt;Percentage coverage: 88&lt;br&gt;BLAST bit score: 107&lt;br&gt;E-value: 1.8e-21&lt;br&gt;&lt;br&gt;&lt;b&gt;BlastP hit with P773_RS0107205&lt;/b&gt;&lt;br&gt;Percentage identity: 31&lt;br&gt;Percentage coverage: 87&lt;br&gt;BLAST bit score: 114&lt;br&gt;E-value: 2e-23" id="dummy-11_h11_10_16" locus_tag="MIM_RS10410"  />
</g>
<g id="a11_0017"  >
<polygon class="clusterblast-orf" style="stroke-width:1; stroke:black; fill:#1563d8; " points="283,90 293,90 298,85 293,80 283,80 283,90 " description="&lt;b&gt;MIM_RS10415&lt;/b&gt;&lt;br&gt;amino acid ABC transporter ATP-binding protein&lt;br&gt;Location: 2258745 - 2259491&lt;br&gt;&lt;br&gt;&lt;b&gt;BlastP hit with P773_RS0107210&lt;/b&gt;&lt;br&gt;Percentage identity: 50&lt;br&gt;Percentage coverage: 96&lt;br&gt;BLAST bit score: 243&lt;br&gt;E-value: 1.9e-62" id="dummy-11_h11_10_17" locus_tag="MIM_RS10415"  />
</g>
<g id="a11_0018"  >
<polygon class="clusterblast-orf" style="stroke-width:1; stroke:black; fill:white; " points="299,85 304,80 318,80 318,90 304,90 299,85 " description="&lt;b&gt;MIM_RS10420&lt;/b&gt;&lt;br&gt;LacI family transcriptional regulator&lt;br&gt;Location: 2259518 - 2260534" id="dummy-11_h11_10_18" locus_tag="MIM_RS10420"  />
</g>
<g id="a11_0019"  >
<polygon class="clusterblast-orf" style="stroke-width:1; stroke:black; fill:white; " points="320,85 325,80 345,80 345,90 325,90 320,85 " description="&lt;b&gt;MIM_RS10425&lt;/b&gt;&lt;br&gt;arsenical efflux pump membrane protein ArsB&lt;br&gt;Location: 2260592 - 2261878" id="dummy-11_h11_10_19" locus_tag="MIM_RS10425"  />
</g>
<g id="a11_0020"  >
<polygon class="clusterblast-orf" style="stroke-width:1; stroke:black; fill:white; " points="346,85 351,80 364,80 364,90 351,90 346,85 " description="&lt;b&gt;MIM_RS10430&lt;/b&gt;&lt;br&gt;hypothetical protein&lt;br&gt;Location: 2261947 - 2262864" id="dummy-11_h11_10_20" locus_tag="MIM_RS10430"  />
</g>
<g id="a11_0021"  >
<polygon class="clusterblast-orf" style="stroke-width:1; stroke:black; fill:white; " points="364,85 369,80 402,80 402,90 369,90 364,85 " description="&lt;b&gt;MIM_RS10435&lt;/b&gt;&lt;br&gt;3-oxoacyl-ACP synthase&lt;br&gt;Location: 2262861 - 2264828" id="dummy-11_h11_10_21" locus_tag="MIM_RS10435"  />
</g>
<g id="a11_0022"  >
<polygon class="clusterblast-orf" style="stroke-width:1; stroke:black; fill:white; " points="403,85 408,80 422,80 422,90 408,90 403,85 " description="&lt;b&gt;MIM_RS10440&lt;/b&gt;&lt;br&gt;fatty acid desaturase&lt;br&gt;Location: 2264839 - 2265810" id="dummy-11_h11_10_22" locus_tag="MIM_RS10440"  />
</g>
<g id="a11_0023"  >
<polygon class="clusterblast-orf" style="stroke-width:1; stroke:black; fill:white; " points="422,85 427,80 437,80 437,90 427,90 422,85 " description="&lt;b&gt;MIM_RS10445&lt;/b&gt;&lt;br&gt;sterol desaturase family protein&lt;br&gt;Location: 2265807 - 2266595" id="dummy-11_h11_10_23" locus_tag="MIM_RS10445"  />
</g>
<g id="a11_0024"  >
<polygon class="clusterblast-orf" style="stroke-width:1; stroke:black; fill:white; " points="444,85 449,80 464,80 464,90 449,90 444,85 " description="&lt;b&gt;MIM_RS10450&lt;/b&gt;&lt;br&gt;tripartite tricarboxylate transporter substrate binding protein&lt;br&gt;Location: 2266972 - 2267952" id="dummy-11_h11_10_24" locus_tag="MIM_RS10450"  />
</g>
<g id="a11_0025"  >
<polygon class="clusterblast-orf" style="stroke-width:1; stroke:black; fill:white; " points="465,85 470,80 492,80 492,90 470,90 465,85 " description="&lt;b&gt;MIM_RS10455&lt;/b&gt;&lt;br&gt;amidase&lt;br&gt;Location: 2268006 - 2269394" id="dummy-11_h11_10_25" locus_tag="MIM_RS10455"  />
</g>
<g id="a11_0026"  >
<polygon class="clusterblast-orf" style="stroke-width:1; stroke:black; fill:white; " points="492,85 497,80 505,80 505,90 497,90 492,85 " description="&lt;b&gt;MIM_RS10460&lt;/b&gt;&lt;br&gt;4-hydroxy-4-methyl-2-oxoglutarate aldolase&lt;br&gt;Location: 2269391 - 2270062" id="dummy-11_h11_10_26" locus_tag="MIM_RS10460"  />
</g>
<g id="a11_0027"  >
<polygon class="clusterblast-orf" style="stroke-width:1; stroke:black; fill:white; " points="505,90 520,90 525,85 520,80 505,80 505,90 " description="&lt;b&gt;MIM_RS10465&lt;/b&gt;&lt;br&gt;LysR family transcriptional regulator&lt;br&gt;Location: 2270063 - 2271091" id="dummy-11_h11_10_27" locus_tag="MIM_RS10465"  />
</g>
<g id="a11_0028"  >
<polygon class="clusterblast-orf" style="stroke-width:1; stroke:black; fill:white; " points="525,85 530,80 543,80 543,90 530,90 525,85 " description="&lt;b&gt;MIM_RS10470&lt;/b&gt;&lt;br&gt;LysR family transcriptional regulator&lt;br&gt;Location: 2271098 - 2272024" id="dummy-11_h11_10_28" locus_tag="MIM_RS10470"  />
</g>
<g id="a11_0029"  >
<polygon class="clusterblast-orf" style="stroke-width:1; stroke:black; fill:white; " points="546,90 554,90 559,85 554,80 546,80 546,90 " description="&lt;b&gt;MIM_RS10475&lt;/b&gt;&lt;br&gt;diguanylate cyclase&lt;br&gt;Location: 2272180 - 2272836" id="dummy-11_h11_10_29" locus_tag="MIM_RS10475"  />
</g>
<g id="a11_0030"  >
<polygon class="clusterblast-orf" style="stroke-width:1; stroke:black; fill:white; " points="560,90 568,90 573,85 568,80 560,80 560,90 " description="&lt;b&gt;MIM_RS10480&lt;/b&gt;&lt;br&gt;diguanylate cyclase&lt;br&gt;Location: 2272885 - 2273547" id="dummy-11_h11_10_30" locus_tag="MIM_RS10480"  />
</g>
<g id="a11_0031"  >
<polygon class="clusterblast-orf" style="stroke-width:1; stroke:black; fill:white; " points="573,90 592,90 597,85 592,80 573,80 573,90 " description="&lt;b&gt;MIM_RS10485&lt;/b&gt;&lt;br&gt;pyridoxal phosphate-dependent aminotransferase&lt;br&gt;Location: 2273544 - 2274761" id="dummy-11_h11_10_31" locus_tag="MIM_RS10485"  />
</g>
<g id="a11_0032"  >
<polygon class="clusterblast-orf" style="stroke-width:1; stroke:black; fill:white; " points="604,90 619,90 624,85 619,80 604,80 604,90 " description="&lt;b&gt;MIM_RS10490&lt;/b&gt;&lt;br&gt;SMP-30/gluconolactonase/LRE family protein&lt;br&gt;Location: 2275113 - 2276180" id="dummy-11_h11_10_32" locus_tag="MIM_RS10490"  />
</g>
<g id="a11_0033"  >
<polygon class="clusterblast-orf" style="stroke-width:1; stroke:black; fill:white; " points="625,85 630,80 644,80 644,90 630,90 625,85 " description="&lt;b&gt;MIM_RS10495&lt;/b&gt;&lt;br&gt;LysR family transcriptional regulator&lt;br&gt;Location: 2276222 - 2277160" id="dummy-11_h11_10_33" locus_tag="MIM_RS10495"  />
</g>
<g id="a11_0034"  >
<polygon class="clusterblast-orf" style="stroke-width:1; stroke:black; fill:white; " points="646,90 654,90 659,85 654,80 646,80 646,90 " description="&lt;b&gt;MIM_RS10500&lt;/b&gt;&lt;br&gt;4-hydroxy-4-methyl-2-oxoglutarate aldolase&lt;br&gt;Location: 2277295 - 2277966" id="dummy-11_h11_10_34" locus_tag="MIM_RS10500"  />
</g>
<g id="a11_0035"  >
<polygon class="clusterblast-orf" style="stroke-width:1; stroke:black; fill:white; " points="660,90 675,90 680,85 675,80 660,80 660,90 " description="&lt;b&gt;MIM_RS10505&lt;/b&gt;&lt;br&gt;C4-dicarboxylate ABC transporter&lt;br&gt;Location: 2278006 - 2279040" id="dummy-11_h11_10_35" locus_tag="MIM_RS10505"  />
</g>
<g id="a11_0036"  >
<polygon class="clusterblast-orf" style="stroke-width:1; stroke:black; fill:white; " points="681,90 688,90 693,85 688,80 681,80 681,90 " description="&lt;b&gt;MIM_RS10510&lt;/b&gt;&lt;br&gt;TRAP transporter small permease&lt;br&gt;Location: 2279068 - 2279691" id="dummy-11_h11_10_36" locus_tag="MIM_RS10510"  />
</g>
<g id="a11_0037"  >
<polygon class="clusterblast-orf" style="stroke-width:1; stroke:black; fill:#15d8b1; " points="693,90 713,90 718,85 713,80 693,80 693,90 " description="&lt;b&gt;MIM_RS10515&lt;/b&gt;&lt;br&gt;TRAP transporter large permease&lt;br&gt;Location: 2279695 - 2280984&lt;br&gt;&lt;br&gt;&lt;b&gt;BlastP hit with P773_RS0107335&lt;/b&gt;&lt;br&gt;Percentage identity: 36&lt;br&gt;Percentage coverage: 98&lt;br&gt;BLAST bit score: 253&lt;br&gt;E-value: 4e-65" id="dummy-11_h11_10_37" locus_tag="MIM_RS10515"  />
</g>
<g id="a11_0038"  >
<polygon class="clusterblast-orf" style="stroke-width:1; stroke:black; fill:white; " points="720,90 727,90 732,85 727,80 720,80 720,90 " description="&lt;b&gt;MIM_RS10520&lt;/b&gt;&lt;br&gt;hypothetical protein&lt;br&gt;Location: 2281078 - 2281653" id="dummy-11_h11_10_38" locus_tag="MIM_RS10520"  />
</g>
<g id="a11_0039"  >
<polygon class="clusterblast-orf" style="stroke-width:1; stroke:black; fill:white; " points="733,85 738,80 760,80 760,90 738,90 733,85 " description="&lt;b&gt;MIM_RS10525&lt;/b&gt;&lt;br&gt;amidase&lt;br&gt;Location: 2281745 - 2283094" id="dummy-11_h11_10_39" locus_tag="MIM_RS10525"  />
</g>
<g id="a11_0040"  >
<polygon class="clusterblast-orf" style="stroke-width:1; stroke:black; fill:white; " points="765,90 775,90 780,85 775,80 765,80 765,90 " description="&lt;b&gt;MIM_RS10530&lt;/b&gt;&lt;br&gt;FadR family transcriptional regulator&lt;br&gt;Location: 2283342 - 2284106" id="dummy-11_h11_10_40" locus_tag="MIM_RS10530"  />
</g>
</svg>
