<svg version="1.1" preserveAspectRatio="none" width="800" y="0" xmlns:xlink="http://www.w3.org/1999/xlink" height="230" x="0" xmlns="http://www.w3.org/2000/svg" viewBox="0 0 800 230"  >
<g label="Query sequence" class="clusterblast-cluster"  >
<text class="clusterblast-acc" y="20" x="5"  >
Query sequence</text>
<line style="stroke-width:1; stroke:grey; " y1="35" x2="778.0" y2="35" x1="10"  />
<polygon class="clusterblast-orf" style="stroke-width:1; stroke:black; fill:white; " points="11,35 16,30 19,30 19,40 16,40 11,35 " description="&lt;b&gt;P773_RS0105755&lt;/b&gt;&lt;br&gt;EVE domain-containing protein&lt;br&gt;Location: 1063773 - 1064187" id="dummy-6_q0_0_all" locus_tag="P773_RS0105755"  />
<polygon class="clusterblast-orf" style="stroke-width:1; stroke:black; fill:white; " points="19,35 24,30 39,30 39,40 24,40 19,35 " description="&lt;b&gt;P773_RS0105760&lt;/b&gt;&lt;br&gt;tRNA (adenosine(37)-N6)-threonylcarbamoyltransferase complex transferase subunit TsaD&lt;br&gt;Location: 1064186 - 1065260" id="dummy-6_q1_0_all" locus_tag="P773_RS0105760"  />
<polygon class="clusterblast-orf" style="stroke-width:1; stroke:black; fill:white; " points="40,40 53,40 58,35 53,30 40,30 40,40 " description="&lt;b&gt;P773_RS0105765&lt;/b&gt;&lt;br&gt;hydroxymethylbilane synthase&lt;br&gt;Location: 1065316 - 1066234" id="dummy-6_q2_0_all" locus_tag="P773_RS0105765"  />
<polygon class="clusterblast-orf" style="stroke-width:1; stroke:black; fill:white; " points="58,40 66,40 71,35 66,30 58,30 58,40 " description="&lt;b&gt;P773_RS0105770&lt;/b&gt;&lt;br&gt;uroporphyrinogen-III synthase&lt;br&gt;Location: 1066235 - 1066934" id="dummy-6_q3_0_all" locus_tag="P773_RS0105770"  />
<polygon class="clusterblast-orf" style="stroke-width:1; stroke:black; fill:white; " points="71,40 87,40 92,35 87,30 71,30 71,40 " description="&lt;b&gt;P773_RS0105775&lt;/b&gt;&lt;br&gt;mechanosensitive ion channel family protein&lt;br&gt;Location: 1066936 - 1068022" id="dummy-6_q4_0_all" locus_tag="P773_RS0105775"  />
<polygon class="clusterblast-orf" style="stroke-width:1; stroke:black; fill:white; " points="92,40 93,40 98,35 93,30 92,30 92,40 " description="&lt;b&gt;P773_RS0105780&lt;/b&gt;&lt;br&gt;YggT family protein&lt;br&gt;Location: 1068018 - 1068309" id="dummy-6_q5_0_all" locus_tag="P773_RS0105780"  />
<polygon class="clusterblast-orf" style="stroke-width:1; stroke:black; fill:white; " points="98,40 109,40 114,35 109,30 98,30 98,40 " description="&lt;b&gt;P773_RS0105785&lt;/b&gt;&lt;br&gt;bifunctional 5,10-methylene-tetrahydrofolate dehydrogenase/5,10-methylene-tetrahydrofolate cyclohydrolase&lt;br&gt;Location: 1068318 - 1069164" id="dummy-6_q6_0_all" locus_tag="P773_RS0105785"  />
<polygon class="clusterblast-orf" style="stroke-width:1; stroke:black; fill:white; " points="115,40 119,35 115,30 115,40 " description="&lt;b&gt;P773_RS0105790&lt;/b&gt;&lt;br&gt;hypothetical protein&lt;br&gt;Location: 1069201 - 1069405" id="dummy-6_q7_0_all" locus_tag="P773_RS0105790"  />
<polygon class="clusterblast-orf" style="stroke-width:1; stroke:black; fill:white; " points="119,40 119,40 124,35 119,30 119,30 119,40 " description="&lt;b&gt;P773_RS0105795&lt;/b&gt;&lt;br&gt;hypothetical protein&lt;br&gt;Location: 1069408 - 1069675" id="dummy-6_q8_0_all" locus_tag="P773_RS0105795"  />
<polygon class="clusterblast-orf" style="stroke-width:1; stroke:black; fill:white; " points="124,35 129,30 141,30 141,40 129,40 124,35 " description="&lt;b&gt;P773_RS0105800&lt;/b&gt;&lt;br&gt;membrane protein&lt;br&gt;Location: 1069671 - 1070574" id="dummy-6_q9_0_all" locus_tag="P773_RS0105800"  />
<polygon class="clusterblast-orf" style="stroke-width:1; stroke:black; fill:white; " points="142,35 147,30 161,30 161,40 147,40 142,35 " description="&lt;b&gt;P773_RS0105805&lt;/b&gt;&lt;br&gt;MBL fold metallo-hydrolase&lt;br&gt;Location: 1070641 - 1071625" id="dummy-6_q10_0_all" locus_tag="P773_RS0105805"  />
<polygon class="clusterblast-orf" style="stroke-width:1; stroke:black; fill:white; " points="161,35 166,30 182,30 182,40 166,40 161,35 " description="&lt;b&gt;P773_RS0105810&lt;/b&gt;&lt;br&gt;PQQ-dependent sugar dehydrogenase&lt;br&gt;Location: 1071628 - 1072726" id="dummy-6_q11_0_all" locus_tag="P773_RS0105810"  />
<polygon class="clusterblast-orf" style="stroke-width:1; stroke:black; fill:#d81515; " points="182,35 187,30 195,30 195,40 187,40 182,35 " description="&lt;b&gt;P773_RS0105815&lt;/b&gt;&lt;br&gt;short-chain dehydrogenase&lt;br&gt;Location: 1072700 - 1073411" id="dummy-6_q12_0_all" locus_tag="P773_RS0105815"  />
<polygon class="clusterblast-orf" style="stroke-width:1; stroke:black; fill:#33d815; " points="196,40 219,40 224,35 219,30 196,30 196,40 " description="&lt;b&gt;P773_RS0105820&lt;/b&gt;&lt;br&gt;cryptochrome/photolyase family protein&lt;br&gt;Location: 1073438 - 1074929" id="dummy-6_q13_0_all" locus_tag="P773_RS0105820"  />
<polygon class="clusterblast-orf" style="stroke-width:1; stroke:black; fill:white; " points="224,40 227,35 224,30 224,40 " description="&lt;b&gt;P773_RS07920&lt;/b&gt;&lt;br&gt;DUF2256 domain-containing protein&lt;br&gt;Location: 1074928 - 1075051" id="dummy-6_q14_0_all" locus_tag="P773_RS07920"  />
<polygon class="clusterblast-orf" style="stroke-width:1; stroke:black; fill:white; " points="227,40 230,40 235,35 230,30 227,30 227,40 " description="&lt;b&gt;P773_RS0105830&lt;/b&gt;&lt;br&gt;DedA family protein&lt;br&gt;Location: 1075047 - 1075464" id="dummy-6_q15_0_all" locus_tag="P773_RS0105830"  />
<polygon class="clusterblast-orf" style="stroke-width:1; stroke:black; fill:white; " points="235,40 243,40 248,35 243,30 235,30 235,40 " description="&lt;b&gt;P773_RS0105835&lt;/b&gt;&lt;br&gt;type 1 glutamine amidotransferase&lt;br&gt;Location: 1075467 - 1076187" id="dummy-6_q16_0_all" locus_tag="P773_RS0105835"  />
<polygon class="clusterblast-orf" style="stroke-width:1; stroke:black; fill:white; " points="248,40 248,40 253,35 248,30 248,30 248,40 " description="&lt;b&gt;P773_RS0105840&lt;/b&gt;&lt;br&gt;hypothetical protein&lt;br&gt;Location: 1076183 - 1076405" id="dummy-6_q17_0_all" locus_tag="P773_RS0105840"  />
<polygon class="clusterblast-orf" style="stroke-width:1; stroke:black; fill:white; " points="253,40 290,40 295,35 290,30 253,30 253,40 " description="&lt;b&gt;P773_RS0105845&lt;/b&gt;&lt;br&gt;ammonium transporter&lt;br&gt;Location: 1076452 - 1078600" id="dummy-6_q18_0_all" locus_tag="P773_RS0105845"  />
<polygon class="clusterblast-orf" style="stroke-width:1; stroke:black; fill:white; " points="295,35 300,30 317,30 317,40 300,40 295,35 " description="&lt;b&gt;P773_RS0105850&lt;/b&gt;&lt;br&gt;deoxyribodipyrimidine photo-lyase&lt;br&gt;Location: 1078630 - 1079770" id="dummy-6_q19_0_all" locus_tag="P773_RS0105850"  />
<polygon class="clusterblast-orf" style="stroke-width:1; stroke:black; fill:white; " points="317,35 322,30 324,30 324,40 322,40 317,35 " description="&lt;b&gt;P773_RS0105855&lt;/b&gt;&lt;br&gt;phosphate starvation protein PhoH&lt;br&gt;Location: 1079776 - 1080157" id="dummy-6_q20_0_all" locus_tag="P773_RS0105855"  />
<polygon class="clusterblast-orf" style="stroke-width:1; stroke:black; fill:white; " points="324,35 329,30 333,30 333,40 329,40 324,35 " description="&lt;b&gt;P773_RS0105860&lt;/b&gt;&lt;br&gt;hypothetical protein&lt;br&gt;Location: 1080156 - 1080615" id="dummy-6_q21_0_all" locus_tag="P773_RS0105860"  />
<polygon class="clusterblast-orf" style="stroke-width:1; stroke:black; fill:white; " points="334,35 339,30 357,30 357,40 339,40 334,35 " description="&lt;b&gt;P773_RS0105865&lt;/b&gt;&lt;br&gt;argininosuccinate synthase&lt;br&gt;Location: 1080675 - 1081857" id="dummy-6_q22_0_all" locus_tag="P773_RS0105865"  />
<polygon class="clusterblast-orf" style="stroke-width:1; stroke:black; fill:white; " points="357,35 362,30 367,30 367,40 362,40 357,35 " description="&lt;b&gt;P773_RS0105870&lt;/b&gt;&lt;br&gt;hypothetical protein&lt;br&gt;Location: 1081860 - 1082373" id="dummy-6_q23_0_all" locus_tag="P773_RS0105870"  />
<polygon class="clusterblast-orf" style="stroke-width:1; stroke:black; fill:white; " points="367,35 372,30 386,30 386,40 372,40 367,35 " description="&lt;b&gt;P773_RS0105875&lt;/b&gt;&lt;br&gt;aldo/keto reductase&lt;br&gt;Location: 1082363 - 1083401" id="dummy-6_q24_0_all" locus_tag="P773_RS0105875"  />
<polygon class="clusterblast-orf" style="stroke-width:1; stroke:black; fill:#15abd8; " points="388,40 398,40 403,35 398,30 388,30 388,40 " description="&lt;b&gt;P773_RS0105880&lt;/b&gt;&lt;br&gt;BAX inhibitor (BI)-1/YccA family protein&lt;br&gt;Location: 1083484 - 1084246" id="dummy-6_q25_0_all" locus_tag="P773_RS0105880"  />
<polygon class="clusterblast-orf" style="stroke-width:1; stroke:black; fill:white; " points="403,35 408,30 409,30 409,40 408,40 403,35 " description="&lt;b&gt;P773_RS0105885&lt;/b&gt;&lt;br&gt;DUF2794 domain-containing protein&lt;br&gt;Location: 1084254 - 1084593" id="dummy-6_q26_0_all" locus_tag="P773_RS0105885"  />
<polygon class="clusterblast-orf" style="stroke-width:1; stroke:black; fill:white; " points="409,35 414,30 420,30 420,40 414,40 409,35 " description="&lt;b&gt;P773_RS0105890&lt;/b&gt;&lt;br&gt;septation protein A&lt;br&gt;Location: 1084585 - 1085137" id="dummy-6_q27_0_all" locus_tag="P773_RS0105890"  />
<polygon class="clusterblast-orf" style="stroke-width:1; stroke:black; fill:white; " points="421,40 422,40 427,35 422,30 421,30 421,40 " description="&lt;b&gt;P773_RS0105895&lt;/b&gt;&lt;br&gt;heat shock protein HspQ&lt;br&gt;Location: 1085223 - 1085544" id="dummy-6_q28_0_all" locus_tag="P773_RS0105895"  />
<polygon class="clusterblast-orf" style="stroke-width:1; stroke:black; fill:#8d15d8; " points="431,40 439,40 444,35 439,30 431,30 431,40 " description="&lt;b&gt;P773_RS0105900&lt;/b&gt;&lt;br&gt;heme transporter HemC&lt;br&gt;Location: 1085720 - 1086428" id="dummy-6_q29_0_all" locus_tag="P773_RS0105900"  />
<polygon class="clusterblast-orf" style="stroke-width:1; stroke:black; fill:white; " points="444,40 444,40 449,35 444,30 444,30 444,40 " description="&lt;b&gt;P773_RS0105905&lt;/b&gt;&lt;br&gt;heme exporter protein D&lt;br&gt;Location: 1086424 - 1086652" id="dummy-6_q30_0_all" locus_tag="P773_RS0105905"  />
<polygon class="clusterblast-orf" style="stroke-width:1; stroke:black; fill:#d86f15; " points="449,40 452,40 457,35 452,30 449,30 449,40 " description="&lt;b&gt;P773_RS0105910&lt;/b&gt;&lt;br&gt;cytochrome c maturation protein CcmE&lt;br&gt;Location: 1086662 - 1087079" id="dummy-6_q31_0_all" locus_tag="P773_RS0105910"  />
<polygon class="clusterblast-orf" style="stroke-width:1; stroke:black; fill:#15d851; " points="457,40 488,40 493,35 488,30 457,30 457,40 " description="&lt;b&gt;P773_RS0105915&lt;/b&gt;&lt;br&gt;cytochrome c biogenesis protein&lt;br&gt;Location: 1087082 - 1088960" id="dummy-6_q32_0_all" locus_tag="P773_RS0105915"  />
<polygon class="clusterblast-orf" style="stroke-width:1; stroke:black; fill:#1551d8; " points="493,40 497,40 502,35 497,30 493,30 493,40 " description="&lt;b&gt;P773_RS0105920&lt;/b&gt;&lt;br&gt;DsbE family thiol:disulfide interchange protein&lt;br&gt;Location: 1088952 - 1089471" id="dummy-6_q33_0_all" locus_tag="P773_RS0105920"  />
<polygon class="clusterblast-orf" style="stroke-width:1; stroke:black; fill:#d815c9; " points="502,40 504,40 509,35 504,30 502,30 502,40 " description="&lt;b&gt;P773_RS0105925&lt;/b&gt;&lt;br&gt;cytochrome c-type biogenesis protein CcmH&lt;br&gt;Location: 1089467 - 1089830" id="dummy-6_q34_0_all" locus_tag="P773_RS0105925"  />
<polygon class="clusterblast-orf" style="stroke-width:1; stroke:black; fill:white; " points="510,40 514,40 519,35 514,30 510,30 510,40 " description="&lt;b&gt;P773_RS0105930&lt;/b&gt;&lt;br&gt;acyloxyacyl hydrolase&lt;br&gt;Location: 1089840 - 1090353" id="dummy-6_q35_0_all" locus_tag="P773_RS0105930"  />
<polygon class="clusterblast-orf" style="stroke-width:1; stroke:black; fill:white; " points="520,40 537,40 542,35 537,30 520,30 520,40 " description="&lt;b&gt;P773_RS0105935&lt;/b&gt;&lt;br&gt;alpha-hydroxy-acid oxidizing protein&lt;br&gt;Location: 1090362 - 1091514" id="dummy-6_q36_0_all" locus_tag="P773_RS0105935"  />
<polygon class="clusterblast-orf" style="stroke-width:1; stroke:black; fill:white; " points="542,40 559,40 564,35 559,30 542,30 542,40 " description="&lt;b&gt;P773_RS0105940&lt;/b&gt;&lt;br&gt;alpha-hydroxy-acid oxidizing protein&lt;br&gt;Location: 1091516 - 1092668" id="dummy-6_q37_0_all" locus_tag="P773_RS0105940"  />
<polygon class="clusterblast-orf" style="stroke-width:1; stroke:black; fill:white; " points="564,40 581,40 586,35 581,30 564,30 564,40 " description="&lt;b&gt;P773_RS0105945&lt;/b&gt;&lt;br&gt;aspartate aminotransferase&lt;br&gt;Location: 1092683 - 1093850" id="dummy-6_q38_0_all" locus_tag="P773_RS0105945"  />
<polygon class="clusterblast-orf" style="stroke-width:1; stroke:black; fill:white; " points="587,40 608,40 613,35 608,30 587,30 587,40 " description="&lt;b&gt;P773_RS0105950&lt;/b&gt;&lt;br&gt;FAD-binding protein&lt;br&gt;Location: 1093889 - 1095263" id="dummy-6_q39_0_all" locus_tag="P773_RS0105950"  />
<polygon class="clusterblast-orf" style="stroke-width:1; stroke:black; fill:#d8c915; " points="614,40 627,40 632,35 627,30 614,30 614,40 " description="&lt;b&gt;P773_RS0105955&lt;/b&gt;&lt;br&gt;D-glycerate dehydrogenase&lt;br&gt;Location: 1095278 - 1096235" id="dummy-6_q40_0_all" locus_tag="P773_RS0105955"  />
<polygon class="clusterblast-orf" style="stroke-width:1; stroke:black; fill:#15d8ab; " points="634,40 651,40 656,35 651,30 634,30 634,40 " description="&lt;b&gt;P773_RS0105960&lt;/b&gt;&lt;br&gt;C4-dicarboxylate ABC transporter&lt;br&gt;Location: 1096361 - 1097519" id="dummy-6_q41_0_all" locus_tag="P773_RS0105960"  />
<polygon class="clusterblast-orf" style="stroke-width:1; stroke:black; fill:#3315d8; " points="658,40 664,40 669,35 664,30 658,30 658,40 " description="&lt;b&gt;P773_RS0105965&lt;/b&gt;&lt;br&gt;TRAP transporter permease DctQ&lt;br&gt;Location: 1097591 - 1098179" id="dummy-6_q42_0_all" locus_tag="P773_RS0105965"  />
<polygon class="clusterblast-orf" style="stroke-width:1; stroke:black; fill:#d8156f; " points="669,40 690,40 695,35 690,30 669,30 669,40 " description="&lt;b&gt;P773_RS0105970&lt;/b&gt;&lt;br&gt;C4-dicarboxylate ABC transporter&lt;br&gt;Location: 1098168 - 1099530" id="dummy-6_q43_0_all" locus_tag="P773_RS0105970"  />
<polygon class="clusterblast-orf" style="stroke-width:1; stroke:black; fill:#8dd815; " points="695,40 715,40 720,35 715,30 695,30 695,40 " description="&lt;b&gt;P773_RS0105975&lt;/b&gt;&lt;br&gt;amidase&lt;br&gt;Location: 1099532 - 1100861" id="dummy-6_q44_0_all" locus_tag="P773_RS0105975"  />
<polygon class="clusterblast-orf" style="stroke-width:1; stroke:black; fill:white; " points="724,40 736,40 741,35 736,30 724,30 724,40 " description="&lt;b&gt;P773_RS0105985&lt;/b&gt;&lt;br&gt;EamA/RhaT family transporter&lt;br&gt;Location: 1101057 - 1101963" id="dummy-6_q45_0_all" locus_tag="P773_RS0105985"  />
<polygon class="clusterblast-orf" style="stroke-width:1; stroke:black; fill:white; " points="741,40 752,40 757,35 752,30 741,30 741,40 " description="&lt;b&gt;P773_RS0105990&lt;/b&gt;&lt;br&gt;alpha/beta hydrolase&lt;br&gt;Location: 1101946 - 1102765" id="dummy-6_q46_0_all" locus_tag="P773_RS0105990"  />
<polygon class="clusterblast-orf" style="stroke-width:1; stroke:black; fill:white; " points="758,40 763,40 768,35 763,30 758,30 758,40 " description="&lt;b&gt;P773_RS0105995&lt;/b&gt;&lt;br&gt;hypothetical protein&lt;br&gt;Location: 1102813 - 1103377" id="dummy-6_q47_0_all" locus_tag="P773_RS0105995"  />
</g>
<g label="NZ_LYOZ01000039" class="clusterblast-cluster" description="NZ_LYOZ01000039_c9: Legionella jamestowniensis strain 974010 12 NODE 59 lengt... (14% of genes show similarity), nrps"  >
<text class="clusterblast-acc" y="70" x="5"  >
<a xlink:href="https://antismash-db.secondarymetabolites.org/go/NZ_LYOZ01000039/9" target="_blank">NZ_LYOZ01000039_c9</a>: Legionella jamestowniensis strain 974010 12 NODE 59 lengt... (14% of genes show similarity), nrps</text>
<line style="stroke-width:1; stroke:grey; " y1="85" x2="778.0" y2="85" x1="10"  />
</g>
<g id="a6_000"  >
<polygon class="clusterblast-orf" style="stroke-width:1; stroke:black; fill:white; " points="0,90 60,90 65,85 60,80 0,80 0,90 " description="&lt;b&gt;A8135_RS11325&lt;/b&gt;&lt;br&gt;DNA polymerase III subunit alpha&lt;br&gt;Location: 50869 - 47423" id="dummy-6_h6_8_0" locus_tag="A8135_RS11325"  />
</g>
<g id="a6_001"  >
<polygon class="clusterblast-orf" style="stroke-width:1; stroke:black; fill:white; " points="66,85 71,80 122,80 122,90 71,90 66,85 " description="&lt;b&gt;A8135_RS11320&lt;/b&gt;&lt;br&gt;Flp family type IVb pilin&lt;br&gt;Location: 47374 - 44465" id="dummy-6_h6_8_1" locus_tag="A8135_RS11320"  />
</g>
<g id="a6_002"  >
<polygon class="clusterblast-orf" style="stroke-width:1; stroke:black; fill:white; " points="125,85 130,80 152,80 152,90 130,90 125,85 " description="&lt;b&gt;A8135_RS11315&lt;/b&gt;&lt;br&gt;HlyD family type I secretion periplasmic adaptor subunit&lt;br&gt;Location: 44308 - 42890" id="dummy-6_h6_8_2" locus_tag="A8135_RS11315"  />
</g>
<g id="a6_003"  >
<polygon class="clusterblast-orf" style="stroke-width:1; stroke:black; fill:white; " points="150,85 155,80 183,80 183,90 155,90 150,85 " description="&lt;b&gt;A8135_RS11310&lt;/b&gt;&lt;br&gt;type I secretion system permease/ATPase&lt;br&gt;Location: 42993 - 41278" id="dummy-6_h6_8_3" locus_tag="A8135_RS11310"  />
</g>
<g id="a6_004"  >
<polygon class="clusterblast-orf" style="stroke-width:1; stroke:black; fill:white; " points="187,90 188,90 193,85 188,80 187,80 187,90 " description="&lt;b&gt;A8135_RS11305&lt;/b&gt;&lt;br&gt;hypothetical protein&lt;br&gt;Location: 41080 - 40763" id="dummy-6_h6_8_4" locus_tag="A8135_RS11305"  />
</g>
<g id="a6_005"  >
<polygon class="clusterblast-orf" style="stroke-width:1; stroke:black; fill:white; " points="193,85 198,80 220,80 220,90 198,90 193,85 " description="&lt;b&gt;A8135_RS11300&lt;/b&gt;&lt;br&gt;sigma-54-dependent Fis family transcriptional regulator&lt;br&gt;Location: 40745 - 39348" id="dummy-6_h6_8_5" locus_tag="A8135_RS11300"  />
</g>
<g id="a6_006"  >
<polygon class="clusterblast-orf" style="stroke-width:1; stroke:black; fill:white; " points="222,85 227,80 233,80 233,90 227,90 222,85 " description="&lt;b&gt;A8135_RS11295&lt;/b&gt;&lt;br&gt;hypothetical protein&lt;br&gt;Location: 39235 - 38645" id="dummy-6_h6_8_6" locus_tag="A8135_RS11295"  />
</g>
<g id="a6_007"  >
<polygon class="clusterblast-orf" style="stroke-width:1; stroke:black; fill:white; " points="238,85 243,80 267,80 267,90 243,90 238,85 " description="&lt;b&gt;A8135_RS11290&lt;/b&gt;&lt;br&gt;hypothetical protein&lt;br&gt;Location: 38380 - 36893" id="dummy-6_h6_8_7" locus_tag="A8135_RS11290"  />
</g>
<g id="a6_008"  >
<polygon class="clusterblast-orf" style="stroke-width:1; stroke:black; fill:white; " points="269,85 274,80 288,80 288,90 274,90 269,85 " description="&lt;b&gt;A8135_RS11285&lt;/b&gt;&lt;br&gt;hypothetical protein&lt;br&gt;Location: 36771 - 35788" id="dummy-6_h6_8_8" locus_tag="A8135_RS11285"  />
</g>
<g id="a6_009"  >
<polygon class="clusterblast-orf" style="stroke-width:1; stroke:black; fill:white; " points="295,90 333,90 338,85 333,80 295,80 295,90 " description="&lt;b&gt;A8135_RS11280&lt;/b&gt;&lt;br&gt;MMPL family transporter&lt;br&gt;Location: 35396 - 33174" id="dummy-6_h6_8_9" locus_tag="A8135_RS11280"  />
</g>
<g id="a6_0010"  >
<polygon class="clusterblast-orf" style="stroke-width:1; stroke:black; fill:white; " points="339,90 397,90 402,85 397,80 339,80 339,90 " description="&lt;b&gt;A8135_RS11275&lt;/b&gt;&lt;br&gt;non-ribosomal peptide synthetase&lt;br&gt;Location: 33115 - 29837" id="dummy-6_h6_8_10" locus_tag="A8135_RS11275"  />
</g>
<g id="a6_0011"  >
<polygon class="clusterblast-orf" style="stroke-width:1; stroke:black; fill:white; " points="403,90 405,90 410,85 405,80 403,80 403,90 " description="&lt;b&gt;A8135_RS11270&lt;/b&gt;&lt;br&gt;hypothetical protein&lt;br&gt;Location: 29754 - 29407" id="dummy-6_h6_8_11" locus_tag="A8135_RS11270"  />
</g>
<g id="a6_0012"  >
<polygon class="clusterblast-orf" style="stroke-width:1; stroke:black; fill:white; " points="411,90 419,90 424,85 419,80 411,80 411,90 " description="&lt;b&gt;A8135_RS11265&lt;/b&gt;&lt;br&gt;hypothetical protein&lt;br&gt;Location: 29336 - 28683" id="dummy-6_h6_8_12" locus_tag="A8135_RS11265"  />
</g>
<g id="a6_0013"  >
<polygon class="clusterblast-orf" style="stroke-width:1; stroke:black; fill:white; " points="424,85 428,80 428,90 424,85 " description="&lt;b&gt;A8135_RS11260&lt;/b&gt;&lt;br&gt;DUF1328 domain-containing protein&lt;br&gt;Location: 28668 - 28474" id="dummy-6_h6_8_13" locus_tag="A8135_RS11260"  />
</g>
<g id="a6_0014"  >
<polygon class="clusterblast-orf" style="stroke-width:1; stroke:black; fill:white; " points="437,85 442,80 455,80 455,90 442,90 437,85 " description="&lt;b&gt;A8135_RS11255&lt;/b&gt;&lt;br&gt;protease SohB&lt;br&gt;Location: 27972 - 27031" id="dummy-6_h6_8_14" locus_tag="A8135_RS11255"  />
</g>
<g id="a6_0015"  >
<polygon class="clusterblast-orf" style="stroke-width:1; stroke:black; fill:white; " points="458,90 465,90 470,85 465,80 458,80 458,90 " description="&lt;b&gt;A8135_RS11250&lt;/b&gt;&lt;br&gt;cytochrome c biogenesis heme-transporting ATPase CcmA&lt;br&gt;Location: 26892 - 26293" id="dummy-6_h6_8_15" locus_tag="A8135_RS11250"  />
</g>
<g id="a6_0016"  >
<polygon class="clusterblast-orf" style="stroke-width:1; stroke:black; fill:white; " points="470,90 478,90 483,85 478,80 470,80 470,90 " description="&lt;b&gt;A8135_RS11245&lt;/b&gt;&lt;br&gt;heme exporter protein CcmB&lt;br&gt;Location: 26277 - 25606" id="dummy-6_h6_8_16" locus_tag="A8135_RS11245"  />
</g>
<g id="a6_0017"  >
<polygon class="clusterblast-orf" style="stroke-width:1; stroke:black; fill:#8d15d8; " points="483,90 493,90 498,85 493,80 483,80 483,90 " description="&lt;b&gt;A8135_RS11240&lt;/b&gt;&lt;br&gt;heme ABC transporter permease&lt;br&gt;Location: 25602 - 24820&lt;br&gt;&lt;br&gt;&lt;b&gt;BlastP hit with P773_RS0105900&lt;/b&gt;&lt;br&gt;Percentage identity: 40&lt;br&gt;Percentage coverage: 96&lt;br&gt;BLAST bit score: 171&lt;br&gt;E-value: 8.3e-41" id="dummy-6_h6_8_17" locus_tag="A8135_RS11240"  />
</g>
<g id="a6_0018"  >
<polygon class="clusterblast-orf" style="stroke-width:1; stroke:black; fill:white; " points="498,90 501,85 498,80 498,90 " description="&lt;b&gt;A8135_RS11235&lt;/b&gt;&lt;br&gt;heme exporter protein CcmD&lt;br&gt;Location: 24823 - 24659" id="dummy-6_h6_8_18" locus_tag="A8135_RS11235"  />
</g>
<g id="a6_0019"  >
<polygon class="clusterblast-orf" style="stroke-width:1; stroke:black; fill:#d86f15; " points="501,90 504,90 509,85 504,80 501,80 501,90 " description="&lt;b&gt;A8135_RS11230&lt;/b&gt;&lt;br&gt;cytochrome c maturation protein CcmE&lt;br&gt;Location: 24662 - 24213&lt;br&gt;&lt;br&gt;&lt;b&gt;BlastP hit with P773_RS0105910&lt;/b&gt;&lt;br&gt;Percentage identity: 48&lt;br&gt;Percentage coverage: 82&lt;br&gt;BLAST bit score: 106&lt;br&gt;E-value: 3.3e-21" id="dummy-6_h6_8_19" locus_tag="A8135_RS11230"  />
</g>
<g id="a6_0020"  >
<polygon class="clusterblast-orf" style="stroke-width:1; stroke:black; fill:#15d851; " points="509,90 542,90 547,85 542,80 509,80 509,90 " description="&lt;b&gt;A8135_RS11225&lt;/b&gt;&lt;br&gt;heme lyase CcmF/NrfE family subunit&lt;br&gt;Location: 24216 - 22267&lt;br&gt;&lt;br&gt;&lt;b&gt;BlastP hit with P773_RS0105915&lt;/b&gt;&lt;br&gt;Percentage identity: 34&lt;br&gt;Percentage coverage: 102&lt;br&gt;BLAST bit score: 327&lt;br&gt;E-value: 4.1e-87" id="dummy-6_h6_8_20" locus_tag="A8135_RS11225"  />
</g>
<g id="a6_0021"  >
<polygon class="clusterblast-orf" style="stroke-width:1; stroke:black; fill:#1551d8; " points="546,90 552,90 557,85 552,80 546,80 546,90 " description="&lt;b&gt;A8135_RS11220&lt;/b&gt;&lt;br&gt;DsbE family thiol:disulfide interchange protein&lt;br&gt;Location: 22270 - 21743&lt;br&gt;&lt;br&gt;&lt;b&gt;BlastP hit with P773_RS0105920&lt;/b&gt;&lt;br&gt;Percentage identity: 34&lt;br&gt;Percentage coverage: 92&lt;br&gt;BLAST bit score: 89&lt;br&gt;E-value: 5.2e-16" id="dummy-6_h6_8_21" locus_tag="A8135_RS11220"  />
</g>
<g id="a6_0022"  >
<polygon class="clusterblast-orf" style="stroke-width:1; stroke:black; fill:#d815c9; " points="557,90 559,90 564,85 559,80 557,80 557,90 " description="&lt;b&gt;A8135_RS11215&lt;/b&gt;&lt;br&gt;cytochrome c-type biogenesis protein CcmH&lt;br&gt;Location: 21746 - 21345&lt;br&gt;&lt;br&gt;&lt;b&gt;BlastP hit with P773_RS0105925&lt;/b&gt;&lt;br&gt;Percentage identity: 36&lt;br&gt;Percentage coverage: 69&lt;br&gt;BLAST bit score: 64&lt;br&gt;E-value: 7.3e-09" id="dummy-6_h6_8_22" locus_tag="A8135_RS11215"  />
</g>
<g id="a6_0023"  >
<polygon class="clusterblast-orf" style="stroke-width:1; stroke:black; fill:white; " points="564,90 572,90 577,85 572,80 564,80 564,90 " description="&lt;b&gt;A8135_RS11210&lt;/b&gt;&lt;br&gt;tetratricopeptide repeat protein&lt;br&gt;Location: 21352 - 20690" id="dummy-6_h6_8_23" locus_tag="A8135_RS11210"  />
</g>
<g id="a6_0024"  >
<polygon class="clusterblast-orf" style="stroke-width:1; stroke:black; fill:white; " points="579,90 595,90 600,85 595,80 579,80 579,90 " description="&lt;b&gt;A8135_RS11205&lt;/b&gt;&lt;br&gt;hypothetical protein&lt;br&gt;Location: 20558 - 19452" id="dummy-6_h6_8_24" locus_tag="A8135_RS11205"  />
</g>
<g id="a6_0025"  >
<polygon class="clusterblast-orf" style="stroke-width:1; stroke:black; fill:white; " points="601,90 613,90 618,85 613,80 601,80 601,90 " description="&lt;b&gt;A8135_RS11200&lt;/b&gt;&lt;br&gt;LD-carboxypeptidase&lt;br&gt;Location: 19441 - 18542" id="dummy-6_h6_8_25" locus_tag="A8135_RS11200"  />
</g>
<g id="a6_0026"  >
<polygon class="clusterblast-orf" style="stroke-width:1; stroke:black; fill:white; " points="619,85 624,80 625,80 625,90 624,90 619,85 " description="&lt;b&gt;A8135_RS11195&lt;/b&gt;&lt;br&gt;excinuclease ABC subunit C&lt;br&gt;Location: 18480 - 18187" id="dummy-6_h6_8_26" locus_tag="A8135_RS11195"  />
</g>
<g id="a6_0027"  >
<polygon class="clusterblast-orf" style="stroke-width:1; stroke:black; fill:white; " points="632,90 636,85 632,80 632,90 " description="&lt;b&gt;A8135_RS11190&lt;/b&gt;&lt;br&gt;dodecin domain-containing protein&lt;br&gt;Location: 17779 - 17573" id="dummy-6_h6_8_27" locus_tag="A8135_RS11190"  />
</g>
<g id="a6_0028"  >
<polygon class="clusterblast-orf" style="stroke-width:1; stroke:black; fill:white; " points="638,85 643,80 673,80 673,90 643,90 638,85 " description="&lt;b&gt;A8135_RS11185&lt;/b&gt;&lt;br&gt;DNA helicase RecQ&lt;br&gt;Location: 17478 - 15646" id="dummy-6_h6_8_28" locus_tag="A8135_RS11185"  />
</g>
<g id="a6_0029"  >
<polygon class="clusterblast-orf" style="stroke-width:1; stroke:black; fill:white; " points="677,90 694,90 699,85 694,80 677,80 677,90 " description="&lt;b&gt;A8135_RS11180&lt;/b&gt;&lt;br&gt;acyl-CoA dehydrogenase&lt;br&gt;Location: 15440 - 14286" id="dummy-6_h6_8_29" locus_tag="A8135_RS11180"  />
</g>
<g id="a6_0030"  >
<polygon class="clusterblast-orf" style="stroke-width:1; stroke:black; fill:white; " points="700,90 710,90 715,85 710,80 700,80 700,90 " description="&lt;b&gt;A8135_RS11175&lt;/b&gt;&lt;br&gt;enoyl-CoA hydratase&lt;br&gt;Location: 14234 - 13458" id="dummy-6_h6_8_30" locus_tag="A8135_RS11175"  />
</g>
<g id="a6_0031"  >
<polygon class="clusterblast-orf" style="stroke-width:1; stroke:black; fill:white; " points="715,90 730,90 735,85 730,80 715,80 715,90 " description="&lt;b&gt;A8135_RS11170&lt;/b&gt;&lt;br&gt;enoyl-CoA hydratase/isomerase family protein&lt;br&gt;Location: 13454 - 12402" id="dummy-6_h6_8_31" locus_tag="A8135_RS11170"  />
</g>
<g id="a6_0032"  >
<polygon class="clusterblast-orf" style="stroke-width:1; stroke:black; fill:white; " points="738,90 742,90 747,85 742,80 738,80 738,90 " description="&lt;b&gt;A8135_RS11165&lt;/b&gt;&lt;br&gt;hypothetical protein&lt;br&gt;Location: 12251 - 11790" id="dummy-6_h6_8_32" locus_tag="A8135_RS11165"  />
</g>
<g id="a6_0033"  >
<polygon class="clusterblast-orf" style="stroke-width:1; stroke:black; fill:white; " points="758,90 774,90 779,85 774,80 758,80 758,90 " description="&lt;b&gt;A8135_RS11160&lt;/b&gt;&lt;br&gt;hypothetical protein&lt;br&gt;Location: 11214 - 10087" id="dummy-6_h6_8_33" locus_tag="A8135_RS11160"  />
</g>
</svg>
