<svg version="1.1" preserveAspectRatio="none" width="800" y="0" xmlns:xlink="http://www.w3.org/1999/xlink" height="230" x="0" xmlns="http://www.w3.org/2000/svg" viewBox="0 0 800 230"  >
<g label="Query sequence" class="clusterblast-cluster"  >
<text class="clusterblast-acc" y="20" x="5"  >
Query sequence</text>
<line style="stroke-width:1; stroke:grey; " y1="35" x2="778.0" y2="35" x1="10"  />
<polygon class="clusterblast-orf" style="stroke-width:1; stroke:black; fill:#d81515; " points="0,40 4,40 9,35 4,30 0,30 0,40 " description="&lt;b&gt;P773_RS0104210&lt;/b&gt;&lt;br&gt;type I glyceraldehyde-3-phosphate dehydrogenase&lt;br&gt;Location: 770293 - 771301" id="dummy-4_q0_0_all" locus_tag="P773_RS0104210"  />
<polygon class="clusterblast-orf" style="stroke-width:1; stroke:black; fill:#33d815; " points="9,40 16,40 21,35 16,30 9,30 9,40 " description="&lt;b&gt;P773_RS0104215&lt;/b&gt;&lt;br&gt;phosphoglycerate kinase&lt;br&gt;Location: 771300 - 772479" id="dummy-4_q1_0_all" locus_tag="P773_RS0104215"  />
<polygon class="clusterblast-orf" style="stroke-width:1; stroke:black; fill:white; " points="21,40 25,40 30,35 25,30 21,30 21,40 " description="&lt;b&gt;P773_RS0104220&lt;/b&gt;&lt;br&gt;fructose-bisphosphate aldolase class I&lt;br&gt;Location: 772480 - 773491" id="dummy-4_q2_0_all" locus_tag="P773_RS0104220"  />
<polygon class="clusterblast-orf" style="stroke-width:1; stroke:black; fill:white; " points="30,40 31,40 36,35 31,30 30,30 30,40 " description="&lt;b&gt;P773_RS0104225&lt;/b&gt;&lt;br&gt;thiamine phosphate synthase&lt;br&gt;Location: 773477 - 774092" id="dummy-4_q3_0_all" locus_tag="P773_RS0104225"  />
<polygon class="clusterblast-orf" style="stroke-width:1; stroke:black; fill:white; " points="36,40 36,40 41,35 36,30 36,30 36,40 " description="&lt;b&gt;P773_RS0104230&lt;/b&gt;&lt;br&gt;elongation factor P&lt;br&gt;Location: 774088 - 774649" id="dummy-4_q4_0_all" locus_tag="P773_RS0104230"  />
<polygon class="clusterblast-orf" style="stroke-width:1; stroke:black; fill:white; " points="42,40 44,40 49,35 44,30 42,30 42,40 " description="&lt;b&gt;P773_RS0104235&lt;/b&gt;&lt;br&gt;inositol monophosphatase&lt;br&gt;Location: 774653 - 775394" id="dummy-4_q5_0_all" locus_tag="P773_RS0104235"  />
<polygon class="clusterblast-orf" style="stroke-width:1; stroke:black; fill:white; " points="49,40 51,35 49,30 49,40 " description="&lt;b&gt;P773_RS0104240&lt;/b&gt;&lt;br&gt;50S ribosomal protein L31&lt;br&gt;Location: 775429 - 775660" id="dummy-4_q6_0_all" locus_tag="P773_RS0104240"  />
<polygon class="clusterblast-orf" style="stroke-width:1; stroke:black; fill:white; " points="51,40 52,40 57,35 52,30 51,30 51,40 " description="&lt;b&gt;P773_RS0104245&lt;/b&gt;&lt;br&gt;DUF1013 domain-containing protein&lt;br&gt;Location: 775660 - 776248" id="dummy-4_q7_0_all" locus_tag="P773_RS0104245"  />
<polygon class="clusterblast-orf" style="stroke-width:1; stroke:black; fill:white; " points="57,40 59,35 57,30 57,40 " description="&lt;b&gt;P773_RS0104250&lt;/b&gt;&lt;br&gt;30S ribosomal protein S21&lt;br&gt;Location: 776301 - 776496" id="dummy-4_q8_0_all" locus_tag="P773_RS0104250"  />
<polygon class="clusterblast-orf" style="stroke-width:1; stroke:black; fill:#15abd8; " points="61,35 66,30 74,30 74,40 66,40 61,35 " description="&lt;b&gt;P773_RS0104260&lt;/b&gt;&lt;br&gt;NAD synthetase&lt;br&gt;Location: 776664 - 778062" id="dummy-4_q9_0_all" locus_tag="P773_RS0104260"  />
<polygon class="clusterblast-orf" style="stroke-width:1; stroke:black; fill:#8d15d8; " points="74,35 77,30 77,40 74,35 " description="&lt;b&gt;P773_RS0104265&lt;/b&gt;&lt;br&gt;NAD(P) transhydrogenase subunit alpha&lt;br&gt;Location: 778061 - 778370" id="dummy-4_q10_0_all" locus_tag="P773_RS0104265"  />
<polygon class="clusterblast-orf" style="stroke-width:1; stroke:black; fill:#8d15d8; " points="77,35 82,30 88,30 88,40 82,40 77,35 " description="&lt;b&gt;P773_RS0104270&lt;/b&gt;&lt;br&gt;NAD(P) transhydrogenase subunit alpha&lt;br&gt;Location: 778374 - 779463" id="dummy-4_q11_0_all" locus_tag="P773_RS0104270"  />
<polygon class="clusterblast-orf" style="stroke-width:1; stroke:black; fill:white; " points="88,35 89,30 89,40 88,35 " description="&lt;b&gt;P773_RS07910&lt;/b&gt;&lt;br&gt;aa3-type cytochrome c oxidase subunit IV&lt;br&gt;Location: 779472 - 779583" id="dummy-4_q12_0_all" locus_tag="P773_RS07910"  />
<polygon class="clusterblast-orf" style="stroke-width:1; stroke:black; fill:white; " points="89,35 90,30 90,40 89,35 " description="&lt;b&gt;P773_RS0104275&lt;/b&gt;&lt;br&gt;50S ribosomal protein L36&lt;br&gt;Location: 779588 - 779714" id="dummy-4_q13_0_all" locus_tag="P773_RS0104275"  />
<polygon class="clusterblast-orf" style="stroke-width:1; stroke:black; fill:white; " points="92,35 97,30 100,30 100,40 97,40 92,35 " description="&lt;b&gt;P773_RS0104285&lt;/b&gt;&lt;br&gt;ADP-glyceromanno-heptose 6-epimerase&lt;br&gt;Location: 779884 - 780781" id="dummy-4_q14_0_all" locus_tag="P773_RS0104285"  />
<polygon class="clusterblast-orf" style="stroke-width:1; stroke:black; fill:white; " points="105,35 110,30 121,30 121,40 110,40 105,35 " description="&lt;b&gt;P773_RS0104295&lt;/b&gt;&lt;br&gt;hypothetical protein&lt;br&gt;Location: 781271 - 782957" id="dummy-4_q15_0_all" locus_tag="P773_RS0104295"  />
<polygon class="clusterblast-orf" style="stroke-width:1; stroke:black; fill:white; " points="122,40 124,40 129,35 124,30 122,30 122,40 " description="&lt;b&gt;P773_RS0104300&lt;/b&gt;&lt;br&gt;hypothetical protein&lt;br&gt;Location: 783055 - 783766" id="dummy-4_q16_0_all" locus_tag="P773_RS0104300"  />
<polygon class="clusterblast-orf" style="stroke-width:1; stroke:black; fill:white; " points="129,35 134,30 141,30 141,40 134,40 129,35 " description="&lt;b&gt;P773_RS0104305&lt;/b&gt;&lt;br&gt;O-antigen ligase domain-containing protein&lt;br&gt;Location: 783737 - 785006" id="dummy-4_q17_0_all" locus_tag="P773_RS0104305"  />
<polygon class="clusterblast-orf" style="stroke-width:1; stroke:black; fill:white; " points="141,35 146,30 151,30 151,40 146,40 141,35 " description="&lt;b&gt;P773_RS0104310&lt;/b&gt;&lt;br&gt;hypothetical protein&lt;br&gt;Location: 785023 - 785998" id="dummy-4_q18_0_all" locus_tag="P773_RS0104310"  />
<polygon class="clusterblast-orf" style="stroke-width:1; stroke:black; fill:white; " points="151,35 156,30 161,30 161,40 156,40 151,35 " description="&lt;b&gt;P773_RS0104315&lt;/b&gt;&lt;br&gt;polysaccharide pyruvyl transferase family protein&lt;br&gt;Location: 786070 - 787045" id="dummy-4_q19_0_all" locus_tag="P773_RS0104315"  />
<polygon class="clusterblast-orf" style="stroke-width:1; stroke:black; fill:white; " points="161,35 166,30 170,30 170,40 166,40 161,35 " description="&lt;b&gt;P773_RS0104320&lt;/b&gt;&lt;br&gt;hypothetical protein&lt;br&gt;Location: 787069 - 787960" id="dummy-4_q20_0_all" locus_tag="P773_RS0104320"  />
<polygon class="clusterblast-orf" style="stroke-width:1; stroke:black; fill:white; " points="170,35 175,30 182,30 182,40 175,40 170,35 " description="&lt;b&gt;P773_RS0104325&lt;/b&gt;&lt;br&gt;hypothetical protein&lt;br&gt;Location: 787963 - 789304" id="dummy-4_q21_0_all" locus_tag="P773_RS0104325"  />
<polygon class="clusterblast-orf" style="stroke-width:1; stroke:black; fill:white; " points="182,35 187,30 189,30 189,40 187,40 182,35 " description="&lt;b&gt;P773_RS0104330&lt;/b&gt;&lt;br&gt;hypothetical protein&lt;br&gt;Location: 789303 - 789951" id="dummy-4_q22_0_all" locus_tag="P773_RS0104330"  />
<polygon class="clusterblast-orf" style="stroke-width:1; stroke:black; fill:white; " points="189,40 192,40 197,35 192,30 189,30 189,40 " description="&lt;b&gt;P773_RS07855&lt;/b&gt;&lt;br&gt;hypothetical protein&lt;br&gt;Location: 789997 - 790831" id="dummy-4_q23_0_all" locus_tag="P773_RS07855"  />
<polygon class="clusterblast-orf" style="stroke-width:1; stroke:black; fill:white; " points="197,40 205,40 210,35 205,30 197,30 197,40 " description="&lt;b&gt;P773_RS0104340&lt;/b&gt;&lt;br&gt;hypothetical protein&lt;br&gt;Location: 790845 - 792162" id="dummy-4_q24_0_all" locus_tag="P773_RS0104340"  />
<polygon class="clusterblast-orf" style="stroke-width:1; stroke:black; fill:white; " points="210,40 212,40 217,35 212,30 210,30 210,40 " description="&lt;b&gt;P773_RS0104345&lt;/b&gt;&lt;br&gt;hypothetical protein&lt;br&gt;Location: 792161 - 792848" id="dummy-4_q25_0_all" locus_tag="P773_RS0104345"  />
<polygon class="clusterblast-orf" style="stroke-width:1; stroke:black; fill:#d86f15; " points="216,35 221,30 237,30 237,40 221,40 216,35 " description="&lt;b&gt;P773_RS07860&lt;/b&gt;&lt;br&gt;hypothetical protein&lt;br&gt;Location: 792844 - 794932" id="dummy-4_q26_0_all" locus_tag="P773_RS07860"  />
<polygon class="clusterblast-orf" style="stroke-width:1; stroke:black; fill:#15d851; " points="237,35 242,30 246,30 246,40 242,40 237,35 " description="&lt;b&gt;P773_RS0104355&lt;/b&gt;&lt;br&gt;hypothetical protein&lt;br&gt;Location: 794928 - 795915" id="dummy-4_q27_0_all" locus_tag="P773_RS0104355"  />
<polygon class="clusterblast-orf" style="stroke-width:1; stroke:black; fill:white; " points="246,35 251,30 259,30 259,40 251,40 246,35 " description="&lt;b&gt;P773_RS0104360&lt;/b&gt;&lt;br&gt;GNAT family N-acetyltransferase&lt;br&gt;Location: 795918 - 797226" id="dummy-4_q28_0_all" locus_tag="P773_RS0104360"  />
<polygon class="clusterblast-orf" style="stroke-width:1; stroke:black; fill:white; " points="259,35 264,30 274,30 274,40 264,40 259,35 " description="&lt;b&gt;P773_RS0104365&lt;/b&gt;&lt;br&gt;polysaccharide biosynthesis PFTS motif protein&lt;br&gt;Location: 797222 - 798827" id="dummy-4_q29_0_all" locus_tag="P773_RS0104365"  />
<polygon class="clusterblast-orf" style="stroke-width:1; stroke:black; fill:white; " points="274,35 279,30 288,30 288,40 279,40 274,35 " description="&lt;b&gt;P773_RS0104370&lt;/b&gt;&lt;br&gt;hypothetical protein&lt;br&gt;Location: 798823 - 800263" id="dummy-4_q30_0_all" locus_tag="P773_RS0104370"  />
<polygon class="clusterblast-orf" style="stroke-width:1; stroke:black; fill:white; " points="288,40 294,40 299,35 294,30 288,30 288,40 " description="&lt;b&gt;P773_RS0104375&lt;/b&gt;&lt;br&gt;radical SAM protein&lt;br&gt;Location: 800323 - 801376" id="dummy-4_q31_0_all" locus_tag="P773_RS0104375"  />
<polygon class="clusterblast-orf" style="stroke-width:1; stroke:black; fill:#1551d8; " points="299,35 304,30 308,30 308,40 304,40 299,35 " description="&lt;b&gt;P773_RS0104380&lt;/b&gt;&lt;br&gt;pseudaminic acid synthase&lt;br&gt;Location: 801380 - 802400" id="dummy-4_q32_0_all" locus_tag="P773_RS0104380"  />
<polygon class="clusterblast-orf" style="stroke-width:1; stroke:black; fill:white; " points="309,40 310,40 315,35 310,30 309,30 309,40 " description="&lt;b&gt;P773_RS07865&lt;/b&gt;&lt;br&gt;N-acetyltransferase&lt;br&gt;Location: 802457 - 803084" id="dummy-4_q33_0_all" locus_tag="P773_RS07865"  />
<polygon class="clusterblast-orf" style="stroke-width:1; stroke:black; fill:white; " points="315,35 320,30 321,30 321,40 320,40 315,35 " description="&lt;b&gt;P773_RS0104390&lt;/b&gt;&lt;br&gt;hypothetical protein&lt;br&gt;Location: 803072 - 803735" id="dummy-4_q34_0_all" locus_tag="P773_RS0104390"  />
<polygon class="clusterblast-orf" style="stroke-width:1; stroke:black; fill:white; " points="321,35 326,30 328,30 328,40 326,40 321,35 " description="&lt;b&gt;P773_RS0104395&lt;/b&gt;&lt;br&gt;PIG-L family deacetylase&lt;br&gt;Location: 803734 - 804421" id="dummy-4_q35_0_all" locus_tag="P773_RS0104395"  />
<polygon class="clusterblast-orf" style="stroke-width:1; stroke:black; fill:white; " points="330,40 345,40 350,35 345,30 330,30 330,40 " description="&lt;b&gt;P773_RS0104405&lt;/b&gt;&lt;br&gt;hypothetical protein&lt;br&gt;Location: 804623 - 806732" id="dummy-4_q36_0_all" locus_tag="P773_RS0104405"  />
<polygon class="clusterblast-orf" style="stroke-width:1; stroke:black; fill:white; " points="350,35 352,30 352,40 350,35 " description="&lt;b&gt;P773_RS0104410&lt;/b&gt;&lt;br&gt;hypothetical protein&lt;br&gt;Location: 806743 - 806929" id="dummy-4_q37_0_all" locus_tag="P773_RS0104410"  />
<polygon class="clusterblast-orf" style="stroke-width:1; stroke:black; fill:#d86f15; " points="352,40 359,40 364,35 359,30 352,30 352,40 " description="&lt;b&gt;P773_RS0104415&lt;/b&gt;&lt;br&gt;NarL family transcriptional regulator&lt;br&gt;Location: 806927 - 808142" id="dummy-4_q38_0_all" locus_tag="P773_RS0104415"  />
<polygon class="clusterblast-orf" style="stroke-width:1; stroke:black; fill:#d815c9; " points="364,40 368,40 373,35 368,30 364,30 364,40 " description="&lt;b&gt;P773_RS0104420&lt;/b&gt;&lt;br&gt;UDP-glucose 4-epimerase GalE&lt;br&gt;Location: 808168 - 809158" id="dummy-4_q39_0_all" locus_tag="P773_RS0104420"  />
<polygon class="clusterblast-orf" style="stroke-width:1; stroke:black; fill:white; " points="373,40 380,40 385,35 380,30 373,30 373,40 " description="&lt;b&gt;P773_RS0104425&lt;/b&gt;&lt;br&gt;hypothetical protein&lt;br&gt;Location: 809154 - 810399" id="dummy-4_q40_0_all" locus_tag="P773_RS0104425"  />
<polygon class="clusterblast-orf" style="stroke-width:1; stroke:black; fill:white; " points="386,40 390,35 386,30 386,40 " description="&lt;b&gt;P773_RS0104430&lt;/b&gt;&lt;br&gt;hypothetical protein&lt;br&gt;Location: 810419 - 810905" id="dummy-4_q41_0_all" locus_tag="P773_RS0104430"  />
<polygon class="clusterblast-orf" style="stroke-width:1; stroke:black; fill:white; " points="390,40 392,40 397,35 392,30 390,30 390,40 " description="&lt;b&gt;P773_RS0104435&lt;/b&gt;&lt;br&gt;hypothetical protein&lt;br&gt;Location: 810883 - 811603" id="dummy-4_q42_0_all" locus_tag="P773_RS0104435"  />
<polygon class="clusterblast-orf" style="stroke-width:1; stroke:black; fill:white; " points="397,40 403,40 408,35 403,30 397,30 397,40 " description="&lt;b&gt;P773_RS0104440&lt;/b&gt;&lt;br&gt;class I SAM-dependent methyltransferase&lt;br&gt;Location: 811599 - 812781" id="dummy-4_q43_0_all" locus_tag="P773_RS0104440"  />
<polygon class="clusterblast-orf" style="stroke-width:1; stroke:black; fill:white; " points="408,40 410,40 415,35 410,30 408,30 408,40 " description="&lt;b&gt;P773_RS0104445&lt;/b&gt;&lt;br&gt;hypothetical protein&lt;br&gt;Location: 812780 - 813443" id="dummy-4_q44_0_all" locus_tag="P773_RS0104445"  />
<polygon class="clusterblast-orf" style="stroke-width:1; stroke:black; fill:white; " points="415,40 424,40 429,35 424,30 415,30 415,40 " description="&lt;b&gt;P773_RS0104450&lt;/b&gt;&lt;br&gt;radical SAM protein&lt;br&gt;Location: 813442 - 814963" id="dummy-4_q45_0_all" locus_tag="P773_RS0104450"  />
<polygon class="clusterblast-orf" style="stroke-width:1; stroke:black; fill:#d8c915; " points="429,40 433,40 438,35 433,30 429,30 429,40 " description="&lt;b&gt;P773_RS0104455&lt;/b&gt;&lt;br&gt;glycosyltransferase&lt;br&gt;Location: 814971 - 815886" id="dummy-4_q46_0_all" locus_tag="P773_RS0104455"  />
<polygon class="clusterblast-orf" style="stroke-width:1; stroke:black; fill:#15d8ab; " points="438,35 443,30 447,30 447,40 443,40 438,35 " description="&lt;b&gt;P773_RS0104460&lt;/b&gt;&lt;br&gt;glucose-1-phosphate thymidylyltransferase&lt;br&gt;Location: 815895 - 816759" id="dummy-4_q47_0_all" locus_tag="P773_RS0104460"  />
<polygon class="clusterblast-orf" style="stroke-width:1; stroke:black; fill:#3315d8; " points="446,35 451,30 456,30 456,40 451,40 446,35 " description="&lt;b&gt;P773_RS0104465&lt;/b&gt;&lt;br&gt;dTDP-glucose 4,6-dehydratase&lt;br&gt;Location: 816755 - 817754" id="dummy-4_q48_0_all" locus_tag="P773_RS0104465"  />
<polygon class="clusterblast-orf" style="stroke-width:1; stroke:black; fill:white; " points="456,35 461,30 466,30 466,40 461,40 456,35 " description="&lt;b&gt;P773_RS0104470&lt;/b&gt;&lt;br&gt;glycosyltransferase family 2 protein&lt;br&gt;Location: 817755 - 818757" id="dummy-4_q49_0_all" locus_tag="P773_RS0104470"  />
<polygon class="clusterblast-orf" style="stroke-width:1; stroke:black; fill:white; " points="466,35 471,30 476,30 476,40 471,40 466,35 " description="&lt;b&gt;P773_RS0104475&lt;/b&gt;&lt;br&gt;glycosyltransferase family 1 protein&lt;br&gt;Location: 818760 - 819819" id="dummy-4_q50_0_all" locus_tag="P773_RS0104475"  />
<polygon class="clusterblast-orf" style="stroke-width:1; stroke:black; fill:white; " points="476,35 481,30 491,30 491,40 481,40 476,35 " description="&lt;b&gt;P773_RS0104480&lt;/b&gt;&lt;br&gt;DUF2079 domain-containing protein&lt;br&gt;Location: 819790 - 821332" id="dummy-4_q51_0_all" locus_tag="P773_RS0104480"  />
<polygon class="clusterblast-orf" style="stroke-width:1; stroke:black; fill:white; " points="490,35 495,30 501,30 501,40 495,40 490,35 " description="&lt;b&gt;P773_RS0104485&lt;/b&gt;&lt;br&gt;hypothetical protein&lt;br&gt;Location: 821324 - 822467" id="dummy-4_q52_0_all" locus_tag="P773_RS0104485"  />
<polygon class="clusterblast-orf" style="stroke-width:1; stroke:black; fill:white; " points="501,35 506,30 522,30 522,40 506,40 501,35 " description="&lt;b&gt;P773_RS0104490&lt;/b&gt;&lt;br&gt;hypothetical protein&lt;br&gt;Location: 822468 - 824655" id="dummy-4_q53_0_all" locus_tag="P773_RS0104490"  />
<polygon class="clusterblast-orf" style="stroke-width:1; stroke:black; fill:white; " points="522,35 527,30 540,30 540,40 527,40 522,35 " description="&lt;b&gt;P773_RS0104495&lt;/b&gt;&lt;br&gt;hypothetical protein&lt;br&gt;Location: 824638 - 826480" id="dummy-4_q54_0_all" locus_tag="P773_RS0104495"  />
<polygon class="clusterblast-orf" style="stroke-width:1; stroke:black; fill:white; " points="540,35 545,30 561,30 561,40 545,40 540,35 " description="&lt;b&gt;P773_RS0104500&lt;/b&gt;&lt;br&gt;hypothetical protein&lt;br&gt;Location: 826472 - 828674" id="dummy-4_q55_0_all" locus_tag="P773_RS0104500"  />
<polygon class="clusterblast-orf" style="stroke-width:1; stroke:black; fill:white; " points="561,35 566,30 574,30 574,40 566,40 561,35 " description="&lt;b&gt;P773_RS0104505&lt;/b&gt;&lt;br&gt;hypothetical protein&lt;br&gt;Location: 828707 - 829976" id="dummy-4_q56_0_all" locus_tag="P773_RS0104505"  />
<polygon class="clusterblast-orf" style="stroke-width:1; stroke:black; fill:#d8156f; " points="574,35 579,30 579,30 579,40 579,40 574,35 " description="&lt;b&gt;P773_RS0104510&lt;/b&gt;&lt;br&gt;dTDP-4-keto-6-deoxy-D-glucose epimerase&lt;br&gt;Location: 829982 - 830486" id="dummy-4_q57_0_all" locus_tag="P773_RS0104510"  />
<polygon class="clusterblast-orf" style="stroke-width:1; stroke:black; fill:white; " points="578,35 583,30 589,30 589,40 583,40 578,35 " description="&lt;b&gt;P773_RS0104515&lt;/b&gt;&lt;br&gt;CDP-glucose 4,6-dehydratase&lt;br&gt;Location: 830472 - 831537" id="dummy-4_q58_0_all" locus_tag="P773_RS0104515"  />
<polygon class="clusterblast-orf" style="stroke-width:1; stroke:black; fill:#d86f15; " points="589,35 594,30 599,30 599,40 594,40 589,35 " description="&lt;b&gt;P773_RS0104520&lt;/b&gt;&lt;br&gt;DegT/DnrJ/EryC1/StrS family aminotransferase&lt;br&gt;Location: 831533 - 832655" id="dummy-4_q59_0_all" locus_tag="P773_RS0104520"  />
<polygon class="clusterblast-orf" style="stroke-width:1; stroke:black; fill:#8dd815; " points="599,35 604,30 607,30 607,40 604,40 599,35 " description="&lt;b&gt;P773_RS0104525&lt;/b&gt;&lt;br&gt;glucose-1-phosphate cytidylyltransferase&lt;br&gt;Location: 832648 - 833443" id="dummy-4_q60_0_all" locus_tag="P773_RS0104525"  />
<polygon class="clusterblast-orf" style="stroke-width:1; stroke:black; fill:white; " points="607,35 612,30 619,30 619,40 612,40 607,35 " description="&lt;b&gt;P773_RS0104530&lt;/b&gt;&lt;br&gt;hypothetical protein&lt;br&gt;Location: 833448 - 834681" id="dummy-4_q61_0_all" locus_tag="P773_RS0104530"  />
<polygon class="clusterblast-orf" style="stroke-width:1; stroke:black; fill:white; " points="619,35 624,30 627,30 627,40 624,40 619,35 " description="&lt;b&gt;P773_RS0104535&lt;/b&gt;&lt;br&gt;glycosyltransferase family 2 protein&lt;br&gt;Location: 834646 - 835483" id="dummy-4_q62_0_all" locus_tag="P773_RS0104535"  />
<polygon class="clusterblast-orf" style="stroke-width:1; stroke:black; fill:white; " points="627,35 632,30 636,30 636,40 632,40 627,35 " description="&lt;b&gt;P773_RS07780&lt;/b&gt;&lt;br&gt;hypothetical protein&lt;br&gt;Location: 835487 - 836474" id="dummy-4_q63_0_all" locus_tag="P773_RS07780"  />
<polygon class="clusterblast-orf" style="stroke-width:1; stroke:black; fill:white; " points="636,35 641,30 645,30 645,40 641,40 636,35 " description="&lt;b&gt;P773_RS0104545&lt;/b&gt;&lt;br&gt;glycosyltransferase family 2 protein&lt;br&gt;Location: 836482 - 837442" id="dummy-4_q64_0_all" locus_tag="P773_RS0104545"  />
<polygon class="clusterblast-orf" style="stroke-width:1; stroke:black; fill:white; " points="645,35 650,30 653,30 653,40 650,40 645,35 " description="&lt;b&gt;P773_RS0104550&lt;/b&gt;&lt;br&gt;CDP-alcohol phosphatidyltransferase family protein&lt;br&gt;Location: 837438 - 838212" id="dummy-4_q65_0_all" locus_tag="P773_RS0104550"  />
<polygon class="clusterblast-orf" style="stroke-width:1; stroke:black; fill:white; " points="655,35 659,30 659,40 655,35 " description="&lt;b&gt;P773_RS0104555&lt;/b&gt;&lt;br&gt;hypothetical protein&lt;br&gt;Location: 838383 - 838827" id="dummy-4_q66_0_all" locus_tag="P773_RS0104555"  />
<polygon class="clusterblast-orf" style="stroke-width:1; stroke:black; fill:white; " points="659,35 664,30 665,30 665,40 664,40 659,35 " description="&lt;b&gt;P773_RS0104560&lt;/b&gt;&lt;br&gt;hypothetical protein&lt;br&gt;Location: 838847 - 839474" id="dummy-4_q67_0_all" locus_tag="P773_RS0104560"  />
<polygon class="clusterblast-orf" style="stroke-width:1; stroke:black; fill:white; " points="665,35 670,30 674,30 674,40 670,40 665,35 " description="&lt;b&gt;P773_RS0104565&lt;/b&gt;&lt;br&gt;hypothetical protein&lt;br&gt;Location: 839470 - 840394" id="dummy-4_q68_0_all" locus_tag="P773_RS0104565"  />
<polygon class="clusterblast-orf" style="stroke-width:1; stroke:black; fill:white; " points="674,35 679,30 685,30 685,40 679,40 674,35 " description="&lt;b&gt;P773_RS0104570&lt;/b&gt;&lt;br&gt;glycosyltransferase family 1 protein&lt;br&gt;Location: 840390 - 841590" id="dummy-4_q69_0_all" locus_tag="P773_RS0104570"  />
<polygon class="clusterblast-orf" style="stroke-width:1; stroke:black; fill:white; " points="686,35 691,30 706,30 706,40 691,40 686,35 " description="&lt;b&gt;P773_RS0104575&lt;/b&gt;&lt;br&gt;hypothetical protein&lt;br&gt;Location: 841631 - 843716" id="dummy-4_q70_0_all" locus_tag="P773_RS0104575"  />
<polygon class="clusterblast-orf" style="stroke-width:1; stroke:black; fill:white; " points="755,40 762,40 767,35 762,30 755,30 755,40 " description="&lt;b&gt;P773_RS0104600&lt;/b&gt;&lt;br&gt;peptidase M23&lt;br&gt;Location: 848811 - 850104" id="dummy-4_q71_0_all" locus_tag="P773_RS0104600"  />
<polygon class="clusterblast-orf" style="stroke-width:1; stroke:black; fill:white; " points="767,35 771,30 771,40 767,35 " description="&lt;b&gt;P773_RS0104605&lt;/b&gt;&lt;br&gt;DUF4167 domain-containing protein&lt;br&gt;Location: 850100 - 850535" id="dummy-4_q72_0_all" locus_tag="P773_RS0104605"  />
<polygon class="clusterblast-orf" style="stroke-width:1; stroke:black; fill:white; " points="771,35 776,30 780,30 780,40 776,40 771,35 " description="&lt;b&gt;P773_RS0104610&lt;/b&gt;&lt;br&gt;peptide chain release factor N(5)-glutamine methyltransferase&lt;br&gt;Location: 850546 - 851389" id="dummy-4_q73_0_all" locus_tag="P773_RS0104610"  />
</g>
<g label="NZ_LAKC01000010" class="clusterblast-cluster" description="NZ_LAKC01000010_c4: Bacillus sp. CMAA 1185 Cont10, whole genome shotgun sequence (10% of genes show similarity), other"  >
<text class="clusterblast-acc" y="70" x="5"  >
<a xlink:href="https://antismash-db.secondarymetabolites.org/go/NZ_LAKC01000010/4" target="_blank">NZ_LAKC01000010_c4</a>: Bacillus sp. CMAA 1185 Cont10, whole genome shotgun sequence (10% of genes show similarity), other</text>
<line style="stroke-width:1; stroke:grey; " y1="85" x2="778.0" y2="85" x1="10"  />
</g>
<g id="a4_000"  >
<polygon class="clusterblast-orf" style="stroke-width:1; stroke:black; fill:white; " points="201,85 205,80 205,90 201,85 " description="&lt;b&gt;WB24_RS18370&lt;/b&gt;&lt;br&gt;hypothetical protein&lt;br&gt;Location: 676962 - 677396" id="dummy-4_h4_7_0" locus_tag="WB24_RS18370"  />
</g>
<g id="a4_001"  >
<polygon class="clusterblast-orf" style="stroke-width:1; stroke:black; fill:white; " points="206,85 211,80 211,80 211,90 211,90 206,85 " description="&lt;b&gt;WB24_RS18375&lt;/b&gt;&lt;br&gt;hypothetical protein&lt;br&gt;Location: 677535 - 678053" id="dummy-4_h4_7_1" locus_tag="WB24_RS18375"  />
</g>
<g id="a4_002"  >
<polygon class="clusterblast-orf" style="stroke-width:1; stroke:black; fill:white; " points="211,85 216,80 218,80 218,90 216,90 211,85 " description="&lt;b&gt;WB24_RS18380&lt;/b&gt;&lt;br&gt;site-2 protease family protein&lt;br&gt;Location: 678067 - 678726" id="dummy-4_h4_7_2" locus_tag="WB24_RS18380"  />
</g>
<g id="a4_003"  >
<polygon class="clusterblast-orf" style="stroke-width:1; stroke:black; fill:white; " points="219,90 220,85 219,80 219,90 " description="&lt;b&gt;WB24_RS18385&lt;/b&gt;&lt;br&gt;2-hydroxymuconate tautomerase&lt;br&gt;Location: 678835 - 679023" id="dummy-4_h4_7_3" locus_tag="WB24_RS18385"  />
</g>
<g id="a4_004"  >
<polygon class="clusterblast-orf" style="stroke-width:1; stroke:black; fill:white; " points="221,85 225,80 225,90 221,85 " description="&lt;b&gt;WB24_RS18390&lt;/b&gt;&lt;br&gt;MarR family transcriptional regulator&lt;br&gt;Location: 679066 - 679485" id="dummy-4_h4_7_4" locus_tag="WB24_RS18390"  />
</g>
<g id="a4_005"  >
<polygon class="clusterblast-orf" style="stroke-width:1; stroke:black; fill:white; " points="226,85 231,80 244,80 244,90 231,90 226,85 " description="&lt;b&gt;WB24_RS18395&lt;/b&gt;&lt;br&gt;threonine--tRNA ligase&lt;br&gt;Location: 679605 - 681521" id="dummy-4_h4_7_5" locus_tag="WB24_RS18395"  />
</g>
<g id="a4_006"  >
<polygon class="clusterblast-orf" style="stroke-width:1; stroke:black; fill:white; " points="252,85 257,80 266,80 266,90 257,90 252,85 " description="&lt;b&gt;WB24_RS18400&lt;/b&gt;&lt;br&gt;MFS transporter&lt;br&gt;Location: 682358 - 683766" id="dummy-4_h4_7_6" locus_tag="WB24_RS18400"  />
</g>
<g id="a4_007"  >
<polygon class="clusterblast-orf" style="stroke-width:1; stroke:black; fill:white; " points="266,85 271,80 271,80 271,90 271,90 266,85 " description="&lt;b&gt;WB24_RS18405&lt;/b&gt;&lt;br&gt;transcriptional regulator&lt;br&gt;Location: 683766 - 684236" id="dummy-4_h4_7_7" locus_tag="WB24_RS18405"  />
</g>
<g id="a4_008"  >
<polygon class="clusterblast-orf" style="stroke-width:1; stroke:black; fill:white; " points="272,85 276,80 276,90 272,85 " description="&lt;b&gt;WB24_RS18410&lt;/b&gt;&lt;br&gt;YwgA family protein&lt;br&gt;Location: 684347 - 684847" id="dummy-4_h4_7_8" locus_tag="WB24_RS18410"  />
</g>
<g id="a4_009"  >
<polygon class="clusterblast-orf" style="stroke-width:1; stroke:black; fill:white; " points="277,85 282,80 289,80 289,90 282,90 277,85 " description="&lt;b&gt;WB24_RS18415&lt;/b&gt;&lt;br&gt;HD domain-containing protein&lt;br&gt;Location: 684883 - 686184" id="dummy-4_h4_7_9" locus_tag="WB24_RS18415"  />
</g>
<g id="a4_0010"  >
<polygon class="clusterblast-orf" style="stroke-width:1; stroke:black; fill:white; " points="291,85 293,80 293,90 291,85 " description="&lt;b&gt;WB24_RS18420&lt;/b&gt;&lt;br&gt;DUF1450 domain-containing protein&lt;br&gt;Location: 686346 - 686570" id="dummy-4_h4_7_10" locus_tag="WB24_RS18420"  />
</g>
<g id="a4_0011"  >
<polygon class="clusterblast-orf" style="stroke-width:1; stroke:black; fill:white; " points="295,90 298,90 303,85 298,80 295,80 295,90 " description="&lt;b&gt;WB24_RS18425&lt;/b&gt;&lt;br&gt;RsfA family transcriptional regulator&lt;br&gt;Location: 686785 - 687561" id="dummy-4_h4_7_11" locus_tag="WB24_RS18425"  />
</g>
<g id="a4_0012"  >
<polygon class="clusterblast-orf" style="stroke-width:1; stroke:black; fill:white; " points="304,85 309,80 312,80 312,90 309,90 304,85 " description="&lt;b&gt;WB24_RS18430&lt;/b&gt;&lt;br&gt;EamA family transporter&lt;br&gt;Location: 687705 - 688595" id="dummy-4_h4_7_12" locus_tag="WB24_RS18430"  />
</g>
<g id="a4_0013"  >
<polygon class="clusterblast-orf" style="stroke-width:1; stroke:black; fill:white; " points="314,85 319,80 322,80 322,90 319,90 314,85 " description="&lt;b&gt;WB24_RS18435&lt;/b&gt;&lt;br&gt;lipoate--protein ligase family protein&lt;br&gt;Location: 688764 - 689609" id="dummy-4_h4_7_13" locus_tag="WB24_RS18435"  />
</g>
<g id="a4_0014"  >
<polygon class="clusterblast-orf" style="stroke-width:1; stroke:black; fill:white; " points="323,85 328,80 331,80 331,90 328,90 323,85 " description="&lt;b&gt;WB24_RS18440&lt;/b&gt;&lt;br&gt;LysR family transcriptional regulator&lt;br&gt;Location: 689658 - 690557" id="dummy-4_h4_7_14" locus_tag="WB24_RS18440"  />
</g>
<g id="a4_0015"  >
<polygon class="clusterblast-orf" style="stroke-width:1; stroke:black; fill:white; " points="333,85 338,80 342,80 342,90 338,90 333,85 " description="&lt;b&gt;WB24_RS18445&lt;/b&gt;&lt;br&gt;phosphate acetyltransferase&lt;br&gt;Location: 690703 - 691674" id="dummy-4_h4_7_15" locus_tag="WB24_RS18445"  />
</g>
<g id="a4_0016"  >
<polygon class="clusterblast-orf" style="stroke-width:1; stroke:black; fill:white; " points="345,90 347,90 352,85 347,80 345,80 345,90 " description="&lt;b&gt;WB24_RS18450&lt;/b&gt;&lt;br&gt;heme-dependent peroxidase&lt;br&gt;Location: 691959 - 692708" id="dummy-4_h4_7_16" locus_tag="WB24_RS18450"  />
</g>
<g id="a4_0017"  >
<polygon class="clusterblast-orf" style="stroke-width:1; stroke:black; fill:white; " points="353,90 356,90 361,85 356,80 353,80 353,90 " description="&lt;b&gt;WB24_RS18455&lt;/b&gt;&lt;br&gt;SDR family oxidoreductase&lt;br&gt;Location: 692841 - 693620" id="dummy-4_h4_7_17" locus_tag="WB24_RS18455"  />
</g>
<g id="a4_0018"  >
<polygon class="clusterblast-orf" style="stroke-width:1; stroke:black; fill:white; " points="361,85 366,80 372,80 372,90 366,90 361,85 " description="&lt;b&gt;WB24_RS18460&lt;/b&gt;&lt;br&gt;pyridoxal phosphate-dependent aminotransferase&lt;br&gt;Location: 693635 - 694834" id="dummy-4_h4_7_18" locus_tag="WB24_RS18460"  />
</g>
<g id="a4_0019"  >
<polygon class="clusterblast-orf" style="stroke-width:1; stroke:black; fill:white; " points="372,85 377,80 384,80 384,90 377,90 372,85 " description="&lt;b&gt;WB24_RS18465&lt;/b&gt;&lt;br&gt;MFS transporter&lt;br&gt;Location: 694835 - 696019" id="dummy-4_h4_7_19" locus_tag="WB24_RS18465"  />
</g>
<g id="a4_0020"  >
<polygon class="clusterblast-orf" style="stroke-width:1; stroke:black; fill:white; " points="384,85 389,80 397,80 397,90 389,90 384,85 " description="&lt;b&gt;WB24_RS18470&lt;/b&gt;&lt;br&gt;carboxylate--amine ligase&lt;br&gt;Location: 696016 - 697433" id="dummy-4_h4_7_20" locus_tag="WB24_RS18470"  />
</g>
<g id="a4_0021"  >
<polygon class="clusterblast-orf" style="stroke-width:1; stroke:black; fill:white; " points="398,85 403,80 405,80 405,90 403,90 398,85 " description="&lt;b&gt;WB24_RS18475&lt;/b&gt;&lt;br&gt;dihydroanticapsin 7-dehydrogenase&lt;br&gt;Location: 697452 - 698219" id="dummy-4_h4_7_21" locus_tag="WB24_RS18475"  />
</g>
<g id="a4_0022"  >
<polygon class="clusterblast-orf" style="stroke-width:1; stroke:black; fill:white; " points="405,85 410,80 412,80 412,90 410,90 405,85 " description="&lt;b&gt;WB24_RS18480&lt;/b&gt;&lt;br&gt;bacilysin biosynthesis protein BacB&lt;br&gt;Location: 698216 - 698923" id="dummy-4_h4_7_22" locus_tag="WB24_RS18480"  />
</g>
<g id="a4_0023"  >
<polygon class="clusterblast-orf" style="stroke-width:1; stroke:black; fill:white; " points="412,85 417,80 418,80 418,90 417,90 412,85 " description="&lt;b&gt;WB24_RS18485&lt;/b&gt;&lt;br&gt;bacilysin biosynthesis protein BacA&lt;br&gt;Location: 698913 - 699527" id="dummy-4_h4_7_23" locus_tag="WB24_RS18485"  />
</g>
<g id="a4_0024"  >
<polygon class="clusterblast-orf" style="stroke-width:1; stroke:black; fill:white; " points="419,85 424,80 431,80 431,90 424,90 419,85 " description="&lt;b&gt;WB24_RS18490&lt;/b&gt;&lt;br&gt;MFS transporter&lt;br&gt;Location: 699679 - 700917" id="dummy-4_h4_7_24" locus_tag="WB24_RS18490"  />
</g>
<g id="a4_0025"  >
<polygon class="clusterblast-orf" style="stroke-width:1; stroke:black; fill:white; " points="433,85 438,80 447,80 447,90 438,90 433,85 " description="&lt;b&gt;WB24_RS18495&lt;/b&gt;&lt;br&gt;amino acid permease&lt;br&gt;Location: 701126 - 702538" id="dummy-4_h4_7_25" locus_tag="WB24_RS18495"  />
</g>
<g id="a4_0026"  >
<polygon class="clusterblast-orf" style="stroke-width:1; stroke:black; fill:white; " points="447,85 452,80 463,80 463,90 452,90 447,85 " description="&lt;b&gt;WB24_RS18500&lt;/b&gt;&lt;br&gt;peptidase M20&lt;br&gt;Location: 702538 - 704238" id="dummy-4_h4_7_26" locus_tag="WB24_RS18500"  />
</g>
<g id="a4_0027"  >
<polygon class="clusterblast-orf" style="stroke-width:1; stroke:black; fill:white; " points="464,85 469,80 479,80 479,90 469,90 464,85 " description="&lt;b&gt;WB24_RS18505&lt;/b&gt;&lt;br&gt;L-glutamate gamma-semialdehyde dehydrogenase&lt;br&gt;Location: 704312 - 705859" id="dummy-4_h4_7_27" locus_tag="WB24_RS18505"  />
</g>
<g id="a4_0028"  >
<polygon class="clusterblast-orf" style="stroke-width:1; stroke:black; fill:white; " points="481,85 486,80 493,80 493,90 486,90 481,85 " description="&lt;b&gt;WB24_RS18510&lt;/b&gt;&lt;br&gt;Glu/Leu/Phe/Val dehydrogenase&lt;br&gt;Location: 706086 - 707360" id="dummy-4_h4_7_28" locus_tag="WB24_RS18510"  />
</g>
<g id="a4_0029"  >
<polygon class="clusterblast-orf" style="stroke-width:1; stroke:black; fill:white; " points="495,85 499,80 499,90 495,85 " description="&lt;b&gt;WB24_RS18515&lt;/b&gt;&lt;br&gt;hypothetical protein&lt;br&gt;Location: 707538 - 708002" id="dummy-4_h4_7_29" locus_tag="WB24_RS18515"  />
</g>
<g id="a4_0030"  >
<polygon class="clusterblast-orf" style="stroke-width:1; stroke:black; fill:white; " points="502,85 507,80 507,80 507,90 507,90 502,85 " description="&lt;b&gt;WB24_RS18520&lt;/b&gt;&lt;br&gt;spore coat polysaccharide biosynthesis protein SpsL&lt;br&gt;Location: 708326 - 708781" id="dummy-4_h4_7_30" locus_tag="WB24_RS18520"  />
</g>
<g id="a4_0031"  >
<polygon class="clusterblast-orf" style="stroke-width:1; stroke:black; fill:white; " points="507,85 512,80 515,80 515,90 512,90 507,85 " description="&lt;b&gt;WB24_RS18525&lt;/b&gt;&lt;br&gt;dTDP-4-dehydrorhamnose reductase&lt;br&gt;Location: 708774 - 709625" id="dummy-4_h4_7_31" locus_tag="WB24_RS18525"  />
</g>
<g id="a4_0032"  >
<polygon class="clusterblast-orf" style="stroke-width:1; stroke:black; fill:#3315d8; " points="515,85 520,80 524,80 524,90 520,90 515,85 " description="&lt;b&gt;WB24_RS18530&lt;/b&gt;&lt;br&gt;dTDP-glucose 4,6-dehydratase&lt;br&gt;Location: 709639 - 710586&lt;br&gt;&lt;br&gt;&lt;b&gt;BlastP hit with P773_RS0104465&lt;/b&gt;&lt;br&gt;Percentage identity: 42&lt;br&gt;Percentage coverage: 98&lt;br&gt;BLAST bit score: 239&lt;br&gt;E-value: 6e-61" id="dummy-4_h4_7_32" locus_tag="WB24_RS18530"  />
</g>
<g id="a4_0033"  >
<polygon class="clusterblast-orf" style="stroke-width:1; stroke:black; fill:#15d8ab; " points="524,85 529,80 531,80 531,90 529,90 524,85 " description="&lt;b&gt;WB24_RS18535&lt;/b&gt;&lt;br&gt;spore coat protein&lt;br&gt;Location: 710586 - 711326&lt;br&gt;&lt;br&gt;&lt;b&gt;BlastP hit with P773_RS0104460&lt;/b&gt;&lt;br&gt;Percentage identity: 40&lt;br&gt;Percentage coverage: 83&lt;br&gt;BLAST bit score: 170&lt;br&gt;E-value: 3.9e-40" id="dummy-4_h4_7_33" locus_tag="WB24_RS18535"  />
</g>
<g id="a4_0034"  >
<polygon class="clusterblast-orf" style="stroke-width:1; stroke:black; fill:white; " points="531,85 536,80 541,80 541,90 536,90 531,85 " description="&lt;b&gt;WB24_RS18540&lt;/b&gt;&lt;br&gt;spore coat protein&lt;br&gt;Location: 711351 - 712370" id="dummy-4_h4_7_34" locus_tag="WB24_RS18540"  />
</g>
<g id="a4_0035"  >
<polygon class="clusterblast-orf" style="stroke-width:1; stroke:black; fill:white; " points="541,85 546,80 548,80 548,90 546,90 541,85 " description="&lt;b&gt;WB24_RS18545&lt;/b&gt;&lt;br&gt;spore coat polysaccharide biosynthesis protein SpsF&lt;br&gt;Location: 712373 - 713095" id="dummy-4_h4_7_35" locus_tag="WB24_RS18545"  />
</g>
<g id="a4_0036"  >
<polygon class="clusterblast-orf" style="stroke-width:1; stroke:black; fill:#1551d8; " points="548,85 553,80 559,80 559,90 553,90 548,85 " description="&lt;b&gt;WB24_RS18550&lt;/b&gt;&lt;br&gt;spore coat biosynthesis protein SpsE&lt;br&gt;Location: 713088 - 714209&lt;br&gt;&lt;br&gt;&lt;b&gt;BlastP hit with P773_RS0104380&lt;/b&gt;&lt;br&gt;Percentage identity: 31&lt;br&gt;Percentage coverage: 102&lt;br&gt;BLAST bit score: 143&lt;br&gt;E-value: 3.5e-32" id="dummy-4_h4_7_36" locus_tag="WB24_RS18550"  />
</g>
<g id="a4_0037"  >
<polygon class="clusterblast-orf" style="stroke-width:1; stroke:black; fill:white; " points="559,85 564,80 567,80 567,90 564,90 559,85 " description="&lt;b&gt;WB24_RS18555&lt;/b&gt;&lt;br&gt;GNAT family N-acetyltransferase&lt;br&gt;Location: 714209 - 715078" id="dummy-4_h4_7_37" locus_tag="WB24_RS18555"  />
</g>
<g id="a4_0038"  >
<polygon class="clusterblast-orf" style="stroke-width:1; stroke:black; fill:#d86f15; " points="567,85 572,80 578,80 578,90 572,90 567,85 " description="&lt;b&gt;WB24_RS18560&lt;/b&gt;&lt;br&gt;UDP-4-amino-4, 6-dideoxy-N-acetyl-beta-L-altrosamine transaminase&lt;br&gt;Location: 715079 - 716247&lt;br&gt;&lt;br&gt;&lt;b&gt;BlastP hit with P773_RS07860&lt;/b&gt;&lt;br&gt;Percentage identity: 38&lt;br&gt;Percentage coverage: 22&lt;br&gt;BLAST bit score: 108&lt;br&gt;E-value: 3.3e-21&lt;br&gt;&lt;br&gt;&lt;b&gt;BlastP hit with P773_RS0104415&lt;/b&gt;&lt;br&gt;Percentage identity: 34&lt;br&gt;Percentage coverage: 38&lt;br&gt;BLAST bit score: 92&lt;br&gt;E-value: 1.1e-16&lt;br&gt;&lt;br&gt;&lt;b&gt;BlastP hit with P773_RS0104520&lt;/b&gt;&lt;br&gt;Percentage identity: 33&lt;br&gt;Percentage coverage: 43&lt;br&gt;BLAST bit score: 102&lt;br&gt;E-value: 9.8e-20" id="dummy-4_h4_7_38" locus_tag="WB24_RS18560"  />
</g>
</svg>
