<svg version="1.1" preserveAspectRatio="none" width="800" y="0" xmlns:xlink="http://www.w3.org/1999/xlink" height="230" x="0" xmlns="http://www.w3.org/2000/svg" viewBox="0 0 800 230"  >
<g label="Query sequence" class="clusterblast-cluster"  >
<text class="clusterblast-acc" y="20" x="5"  >
Query sequence</text>
<line style="stroke-width:1; stroke:grey; " y1="35" x2="778.0" y2="35" x1="10"  />
<polygon class="clusterblast-orf" style="stroke-width:1; stroke:black; fill:white; " points="134,40 141,40 146,35 141,30 134,30 134,40 " description="&lt;b&gt;P773_RS0100420&lt;/b&gt;&lt;br&gt;aspartate aminotransferase family protein&lt;br&gt;Location: 65229 - 66576" id="dummy-1_q0_0_all" locus_tag="P773_RS0100420"  />
<polygon class="clusterblast-orf" style="stroke-width:1; stroke:black; fill:#d81515; " points="146,40 150,40 155,35 150,30 146,30 146,40 " description="&lt;b&gt;P773_RS0100425&lt;/b&gt;&lt;br&gt;alanine dehydrogenase&lt;br&gt;Location: 66608 - 67724" id="dummy-1_q1_0_all" locus_tag="P773_RS0100425"  />
<polygon class="clusterblast-orf" style="stroke-width:1; stroke:black; fill:white; " points="156,40 159,40 164,35 159,30 156,30 156,40 " description="&lt;b&gt;P773_RS0100430&lt;/b&gt;&lt;br&gt;NAD-dependent dehydratase&lt;br&gt;Location: 67758 - 68769" id="dummy-1_q2_0_all" locus_tag="P773_RS0100430"  />
<polygon class="clusterblast-orf" style="stroke-width:1; stroke:black; fill:white; " points="167,40 167,40 172,35 167,30 167,30 167,40 " description="&lt;b&gt;P773_RS0100435&lt;/b&gt;&lt;br&gt;methyltransferase domain-containing protein&lt;br&gt;Location: 69104 - 69731" id="dummy-1_q3_0_all" locus_tag="P773_RS0100435"  />
<polygon class="clusterblast-orf" style="stroke-width:1; stroke:black; fill:white; " points="172,35 176,30 176,40 172,35 " description="&lt;b&gt;P773_RS0100440&lt;/b&gt;&lt;br&gt;hypothetical protein&lt;br&gt;Location: 69733 - 70186" id="dummy-1_q4_0_all" locus_tag="P773_RS0100440"  />
<polygon class="clusterblast-orf" style="stroke-width:1; stroke:black; fill:white; " points="176,40 197,40 202,35 197,30 176,30 176,40 " description="&lt;b&gt;P773_RS0100445&lt;/b&gt;&lt;br&gt;hypothetical protein&lt;br&gt;Location: 70171 - 73210" id="dummy-1_q5_0_all" locus_tag="P773_RS0100445"  />
<polygon class="clusterblast-orf" style="stroke-width:1; stroke:black; fill:white; " points="202,40 208,40 213,35 208,30 202,30 202,40 " description="&lt;b&gt;P773_RS0100450&lt;/b&gt;&lt;br&gt;hypothetical protein&lt;br&gt;Location: 73212 - 74544" id="dummy-1_q6_0_all" locus_tag="P773_RS0100450"  />
<polygon class="clusterblast-orf" style="stroke-width:1; stroke:black; fill:white; " points="213,35 218,30 223,30 223,40 218,40 213,35 " description="&lt;b&gt;P773_RS0100455&lt;/b&gt;&lt;br&gt;hypothetical protein&lt;br&gt;Location: 74533 - 75652" id="dummy-1_q7_0_all" locus_tag="P773_RS0100455"  />
<polygon class="clusterblast-orf" style="stroke-width:1; stroke:black; fill:white; " points="224,40 237,40 242,35 237,30 224,30 224,40 " description="&lt;b&gt;P773_RS0100460&lt;/b&gt;&lt;br&gt;hypothetical protein&lt;br&gt;Location: 75861 - 78003" id="dummy-1_q8_0_all" locus_tag="P773_RS0100460"  />
<polygon class="clusterblast-orf" style="stroke-width:1; stroke:black; fill:#33d815; " points="242,40 249,40 254,35 249,30 242,30 242,40 " description="&lt;b&gt;P773_RS07810&lt;/b&gt;&lt;br&gt;hypothetical protein&lt;br&gt;Location: 78006 - 79419" id="dummy-1_q9_0_all" locus_tag="P773_RS07810"  />
<polygon class="clusterblast-orf" style="stroke-width:1; stroke:black; fill:white; " points="255,40 265,40 270,35 265,30 255,30 255,40 " description="&lt;b&gt;P773_RS0100470&lt;/b&gt;&lt;br&gt;hypothetical protein&lt;br&gt;Location: 79512 - 81273" id="dummy-1_q10_0_all" locus_tag="P773_RS0100470"  />
<polygon class="clusterblast-orf" style="stroke-width:1; stroke:black; fill:#15abd8; " points="271,40 273,40 278,35 273,30 271,30 271,40 " description="&lt;b&gt;P773_RS0100475&lt;/b&gt;&lt;br&gt;glycosyltransferase family 2 protein&lt;br&gt;Location: 81336 - 82230" id="dummy-1_q11_0_all" locus_tag="P773_RS0100475"  />
<polygon class="clusterblast-orf" style="stroke-width:1; stroke:black; fill:white; " points="278,35 283,30 294,30 294,40 283,40 278,35 " description="&lt;b&gt;P773_RS0100480&lt;/b&gt;&lt;br&gt;asparagine synthase (glutamine-hydrolyzing)&lt;br&gt;Location: 82231 - 84034" id="dummy-1_q12_0_all" locus_tag="P773_RS0100480"  />
<polygon class="clusterblast-orf" style="stroke-width:1; stroke:black; fill:#8d15d8; " points="294,35 299,30 304,30 304,40 299,40 294,35 " description="&lt;b&gt;P773_RS0100485&lt;/b&gt;&lt;br&gt;hypothetical protein&lt;br&gt;Location: 84021 - 85218" id="dummy-1_q13_0_all" locus_tag="P773_RS0100485"  />
<polygon class="clusterblast-orf" style="stroke-width:1; stroke:black; fill:white; " points="304,35 309,30 315,30 315,40 309,40 304,35 " description="&lt;b&gt;P773_RS0100490&lt;/b&gt;&lt;br&gt;hypothetical protein&lt;br&gt;Location: 85244 - 86516" id="dummy-1_q14_0_all" locus_tag="P773_RS0100490"  />
<polygon class="clusterblast-orf" style="stroke-width:1; stroke:black; fill:white; " points="315,35 320,30 325,30 325,40 320,40 315,35 " description="&lt;b&gt;P773_RS0100495&lt;/b&gt;&lt;br&gt;hypothetical protein&lt;br&gt;Location: 86505 - 87684" id="dummy-1_q15_0_all" locus_tag="P773_RS0100495"  />
<polygon class="clusterblast-orf" style="stroke-width:1; stroke:black; fill:white; " points="325,35 330,30 334,30 334,40 330,40 325,35 " description="&lt;b&gt;P773_RS0100500&lt;/b&gt;&lt;br&gt;hypothetical protein&lt;br&gt;Location: 87725 - 88754" id="dummy-1_q16_0_all" locus_tag="P773_RS0100500"  />
<polygon class="clusterblast-orf" style="stroke-width:1; stroke:black; fill:#d86f15; " points="334,35 339,30 343,30 343,40 339,40 334,35 " description="&lt;b&gt;P773_RS0100505&lt;/b&gt;&lt;br&gt;glycosyltransferase family 1 protein&lt;br&gt;Location: 88759 - 89845" id="dummy-1_q17_0_all" locus_tag="P773_RS0100505"  />
<polygon class="clusterblast-orf" style="stroke-width:1; stroke:black; fill:white; " points="343,35 348,30 356,30 356,40 348,40 343,35 " description="&lt;b&gt;P773_RS0100510&lt;/b&gt;&lt;br&gt;hypothetical protein&lt;br&gt;Location: 89834 - 91379" id="dummy-1_q18_0_all" locus_tag="P773_RS0100510"  />
<polygon class="clusterblast-orf" style="stroke-width:1; stroke:black; fill:white; " points="356,35 361,30 366,30 366,40 361,40 356,35 " description="&lt;b&gt;P773_RS0100515&lt;/b&gt;&lt;br&gt;hypothetical protein&lt;br&gt;Location: 91398 - 92574" id="dummy-1_q19_0_all" locus_tag="P773_RS0100515"  />
<polygon class="clusterblast-orf" style="stroke-width:1; stroke:black; fill:#15d851; " points="366,35 371,30 372,30 372,40 371,40 366,35 " description="&lt;b&gt;P773_RS0100520&lt;/b&gt;&lt;br&gt;FkbM family methyltransferase&lt;br&gt;Location: 92566 - 93286" id="dummy-1_q20_0_all" locus_tag="P773_RS0100520"  />
<polygon class="clusterblast-orf" style="stroke-width:1; stroke:black; fill:white; " points="373,35 378,30 379,30 379,40 378,40 373,35 " description="&lt;b&gt;P773_RS0100525&lt;/b&gt;&lt;br&gt;glycosyltransferase&lt;br&gt;Location: 93379 - 94117" id="dummy-1_q21_0_all" locus_tag="P773_RS0100525"  />
<polygon class="clusterblast-orf" style="stroke-width:1; stroke:black; fill:white; " points="379,35 384,30 386,30 386,40 384,40 379,35 " description="&lt;b&gt;P773_RS0100530&lt;/b&gt;&lt;br&gt;hypothetical protein&lt;br&gt;Location: 94123 - 94930" id="dummy-1_q22_0_all" locus_tag="P773_RS0100530"  />
<polygon class="clusterblast-orf" style="stroke-width:1; stroke:black; fill:white; " points="386,35 391,30 397,30 397,40 391,40 386,35 " description="&lt;b&gt;P773_RS0100535&lt;/b&gt;&lt;br&gt;hypothetical protein&lt;br&gt;Location: 94935 - 96273" id="dummy-1_q23_0_all" locus_tag="P773_RS0100535"  />
<polygon class="clusterblast-orf" style="stroke-width:1; stroke:black; fill:#1551d8; " points="398,35 403,30 404,30 404,40 403,40 398,35 " description="&lt;b&gt;P773_RS07710&lt;/b&gt;&lt;br&gt;SIS domain-containing protein&lt;br&gt;Location: 96376 - 97003" id="dummy-1_q24_0_all" locus_tag="P773_RS07710"  />
<polygon class="clusterblast-orf" style="stroke-width:1; stroke:black; fill:#d815c9; " points="405,40 408,40 413,35 408,30 405,30 405,40 " description="&lt;b&gt;P773_RS0100545&lt;/b&gt;&lt;br&gt;hypothetical protein&lt;br&gt;Location: 97112 - 98084" id="dummy-1_q25_0_all" locus_tag="P773_RS0100545"  />
<polygon class="clusterblast-orf" style="stroke-width:1; stroke:black; fill:#d8c915; " points="413,40 418,40 423,35 418,30 413,30 413,40 " description="&lt;b&gt;P773_RS0100550&lt;/b&gt;&lt;br&gt;hypothetical protein&lt;br&gt;Location: 98083 - 99334" id="dummy-1_q26_0_all" locus_tag="P773_RS0100550"  />
<polygon class="clusterblast-orf" style="stroke-width:1; stroke:black; fill:#15d8ab; " points="424,40 427,40 432,35 427,30 424,30 424,40 " description="&lt;b&gt;P773_RS0100555&lt;/b&gt;&lt;br&gt;hypothetical protein&lt;br&gt;Location: 99373 - 100339" id="dummy-1_q27_0_all" locus_tag="P773_RS0100555"  />
<polygon class="clusterblast-orf" style="stroke-width:1; stroke:black; fill:#d815c9; " points="433,35 438,30 442,30 442,40 438,40 433,35 " description="&lt;b&gt;P773_RS0100560&lt;/b&gt;&lt;br&gt;UDP-glucuronate 5-epimerase&lt;br&gt;Location: 100462 - 101473" id="dummy-1_q28_0_all" locus_tag="P773_RS0100560"  />
<polygon class="clusterblast-orf" style="stroke-width:1; stroke:black; fill:#3315d8; " points="444,40 445,40 450,35 445,30 444,30 444,40 " description="&lt;b&gt;P773_RS0100565&lt;/b&gt;&lt;br&gt;transaldolase&lt;br&gt;Location: 101792 - 102488" id="dummy-1_q29_0_all" locus_tag="P773_RS0100565"  />
<polygon class="clusterblast-orf" style="stroke-width:1; stroke:black; fill:white; " points="450,40 466,40 471,35 466,30 450,30 450,40 " description="&lt;b&gt;P773_RS0100570&lt;/b&gt;&lt;br&gt;sarcosine dehydrogenase&lt;br&gt;Location: 102517 - 104962" id="dummy-1_q30_0_all" locus_tag="P773_RS0100570"  />
<polygon class="clusterblast-orf" style="stroke-width:1; stroke:black; fill:white; " points="472,40 473,35 472,30 472,40 " description="&lt;b&gt;P773_RS0100575&lt;/b&gt;&lt;br&gt;hypothetical protein&lt;br&gt;Location: 105011 - 105221" id="dummy-1_q31_0_all" locus_tag="P773_RS0100575"  />
<polygon class="clusterblast-orf" style="stroke-width:1; stroke:black; fill:white; " points="475,35 479,30 479,40 475,35 " description="&lt;b&gt;P773_RS0100585&lt;/b&gt;&lt;br&gt;adenine phosphoribosyltransferase&lt;br&gt;Location: 105387 - 105915" id="dummy-1_q32_0_all" locus_tag="P773_RS0100585"  />
<polygon class="clusterblast-orf" style="stroke-width:1; stroke:black; fill:white; " points="480,40 482,40 487,35 482,30 480,30 480,40 " description="&lt;b&gt;P773_RS0100590&lt;/b&gt;&lt;br&gt;S-methyl-5'-thioadenosine phosphorylase&lt;br&gt;Location: 105956 - 106829" id="dummy-1_q33_0_all" locus_tag="P773_RS0100590"  />
<polygon class="clusterblast-orf" style="stroke-width:1; stroke:black; fill:white; " points="487,40 491,40 496,35 491,30 487,30 487,40 " description="&lt;b&gt;P773_RS0100595&lt;/b&gt;&lt;br&gt;S-methyl-5-thioribose-1-phosphate isomerase&lt;br&gt;Location: 106825 - 107896" id="dummy-1_q34_0_all" locus_tag="P773_RS0100595"  />
<polygon class="clusterblast-orf" style="stroke-width:1; stroke:black; fill:white; " points="496,40 496,40 501,35 496,30 496,30 496,40 " description="&lt;b&gt;P773_RS0100600&lt;/b&gt;&lt;br&gt;fuculose phosphate aldolase&lt;br&gt;Location: 107892 - 108525" id="dummy-1_q35_0_all" locus_tag="P773_RS0100600"  />
<polygon class="clusterblast-orf" style="stroke-width:1; stroke:black; fill:white; " points="501,40 505,40 510,35 505,30 501,30 501,40 " description="&lt;b&gt;P773_RS0100605&lt;/b&gt;&lt;br&gt;adenosylmethionine decarboxylase&lt;br&gt;Location: 108528 - 109569" id="dummy-1_q36_0_all" locus_tag="P773_RS0100605"  />
<polygon class="clusterblast-orf" style="stroke-width:1; stroke:black; fill:white; " points="511,40 513,40 518,35 513,30 511,30 511,40 " description="&lt;b&gt;P773_RS0100610&lt;/b&gt;&lt;br&gt;ABC transporter substrate-binding protein&lt;br&gt;Location: 109628 - 110480" id="dummy-1_q37_0_all" locus_tag="P773_RS0100610"  />
<polygon class="clusterblast-orf" style="stroke-width:1; stroke:black; fill:#d8156f; " points="518,40 519,40 524,35 519,30 518,30 518,40 " description="&lt;b&gt;P773_RS0100615&lt;/b&gt;&lt;br&gt;ABC transporter permease&lt;br&gt;Location: 110524 - 111217" id="dummy-1_q38_0_all" locus_tag="P773_RS0100615"  />
<polygon class="clusterblast-orf" style="stroke-width:1; stroke:black; fill:#8dd815; " points="524,40 525,40 530,35 525,30 524,30 524,40 " description="&lt;b&gt;P773_RS0100620&lt;/b&gt;&lt;br&gt;ABC transporter permease&lt;br&gt;Location: 111216 - 111894" id="dummy-1_q39_0_all" locus_tag="P773_RS0100620"  />
<polygon class="clusterblast-orf" style="stroke-width:1; stroke:black; fill:white; " points="530,40 532,40 537,35 532,30 530,30 530,40 " description="&lt;b&gt;P773_RS0100625&lt;/b&gt;&lt;br&gt;phytanoyl-CoA dioxygenase&lt;br&gt;Location: 111896 - 112685" id="dummy-1_q40_0_all" locus_tag="P773_RS0100625"  />
<polygon class="clusterblast-orf" style="stroke-width:1; stroke:black; fill:white; " points="537,35 540,30 540,40 537,35 " description="&lt;b&gt;P773_RS0100630&lt;/b&gt;&lt;br&gt;hypothetical protein&lt;br&gt;Location: 112674 - 113064" id="dummy-1_q41_0_all" locus_tag="P773_RS0100630"  />
<polygon class="clusterblast-orf" style="stroke-width:1; stroke:black; fill:white; " points="540,40 543,40 548,35 543,30 540,30 540,40 " description="&lt;b&gt;P773_RS0100635&lt;/b&gt;&lt;br&gt;glycosyl transferase family 1&lt;br&gt;Location: 113096 - 114038" id="dummy-1_q42_0_all" locus_tag="P773_RS0100635"  />
<polygon class="clusterblast-orf" style="stroke-width:1; stroke:black; fill:white; " points="548,35 553,30 556,30 556,40 553,40 548,35 " description="&lt;b&gt;P773_RS0100640&lt;/b&gt;&lt;br&gt;EamA/RhaT family transporter&lt;br&gt;Location: 114052 - 114940" id="dummy-1_q43_0_all" locus_tag="P773_RS0100640"  />
<polygon class="clusterblast-orf" style="stroke-width:1; stroke:black; fill:white; " points="556,35 561,30 565,30 565,40 561,40 556,35 " description="&lt;b&gt;P773_RS0100645&lt;/b&gt;&lt;br&gt;glycosyl transferase&lt;br&gt;Location: 114979 - 116062" id="dummy-1_q44_0_all" locus_tag="P773_RS0100645"  />
<polygon class="clusterblast-orf" style="stroke-width:1; stroke:black; fill:white; " points="565,35 570,30 570,30 570,40 570,40 565,35 " description="&lt;b&gt;P773_RS0100650&lt;/b&gt;&lt;br&gt;thioredoxin family protein&lt;br&gt;Location: 116061 - 116616" id="dummy-1_q45_0_all" locus_tag="P773_RS0100650"  />
<polygon class="clusterblast-orf" style="stroke-width:1; stroke:black; fill:white; " points="570,40 570,40 575,35 570,30 570,30 570,40 " description="&lt;b&gt;P773_RS0100655&lt;/b&gt;&lt;br&gt;gamma carbonic anhydrase family protein&lt;br&gt;Location: 116636 - 117149" id="dummy-1_q46_0_all" locus_tag="P773_RS0100655"  />
<polygon class="clusterblast-orf" style="stroke-width:1; stroke:black; fill:white; " points="575,40 577,35 575,30 575,40 " description="&lt;b&gt;P773_RS0100660&lt;/b&gt;&lt;br&gt;DUF1330 domain-containing protein&lt;br&gt;Location: 117161 - 117452" id="dummy-1_q47_0_all" locus_tag="P773_RS0100660"  />
<polygon class="clusterblast-orf" style="stroke-width:1; stroke:black; fill:white; " points="577,35 582,30 582,30 582,40 582,40 577,35 " description="&lt;b&gt;P773_RS0100665&lt;/b&gt;&lt;br&gt;flavin-binding protein&lt;br&gt;Location: 117461 - 118061" id="dummy-1_q48_0_all" locus_tag="P773_RS0100665"  />
<polygon class="clusterblast-orf" style="stroke-width:1; stroke:black; fill:white; " points="582,35 587,30 590,30 590,40 587,40 582,35 " description="&lt;b&gt;P773_RS0100670&lt;/b&gt;&lt;br&gt;NAD(P)-dependent oxidoreductase&lt;br&gt;Location: 118067 - 118937" id="dummy-1_q49_0_all" locus_tag="P773_RS0100670"  />
<polygon class="clusterblast-orf" style="stroke-width:1; stroke:black; fill:white; " points="590,40 595,40 600,35 595,30 590,30 590,40 " description="&lt;b&gt;P773_RS0100675&lt;/b&gt;&lt;br&gt;MFS transporter&lt;br&gt;Location: 118951 - 120157" id="dummy-1_q50_0_all" locus_tag="P773_RS0100675"  />
<polygon class="clusterblast-orf" style="stroke-width:1; stroke:black; fill:white; " points="600,40 600,40 605,35 600,30 600,30 600,40 " description="&lt;b&gt;P773_RS0100680&lt;/b&gt;&lt;br&gt;DNA-directed RNA polymerase subunit omega&lt;br&gt;Location: 120200 - 120716" id="dummy-1_q51_0_all" locus_tag="P773_RS0100680"  />
<polygon class="clusterblast-orf" style="stroke-width:1; stroke:black; fill:white; " points="605,35 610,30 614,30 614,40 610,40 605,35 " description="&lt;b&gt;P773_RS0100685&lt;/b&gt;&lt;br&gt;hypothetical protein&lt;br&gt;Location: 120778 - 121792" id="dummy-1_q52_0_all" locus_tag="P773_RS0100685"  />
<polygon class="clusterblast-orf" style="stroke-width:1; stroke:black; fill:white; " points="615,35 620,30 625,30 625,40 620,40 615,35 " description="&lt;b&gt;P773_RS0100690&lt;/b&gt;&lt;br&gt;aminomethyltransferase&lt;br&gt;Location: 121945 - 123124" id="dummy-1_q53_0_all" locus_tag="P773_RS0100690"  />
<polygon class="clusterblast-orf" style="stroke-width:1; stroke:black; fill:white; " points="625,35 630,30 645,30 645,40 630,40 625,35 " description="&lt;b&gt;P773_RS0100695&lt;/b&gt;&lt;br&gt;biotin transporter BioY&lt;br&gt;Location: 123134 - 125465" id="dummy-1_q54_0_all" locus_tag="P773_RS0100695"  />
</g>
<g label="NZ_ARVZ01000001" class="clusterblast-cluster" description="NZ_ARVZ01000001_c11: Gordonia polyisoprenivorans HW436 A3OCDRAFT chromosome1.... (11% of genes show similarity), nrps"  >
<text class="clusterblast-acc" y="70" x="5"  >
<a xlink:href="https://antismash-db.secondarymetabolites.org/go/NZ_ARVZ01000001/11" target="_blank">NZ_ARVZ01000001_c11</a>: Gordonia polyisoprenivorans HW436 A3OCDRAFT chromosome1.... (11% of genes show similarity), nrps</text>
<line style="stroke-width:1; stroke:grey; " y1="85" x2="778.0" y2="85" x1="10"  />
</g>
<g id="a1_000"  >
<polygon class="clusterblast-orf" style="stroke-width:1; stroke:black; fill:white; " points="0,90 10,90 15,85 10,80 0,80 0,90 " description="&lt;b&gt;A3OC_RS0120495&lt;/b&gt;&lt;br&gt;HNH endonuclease&lt;br&gt;Location: 4489069 - 4487294" id="dummy-1_h1_4_0" locus_tag="A3OC_RS0120495"  />
</g>
<g id="a1_001"  >
<polygon class="clusterblast-orf" style="stroke-width:1; stroke:black; fill:white; " points="16,85 21,80 22,80 22,90 21,90 16,85 " description="&lt;b&gt;A3OC_RS0120490&lt;/b&gt;&lt;br&gt;TetR/AcrR family transcriptional regulator&lt;br&gt;Location: 4487153 - 4486443" id="dummy-1_h1_4_1" locus_tag="A3OC_RS0120490"  />
</g>
<g id="a1_002"  >
<polygon class="clusterblast-orf" style="stroke-width:1; stroke:black; fill:white; " points="24,85 29,80 30,80 30,90 29,90 24,85 " description="&lt;b&gt;A3OC_RS0120485&lt;/b&gt;&lt;br&gt;TetR/AcrR family transcriptional regulator&lt;br&gt;Location: 4486212 - 4485490" id="dummy-1_h1_4_2" locus_tag="A3OC_RS0120485"  />
</g>
<g id="a1_003"  >
<polygon class="clusterblast-orf" style="stroke-width:1; stroke:black; fill:white; " points="30,85 34,80 34,90 30,85 " description="&lt;b&gt;A3OC_RS0120480&lt;/b&gt;&lt;br&gt;DUF4916 domain-containing protein&lt;br&gt;Location: 4485477 - 4484995" id="dummy-1_h1_4_3" locus_tag="A3OC_RS0120480"  />
</g>
<g id="a1_004"  >
<polygon class="clusterblast-orf" style="stroke-width:1; stroke:black; fill:white; " points="37,90 40,90 45,85 40,80 37,80 37,90 " description="&lt;b&gt;A3OC_RS0120470&lt;/b&gt;&lt;br&gt;glucose-1-phosphate thymidylyltransferase&lt;br&gt;Location: 4484601 - 4483735" id="dummy-1_h1_4_4" locus_tag="A3OC_RS0120470"  />
</g>
<g id="a1_005"  >
<polygon class="clusterblast-orf" style="stroke-width:1; stroke:black; fill:#33d815; " points="50,90 58,90 63,85 58,80 50,80 50,90 " description="&lt;b&gt;A3OC_RS0120465&lt;/b&gt;&lt;br&gt;sugar transferase&lt;br&gt;Location: 4483140 - 4481638&lt;br&gt;&lt;br&gt;&lt;b&gt;BlastP hit with P773_RS07810&lt;/b&gt;&lt;br&gt;Percentage identity: 33&lt;br&gt;Percentage coverage: 33&lt;br&gt;BLAST bit score: 85&lt;br&gt;E-value: 2e-14" id="dummy-1_h1_4_5" locus_tag="A3OC_RS0120465"  />
</g>
<g id="a1_006"  >
<polygon class="clusterblast-orf" style="stroke-width:1; stroke:black; fill:white; " points="63,90 69,90 74,85 69,80 63,80 63,90 " description="&lt;b&gt;A3OC_RS0120460&lt;/b&gt;&lt;br&gt;UDP-glucose/GDP-mannose dehydrogenase family protein&lt;br&gt;Location: 4481638 - 4480337" id="dummy-1_h1_4_6" locus_tag="A3OC_RS0120460"  />
</g>
<g id="a1_007"  >
<polygon class="clusterblast-orf" style="stroke-width:1; stroke:black; fill:white; " points="91,90 95,85 91,80 91,90 " description="&lt;b&gt;A3OC_RS0120455&lt;/b&gt;&lt;br&gt;hypothetical protein&lt;br&gt;Location: 4478288 - 4477857" id="dummy-1_h1_4_7" locus_tag="A3OC_RS0120455"  />
</g>
<g id="a1_008"  >
<polygon class="clusterblast-orf" style="stroke-width:1; stroke:black; fill:white; " points="103,90 105,90 110,85 105,80 103,80 103,90 " description="&lt;b&gt;A3OC_RS30290&lt;/b&gt;&lt;br&gt;glycosyltransferase&lt;br&gt;Location: 4476860 - 4476069" id="dummy-1_h1_4_8" locus_tag="A3OC_RS30290"  />
</g>
<g id="a1_009"  >
<polygon class="clusterblast-orf" style="stroke-width:1; stroke:black; fill:#d815c9; " points="110,90 113,90 118,85 113,80 110,80 110,90 " description="&lt;b&gt;A3OC_RS29520&lt;/b&gt;&lt;br&gt;UDP-glucose epimerase&lt;br&gt;Location: 4476072 - 4475128&lt;br&gt;&lt;br&gt;&lt;b&gt;BlastP hit with P773_RS0100560&lt;/b&gt;&lt;br&gt;Percentage identity: 31&lt;br&gt;Percentage coverage: 99&lt;br&gt;BLAST bit score: 131&lt;br&gt;E-value: 1.4e-28" id="dummy-1_h1_4_9" locus_tag="A3OC_RS29520"  />
</g>
<g id="a1_0010"  >
<polygon class="clusterblast-orf" style="stroke-width:1; stroke:black; fill:white; " points="117,90 122,90 127,85 122,80 117,80 117,90 " description="&lt;b&gt;A3OC_RS30285&lt;/b&gt;&lt;br&gt;glycosyltransferase family 1 protein&lt;br&gt;Location: 4475203 - 4473986" id="dummy-1_h1_4_10" locus_tag="A3OC_RS30285"  />
</g>
<g id="a1_0011"  >
<polygon class="clusterblast-orf" style="stroke-width:1; stroke:black; fill:white; " points="127,90 132,90 137,85 132,80 127,80 127,90 " description="&lt;b&gt;A3OC_RS30280&lt;/b&gt;&lt;br&gt;hypothetical protein&lt;br&gt;Location: 4473993 - 4472890" id="dummy-1_h1_4_11" locus_tag="A3OC_RS30280"  />
</g>
<g id="a1_0012"  >
<polygon class="clusterblast-orf" style="stroke-width:1; stroke:black; fill:white; " points="148,90 155,90 160,85 155,80 148,80 148,90 " description="&lt;b&gt;A3OC_RS30275&lt;/b&gt;&lt;br&gt;hypothetical protein&lt;br&gt;Location: 4471511 - 4470114" id="dummy-1_h1_4_12" locus_tag="A3OC_RS30275"  />
</g>
<g id="a1_0013"  >
<polygon class="clusterblast-orf" style="stroke-width:1; stroke:black; fill:white; " points="161,90 304,90 309,85 304,80 161,80 161,90 " description="&lt;b&gt;A3OC_RS0120445&lt;/b&gt;&lt;br&gt;D-alanine--poly(phosphoribitol) ligase subunit DltA&lt;br&gt;Location: 4470087 - 4452604" id="dummy-1_h1_4_13" locus_tag="A3OC_RS0120445"  />
</g>
<g id="a1_0014"  >
<polygon class="clusterblast-orf" style="stroke-width:1; stroke:black; fill:white; " points="309,90 324,90 329,85 324,80 309,80 309,90 " description="&lt;b&gt;A3OC_RS0120440&lt;/b&gt;&lt;br&gt;DUF4012 domain-containing protein&lt;br&gt;Location: 4452607 - 4450175" id="dummy-1_h1_4_14" locus_tag="A3OC_RS0120440"  />
</g>
<g id="a1_0015"  >
<polygon class="clusterblast-orf" style="stroke-width:1; stroke:black; fill:#33d815; " points="339,90 347,90 352,85 347,80 339,80 339,90 " description="&lt;b&gt;A3OC_RS0120435&lt;/b&gt;&lt;br&gt;sugar transferase&lt;br&gt;Location: 4448995 - 4447475&lt;br&gt;&lt;br&gt;&lt;b&gt;BlastP hit with P773_RS07810&lt;/b&gt;&lt;br&gt;Percentage identity: 33&lt;br&gt;Percentage coverage: 43&lt;br&gt;BLAST bit score: 101&lt;br&gt;E-value: 3.6e-19" id="dummy-1_h1_4_15" locus_tag="A3OC_RS0120435"  />
</g>
<g id="a1_0016"  >
<polygon class="clusterblast-orf" style="stroke-width:1; stroke:black; fill:white; " points="354,90 358,90 363,85 358,80 354,80 354,90 " description="&lt;b&gt;A3OC_RS0120430&lt;/b&gt;&lt;br&gt;hypothetical protein&lt;br&gt;Location: 4447305 - 4446238" id="dummy-1_h1_4_16" locus_tag="A3OC_RS0120430"  />
</g>
<g id="a1_0017"  >
<polygon class="clusterblast-orf" style="stroke-width:1; stroke:black; fill:#d86f15; " points="363,90 367,90 372,85 367,80 363,80 363,90 " description="&lt;b&gt;A3OC_RS0120425&lt;/b&gt;&lt;br&gt;glycosyltransferase family 1 protein&lt;br&gt;Location: 4446235 - 4445144&lt;br&gt;&lt;br&gt;&lt;b&gt;BlastP hit with P773_RS0100505&lt;/b&gt;&lt;br&gt;Percentage identity: 45&lt;br&gt;Percentage coverage: 17&lt;br&gt;BLAST bit score: 56&lt;br&gt;E-value: 7.8e-06" id="dummy-1_h1_4_17" locus_tag="A3OC_RS0120425"  />
</g>
<g id="a1_0018"  >
<polygon class="clusterblast-orf" style="stroke-width:1; stroke:black; fill:white; " points="372,90 376,90 381,85 376,80 372,80 372,90 " description="&lt;b&gt;A3OC_RS0120420&lt;/b&gt;&lt;br&gt;hypothetical protein&lt;br&gt;Location: 4445147 - 4444038" id="dummy-1_h1_4_18" locus_tag="A3OC_RS0120420"  />
</g>
<g id="a1_0019"  >
<polygon class="clusterblast-orf" style="stroke-width:1; stroke:black; fill:white; " points="381,90 388,90 393,85 388,80 381,80 381,90 " description="&lt;b&gt;A3OC_RS0120415&lt;/b&gt;&lt;br&gt;hypothetical protein&lt;br&gt;Location: 4444041 - 4442638" id="dummy-1_h1_4_19" locus_tag="A3OC_RS0120415"  />
</g>
<g id="a1_0020"  >
<polygon class="clusterblast-orf" style="stroke-width:1; stroke:black; fill:white; " points="393,90 400,90 405,85 400,80 393,80 393,90 " description="&lt;b&gt;A3OC_RS0120410&lt;/b&gt;&lt;br&gt;hypothetical protein&lt;br&gt;Location: 4442651 - 4441218" id="dummy-1_h1_4_20" locus_tag="A3OC_RS0120410"  />
</g>
<g id="a1_0021"  >
<polygon class="clusterblast-orf" style="stroke-width:1; stroke:black; fill:white; " points="406,90 412,90 417,85 412,80 406,80 406,90 " description="&lt;b&gt;A3OC_RS0120405&lt;/b&gt;&lt;br&gt;hypothetical protein&lt;br&gt;Location: 4441198 - 4439792" id="dummy-1_h1_4_21" locus_tag="A3OC_RS0120405"  />
</g>
<g id="a1_0022"  >
<polygon class="clusterblast-orf" style="stroke-width:1; stroke:black; fill:white; " points="418,90 428,90 433,85 428,80 418,80 418,90 " description="&lt;b&gt;A3OC_RS0120400&lt;/b&gt;&lt;br&gt;DUF4012 domain-containing protein&lt;br&gt;Location: 4439790 - 4437970" id="dummy-1_h1_4_22" locus_tag="A3OC_RS0120400"  />
</g>
<g id="a1_0023"  >
<polygon class="clusterblast-orf" style="stroke-width:1; stroke:black; fill:white; " points="433,90 580,90 585,85 580,80 433,80 433,90 " description="&lt;b&gt;A3OC_RS0120395&lt;/b&gt;&lt;br&gt;D-alanine--poly(phosphoribitol) ligase subunit DltA&lt;br&gt;Location: 4437973 - 4420100" id="dummy-1_h1_4_23" locus_tag="A3OC_RS0120395"  />
</g>
<g id="a1_0024"  >
<polygon class="clusterblast-orf" style="stroke-width:1; stroke:black; fill:white; " points="586,90 593,90 598,85 593,80 586,80 586,90 " description="&lt;b&gt;A3OC_RS0120390&lt;/b&gt;&lt;br&gt;mycolyltransferase&lt;br&gt;Location: 4419934 - 4418507" id="dummy-1_h1_4_24" locus_tag="A3OC_RS0120390"  />
</g>
<g id="a1_0025"  >
<polygon class="clusterblast-orf" style="stroke-width:1; stroke:black; fill:white; " points="597,85 602,80 605,80 605,90 602,90 597,85 " description="&lt;b&gt;A3OC_RS29510&lt;/b&gt;&lt;br&gt;DUF559 domain-containing protein&lt;br&gt;Location: 4418597 - 4417659" id="dummy-1_h1_4_25" locus_tag="A3OC_RS29510"  />
</g>
<g id="a1_0026"  >
<polygon class="clusterblast-orf" style="stroke-width:1; stroke:black; fill:white; " points="606,85 611,80 616,80 616,90 611,90 606,85 " description="&lt;b&gt;A3OC_RS29505&lt;/b&gt;&lt;br&gt;hypothetical protein&lt;br&gt;Location: 4417582 - 4416443" id="dummy-1_h1_4_26" locus_tag="A3OC_RS29505"  />
</g>
<g id="a1_0027"  >
<polygon class="clusterblast-orf" style="stroke-width:1; stroke:black; fill:white; " points="616,85 621,80 621,80 621,90 621,90 616,85 " description="&lt;b&gt;A3OC_RS0120375&lt;/b&gt;&lt;br&gt;DUF3349 domain-containing protein&lt;br&gt;Location: 4416407 - 4415832" id="dummy-1_h1_4_27" locus_tag="A3OC_RS0120375"  />
</g>
<g id="a1_0028"  >
<polygon class="clusterblast-orf" style="stroke-width:1; stroke:black; fill:white; " points="622,85 625,80 625,90 622,85 " description="&lt;b&gt;A3OC_RS0120370&lt;/b&gt;&lt;br&gt;DUF3349 domain-containing protein&lt;br&gt;Location: 4415649 - 4415341" id="dummy-1_h1_4_28" locus_tag="A3OC_RS0120370"  />
</g>
<g id="a1_0029"  >
<polygon class="clusterblast-orf" style="stroke-width:1; stroke:black; fill:white; " points="625,85 628,80 628,90 625,85 " description="&lt;b&gt;A3OC_RS0120365&lt;/b&gt;&lt;br&gt;hypothetical protein&lt;br&gt;Location: 4415303 - 4415019" id="dummy-1_h1_4_29" locus_tag="A3OC_RS0120365"  />
</g>
<g id="a1_0030"  >
<polygon class="clusterblast-orf" style="stroke-width:1; stroke:black; fill:white; " points="628,85 633,80 638,80 638,90 633,90 628,85 " description="&lt;b&gt;A3OC_RS0120360&lt;/b&gt;&lt;br&gt;inorganic phosphate transporter&lt;br&gt;Location: 4414995 - 4413775" id="dummy-1_h1_4_30" locus_tag="A3OC_RS0120360"  />
</g>
<g id="a1_0031"  >
<polygon class="clusterblast-orf" style="stroke-width:1; stroke:black; fill:white; " points="640,90 644,90 649,85 644,80 640,80 640,90 " description="&lt;b&gt;A3OC_RS0120355&lt;/b&gt;&lt;br&gt;LLM class F420-dependent oxidoreductase&lt;br&gt;Location: 4413560 - 4412499" id="dummy-1_h1_4_31" locus_tag="A3OC_RS0120355"  />
</g>
<g id="a1_0032"  >
<polygon class="clusterblast-orf" style="stroke-width:1; stroke:black; fill:white; " points="649,85 654,80 658,80 658,90 654,90 649,85 " description="&lt;b&gt;A3OC_RS0120350&lt;/b&gt;&lt;br&gt;glycosyltransferase family 2 protein&lt;br&gt;Location: 4412471 - 4411443" id="dummy-1_h1_4_32" locus_tag="A3OC_RS0120350"  />
</g>
<g id="a1_0033"  >
<polygon class="clusterblast-orf" style="stroke-width:1; stroke:black; fill:white; " points="660,90 666,90 671,85 666,80 660,80 660,90 " description="&lt;b&gt;A3OC_RS0120345&lt;/b&gt;&lt;br&gt;O-antigen ligase family protein&lt;br&gt;Location: 4411193 - 4409943" id="dummy-1_h1_4_33" locus_tag="A3OC_RS0120345"  />
</g>
<g id="a1_0034"  >
<polygon class="clusterblast-orf" style="stroke-width:1; stroke:black; fill:white; " points="671,90 675,90 680,85 675,80 671,80 671,90 " description="&lt;b&gt;A3OC_RS0120340&lt;/b&gt;&lt;br&gt;glycosyl transferase&lt;br&gt;Location: 4409946 - 4408876" id="dummy-1_h1_4_34" locus_tag="A3OC_RS0120340"  />
</g>
<g id="a1_0035"  >
<polygon class="clusterblast-orf" style="stroke-width:1; stroke:black; fill:white; " points="680,90 682,90 687,85 682,80 680,80 680,90 " description="&lt;b&gt;A3OC_RS0120335&lt;/b&gt;&lt;br&gt;hypothetical protein&lt;br&gt;Location: 4408879 - 4407980" id="dummy-1_h1_4_35" locus_tag="A3OC_RS0120335"  />
</g>
<g id="a1_0036"  >
<polygon class="clusterblast-orf" style="stroke-width:1; stroke:black; fill:white; " points="687,90 695,90 700,85 695,80 687,80 687,90 " description="&lt;b&gt;A3OC_RS0120330&lt;/b&gt;&lt;br&gt;polysaccharide biosynthesis protein&lt;br&gt;Location: 4407983 - 4406487" id="dummy-1_h1_4_36" locus_tag="A3OC_RS0120330"  />
</g>
<g id="a1_0037"  >
<polygon class="clusterblast-orf" style="stroke-width:1; stroke:black; fill:white; " points="700,90 705,90 710,85 705,80 700,80 700,90 " description="&lt;b&gt;A3OC_RS0120325&lt;/b&gt;&lt;br&gt;glycosyltransferase family 1 protein&lt;br&gt;Location: 4406490 - 4405351" id="dummy-1_h1_4_37" locus_tag="A3OC_RS0120325"  />
</g>
<g id="a1_0038"  >
<polygon class="clusterblast-orf" style="stroke-width:1; stroke:black; fill:white; " points="710,90 715,90 720,85 715,80 710,80 710,90 " description="&lt;b&gt;A3OC_RS0120320&lt;/b&gt;&lt;br&gt;glycosyltransferase family 1 protein&lt;br&gt;Location: 4405307 - 4404183" id="dummy-1_h1_4_38" locus_tag="A3OC_RS0120320"  />
</g>
<g id="a1_0039"  >
<polygon class="clusterblast-orf" style="stroke-width:1; stroke:black; fill:white; " points="719,85 724,80 730,80 730,90 724,90 719,85 " description="&lt;b&gt;A3OC_RS0120315&lt;/b&gt;&lt;br&gt;hypothetical protein&lt;br&gt;Location: 4404228 - 4403002" id="dummy-1_h1_4_39" locus_tag="A3OC_RS0120315"  />
</g>
<g id="a1_0040"  >
<polygon class="clusterblast-orf" style="stroke-width:1; stroke:black; fill:white; " points="730,90 737,90 742,85 737,80 730,80 730,90 " description="&lt;b&gt;A3OC_RS0120310&lt;/b&gt;&lt;br&gt;polysaccharide pyruvyl transferase family protein&lt;br&gt;Location: 4402894 - 4401518" id="dummy-1_h1_4_40" locus_tag="A3OC_RS0120310"  />
</g>
<g id="a1_0041"  >
<polygon class="clusterblast-orf" style="stroke-width:1; stroke:black; fill:#33d815; " points="742,90 750,90 755,85 750,80 742,80 742,90 " description="&lt;b&gt;A3OC_RS0120305&lt;/b&gt;&lt;br&gt;glycosyl transferase&lt;br&gt;Location: 4401521 - 4400043&lt;br&gt;&lt;br&gt;&lt;b&gt;BlastP hit with P773_RS07810&lt;/b&gt;&lt;br&gt;Percentage identity: 39&lt;br&gt;Percentage coverage: 41&lt;br&gt;BLAST bit score: 119&lt;br&gt;E-value: 1.3e-24" id="dummy-1_h1_4_41" locus_tag="A3OC_RS0120305"  />
</g>
<g id="a1_0042"  >
<polygon class="clusterblast-orf" style="stroke-width:1; stroke:black; fill:white; " points="756,90 762,90 767,85 762,80 756,80 756,90 " description="&lt;b&gt;A3OC_RS0120300&lt;/b&gt;&lt;br&gt;class I SAM-dependent methyltransferase&lt;br&gt;Location: 4399838 - 4398582" id="dummy-1_h1_4_42" locus_tag="A3OC_RS0120300"  />
</g>
<g id="a1_0043"  >
<polygon class="clusterblast-orf" style="stroke-width:1; stroke:black; fill:white; " points="767,90 769,90 774,85 769,80 767,80 767,90 " description="&lt;b&gt;A3OC_RS0120295&lt;/b&gt;&lt;br&gt;glucose-1-phosphate cytidylyltransferase&lt;br&gt;Location: 4398585 - 4397767" id="dummy-1_h1_4_43" locus_tag="A3OC_RS0120295"  />
</g>
<g id="a1_0044"  >
<polygon class="clusterblast-orf" style="stroke-width:1; stroke:black; fill:white; " points="774,90 774,90 779,85 774,80 774,80 774,90 " description="&lt;b&gt;A3OC_RS0120290&lt;/b&gt;&lt;br&gt;GlcNAc-PI de-N-acetylase&lt;br&gt;Location: 4397770 - 4397114" id="dummy-1_h1_4_44" locus_tag="A3OC_RS0120290"  />
</g>
</svg>
