<svg version="1.1" preserveAspectRatio="none" width="800" y="0" xmlns:xlink="http://www.w3.org/1999/xlink" height="230" x="0" xmlns="http://www.w3.org/2000/svg" viewBox="0 0 800 230"  >
<g label="Query sequence" class="clusterblast-cluster"  >
<text class="clusterblast-acc" y="20" x="5"  >
Query sequence</text>
<line style="stroke-width:1; stroke:grey; " y1="35" x2="778.0" y2="35" x1="10"  />
<polygon class="clusterblast-orf" style="stroke-width:1; stroke:black; fill:white; " points="0,40 12,40 17,35 12,30 0,30 0,40 " description="&lt;b&gt;P773_RS0100420&lt;/b&gt;&lt;br&gt;aspartate aminotransferase family protein&lt;br&gt;Location: 65229 - 66576" id="dummy-1_q0_0_all" locus_tag="P773_RS0100420"  />
<polygon class="clusterblast-orf" style="stroke-width:1; stroke:black; fill:#d81515; " points="17,40 27,40 32,35 27,30 17,30 17,40 " description="&lt;b&gt;P773_RS0100425&lt;/b&gt;&lt;br&gt;alanine dehydrogenase&lt;br&gt;Location: 66608 - 67724" id="dummy-1_q1_0_all" locus_tag="P773_RS0100425"  />
<polygon class="clusterblast-orf" style="stroke-width:1; stroke:black; fill:white; " points="32,40 40,40 45,35 40,30 32,30 32,40 " description="&lt;b&gt;P773_RS0100430&lt;/b&gt;&lt;br&gt;NAD-dependent dehydratase&lt;br&gt;Location: 67758 - 68769" id="dummy-1_q2_0_all" locus_tag="P773_RS0100430"  />
<polygon class="clusterblast-orf" style="stroke-width:1; stroke:black; fill:white; " points="50,40 53,40 58,35 53,30 50,30 50,40 " description="&lt;b&gt;P773_RS0100435&lt;/b&gt;&lt;br&gt;methyltransferase domain-containing protein&lt;br&gt;Location: 69104 - 69731" id="dummy-1_q3_0_all" locus_tag="P773_RS0100435"  />
<polygon class="clusterblast-orf" style="stroke-width:1; stroke:black; fill:white; " points="58,35 63,30 64,30 64,40 63,40 58,35 " description="&lt;b&gt;P773_RS0100440&lt;/b&gt;&lt;br&gt;hypothetical protein&lt;br&gt;Location: 69733 - 70186" id="dummy-1_q4_0_all" locus_tag="P773_RS0100440"  />
<polygon class="clusterblast-orf" style="stroke-width:1; stroke:black; fill:white; " points="64,40 98,40 103,35 98,30 64,30 64,40 " description="&lt;b&gt;P773_RS0100445&lt;/b&gt;&lt;br&gt;hypothetical protein&lt;br&gt;Location: 70171 - 73210" id="dummy-1_q5_0_all" locus_tag="P773_RS0100445"  />
<polygon class="clusterblast-orf" style="stroke-width:1; stroke:black; fill:white; " points="103,40 115,40 120,35 115,30 103,30 103,40 " description="&lt;b&gt;P773_RS0100450&lt;/b&gt;&lt;br&gt;hypothetical protein&lt;br&gt;Location: 73212 - 74544" id="dummy-1_q6_0_all" locus_tag="P773_RS0100450"  />
<polygon class="clusterblast-orf" style="stroke-width:1; stroke:black; fill:white; " points="120,35 125,30 135,30 135,40 125,40 120,35 " description="&lt;b&gt;P773_RS0100455&lt;/b&gt;&lt;br&gt;hypothetical protein&lt;br&gt;Location: 74533 - 75652" id="dummy-1_q7_0_all" locus_tag="P773_RS0100455"  />
<polygon class="clusterblast-orf" style="stroke-width:1; stroke:black; fill:white; " points="137,40 160,40 165,35 160,30 137,30 137,40 " description="&lt;b&gt;P773_RS0100460&lt;/b&gt;&lt;br&gt;hypothetical protein&lt;br&gt;Location: 75861 - 78003" id="dummy-1_q8_0_all" locus_tag="P773_RS0100460"  />
<polygon class="clusterblast-orf" style="stroke-width:1; stroke:black; fill:#33d815; " points="165,40 178,40 183,35 178,30 165,30 165,40 " description="&lt;b&gt;P773_RS07810&lt;/b&gt;&lt;br&gt;hypothetical protein&lt;br&gt;Location: 78006 - 79419" id="dummy-1_q9_0_all" locus_tag="P773_RS07810"  />
<polygon class="clusterblast-orf" style="stroke-width:1; stroke:black; fill:white; " points="185,40 202,40 207,35 202,30 185,30 185,40 " description="&lt;b&gt;P773_RS0100470&lt;/b&gt;&lt;br&gt;hypothetical protein&lt;br&gt;Location: 79512 - 81273" id="dummy-1_q10_0_all" locus_tag="P773_RS0100470"  />
<polygon class="clusterblast-orf" style="stroke-width:1; stroke:black; fill:#15abd8; " points="208,40 215,40 220,35 215,30 208,30 208,40 " description="&lt;b&gt;P773_RS0100475&lt;/b&gt;&lt;br&gt;glycosyltransferase family 2 protein&lt;br&gt;Location: 81336 - 82230" id="dummy-1_q11_0_all" locus_tag="P773_RS0100475"  />
<polygon class="clusterblast-orf" style="stroke-width:1; stroke:black; fill:white; " points="220,35 225,30 243,30 243,40 225,40 220,35 " description="&lt;b&gt;P773_RS0100480&lt;/b&gt;&lt;br&gt;asparagine synthase (glutamine-hydrolyzing)&lt;br&gt;Location: 82231 - 84034" id="dummy-1_q12_0_all" locus_tag="P773_RS0100480"  />
<polygon class="clusterblast-orf" style="stroke-width:1; stroke:black; fill:#8d15d8; " points="243,35 248,30 258,30 258,40 248,40 243,35 " description="&lt;b&gt;P773_RS0100485&lt;/b&gt;&lt;br&gt;hypothetical protein&lt;br&gt;Location: 84021 - 85218" id="dummy-1_q13_0_all" locus_tag="P773_RS0100485"  />
<polygon class="clusterblast-orf" style="stroke-width:1; stroke:black; fill:white; " points="259,35 264,30 275,30 275,40 264,40 259,35 " description="&lt;b&gt;P773_RS0100490&lt;/b&gt;&lt;br&gt;hypothetical protein&lt;br&gt;Location: 85244 - 86516" id="dummy-1_q14_0_all" locus_tag="P773_RS0100490"  />
<polygon class="clusterblast-orf" style="stroke-width:1; stroke:black; fill:white; " points="275,35 280,30 290,30 290,40 280,40 275,35 " description="&lt;b&gt;P773_RS0100495&lt;/b&gt;&lt;br&gt;hypothetical protein&lt;br&gt;Location: 86505 - 87684" id="dummy-1_q15_0_all" locus_tag="P773_RS0100495"  />
<polygon class="clusterblast-orf" style="stroke-width:1; stroke:black; fill:white; " points="291,35 296,30 304,30 304,40 296,40 291,35 " description="&lt;b&gt;P773_RS0100500&lt;/b&gt;&lt;br&gt;hypothetical protein&lt;br&gt;Location: 87725 - 88754" id="dummy-1_q16_0_all" locus_tag="P773_RS0100500"  />
<polygon class="clusterblast-orf" style="stroke-width:1; stroke:black; fill:#d86f15; " points="304,35 309,30 318,30 318,40 309,40 304,35 " description="&lt;b&gt;P773_RS0100505&lt;/b&gt;&lt;br&gt;glycosyltransferase family 1 protein&lt;br&gt;Location: 88759 - 89845" id="dummy-1_q17_0_all" locus_tag="P773_RS0100505"  />
<polygon class="clusterblast-orf" style="stroke-width:1; stroke:black; fill:white; " points="318,35 323,30 338,30 338,40 323,40 318,35 " description="&lt;b&gt;P773_RS0100510&lt;/b&gt;&lt;br&gt;hypothetical protein&lt;br&gt;Location: 89834 - 91379" id="dummy-1_q18_0_all" locus_tag="P773_RS0100510"  />
<polygon class="clusterblast-orf" style="stroke-width:1; stroke:black; fill:white; " points="338,35 343,30 354,30 354,40 343,40 338,35 " description="&lt;b&gt;P773_RS0100515&lt;/b&gt;&lt;br&gt;hypothetical protein&lt;br&gt;Location: 91398 - 92574" id="dummy-1_q19_0_all" locus_tag="P773_RS0100515"  />
<polygon class="clusterblast-orf" style="stroke-width:1; stroke:black; fill:#15d851; " points="354,35 359,30 363,30 363,40 359,40 354,35 " description="&lt;b&gt;P773_RS0100520&lt;/b&gt;&lt;br&gt;FkbM family methyltransferase&lt;br&gt;Location: 92566 - 93286" id="dummy-1_q20_0_all" locus_tag="P773_RS0100520"  />
<polygon class="clusterblast-orf" style="stroke-width:1; stroke:black; fill:white; " points="364,35 369,30 374,30 374,40 369,40 364,35 " description="&lt;b&gt;P773_RS0100525&lt;/b&gt;&lt;br&gt;glycosyltransferase&lt;br&gt;Location: 93379 - 94117" id="dummy-1_q21_0_all" locus_tag="P773_RS0100525"  />
<polygon class="clusterblast-orf" style="stroke-width:1; stroke:black; fill:white; " points="374,35 379,30 384,30 384,40 379,40 374,35 " description="&lt;b&gt;P773_RS0100530&lt;/b&gt;&lt;br&gt;hypothetical protein&lt;br&gt;Location: 94123 - 94930" id="dummy-1_q22_0_all" locus_tag="P773_RS0100530"  />
<polygon class="clusterblast-orf" style="stroke-width:1; stroke:black; fill:white; " points="384,35 389,30 402,30 402,40 389,40 384,35 " description="&lt;b&gt;P773_RS0100535&lt;/b&gt;&lt;br&gt;hypothetical protein&lt;br&gt;Location: 94935 - 96273" id="dummy-1_q23_0_all" locus_tag="P773_RS0100535"  />
<polygon class="clusterblast-orf" style="stroke-width:1; stroke:black; fill:#1551d8; " points="403,35 408,30 411,30 411,40 408,40 403,35 " description="&lt;b&gt;P773_RS07710&lt;/b&gt;&lt;br&gt;SIS domain-containing protein&lt;br&gt;Location: 96376 - 97003" id="dummy-1_q24_0_all" locus_tag="P773_RS07710"  />
<polygon class="clusterblast-orf" style="stroke-width:1; stroke:black; fill:#d815c9; " points="412,40 420,40 425,35 420,30 412,30 412,40 " description="&lt;b&gt;P773_RS0100545&lt;/b&gt;&lt;br&gt;hypothetical protein&lt;br&gt;Location: 97112 - 98084" id="dummy-1_q25_0_all" locus_tag="P773_RS0100545"  />
<polygon class="clusterblast-orf" style="stroke-width:1; stroke:black; fill:#d8c915; " points="425,40 436,40 441,35 436,30 425,30 425,40 " description="&lt;b&gt;P773_RS0100550&lt;/b&gt;&lt;br&gt;hypothetical protein&lt;br&gt;Location: 98083 - 99334" id="dummy-1_q26_0_all" locus_tag="P773_RS0100550"  />
<polygon class="clusterblast-orf" style="stroke-width:1; stroke:black; fill:#15d8ab; " points="442,40 449,40 454,35 449,30 442,30 442,40 " description="&lt;b&gt;P773_RS0100555&lt;/b&gt;&lt;br&gt;hypothetical protein&lt;br&gt;Location: 99373 - 100339" id="dummy-1_q27_0_all" locus_tag="P773_RS0100555"  />
<polygon class="clusterblast-orf" style="stroke-width:1; stroke:black; fill:#d815c9; " points="456,35 461,30 469,30 469,40 461,40 456,35 " description="&lt;b&gt;P773_RS0100560&lt;/b&gt;&lt;br&gt;UDP-glucuronate 5-epimerase&lt;br&gt;Location: 100462 - 101473" id="dummy-1_q28_0_all" locus_tag="P773_RS0100560"  />
<polygon class="clusterblast-orf" style="stroke-width:1; stroke:black; fill:#3315d8; " points="473,40 477,40 482,35 477,30 473,30 473,40 " description="&lt;b&gt;P773_RS0100565&lt;/b&gt;&lt;br&gt;transaldolase&lt;br&gt;Location: 101792 - 102488" id="dummy-1_q29_0_all" locus_tag="P773_RS0100565"  />
<polygon class="clusterblast-orf" style="stroke-width:1; stroke:black; fill:white; " points="482,40 509,40 514,35 509,30 482,30 482,40 " description="&lt;b&gt;P773_RS0100570&lt;/b&gt;&lt;br&gt;sarcosine dehydrogenase&lt;br&gt;Location: 102517 - 104962" id="dummy-1_q30_0_all" locus_tag="P773_RS0100570"  />
<polygon class="clusterblast-orf" style="stroke-width:1; stroke:black; fill:white; " points="515,40 517,35 515,30 515,40 " description="&lt;b&gt;P773_RS0100575&lt;/b&gt;&lt;br&gt;hypothetical protein&lt;br&gt;Location: 105011 - 105221" id="dummy-1_q31_0_all" locus_tag="P773_RS0100575"  />
<polygon class="clusterblast-orf" style="stroke-width:1; stroke:black; fill:white; " points="520,35 525,30 526,30 526,40 525,40 520,35 " description="&lt;b&gt;P773_RS0100585&lt;/b&gt;&lt;br&gt;adenine phosphoribosyltransferase&lt;br&gt;Location: 105387 - 105915" id="dummy-1_q32_0_all" locus_tag="P773_RS0100585"  />
<polygon class="clusterblast-orf" style="stroke-width:1; stroke:black; fill:white; " points="527,40 533,40 538,35 533,30 527,30 527,40 " description="&lt;b&gt;P773_RS0100590&lt;/b&gt;&lt;br&gt;S-methyl-5'-thioadenosine phosphorylase&lt;br&gt;Location: 105956 - 106829" id="dummy-1_q33_0_all" locus_tag="P773_RS0100590"  />
<polygon class="clusterblast-orf" style="stroke-width:1; stroke:black; fill:white; " points="538,40 547,40 552,35 547,30 538,30 538,40 " description="&lt;b&gt;P773_RS0100595&lt;/b&gt;&lt;br&gt;S-methyl-5-thioribose-1-phosphate isomerase&lt;br&gt;Location: 106825 - 107896" id="dummy-1_q34_0_all" locus_tag="P773_RS0100595"  />
<polygon class="clusterblast-orf" style="stroke-width:1; stroke:black; fill:white; " points="552,40 555,40 560,35 555,30 552,30 552,40 " description="&lt;b&gt;P773_RS0100600&lt;/b&gt;&lt;br&gt;fuculose phosphate aldolase&lt;br&gt;Location: 107892 - 108525" id="dummy-1_q35_0_all" locus_tag="P773_RS0100600"  />
<polygon class="clusterblast-orf" style="stroke-width:1; stroke:black; fill:white; " points="560,40 569,40 574,35 569,30 560,30 560,40 " description="&lt;b&gt;P773_RS0100605&lt;/b&gt;&lt;br&gt;adenosylmethionine decarboxylase&lt;br&gt;Location: 108528 - 109569" id="dummy-1_q36_0_all" locus_tag="P773_RS0100605"  />
<polygon class="clusterblast-orf" style="stroke-width:1; stroke:black; fill:white; " points="575,40 581,40 586,35 581,30 575,30 575,40 " description="&lt;b&gt;P773_RS0100610&lt;/b&gt;&lt;br&gt;ABC transporter substrate-binding protein&lt;br&gt;Location: 109628 - 110480" id="dummy-1_q37_0_all" locus_tag="P773_RS0100610"  />
<polygon class="clusterblast-orf" style="stroke-width:1; stroke:black; fill:#d8156f; " points="586,40 590,40 595,35 590,30 586,30 586,40 " description="&lt;b&gt;P773_RS0100615&lt;/b&gt;&lt;br&gt;ABC transporter permease&lt;br&gt;Location: 110524 - 111217" id="dummy-1_q38_0_all" locus_tag="P773_RS0100615"  />
<polygon class="clusterblast-orf" style="stroke-width:1; stroke:black; fill:#8dd815; " points="595,40 599,40 604,35 599,30 595,30 595,40 " description="&lt;b&gt;P773_RS0100620&lt;/b&gt;&lt;br&gt;ABC transporter permease&lt;br&gt;Location: 111216 - 111894" id="dummy-1_q39_0_all" locus_tag="P773_RS0100620"  />
<polygon class="clusterblast-orf" style="stroke-width:1; stroke:black; fill:white; " points="604,40 609,40 614,35 609,30 604,30 604,40 " description="&lt;b&gt;P773_RS0100625&lt;/b&gt;&lt;br&gt;phytanoyl-CoA dioxygenase&lt;br&gt;Location: 111896 - 112685" id="dummy-1_q40_0_all" locus_tag="P773_RS0100625"  />
<polygon class="clusterblast-orf" style="stroke-width:1; stroke:black; fill:white; " points="614,35 619,30 619,30 619,40 619,40 614,35 " description="&lt;b&gt;P773_RS0100630&lt;/b&gt;&lt;br&gt;hypothetical protein&lt;br&gt;Location: 112674 - 113064" id="dummy-1_q41_0_all" locus_tag="P773_RS0100630"  />
<polygon class="clusterblast-orf" style="stroke-width:1; stroke:black; fill:white; " points="619,40 627,40 632,35 627,30 619,30 619,40 " description="&lt;b&gt;P773_RS0100635&lt;/b&gt;&lt;br&gt;glycosyl transferase family 1&lt;br&gt;Location: 113096 - 114038" id="dummy-1_q42_0_all" locus_tag="P773_RS0100635"  />
<polygon class="clusterblast-orf" style="stroke-width:1; stroke:black; fill:white; " points="632,35 637,30 643,30 643,40 637,40 632,35 " description="&lt;b&gt;P773_RS0100640&lt;/b&gt;&lt;br&gt;EamA/RhaT family transporter&lt;br&gt;Location: 114052 - 114940" id="dummy-1_q43_0_all" locus_tag="P773_RS0100640"  />
<polygon class="clusterblast-orf" style="stroke-width:1; stroke:black; fill:white; " points="644,35 649,30 658,30 658,40 649,40 644,35 " description="&lt;b&gt;P773_RS0100645&lt;/b&gt;&lt;br&gt;glycosyl transferase&lt;br&gt;Location: 114979 - 116062" id="dummy-1_q44_0_all" locus_tag="P773_RS0100645"  />
<polygon class="clusterblast-orf" style="stroke-width:1; stroke:black; fill:white; " points="658,35 663,30 665,30 665,40 663,40 658,35 " description="&lt;b&gt;P773_RS0100650&lt;/b&gt;&lt;br&gt;thioredoxin family protein&lt;br&gt;Location: 116061 - 116616" id="dummy-1_q45_0_all" locus_tag="P773_RS0100650"  />
<polygon class="clusterblast-orf" style="stroke-width:1; stroke:black; fill:white; " points="665,40 667,40 672,35 667,30 665,30 665,40 " description="&lt;b&gt;P773_RS0100655&lt;/b&gt;&lt;br&gt;gamma carbonic anhydrase family protein&lt;br&gt;Location: 116636 - 117149" id="dummy-1_q46_0_all" locus_tag="P773_RS0100655"  />
<polygon class="clusterblast-orf" style="stroke-width:1; stroke:black; fill:white; " points="672,40 676,35 672,30 672,40 " description="&lt;b&gt;P773_RS0100660&lt;/b&gt;&lt;br&gt;DUF1330 domain-containing protein&lt;br&gt;Location: 117161 - 117452" id="dummy-1_q47_0_all" locus_tag="P773_RS0100660"  />
<polygon class="clusterblast-orf" style="stroke-width:1; stroke:black; fill:white; " points="676,35 681,30 684,30 684,40 681,40 676,35 " description="&lt;b&gt;P773_RS0100665&lt;/b&gt;&lt;br&gt;flavin-binding protein&lt;br&gt;Location: 117461 - 118061" id="dummy-1_q48_0_all" locus_tag="P773_RS0100665"  />
<polygon class="clusterblast-orf" style="stroke-width:1; stroke:black; fill:white; " points="684,35 689,30 695,30 695,40 689,40 684,35 " description="&lt;b&gt;P773_RS0100670&lt;/b&gt;&lt;br&gt;NAD(P)-dependent oxidoreductase&lt;br&gt;Location: 118067 - 118937" id="dummy-1_q49_0_all" locus_tag="P773_RS0100670"  />
<polygon class="clusterblast-orf" style="stroke-width:1; stroke:black; fill:white; " points="695,40 706,40 711,35 706,30 695,30 695,40 " description="&lt;b&gt;P773_RS0100675&lt;/b&gt;&lt;br&gt;MFS transporter&lt;br&gt;Location: 118951 - 120157" id="dummy-1_q50_0_all" locus_tag="P773_RS0100675"  />
<polygon class="clusterblast-orf" style="stroke-width:1; stroke:black; fill:white; " points="711,40 713,40 718,35 713,30 711,30 711,40 " description="&lt;b&gt;P773_RS0100680&lt;/b&gt;&lt;br&gt;DNA-directed RNA polymerase subunit omega&lt;br&gt;Location: 120200 - 120716" id="dummy-1_q51_0_all" locus_tag="P773_RS0100680"  />
<polygon class="clusterblast-orf" style="stroke-width:1; stroke:black; fill:white; " points="719,35 724,30 732,30 732,40 724,40 719,35 " description="&lt;b&gt;P773_RS0100685&lt;/b&gt;&lt;br&gt;hypothetical protein&lt;br&gt;Location: 120778 - 121792" id="dummy-1_q52_0_all" locus_tag="P773_RS0100685"  />
<polygon class="clusterblast-orf" style="stroke-width:1; stroke:black; fill:white; " points="734,35 739,30 749,30 749,40 739,40 734,35 " description="&lt;b&gt;P773_RS0100690&lt;/b&gt;&lt;br&gt;aminomethyltransferase&lt;br&gt;Location: 121945 - 123124" id="dummy-1_q53_0_all" locus_tag="P773_RS0100690"  />
<polygon class="clusterblast-orf" style="stroke-width:1; stroke:black; fill:white; " points="749,35 754,30 780,30 780,40 754,40 749,35 " description="&lt;b&gt;P773_RS0100695&lt;/b&gt;&lt;br&gt;biotin transporter BioY&lt;br&gt;Location: 123134 - 125465" id="dummy-1_q54_0_all" locus_tag="P773_RS0100695"  />
</g>
<g label="NZ_CP019240" class="clusterblast-cluster" description="NZ_CP019240_c1: Rhodoferax antarcticus strain DSM 24876, complete genome (6% of genes show similarity), acyl_amino_acids"  >
<text class="clusterblast-acc" y="70" x="5"  >
<a xlink:href="https://antismash-db.secondarymetabolites.org/go/NZ_CP019240/1" target="_blank">NZ_CP019240_c1</a>: Rhodoferax antarcticus strain DSM 24876, complete genome (6% of genes show similarity), acyl_amino_acids</text>
<line style="stroke-width:1; stroke:grey; " y1="85" x2="778.0" y2="85" x1="10"  />
</g>
<g id="a1_000"  >
<polygon class="clusterblast-orf" style="stroke-width:1; stroke:black; fill:white; " points="2,85 7,80 16,80 16,90 7,90 2,85 " description="&lt;b&gt;RA876_RS00385&lt;/b&gt;&lt;br&gt;hypothetical protein&lt;br&gt;Location: 77387 - 78436" id="dummy-1_h1_6_0" locus_tag="RA876_RS00385"  />
</g>
<g id="a1_001"  >
<polygon class="clusterblast-orf" style="stroke-width:1; stroke:black; fill:white; " points="16,85 21,80 35,80 35,90 21,90 16,85 " description="&lt;b&gt;RA876_RS00390&lt;/b&gt;&lt;br&gt;MBOAT family protein&lt;br&gt;Location: 78438 - 79931" id="dummy-1_h1_6_1" locus_tag="RA876_RS00390"  />
</g>
<g id="a1_002"  >
<polygon class="clusterblast-orf" style="stroke-width:1; stroke:black; fill:white; " points="35,85 40,80 61,80 61,90 40,90 35,85 " description="&lt;b&gt;RA876_RS00395&lt;/b&gt;&lt;br&gt;acyltransferase&lt;br&gt;Location: 79935 - 81914" id="dummy-1_h1_6_2" locus_tag="RA876_RS00395"  />
</g>
<g id="a1_003"  >
<polygon class="clusterblast-orf" style="stroke-width:1; stroke:black; fill:white; " points="64,90 73,90 78,85 73,80 64,80 64,90 " description="&lt;b&gt;RA876_RS00400&lt;/b&gt;&lt;br&gt;acyltransferase&lt;br&gt;Location: 82161 - 83252" id="dummy-1_h1_6_3" locus_tag="RA876_RS00400"  />
</g>
<g id="a1_004"  >
<polygon class="clusterblast-orf" style="stroke-width:1; stroke:black; fill:white; " points="79,90 90,90 95,85 90,80 79,80 79,90 " description="&lt;b&gt;RA876_RS00405&lt;/b&gt;&lt;br&gt;glycosyltransferase family 4 protein&lt;br&gt;Location: 83337 - 84536" id="dummy-1_h1_6_4" locus_tag="RA876_RS00405"  />
</g>
<g id="a1_005"  >
<polygon class="clusterblast-orf" style="stroke-width:1; stroke:black; fill:white; " points="96,90 108,90 113,85 108,80 96,80 96,90 " description="&lt;b&gt;RA876_RS00410&lt;/b&gt;&lt;br&gt;putative O-glycosylation ligase, exosortase A system-associated&lt;br&gt;Location: 84660 - 85958" id="dummy-1_h1_6_5" locus_tag="RA876_RS00410"  />
</g>
<g id="a1_006"  >
<polygon class="clusterblast-orf" style="stroke-width:1; stroke:black; fill:white; " points="113,85 118,80 119,80 119,90 118,90 113,85 " description="&lt;b&gt;RA876_RS00415&lt;/b&gt;&lt;br&gt;hypothetical protein&lt;br&gt;Location: 85939 - 86388" id="dummy-1_h1_6_6" locus_tag="RA876_RS00415"  />
</g>
<g id="a1_007"  >
<polygon class="clusterblast-orf" style="stroke-width:1; stroke:black; fill:white; " points="120,90 137,90 142,85 137,80 120,80 120,90 " description="&lt;b&gt;RA876_RS00420&lt;/b&gt;&lt;br&gt;hypothetical protein&lt;br&gt;Location: 86489 - 88204" id="dummy-1_h1_6_7" locus_tag="RA876_RS00420"  />
</g>
<g id="a1_008"  >
<polygon class="clusterblast-orf" style="stroke-width:1; stroke:black; fill:white; " points="143,85 148,80 150,80 150,90 148,90 143,85 " description="&lt;b&gt;RA876_RS00425&lt;/b&gt;&lt;br&gt;hypothetical protein&lt;br&gt;Location: 88239 - 88850" id="dummy-1_h1_6_8" locus_tag="RA876_RS00425"  />
</g>
<g id="a1_009"  >
<polygon class="clusterblast-orf" style="stroke-width:1; stroke:black; fill:white; " points="151,85 156,80 173,80 173,90 156,90 151,85 " description="&lt;b&gt;RA876_RS00430&lt;/b&gt;&lt;br&gt;hypothetical protein&lt;br&gt;Location: 88898 - 90601" id="dummy-1_h1_6_9" locus_tag="RA876_RS00430"  />
</g>
<g id="a1_0010"  >
<polygon class="clusterblast-orf" style="stroke-width:1; stroke:black; fill:white; " points="173,85 178,80 186,80 186,90 178,90 173,85 " description="&lt;b&gt;RA876_RS00435&lt;/b&gt;&lt;br&gt;glycosyltransferase family 2 protein&lt;br&gt;Location: 90622 - 91602" id="dummy-1_h1_6_10" locus_tag="RA876_RS00435"  />
</g>
<g id="a1_0011"  >
<polygon class="clusterblast-orf" style="stroke-width:1; stroke:black; fill:white; " points="186,85 191,80 199,80 199,90 191,90 186,85 " description="&lt;b&gt;RA876_RS00440&lt;/b&gt;&lt;br&gt;glycosyltransferase family 2 protein&lt;br&gt;Location: 91607 - 92581" id="dummy-1_h1_6_11" locus_tag="RA876_RS00440"  />
</g>
<g id="a1_0012"  >
<polygon class="clusterblast-orf" style="stroke-width:1; stroke:black; fill:white; " points="199,85 204,80 211,80 211,90 204,90 199,85 " description="&lt;b&gt;RA876_RS00445&lt;/b&gt;&lt;br&gt;glycosyltransferase family 2 protein&lt;br&gt;Location: 92578 - 93534" id="dummy-1_h1_6_12" locus_tag="RA876_RS00445"  />
</g>
<g id="a1_0013"  >
<polygon class="clusterblast-orf" style="stroke-width:1; stroke:black; fill:white; " points="211,85 216,80 222,80 222,90 216,90 211,85 " description="&lt;b&gt;RA876_RS00450&lt;/b&gt;&lt;br&gt;hypothetical protein&lt;br&gt;Location: 93528 - 94403" id="dummy-1_h1_6_13" locus_tag="RA876_RS00450"  />
</g>
<g id="a1_0014"  >
<polygon class="clusterblast-orf" style="stroke-width:1; stroke:black; fill:white; " points="223,85 228,80 239,80 239,90 228,90 223,85 " description="&lt;b&gt;RA876_RS00455&lt;/b&gt;&lt;br&gt;hypothetical protein&lt;br&gt;Location: 94474 - 95676" id="dummy-1_h1_6_14" locus_tag="RA876_RS00455"  />
</g>
<g id="a1_0015"  >
<polygon class="clusterblast-orf" style="stroke-width:1; stroke:black; fill:white; " points="239,85 242,80 242,90 239,85 " description="&lt;b&gt;RA876_RS00460&lt;/b&gt;&lt;br&gt;hypothetical protein&lt;br&gt;Location: 95722 - 95952" id="dummy-1_h1_6_15" locus_tag="RA876_RS00460"  />
</g>
<g id="a1_0016"  >
<polygon class="clusterblast-orf" style="stroke-width:1; stroke:black; fill:white; " points="243,85 248,80 256,80 256,90 248,90 243,85 " description="&lt;b&gt;RA876_RS00465&lt;/b&gt;&lt;br&gt;glycosyltransferase family 2 protein&lt;br&gt;Location: 96013 - 96966" id="dummy-1_h1_6_16" locus_tag="RA876_RS00465"  />
</g>
<g id="a1_0017"  >
<polygon class="clusterblast-orf" style="stroke-width:1; stroke:black; fill:white; " points="256,85 261,80 273,80 273,90 261,90 256,85 " description="&lt;b&gt;RA876_RS00470&lt;/b&gt;&lt;br&gt;phenylacetate--CoA ligase family protein&lt;br&gt;Location: 96980 - 98323" id="dummy-1_h1_6_17" locus_tag="RA876_RS00470"  />
</g>
<g id="a1_0018"  >
<polygon class="clusterblast-orf" style="stroke-width:1; stroke:black; fill:white; " points="274,85 279,80 302,80 302,90 279,90 274,85 " description="&lt;b&gt;RA876_RS00475&lt;/b&gt;&lt;br&gt;VanZ family protein&lt;br&gt;Location: 98389 - 100545" id="dummy-1_h1_6_18" locus_tag="RA876_RS00475"  />
</g>
<g id="a1_0019"  >
<polygon class="clusterblast-orf" style="stroke-width:1; stroke:black; fill:white; " points="307,90 314,90 319,85 314,80 307,80 307,90 " description="&lt;b&gt;RA876_RS00480&lt;/b&gt;&lt;br&gt;hypothetical protein&lt;br&gt;Location: 100947 - 101861" id="dummy-1_h1_6_19" locus_tag="RA876_RS00480"  />
</g>
<g id="a1_0020"  >
<polygon class="clusterblast-orf" style="stroke-width:1; stroke:black; fill:white; " points="321,90 324,85 321,80 321,90 " description="&lt;b&gt;RA876_RS00485&lt;/b&gt;&lt;br&gt;hypothetical protein&lt;br&gt;Location: 102011 - 102253" id="dummy-1_h1_6_20" locus_tag="RA876_RS00485"  />
</g>
<g id="a1_0021"  >
<polygon class="clusterblast-orf" style="stroke-width:1; stroke:black; fill:white; " points="329,90 329,90 334,85 329,80 329,80 329,90 " description="&lt;b&gt;RA876_RS00490&lt;/b&gt;&lt;br&gt;XRE family transcriptional regulator&lt;br&gt;Location: 102645 - 103040" id="dummy-1_h1_6_21" locus_tag="RA876_RS00490"  />
</g>
<g id="a1_0022"  >
<polygon class="clusterblast-orf" style="stroke-width:1; stroke:black; fill:white; " points="334,90 346,90 351,85 346,80 334,80 334,90 " description="&lt;b&gt;RA876_RS00495&lt;/b&gt;&lt;br&gt;type II toxin-antitoxin system HipA family toxin&lt;br&gt;Location: 103037 - 104329" id="dummy-1_h1_6_22" locus_tag="RA876_RS00495"  />
</g>
<g id="a1_0023"  >
<polygon class="clusterblast-orf" style="stroke-width:1; stroke:black; fill:white; " points="352,90 353,90 358,85 353,80 352,80 352,90 " description="&lt;b&gt;RA876_RS00500&lt;/b&gt;&lt;br&gt;hypothetical protein&lt;br&gt;Location: 104428 - 104844" id="dummy-1_h1_6_23" locus_tag="RA876_RS00500"  />
</g>
<g id="a1_0024"  >
<polygon class="clusterblast-orf" style="stroke-width:1; stroke:black; fill:#d81515; " points="358,90 368,90 373,85 368,80 358,80 358,90 " description="&lt;b&gt;RA876_RS00505&lt;/b&gt;&lt;br&gt;alanine dehydrogenase&lt;br&gt;Location: 104910 - 106025&lt;br&gt;&lt;br&gt;&lt;b&gt;BlastP hit with P773_RS0100425&lt;/b&gt;&lt;br&gt;Percentage identity: 56&lt;br&gt;Percentage coverage: 100&lt;br&gt;BLAST bit score: 388&lt;br&gt;E-value: 6.8e-106" id="dummy-1_h1_6_24" locus_tag="RA876_RS00505"  />
</g>
<g id="a1_0025"  >
<polygon class="clusterblast-orf" style="stroke-width:1; stroke:black; fill:white; " points="374,90 380,90 385,85 380,80 374,80 374,90 " description="&lt;b&gt;RA876_RS00510&lt;/b&gt;&lt;br&gt;serine protease&lt;br&gt;Location: 106139 - 106930" id="dummy-1_h1_6_25" locus_tag="RA876_RS00510"  />
</g>
<g id="a1_0026"  >
<polygon class="clusterblast-orf" style="stroke-width:1; stroke:black; fill:white; " points="385,85 390,80 401,80 401,90 390,90 385,85 " description="&lt;b&gt;RA876_RS00515&lt;/b&gt;&lt;br&gt;GNAT family N-acetyltransferase&lt;br&gt;Location: 106927 - 108225" id="dummy-1_h1_6_26" locus_tag="RA876_RS00515"  />
</g>
<g id="a1_0027"  >
<polygon class="clusterblast-orf" style="stroke-width:1; stroke:black; fill:white; " points="405,90 409,85 405,80 405,90 " description="&lt;b&gt;RA876_RS00520&lt;/b&gt;&lt;br&gt;PilZ domain-containing protein&lt;br&gt;Location: 108531 - 108806" id="dummy-1_h1_6_27" locus_tag="RA876_RS00520"  />
</g>
<g id="a1_0028"  >
<polygon class="clusterblast-orf" style="stroke-width:1; stroke:black; fill:#d815c9; " points="409,90 417,90 422,85 417,80 409,80 409,90 " description="&lt;b&gt;RA876_RS00525&lt;/b&gt;&lt;br&gt;NAD-dependent epimerase&lt;br&gt;Location: 108816 - 109796&lt;br&gt;&lt;br&gt;&lt;b&gt;BlastP hit with P773_RS0100560&lt;/b&gt;&lt;br&gt;Percentage identity: 45&lt;br&gt;Percentage coverage: 99&lt;br&gt;BLAST bit score: 300&lt;br&gt;E-value: 1.7e-79" id="dummy-1_h1_6_28" locus_tag="RA876_RS00525"  />
</g>
<g id="a1_0029"  >
<polygon class="clusterblast-orf" style="stroke-width:1; stroke:black; fill:white; " points="422,85 427,80 428,80 428,90 427,90 422,85 " description="&lt;b&gt;RA876_RS00530&lt;/b&gt;&lt;br&gt;low molecular weight phosphotyrosine protein phosphatase&lt;br&gt;Location: 109793 - 110251" id="dummy-1_h1_6_29" locus_tag="RA876_RS00530"  />
</g>
<g id="a1_0030"  >
<polygon class="clusterblast-orf" style="stroke-width:1; stroke:black; fill:white; " points="428,85 433,80 440,80 440,90 433,90 428,85 " description="&lt;b&gt;RA876_RS00535&lt;/b&gt;&lt;br&gt;lytic transglycosylase&lt;br&gt;Location: 110292 - 111176" id="dummy-1_h1_6_30" locus_tag="RA876_RS00535"  />
</g>
<g id="a1_0031"  >
<polygon class="clusterblast-orf" style="stroke-width:1; stroke:black; fill:white; " points="440,85 445,80 453,80 453,90 445,90 440,85 " description="&lt;b&gt;RA876_RS00540&lt;/b&gt;&lt;br&gt;GNAT family N-acetyltransferase&lt;br&gt;Location: 111173 - 112231" id="dummy-1_h1_6_31" locus_tag="RA876_RS00540"  />
</g>
<g id="a1_0032"  >
<polygon class="clusterblast-orf" style="stroke-width:1; stroke:black; fill:white; " points="455,90 459,85 455,80 455,90 " description="&lt;b&gt;RA876_RS00545&lt;/b&gt;&lt;br&gt;acyl carrier protein&lt;br&gt;Location: 112404 - 112655" id="dummy-1_h1_6_32" locus_tag="RA876_RS00545"  />
</g>
<g id="a1_0033"  >
<polygon class="clusterblast-orf" style="stroke-width:1; stroke:black; fill:white; " points="459,90 465,90 470,85 465,80 459,80 459,90 " description="&lt;b&gt;RA876_RS00550&lt;/b&gt;&lt;br&gt;hydrolase 2, exosortase A system-associated&lt;br&gt;Location: 112669 - 113520" id="dummy-1_h1_6_33" locus_tag="RA876_RS00550"  />
</g>
<g id="a1_0034"  >
<polygon class="clusterblast-orf" style="stroke-width:1; stroke:black; fill:white; " points="470,90 476,90 481,85 476,80 470,80 470,90 " description="&lt;b&gt;RA876_RS00555&lt;/b&gt;&lt;br&gt;hydrolase 1, exosortase A system-associated&lt;br&gt;Location: 113544 - 114374" id="dummy-1_h1_6_34" locus_tag="RA876_RS00555"  />
</g>
<g id="a1_0035"  >
<polygon class="clusterblast-orf" style="stroke-width:1; stroke:black; fill:white; " points="482,90 498,90 503,85 498,80 482,80 482,90 " description="&lt;b&gt;RA876_RS00560&lt;/b&gt;&lt;br&gt;acyl-CoA ligase (AMP-forming), exosortase A system-associated&lt;br&gt;Location: 114430 - 116049" id="dummy-1_h1_6_35" locus_tag="RA876_RS00560"  />
</g>
<g id="a1_0036"  >
<polygon class="clusterblast-orf" style="stroke-width:1; stroke:black; fill:white; " points="503,90 514,90 519,85 514,80 503,80 503,90 " description="&lt;b&gt;RA876_RS00565&lt;/b&gt;&lt;br&gt;pyridoxal-dependent decarboxylase, exosortase A system-associated&lt;br&gt;Location: 116100 - 117305" id="dummy-1_h1_6_36" locus_tag="RA876_RS00565"  />
</g>
<g id="a1_0037"  >
<polygon class="clusterblast-orf" style="stroke-width:1; stroke:black; fill:white; " points="519,90 540,90 545,85 540,80 519,80 519,90 " description="&lt;b&gt;RA876_RS00570&lt;/b&gt;&lt;br&gt;hypothetical protein&lt;br&gt;Location: 117315 - 119297" id="dummy-1_h1_6_37" locus_tag="RA876_RS00570"  />
</g>
<g id="a1_0038"  >
<polygon class="clusterblast-orf" style="stroke-width:1; stroke:black; fill:white; " points="545,90 557,90 562,85 557,80 545,80 545,90 " description="&lt;b&gt;RA876_RS00575&lt;/b&gt;&lt;br&gt;UDP-glucose/GDP-mannose dehydrogenase family protein&lt;br&gt;Location: 119332 - 120654" id="dummy-1_h1_6_38" locus_tag="RA876_RS00575"  />
</g>
<g id="a1_0039"  >
<polygon class="clusterblast-orf" style="stroke-width:1; stroke:black; fill:#33d815; " points="563,90 575,90 580,85 575,80 563,80 563,90 " description="&lt;b&gt;RA876_RS00580&lt;/b&gt;&lt;br&gt;exopolysaccharide biosynthesis polyprenyl glycosylphosphotransferase&lt;br&gt;Location: 120684 - 122054&lt;br&gt;&lt;br&gt;&lt;b&gt;BlastP hit with P773_RS07810&lt;/b&gt;&lt;br&gt;Percentage identity: 37&lt;br&gt;Percentage coverage: 40&lt;br&gt;BLAST bit score: 132&lt;br&gt;E-value: 1.1e-28" id="dummy-1_h1_6_39" locus_tag="RA876_RS00580"  />
</g>
<g id="a1_0040"  >
<polygon class="clusterblast-orf" style="stroke-width:1; stroke:black; fill:white; " points="581,90 603,90 608,85 603,80 581,80 581,90 " description="&lt;b&gt;RA876_RS00585&lt;/b&gt;&lt;br&gt;PEP-CTERM system histidine kinase PrsK&lt;br&gt;Location: 122068 - 124179" id="dummy-1_h1_6_40" locus_tag="RA876_RS00585"  />
</g>
<g id="a1_0041"  >
<polygon class="clusterblast-orf" style="stroke-width:1; stroke:black; fill:white; " points="608,90 620,90 625,85 620,80 608,80 608,90 " description="&lt;b&gt;RA876_RS00590&lt;/b&gt;&lt;br&gt;PEP-CTERM-box response regulator transcription factor&lt;br&gt;Location: 124176 - 125534" id="dummy-1_h1_6_41" locus_tag="RA876_RS00590"  />
</g>
<g id="a1_0042"  >
<polygon class="clusterblast-orf" style="stroke-width:1; stroke:black; fill:white; " points="626,90 657,90 662,85 657,80 626,80 626,90 " description="&lt;b&gt;RA876_RS00595&lt;/b&gt;&lt;br&gt;PEP-CTERM system TPR-repeat protein PrsT&lt;br&gt;Location: 125584 - 128358" id="dummy-1_h1_6_42" locus_tag="RA876_RS00595"  />
</g>
<g id="a1_0043"  >
<polygon class="clusterblast-orf" style="stroke-width:1; stroke:black; fill:white; " points="663,90 684,90 689,85 684,80 663,80 663,90 " description="&lt;b&gt;RA876_RS00600&lt;/b&gt;&lt;br&gt;ABC transporter ATP-binding protein&lt;br&gt;Location: 128454 - 130430" id="dummy-1_h1_6_43" locus_tag="RA876_RS00600"  />
</g>
<g id="a1_0044"  >
<polygon class="clusterblast-orf" style="stroke-width:1; stroke:black; fill:white; " points="690,85 695,80 696,80 696,90 695,90 690,85 " description="&lt;b&gt;RA876_RS00605&lt;/b&gt;&lt;br&gt;MarR family transcriptional regulator&lt;br&gt;Location: 130485 - 131006" id="dummy-1_h1_6_44" locus_tag="RA876_RS00605"  />
</g>
<g id="a1_0045"  >
<polygon class="clusterblast-orf" style="stroke-width:1; stroke:black; fill:white; " points="696,85 701,80 706,80 706,90 701,90 696,85 " description="&lt;b&gt;RA876_RS00610&lt;/b&gt;&lt;br&gt;dihydrodipicolinate reductase&lt;br&gt;Location: 131003 - 131779" id="dummy-1_h1_6_45" locus_tag="RA876_RS00610"  />
</g>
<g id="a1_0046"  >
<polygon class="clusterblast-orf" style="stroke-width:1; stroke:black; fill:white; " points="708,90 721,90 726,85 721,80 708,80 708,90 " description="&lt;b&gt;RA876_RS00615&lt;/b&gt;&lt;br&gt;chloride channel protein&lt;br&gt;Location: 131936 - 133267" id="dummy-1_h1_6_46" locus_tag="RA876_RS00615"  />
</g>
<g id="a1_0047"  >
<polygon class="clusterblast-orf" style="stroke-width:1; stroke:black; fill:white; " points="731,90 732,90 737,85 732,80 731,80 731,90 " description="&lt;b&gt;RA876_RS00620&lt;/b&gt;&lt;br&gt;flavin reductase&lt;br&gt;Location: 133666 - 134184" id="dummy-1_h1_6_47" locus_tag="RA876_RS00620"  />
</g>
<g id="a1_0048"  >
<polygon class="clusterblast-orf" style="stroke-width:1; stroke:black; fill:white; " points="742,90 764,90 769,85 764,80 742,80 742,90 " description="&lt;b&gt;RA876_RS00625&lt;/b&gt;&lt;br&gt;elongation factor G&lt;br&gt;Location: 134555 - 136609" id="dummy-1_h1_6_48" locus_tag="RA876_RS00625"  />
</g>
<g id="a1_0049"  >
<polygon class="clusterblast-orf" style="stroke-width:1; stroke:black; fill:white; " points="770,90 772,90 777,85 772,80 770,80 770,90 " description="&lt;b&gt;RA876_RS00630&lt;/b&gt;&lt;br&gt;menaquinone-dependent protoporphyrinogen IX dehydrogenase&lt;br&gt;Location: 136681 - 137235" id="dummy-1_h1_6_49" locus_tag="RA876_RS00630"  />
</g>
</svg>
