<svg version="1.1" preserveAspectRatio="none" width="800" y="0" xmlns:xlink="http://www.w3.org/1999/xlink" height="230" x="0" xmlns="http://www.w3.org/2000/svg" viewBox="0 0 800 230"  >
<g label="Query sequence" class="clusterblast-cluster"  >
<text class="clusterblast-acc" y="20" x="5"  >
Query sequence</text>
<line style="stroke-width:1; stroke:grey; " y1="35" x2="778.0" y2="35" x1="10"  />
<polygon class="clusterblast-orf" style="stroke-width:1; stroke:black; fill:#d81515; " points="0,40 4,40 9,35 4,30 0,30 0,40 " description="&lt;b&gt;P773_RS0104210&lt;/b&gt;&lt;br&gt;type I glyceraldehyde-3-phosphate dehydrogenase&lt;br&gt;Location: 770293 - 771301" id="dummy-4_q0_0_all" locus_tag="P773_RS0104210"  />
<polygon class="clusterblast-orf" style="stroke-width:1; stroke:black; fill:#33d815; " points="9,40 16,40 21,35 16,30 9,30 9,40 " description="&lt;b&gt;P773_RS0104215&lt;/b&gt;&lt;br&gt;phosphoglycerate kinase&lt;br&gt;Location: 771300 - 772479" id="dummy-4_q1_0_all" locus_tag="P773_RS0104215"  />
<polygon class="clusterblast-orf" style="stroke-width:1; stroke:black; fill:white; " points="21,40 25,40 30,35 25,30 21,30 21,40 " description="&lt;b&gt;P773_RS0104220&lt;/b&gt;&lt;br&gt;fructose-bisphosphate aldolase class I&lt;br&gt;Location: 772480 - 773491" id="dummy-4_q2_0_all" locus_tag="P773_RS0104220"  />
<polygon class="clusterblast-orf" style="stroke-width:1; stroke:black; fill:white; " points="30,40 31,40 36,35 31,30 30,30 30,40 " description="&lt;b&gt;P773_RS0104225&lt;/b&gt;&lt;br&gt;thiamine phosphate synthase&lt;br&gt;Location: 773477 - 774092" id="dummy-4_q3_0_all" locus_tag="P773_RS0104225"  />
<polygon class="clusterblast-orf" style="stroke-width:1; stroke:black; fill:white; " points="36,40 36,40 41,35 36,30 36,30 36,40 " description="&lt;b&gt;P773_RS0104230&lt;/b&gt;&lt;br&gt;elongation factor P&lt;br&gt;Location: 774088 - 774649" id="dummy-4_q4_0_all" locus_tag="P773_RS0104230"  />
<polygon class="clusterblast-orf" style="stroke-width:1; stroke:black; fill:white; " points="42,40 44,40 49,35 44,30 42,30 42,40 " description="&lt;b&gt;P773_RS0104235&lt;/b&gt;&lt;br&gt;inositol monophosphatase&lt;br&gt;Location: 774653 - 775394" id="dummy-4_q5_0_all" locus_tag="P773_RS0104235"  />
<polygon class="clusterblast-orf" style="stroke-width:1; stroke:black; fill:white; " points="49,40 51,35 49,30 49,40 " description="&lt;b&gt;P773_RS0104240&lt;/b&gt;&lt;br&gt;50S ribosomal protein L31&lt;br&gt;Location: 775429 - 775660" id="dummy-4_q6_0_all" locus_tag="P773_RS0104240"  />
<polygon class="clusterblast-orf" style="stroke-width:1; stroke:black; fill:white; " points="51,40 52,40 57,35 52,30 51,30 51,40 " description="&lt;b&gt;P773_RS0104245&lt;/b&gt;&lt;br&gt;DUF1013 domain-containing protein&lt;br&gt;Location: 775660 - 776248" id="dummy-4_q7_0_all" locus_tag="P773_RS0104245"  />
<polygon class="clusterblast-orf" style="stroke-width:1; stroke:black; fill:white; " points="57,40 59,35 57,30 57,40 " description="&lt;b&gt;P773_RS0104250&lt;/b&gt;&lt;br&gt;30S ribosomal protein S21&lt;br&gt;Location: 776301 - 776496" id="dummy-4_q8_0_all" locus_tag="P773_RS0104250"  />
<polygon class="clusterblast-orf" style="stroke-width:1; stroke:black; fill:#15abd8; " points="61,35 66,30 74,30 74,40 66,40 61,35 " description="&lt;b&gt;P773_RS0104260&lt;/b&gt;&lt;br&gt;NAD synthetase&lt;br&gt;Location: 776664 - 778062" id="dummy-4_q9_0_all" locus_tag="P773_RS0104260"  />
<polygon class="clusterblast-orf" style="stroke-width:1; stroke:black; fill:#8d15d8; " points="74,35 77,30 77,40 74,35 " description="&lt;b&gt;P773_RS0104265&lt;/b&gt;&lt;br&gt;NAD(P) transhydrogenase subunit alpha&lt;br&gt;Location: 778061 - 778370" id="dummy-4_q10_0_all" locus_tag="P773_RS0104265"  />
<polygon class="clusterblast-orf" style="stroke-width:1; stroke:black; fill:#8d15d8; " points="77,35 82,30 88,30 88,40 82,40 77,35 " description="&lt;b&gt;P773_RS0104270&lt;/b&gt;&lt;br&gt;NAD(P) transhydrogenase subunit alpha&lt;br&gt;Location: 778374 - 779463" id="dummy-4_q11_0_all" locus_tag="P773_RS0104270"  />
<polygon class="clusterblast-orf" style="stroke-width:1; stroke:black; fill:white; " points="88,35 89,30 89,40 88,35 " description="&lt;b&gt;P773_RS07910&lt;/b&gt;&lt;br&gt;aa3-type cytochrome c oxidase subunit IV&lt;br&gt;Location: 779472 - 779583" id="dummy-4_q12_0_all" locus_tag="P773_RS07910"  />
<polygon class="clusterblast-orf" style="stroke-width:1; stroke:black; fill:white; " points="89,35 90,30 90,40 89,35 " description="&lt;b&gt;P773_RS0104275&lt;/b&gt;&lt;br&gt;50S ribosomal protein L36&lt;br&gt;Location: 779588 - 779714" id="dummy-4_q13_0_all" locus_tag="P773_RS0104275"  />
<polygon class="clusterblast-orf" style="stroke-width:1; stroke:black; fill:white; " points="92,35 97,30 100,30 100,40 97,40 92,35 " description="&lt;b&gt;P773_RS0104285&lt;/b&gt;&lt;br&gt;ADP-glyceromanno-heptose 6-epimerase&lt;br&gt;Location: 779884 - 780781" id="dummy-4_q14_0_all" locus_tag="P773_RS0104285"  />
<polygon class="clusterblast-orf" style="stroke-width:1; stroke:black; fill:white; " points="105,35 110,30 121,30 121,40 110,40 105,35 " description="&lt;b&gt;P773_RS0104295&lt;/b&gt;&lt;br&gt;hypothetical protein&lt;br&gt;Location: 781271 - 782957" id="dummy-4_q15_0_all" locus_tag="P773_RS0104295"  />
<polygon class="clusterblast-orf" style="stroke-width:1; stroke:black; fill:white; " points="122,40 124,40 129,35 124,30 122,30 122,40 " description="&lt;b&gt;P773_RS0104300&lt;/b&gt;&lt;br&gt;hypothetical protein&lt;br&gt;Location: 783055 - 783766" id="dummy-4_q16_0_all" locus_tag="P773_RS0104300"  />
<polygon class="clusterblast-orf" style="stroke-width:1; stroke:black; fill:white; " points="129,35 134,30 141,30 141,40 134,40 129,35 " description="&lt;b&gt;P773_RS0104305&lt;/b&gt;&lt;br&gt;O-antigen ligase domain-containing protein&lt;br&gt;Location: 783737 - 785006" id="dummy-4_q17_0_all" locus_tag="P773_RS0104305"  />
<polygon class="clusterblast-orf" style="stroke-width:1; stroke:black; fill:white; " points="141,35 146,30 151,30 151,40 146,40 141,35 " description="&lt;b&gt;P773_RS0104310&lt;/b&gt;&lt;br&gt;hypothetical protein&lt;br&gt;Location: 785023 - 785998" id="dummy-4_q18_0_all" locus_tag="P773_RS0104310"  />
<polygon class="clusterblast-orf" style="stroke-width:1; stroke:black; fill:white; " points="151,35 156,30 161,30 161,40 156,40 151,35 " description="&lt;b&gt;P773_RS0104315&lt;/b&gt;&lt;br&gt;polysaccharide pyruvyl transferase family protein&lt;br&gt;Location: 786070 - 787045" id="dummy-4_q19_0_all" locus_tag="P773_RS0104315"  />
<polygon class="clusterblast-orf" style="stroke-width:1; stroke:black; fill:white; " points="161,35 166,30 170,30 170,40 166,40 161,35 " description="&lt;b&gt;P773_RS0104320&lt;/b&gt;&lt;br&gt;hypothetical protein&lt;br&gt;Location: 787069 - 787960" id="dummy-4_q20_0_all" locus_tag="P773_RS0104320"  />
<polygon class="clusterblast-orf" style="stroke-width:1; stroke:black; fill:white; " points="170,35 175,30 182,30 182,40 175,40 170,35 " description="&lt;b&gt;P773_RS0104325&lt;/b&gt;&lt;br&gt;hypothetical protein&lt;br&gt;Location: 787963 - 789304" id="dummy-4_q21_0_all" locus_tag="P773_RS0104325"  />
<polygon class="clusterblast-orf" style="stroke-width:1; stroke:black; fill:white; " points="182,35 187,30 189,30 189,40 187,40 182,35 " description="&lt;b&gt;P773_RS0104330&lt;/b&gt;&lt;br&gt;hypothetical protein&lt;br&gt;Location: 789303 - 789951" id="dummy-4_q22_0_all" locus_tag="P773_RS0104330"  />
<polygon class="clusterblast-orf" style="stroke-width:1; stroke:black; fill:white; " points="189,40 192,40 197,35 192,30 189,30 189,40 " description="&lt;b&gt;P773_RS07855&lt;/b&gt;&lt;br&gt;hypothetical protein&lt;br&gt;Location: 789997 - 790831" id="dummy-4_q23_0_all" locus_tag="P773_RS07855"  />
<polygon class="clusterblast-orf" style="stroke-width:1; stroke:black; fill:white; " points="197,40 205,40 210,35 205,30 197,30 197,40 " description="&lt;b&gt;P773_RS0104340&lt;/b&gt;&lt;br&gt;hypothetical protein&lt;br&gt;Location: 790845 - 792162" id="dummy-4_q24_0_all" locus_tag="P773_RS0104340"  />
<polygon class="clusterblast-orf" style="stroke-width:1; stroke:black; fill:white; " points="210,40 212,40 217,35 212,30 210,30 210,40 " description="&lt;b&gt;P773_RS0104345&lt;/b&gt;&lt;br&gt;hypothetical protein&lt;br&gt;Location: 792161 - 792848" id="dummy-4_q25_0_all" locus_tag="P773_RS0104345"  />
<polygon class="clusterblast-orf" style="stroke-width:1; stroke:black; fill:#d86f15; " points="216,35 221,30 237,30 237,40 221,40 216,35 " description="&lt;b&gt;P773_RS07860&lt;/b&gt;&lt;br&gt;hypothetical protein&lt;br&gt;Location: 792844 - 794932" id="dummy-4_q26_0_all" locus_tag="P773_RS07860"  />
<polygon class="clusterblast-orf" style="stroke-width:1; stroke:black; fill:#15d851; " points="237,35 242,30 246,30 246,40 242,40 237,35 " description="&lt;b&gt;P773_RS0104355&lt;/b&gt;&lt;br&gt;hypothetical protein&lt;br&gt;Location: 794928 - 795915" id="dummy-4_q27_0_all" locus_tag="P773_RS0104355"  />
<polygon class="clusterblast-orf" style="stroke-width:1; stroke:black; fill:white; " points="246,35 251,30 259,30 259,40 251,40 246,35 " description="&lt;b&gt;P773_RS0104360&lt;/b&gt;&lt;br&gt;GNAT family N-acetyltransferase&lt;br&gt;Location: 795918 - 797226" id="dummy-4_q28_0_all" locus_tag="P773_RS0104360"  />
<polygon class="clusterblast-orf" style="stroke-width:1; stroke:black; fill:white; " points="259,35 264,30 274,30 274,40 264,40 259,35 " description="&lt;b&gt;P773_RS0104365&lt;/b&gt;&lt;br&gt;polysaccharide biosynthesis PFTS motif protein&lt;br&gt;Location: 797222 - 798827" id="dummy-4_q29_0_all" locus_tag="P773_RS0104365"  />
<polygon class="clusterblast-orf" style="stroke-width:1; stroke:black; fill:white; " points="274,35 279,30 288,30 288,40 279,40 274,35 " description="&lt;b&gt;P773_RS0104370&lt;/b&gt;&lt;br&gt;hypothetical protein&lt;br&gt;Location: 798823 - 800263" id="dummy-4_q30_0_all" locus_tag="P773_RS0104370"  />
<polygon class="clusterblast-orf" style="stroke-width:1; stroke:black; fill:white; " points="288,40 294,40 299,35 294,30 288,30 288,40 " description="&lt;b&gt;P773_RS0104375&lt;/b&gt;&lt;br&gt;radical SAM protein&lt;br&gt;Location: 800323 - 801376" id="dummy-4_q31_0_all" locus_tag="P773_RS0104375"  />
<polygon class="clusterblast-orf" style="stroke-width:1; stroke:black; fill:#1551d8; " points="299,35 304,30 308,30 308,40 304,40 299,35 " description="&lt;b&gt;P773_RS0104380&lt;/b&gt;&lt;br&gt;pseudaminic acid synthase&lt;br&gt;Location: 801380 - 802400" id="dummy-4_q32_0_all" locus_tag="P773_RS0104380"  />
<polygon class="clusterblast-orf" style="stroke-width:1; stroke:black; fill:white; " points="309,40 310,40 315,35 310,30 309,30 309,40 " description="&lt;b&gt;P773_RS07865&lt;/b&gt;&lt;br&gt;N-acetyltransferase&lt;br&gt;Location: 802457 - 803084" id="dummy-4_q33_0_all" locus_tag="P773_RS07865"  />
<polygon class="clusterblast-orf" style="stroke-width:1; stroke:black; fill:white; " points="315,35 320,30 321,30 321,40 320,40 315,35 " description="&lt;b&gt;P773_RS0104390&lt;/b&gt;&lt;br&gt;hypothetical protein&lt;br&gt;Location: 803072 - 803735" id="dummy-4_q34_0_all" locus_tag="P773_RS0104390"  />
<polygon class="clusterblast-orf" style="stroke-width:1; stroke:black; fill:white; " points="321,35 326,30 328,30 328,40 326,40 321,35 " description="&lt;b&gt;P773_RS0104395&lt;/b&gt;&lt;br&gt;PIG-L family deacetylase&lt;br&gt;Location: 803734 - 804421" id="dummy-4_q35_0_all" locus_tag="P773_RS0104395"  />
<polygon class="clusterblast-orf" style="stroke-width:1; stroke:black; fill:white; " points="330,40 345,40 350,35 345,30 330,30 330,40 " description="&lt;b&gt;P773_RS0104405&lt;/b&gt;&lt;br&gt;hypothetical protein&lt;br&gt;Location: 804623 - 806732" id="dummy-4_q36_0_all" locus_tag="P773_RS0104405"  />
<polygon class="clusterblast-orf" style="stroke-width:1; stroke:black; fill:white; " points="350,35 352,30 352,40 350,35 " description="&lt;b&gt;P773_RS0104410&lt;/b&gt;&lt;br&gt;hypothetical protein&lt;br&gt;Location: 806743 - 806929" id="dummy-4_q37_0_all" locus_tag="P773_RS0104410"  />
<polygon class="clusterblast-orf" style="stroke-width:1; stroke:black; fill:#d86f15; " points="352,40 359,40 364,35 359,30 352,30 352,40 " description="&lt;b&gt;P773_RS0104415&lt;/b&gt;&lt;br&gt;NarL family transcriptional regulator&lt;br&gt;Location: 806927 - 808142" id="dummy-4_q38_0_all" locus_tag="P773_RS0104415"  />
<polygon class="clusterblast-orf" style="stroke-width:1; stroke:black; fill:#d815c9; " points="364,40 368,40 373,35 368,30 364,30 364,40 " description="&lt;b&gt;P773_RS0104420&lt;/b&gt;&lt;br&gt;UDP-glucose 4-epimerase GalE&lt;br&gt;Location: 808168 - 809158" id="dummy-4_q39_0_all" locus_tag="P773_RS0104420"  />
<polygon class="clusterblast-orf" style="stroke-width:1; stroke:black; fill:white; " points="373,40 380,40 385,35 380,30 373,30 373,40 " description="&lt;b&gt;P773_RS0104425&lt;/b&gt;&lt;br&gt;hypothetical protein&lt;br&gt;Location: 809154 - 810399" id="dummy-4_q40_0_all" locus_tag="P773_RS0104425"  />
<polygon class="clusterblast-orf" style="stroke-width:1; stroke:black; fill:white; " points="386,40 390,35 386,30 386,40 " description="&lt;b&gt;P773_RS0104430&lt;/b&gt;&lt;br&gt;hypothetical protein&lt;br&gt;Location: 810419 - 810905" id="dummy-4_q41_0_all" locus_tag="P773_RS0104430"  />
<polygon class="clusterblast-orf" style="stroke-width:1; stroke:black; fill:white; " points="390,40 392,40 397,35 392,30 390,30 390,40 " description="&lt;b&gt;P773_RS0104435&lt;/b&gt;&lt;br&gt;hypothetical protein&lt;br&gt;Location: 810883 - 811603" id="dummy-4_q42_0_all" locus_tag="P773_RS0104435"  />
<polygon class="clusterblast-orf" style="stroke-width:1; stroke:black; fill:white; " points="397,40 403,40 408,35 403,30 397,30 397,40 " description="&lt;b&gt;P773_RS0104440&lt;/b&gt;&lt;br&gt;class I SAM-dependent methyltransferase&lt;br&gt;Location: 811599 - 812781" id="dummy-4_q43_0_all" locus_tag="P773_RS0104440"  />
<polygon class="clusterblast-orf" style="stroke-width:1; stroke:black; fill:white; " points="408,40 410,40 415,35 410,30 408,30 408,40 " description="&lt;b&gt;P773_RS0104445&lt;/b&gt;&lt;br&gt;hypothetical protein&lt;br&gt;Location: 812780 - 813443" id="dummy-4_q44_0_all" locus_tag="P773_RS0104445"  />
<polygon class="clusterblast-orf" style="stroke-width:1; stroke:black; fill:white; " points="415,40 424,40 429,35 424,30 415,30 415,40 " description="&lt;b&gt;P773_RS0104450&lt;/b&gt;&lt;br&gt;radical SAM protein&lt;br&gt;Location: 813442 - 814963" id="dummy-4_q45_0_all" locus_tag="P773_RS0104450"  />
<polygon class="clusterblast-orf" style="stroke-width:1; stroke:black; fill:#d8c915; " points="429,40 433,40 438,35 433,30 429,30 429,40 " description="&lt;b&gt;P773_RS0104455&lt;/b&gt;&lt;br&gt;glycosyltransferase&lt;br&gt;Location: 814971 - 815886" id="dummy-4_q46_0_all" locus_tag="P773_RS0104455"  />
<polygon class="clusterblast-orf" style="stroke-width:1; stroke:black; fill:#15d8ab; " points="438,35 443,30 447,30 447,40 443,40 438,35 " description="&lt;b&gt;P773_RS0104460&lt;/b&gt;&lt;br&gt;glucose-1-phosphate thymidylyltransferase&lt;br&gt;Location: 815895 - 816759" id="dummy-4_q47_0_all" locus_tag="P773_RS0104460"  />
<polygon class="clusterblast-orf" style="stroke-width:1; stroke:black; fill:#3315d8; " points="446,35 451,30 456,30 456,40 451,40 446,35 " description="&lt;b&gt;P773_RS0104465&lt;/b&gt;&lt;br&gt;dTDP-glucose 4,6-dehydratase&lt;br&gt;Location: 816755 - 817754" id="dummy-4_q48_0_all" locus_tag="P773_RS0104465"  />
<polygon class="clusterblast-orf" style="stroke-width:1; stroke:black; fill:white; " points="456,35 461,30 466,30 466,40 461,40 456,35 " description="&lt;b&gt;P773_RS0104470&lt;/b&gt;&lt;br&gt;glycosyltransferase family 2 protein&lt;br&gt;Location: 817755 - 818757" id="dummy-4_q49_0_all" locus_tag="P773_RS0104470"  />
<polygon class="clusterblast-orf" style="stroke-width:1; stroke:black; fill:white; " points="466,35 471,30 476,30 476,40 471,40 466,35 " description="&lt;b&gt;P773_RS0104475&lt;/b&gt;&lt;br&gt;glycosyltransferase family 1 protein&lt;br&gt;Location: 818760 - 819819" id="dummy-4_q50_0_all" locus_tag="P773_RS0104475"  />
<polygon class="clusterblast-orf" style="stroke-width:1; stroke:black; fill:white; " points="476,35 481,30 491,30 491,40 481,40 476,35 " description="&lt;b&gt;P773_RS0104480&lt;/b&gt;&lt;br&gt;DUF2079 domain-containing protein&lt;br&gt;Location: 819790 - 821332" id="dummy-4_q51_0_all" locus_tag="P773_RS0104480"  />
<polygon class="clusterblast-orf" style="stroke-width:1; stroke:black; fill:white; " points="490,35 495,30 501,30 501,40 495,40 490,35 " description="&lt;b&gt;P773_RS0104485&lt;/b&gt;&lt;br&gt;hypothetical protein&lt;br&gt;Location: 821324 - 822467" id="dummy-4_q52_0_all" locus_tag="P773_RS0104485"  />
<polygon class="clusterblast-orf" style="stroke-width:1; stroke:black; fill:white; " points="501,35 506,30 522,30 522,40 506,40 501,35 " description="&lt;b&gt;P773_RS0104490&lt;/b&gt;&lt;br&gt;hypothetical protein&lt;br&gt;Location: 822468 - 824655" id="dummy-4_q53_0_all" locus_tag="P773_RS0104490"  />
<polygon class="clusterblast-orf" style="stroke-width:1; stroke:black; fill:white; " points="522,35 527,30 540,30 540,40 527,40 522,35 " description="&lt;b&gt;P773_RS0104495&lt;/b&gt;&lt;br&gt;hypothetical protein&lt;br&gt;Location: 824638 - 826480" id="dummy-4_q54_0_all" locus_tag="P773_RS0104495"  />
<polygon class="clusterblast-orf" style="stroke-width:1; stroke:black; fill:white; " points="540,35 545,30 561,30 561,40 545,40 540,35 " description="&lt;b&gt;P773_RS0104500&lt;/b&gt;&lt;br&gt;hypothetical protein&lt;br&gt;Location: 826472 - 828674" id="dummy-4_q55_0_all" locus_tag="P773_RS0104500"  />
<polygon class="clusterblast-orf" style="stroke-width:1; stroke:black; fill:white; " points="561,35 566,30 574,30 574,40 566,40 561,35 " description="&lt;b&gt;P773_RS0104505&lt;/b&gt;&lt;br&gt;hypothetical protein&lt;br&gt;Location: 828707 - 829976" id="dummy-4_q56_0_all" locus_tag="P773_RS0104505"  />
<polygon class="clusterblast-orf" style="stroke-width:1; stroke:black; fill:#d8156f; " points="574,35 579,30 579,30 579,40 579,40 574,35 " description="&lt;b&gt;P773_RS0104510&lt;/b&gt;&lt;br&gt;dTDP-4-keto-6-deoxy-D-glucose epimerase&lt;br&gt;Location: 829982 - 830486" id="dummy-4_q57_0_all" locus_tag="P773_RS0104510"  />
<polygon class="clusterblast-orf" style="stroke-width:1; stroke:black; fill:white; " points="578,35 583,30 589,30 589,40 583,40 578,35 " description="&lt;b&gt;P773_RS0104515&lt;/b&gt;&lt;br&gt;CDP-glucose 4,6-dehydratase&lt;br&gt;Location: 830472 - 831537" id="dummy-4_q58_0_all" locus_tag="P773_RS0104515"  />
<polygon class="clusterblast-orf" style="stroke-width:1; stroke:black; fill:#d86f15; " points="589,35 594,30 599,30 599,40 594,40 589,35 " description="&lt;b&gt;P773_RS0104520&lt;/b&gt;&lt;br&gt;DegT/DnrJ/EryC1/StrS family aminotransferase&lt;br&gt;Location: 831533 - 832655" id="dummy-4_q59_0_all" locus_tag="P773_RS0104520"  />
<polygon class="clusterblast-orf" style="stroke-width:1; stroke:black; fill:#8dd815; " points="599,35 604,30 607,30 607,40 604,40 599,35 " description="&lt;b&gt;P773_RS0104525&lt;/b&gt;&lt;br&gt;glucose-1-phosphate cytidylyltransferase&lt;br&gt;Location: 832648 - 833443" id="dummy-4_q60_0_all" locus_tag="P773_RS0104525"  />
<polygon class="clusterblast-orf" style="stroke-width:1; stroke:black; fill:white; " points="607,35 612,30 619,30 619,40 612,40 607,35 " description="&lt;b&gt;P773_RS0104530&lt;/b&gt;&lt;br&gt;hypothetical protein&lt;br&gt;Location: 833448 - 834681" id="dummy-4_q61_0_all" locus_tag="P773_RS0104530"  />
<polygon class="clusterblast-orf" style="stroke-width:1; stroke:black; fill:white; " points="619,35 624,30 627,30 627,40 624,40 619,35 " description="&lt;b&gt;P773_RS0104535&lt;/b&gt;&lt;br&gt;glycosyltransferase family 2 protein&lt;br&gt;Location: 834646 - 835483" id="dummy-4_q62_0_all" locus_tag="P773_RS0104535"  />
<polygon class="clusterblast-orf" style="stroke-width:1; stroke:black; fill:white; " points="627,35 632,30 636,30 636,40 632,40 627,35 " description="&lt;b&gt;P773_RS07780&lt;/b&gt;&lt;br&gt;hypothetical protein&lt;br&gt;Location: 835487 - 836474" id="dummy-4_q63_0_all" locus_tag="P773_RS07780"  />
<polygon class="clusterblast-orf" style="stroke-width:1; stroke:black; fill:white; " points="636,35 641,30 645,30 645,40 641,40 636,35 " description="&lt;b&gt;P773_RS0104545&lt;/b&gt;&lt;br&gt;glycosyltransferase family 2 protein&lt;br&gt;Location: 836482 - 837442" id="dummy-4_q64_0_all" locus_tag="P773_RS0104545"  />
<polygon class="clusterblast-orf" style="stroke-width:1; stroke:black; fill:white; " points="645,35 650,30 653,30 653,40 650,40 645,35 " description="&lt;b&gt;P773_RS0104550&lt;/b&gt;&lt;br&gt;CDP-alcohol phosphatidyltransferase family protein&lt;br&gt;Location: 837438 - 838212" id="dummy-4_q65_0_all" locus_tag="P773_RS0104550"  />
<polygon class="clusterblast-orf" style="stroke-width:1; stroke:black; fill:white; " points="655,35 659,30 659,40 655,35 " description="&lt;b&gt;P773_RS0104555&lt;/b&gt;&lt;br&gt;hypothetical protein&lt;br&gt;Location: 838383 - 838827" id="dummy-4_q66_0_all" locus_tag="P773_RS0104555"  />
<polygon class="clusterblast-orf" style="stroke-width:1; stroke:black; fill:white; " points="659,35 664,30 665,30 665,40 664,40 659,35 " description="&lt;b&gt;P773_RS0104560&lt;/b&gt;&lt;br&gt;hypothetical protein&lt;br&gt;Location: 838847 - 839474" id="dummy-4_q67_0_all" locus_tag="P773_RS0104560"  />
<polygon class="clusterblast-orf" style="stroke-width:1; stroke:black; fill:white; " points="665,35 670,30 674,30 674,40 670,40 665,35 " description="&lt;b&gt;P773_RS0104565&lt;/b&gt;&lt;br&gt;hypothetical protein&lt;br&gt;Location: 839470 - 840394" id="dummy-4_q68_0_all" locus_tag="P773_RS0104565"  />
<polygon class="clusterblast-orf" style="stroke-width:1; stroke:black; fill:white; " points="674,35 679,30 685,30 685,40 679,40 674,35 " description="&lt;b&gt;P773_RS0104570&lt;/b&gt;&lt;br&gt;glycosyltransferase family 1 protein&lt;br&gt;Location: 840390 - 841590" id="dummy-4_q69_0_all" locus_tag="P773_RS0104570"  />
<polygon class="clusterblast-orf" style="stroke-width:1; stroke:black; fill:white; " points="686,35 691,30 706,30 706,40 691,40 686,35 " description="&lt;b&gt;P773_RS0104575&lt;/b&gt;&lt;br&gt;hypothetical protein&lt;br&gt;Location: 841631 - 843716" id="dummy-4_q70_0_all" locus_tag="P773_RS0104575"  />
<polygon class="clusterblast-orf" style="stroke-width:1; stroke:black; fill:white; " points="755,40 762,40 767,35 762,30 755,30 755,40 " description="&lt;b&gt;P773_RS0104600&lt;/b&gt;&lt;br&gt;peptidase M23&lt;br&gt;Location: 848811 - 850104" id="dummy-4_q71_0_all" locus_tag="P773_RS0104600"  />
<polygon class="clusterblast-orf" style="stroke-width:1; stroke:black; fill:white; " points="767,35 771,30 771,40 767,35 " description="&lt;b&gt;P773_RS0104605&lt;/b&gt;&lt;br&gt;DUF4167 domain-containing protein&lt;br&gt;Location: 850100 - 850535" id="dummy-4_q72_0_all" locus_tag="P773_RS0104605"  />
<polygon class="clusterblast-orf" style="stroke-width:1; stroke:black; fill:white; " points="771,35 776,30 780,30 780,40 776,40 771,35 " description="&lt;b&gt;P773_RS0104610&lt;/b&gt;&lt;br&gt;peptide chain release factor N(5)-glutamine methyltransferase&lt;br&gt;Location: 850546 - 851389" id="dummy-4_q73_0_all" locus_tag="P773_RS0104610"  />
</g>
<g label="NZ_CP011007" class="clusterblast-cluster" description="NZ_CP011007_c7: Bacillus pumilus strain SH-B9, complete genome (8% of genes show similarity), other"  >
<text class="clusterblast-acc" y="70" x="5"  >
<a xlink:href="https://antismash-db.secondarymetabolites.org/go/NZ_CP011007/7" target="_blank">NZ_CP011007_c7</a>: Bacillus pumilus strain SH-B9, complete genome (8% of genes show similarity), other</text>
<line style="stroke-width:1; stroke:grey; " y1="85" x2="778.0" y2="85" x1="10"  />
</g>
<g id="a4_000"  >
<polygon class="clusterblast-orf" style="stroke-width:1; stroke:black; fill:white; " points="192,90 194,90 199,85 194,80 192,80 192,90 " description="&lt;b&gt;UP12_RS17490&lt;/b&gt;&lt;br&gt;RsfA family transcriptional regulator&lt;br&gt;Location: 3451148 - 3451948" id="dummy-4_h4_10_0" locus_tag="UP12_RS17490"  />
</g>
<g id="a4_001"  >
<polygon class="clusterblast-orf" style="stroke-width:1; stroke:black; fill:white; " points="200,85 202,80 202,90 200,85 " description="&lt;b&gt;UP12_RS17495&lt;/b&gt;&lt;br&gt;hypothetical protein&lt;br&gt;Location: 3451983 - 3452216" id="dummy-4_h4_10_1" locus_tag="UP12_RS17495"  />
</g>
<g id="a4_002"  >
<polygon class="clusterblast-orf" style="stroke-width:1; stroke:black; fill:white; " points="202,85 207,80 224,80 224,90 207,90 202,85 " description="&lt;b&gt;UP12_RS17500&lt;/b&gt;&lt;br&gt;cellulose synthase&lt;br&gt;Location: 3452213 - 3454489" id="dummy-4_h4_10_2" locus_tag="UP12_RS17500"  />
</g>
<g id="a4_003"  >
<polygon class="clusterblast-orf" style="stroke-width:1; stroke:black; fill:white; " points="225,85 230,80 230,80 230,90 230,90 225,85 " description="&lt;b&gt;UP12_RS17505&lt;/b&gt;&lt;br&gt;hypothetical protein&lt;br&gt;Location: 3454608 - 3455093" id="dummy-4_h4_10_3" locus_tag="UP12_RS17505"  />
</g>
<g id="a4_004"  >
<polygon class="clusterblast-orf" style="stroke-width:1; stroke:black; fill:white; " points="230,85 235,80 238,80 238,90 235,90 230,85 " description="&lt;b&gt;UP12_RS17510&lt;/b&gt;&lt;br&gt;lipoate--protein ligase family protein&lt;br&gt;Location: 3455134 - 3455982" id="dummy-4_h4_10_4" locus_tag="UP12_RS17510"  />
</g>
<g id="a4_005"  >
<polygon class="clusterblast-orf" style="stroke-width:1; stroke:black; fill:white; " points="240,85 243,80 243,90 240,85 " description="&lt;b&gt;UP12_RS17515&lt;/b&gt;&lt;br&gt;SMI1/KNR4 family protein&lt;br&gt;Location: 3456150 - 3456542" id="dummy-4_h4_10_5" locus_tag="UP12_RS17515"  />
</g>
<g id="a4_006"  >
<polygon class="clusterblast-orf" style="stroke-width:1; stroke:black; fill:white; " points="244,85 247,80 247,90 244,85 " description="&lt;b&gt;UP12_RS17520&lt;/b&gt;&lt;br&gt;hypothetical protein&lt;br&gt;Location: 3456582 - 3456944" id="dummy-4_h4_10_6" locus_tag="UP12_RS17520"  />
</g>
<g id="a4_007"  >
<polygon class="clusterblast-orf" style="stroke-width:1; stroke:black; fill:white; " points="247,85 252,80 262,80 262,90 252,90 247,85 " description="&lt;b&gt;UP12_RS17525&lt;/b&gt;&lt;br&gt;transposase&lt;br&gt;Location: 3456959 - 3458488" id="dummy-4_h4_10_7" locus_tag="UP12_RS17525"  />
</g>
<g id="a4_008"  >
<polygon class="clusterblast-orf" style="stroke-width:1; stroke:black; fill:white; " points="262,85 265,80 265,90 262,85 " description="&lt;b&gt;UP12_RS17530&lt;/b&gt;&lt;br&gt;hypothetical protein&lt;br&gt;Location: 3458500 - 3458778" id="dummy-4_h4_10_8" locus_tag="UP12_RS17530"  />
</g>
<g id="a4_009"  >
<polygon class="clusterblast-orf" style="stroke-width:1; stroke:black; fill:white; " points="265,85 269,80 269,90 265,85 " description="&lt;b&gt;UP12_RS17535&lt;/b&gt;&lt;br&gt;DUF5082 domain-containing protein&lt;br&gt;Location: 3458771 - 3459181" id="dummy-4_h4_10_9" locus_tag="UP12_RS17535"  />
</g>
<g id="a4_0010"  >
<polygon class="clusterblast-orf" style="stroke-width:1; stroke:black; fill:white; " points="271,85 273,80 273,90 271,85 " description="&lt;b&gt;UP12_RS17540&lt;/b&gt;&lt;br&gt;hypothetical protein&lt;br&gt;Location: 3459357 - 3459623" id="dummy-4_h4_10_10" locus_tag="UP12_RS17540"  />
</g>
<g id="a4_0011"  >
<polygon class="clusterblast-orf" style="stroke-width:1; stroke:black; fill:white; " points="273,85 278,80 286,80 286,90 278,90 273,85 " description="&lt;b&gt;UP12_RS17545&lt;/b&gt;&lt;br&gt;C4-dicarboxylate ABC transporter permease&lt;br&gt;Location: 3459637 - 3460971" id="dummy-4_h4_10_11" locus_tag="UP12_RS17545"  />
</g>
<g id="a4_0012"  >
<polygon class="clusterblast-orf" style="stroke-width:1; stroke:black; fill:white; " points="286,85 291,80 295,80 295,90 291,90 286,85 " description="&lt;b&gt;UP12_RS17550&lt;/b&gt;&lt;br&gt;prephenate dehydrogenase/arogenate dehydrogenase family protein&lt;br&gt;Location: 3461017 - 3461892" id="dummy-4_h4_10_12" locus_tag="UP12_RS17550"  />
</g>
<g id="a4_0013"  >
<polygon class="clusterblast-orf" style="stroke-width:1; stroke:black; fill:white; " points="295,85 300,80 301,80 301,90 300,90 295,85 " description="&lt;b&gt;UP12_RS17555&lt;/b&gt;&lt;br&gt;S-adenosylmethionine--2-demethylmenaquinone methyltransferase&lt;br&gt;Location: 3461904 - 3462575" id="dummy-4_h4_10_13" locus_tag="UP12_RS17555"  />
</g>
<g id="a4_0014"  >
<polygon class="clusterblast-orf" style="stroke-width:1; stroke:black; fill:white; " points="303,85 308,80 311,80 311,90 308,90 303,85 " description="&lt;b&gt;UP12_RS17560&lt;/b&gt;&lt;br&gt;MurR/RpiR family transcriptional regulator&lt;br&gt;Location: 3462719 - 3463570" id="dummy-4_h4_10_14" locus_tag="UP12_RS17560"  />
</g>
<g id="a4_0015"  >
<polygon class="clusterblast-orf" style="stroke-width:1; stroke:black; fill:white; " points="312,85 317,80 322,80 322,90 317,90 312,85 " description="&lt;b&gt;UP12_RS17565&lt;/b&gt;&lt;br&gt;phosphate acetyltransferase&lt;br&gt;Location: 3463705 - 3464676" id="dummy-4_h4_10_15" locus_tag="UP12_RS17565"  />
</g>
<g id="a4_0016"  >
<polygon class="clusterblast-orf" style="stroke-width:1; stroke:black; fill:white; " points="324,90 326,90 331,85 326,80 324,80 324,90 " description="&lt;b&gt;UP12_RS17570&lt;/b&gt;&lt;br&gt;heme-dependent peroxidase&lt;br&gt;Location: 3464916 - 3465686" id="dummy-4_h4_10_16" locus_tag="UP12_RS17570"  />
</g>
<g id="a4_0017"  >
<polygon class="clusterblast-orf" style="stroke-width:1; stroke:black; fill:white; " points="332,90 338,90 343,85 338,80 332,80 332,90 " description="&lt;b&gt;UP12_RS17575&lt;/b&gt;&lt;br&gt;MFS transporter&lt;br&gt;Location: 3465754 - 3466914" id="dummy-4_h4_10_17" locus_tag="UP12_RS17575"  />
</g>
<g id="a4_0018"  >
<polygon class="clusterblast-orf" style="stroke-width:1; stroke:black; fill:white; " points="343,85 348,80 348,80 348,90 348,90 343,85 " description="&lt;b&gt;UP12_RS17580&lt;/b&gt;&lt;br&gt;Lrp/AsnC family transcriptional regulator&lt;br&gt;Location: 3466928 - 3467407" id="dummy-4_h4_10_18" locus_tag="UP12_RS17580"  />
</g>
<g id="a4_0019"  >
<polygon class="clusterblast-orf" style="stroke-width:1; stroke:black; fill:white; " points="349,90 356,90 361,85 356,80 349,80 349,90 " description="&lt;b&gt;UP12_RS17585&lt;/b&gt;&lt;br&gt;MFS transporter&lt;br&gt;Location: 3467553 - 3468785" id="dummy-4_h4_10_19" locus_tag="UP12_RS17585"  />
</g>
<g id="a4_0020"  >
<polygon class="clusterblast-orf" style="stroke-width:1; stroke:black; fill:white; " points="363,90 363,90 368,85 363,80 363,80 363,90 " description="&lt;b&gt;UP12_RS17590&lt;/b&gt;&lt;br&gt;bacilysin biosynthesis protein BacA&lt;br&gt;Location: 3468935 - 3469537" id="dummy-4_h4_10_20" locus_tag="UP12_RS17590"  />
</g>
<g id="a4_0021"  >
<polygon class="clusterblast-orf" style="stroke-width:1; stroke:black; fill:white; " points="368,90 370,90 375,85 370,80 368,80 368,90 " description="&lt;b&gt;UP12_RS17595&lt;/b&gt;&lt;br&gt;cupin domain-containing protein&lt;br&gt;Location: 3469539 - 3470246" id="dummy-4_h4_10_21" locus_tag="UP12_RS17595"  />
</g>
<g id="a4_0022"  >
<polygon class="clusterblast-orf" style="stroke-width:1; stroke:black; fill:white; " points="375,90 378,90 383,85 378,80 375,80 375,90 " description="&lt;b&gt;UP12_RS17600&lt;/b&gt;&lt;br&gt;NAD(P)-dependent oxidoreductase&lt;br&gt;Location: 3470243 - 3471004" id="dummy-4_h4_10_22" locus_tag="UP12_RS17600"  />
</g>
<g id="a4_0023"  >
<polygon class="clusterblast-orf" style="stroke-width:1; stroke:black; fill:white; " points="383,90 391,90 396,85 391,80 383,80 383,90 " description="&lt;b&gt;UP12_RS17605&lt;/b&gt;&lt;br&gt;ATP-grasp domain-containing protein&lt;br&gt;Location: 3471020 - 3472441" id="dummy-4_h4_10_23" locus_tag="UP12_RS17605"  />
</g>
<g id="a4_0024"  >
<polygon class="clusterblast-orf" style="stroke-width:1; stroke:black; fill:white; " points="397,90 403,90 408,85 403,80 397,80 397,90 " description="&lt;b&gt;UP12_RS17610&lt;/b&gt;&lt;br&gt;pyridoxal phosphate-dependent aminotransferase&lt;br&gt;Location: 3472457 - 3473653" id="dummy-4_h4_10_24" locus_tag="UP12_RS17610"  />
</g>
<g id="a4_0025"  >
<polygon class="clusterblast-orf" style="stroke-width:1; stroke:black; fill:white; " points="408,85 413,80 416,80 416,90 413,90 408,85 " description="&lt;b&gt;UP12_RS17615&lt;/b&gt;&lt;br&gt;SDR family oxidoreductase&lt;br&gt;Location: 3473668 - 3474465" id="dummy-4_h4_10_25" locus_tag="UP12_RS17615"  />
</g>
<g id="a4_0026"  >
<polygon class="clusterblast-orf" style="stroke-width:1; stroke:black; fill:white; " points="417,85 421,80 421,90 417,85 " description="&lt;b&gt;UP12_RS17620&lt;/b&gt;&lt;br&gt;spore coat protein&lt;br&gt;Location: 3474560 - 3475015" id="dummy-4_h4_10_26" locus_tag="UP12_RS17620"  />
</g>
<g id="a4_0027"  >
<polygon class="clusterblast-orf" style="stroke-width:1; stroke:black; fill:white; " points="421,85 426,80 429,80 429,90 426,90 421,85 " description="&lt;b&gt;UP12_RS17625&lt;/b&gt;&lt;br&gt;dTDP-4-dehydrorhamnose reductase&lt;br&gt;Location: 3475008 - 3475862" id="dummy-4_h4_10_27" locus_tag="UP12_RS17625"  />
</g>
<g id="a4_0028"  >
<polygon class="clusterblast-orf" style="stroke-width:1; stroke:black; fill:#3315d8; " points="429,85 434,80 439,80 439,90 434,90 429,85 " description="&lt;b&gt;UP12_RS17630&lt;/b&gt;&lt;br&gt;dTDP-glucose 4,6-dehydratase&lt;br&gt;Location: 3475866 - 3476831&lt;br&gt;&lt;br&gt;&lt;b&gt;BlastP hit with P773_RS0104465&lt;/b&gt;&lt;br&gt;Percentage identity: 43&lt;br&gt;Percentage coverage: 97&lt;br&gt;BLAST bit score: 241&lt;br&gt;E-value: 1.6e-61" id="dummy-4_h4_10_28" locus_tag="UP12_RS17630"  />
</g>
<g id="a4_0029"  >
<polygon class="clusterblast-orf" style="stroke-width:1; stroke:black; fill:#15d8ab; " points="439,85 444,80 446,80 446,90 444,90 439,85 " description="&lt;b&gt;UP12_RS17635&lt;/b&gt;&lt;br&gt;glucose-1-phosphate thymidylyltransferase&lt;br&gt;Location: 3476828 - 3477568&lt;br&gt;&lt;br&gt;&lt;b&gt;BlastP hit with P773_RS0104460&lt;/b&gt;&lt;br&gt;Percentage identity: 36&lt;br&gt;Percentage coverage: 85&lt;br&gt;BLAST bit score: 156&lt;br&gt;E-value: 5.8e-36" id="dummy-4_h4_10_29" locus_tag="UP12_RS17635"  />
</g>
<g id="a4_0030"  >
<polygon class="clusterblast-orf" style="stroke-width:1; stroke:black; fill:white; " points="446,85 451,80 456,80 456,90 451,90 446,85 " description="&lt;b&gt;UP12_RS17640&lt;/b&gt;&lt;br&gt;spore coat protein&lt;br&gt;Location: 3477571 - 3478599" id="dummy-4_h4_10_30" locus_tag="UP12_RS17640"  />
</g>
<g id="a4_0031"  >
<polygon class="clusterblast-orf" style="stroke-width:1; stroke:black; fill:white; " points="456,85 461,80 463,80 463,90 461,90 456,85 " description="&lt;b&gt;UP12_RS17645&lt;/b&gt;&lt;br&gt;spore coat protein&lt;br&gt;Location: 3478596 - 3479336" id="dummy-4_h4_10_31" locus_tag="UP12_RS17645"  />
</g>
<g id="a4_0032"  >
<polygon class="clusterblast-orf" style="stroke-width:1; stroke:black; fill:#1551d8; " points="463,85 468,80 473,80 473,90 468,90 463,85 " description="&lt;b&gt;UP12_RS17650&lt;/b&gt;&lt;br&gt;spore coat protein&lt;br&gt;Location: 3479326 - 3480450&lt;br&gt;&lt;br&gt;&lt;b&gt;BlastP hit with P773_RS0104380&lt;/b&gt;&lt;br&gt;Percentage identity: 31&lt;br&gt;Percentage coverage: 107&lt;br&gt;BLAST bit score: 145&lt;br&gt;E-value: 1.2e-32" id="dummy-4_h4_10_32" locus_tag="UP12_RS17650"  />
</g>
<g id="a4_0033"  >
<polygon class="clusterblast-orf" style="stroke-width:1; stroke:black; fill:white; " points="473,85 478,80 482,80 482,90 478,90 473,85 " description="&lt;b&gt;UP12_RS17655&lt;/b&gt;&lt;br&gt;N-acetyltransferase&lt;br&gt;Location: 3480452 - 3481327" id="dummy-4_h4_10_33" locus_tag="UP12_RS17655"  />
</g>
<g id="a4_0034"  >
<polygon class="clusterblast-orf" style="stroke-width:1; stroke:black; fill:#d86f15; " points="482,85 487,80 493,80 493,90 487,90 482,85 " description="&lt;b&gt;UP12_RS17660&lt;/b&gt;&lt;br&gt;DegT/DnrJ/EryC1/StrS family aminotransferase&lt;br&gt;Location: 3481324 - 3482502&lt;br&gt;&lt;br&gt;&lt;b&gt;BlastP hit with P773_RS07860&lt;/b&gt;&lt;br&gt;Percentage identity: 34&lt;br&gt;Percentage coverage: 58&lt;br&gt;BLAST bit score: 207&lt;br&gt;E-value: 4e-51&lt;br&gt;&lt;br&gt;&lt;b&gt;BlastP hit with P773_RS0104520&lt;/b&gt;&lt;br&gt;Percentage identity: 32&lt;br&gt;Percentage coverage: 104&lt;br&gt;BLAST bit score: 175&lt;br&gt;E-value: 1.6e-41" id="dummy-4_h4_10_34" locus_tag="UP12_RS17660"  />
</g>
<g id="a4_0035"  >
<polygon class="clusterblast-orf" style="stroke-width:1; stroke:black; fill:white; " points="493,85 498,80 507,80 507,90 498,90 493,85 " description="&lt;b&gt;UP12_RS17665&lt;/b&gt;&lt;br&gt;spore coat protein&lt;br&gt;Location: 3482524 - 3483936" id="dummy-4_h4_10_35" locus_tag="UP12_RS17665"  />
</g>
<g id="a4_0036"  >
<polygon class="clusterblast-orf" style="stroke-width:1; stroke:black; fill:white; " points="507,85 512,80 514,80 514,90 512,90 507,85 " description="&lt;b&gt;UP12_RS17670&lt;/b&gt;&lt;br&gt;glycosyltransferase family 2 protein&lt;br&gt;Location: 3483943 - 3484713" id="dummy-4_h4_10_36" locus_tag="UP12_RS17670"  />
</g>
<g id="a4_0037"  >
<polygon class="clusterblast-orf" style="stroke-width:1; stroke:black; fill:white; " points="516,90 518,90 523,85 518,80 516,80 516,90 " description="&lt;b&gt;UP12_RS17675&lt;/b&gt;&lt;br&gt;hypothetical protein&lt;br&gt;Location: 3484889 - 3485563" id="dummy-4_h4_10_37" locus_tag="UP12_RS17675"  />
</g>
<g id="a4_0038"  >
<polygon class="clusterblast-orf" style="stroke-width:1; stroke:black; fill:white; " points="525,90 525,90 530,85 525,80 525,80 525,90 " description="&lt;b&gt;UP12_RS17680&lt;/b&gt;&lt;br&gt;spore coat protein GerQ&lt;br&gt;Location: 3485786 - 3486328" id="dummy-4_h4_10_38" locus_tag="UP12_RS17680"  />
</g>
<g id="a4_0039"  >
<polygon class="clusterblast-orf" style="stroke-width:1; stroke:black; fill:white; " points="531,90 532,90 537,85 532,80 531,80 531,90 " description="&lt;b&gt;UP12_RS17685&lt;/b&gt;&lt;br&gt;cupin domain-containing protein&lt;br&gt;Location: 3486462 - 3487079" id="dummy-4_h4_10_39" locus_tag="UP12_RS17685"  />
</g>
<g id="a4_0040"  >
<polygon class="clusterblast-orf" style="stroke-width:1; stroke:black; fill:white; " points="538,85 541,80 541,90 538,85 " description="&lt;b&gt;UP12_RS17690&lt;/b&gt;&lt;br&gt;DUF423 domain-containing protein&lt;br&gt;Location: 3487121 - 3487492" id="dummy-4_h4_10_40" locus_tag="UP12_RS17690"  />
</g>
<g id="a4_0041"  >
<polygon class="clusterblast-orf" style="stroke-width:1; stroke:black; fill:white; " points="542,85 547,80 554,80 554,90 547,90 542,85 " description="&lt;b&gt;UP12_RS17695&lt;/b&gt;&lt;br&gt;purine permease&lt;br&gt;Location: 3487563 - 3488870" id="dummy-4_h4_10_41" locus_tag="UP12_RS17695"  />
</g>
<g id="a4_0042"  >
<polygon class="clusterblast-orf" style="stroke-width:1; stroke:black; fill:white; " points="555,85 558,80 558,90 555,85 " description="&lt;b&gt;UP12_RS17700&lt;/b&gt;&lt;br&gt;hypothetical protein&lt;br&gt;Location: 3488904 - 3489236" id="dummy-4_h4_10_42" locus_tag="UP12_RS17700"  />
</g>
<g id="a4_0043"  >
<polygon class="clusterblast-orf" style="stroke-width:1; stroke:black; fill:white; " points="560,90 568,90 573,85 568,80 560,80 560,90 " description="&lt;b&gt;UP12_RS17705&lt;/b&gt;&lt;br&gt;aldehyde dehydrogenase&lt;br&gt;Location: 3489407 - 3490765" id="dummy-4_h4_10_43" locus_tag="UP12_RS17705"  />
</g>
<g id="a4_0044"  >
<polygon class="clusterblast-orf" style="stroke-width:1; stroke:black; fill:white; " points="573,85 578,80 579,80 579,90 578,90 573,85 " description="&lt;b&gt;UP12_RS17710&lt;/b&gt;&lt;br&gt;uracil-DNA glycosylase&lt;br&gt;Location: 3490799 - 3491479" id="dummy-4_h4_10_44" locus_tag="UP12_RS17710"  />
</g>
<g id="a4_0045"  >
<polygon class="clusterblast-orf" style="stroke-width:1; stroke:black; fill:white; " points="579,85 584,80 587,80 587,90 584,90 579,85 " description="&lt;b&gt;UP12_RS17715&lt;/b&gt;&lt;br&gt;glycosyltransferase family 2 protein&lt;br&gt;Location: 3491476 - 3492303" id="dummy-4_h4_10_45" locus_tag="UP12_RS17715"  />
</g>
</svg>
