<svg version="1.1" preserveAspectRatio="none" width="800" y="0" xmlns:xlink="http://www.w3.org/1999/xlink" height="230" x="0" xmlns="http://www.w3.org/2000/svg" viewBox="0 0 800 230"  >
<g label="Query sequence" class="clusterblast-cluster"  >
<text class="clusterblast-acc" y="20" x="5"  >
Query sequence</text>
<line style="stroke-width:1; stroke:grey; " y1="35" x2="778.0" y2="35" x1="10"  />
<polygon class="clusterblast-orf" style="stroke-width:1; stroke:black; fill:#d81515; " points="205,40 209,40 214,35 209,30 205,30 205,40 " description="&lt;b&gt;P773_RS0107165&lt;/b&gt;&lt;br&gt;biphenyl 2,3-dioxygenase&lt;br&gt;Location: 1328932 - 1329700" id="dummy-11_q0_0_all" locus_tag="P773_RS0107165"  />
<polygon class="clusterblast-orf" style="stroke-width:1; stroke:black; fill:#63d815; " points="215,40 219,35 215,30 215,40 " description="&lt;b&gt;P773_RS0107170&lt;/b&gt;&lt;br&gt;(2Fe-2S) ferredoxin&lt;br&gt;Location: 1329782 - 1330103" id="dummy-11_q1_0_all" locus_tag="P773_RS0107170"  />
<polygon class="clusterblast-orf" style="stroke-width:1; stroke:black; fill:#15b1d8; " points="219,40 225,40 230,35 225,30 219,30 219,40 " description="&lt;b&gt;P773_RS0107175&lt;/b&gt;&lt;br&gt;NAD(P)/FAD-dependent oxidoreductase&lt;br&gt;Location: 1330103 - 1331120" id="dummy-11_q2_0_all" locus_tag="P773_RS0107175"  />
<polygon class="clusterblast-orf" style="stroke-width:1; stroke:black; fill:#b115d8; " points="230,40 232,40 237,35 232,30 230,30 230,40 " description="&lt;b&gt;P773_RS0107180&lt;/b&gt;&lt;br&gt;thiol:disulfide oxidoreductase&lt;br&gt;Location: 1331116 - 1331743" id="dummy-11_q3_0_all" locus_tag="P773_RS0107180"  />
<polygon class="clusterblast-orf" style="stroke-width:1; stroke:black; fill:white; " points="239,35 244,30 249,30 249,40 244,40 239,35 " description="&lt;b&gt;P773_RS0107185&lt;/b&gt;&lt;br&gt;phytanoyl-CoA dioxygenase&lt;br&gt;Location: 1331959 - 1332787" id="dummy-11_q4_0_all" locus_tag="P773_RS0107185"  />
<polygon class="clusterblast-orf" style="stroke-width:1; stroke:black; fill:white; " points="249,40 253,40 258,35 253,30 249,30 249,40 " description="&lt;b&gt;P773_RS0107190&lt;/b&gt;&lt;br&gt;MOSC domain-containing protein&lt;br&gt;Location: 1332806 - 1333592" id="dummy-11_q5_0_all" locus_tag="P773_RS0107190"  />
<polygon class="clusterblast-orf" style="stroke-width:1; stroke:black; fill:#d86315; " points="259,40 263,40 268,35 263,30 259,30 259,40 " description="&lt;b&gt;P773_RS0107195&lt;/b&gt;&lt;br&gt;ABC transporter substrate-binding protein&lt;br&gt;Location: 1333693 - 1334539" id="dummy-11_q6_0_all" locus_tag="P773_RS0107195"  />
<polygon class="clusterblast-orf" style="stroke-width:1; stroke:black; fill:#15d815; " points="269,40 271,40 276,35 271,30 269,30 269,40 " description="&lt;b&gt;P773_RS0107200&lt;/b&gt;&lt;br&gt;ectoine/hydroxyectoine ABC transporter permease subunit EhuC&lt;br&gt;Location: 1334612 - 1335284" id="dummy-11_q7_0_all" locus_tag="P773_RS0107200"  />
<polygon class="clusterblast-orf" style="stroke-width:1; stroke:black; fill:#15d815; " points="276,40 279,40 284,35 279,30 276,30 276,40 " description="&lt;b&gt;P773_RS0107205&lt;/b&gt;&lt;br&gt;ectoine/hydroxyectoine ABC transporter permease subunit EhuD&lt;br&gt;Location: 1335285 - 1335972" id="dummy-11_q8_0_all" locus_tag="P773_RS0107205"  />
<polygon class="clusterblast-orf" style="stroke-width:1; stroke:black; fill:#1563d8; " points="284,40 288,40 293,35 288,30 284,30 284,40 " description="&lt;b&gt;P773_RS0107210&lt;/b&gt;&lt;br&gt;ectoine/hydroxyectoine ABC transporter ATP-binding protein EhuA&lt;br&gt;Location: 1335973 - 1336762" id="dummy-11_q9_0_all" locus_tag="P773_RS0107210"  />
<polygon class="clusterblast-orf" style="stroke-width:1; stroke:black; fill:#d815b1; " points="293,35 298,30 299,30 299,40 298,40 293,35 " description="&lt;b&gt;P773_RS0107215&lt;/b&gt;&lt;br&gt;molecular chaperone DnaK&lt;br&gt;Location: 1336773 - 1337316" id="dummy-11_q10_0_all" locus_tag="P773_RS0107215"  />
<polygon class="clusterblast-orf" style="stroke-width:1; stroke:black; fill:#d8b115; " points="300,40 311,40 316,35 311,30 300,30 300,40 " description="&lt;b&gt;P773_RS0107220&lt;/b&gt;&lt;br&gt;membrane protein&lt;br&gt;Location: 1337394 - 1338786" id="dummy-11_q11_0_all" locus_tag="P773_RS0107220"  />
<polygon class="clusterblast-orf" style="stroke-width:1; stroke:black; fill:#15d863; " points="316,40 320,40 325,35 320,30 316,30 316,40 " description="&lt;b&gt;P773_RS0107225&lt;/b&gt;&lt;br&gt;glycosyl transferase&lt;br&gt;Location: 1338786 - 1339656" id="dummy-11_q12_0_all" locus_tag="P773_RS0107225"  />
<polygon class="clusterblast-orf" style="stroke-width:1; stroke:black; fill:white; " points="325,35 330,30 340,30 340,40 330,40 325,35 " description="&lt;b&gt;P773_RS0107230&lt;/b&gt;&lt;br&gt;DNA polymerase V UmuC&lt;br&gt;Location: 1339664 - 1340945" id="dummy-11_q13_0_all" locus_tag="P773_RS0107230"  />
<polygon class="clusterblast-orf" style="stroke-width:1; stroke:black; fill:white; " points="339,35 344,30 344,30 344,40 344,40 339,35 " description="&lt;b&gt;P773_RS0107235&lt;/b&gt;&lt;br&gt;error-prone repair protein UmuD&lt;br&gt;Location: 1340922 - 1341318" id="dummy-11_q14_0_all" locus_tag="P773_RS0107235"  />
<polygon class="clusterblast-orf" style="stroke-width:1; stroke:black; fill:white; " points="346,40 350,35 346,30 346,40 " description="&lt;b&gt;P773_RS0107240&lt;/b&gt;&lt;br&gt;GFA family protein&lt;br&gt;Location: 1341499 - 1341868" id="dummy-11_q15_0_all" locus_tag="P773_RS0107240"  />
<polygon class="clusterblast-orf" style="stroke-width:1; stroke:black; fill:white; " points="350,40 354,35 350,30 350,40 " description="&lt;b&gt;P773_RS0107245&lt;/b&gt;&lt;br&gt;GFA family protein&lt;br&gt;Location: 1341869 - 1342235" id="dummy-11_q16_0_all" locus_tag="P773_RS0107245"  />
<polygon class="clusterblast-orf" style="stroke-width:1; stroke:black; fill:#1515d8; " points="354,40 360,40 365,35 360,30 354,30 354,40 " description="&lt;b&gt;P773_RS0107250&lt;/b&gt;&lt;br&gt;uridine kinase&lt;br&gt;Location: 1342241 - 1343171" id="dummy-11_q17_0_all" locus_tag="P773_RS0107250"  />
<polygon class="clusterblast-orf" style="stroke-width:1; stroke:black; fill:white; " points="365,40 374,40 379,35 374,30 365,30 365,40 " description="&lt;b&gt;P773_RS0107255&lt;/b&gt;&lt;br&gt;membrane protein&lt;br&gt;Location: 1343167 - 1344460" id="dummy-11_q18_0_all" locus_tag="P773_RS0107255"  />
<polygon class="clusterblast-orf" style="stroke-width:1; stroke:black; fill:white; " points="380,40 388,40 393,35 388,30 380,30 380,40 " description="&lt;b&gt;P773_RS0107260&lt;/b&gt;&lt;br&gt;recombinase RecA&lt;br&gt;Location: 1344568 - 1345717" id="dummy-11_q19_0_all" locus_tag="P773_RS0107260"  />
<polygon class="clusterblast-orf" style="stroke-width:1; stroke:black; fill:white; " points="394,40 419,40 424,35 419,30 394,30 394,40 " description="&lt;b&gt;P773_RS0107265&lt;/b&gt;&lt;br&gt;alanine--tRNA ligase&lt;br&gt;Location: 1345815 - 1348482" id="dummy-11_q20_0_all" locus_tag="P773_RS0107265"  />
<polygon class="clusterblast-orf" style="stroke-width:1; stroke:black; fill:white; " points="424,35 429,30 437,30 437,40 429,40 424,35 " description="&lt;b&gt;P773_RS0107270&lt;/b&gt;&lt;br&gt;isocitrate dehydrogenase (NADP(+))&lt;br&gt;Location: 1348473 - 1349688" id="dummy-11_q21_0_all" locus_tag="P773_RS0107270"  />
<polygon class="clusterblast-orf" style="stroke-width:1; stroke:black; fill:white; " points="438,40 440,40 445,35 440,30 438,30 438,40 " description="&lt;b&gt;P773_RS0107275&lt;/b&gt;&lt;br&gt;phosphatidylserine decarboxylase family protein&lt;br&gt;Location: 1349764 - 1350412" id="dummy-11_q22_0_all" locus_tag="P773_RS0107275"  />
<polygon class="clusterblast-orf" style="stroke-width:1; stroke:black; fill:white; " points="445,40 450,40 455,35 450,30 445,30 445,40 " description="&lt;b&gt;P773_RS0107280&lt;/b&gt;&lt;br&gt;CDP-diacylglycerol--serine O-phosphatidyltransferase&lt;br&gt;Location: 1350414 - 1351221" id="dummy-11_q23_0_all" locus_tag="P773_RS0107280"  />
<polygon class="clusterblast-orf" style="stroke-width:1; stroke:black; fill:white; " points="455,40 460,40 465,35 460,30 455,30 455,40 " description="&lt;b&gt;P773_RS0107285&lt;/b&gt;&lt;br&gt;glycosyl transferase&lt;br&gt;Location: 1351220 - 1352132" id="dummy-11_q24_0_all" locus_tag="P773_RS0107285"  />
<polygon class="clusterblast-orf" style="stroke-width:1; stroke:black; fill:white; " points="465,40 467,40 472,35 467,30 465,30 465,40 " description="&lt;b&gt;P773_RS0107290&lt;/b&gt;&lt;br&gt;RlmE family RNA methyltransferase&lt;br&gt;Location: 1352132 - 1352744" id="dummy-11_q25_0_all" locus_tag="P773_RS0107290"  />
<polygon class="clusterblast-orf" style="stroke-width:1; stroke:black; fill:white; " points="472,40 479,40 484,35 479,30 472,30 472,40 " description="&lt;b&gt;P773_RS0107295&lt;/b&gt;&lt;br&gt;guanosine monophosphate reductase&lt;br&gt;Location: 1352775 - 1353858" id="dummy-11_q26_0_all" locus_tag="P773_RS0107295"  />
<polygon class="clusterblast-orf" style="stroke-width:1; stroke:black; fill:white; " points="484,40 484,40 489,35 484,30 484,30 484,40 " description="&lt;b&gt;P773_RS0107300&lt;/b&gt;&lt;br&gt;hypothetical protein&lt;br&gt;Location: 1353857 - 1354295" id="dummy-11_q27_0_all" locus_tag="P773_RS0107300"  />
<polygon class="clusterblast-orf" style="stroke-width:1; stroke:black; fill:white; " points="489,40 501,40 506,35 501,30 489,30 489,40 " description="&lt;b&gt;P773_RS0107305&lt;/b&gt;&lt;br&gt;glutamine-hydrolyzing GMP synthase&lt;br&gt;Location: 1354284 - 1355847" id="dummy-11_q28_0_all" locus_tag="P773_RS0107305"  />
<polygon class="clusterblast-orf" style="stroke-width:1; stroke:black; fill:white; " points="506,40 510,35 506,30 506,40 " description="&lt;b&gt;P773_RS0107310&lt;/b&gt;&lt;br&gt;hypothetical protein&lt;br&gt;Location: 1355847 - 1356228" id="dummy-11_q29_0_all" locus_tag="P773_RS0107310"  />
<polygon class="clusterblast-orf" style="stroke-width:1; stroke:black; fill:white; " points="511,40 515,40 520,35 515,30 511,30 511,40 " description="&lt;b&gt;P773_RS0107315&lt;/b&gt;&lt;br&gt;3-methyl-2-oxobutanoate hydroxymethyltransferase&lt;br&gt;Location: 1356279 - 1357053" id="dummy-11_q30_0_all" locus_tag="P773_RS0107315"  />
<polygon class="clusterblast-orf" style="stroke-width:1; stroke:black; fill:white; " points="520,35 525,30 527,30 527,40 525,40 520,35 " description="&lt;b&gt;P773_RS0107320&lt;/b&gt;&lt;br&gt;membrane protein&lt;br&gt;Location: 1357053 - 1357668" id="dummy-11_q31_0_all" locus_tag="P773_RS0107320"  />
<polygon class="clusterblast-orf" style="stroke-width:1; stroke:black; fill:#d81563; " points="528,40 534,40 539,35 534,30 528,30 528,40 " description="&lt;b&gt;P773_RS0107325&lt;/b&gt;&lt;br&gt;C4-dicarboxylate ABC transporter substrate-binding protein&lt;br&gt;Location: 1357793 - 1358768" id="dummy-11_q32_0_all" locus_tag="P773_RS0107325"  />
<polygon class="clusterblast-orf" style="stroke-width:1; stroke:black; fill:#b1d815; " points="539,40 540,40 545,35 540,30 539,30 539,40 " description="&lt;b&gt;P773_RS0107330&lt;/b&gt;&lt;br&gt;TRAP transporter small permease&lt;br&gt;Location: 1358822 - 1359314" id="dummy-11_q33_0_all" locus_tag="P773_RS0107330"  />
<polygon class="clusterblast-orf" style="stroke-width:1; stroke:black; fill:#15d8b1; " points="545,40 555,40 560,35 555,30 545,30 545,40 " description="&lt;b&gt;P773_RS0107335&lt;/b&gt;&lt;br&gt;C4-dicarboxylate ABC transporter permease&lt;br&gt;Location: 1359316 - 1360627" id="dummy-11_q34_0_all" locus_tag="P773_RS0107335"  />
<polygon class="clusterblast-orf" style="stroke-width:1; stroke:black; fill:white; " points="560,35 565,30 565,30 565,40 565,40 560,35 " description="&lt;b&gt;P773_RS0107340&lt;/b&gt;&lt;br&gt;hypothetical protein&lt;br&gt;Location: 1360629 - 1361118" id="dummy-11_q35_0_all" locus_tag="P773_RS0107340"  />
<polygon class="clusterblast-orf" style="stroke-width:1; stroke:black; fill:#6315d8; " points="565,35 570,30 574,30 574,40 570,40 565,35 " description="&lt;b&gt;P773_RS0107345&lt;/b&gt;&lt;br&gt;LamB/YcsF family protein&lt;br&gt;Location: 1361120 - 1361894" id="dummy-11_q36_0_all" locus_tag="P773_RS0107345"  />
</g>
<g label="NZ_JNAD01000005" class="clusterblast-cluster" description="NZ_JNAD01000005_c5: Streptomyces fradiae strain ATCC 19609 contig0005, whole ... (8% of genes show similarity), t2pks-otherks"  >
<text class="clusterblast-acc" y="70" x="5"  >
<a xlink:href="https://antismash-db.secondarymetabolites.org/go/NZ_JNAD01000005/5" target="_blank">NZ_JNAD01000005_c5</a>: Streptomyces fradiae strain ATCC 19609 contig0005, whole ... (8% of genes show similarity), t2pks-otherks</text>
<line style="stroke-width:1; stroke:grey; " y1="85" x2="778.0" y2="85" x1="10"  />
</g>
<g id="a11_000"  >
<polygon class="clusterblast-orf" style="stroke-width:1; stroke:black; fill:white; " points="0,90 10,90 15,85 10,80 0,80 0,90 " description="&lt;b&gt;SFRA_RS05625&lt;/b&gt;&lt;br&gt;amidase&lt;br&gt;Location: 29564 - 30988" id="dummy-11_h11_3_0" locus_tag="SFRA_RS05625"  />
</g>
<g id="a11_001"  >
<polygon class="clusterblast-orf" style="stroke-width:1; stroke:black; fill:white; " points="16,85 21,80 22,80 22,90 21,90 16,85 " description="&lt;b&gt;SFRA_RS05630&lt;/b&gt;&lt;br&gt;DUF3830 domain-containing protein&lt;br&gt;Location: 31068 - 31592" id="dummy-11_h11_3_1" locus_tag="SFRA_RS05630"  />
</g>
<g id="a11_002"  >
<polygon class="clusterblast-orf" style="stroke-width:1; stroke:black; fill:#d86315; " points="24,90 29,90 34,85 29,80 24,80 24,90 " description="&lt;b&gt;SFRA_RS05635&lt;/b&gt;&lt;br&gt;ectoine/hydroxyectoine ABC transporter substrate-binding protein EhuB&lt;br&gt;Location: 31759 - 32658&lt;br&gt;&lt;br&gt;&lt;b&gt;BlastP hit with P773_RS0107195&lt;/b&gt;&lt;br&gt;Percentage identity: 33&lt;br&gt;Percentage coverage: 92&lt;br&gt;BLAST bit score: 138&lt;br&gt;E-value: 1.6e-30" id="dummy-11_h11_3_2" locus_tag="SFRA_RS05635"  />
</g>
<g id="a11_003"  >
<polygon class="clusterblast-orf" style="stroke-width:1; stroke:black; fill:#15d815; " points="34,90 37,90 42,85 37,80 34,80 34,90 " description="&lt;b&gt;SFRA_RS05640&lt;/b&gt;&lt;br&gt;ectoine/hydroxyectoine ABC transporter permease subunit EhuC&lt;br&gt;Location: 32655 - 33401&lt;br&gt;&lt;br&gt;&lt;b&gt;BlastP hit with P773_RS0107200&lt;/b&gt;&lt;br&gt;Percentage identity: 40&lt;br&gt;Percentage coverage: 93&lt;br&gt;BLAST bit score: 135&lt;br&gt;E-value: 6.3e-30" id="dummy-11_h11_3_3" locus_tag="SFRA_RS05640"  />
</g>
<g id="a11_004"  >
<polygon class="clusterblast-orf" style="stroke-width:1; stroke:black; fill:#15d815; " points="42,90 45,90 50,85 45,80 42,80 42,90 " description="&lt;b&gt;SFRA_RS05645&lt;/b&gt;&lt;br&gt;ectoine/hydroxyectoine ABC transporter permease subunit EhuD&lt;br&gt;Location: 33401 - 34051&lt;br&gt;&lt;br&gt;&lt;b&gt;BlastP hit with P773_RS0107200&lt;/b&gt;&lt;br&gt;Percentage identity: 32&lt;br&gt;Percentage coverage: 84&lt;br&gt;BLAST bit score: 107&lt;br&gt;E-value: 1.8e-21&lt;br&gt;&lt;br&gt;&lt;b&gt;BlastP hit with P773_RS0107205&lt;/b&gt;&lt;br&gt;Percentage identity: 40&lt;br&gt;Percentage coverage: 93&lt;br&gt;BLAST bit score: 178&lt;br&gt;E-value: 6.6e-43" id="dummy-11_h11_3_4" locus_tag="SFRA_RS05645"  />
</g>
<g id="a11_005"  >
<polygon class="clusterblast-orf" style="stroke-width:1; stroke:black; fill:#1563d8; " points="50,90 54,90 59,85 54,80 50,80 50,90 " description="&lt;b&gt;SFRA_RS05650&lt;/b&gt;&lt;br&gt;ectoine/hydroxyectoine ABC transporter ATP-binding protein EhuA&lt;br&gt;Location: 34041 - 34853&lt;br&gt;&lt;br&gt;&lt;b&gt;BlastP hit with P773_RS0107210&lt;/b&gt;&lt;br&gt;Percentage identity: 59&lt;br&gt;Percentage coverage: 96&lt;br&gt;BLAST bit score: 305&lt;br&gt;E-value: 5.4e-81" id="dummy-11_h11_3_5" locus_tag="SFRA_RS05650"  />
</g>
<g id="a11_006"  >
<polygon class="clusterblast-orf" style="stroke-width:1; stroke:black; fill:white; " points="62,90 66,90 71,85 66,80 62,80 62,90 " description="&lt;b&gt;SFRA_RS05655&lt;/b&gt;&lt;br&gt;IclR family transcriptional regulator&lt;br&gt;Location: 35197 - 35952" id="dummy-11_h11_3_6" locus_tag="SFRA_RS05655"  />
</g>
<g id="a11_007"  >
<polygon class="clusterblast-orf" style="stroke-width:1; stroke:black; fill:white; " points="78,90 89,90 94,85 89,80 78,80 78,90 " description="&lt;b&gt;SFRA_RS05665&lt;/b&gt;&lt;br&gt;tannase/feruloyl esterase family alpha/beta hydrolase&lt;br&gt;Location: 36560 - 37990" id="dummy-11_h11_3_7" locus_tag="SFRA_RS05665"  />
</g>
<g id="a11_008"  >
<polygon class="clusterblast-orf" style="stroke-width:1; stroke:black; fill:white; " points="97,90 108,90 113,85 108,80 97,80 97,90 " description="&lt;b&gt;SFRA_RS05670&lt;/b&gt;&lt;br&gt;esterase&lt;br&gt;Location: 38285 - 39763" id="dummy-11_h11_3_8" locus_tag="SFRA_RS05670"  />
</g>
<g id="a11_009"  >
<polygon class="clusterblast-orf" style="stroke-width:1; stroke:black; fill:white; " points="114,90 118,85 114,80 114,90 " description="&lt;b&gt;SFRA_RS32395&lt;/b&gt;&lt;br&gt;hypothetical protein&lt;br&gt;Location: 39816 - 40133" id="dummy-11_h11_3_9" locus_tag="SFRA_RS32395"  />
</g>
<g id="a11_0010"  >
<polygon class="clusterblast-orf" style="stroke-width:1; stroke:black; fill:white; " points="118,85 123,80 124,80 124,90 123,90 118,85 " description="&lt;b&gt;SFRA_RS05680&lt;/b&gt;&lt;br&gt;chitin-binding protein&lt;br&gt;Location: 40130 - 40723" id="dummy-11_h11_3_10" locus_tag="SFRA_RS05680"  />
</g>
<g id="a11_0011"  >
<polygon class="clusterblast-orf" style="stroke-width:1; stroke:black; fill:white; " points="126,85 129,80 129,90 126,85 " description="&lt;b&gt;SFRA_RS35010&lt;/b&gt;&lt;br&gt;hypothetical protein&lt;br&gt;Location: 40900 - 41151" id="dummy-11_h11_3_11" locus_tag="SFRA_RS35010"  />
</g>
<g id="a11_0012"  >
<polygon class="clusterblast-orf" style="stroke-width:1; stroke:black; fill:white; " points="128,85 133,80 136,80 136,90 133,90 128,85 " description="&lt;b&gt;SFRA_RS05685&lt;/b&gt;&lt;br&gt;hypothetical protein&lt;br&gt;Location: 41100 - 41756" id="dummy-11_h11_3_12" locus_tag="SFRA_RS05685"  />
</g>
<g id="a11_0013"  >
<polygon class="clusterblast-orf" style="stroke-width:1; stroke:black; fill:white; " points="138,90 140,85 138,80 138,90 " description="&lt;b&gt;SFRA_RS33575&lt;/b&gt;&lt;br&gt;GNAT family N-acetyltransferase&lt;br&gt;Location: 41930 - 42169" id="dummy-11_h11_3_13" locus_tag="SFRA_RS33575"  />
</g>
<g id="a11_0014"  >
<polygon class="clusterblast-orf" style="stroke-width:1; stroke:black; fill:white; " points="140,85 145,80 148,80 148,90 145,90 140,85 " description="&lt;b&gt;SFRA_RS05690&lt;/b&gt;&lt;br&gt;hypothetical protein&lt;br&gt;Location: 42160 - 42816" id="dummy-11_h11_3_14" locus_tag="SFRA_RS05690"  />
</g>
<g id="a11_0015"  >
<polygon class="clusterblast-orf" style="stroke-width:1; stroke:black; fill:white; " points="151,90 162,90 167,85 162,80 151,80 151,90 " description="&lt;b&gt;SFRA_RS05695&lt;/b&gt;&lt;br&gt;hypothetical protein&lt;br&gt;Location: 43166 - 44512" id="dummy-11_h11_3_15" locus_tag="SFRA_RS05695"  />
</g>
<g id="a11_0016"  >
<polygon class="clusterblast-orf" style="stroke-width:1; stroke:black; fill:white; " points="167,90 172,90 177,85 172,80 167,80 167,90 " description="&lt;b&gt;SFRA_RS05700&lt;/b&gt;&lt;br&gt;aminoglycoside phosphotransferase family protein&lt;br&gt;Location: 44545 - 45450" id="dummy-11_h11_3_16" locus_tag="SFRA_RS05700"  />
</g>
<g id="a11_0017"  >
<polygon class="clusterblast-orf" style="stroke-width:1; stroke:black; fill:white; " points="182,85 185,80 185,90 182,85 " description="&lt;b&gt;SFRA_RS05705&lt;/b&gt;&lt;br&gt;hypothetical protein&lt;br&gt;Location: 45871 - 46182" id="dummy-11_h11_3_17" locus_tag="SFRA_RS05705"  />
</g>
<g id="a11_0018"  >
<polygon class="clusterblast-orf" style="stroke-width:1; stroke:black; fill:white; " points="185,85 190,80 198,80 198,90 190,90 185,85 " description="&lt;b&gt;SFRA_RS35015&lt;/b&gt;&lt;br&gt;polyketide synthase&lt;br&gt;Location: 46179 - 47336" id="dummy-11_h11_3_18" locus_tag="SFRA_RS35015"  />
</g>
<g id="a11_0019"  >
<polygon class="clusterblast-orf" style="stroke-width:1; stroke:black; fill:white; " points="209,85 212,80 212,90 209,85 " description="&lt;b&gt;SFRA_RS05715&lt;/b&gt;&lt;br&gt;acyl carrier protein&lt;br&gt;Location: 48278 - 48565" id="dummy-11_h11_3_19" locus_tag="SFRA_RS05715"  />
</g>
<g id="a11_0020"  >
<polygon class="clusterblast-orf" style="stroke-width:1; stroke:black; fill:white; " points="213,90 214,85 213,80 213,90 " description="&lt;b&gt;SFRA_RS35020&lt;/b&gt;&lt;br&gt;chitin-binding protein&lt;br&gt;Location: 48690 - 48802" id="dummy-11_h11_3_20" locus_tag="SFRA_RS35020"  />
</g>
<g id="a11_0021"  >
<polygon class="clusterblast-orf" style="stroke-width:1; stroke:black; fill:white; " points="218,85 223,80 231,80 231,90 223,90 218,85 " description="&lt;b&gt;SFRA_RS05720&lt;/b&gt;&lt;br&gt;ketosynthase chain-length factor&lt;br&gt;Location: 49092 - 50309" id="dummy-11_h11_3_21" locus_tag="SFRA_RS05720"  />
</g>
<g id="a11_0022"  >
<polygon class="clusterblast-orf" style="stroke-width:1; stroke:black; fill:white; " points="231,85 236,80 245,80 245,90 236,90 231,85 " description="&lt;b&gt;SFRA_RS05725&lt;/b&gt;&lt;br&gt;beta-ketoacyl-[acyl-carrier-protein] synthase family protein&lt;br&gt;Location: 50306 - 51571" id="dummy-11_h11_3_22" locus_tag="SFRA_RS05725"  />
</g>
<g id="a11_0023"  >
<polygon class="clusterblast-orf" style="stroke-width:1; stroke:black; fill:white; " points="251,90 259,90 264,85 259,80 251,80 251,90 " description="&lt;b&gt;SFRA_RS05730&lt;/b&gt;&lt;br&gt;transposase&lt;br&gt;Location: 52037 - 53239" id="dummy-11_h11_3_23" locus_tag="SFRA_RS05730"  />
</g>
<g id="a11_0024"  >
<polygon class="clusterblast-orf" style="stroke-width:1; stroke:black; fill:white; " points="265,85 270,80 283,80 283,90 270,90 265,85 " description="&lt;b&gt;SFRA_RS05735&lt;/b&gt;&lt;br&gt;acyl-CoA carboxylase subunit beta&lt;br&gt;Location: 53290 - 54951" id="dummy-11_h11_3_24" locus_tag="SFRA_RS05735"  />
</g>
<g id="a11_0025"  >
<polygon class="clusterblast-orf" style="stroke-width:1; stroke:black; fill:white; " points="284,85 289,80 293,80 293,90 289,90 284,85 " description="&lt;b&gt;SFRA_RS05740&lt;/b&gt;&lt;br&gt;hypothetical protein&lt;br&gt;Location: 55067 - 55861" id="dummy-11_h11_3_25" locus_tag="SFRA_RS05740"  />
</g>
<g id="a11_0026"  >
<polygon class="clusterblast-orf" style="stroke-width:1; stroke:black; fill:white; " points="295,90 320,90 325,85 320,80 295,80 295,90 " description="&lt;b&gt;SFRA_RS05750&lt;/b&gt;&lt;br&gt;hypothetical protein&lt;br&gt;Location: 56005 - 58734" id="dummy-11_h11_3_26" locus_tag="SFRA_RS05750"  />
</g>
<g id="a11_0027"  >
<polygon class="clusterblast-orf" style="stroke-width:1; stroke:black; fill:white; " points="327,90 335,90 340,85 335,80 327,80 327,90 " description="&lt;b&gt;SFRA_RS05755&lt;/b&gt;&lt;br&gt;sensor histidine kinase&lt;br&gt;Location: 58830 - 60077" id="dummy-11_h11_3_27" locus_tag="SFRA_RS05755"  />
</g>
<g id="a11_0028"  >
<polygon class="clusterblast-orf" style="stroke-width:1; stroke:black; fill:white; " points="341,90 343,90 348,85 343,80 341,80 341,90 " description="&lt;b&gt;SFRA_RS05760&lt;/b&gt;&lt;br&gt;DNA-binding response regulator&lt;br&gt;Location: 60132 - 60746" id="dummy-11_h11_3_28" locus_tag="SFRA_RS05760"  />
</g>
<g id="a11_0029"  >
<polygon class="clusterblast-orf" style="stroke-width:1; stroke:black; fill:white; " points="348,85 353,80 358,80 358,90 353,90 348,85 " description="&lt;b&gt;SFRA_RS33585&lt;/b&gt;&lt;br&gt;phosphopantetheinyl transferase&lt;br&gt;Location: 60786 - 61607" id="dummy-11_h11_3_29" locus_tag="SFRA_RS33585"  />
</g>
<g id="a11_0030"  >
<polygon class="clusterblast-orf" style="stroke-width:1; stroke:black; fill:white; " points="358,85 363,80 371,80 371,90 363,90 358,85 " description="&lt;b&gt;SFRA_RS05770&lt;/b&gt;&lt;br&gt;hypothetical protein&lt;br&gt;Location: 61609 - 62853" id="dummy-11_h11_3_30" locus_tag="SFRA_RS05770"  />
</g>
<g id="a11_0031"  >
<polygon class="clusterblast-orf" style="stroke-width:1; stroke:black; fill:white; " points="372,85 377,80 392,80 392,90 377,90 372,85 " description="&lt;b&gt;SFRA_RS05775&lt;/b&gt;&lt;br&gt;hypothetical protein&lt;br&gt;Location: 62924 - 64714" id="dummy-11_h11_3_31" locus_tag="SFRA_RS05775"  />
</g>
<g id="a11_0032"  >
<polygon class="clusterblast-orf" style="stroke-width:1; stroke:black; fill:white; " points="392,85 397,80 413,80 413,90 397,90 392,85 " description="&lt;b&gt;SFRA_RS05780&lt;/b&gt;&lt;br&gt;polyketide synthase&lt;br&gt;Location: 64711 - 66537" id="dummy-11_h11_3_32" locus_tag="SFRA_RS05780"  />
</g>
<g id="a11_0033"  >
<polygon class="clusterblast-orf" style="stroke-width:1; stroke:black; fill:white; " points="413,85 416,80 416,90 413,85 " description="&lt;b&gt;SFRA_RS05785&lt;/b&gt;&lt;br&gt;hypothetical protein&lt;br&gt;Location: 66594 - 66794" id="dummy-11_h11_3_33" locus_tag="SFRA_RS05785"  />
</g>
<g id="a11_0034"  >
<polygon class="clusterblast-orf" style="stroke-width:1; stroke:black; fill:white; " points="417,85 422,80 425,80 425,90 422,90 417,85 " description="&lt;b&gt;SFRA_RS32400&lt;/b&gt;&lt;br&gt;hypothetical protein&lt;br&gt;Location: 66964 - 67599" id="dummy-11_h11_3_34" locus_tag="SFRA_RS32400"  />
</g>
<g id="a11_0035"  >
<polygon class="clusterblast-orf" style="stroke-width:1; stroke:black; fill:white; " points="424,85 429,80 436,80 436,90 429,90 424,85 " description="&lt;b&gt;SFRA_RS05795&lt;/b&gt;&lt;br&gt;cyclase&lt;br&gt;Location: 67586 - 68599" id="dummy-11_h11_3_35" locus_tag="SFRA_RS05795"  />
</g>
<g id="a11_0036"  >
<polygon class="clusterblast-orf" style="stroke-width:1; stroke:black; fill:white; " points="437,85 442,80 448,80 448,90 442,90 437,85 " description="&lt;b&gt;SFRA_RS05800&lt;/b&gt;&lt;br&gt;3-oxoacyl-ACP synthase&lt;br&gt;Location: 68690 - 69718" id="dummy-11_h11_3_36" locus_tag="SFRA_RS05800"  />
</g>
<g id="a11_0037"  >
<polygon class="clusterblast-orf" style="stroke-width:1; stroke:black; fill:white; " points="449,85 454,80 467,80 467,90 454,90 449,85 " description="&lt;b&gt;SFRA_RS05805&lt;/b&gt;&lt;br&gt;citramalate synthase&lt;br&gt;Location: 69746 - 71362" id="dummy-11_h11_3_37" locus_tag="SFRA_RS05805"  />
</g>
<g id="a11_0038"  >
<polygon class="clusterblast-orf" style="stroke-width:1; stroke:black; fill:white; " points="467,85 472,80 479,80 479,90 472,90 467,85 " description="&lt;b&gt;SFRA_RS05810&lt;/b&gt;&lt;br&gt;CoA transferase&lt;br&gt;Location: 71373 - 72518" id="dummy-11_h11_3_38" locus_tag="SFRA_RS05810"  />
</g>
<g id="a11_0039"  >
<polygon class="clusterblast-orf" style="stroke-width:1; stroke:black; fill:white; " points="480,85 485,80 493,80 493,90 485,90 480,85 " description="&lt;b&gt;SFRA_RS05815&lt;/b&gt;&lt;br&gt;cytochrome P450&lt;br&gt;Location: 72527 - 73735" id="dummy-11_h11_3_39" locus_tag="SFRA_RS05815"  />
</g>
<g id="a11_0040"  >
<polygon class="clusterblast-orf" style="stroke-width:1; stroke:black; fill:white; " points="494,85 499,80 507,80 507,90 499,90 494,85 " description="&lt;b&gt;SFRA_RS05820&lt;/b&gt;&lt;br&gt;epoxide hydrolase&lt;br&gt;Location: 73858 - 74979" id="dummy-11_h11_3_40" locus_tag="SFRA_RS05820"  />
</g>
<g id="a11_0041"  >
<polygon class="clusterblast-orf" style="stroke-width:1; stroke:black; fill:white; " points="507,90 509,90 514,85 509,80 507,80 507,90 " description="&lt;b&gt;SFRA_RS05825&lt;/b&gt;&lt;br&gt;hypothetical protein&lt;br&gt;Location: 74978 - 75592" id="dummy-11_h11_3_41" locus_tag="SFRA_RS05825"  />
</g>
<g id="a11_0042"  >
<polygon class="clusterblast-orf" style="stroke-width:1; stroke:black; fill:white; " points="514,90 522,90 527,85 522,80 514,80 514,90 " description="&lt;b&gt;SFRA_RS05830&lt;/b&gt;&lt;br&gt;winged helix DNA-binding domain-containing protein&lt;br&gt;Location: 75609 - 76730" id="dummy-11_h11_3_42" locus_tag="SFRA_RS05830"  />
</g>
<g id="a11_0043"  >
<polygon class="clusterblast-orf" style="stroke-width:1; stroke:black; fill:white; " points="527,85 532,80 537,80 537,90 532,90 527,85 " description="&lt;b&gt;SFRA_RS05835&lt;/b&gt;&lt;br&gt;class I SAM-dependent methyltransferase&lt;br&gt;Location: 76799 - 77650" id="dummy-11_h11_3_43" locus_tag="SFRA_RS05835"  />
</g>
<g id="a11_0044"  >
<polygon class="clusterblast-orf" style="stroke-width:1; stroke:black; fill:white; " points="537,85 542,80 549,80 549,90 542,90 537,85 " description="&lt;b&gt;SFRA_RS05840&lt;/b&gt;&lt;br&gt;hypothetical protein&lt;br&gt;Location: 77647 - 78741" id="dummy-11_h11_3_44" locus_tag="SFRA_RS05840"  />
</g>
<g id="a11_0045"  >
<polygon class="clusterblast-orf" style="stroke-width:1; stroke:black; fill:white; " points="549,85 554,80 571,80 571,90 554,90 549,85 " description="&lt;b&gt;SFRA_RS05845&lt;/b&gt;&lt;br&gt;hypothetical protein&lt;br&gt;Location: 78738 - 80717" id="dummy-11_h11_3_45" locus_tag="SFRA_RS05845"  />
</g>
<g id="a11_0046"  >
<polygon class="clusterblast-orf" style="stroke-width:1; stroke:black; fill:white; " points="571,85 576,80 586,80 586,90 576,90 571,85 " description="&lt;b&gt;SFRA_RS05850&lt;/b&gt;&lt;br&gt;aspartate aminotransferase family protein&lt;br&gt;Location: 80714 - 82012" id="dummy-11_h11_3_46" locus_tag="SFRA_RS05850"  />
</g>
<g id="a11_0047"  >
<polygon class="clusterblast-orf" style="stroke-width:1; stroke:black; fill:white; " points="586,90 598,90 603,85 598,80 586,80 586,90 " description="&lt;b&gt;SFRA_RS05855&lt;/b&gt;&lt;br&gt;hypothetical protein&lt;br&gt;Location: 82045 - 83574" id="dummy-11_h11_3_47" locus_tag="SFRA_RS05855"  />
</g>
<g id="a11_0048"  >
<polygon class="clusterblast-orf" style="stroke-width:1; stroke:black; fill:white; " points="604,85 609,80 611,80 611,90 609,90 604,85 " description="&lt;b&gt;SFRA_RS05860&lt;/b&gt;&lt;br&gt;malonic semialdehyde reductase&lt;br&gt;Location: 83679 - 84278" id="dummy-11_h11_3_48" locus_tag="SFRA_RS05860"  />
</g>
<g id="a11_0049"  >
<polygon class="clusterblast-orf" style="stroke-width:1; stroke:black; fill:white; " points="614,85 619,80 631,80 631,90 619,90 614,85 " description="&lt;b&gt;SFRA_RS05865&lt;/b&gt;&lt;br&gt;hypothetical protein&lt;br&gt;Location: 84540 - 86063" id="dummy-11_h11_3_49" locus_tag="SFRA_RS05865"  />
</g>
<g id="a11_0050"  >
<polygon class="clusterblast-orf" style="stroke-width:1; stroke:black; fill:#63d815; " points="632,85 636,80 636,90 632,85 " description="&lt;b&gt;SFRA_RS05870&lt;/b&gt;&lt;br&gt;ferredoxin&lt;br&gt;Location: 86208 - 86531&lt;br&gt;&lt;br&gt;&lt;b&gt;BlastP hit with P773_RS0107170&lt;/b&gt;&lt;br&gt;Percentage identity: 43&lt;br&gt;Percentage coverage: 101&lt;br&gt;BLAST bit score: 88&lt;br&gt;E-value: 5.5e-16" id="dummy-11_h11_3_50" locus_tag="SFRA_RS05870"  />
</g>
<g id="a11_0051"  >
<polygon class="clusterblast-orf" style="stroke-width:1; stroke:black; fill:white; " points="638,90 649,90 654,85 649,80 638,80 638,90 " description="&lt;b&gt;SFRA_RS05875&lt;/b&gt;&lt;br&gt;MFS transporter&lt;br&gt;Location: 86680 - 88173" id="dummy-11_h11_3_51" locus_tag="SFRA_RS05875"  />
</g>
<g id="a11_0052"  >
<polygon class="clusterblast-orf" style="stroke-width:1; stroke:black; fill:white; " points="656,85 661,80 675,80 675,90 661,90 656,85 " description="&lt;b&gt;SFRA_RS05880&lt;/b&gt;&lt;br&gt;MFS transporter&lt;br&gt;Location: 88281 - 90050" id="dummy-11_h11_3_52" locus_tag="SFRA_RS05880"  />
</g>
<g id="a11_0053"  >
<polygon class="clusterblast-orf" style="stroke-width:1; stroke:black; fill:white; " points="679,85 684,80 689,80 689,90 684,90 679,85 " description="&lt;b&gt;SFRA_RS05885&lt;/b&gt;&lt;br&gt;SDR family oxidoreductase&lt;br&gt;Location: 90332 - 91225" id="dummy-11_h11_3_53" locus_tag="SFRA_RS05885"  />
</g>
<g id="a11_0054"  >
<polygon class="clusterblast-orf" style="stroke-width:1; stroke:black; fill:white; " points="689,85 694,80 705,80 705,90 694,90 689,85 " description="&lt;b&gt;SFRA_RS05890&lt;/b&gt;&lt;br&gt;hypothetical protein&lt;br&gt;Location: 91230 - 92720" id="dummy-11_h11_3_54" locus_tag="SFRA_RS05890"  />
</g>
<g id="a11_0055"  >
<polygon class="clusterblast-orf" style="stroke-width:1; stroke:black; fill:white; " points="705,85 710,80 717,80 717,90 710,90 705,85 " description="&lt;b&gt;SFRA_RS05895&lt;/b&gt;&lt;br&gt;TIGR03560 family F420-dependent LLM class oxidoreductase&lt;br&gt;Location: 92720 - 93742" id="dummy-11_h11_3_55" locus_tag="SFRA_RS05895"  />
</g>
<g id="a11_0056"  >
<polygon class="clusterblast-orf" style="stroke-width:1; stroke:black; fill:white; " points="720,90 726,90 731,85 726,80 720,80 720,90 " description="&lt;b&gt;SFRA_RS05900&lt;/b&gt;&lt;br&gt;NADP-dependent oxidoreductase&lt;br&gt;Location: 94005 - 95057" id="dummy-11_h11_3_56" locus_tag="SFRA_RS05900"  />
</g>
<g id="a11_0057"  >
<polygon class="clusterblast-orf" style="stroke-width:1; stroke:black; fill:white; " points="731,90 744,90 749,85 744,80 731,80 731,90 " description="&lt;b&gt;SFRA_RS05905&lt;/b&gt;&lt;br&gt;MFS transporter&lt;br&gt;Location: 95054 - 96595" id="dummy-11_h11_3_57" locus_tag="SFRA_RS05905"  />
</g>
<g id="a11_0058"  >
<polygon class="clusterblast-orf" style="stroke-width:1; stroke:black; fill:white; " points="750,85 755,80 767,80 767,90 755,90 750,85 " description="&lt;b&gt;SFRA_RS05910&lt;/b&gt;&lt;br&gt;hypothetical protein&lt;br&gt;Location: 96685 - 98253" id="dummy-11_h11_3_58" locus_tag="SFRA_RS05910"  />
</g>
<g id="a11_0059"  >
<polygon class="clusterblast-orf" style="stroke-width:1; stroke:black; fill:white; " points="770,90 775,90 780,85 775,80 770,80 770,90 " description="&lt;b&gt;SFRA_RS05915&lt;/b&gt;&lt;br&gt;LLM class flavin-dependent oxidoreductase&lt;br&gt;Location: 98494 - 99366" id="dummy-11_h11_3_59" locus_tag="SFRA_RS05915"  />
</g>
</svg>
