<svg version="1.1" preserveAspectRatio="none" width="800" y="0" xmlns:xlink="http://www.w3.org/1999/xlink" height="230" x="0" xmlns="http://www.w3.org/2000/svg" viewBox="0 0 800 230"  >
<g label="Query sequence" class="clusterblast-cluster"  >
<text class="clusterblast-acc" y="20" x="5"  >
Query sequence</text>
<line style="stroke-width:1; stroke:grey; " y1="35" x2="778.0" y2="35" x1="10"  />
<polygon class="clusterblast-orf" style="stroke-width:1; stroke:black; fill:white; " points="10,35 15,30 18,30 18,40 15,40 10,35 " description="&lt;b&gt;P773_RS0105755&lt;/b&gt;&lt;br&gt;EVE domain-containing protein&lt;br&gt;Location: 1063773 - 1064187" id="dummy-6_q0_0_all" locus_tag="P773_RS0105755"  />
<polygon class="clusterblast-orf" style="stroke-width:1; stroke:black; fill:white; " points="18,35 23,30 38,30 38,40 23,40 18,35 " description="&lt;b&gt;P773_RS0105760&lt;/b&gt;&lt;br&gt;tRNA (adenosine(37)-N6)-threonylcarbamoyltransferase complex transferase subunit TsaD&lt;br&gt;Location: 1064186 - 1065260" id="dummy-6_q1_0_all" locus_tag="P773_RS0105760"  />
<polygon class="clusterblast-orf" style="stroke-width:1; stroke:black; fill:white; " points="39,40 52,40 57,35 52,30 39,30 39,40 " description="&lt;b&gt;P773_RS0105765&lt;/b&gt;&lt;br&gt;hydroxymethylbilane synthase&lt;br&gt;Location: 1065316 - 1066234" id="dummy-6_q2_0_all" locus_tag="P773_RS0105765"  />
<polygon class="clusterblast-orf" style="stroke-width:1; stroke:black; fill:white; " points="57,40 65,40 70,35 65,30 57,30 57,40 " description="&lt;b&gt;P773_RS0105770&lt;/b&gt;&lt;br&gt;uroporphyrinogen-III synthase&lt;br&gt;Location: 1066235 - 1066934" id="dummy-6_q3_0_all" locus_tag="P773_RS0105770"  />
<polygon class="clusterblast-orf" style="stroke-width:1; stroke:black; fill:white; " points="70,40 86,40 91,35 86,30 70,30 70,40 " description="&lt;b&gt;P773_RS0105775&lt;/b&gt;&lt;br&gt;mechanosensitive ion channel family protein&lt;br&gt;Location: 1066936 - 1068022" id="dummy-6_q4_0_all" locus_tag="P773_RS0105775"  />
<polygon class="clusterblast-orf" style="stroke-width:1; stroke:black; fill:white; " points="91,40 92,40 97,35 92,30 91,30 91,40 " description="&lt;b&gt;P773_RS0105780&lt;/b&gt;&lt;br&gt;YggT family protein&lt;br&gt;Location: 1068018 - 1068309" id="dummy-6_q5_0_all" locus_tag="P773_RS0105780"  />
<polygon class="clusterblast-orf" style="stroke-width:1; stroke:black; fill:white; " points="97,40 108,40 113,35 108,30 97,30 97,40 " description="&lt;b&gt;P773_RS0105785&lt;/b&gt;&lt;br&gt;bifunctional 5,10-methylene-tetrahydrofolate dehydrogenase/5,10-methylene-tetrahydrofolate cyclohydrolase&lt;br&gt;Location: 1068318 - 1069164" id="dummy-6_q6_0_all" locus_tag="P773_RS0105785"  />
<polygon class="clusterblast-orf" style="stroke-width:1; stroke:black; fill:white; " points="114,40 118,35 114,30 114,40 " description="&lt;b&gt;P773_RS0105790&lt;/b&gt;&lt;br&gt;hypothetical protein&lt;br&gt;Location: 1069201 - 1069405" id="dummy-6_q7_0_all" locus_tag="P773_RS0105790"  />
<polygon class="clusterblast-orf" style="stroke-width:1; stroke:black; fill:white; " points="118,40 118,40 123,35 118,30 118,30 118,40 " description="&lt;b&gt;P773_RS0105795&lt;/b&gt;&lt;br&gt;hypothetical protein&lt;br&gt;Location: 1069408 - 1069675" id="dummy-6_q8_0_all" locus_tag="P773_RS0105795"  />
<polygon class="clusterblast-orf" style="stroke-width:1; stroke:black; fill:white; " points="123,35 128,30 140,30 140,40 128,40 123,35 " description="&lt;b&gt;P773_RS0105800&lt;/b&gt;&lt;br&gt;membrane protein&lt;br&gt;Location: 1069671 - 1070574" id="dummy-6_q9_0_all" locus_tag="P773_RS0105800"  />
<polygon class="clusterblast-orf" style="stroke-width:1; stroke:black; fill:white; " points="142,35 147,30 160,30 160,40 147,40 142,35 " description="&lt;b&gt;P773_RS0105805&lt;/b&gt;&lt;br&gt;MBL fold metallo-hydrolase&lt;br&gt;Location: 1070641 - 1071625" id="dummy-6_q10_0_all" locus_tag="P773_RS0105805"  />
<polygon class="clusterblast-orf" style="stroke-width:1; stroke:black; fill:white; " points="160,35 165,30 182,30 182,40 165,40 160,35 " description="&lt;b&gt;P773_RS0105810&lt;/b&gt;&lt;br&gt;PQQ-dependent sugar dehydrogenase&lt;br&gt;Location: 1071628 - 1072726" id="dummy-6_q11_0_all" locus_tag="P773_RS0105810"  />
<polygon class="clusterblast-orf" style="stroke-width:1; stroke:black; fill:#d81515; " points="181,35 186,30 195,30 195,40 186,40 181,35 " description="&lt;b&gt;P773_RS0105815&lt;/b&gt;&lt;br&gt;short-chain dehydrogenase&lt;br&gt;Location: 1072700 - 1073411" id="dummy-6_q12_0_all" locus_tag="P773_RS0105815"  />
<polygon class="clusterblast-orf" style="stroke-width:1; stroke:black; fill:#33d815; " points="195,40 219,40 224,35 219,30 195,30 195,40 " description="&lt;b&gt;P773_RS0105820&lt;/b&gt;&lt;br&gt;cryptochrome/photolyase family protein&lt;br&gt;Location: 1073438 - 1074929" id="dummy-6_q13_0_all" locus_tag="P773_RS0105820"  />
<polygon class="clusterblast-orf" style="stroke-width:1; stroke:black; fill:white; " points="224,40 226,35 224,30 224,40 " description="&lt;b&gt;P773_RS07920&lt;/b&gt;&lt;br&gt;DUF2256 domain-containing protein&lt;br&gt;Location: 1074928 - 1075051" id="dummy-6_q14_0_all" locus_tag="P773_RS07920"  />
<polygon class="clusterblast-orf" style="stroke-width:1; stroke:black; fill:white; " points="226,40 229,40 234,35 229,30 226,30 226,40 " description="&lt;b&gt;P773_RS0105830&lt;/b&gt;&lt;br&gt;DedA family protein&lt;br&gt;Location: 1075047 - 1075464" id="dummy-6_q15_0_all" locus_tag="P773_RS0105830"  />
<polygon class="clusterblast-orf" style="stroke-width:1; stroke:black; fill:white; " points="234,40 243,40 248,35 243,30 234,30 234,40 " description="&lt;b&gt;P773_RS0105835&lt;/b&gt;&lt;br&gt;type 1 glutamine amidotransferase&lt;br&gt;Location: 1075467 - 1076187" id="dummy-6_q16_0_all" locus_tag="P773_RS0105835"  />
<polygon class="clusterblast-orf" style="stroke-width:1; stroke:black; fill:white; " points="248,40 252,35 248,30 248,40 " description="&lt;b&gt;P773_RS0105840&lt;/b&gt;&lt;br&gt;hypothetical protein&lt;br&gt;Location: 1076183 - 1076405" id="dummy-6_q17_0_all" locus_tag="P773_RS0105840"  />
<polygon class="clusterblast-orf" style="stroke-width:1; stroke:black; fill:white; " points="253,40 289,40 294,35 289,30 253,30 253,40 " description="&lt;b&gt;P773_RS0105845&lt;/b&gt;&lt;br&gt;ammonium transporter&lt;br&gt;Location: 1076452 - 1078600" id="dummy-6_q18_0_all" locus_tag="P773_RS0105845"  />
<polygon class="clusterblast-orf" style="stroke-width:1; stroke:black; fill:white; " points="295,35 300,30 317,30 317,40 300,40 295,35 " description="&lt;b&gt;P773_RS0105850&lt;/b&gt;&lt;br&gt;deoxyribodipyrimidine photo-lyase&lt;br&gt;Location: 1078630 - 1079770" id="dummy-6_q19_0_all" locus_tag="P773_RS0105850"  />
<polygon class="clusterblast-orf" style="stroke-width:1; stroke:black; fill:white; " points="317,35 322,30 324,30 324,40 322,40 317,35 " description="&lt;b&gt;P773_RS0105855&lt;/b&gt;&lt;br&gt;phosphate starvation protein PhoH&lt;br&gt;Location: 1079776 - 1080157" id="dummy-6_q20_0_all" locus_tag="P773_RS0105855"  />
<polygon class="clusterblast-orf" style="stroke-width:1; stroke:black; fill:white; " points="324,35 329,30 333,30 333,40 329,40 324,35 " description="&lt;b&gt;P773_RS0105860&lt;/b&gt;&lt;br&gt;hypothetical protein&lt;br&gt;Location: 1080156 - 1080615" id="dummy-6_q21_0_all" locus_tag="P773_RS0105860"  />
<polygon class="clusterblast-orf" style="stroke-width:1; stroke:black; fill:white; " points="334,35 339,30 357,30 357,40 339,40 334,35 " description="&lt;b&gt;P773_RS0105865&lt;/b&gt;&lt;br&gt;argininosuccinate synthase&lt;br&gt;Location: 1080675 - 1081857" id="dummy-6_q22_0_all" locus_tag="P773_RS0105865"  />
<polygon class="clusterblast-orf" style="stroke-width:1; stroke:black; fill:white; " points="357,35 362,30 367,30 367,40 362,40 357,35 " description="&lt;b&gt;P773_RS0105870&lt;/b&gt;&lt;br&gt;hypothetical protein&lt;br&gt;Location: 1081860 - 1082373" id="dummy-6_q23_0_all" locus_tag="P773_RS0105870"  />
<polygon class="clusterblast-orf" style="stroke-width:1; stroke:black; fill:white; " points="366,35 371,30 386,30 386,40 371,40 366,35 " description="&lt;b&gt;P773_RS0105875&lt;/b&gt;&lt;br&gt;aldo/keto reductase&lt;br&gt;Location: 1082363 - 1083401" id="dummy-6_q24_0_all" locus_tag="P773_RS0105875"  />
<polygon class="clusterblast-orf" style="stroke-width:1; stroke:black; fill:#15abd8; " points="388,40 398,40 403,35 398,30 388,30 388,40 " description="&lt;b&gt;P773_RS0105880&lt;/b&gt;&lt;br&gt;BAX inhibitor (BI)-1/YccA family protein&lt;br&gt;Location: 1083484 - 1084246" id="dummy-6_q25_0_all" locus_tag="P773_RS0105880"  />
<polygon class="clusterblast-orf" style="stroke-width:1; stroke:black; fill:white; " points="403,35 408,30 409,30 409,40 408,40 403,35 " description="&lt;b&gt;P773_RS0105885&lt;/b&gt;&lt;br&gt;DUF2794 domain-containing protein&lt;br&gt;Location: 1084254 - 1084593" id="dummy-6_q26_0_all" locus_tag="P773_RS0105885"  />
<polygon class="clusterblast-orf" style="stroke-width:1; stroke:black; fill:white; " points="409,35 414,30 420,30 420,40 414,40 409,35 " description="&lt;b&gt;P773_RS0105890&lt;/b&gt;&lt;br&gt;septation protein A&lt;br&gt;Location: 1084585 - 1085137" id="dummy-6_q27_0_all" locus_tag="P773_RS0105890"  />
<polygon class="clusterblast-orf" style="stroke-width:1; stroke:black; fill:white; " points="421,40 422,40 427,35 422,30 421,30 421,40 " description="&lt;b&gt;P773_RS0105895&lt;/b&gt;&lt;br&gt;heat shock protein HspQ&lt;br&gt;Location: 1085223 - 1085544" id="dummy-6_q28_0_all" locus_tag="P773_RS0105895"  />
<polygon class="clusterblast-orf" style="stroke-width:1; stroke:black; fill:#8d15d8; " points="431,40 439,40 444,35 439,30 431,30 431,40 " description="&lt;b&gt;P773_RS0105900&lt;/b&gt;&lt;br&gt;heme transporter HemC&lt;br&gt;Location: 1085720 - 1086428" id="dummy-6_q29_0_all" locus_tag="P773_RS0105900"  />
<polygon class="clusterblast-orf" style="stroke-width:1; stroke:black; fill:white; " points="444,40 444,40 449,35 444,30 444,30 444,40 " description="&lt;b&gt;P773_RS0105905&lt;/b&gt;&lt;br&gt;heme exporter protein D&lt;br&gt;Location: 1086424 - 1086652" id="dummy-6_q30_0_all" locus_tag="P773_RS0105905"  />
<polygon class="clusterblast-orf" style="stroke-width:1; stroke:black; fill:#d86f15; " points="449,40 452,40 457,35 452,30 449,30 449,40 " description="&lt;b&gt;P773_RS0105910&lt;/b&gt;&lt;br&gt;cytochrome c maturation protein CcmE&lt;br&gt;Location: 1086662 - 1087079" id="dummy-6_q31_0_all" locus_tag="P773_RS0105910"  />
<polygon class="clusterblast-orf" style="stroke-width:1; stroke:black; fill:#15d851; " points="457,40 488,40 493,35 488,30 457,30 457,40 " description="&lt;b&gt;P773_RS0105915&lt;/b&gt;&lt;br&gt;cytochrome c biogenesis protein&lt;br&gt;Location: 1087082 - 1088960" id="dummy-6_q32_0_all" locus_tag="P773_RS0105915"  />
<polygon class="clusterblast-orf" style="stroke-width:1; stroke:black; fill:#1551d8; " points="493,40 498,40 503,35 498,30 493,30 493,40 " description="&lt;b&gt;P773_RS0105920&lt;/b&gt;&lt;br&gt;DsbE family thiol:disulfide interchange protein&lt;br&gt;Location: 1088952 - 1089471" id="dummy-6_q33_0_all" locus_tag="P773_RS0105920"  />
<polygon class="clusterblast-orf" style="stroke-width:1; stroke:black; fill:#d815c9; " points="503,40 505,40 510,35 505,30 503,30 503,40 " description="&lt;b&gt;P773_RS0105925&lt;/b&gt;&lt;br&gt;cytochrome c-type biogenesis protein CcmH&lt;br&gt;Location: 1089467 - 1089830" id="dummy-6_q34_0_all" locus_tag="P773_RS0105925"  />
<polygon class="clusterblast-orf" style="stroke-width:1; stroke:black; fill:white; " points="510,40 515,40 520,35 515,30 510,30 510,40 " description="&lt;b&gt;P773_RS0105930&lt;/b&gt;&lt;br&gt;acyloxyacyl hydrolase&lt;br&gt;Location: 1089840 - 1090353" id="dummy-6_q35_0_all" locus_tag="P773_RS0105930"  />
<polygon class="clusterblast-orf" style="stroke-width:1; stroke:black; fill:white; " points="520,40 537,40 542,35 537,30 520,30 520,40 " description="&lt;b&gt;P773_RS0105935&lt;/b&gt;&lt;br&gt;alpha-hydroxy-acid oxidizing protein&lt;br&gt;Location: 1090362 - 1091514" id="dummy-6_q36_0_all" locus_tag="P773_RS0105935"  />
<polygon class="clusterblast-orf" style="stroke-width:1; stroke:black; fill:white; " points="542,40 559,40 564,35 559,30 542,30 542,40 " description="&lt;b&gt;P773_RS0105940&lt;/b&gt;&lt;br&gt;alpha-hydroxy-acid oxidizing protein&lt;br&gt;Location: 1091516 - 1092668" id="dummy-6_q37_0_all" locus_tag="P773_RS0105940"  />
<polygon class="clusterblast-orf" style="stroke-width:1; stroke:black; fill:white; " points="564,40 582,40 587,35 582,30 564,30 564,40 " description="&lt;b&gt;P773_RS0105945&lt;/b&gt;&lt;br&gt;aspartate aminotransferase&lt;br&gt;Location: 1092683 - 1093850" id="dummy-6_q38_0_all" locus_tag="P773_RS0105945"  />
<polygon class="clusterblast-orf" style="stroke-width:1; stroke:black; fill:white; " points="588,40 609,40 614,35 609,30 588,30 588,40 " description="&lt;b&gt;P773_RS0105950&lt;/b&gt;&lt;br&gt;FAD-binding protein&lt;br&gt;Location: 1093889 - 1095263" id="dummy-6_q39_0_all" locus_tag="P773_RS0105950"  />
<polygon class="clusterblast-orf" style="stroke-width:1; stroke:black; fill:#d8c915; " points="614,40 628,40 633,35 628,30 614,30 614,40 " description="&lt;b&gt;P773_RS0105955&lt;/b&gt;&lt;br&gt;D-glycerate dehydrogenase&lt;br&gt;Location: 1095278 - 1096235" id="dummy-6_q40_0_all" locus_tag="P773_RS0105955"  />
<polygon class="clusterblast-orf" style="stroke-width:1; stroke:black; fill:#15d8ab; " points="635,40 652,40 657,35 652,30 635,30 635,40 " description="&lt;b&gt;P773_RS0105960&lt;/b&gt;&lt;br&gt;C4-dicarboxylate ABC transporter&lt;br&gt;Location: 1096361 - 1097519" id="dummy-6_q41_0_all" locus_tag="P773_RS0105960"  />
<polygon class="clusterblast-orf" style="stroke-width:1; stroke:black; fill:#3315d8; " points="659,40 665,40 670,35 665,30 659,30 659,40 " description="&lt;b&gt;P773_RS0105965&lt;/b&gt;&lt;br&gt;TRAP transporter permease DctQ&lt;br&gt;Location: 1097591 - 1098179" id="dummy-6_q42_0_all" locus_tag="P773_RS0105965"  />
<polygon class="clusterblast-orf" style="stroke-width:1; stroke:black; fill:#d8156f; " points="670,40 691,40 696,35 691,30 670,30 670,40 " description="&lt;b&gt;P773_RS0105970&lt;/b&gt;&lt;br&gt;C4-dicarboxylate ABC transporter&lt;br&gt;Location: 1098168 - 1099530" id="dummy-6_q43_0_all" locus_tag="P773_RS0105970"  />
<polygon class="clusterblast-orf" style="stroke-width:1; stroke:black; fill:#8dd815; " points="696,40 716,40 721,35 716,30 696,30 696,40 " description="&lt;b&gt;P773_RS0105975&lt;/b&gt;&lt;br&gt;amidase&lt;br&gt;Location: 1099532 - 1100861" id="dummy-6_q44_0_all" locus_tag="P773_RS0105975"  />
<polygon class="clusterblast-orf" style="stroke-width:1; stroke:black; fill:white; " points="725,40 737,40 742,35 737,30 725,30 725,40 " description="&lt;b&gt;P773_RS0105985&lt;/b&gt;&lt;br&gt;EamA/RhaT family transporter&lt;br&gt;Location: 1101057 - 1101963" id="dummy-6_q45_0_all" locus_tag="P773_RS0105985"  />
<polygon class="clusterblast-orf" style="stroke-width:1; stroke:black; fill:white; " points="742,40 753,40 758,35 753,30 742,30 742,40 " description="&lt;b&gt;P773_RS0105990&lt;/b&gt;&lt;br&gt;alpha/beta hydrolase&lt;br&gt;Location: 1101946 - 1102765" id="dummy-6_q46_0_all" locus_tag="P773_RS0105990"  />
<polygon class="clusterblast-orf" style="stroke-width:1; stroke:black; fill:white; " points="759,40 765,40 770,35 765,30 759,30 759,40 " description="&lt;b&gt;P773_RS0105995&lt;/b&gt;&lt;br&gt;hypothetical protein&lt;br&gt;Location: 1102813 - 1103377" id="dummy-6_q47_0_all" locus_tag="P773_RS0105995"  />
</g>
<g label="NZ_KB892857" class="clusterblast-cluster" description="NZ_KB892857_c3: Uliginosibacterium gangwonense DSM 18521 B145DRAFT scaffold 3... (10% of genes show similarity), arylpolyene"  >
<text class="clusterblast-acc" y="70" x="5"  >
<a xlink:href="https://antismash-db.secondarymetabolites.org/go/NZ_KB892857/3" target="_blank">NZ_KB892857_c3</a>: Uliginosibacterium gangwonense DSM 18521 B145DRAFT scaffold 3... (10% of genes show similarity), arylpolyene</text>
<line style="stroke-width:1; stroke:grey; " y1="85" x2="778.0" y2="85" x1="10"  />
</g>
<g id="a6_000"  >
<polygon class="clusterblast-orf" style="stroke-width:1; stroke:black; fill:white; " points="0,90 21,90 26,85 21,80 0,80 0,90 " description="&lt;b&gt;B145_RS25845&lt;/b&gt;&lt;br&gt;hypothetical protein&lt;br&gt;Location: 178380 - 177022" id="dummy-6_h6_4_0" locus_tag="B145_RS25845"  />
</g>
<g id="a6_001"  >
<polygon class="clusterblast-orf" style="stroke-width:1; stroke:black; fill:white; " points="26,85 31,80 43,80 43,90 31,90 26,85 " description="&lt;b&gt;B145_RS0115390&lt;/b&gt;&lt;br&gt;fructosamine kinase family protein&lt;br&gt;Location: 177013 - 176114" id="dummy-6_h6_4_1" locus_tag="B145_RS0115390"  />
</g>
<g id="a6_002"  >
<polygon class="clusterblast-orf" style="stroke-width:1; stroke:black; fill:white; " points="44,85 49,80 72,80 72,90 49,90 44,85 " description="&lt;b&gt;B145_RS0115385&lt;/b&gt;&lt;br&gt;argininosuccinate lyase&lt;br&gt;Location: 176051 - 174624" id="dummy-6_h6_4_2" locus_tag="B145_RS0115385"  />
</g>
<g id="a6_003"  >
<polygon class="clusterblast-orf" style="stroke-width:1; stroke:black; fill:white; " points="73,90 88,90 93,85 88,80 73,80 73,90 " description="&lt;b&gt;B145_RS0115380&lt;/b&gt;&lt;br&gt;sensor histidine kinase&lt;br&gt;Location: 174544 - 173501" id="dummy-6_h6_4_3" locus_tag="B145_RS0115380"  />
</g>
<g id="a6_004"  >
<polygon class="clusterblast-orf" style="stroke-width:1; stroke:black; fill:white; " points="93,90 103,90 108,85 103,80 93,80 93,90 " description="&lt;b&gt;B145_RS0115375&lt;/b&gt;&lt;br&gt;DNA-binding response regulator&lt;br&gt;Location: 173501 - 172740" id="dummy-6_h6_4_4" locus_tag="B145_RS0115375"  />
</g>
<g id="a6_005"  >
<polygon class="clusterblast-orf" style="stroke-width:1; stroke:black; fill:white; " points="113,85 118,80 153,80 153,90 118,90 113,85 " description="&lt;b&gt;B145_RS0115370&lt;/b&gt;&lt;br&gt;molybdopterin oxidoreductase family protein&lt;br&gt;Location: 172471 - 170372" id="dummy-6_h6_4_5" locus_tag="B145_RS0115370"  />
</g>
<g id="a6_006"  >
<polygon class="clusterblast-orf" style="stroke-width:1; stroke:black; fill:white; " points="153,85 158,80 166,80 166,90 158,90 153,85 " description="&lt;b&gt;B145_RS27610&lt;/b&gt;&lt;br&gt;hypothetical protein&lt;br&gt;Location: 170356 - 169718" id="dummy-6_h6_4_6" locus_tag="B145_RS27610"  />
</g>
<g id="a6_007"  >
<polygon class="clusterblast-orf" style="stroke-width:1; stroke:black; fill:white; " points="166,85 171,80 178,80 178,90 171,90 166,85 " description="&lt;b&gt;B145_RS0115360&lt;/b&gt;&lt;br&gt;orotate phosphoribosyltransferase&lt;br&gt;Location: 169721 - 169077" id="dummy-6_h6_4_7" locus_tag="B145_RS0115360"  />
</g>
<g id="a6_008"  >
<polygon class="clusterblast-orf" style="stroke-width:1; stroke:black; fill:white; " points="179,90 189,90 194,85 189,80 179,80 179,90 " description="&lt;b&gt;B145_RS0115355&lt;/b&gt;&lt;br&gt;exodeoxyribonuclease III&lt;br&gt;Location: 169044 - 168250" id="dummy-6_h6_4_8" locus_tag="B145_RS0115355"  />
</g>
<g id="a6_009"  >
<polygon class="clusterblast-orf" style="stroke-width:1; stroke:black; fill:white; " points="196,90 196,90 201,85 196,80 196,80 196,90 " description="&lt;b&gt;B145_RS25835&lt;/b&gt;&lt;br&gt;acyl carrier protein&lt;br&gt;Location: 168115 - 167870" id="dummy-6_h6_4_9" locus_tag="B145_RS25835"  />
</g>
<g id="a6_0010"  >
<polygon class="clusterblast-orf" style="stroke-width:1; stroke:black; fill:white; " points="201,90 220,90 225,85 220,80 201,80 201,90 " description="&lt;b&gt;B145_RS0115345&lt;/b&gt;&lt;br&gt;beta-ketoacyl-[acyl-carrier-protein] synthase family protein&lt;br&gt;Location: 167877 - 166624" id="dummy-6_h6_4_10" locus_tag="B145_RS0115345"  />
</g>
<g id="a6_0011"  >
<polygon class="clusterblast-orf" style="stroke-width:1; stroke:black; fill:white; " points="225,90 239,90 244,85 239,80 225,80 225,90 " description="&lt;b&gt;B145_RS25830&lt;/b&gt;&lt;br&gt;hypothetical protein&lt;br&gt;Location: 166604 - 165618" id="dummy-6_h6_4_11" locus_tag="B145_RS25830"  />
</g>
<g id="a6_0012"  >
<polygon class="clusterblast-orf" style="stroke-width:1; stroke:black; fill:white; " points="244,90 255,90 260,85 255,80 244,80 244,90 " description="&lt;b&gt;B145_RS0115335&lt;/b&gt;&lt;br&gt;MipA/OmpV family protein&lt;br&gt;Location: 165618 - 164776" id="dummy-6_h6_4_12" locus_tag="B145_RS0115335"  />
</g>
<g id="a6_0013"  >
<polygon class="clusterblast-orf" style="stroke-width:1; stroke:black; fill:white; " points="261,90 271,90 276,85 271,80 261,80 261,90 " description="&lt;b&gt;B145_RS0115330&lt;/b&gt;&lt;br&gt;1-acyl-sn-glycerol-3-phosphate acyltransferase&lt;br&gt;Location: 164771 - 163968" id="dummy-6_h6_4_13" locus_tag="B145_RS0115330"  />
</g>
<g id="a6_0014"  >
<polygon class="clusterblast-orf" style="stroke-width:1; stroke:black; fill:white; " points="276,90 286,90 291,85 286,80 276,80 276,90 " description="&lt;b&gt;B145_RS0115325&lt;/b&gt;&lt;br&gt;glycosyltransferase family 2 protein&lt;br&gt;Location: 163971 - 163204" id="dummy-6_h6_4_14" locus_tag="B145_RS0115325"  />
</g>
<g id="a6_0015"  >
<polygon class="clusterblast-orf" style="stroke-width:1; stroke:black; fill:white; " points="291,90 301,90 306,85 301,80 291,80 291,90 " description="&lt;b&gt;B145_RS0115320&lt;/b&gt;&lt;br&gt;methyltransferase domain-containing protein&lt;br&gt;Location: 163189 - 162413" id="dummy-6_h6_4_15" locus_tag="B145_RS0115320"  />
</g>
<g id="a6_0016"  >
<polygon class="clusterblast-orf" style="stroke-width:1; stroke:black; fill:white; " points="309,85 314,80 319,80 319,90 314,90 309,85 " description="&lt;b&gt;B145_RS0115315&lt;/b&gt;&lt;br&gt;thiol peroxidase&lt;br&gt;Location: 162227 - 161727" id="dummy-6_h6_4_16" locus_tag="B145_RS0115315"  />
</g>
<g id="a6_0017"  >
<polygon class="clusterblast-orf" style="stroke-width:1; stroke:black; fill:white; " points="323,85 328,80 334,80 334,90 328,90 323,85 " description="&lt;b&gt;B145_RS0115310&lt;/b&gt;&lt;br&gt;hypothetical protein&lt;br&gt;Location: 161543 - 160962" id="dummy-6_h6_4_17" locus_tag="B145_RS0115310"  />
</g>
<g id="a6_0018"  >
<polygon class="clusterblast-orf" style="stroke-width:1; stroke:black; fill:white; " points="340,85 345,80 354,80 354,90 345,90 340,85 " description="&lt;b&gt;B145_RS0115305&lt;/b&gt;&lt;br&gt;3-oxoacyl-ACP reductase FabG&lt;br&gt;Location: 160617 - 159898" id="dummy-6_h6_4_18" locus_tag="B145_RS0115305"  />
</g>
<g id="a6_0019"  >
<polygon class="clusterblast-orf" style="stroke-width:1; stroke:black; fill:white; " points="354,85 359,80 363,80 363,90 359,90 354,85 " description="&lt;b&gt;B145_RS0115300&lt;/b&gt;&lt;br&gt;hypothetical protein&lt;br&gt;Location: 159893 - 159456" id="dummy-6_h6_4_19" locus_tag="B145_RS0115300"  />
</g>
<g id="a6_0020"  >
<polygon class="clusterblast-orf" style="stroke-width:1; stroke:black; fill:white; " points="362,85 367,80 378,80 378,90 367,90 362,85 " description="&lt;b&gt;B145_RS0115295&lt;/b&gt;&lt;br&gt;hypothetical protein&lt;br&gt;Location: 159459 - 158665" id="dummy-6_h6_4_20" locus_tag="B145_RS0115295"  />
</g>
<g id="a6_0021"  >
<polygon class="clusterblast-orf" style="stroke-width:1; stroke:black; fill:white; " points="378,85 383,80 401,80 401,90 383,90 378,85 " description="&lt;b&gt;B145_RS0115290&lt;/b&gt;&lt;br&gt;beta-ketoacyl-[acyl-carrier-protein] synthase II&lt;br&gt;Location: 158668 - 157475" id="dummy-6_h6_4_21" locus_tag="B145_RS0115290"  />
</g>
<g id="a6_0022"  >
<polygon class="clusterblast-orf" style="stroke-width:1; stroke:black; fill:white; " points="406,90 413,90 418,85 413,80 406,80 406,90 " description="&lt;b&gt;B145_RS0115285&lt;/b&gt;&lt;br&gt;cytochrome c biogenesis heme-transporting ATPase CcmA&lt;br&gt;Location: 157207 - 156581" id="dummy-6_h6_4_22" locus_tag="B145_RS0115285"  />
</g>
<g id="a6_0023"  >
<polygon class="clusterblast-orf" style="stroke-width:1; stroke:black; fill:white; " points="418,90 425,90 430,85 425,80 418,80 418,90 " description="&lt;b&gt;B145_RS0115280&lt;/b&gt;&lt;br&gt;heme exporter protein CcmB&lt;br&gt;Location: 156584 - 155919" id="dummy-6_h6_4_23" locus_tag="B145_RS0115280"  />
</g>
<g id="a6_0024"  >
<polygon class="clusterblast-orf" style="stroke-width:1; stroke:black; fill:#8d15d8; " points="433,90 441,90 446,85 441,80 433,80 433,90 " description="&lt;b&gt;B145_RS0115275&lt;/b&gt;&lt;br&gt;hypothetical protein&lt;br&gt;Location: 155777 - 155088&lt;br&gt;&lt;br&gt;&lt;b&gt;BlastP hit with P773_RS0105900&lt;/b&gt;&lt;br&gt;Percentage identity: 39&lt;br&gt;Percentage coverage: 83&lt;br&gt;BLAST bit score: 151&lt;br&gt;E-value: 1.5e-34" id="dummy-6_h6_4_24" locus_tag="B145_RS0115275"  />
</g>
<g id="a6_0025"  >
<polygon class="clusterblast-orf" style="stroke-width:1; stroke:black; fill:white; " points="446,90 450,85 446,80 446,90 " description="&lt;b&gt;B145_RS0115270&lt;/b&gt;&lt;br&gt;heme exporter protein CcmD&lt;br&gt;Location: 155091 - 154918" id="dummy-6_h6_4_25" locus_tag="B145_RS0115270"  />
</g>
<g id="a6_0026"  >
<polygon class="clusterblast-orf" style="stroke-width:1; stroke:black; fill:#d86f15; " points="450,90 453,90 458,85 453,80 450,80 450,90 " description="&lt;b&gt;B145_RS0115265&lt;/b&gt;&lt;br&gt;cytochrome c maturation protein CcmE&lt;br&gt;Location: 154916 - 154473&lt;br&gt;&lt;br&gt;&lt;b&gt;BlastP hit with P773_RS0105910&lt;/b&gt;&lt;br&gt;Percentage identity: 46&lt;br&gt;Percentage coverage: 82&lt;br&gt;BLAST bit score: 106&lt;br&gt;E-value: 2.5e-21" id="dummy-6_h6_4_26" locus_tag="B145_RS0115265"  />
</g>
<g id="a6_0027"  >
<polygon class="clusterblast-orf" style="stroke-width:1; stroke:black; fill:#15d851; " points="458,90 491,90 496,85 491,80 458,80 458,90 " description="&lt;b&gt;B145_RS0115260&lt;/b&gt;&lt;br&gt;heme lyase CcmF/NrfE family subunit&lt;br&gt;Location: 154461 - 152518&lt;br&gt;&lt;br&gt;&lt;b&gt;BlastP hit with P773_RS0105915&lt;/b&gt;&lt;br&gt;Percentage identity: 34&lt;br&gt;Percentage coverage: 103&lt;br&gt;BLAST bit score: 338&lt;br&gt;E-value: 1.4e-90" id="dummy-6_h6_4_27" locus_tag="B145_RS0115260"  />
</g>
<g id="a6_0028"  >
<polygon class="clusterblast-orf" style="stroke-width:1; stroke:black; fill:#1551d8; " points="496,90 501,90 506,85 501,80 496,80 496,90 " description="&lt;b&gt;B145_RS0115255&lt;/b&gt;&lt;br&gt;DsbE family thiol:disulfide interchange protein&lt;br&gt;Location: 152521 - 151991&lt;br&gt;&lt;br&gt;&lt;b&gt;BlastP hit with P773_RS0105920&lt;/b&gt;&lt;br&gt;Percentage identity: 44&lt;br&gt;Percentage coverage: 71&lt;br&gt;BLAST bit score: 108&lt;br&gt;E-value: 6.3e-22" id="dummy-6_h6_4_28" locus_tag="B145_RS0115255"  />
</g>
<g id="a6_0029"  >
<polygon class="clusterblast-orf" style="stroke-width:1; stroke:black; fill:#d815c9; " points="506,90 509,90 514,85 509,80 506,80 506,90 " description="&lt;b&gt;B145_RS0115250&lt;/b&gt;&lt;br&gt;cytochrome c-type biogenesis protein CcmH&lt;br&gt;Location: 151998 - 151552&lt;br&gt;&lt;br&gt;&lt;b&gt;BlastP hit with P773_RS0105925&lt;/b&gt;&lt;br&gt;Percentage identity: 39&lt;br&gt;Percentage coverage: 72&lt;br&gt;BLAST bit score: 80&lt;br&gt;E-value: 1.7e-13" id="dummy-6_h6_4_29" locus_tag="B145_RS0115250"  />
</g>
<g id="a6_0030"  >
<polygon class="clusterblast-orf" style="stroke-width:1; stroke:black; fill:white; " points="514,90 532,90 537,85 532,80 514,80 514,90 " description="&lt;b&gt;B145_RS0115245&lt;/b&gt;&lt;br&gt;c-type cytochrome biogenesis protein CcmI&lt;br&gt;Location: 151555 - 150356" id="dummy-6_h6_4_30" locus_tag="B145_RS0115245"  />
</g>
<g id="a6_0031"  >
<polygon class="clusterblast-orf" style="stroke-width:1; stroke:black; fill:white; " points="538,90 543,90 548,85 543,80 538,80 538,90 " description="&lt;b&gt;B145_RS0115240&lt;/b&gt;&lt;br&gt;DJ-1 family protein&lt;br&gt;Location: 150327 - 149773" id="dummy-6_h6_4_31" locus_tag="B145_RS0115240"  />
</g>
<g id="a6_0032"  >
<polygon class="clusterblast-orf" style="stroke-width:1; stroke:black; fill:white; " points="550,85 555,80 583,80 583,90 555,90 550,85 " description="&lt;b&gt;B145_RS0115235&lt;/b&gt;&lt;br&gt;phosphoenolpyruvate--protein phosphotransferase&lt;br&gt;Location: 149706 - 147973" id="dummy-6_h6_4_32" locus_tag="B145_RS0115235"  />
</g>
<g id="a6_0033"  >
<polygon class="clusterblast-orf" style="stroke-width:1; stroke:black; fill:white; " points="583,85 588,80 588,80 588,90 588,90 583,85 " description="&lt;b&gt;B145_RS0115230&lt;/b&gt;&lt;br&gt;HPr family phosphocarrier protein&lt;br&gt;Location: 147957 - 147688" id="dummy-6_h6_4_33" locus_tag="B145_RS0115230"  />
</g>
<g id="a6_0034"  >
<polygon class="clusterblast-orf" style="stroke-width:1; stroke:black; fill:white; " points="588,85 593,80 596,80 596,90 593,90 588,85 " description="&lt;b&gt;B145_RS0115225&lt;/b&gt;&lt;br&gt;PTS fructose transporter subunit IIA&lt;br&gt;Location: 147686 - 147291" id="dummy-6_h6_4_34" locus_tag="B145_RS0115225"  />
</g>
<g id="a6_0035"  >
<polygon class="clusterblast-orf" style="stroke-width:1; stroke:black; fill:white; " points="597,85 602,80 617,80 617,90 602,90 597,85 " description="&lt;b&gt;B145_RS0115220&lt;/b&gt;&lt;br&gt;FAD:protein FMN transferase&lt;br&gt;Location: 147259 - 146207" id="dummy-6_h6_4_35" locus_tag="B145_RS0115220"  />
</g>
<g id="a6_0036"  >
<polygon class="clusterblast-orf" style="stroke-width:1; stroke:black; fill:white; " points="620,85 625,80 636,80 636,90 625,90 620,85 " description="&lt;b&gt;B145_RS0115215&lt;/b&gt;&lt;br&gt;hypothetical protein&lt;br&gt;Location: 146013 - 145180" id="dummy-6_h6_4_36" locus_tag="B145_RS0115215"  />
</g>
<g id="a6_0037"  >
<polygon class="clusterblast-orf" style="stroke-width:1; stroke:black; fill:white; " points="640,85 645,80 658,80 658,90 645,90 640,85 " description="&lt;b&gt;B145_RS0115210&lt;/b&gt;&lt;br&gt;glutathione synthase&lt;br&gt;Location: 145000 - 144062" id="dummy-6_h6_4_37" locus_tag="B145_RS0115210"  />
</g>
<g id="a6_0038"  >
<polygon class="clusterblast-orf" style="stroke-width:1; stroke:black; fill:white; " points="664,90 681,90 686,85 681,80 664,80 664,90 " description="&lt;b&gt;B145_RS0115205&lt;/b&gt;&lt;br&gt;bifunctional 3,4-dihydroxy-2-butanone-4-phosphate synthase/GTP cyclohydrolase II&lt;br&gt;Location: 143719 - 142613" id="dummy-6_h6_4_38" locus_tag="B145_RS0115205"  />
</g>
<g id="a6_0039"  >
<polygon class="clusterblast-orf" style="stroke-width:1; stroke:black; fill:white; " points="686,90 690,90 695,85 690,80 686,80 686,90 " description="&lt;b&gt;B145_RS0115200&lt;/b&gt;&lt;br&gt;6,7-dimethyl-8-ribityllumazine synthase&lt;br&gt;Location: 142584 - 142111" id="dummy-6_h6_4_39" locus_tag="B145_RS0115200"  />
</g>
<g id="a6_0040"  >
<polygon class="clusterblast-orf" style="stroke-width:1; stroke:black; fill:white; " points="695,90 699,90 704,85 699,80 695,80 695,90 " description="&lt;b&gt;B145_RS0115195&lt;/b&gt;&lt;br&gt;transcription antitermination factor NusB&lt;br&gt;Location: 142114 - 141647" id="dummy-6_h6_4_40" locus_tag="B145_RS0115195"  />
</g>
<g id="a6_0041"  >
<polygon class="clusterblast-orf" style="stroke-width:1; stroke:black; fill:white; " points="705,90 718,90 723,85 718,80 705,80 705,90 " description="&lt;b&gt;B145_RS0115190&lt;/b&gt;&lt;br&gt;thiamine-phosphate kinase&lt;br&gt;Location: 141622 - 140666" id="dummy-6_h6_4_41" locus_tag="B145_RS0115190"  />
</g>
<g id="a6_0042"  >
<polygon class="clusterblast-orf" style="stroke-width:1; stroke:black; fill:white; " points="724,85 729,80 747,80 747,90 729,90 724,85 " description="&lt;b&gt;B145_RS0115185&lt;/b&gt;&lt;br&gt;hypothetical protein&lt;br&gt;Location: 140621 - 139416" id="dummy-6_h6_4_42" locus_tag="B145_RS0115185"  />
</g>
<g id="a6_0043"  >
<polygon class="clusterblast-orf" style="stroke-width:1; stroke:black; fill:white; " points="750,90 761,90 766,85 761,80 750,80 750,90 " description="&lt;b&gt;B145_RS0115180&lt;/b&gt;&lt;br&gt;HD domain-containing protein&lt;br&gt;Location: 139244 - 138426" id="dummy-6_h6_4_43" locus_tag="B145_RS0115180"  />
</g>
<g id="a6_0044"  >
<polygon class="clusterblast-orf" style="stroke-width:1; stroke:black; fill:white; " points="766,90 770,90 775,85 770,80 766,80 766,90 " description="&lt;b&gt;B145_RS0115175&lt;/b&gt;&lt;br&gt;CinA family protein&lt;br&gt;Location: 138433 - 137939" id="dummy-6_h6_4_44" locus_tag="B145_RS0115175"  />
</g>
<g id="a6_0045"  >
<polygon class="clusterblast-orf" style="stroke-width:1; stroke:black; fill:white; " points="776,85 780,80 780,90 776,85 " description="&lt;b&gt;B145_RS0115170&lt;/b&gt;&lt;br&gt;hypothetical protein&lt;br&gt;Location: 137929 - 137723" id="dummy-6_h6_4_45" locus_tag="B145_RS0115170"  />
</g>
</svg>
