<svg version="1.1" preserveAspectRatio="none" width="800" y="0" xmlns:xlink="http://www.w3.org/1999/xlink" height="230" x="0" xmlns="http://www.w3.org/2000/svg" viewBox="0 0 800 230"  >
<g label="Query sequence" class="clusterblast-cluster"  >
<text class="clusterblast-acc" y="20" x="5"  >
Query sequence</text>
<line style="stroke-width:1; stroke:grey; " y1="35" x2="778.0" y2="35" x1="10"  />
<polygon class="clusterblast-orf" style="stroke-width:1; stroke:black; fill:#d81515; " points="204,40 207,40 212,35 207,30 204,30 204,40 " description="&lt;b&gt;P773_RS0107165&lt;/b&gt;&lt;br&gt;biphenyl 2,3-dioxygenase&lt;br&gt;Location: 1328932 - 1329700" id="dummy-11_q0_0_all" locus_tag="P773_RS0107165"  />
<polygon class="clusterblast-orf" style="stroke-width:1; stroke:black; fill:#63d815; " points="213,40 217,35 213,30 213,40 " description="&lt;b&gt;P773_RS0107170&lt;/b&gt;&lt;br&gt;(2Fe-2S) ferredoxin&lt;br&gt;Location: 1329782 - 1330103" id="dummy-11_q1_0_all" locus_tag="P773_RS0107170"  />
<polygon class="clusterblast-orf" style="stroke-width:1; stroke:black; fill:#15b1d8; " points="217,40 223,40 228,35 223,30 217,30 217,40 " description="&lt;b&gt;P773_RS0107175&lt;/b&gt;&lt;br&gt;NAD(P)/FAD-dependent oxidoreductase&lt;br&gt;Location: 1330103 - 1331120" id="dummy-11_q2_0_all" locus_tag="P773_RS0107175"  />
<polygon class="clusterblast-orf" style="stroke-width:1; stroke:black; fill:#b115d8; " points="228,40 230,40 235,35 230,30 228,30 228,40 " description="&lt;b&gt;P773_RS0107180&lt;/b&gt;&lt;br&gt;thiol:disulfide oxidoreductase&lt;br&gt;Location: 1331116 - 1331743" id="dummy-11_q3_0_all" locus_tag="P773_RS0107180"  />
<polygon class="clusterblast-orf" style="stroke-width:1; stroke:black; fill:white; " points="238,35 243,30 247,30 247,40 243,40 238,35 " description="&lt;b&gt;P773_RS0107185&lt;/b&gt;&lt;br&gt;phytanoyl-CoA dioxygenase&lt;br&gt;Location: 1331959 - 1332787" id="dummy-11_q4_0_all" locus_tag="P773_RS0107185"  />
<polygon class="clusterblast-orf" style="stroke-width:1; stroke:black; fill:white; " points="247,40 251,40 256,35 251,30 247,30 247,40 " description="&lt;b&gt;P773_RS0107190&lt;/b&gt;&lt;br&gt;MOSC domain-containing protein&lt;br&gt;Location: 1332806 - 1333592" id="dummy-11_q5_0_all" locus_tag="P773_RS0107190"  />
<polygon class="clusterblast-orf" style="stroke-width:1; stroke:black; fill:#d86315; " points="257,40 262,40 267,35 262,30 257,30 257,40 " description="&lt;b&gt;P773_RS0107195&lt;/b&gt;&lt;br&gt;ABC transporter substrate-binding protein&lt;br&gt;Location: 1333693 - 1334539" id="dummy-11_q6_0_all" locus_tag="P773_RS0107195"  />
<polygon class="clusterblast-orf" style="stroke-width:1; stroke:black; fill:#15d815; " points="268,40 270,40 275,35 270,30 268,30 268,40 " description="&lt;b&gt;P773_RS0107200&lt;/b&gt;&lt;br&gt;ectoine/hydroxyectoine ABC transporter permease subunit EhuC&lt;br&gt;Location: 1334612 - 1335284" id="dummy-11_q7_0_all" locus_tag="P773_RS0107200"  />
<polygon class="clusterblast-orf" style="stroke-width:1; stroke:black; fill:#15d815; " points="275,40 278,40 283,35 278,30 275,30 275,40 " description="&lt;b&gt;P773_RS0107205&lt;/b&gt;&lt;br&gt;ectoine/hydroxyectoine ABC transporter permease subunit EhuD&lt;br&gt;Location: 1335285 - 1335972" id="dummy-11_q8_0_all" locus_tag="P773_RS0107205"  />
<polygon class="clusterblast-orf" style="stroke-width:1; stroke:black; fill:#1563d8; " points="283,40 287,40 292,35 287,30 283,30 283,40 " description="&lt;b&gt;P773_RS0107210&lt;/b&gt;&lt;br&gt;ectoine/hydroxyectoine ABC transporter ATP-binding protein EhuA&lt;br&gt;Location: 1335973 - 1336762" id="dummy-11_q9_0_all" locus_tag="P773_RS0107210"  />
<polygon class="clusterblast-orf" style="stroke-width:1; stroke:black; fill:#d815b1; " points="292,35 297,30 298,30 298,40 297,40 292,35 " description="&lt;b&gt;P773_RS0107215&lt;/b&gt;&lt;br&gt;molecular chaperone DnaK&lt;br&gt;Location: 1336773 - 1337316" id="dummy-11_q10_0_all" locus_tag="P773_RS0107215"  />
<polygon class="clusterblast-orf" style="stroke-width:1; stroke:black; fill:#d8b115; " points="299,40 310,40 315,35 310,30 299,30 299,40 " description="&lt;b&gt;P773_RS0107220&lt;/b&gt;&lt;br&gt;membrane protein&lt;br&gt;Location: 1337394 - 1338786" id="dummy-11_q11_0_all" locus_tag="P773_RS0107220"  />
<polygon class="clusterblast-orf" style="stroke-width:1; stroke:black; fill:#15d863; " points="315,40 320,40 325,35 320,30 315,30 315,40 " description="&lt;b&gt;P773_RS0107225&lt;/b&gt;&lt;br&gt;glycosyl transferase&lt;br&gt;Location: 1338786 - 1339656" id="dummy-11_q12_0_all" locus_tag="P773_RS0107225"  />
<polygon class="clusterblast-orf" style="stroke-width:1; stroke:black; fill:white; " points="325,35 330,30 339,30 339,40 330,40 325,35 " description="&lt;b&gt;P773_RS0107230&lt;/b&gt;&lt;br&gt;DNA polymerase V UmuC&lt;br&gt;Location: 1339664 - 1340945" id="dummy-11_q13_0_all" locus_tag="P773_RS0107230"  />
<polygon class="clusterblast-orf" style="stroke-width:1; stroke:black; fill:white; " points="339,35 343,30 343,40 339,35 " description="&lt;b&gt;P773_RS0107235&lt;/b&gt;&lt;br&gt;error-prone repair protein UmuD&lt;br&gt;Location: 1340922 - 1341318" id="dummy-11_q14_0_all" locus_tag="P773_RS0107235"  />
<polygon class="clusterblast-orf" style="stroke-width:1; stroke:black; fill:white; " points="345,40 345,40 350,35 345,30 345,30 345,40 " description="&lt;b&gt;P773_RS0107240&lt;/b&gt;&lt;br&gt;GFA family protein&lt;br&gt;Location: 1341499 - 1341868" id="dummy-11_q15_0_all" locus_tag="P773_RS0107240"  />
<polygon class="clusterblast-orf" style="stroke-width:1; stroke:black; fill:white; " points="350,40 354,35 350,30 350,40 " description="&lt;b&gt;P773_RS0107245&lt;/b&gt;&lt;br&gt;GFA family protein&lt;br&gt;Location: 1341869 - 1342235" id="dummy-11_q16_0_all" locus_tag="P773_RS0107245"  />
<polygon class="clusterblast-orf" style="stroke-width:1; stroke:black; fill:#1515d8; " points="354,40 359,40 364,35 359,30 354,30 354,40 " description="&lt;b&gt;P773_RS0107250&lt;/b&gt;&lt;br&gt;uridine kinase&lt;br&gt;Location: 1342241 - 1343171" id="dummy-11_q17_0_all" locus_tag="P773_RS0107250"  />
<polygon class="clusterblast-orf" style="stroke-width:1; stroke:black; fill:white; " points="364,40 374,40 379,35 374,30 364,30 364,40 " description="&lt;b&gt;P773_RS0107255&lt;/b&gt;&lt;br&gt;membrane protein&lt;br&gt;Location: 1343167 - 1344460" id="dummy-11_q18_0_all" locus_tag="P773_RS0107255"  />
<polygon class="clusterblast-orf" style="stroke-width:1; stroke:black; fill:white; " points="380,40 388,40 393,35 388,30 380,30 380,40 " description="&lt;b&gt;P773_RS0107260&lt;/b&gt;&lt;br&gt;recombinase RecA&lt;br&gt;Location: 1344568 - 1345717" id="dummy-11_q19_0_all" locus_tag="P773_RS0107260"  />
<polygon class="clusterblast-orf" style="stroke-width:1; stroke:black; fill:white; " points="394,40 419,40 424,35 419,30 394,30 394,40 " description="&lt;b&gt;P773_RS0107265&lt;/b&gt;&lt;br&gt;alanine--tRNA ligase&lt;br&gt;Location: 1345815 - 1348482" id="dummy-11_q20_0_all" locus_tag="P773_RS0107265"  />
<polygon class="clusterblast-orf" style="stroke-width:1; stroke:black; fill:white; " points="424,35 429,30 438,30 438,40 429,40 424,35 " description="&lt;b&gt;P773_RS0107270&lt;/b&gt;&lt;br&gt;isocitrate dehydrogenase (NADP(+))&lt;br&gt;Location: 1348473 - 1349688" id="dummy-11_q21_0_all" locus_tag="P773_RS0107270"  />
<polygon class="clusterblast-orf" style="stroke-width:1; stroke:black; fill:white; " points="439,40 441,40 446,35 441,30 439,30 439,40 " description="&lt;b&gt;P773_RS0107275&lt;/b&gt;&lt;br&gt;phosphatidylserine decarboxylase family protein&lt;br&gt;Location: 1349764 - 1350412" id="dummy-11_q22_0_all" locus_tag="P773_RS0107275"  />
<polygon class="clusterblast-orf" style="stroke-width:1; stroke:black; fill:white; " points="446,40 450,40 455,35 450,30 446,30 446,40 " description="&lt;b&gt;P773_RS0107280&lt;/b&gt;&lt;br&gt;CDP-diacylglycerol--serine O-phosphatidyltransferase&lt;br&gt;Location: 1350414 - 1351221" id="dummy-11_q23_0_all" locus_tag="P773_RS0107280"  />
<polygon class="clusterblast-orf" style="stroke-width:1; stroke:black; fill:white; " points="455,40 460,40 465,35 460,30 455,30 455,40 " description="&lt;b&gt;P773_RS0107285&lt;/b&gt;&lt;br&gt;glycosyl transferase&lt;br&gt;Location: 1351220 - 1352132" id="dummy-11_q24_0_all" locus_tag="P773_RS0107285"  />
<polygon class="clusterblast-orf" style="stroke-width:1; stroke:black; fill:white; " points="465,40 467,40 472,35 467,30 465,30 465,40 " description="&lt;b&gt;P773_RS0107290&lt;/b&gt;&lt;br&gt;RlmE family RNA methyltransferase&lt;br&gt;Location: 1352132 - 1352744" id="dummy-11_q25_0_all" locus_tag="P773_RS0107290"  />
<polygon class="clusterblast-orf" style="stroke-width:1; stroke:black; fill:white; " points="473,40 480,40 485,35 480,30 473,30 473,40 " description="&lt;b&gt;P773_RS0107295&lt;/b&gt;&lt;br&gt;guanosine monophosphate reductase&lt;br&gt;Location: 1352775 - 1353858" id="dummy-11_q26_0_all" locus_tag="P773_RS0107295"  />
<polygon class="clusterblast-orf" style="stroke-width:1; stroke:black; fill:white; " points="485,40 485,40 490,35 485,30 485,30 485,40 " description="&lt;b&gt;P773_RS0107300&lt;/b&gt;&lt;br&gt;hypothetical protein&lt;br&gt;Location: 1353857 - 1354295" id="dummy-11_q27_0_all" locus_tag="P773_RS0107300"  />
<polygon class="clusterblast-orf" style="stroke-width:1; stroke:black; fill:white; " points="490,40 502,40 507,35 502,30 490,30 490,40 " description="&lt;b&gt;P773_RS0107305&lt;/b&gt;&lt;br&gt;glutamine-hydrolyzing GMP synthase&lt;br&gt;Location: 1354284 - 1355847" id="dummy-11_q28_0_all" locus_tag="P773_RS0107305"  />
<polygon class="clusterblast-orf" style="stroke-width:1; stroke:black; fill:white; " points="507,40 507,40 512,35 507,30 507,30 507,40 " description="&lt;b&gt;P773_RS0107310&lt;/b&gt;&lt;br&gt;hypothetical protein&lt;br&gt;Location: 1355847 - 1356228" id="dummy-11_q29_0_all" locus_tag="P773_RS0107310"  />
<polygon class="clusterblast-orf" style="stroke-width:1; stroke:black; fill:white; " points="512,40 516,40 521,35 516,30 512,30 512,40 " description="&lt;b&gt;P773_RS0107315&lt;/b&gt;&lt;br&gt;3-methyl-2-oxobutanoate hydroxymethyltransferase&lt;br&gt;Location: 1356279 - 1357053" id="dummy-11_q30_0_all" locus_tag="P773_RS0107315"  />
<polygon class="clusterblast-orf" style="stroke-width:1; stroke:black; fill:white; " points="521,35 526,30 528,30 528,40 526,40 521,35 " description="&lt;b&gt;P773_RS0107320&lt;/b&gt;&lt;br&gt;membrane protein&lt;br&gt;Location: 1357053 - 1357668" id="dummy-11_q31_0_all" locus_tag="P773_RS0107320"  />
<polygon class="clusterblast-orf" style="stroke-width:1; stroke:black; fill:#d81563; " points="529,40 535,40 540,35 535,30 529,30 529,40 " description="&lt;b&gt;P773_RS0107325&lt;/b&gt;&lt;br&gt;C4-dicarboxylate ABC transporter substrate-binding protein&lt;br&gt;Location: 1357793 - 1358768" id="dummy-11_q32_0_all" locus_tag="P773_RS0107325"  />
<polygon class="clusterblast-orf" style="stroke-width:1; stroke:black; fill:#b1d815; " points="541,40 542,40 547,35 542,30 541,30 541,40 " description="&lt;b&gt;P773_RS0107330&lt;/b&gt;&lt;br&gt;TRAP transporter small permease&lt;br&gt;Location: 1358822 - 1359314" id="dummy-11_q33_0_all" locus_tag="P773_RS0107330"  />
<polygon class="clusterblast-orf" style="stroke-width:1; stroke:black; fill:#15d8b1; " points="547,40 556,40 561,35 556,30 547,30 547,40 " description="&lt;b&gt;P773_RS0107335&lt;/b&gt;&lt;br&gt;C4-dicarboxylate ABC transporter permease&lt;br&gt;Location: 1359316 - 1360627" id="dummy-11_q34_0_all" locus_tag="P773_RS0107335"  />
<polygon class="clusterblast-orf" style="stroke-width:1; stroke:black; fill:white; " points="561,35 566,30 567,30 567,40 566,40 561,35 " description="&lt;b&gt;P773_RS0107340&lt;/b&gt;&lt;br&gt;hypothetical protein&lt;br&gt;Location: 1360629 - 1361118" id="dummy-11_q35_0_all" locus_tag="P773_RS0107340"  />
<polygon class="clusterblast-orf" style="stroke-width:1; stroke:black; fill:#6315d8; " points="567,35 572,30 576,30 576,40 572,40 567,35 " description="&lt;b&gt;P773_RS0107345&lt;/b&gt;&lt;br&gt;LamB/YcsF family protein&lt;br&gt;Location: 1361120 - 1361894" id="dummy-11_q36_0_all" locus_tag="P773_RS0107345"  />
</g>
<g label="NZ_CP023202" class="clusterblast-cluster" description="NZ_CP023202_c17: Streptomyces xinghaiensis S187 chromosome, complete genome (8% of genes show similarity), t2pks-otherks"  >
<text class="clusterblast-acc" y="70" x="5"  >
<a xlink:href="https://antismash-db.secondarymetabolites.org/go/NZ_CP023202/17" target="_blank">NZ_CP023202_c17</a>: Streptomyces xinghaiensis S187 chromosome, complete genome (8% of genes show similarity), t2pks-otherks</text>
<line style="stroke-width:1; stroke:grey; " y1="85" x2="778.0" y2="85" x1="10"  />
</g>
<g id="a11_000"  >
<polygon class="clusterblast-orf" style="stroke-width:1; stroke:black; fill:white; " points="0,85 5,80 5,80 5,90 5,90 0,85 " description="&lt;b&gt;SXIN_RS20160&lt;/b&gt;&lt;br&gt;DUF3830 domain-containing protein&lt;br&gt;Location: 4700923 - 4700399" id="dummy-11_h11_2_0" locus_tag="SXIN_RS20160"  />
</g>
<g id="a11_001"  >
<polygon class="clusterblast-orf" style="stroke-width:1; stroke:black; fill:#d86315; " points="7,90 12,90 17,85 12,80 7,80 7,90 " description="&lt;b&gt;SXIN_RS20155&lt;/b&gt;&lt;br&gt;ectoine/hydroxyectoine ABC transporter substrate-binding protein EhuB&lt;br&gt;Location: 4700232 - 4699333&lt;br&gt;&lt;br&gt;&lt;b&gt;BlastP hit with P773_RS0107195&lt;/b&gt;&lt;br&gt;Percentage identity: 33&lt;br&gt;Percentage coverage: 92&lt;br&gt;BLAST bit score: 138&lt;br&gt;E-value: 1.6e-30" id="dummy-11_h11_2_1" locus_tag="SXIN_RS20155"  />
</g>
<g id="a11_002"  >
<polygon class="clusterblast-orf" style="stroke-width:1; stroke:black; fill:#15d815; " points="17,90 21,90 26,85 21,80 17,80 17,90 " description="&lt;b&gt;SXIN_RS20150&lt;/b&gt;&lt;br&gt;ectoine/hydroxyectoine ABC transporter permease subunit EhuC&lt;br&gt;Location: 4699336 - 4698590&lt;br&gt;&lt;br&gt;&lt;b&gt;BlastP hit with P773_RS0107200&lt;/b&gt;&lt;br&gt;Percentage identity: 40&lt;br&gt;Percentage coverage: 93&lt;br&gt;BLAST bit score: 135&lt;br&gt;E-value: 6.3e-30" id="dummy-11_h11_2_2" locus_tag="SXIN_RS20150"  />
</g>
<g id="a11_003"  >
<polygon class="clusterblast-orf" style="stroke-width:1; stroke:black; fill:#15d815; " points="26,90 28,90 33,85 28,80 26,80 26,90 " description="&lt;b&gt;SXIN_RS20145&lt;/b&gt;&lt;br&gt;ectoine/hydroxyectoine ABC transporter permease subunit EhuD&lt;br&gt;Location: 4698590 - 4697940&lt;br&gt;&lt;br&gt;&lt;b&gt;BlastP hit with P773_RS0107200&lt;/b&gt;&lt;br&gt;Percentage identity: 33&lt;br&gt;Percentage coverage: 84&lt;br&gt;BLAST bit score: 109&lt;br&gt;E-value: 6.3e-22&lt;br&gt;&lt;br&gt;&lt;b&gt;BlastP hit with P773_RS0107205&lt;/b&gt;&lt;br&gt;Percentage identity: 40&lt;br&gt;Percentage coverage: 93&lt;br&gt;BLAST bit score: 179&lt;br&gt;E-value: 3.9e-43" id="dummy-11_h11_2_3" locus_tag="SXIN_RS20145"  />
</g>
<g id="a11_004"  >
<polygon class="clusterblast-orf" style="stroke-width:1; stroke:black; fill:#1563d8; " points="33,90 37,90 42,85 37,80 33,80 33,90 " description="&lt;b&gt;SXIN_RS20140&lt;/b&gt;&lt;br&gt;ectoine/hydroxyectoine ABC transporter ATP-binding protein EhuA&lt;br&gt;Location: 4697950 - 4697138&lt;br&gt;&lt;br&gt;&lt;b&gt;BlastP hit with P773_RS0107210&lt;/b&gt;&lt;br&gt;Percentage identity: 59&lt;br&gt;Percentage coverage: 96&lt;br&gt;BLAST bit score: 305&lt;br&gt;E-value: 7e-81" id="dummy-11_h11_2_4" locus_tag="SXIN_RS20140"  />
</g>
<g id="a11_005"  >
<polygon class="clusterblast-orf" style="stroke-width:1; stroke:black; fill:white; " points="46,90 50,90 55,85 50,80 46,80 46,90 " description="&lt;b&gt;SXIN_RS20135&lt;/b&gt;&lt;br&gt;IclR family transcriptional regulator&lt;br&gt;Location: 4696794 - 4696039" id="dummy-11_h11_2_5" locus_tag="SXIN_RS20135"  />
</g>
<g id="a11_006"  >
<polygon class="clusterblast-orf" style="stroke-width:1; stroke:black; fill:white; " points="62,90 74,90 79,85 74,80 62,80 62,90 " description="&lt;b&gt;SXIN_RS20125&lt;/b&gt;&lt;br&gt;tannase/feruloyl esterase family alpha/beta hydrolase&lt;br&gt;Location: 4695351 - 4693921" id="dummy-11_h11_2_6" locus_tag="SXIN_RS20125"  />
</g>
<g id="a11_007"  >
<polygon class="clusterblast-orf" style="stroke-width:1; stroke:black; fill:white; " points="82,90 94,90 99,85 94,80 82,80 82,90 " description="&lt;b&gt;SXIN_RS20120&lt;/b&gt;&lt;br&gt;hypothetical protein&lt;br&gt;Location: 4693625 - 4692147" id="dummy-11_h11_2_7" locus_tag="SXIN_RS20120"  />
</g>
<g id="a11_008"  >
<polygon class="clusterblast-orf" style="stroke-width:1; stroke:black; fill:white; " points="99,90 103,85 99,80 99,90 " description="&lt;b&gt;SXIN_RS20115&lt;/b&gt;&lt;br&gt;hypothetical protein&lt;br&gt;Location: 4692094 - 4691777" id="dummy-11_h11_2_8" locus_tag="SXIN_RS20115"  />
</g>
<g id="a11_009"  >
<polygon class="clusterblast-orf" style="stroke-width:1; stroke:black; fill:white; " points="103,85 108,80 109,80 109,90 108,90 103,85 " description="&lt;b&gt;SXIN_RS20110&lt;/b&gt;&lt;br&gt;chitin-binding protein&lt;br&gt;Location: 4691780 - 4691187" id="dummy-11_h11_2_9" locus_tag="SXIN_RS20110"  />
</g>
<g id="a11_0010"  >
<polygon class="clusterblast-orf" style="stroke-width:1; stroke:black; fill:white; " points="113,85 118,80 121,80 121,90 118,90 113,85 " description="&lt;b&gt;SXIN_RS20105&lt;/b&gt;&lt;br&gt;hypothetical protein&lt;br&gt;Location: 4690845 - 4690189" id="dummy-11_h11_2_10" locus_tag="SXIN_RS20105"  />
</g>
<g id="a11_0011"  >
<polygon class="clusterblast-orf" style="stroke-width:1; stroke:black; fill:white; " points="123,90 127,90 132,85 127,80 123,80 123,90 " description="&lt;b&gt;SXIN_RS20100&lt;/b&gt;&lt;br&gt;nucleotidyltransferase domain-containing protein&lt;br&gt;Location: 4689983 - 4689168" id="dummy-11_h11_2_11" locus_tag="SXIN_RS20100"  />
</g>
<g id="a11_0012"  >
<polygon class="clusterblast-orf" style="stroke-width:1; stroke:black; fill:white; " points="134,90 135,90 140,85 135,80 134,80 134,90 " description="&lt;b&gt;SXIN_RS20095&lt;/b&gt;&lt;br&gt;N-acetyltransferase&lt;br&gt;Location: 4689005 - 4688502" id="dummy-11_h11_2_12" locus_tag="SXIN_RS20095"  />
</g>
<g id="a11_0013"  >
<polygon class="clusterblast-orf" style="stroke-width:1; stroke:black; fill:white; " points="140,90 141,90 146,85 141,80 140,80 140,90 " description="&lt;b&gt;SXIN_RS20090&lt;/b&gt;&lt;br&gt;hypothetical protein&lt;br&gt;Location: 4688471 - 4687959" id="dummy-11_h11_2_13" locus_tag="SXIN_RS20090"  />
</g>
<g id="a11_0014"  >
<polygon class="clusterblast-orf" style="stroke-width:1; stroke:black; fill:white; " points="147,90 149,90 154,85 149,80 147,80 147,90 " description="&lt;b&gt;SXIN_RS20085&lt;/b&gt;&lt;br&gt;hypothetical protein&lt;br&gt;Location: 4687884 - 4687276" id="dummy-11_h11_2_14" locus_tag="SXIN_RS20085"  />
</g>
<g id="a11_0015"  >
<polygon class="clusterblast-orf" style="stroke-width:1; stroke:black; fill:white; " points="154,85 159,80 168,80 168,90 159,90 154,85 " description="&lt;b&gt;SXIN_RS20080&lt;/b&gt;&lt;br&gt;transposase&lt;br&gt;Location: 4687234 - 4686014" id="dummy-11_h11_2_15" locus_tag="SXIN_RS20080"  />
</g>
<g id="a11_0016"  >
<polygon class="clusterblast-orf" style="stroke-width:1; stroke:black; fill:white; " points="177,85 180,80 180,90 177,85 " description="&lt;b&gt;SXIN_RS20075&lt;/b&gt;&lt;br&gt;hypothetical protein&lt;br&gt;Location: 4685164 - 4684919" id="dummy-11_h11_2_16" locus_tag="SXIN_RS20075"  />
</g>
<g id="a11_0017"  >
<polygon class="clusterblast-orf" style="stroke-width:1; stroke:black; fill:white; " points="184,85 189,80 194,80 194,90 189,90 184,85 " description="&lt;b&gt;SXIN_RS20070&lt;/b&gt;&lt;br&gt;polyketide synthase&lt;br&gt;Location: 4684619 - 4683717" id="dummy-11_h11_2_17" locus_tag="SXIN_RS20070"  />
</g>
<g id="a11_0018"  >
<polygon class="clusterblast-orf" style="stroke-width:1; stroke:black; fill:white; " points="204,85 208,80 208,90 204,85 " description="&lt;b&gt;SXIN_RS20065&lt;/b&gt;&lt;br&gt;acyl carrier protein&lt;br&gt;Location: 4682766 - 4682479" id="dummy-11_h11_2_18" locus_tag="SXIN_RS20065"  />
</g>
<g id="a11_0019"  >
<polygon class="clusterblast-orf" style="stroke-width:1; stroke:black; fill:white; " points="212,85 217,80 226,80 226,90 217,90 212,85 " description="&lt;b&gt;SXIN_RS20060&lt;/b&gt;&lt;br&gt;ketosynthase chain-length factor&lt;br&gt;Location: 4682102 - 4680885" id="dummy-11_h11_2_19" locus_tag="SXIN_RS20060"  />
</g>
<g id="a11_0020"  >
<polygon class="clusterblast-orf" style="stroke-width:1; stroke:black; fill:white; " points="226,85 231,80 240,80 240,90 231,90 226,85 " description="&lt;b&gt;SXIN_RS20055&lt;/b&gt;&lt;br&gt;beta-ketoacyl-[acyl-carrier-protein] synthase family protein&lt;br&gt;Location: 4680888 - 4679623" id="dummy-11_h11_2_20" locus_tag="SXIN_RS20055"  />
</g>
<g id="a11_0021"  >
<polygon class="clusterblast-orf" style="stroke-width:1; stroke:black; fill:white; " points="243,85 248,80 262,80 262,90 248,90 243,85 " description="&lt;b&gt;SXIN_RS20050&lt;/b&gt;&lt;br&gt;acyl-CoA carboxylase subunit beta&lt;br&gt;Location: 4679307 - 4677649" id="dummy-11_h11_2_21" locus_tag="SXIN_RS20050"  />
</g>
<g id="a11_0022"  >
<polygon class="clusterblast-orf" style="stroke-width:1; stroke:black; fill:white; " points="263,85 268,80 272,80 272,90 268,90 263,85 " description="&lt;b&gt;SXIN_RS20045&lt;/b&gt;&lt;br&gt;hypothetical protein&lt;br&gt;Location: 4677533 - 4676739" id="dummy-11_h11_2_22" locus_tag="SXIN_RS20045"  />
</g>
<g id="a11_0023"  >
<polygon class="clusterblast-orf" style="stroke-width:1; stroke:black; fill:white; " points="274,90 300,90 305,85 300,80 274,80 274,90 " description="&lt;b&gt;SXIN_RS20040&lt;/b&gt;&lt;br&gt;hypothetical protein&lt;br&gt;Location: 4676595 - 4673866" id="dummy-11_h11_2_23" locus_tag="SXIN_RS20040"  />
</g>
<g id="a11_0024"  >
<polygon class="clusterblast-orf" style="stroke-width:1; stroke:black; fill:white; " points="305,90 315,90 320,85 315,80 305,80 305,90 " description="&lt;b&gt;SXIN_RS20035&lt;/b&gt;&lt;br&gt;histidine kinase&lt;br&gt;Location: 4673842 - 4672523" id="dummy-11_h11_2_24" locus_tag="SXIN_RS20035"  />
</g>
<g id="a11_0025"  >
<polygon class="clusterblast-orf" style="stroke-width:1; stroke:black; fill:white; " points="321,90 323,90 328,85 323,80 321,80 321,90 " description="&lt;b&gt;SXIN_RS20030&lt;/b&gt;&lt;br&gt;DNA-binding response regulator&lt;br&gt;Location: 4672468 - 4671854" id="dummy-11_h11_2_25" locus_tag="SXIN_RS20030"  />
</g>
<g id="a11_0026"  >
<polygon class="clusterblast-orf" style="stroke-width:1; stroke:black; fill:white; " points="328,85 333,80 337,80 337,90 333,90 328,85 " description="&lt;b&gt;SXIN_RS20025&lt;/b&gt;&lt;br&gt;phosphopantetheinyl transferase&lt;br&gt;Location: 4671814 - 4670993" id="dummy-11_h11_2_26" locus_tag="SXIN_RS20025"  />
</g>
<g id="a11_0027"  >
<polygon class="clusterblast-orf" style="stroke-width:1; stroke:black; fill:white; " points="337,85 342,80 351,80 351,90 342,90 337,85 " description="&lt;b&gt;SXIN_RS20020&lt;/b&gt;&lt;br&gt;hypothetical protein&lt;br&gt;Location: 4670991 - 4669747" id="dummy-11_h11_2_27" locus_tag="SXIN_RS20020"  />
</g>
<g id="a11_0028"  >
<polygon class="clusterblast-orf" style="stroke-width:1; stroke:black; fill:white; " points="352,85 357,80 373,80 373,90 357,90 352,85 " description="&lt;b&gt;SXIN_RS20015&lt;/b&gt;&lt;br&gt;acyl-CoA dehydrogenase&lt;br&gt;Location: 4669675 - 4667867" id="dummy-11_h11_2_28" locus_tag="SXIN_RS20015"  />
</g>
<g id="a11_0029"  >
<polygon class="clusterblast-orf" style="stroke-width:1; stroke:black; fill:white; " points="373,85 378,80 393,80 393,90 378,90 373,85 " description="&lt;b&gt;SXIN_RS20010&lt;/b&gt;&lt;br&gt;polyketide synthase&lt;br&gt;Location: 4667870 - 4666029" id="dummy-11_h11_2_29" locus_tag="SXIN_RS20010"  />
</g>
<g id="a11_0030"  >
<polygon class="clusterblast-orf" style="stroke-width:1; stroke:black; fill:white; " points="394,85 396,80 396,90 394,85 " description="&lt;b&gt;SXIN_RS20005&lt;/b&gt;&lt;br&gt;hypothetical protein&lt;br&gt;Location: 4665972 - 4665772" id="dummy-11_h11_2_30" locus_tag="SXIN_RS20005"  />
</g>
<g id="a11_0031"  >
<polygon class="clusterblast-orf" style="stroke-width:1; stroke:black; fill:white; " points="398,85 403,80 405,80 405,90 403,90 398,85 " description="&lt;b&gt;SXIN_RS20000&lt;/b&gt;&lt;br&gt;hypothetical protein&lt;br&gt;Location: 4665590 - 4664955" id="dummy-11_h11_2_31" locus_tag="SXIN_RS20000"  />
</g>
<g id="a11_0032"  >
<polygon class="clusterblast-orf" style="stroke-width:1; stroke:black; fill:white; " points="405,85 410,80 417,80 417,90 410,90 405,85 " description="&lt;b&gt;SXIN_RS19995&lt;/b&gt;&lt;br&gt;cyclase&lt;br&gt;Location: 4664968 - 4663958" id="dummy-11_h11_2_32" locus_tag="SXIN_RS19995"  />
</g>
<g id="a11_0033"  >
<polygon class="clusterblast-orf" style="stroke-width:1; stroke:black; fill:white; " points="418,85 423,80 429,80 429,90 423,90 418,85 " description="&lt;b&gt;SXIN_RS19990&lt;/b&gt;&lt;br&gt;hypothetical protein&lt;br&gt;Location: 4663867 - 4662839" id="dummy-11_h11_2_33" locus_tag="SXIN_RS19990"  />
</g>
<g id="a11_0034"  >
<polygon class="clusterblast-orf" style="stroke-width:1; stroke:black; fill:white; " points="430,85 435,80 448,80 448,90 435,90 430,85 " description="&lt;b&gt;SXIN_RS19985&lt;/b&gt;&lt;br&gt;citramalate synthase&lt;br&gt;Location: 4662810 - 4661194" id="dummy-11_h11_2_34" locus_tag="SXIN_RS19985"  />
</g>
<g id="a11_0035"  >
<polygon class="clusterblast-orf" style="stroke-width:1; stroke:black; fill:white; " points="448,85 453,80 461,80 461,90 453,90 448,85 " description="&lt;b&gt;SXIN_RS19980&lt;/b&gt;&lt;br&gt;CoA transferase&lt;br&gt;Location: 4661183 - 4660050" id="dummy-11_h11_2_35" locus_tag="SXIN_RS19980"  />
</g>
<g id="a11_0036"  >
<polygon class="clusterblast-orf" style="stroke-width:1; stroke:black; fill:white; " points="461,85 466,80 475,80 475,90 466,90 461,85 " description="&lt;b&gt;SXIN_RS19975&lt;/b&gt;&lt;br&gt;cytochrome P450&lt;br&gt;Location: 4660029 - 4658821" id="dummy-11_h11_2_36" locus_tag="SXIN_RS19975"  />
</g>
<g id="a11_0037"  >
<polygon class="clusterblast-orf" style="stroke-width:1; stroke:black; fill:white; " points="476,85 481,80 489,80 489,90 481,90 476,85 " description="&lt;b&gt;SXIN_RS19970&lt;/b&gt;&lt;br&gt;epoxide hydrolase&lt;br&gt;Location: 4658709 - 4657588" id="dummy-11_h11_2_37" locus_tag="SXIN_RS19970"  />
</g>
<g id="a11_0038"  >
<polygon class="clusterblast-orf" style="stroke-width:1; stroke:black; fill:white; " points="489,90 490,90 495,85 490,80 489,80 489,90 " description="&lt;b&gt;SXIN_RS19965&lt;/b&gt;&lt;br&gt;hypothetical protein&lt;br&gt;Location: 4657589 - 4656978" id="dummy-11_h11_2_38" locus_tag="SXIN_RS19965"  />
</g>
<g id="a11_0039"  >
<polygon class="clusterblast-orf" style="stroke-width:1; stroke:black; fill:white; " points="496,90 503,90 508,85 503,80 496,80 496,90 " description="&lt;b&gt;SXIN_RS19960&lt;/b&gt;&lt;br&gt;winged helix DNA-binding domain-containing protein&lt;br&gt;Location: 4656961 - 4655840" id="dummy-11_h11_2_39" locus_tag="SXIN_RS19960"  />
</g>
<g id="a11_0040"  >
<polygon class="clusterblast-orf" style="stroke-width:1; stroke:black; fill:white; " points="509,85 514,80 519,80 519,90 514,90 509,85 " description="&lt;b&gt;SXIN_RS19955&lt;/b&gt;&lt;br&gt;class I SAM-dependent methyltransferase&lt;br&gt;Location: 4655771 - 4654920" id="dummy-11_h11_2_40" locus_tag="SXIN_RS19955"  />
</g>
<g id="a11_0041"  >
<polygon class="clusterblast-orf" style="stroke-width:1; stroke:black; fill:white; " points="519,85 524,80 531,80 531,90 524,90 519,85 " description="&lt;b&gt;SXIN_RS19950&lt;/b&gt;&lt;br&gt;hypothetical protein&lt;br&gt;Location: 4654923 - 4653874" id="dummy-11_h11_2_41" locus_tag="SXIN_RS19950"  />
</g>
<g id="a11_0042"  >
<polygon class="clusterblast-orf" style="stroke-width:1; stroke:black; fill:white; " points="531,85 536,80 559,80 559,90 536,90 531,85 " description="&lt;b&gt;SXIN_RS19945&lt;/b&gt;&lt;br&gt;amino acid adenylation domain-containing protein&lt;br&gt;Location: 4653831 - 4651363" id="dummy-11_h11_2_42" locus_tag="SXIN_RS19945"  />
</g>
<g id="a11_0043"  >
<polygon class="clusterblast-orf" style="stroke-width:1; stroke:black; fill:white; " points="554,85 559,80 568,80 568,90 559,90 554,85 " description="&lt;b&gt;SXIN_RS19940&lt;/b&gt;&lt;br&gt;aspartate aminotransferase family protein&lt;br&gt;Location: 4651831 - 4650533" id="dummy-11_h11_2_43" locus_tag="SXIN_RS19940"  />
</g>
<g id="a11_0044"  >
<polygon class="clusterblast-orf" style="stroke-width:1; stroke:black; fill:white; " points="570,90 581,90 586,85 581,80 570,80 570,90 " description="&lt;b&gt;SXIN_RS19935&lt;/b&gt;&lt;br&gt;dehydrogenase&lt;br&gt;Location: 4650364 - 4648970" id="dummy-11_h11_2_44" locus_tag="SXIN_RS19935"  />
</g>
<g id="a11_0045"  >
<polygon class="clusterblast-orf" style="stroke-width:1; stroke:black; fill:white; " points="587,85 592,80 594,80 594,90 592,90 587,85 " description="&lt;b&gt;SXIN_RS19930&lt;/b&gt;&lt;br&gt;malonic semialdehyde reductase&lt;br&gt;Location: 4648863 - 4648264" id="dummy-11_h11_2_45" locus_tag="SXIN_RS19930"  />
</g>
<g id="a11_0046"  >
<polygon class="clusterblast-orf" style="stroke-width:1; stroke:black; fill:white; " points="596,85 601,80 613,80 613,90 601,90 596,85 " description="&lt;b&gt;SXIN_RS19925&lt;/b&gt;&lt;br&gt;hypothetical protein&lt;br&gt;Location: 4648044 - 4646542" id="dummy-11_h11_2_46" locus_tag="SXIN_RS19925"  />
</g>
<g id="a11_0047"  >
<polygon class="clusterblast-orf" style="stroke-width:1; stroke:black; fill:#63d815; " points="615,85 619,80 619,90 615,85 " description="&lt;b&gt;SXIN_RS19920&lt;/b&gt;&lt;br&gt;hypothetical protein&lt;br&gt;Location: 4646375 - 4646052&lt;br&gt;&lt;br&gt;&lt;b&gt;BlastP hit with P773_RS0107170&lt;/b&gt;&lt;br&gt;Percentage identity: 43&lt;br&gt;Percentage coverage: 101&lt;br&gt;BLAST bit score: 88&lt;br&gt;E-value: 4.2e-16" id="dummy-11_h11_2_47" locus_tag="SXIN_RS19920"  />
</g>
<g id="a11_0048"  >
<polygon class="clusterblast-orf" style="stroke-width:1; stroke:black; fill:white; " points="620,90 632,90 637,85 632,80 620,80 620,90 " description="&lt;b&gt;SXIN_RS19915&lt;/b&gt;&lt;br&gt;MFS transporter&lt;br&gt;Location: 4645903 - 4644410" id="dummy-11_h11_2_48" locus_tag="SXIN_RS19915"  />
</g>
<g id="a11_0049"  >
<polygon class="clusterblast-orf" style="stroke-width:1; stroke:black; fill:white; " points="639,85 644,80 659,80 659,90 644,90 639,85 " description="&lt;b&gt;SXIN_RS19910&lt;/b&gt;&lt;br&gt;MFS transporter&lt;br&gt;Location: 4644304 - 4642535" id="dummy-11_h11_2_49" locus_tag="SXIN_RS19910"  />
</g>
<g id="a11_0050"  >
<polygon class="clusterblast-orf" style="stroke-width:1; stroke:black; fill:white; " points="662,85 667,80 672,80 672,90 667,90 662,85 " description="&lt;b&gt;SXIN_RS19905&lt;/b&gt;&lt;br&gt;SDR family oxidoreductase&lt;br&gt;Location: 4642252 - 4641359" id="dummy-11_h11_2_50" locus_tag="SXIN_RS19905"  />
</g>
<g id="a11_0051"  >
<polygon class="clusterblast-orf" style="stroke-width:1; stroke:black; fill:white; " points="672,85 677,80 689,80 689,90 677,90 672,85 " description="&lt;b&gt;SXIN_RS19900&lt;/b&gt;&lt;br&gt;alpha/beta hydrolase&lt;br&gt;Location: 4641354 - 4639840" id="dummy-11_h11_2_51" locus_tag="SXIN_RS19900"  />
</g>
<g id="a11_0052"  >
<polygon class="clusterblast-orf" style="stroke-width:1; stroke:black; fill:white; " points="689,85 694,80 700,80 700,90 694,90 689,85 " description="&lt;b&gt;SXIN_RS19895&lt;/b&gt;&lt;br&gt;TIGR03560 family F420-dependent LLM class oxidoreductase&lt;br&gt;Location: 4639840 - 4638818" id="dummy-11_h11_2_52" locus_tag="SXIN_RS19895"  />
</g>
<g id="a11_0053"  >
<polygon class="clusterblast-orf" style="stroke-width:1; stroke:black; fill:white; " points="703,90 710,90 715,85 710,80 703,80 703,90 " description="&lt;b&gt;SXIN_RS19890&lt;/b&gt;&lt;br&gt;NADP-dependent oxidoreductase&lt;br&gt;Location: 4638555 - 4637503" id="dummy-11_h11_2_53" locus_tag="SXIN_RS19890"  />
</g>
<g id="a11_0054"  >
<polygon class="clusterblast-orf" style="stroke-width:1; stroke:black; fill:white; " points="715,90 728,90 733,85 728,80 715,80 715,90 " description="&lt;b&gt;SXIN_RS19885&lt;/b&gt;&lt;br&gt;MFS transporter&lt;br&gt;Location: 4637506 - 4635947" id="dummy-11_h11_2_54" locus_tag="SXIN_RS19885"  />
</g>
<g id="a11_0055"  >
<polygon class="clusterblast-orf" style="stroke-width:1; stroke:black; fill:white; " points="734,85 739,80 752,80 752,90 739,90 734,85 " description="&lt;b&gt;SXIN_RS19880&lt;/b&gt;&lt;br&gt;alpha/beta hydrolase&lt;br&gt;Location: 4635856 - 4634282" id="dummy-11_h11_2_55" locus_tag="SXIN_RS19880"  />
</g>
<g id="a11_0056"  >
<polygon class="clusterblast-orf" style="stroke-width:1; stroke:black; fill:white; " points="754,90 759,90 764,85 759,80 754,80 754,90 " description="&lt;b&gt;SXIN_RS19875&lt;/b&gt;&lt;br&gt;LLM class flavin-dependent oxidoreductase&lt;br&gt;Location: 4634041 - 4633169" id="dummy-11_h11_2_56" locus_tag="SXIN_RS19875"  />
</g>
<g id="a11_0057"  >
<polygon class="clusterblast-orf" style="stroke-width:1; stroke:black; fill:white; " points="764,90 775,90 780,85 775,80 764,80 764,90 " description="&lt;b&gt;SXIN_RS19870&lt;/b&gt;&lt;br&gt;FAD-binding protein&lt;br&gt;Location: 4633158 - 4631815" id="dummy-11_h11_2_57" locus_tag="SXIN_RS19870"  />
</g>
</svg>
