<svg version="1.1" preserveAspectRatio="none" width="800" y="0" xmlns:xlink="http://www.w3.org/1999/xlink" height="230" x="0" xmlns="http://www.w3.org/2000/svg" viewBox="0 0 800 230"  >
<g label="Query sequence" class="clusterblast-cluster"  >
<text class="clusterblast-acc" y="20" x="5"  >
Query sequence</text>
<line style="stroke-width:1; stroke:grey; " y1="35" x2="778.0" y2="35" x1="10"  />
<polygon class="clusterblast-orf" style="stroke-width:1; stroke:black; fill:#d81515; " points="125,40 127,40 132,35 127,30 125,30 125,40 " description="&lt;b&gt;P773_RS0104210&lt;/b&gt;&lt;br&gt;type I glyceraldehyde-3-phosphate dehydrogenase&lt;br&gt;Location: 770293 - 771301" id="dummy-4_q0_0_all" locus_tag="P773_RS0104210"  />
<polygon class="clusterblast-orf" style="stroke-width:1; stroke:black; fill:#33d815; " points="132,40 135,40 140,35 135,30 132,30 132,40 " description="&lt;b&gt;P773_RS0104215&lt;/b&gt;&lt;br&gt;phosphoglycerate kinase&lt;br&gt;Location: 771300 - 772479" id="dummy-4_q1_0_all" locus_tag="P773_RS0104215"  />
<polygon class="clusterblast-orf" style="stroke-width:1; stroke:black; fill:white; " points="140,40 141,40 146,35 141,30 140,30 140,40 " description="&lt;b&gt;P773_RS0104220&lt;/b&gt;&lt;br&gt;fructose-bisphosphate aldolase class I&lt;br&gt;Location: 772480 - 773491" id="dummy-4_q2_0_all" locus_tag="P773_RS0104220"  />
<polygon class="clusterblast-orf" style="stroke-width:1; stroke:black; fill:white; " points="146,40 150,35 146,30 146,40 " description="&lt;b&gt;P773_RS0104225&lt;/b&gt;&lt;br&gt;thiamine phosphate synthase&lt;br&gt;Location: 773477 - 774092" id="dummy-4_q3_0_all" locus_tag="P773_RS0104225"  />
<polygon class="clusterblast-orf" style="stroke-width:1; stroke:black; fill:white; " points="150,40 154,35 150,30 150,40 " description="&lt;b&gt;P773_RS0104230&lt;/b&gt;&lt;br&gt;elongation factor P&lt;br&gt;Location: 774088 - 774649" id="dummy-4_q4_0_all" locus_tag="P773_RS0104230"  />
<polygon class="clusterblast-orf" style="stroke-width:1; stroke:black; fill:white; " points="154,40 154,40 159,35 154,30 154,30 154,40 " description="&lt;b&gt;P773_RS0104235&lt;/b&gt;&lt;br&gt;inositol monophosphatase&lt;br&gt;Location: 774653 - 775394" id="dummy-4_q5_0_all" locus_tag="P773_RS0104235"  />
<polygon class="clusterblast-orf" style="stroke-width:1; stroke:black; fill:white; " points="159,40 160,35 159,30 159,40 " description="&lt;b&gt;P773_RS0104240&lt;/b&gt;&lt;br&gt;50S ribosomal protein L31&lt;br&gt;Location: 775429 - 775660" id="dummy-4_q6_0_all" locus_tag="P773_RS0104240"  />
<polygon class="clusterblast-orf" style="stroke-width:1; stroke:black; fill:white; " points="160,40 164,35 160,30 160,40 " description="&lt;b&gt;P773_RS0104245&lt;/b&gt;&lt;br&gt;DUF1013 domain-containing protein&lt;br&gt;Location: 775660 - 776248" id="dummy-4_q7_0_all" locus_tag="P773_RS0104245"  />
<polygon class="clusterblast-orf" style="stroke-width:1; stroke:black; fill:white; " points="165,40 166,35 165,30 165,40 " description="&lt;b&gt;P773_RS0104250&lt;/b&gt;&lt;br&gt;30S ribosomal protein S21&lt;br&gt;Location: 776301 - 776496" id="dummy-4_q8_0_all" locus_tag="P773_RS0104250"  />
<polygon class="clusterblast-orf" style="stroke-width:1; stroke:black; fill:#15abd8; " points="167,35 172,30 176,30 176,40 172,40 167,35 " description="&lt;b&gt;P773_RS0104260&lt;/b&gt;&lt;br&gt;NAD synthetase&lt;br&gt;Location: 776664 - 778062" id="dummy-4_q9_0_all" locus_tag="P773_RS0104260"  />
<polygon class="clusterblast-orf" style="stroke-width:1; stroke:black; fill:#8d15d8; " points="176,35 178,30 178,40 176,35 " description="&lt;b&gt;P773_RS0104265&lt;/b&gt;&lt;br&gt;NAD(P) transhydrogenase subunit alpha&lt;br&gt;Location: 778061 - 778370" id="dummy-4_q10_0_all" locus_tag="P773_RS0104265"  />
<polygon class="clusterblast-orf" style="stroke-width:1; stroke:black; fill:#8d15d8; " points="178,35 183,30 185,30 185,40 183,40 178,35 " description="&lt;b&gt;P773_RS0104270&lt;/b&gt;&lt;br&gt;NAD(P) transhydrogenase subunit alpha&lt;br&gt;Location: 778374 - 779463" id="dummy-4_q11_0_all" locus_tag="P773_RS0104270"  />
<polygon class="clusterblast-orf" style="stroke-width:1; stroke:black; fill:white; " points="185,35 186,30 186,40 185,35 " description="&lt;b&gt;P773_RS07910&lt;/b&gt;&lt;br&gt;aa3-type cytochrome c oxidase subunit IV&lt;br&gt;Location: 779472 - 779583" id="dummy-4_q12_0_all" locus_tag="P773_RS07910"  />
<polygon class="clusterblast-orf" style="stroke-width:1; stroke:black; fill:white; " points="186,35 187,30 187,40 186,35 " description="&lt;b&gt;P773_RS0104275&lt;/b&gt;&lt;br&gt;50S ribosomal protein L36&lt;br&gt;Location: 779588 - 779714" id="dummy-4_q13_0_all" locus_tag="P773_RS0104275"  />
<polygon class="clusterblast-orf" style="stroke-width:1; stroke:black; fill:white; " points="188,35 193,30 194,30 194,40 193,40 188,35 " description="&lt;b&gt;P773_RS0104285&lt;/b&gt;&lt;br&gt;ADP-glyceromanno-heptose 6-epimerase&lt;br&gt;Location: 779884 - 780781" id="dummy-4_q14_0_all" locus_tag="P773_RS0104285"  />
<polygon class="clusterblast-orf" style="stroke-width:1; stroke:black; fill:white; " points="197,35 202,30 208,30 208,40 202,40 197,35 " description="&lt;b&gt;P773_RS0104295&lt;/b&gt;&lt;br&gt;hypothetical protein&lt;br&gt;Location: 781271 - 782957" id="dummy-4_q15_0_all" locus_tag="P773_RS0104295"  />
<polygon class="clusterblast-orf" style="stroke-width:1; stroke:black; fill:white; " points="209,40 213,35 209,30 209,40 " description="&lt;b&gt;P773_RS0104300&lt;/b&gt;&lt;br&gt;hypothetical protein&lt;br&gt;Location: 783055 - 783766" id="dummy-4_q16_0_all" locus_tag="P773_RS0104300"  />
<polygon class="clusterblast-orf" style="stroke-width:1; stroke:black; fill:white; " points="213,35 218,30 221,30 221,40 218,40 213,35 " description="&lt;b&gt;P773_RS0104305&lt;/b&gt;&lt;br&gt;O-antigen ligase domain-containing protein&lt;br&gt;Location: 783737 - 785006" id="dummy-4_q17_0_all" locus_tag="P773_RS0104305"  />
<polygon class="clusterblast-orf" style="stroke-width:1; stroke:black; fill:white; " points="221,35 226,30 228,30 228,40 226,40 221,35 " description="&lt;b&gt;P773_RS0104310&lt;/b&gt;&lt;br&gt;hypothetical protein&lt;br&gt;Location: 785023 - 785998" id="dummy-4_q18_0_all" locus_tag="P773_RS0104310"  />
<polygon class="clusterblast-orf" style="stroke-width:1; stroke:black; fill:white; " points="228,35 233,30 235,30 235,40 233,40 228,35 " description="&lt;b&gt;P773_RS0104315&lt;/b&gt;&lt;br&gt;polysaccharide pyruvyl transferase family protein&lt;br&gt;Location: 786070 - 787045" id="dummy-4_q19_0_all" locus_tag="P773_RS0104315"  />
<polygon class="clusterblast-orf" style="stroke-width:1; stroke:black; fill:white; " points="235,35 240,30 240,30 240,40 240,40 235,35 " description="&lt;b&gt;P773_RS0104320&lt;/b&gt;&lt;br&gt;hypothetical protein&lt;br&gt;Location: 787069 - 787960" id="dummy-4_q20_0_all" locus_tag="P773_RS0104320"  />
<polygon class="clusterblast-orf" style="stroke-width:1; stroke:black; fill:white; " points="241,35 246,30 249,30 249,40 246,40 241,35 " description="&lt;b&gt;P773_RS0104325&lt;/b&gt;&lt;br&gt;hypothetical protein&lt;br&gt;Location: 787963 - 789304" id="dummy-4_q21_0_all" locus_tag="P773_RS0104325"  />
<polygon class="clusterblast-orf" style="stroke-width:1; stroke:black; fill:white; " points="249,35 253,30 253,40 249,35 " description="&lt;b&gt;P773_RS0104330&lt;/b&gt;&lt;br&gt;hypothetical protein&lt;br&gt;Location: 789303 - 789951" id="dummy-4_q22_0_all" locus_tag="P773_RS0104330"  />
<polygon class="clusterblast-orf" style="stroke-width:1; stroke:black; fill:white; " points="254,40 254,40 259,35 254,30 254,30 254,40 " description="&lt;b&gt;P773_RS07855&lt;/b&gt;&lt;br&gt;hypothetical protein&lt;br&gt;Location: 789997 - 790831" id="dummy-4_q23_0_all" locus_tag="P773_RS07855"  />
<polygon class="clusterblast-orf" style="stroke-width:1; stroke:black; fill:white; " points="259,40 263,40 268,35 263,30 259,30 259,40 " description="&lt;b&gt;P773_RS0104340&lt;/b&gt;&lt;br&gt;hypothetical protein&lt;br&gt;Location: 790845 - 792162" id="dummy-4_q24_0_all" locus_tag="P773_RS0104340"  />
<polygon class="clusterblast-orf" style="stroke-width:1; stroke:black; fill:white; " points="268,40 272,35 268,30 268,40 " description="&lt;b&gt;P773_RS0104345&lt;/b&gt;&lt;br&gt;hypothetical protein&lt;br&gt;Location: 792161 - 792848" id="dummy-4_q25_0_all" locus_tag="P773_RS0104345"  />
<polygon class="clusterblast-orf" style="stroke-width:1; stroke:black; fill:#d86f15; " points="272,35 277,30 286,30 286,40 277,40 272,35 " description="&lt;b&gt;P773_RS07860&lt;/b&gt;&lt;br&gt;hypothetical protein&lt;br&gt;Location: 792844 - 794932" id="dummy-4_q26_0_all" locus_tag="P773_RS07860"  />
<polygon class="clusterblast-orf" style="stroke-width:1; stroke:black; fill:#15d851; " points="286,35 291,30 292,30 292,40 291,40 286,35 " description="&lt;b&gt;P773_RS0104355&lt;/b&gt;&lt;br&gt;hypothetical protein&lt;br&gt;Location: 794928 - 795915" id="dummy-4_q27_0_all" locus_tag="P773_RS0104355"  />
<polygon class="clusterblast-orf" style="stroke-width:1; stroke:black; fill:white; " points="292,35 297,30 301,30 301,40 297,40 292,35 " description="&lt;b&gt;P773_RS0104360&lt;/b&gt;&lt;br&gt;GNAT family N-acetyltransferase&lt;br&gt;Location: 795918 - 797226" id="dummy-4_q28_0_all" locus_tag="P773_RS0104360"  />
<polygon class="clusterblast-orf" style="stroke-width:1; stroke:black; fill:white; " points="301,35 306,30 311,30 311,40 306,40 301,35 " description="&lt;b&gt;P773_RS0104365&lt;/b&gt;&lt;br&gt;polysaccharide biosynthesis PFTS motif protein&lt;br&gt;Location: 797222 - 798827" id="dummy-4_q29_0_all" locus_tag="P773_RS0104365"  />
<polygon class="clusterblast-orf" style="stroke-width:1; stroke:black; fill:white; " points="311,35 316,30 321,30 321,40 316,40 311,35 " description="&lt;b&gt;P773_RS0104370&lt;/b&gt;&lt;br&gt;hypothetical protein&lt;br&gt;Location: 798823 - 800263" id="dummy-4_q30_0_all" locus_tag="P773_RS0104370"  />
<polygon class="clusterblast-orf" style="stroke-width:1; stroke:black; fill:white; " points="321,40 323,40 328,35 323,30 321,30 321,40 " description="&lt;b&gt;P773_RS0104375&lt;/b&gt;&lt;br&gt;radical SAM protein&lt;br&gt;Location: 800323 - 801376" id="dummy-4_q31_0_all" locus_tag="P773_RS0104375"  />
<polygon class="clusterblast-orf" style="stroke-width:1; stroke:black; fill:#1551d8; " points="328,35 333,30 335,30 335,40 333,40 328,35 " description="&lt;b&gt;P773_RS0104380&lt;/b&gt;&lt;br&gt;pseudaminic acid synthase&lt;br&gt;Location: 801380 - 802400" id="dummy-4_q32_0_all" locus_tag="P773_RS0104380"  />
<polygon class="clusterblast-orf" style="stroke-width:1; stroke:black; fill:white; " points="335,40 339,35 335,30 335,40 " description="&lt;b&gt;P773_RS07865&lt;/b&gt;&lt;br&gt;N-acetyltransferase&lt;br&gt;Location: 802457 - 803084" id="dummy-4_q33_0_all" locus_tag="P773_RS07865"  />
<polygon class="clusterblast-orf" style="stroke-width:1; stroke:black; fill:white; " points="339,35 343,30 343,40 339,35 " description="&lt;b&gt;P773_RS0104390&lt;/b&gt;&lt;br&gt;hypothetical protein&lt;br&gt;Location: 803072 - 803735" id="dummy-4_q34_0_all" locus_tag="P773_RS0104390"  />
<polygon class="clusterblast-orf" style="stroke-width:1; stroke:black; fill:white; " points="343,35 348,30 348,30 348,40 348,40 343,35 " description="&lt;b&gt;P773_RS0104395&lt;/b&gt;&lt;br&gt;PIG-L family deacetylase&lt;br&gt;Location: 803734 - 804421" id="dummy-4_q35_0_all" locus_tag="P773_RS0104395"  />
<polygon class="clusterblast-orf" style="stroke-width:1; stroke:black; fill:white; " points="349,40 358,40 363,35 358,30 349,30 349,40 " description="&lt;b&gt;P773_RS0104405&lt;/b&gt;&lt;br&gt;hypothetical protein&lt;br&gt;Location: 804623 - 806732" id="dummy-4_q36_0_all" locus_tag="P773_RS0104405"  />
<polygon class="clusterblast-orf" style="stroke-width:1; stroke:black; fill:white; " points="363,35 364,30 364,40 363,35 " description="&lt;b&gt;P773_RS0104410&lt;/b&gt;&lt;br&gt;hypothetical protein&lt;br&gt;Location: 806743 - 806929" id="dummy-4_q37_0_all" locus_tag="P773_RS0104410"  />
<polygon class="clusterblast-orf" style="stroke-width:1; stroke:black; fill:#d86f15; " points="364,40 367,40 372,35 367,30 364,30 364,40 " description="&lt;b&gt;P773_RS0104415&lt;/b&gt;&lt;br&gt;NarL family transcriptional regulator&lt;br&gt;Location: 806927 - 808142" id="dummy-4_q38_0_all" locus_tag="P773_RS0104415"  />
<polygon class="clusterblast-orf" style="stroke-width:1; stroke:black; fill:#d815c9; " points="372,40 374,40 379,35 374,30 372,30 372,40 " description="&lt;b&gt;P773_RS0104420&lt;/b&gt;&lt;br&gt;UDP-glucose 4-epimerase GalE&lt;br&gt;Location: 808168 - 809158" id="dummy-4_q39_0_all" locus_tag="P773_RS0104420"  />
<polygon class="clusterblast-orf" style="stroke-width:1; stroke:black; fill:white; " points="379,40 382,40 387,35 382,30 379,30 379,40 " description="&lt;b&gt;P773_RS0104425&lt;/b&gt;&lt;br&gt;hypothetical protein&lt;br&gt;Location: 809154 - 810399" id="dummy-4_q40_0_all" locus_tag="P773_RS0104425"  />
<polygon class="clusterblast-orf" style="stroke-width:1; stroke:black; fill:white; " points="387,40 390,35 387,30 387,40 " description="&lt;b&gt;P773_RS0104430&lt;/b&gt;&lt;br&gt;hypothetical protein&lt;br&gt;Location: 810419 - 810905" id="dummy-4_q41_0_all" locus_tag="P773_RS0104430"  />
<polygon class="clusterblast-orf" style="stroke-width:1; stroke:black; fill:white; " points="390,40 390,40 395,35 390,30 390,30 390,40 " description="&lt;b&gt;P773_RS0104435&lt;/b&gt;&lt;br&gt;hypothetical protein&lt;br&gt;Location: 810883 - 811603" id="dummy-4_q42_0_all" locus_tag="P773_RS0104435"  />
<polygon class="clusterblast-orf" style="stroke-width:1; stroke:black; fill:white; " points="395,40 397,40 402,35 397,30 395,30 395,40 " description="&lt;b&gt;P773_RS0104440&lt;/b&gt;&lt;br&gt;class I SAM-dependent methyltransferase&lt;br&gt;Location: 811599 - 812781" id="dummy-4_q43_0_all" locus_tag="P773_RS0104440"  />
<polygon class="clusterblast-orf" style="stroke-width:1; stroke:black; fill:white; " points="402,40 402,40 407,35 402,30 402,30 402,40 " description="&lt;b&gt;P773_RS0104445&lt;/b&gt;&lt;br&gt;hypothetical protein&lt;br&gt;Location: 812780 - 813443" id="dummy-4_q44_0_all" locus_tag="P773_RS0104445"  />
<polygon class="clusterblast-orf" style="stroke-width:1; stroke:black; fill:white; " points="407,40 411,40 416,35 411,30 407,30 407,40 " description="&lt;b&gt;P773_RS0104450&lt;/b&gt;&lt;br&gt;radical SAM protein&lt;br&gt;Location: 813442 - 814963" id="dummy-4_q45_0_all" locus_tag="P773_RS0104450"  />
<polygon class="clusterblast-orf" style="stroke-width:1; stroke:black; fill:#d8c915; " points="416,40 417,40 422,35 417,30 416,30 416,40 " description="&lt;b&gt;P773_RS0104455&lt;/b&gt;&lt;br&gt;glycosyltransferase&lt;br&gt;Location: 814971 - 815886" id="dummy-4_q46_0_all" locus_tag="P773_RS0104455"  />
<polygon class="clusterblast-orf" style="stroke-width:1; stroke:black; fill:#15d8ab; " points="422,35 427,30 428,30 428,40 427,40 422,35 " description="&lt;b&gt;P773_RS0104460&lt;/b&gt;&lt;br&gt;glucose-1-phosphate thymidylyltransferase&lt;br&gt;Location: 815895 - 816759" id="dummy-4_q47_0_all" locus_tag="P773_RS0104460"  />
<polygon class="clusterblast-orf" style="stroke-width:1; stroke:black; fill:#3315d8; " points="428,35 433,30 435,30 435,40 433,40 428,35 " description="&lt;b&gt;P773_RS0104465&lt;/b&gt;&lt;br&gt;dTDP-glucose 4,6-dehydratase&lt;br&gt;Location: 816755 - 817754" id="dummy-4_q48_0_all" locus_tag="P773_RS0104465"  />
<polygon class="clusterblast-orf" style="stroke-width:1; stroke:black; fill:white; " points="435,35 440,30 441,30 441,40 440,40 435,35 " description="&lt;b&gt;P773_RS0104470&lt;/b&gt;&lt;br&gt;glycosyltransferase family 2 protein&lt;br&gt;Location: 817755 - 818757" id="dummy-4_q49_0_all" locus_tag="P773_RS0104470"  />
<polygon class="clusterblast-orf" style="stroke-width:1; stroke:black; fill:white; " points="441,35 446,30 448,30 448,40 446,40 441,35 " description="&lt;b&gt;P773_RS0104475&lt;/b&gt;&lt;br&gt;glycosyltransferase family 1 protein&lt;br&gt;Location: 818760 - 819819" id="dummy-4_q50_0_all" locus_tag="P773_RS0104475"  />
<polygon class="clusterblast-orf" style="stroke-width:1; stroke:black; fill:white; " points="448,35 453,30 458,30 458,40 453,40 448,35 " description="&lt;b&gt;P773_RS0104480&lt;/b&gt;&lt;br&gt;DUF2079 domain-containing protein&lt;br&gt;Location: 819790 - 821332" id="dummy-4_q51_0_all" locus_tag="P773_RS0104480"  />
<polygon class="clusterblast-orf" style="stroke-width:1; stroke:black; fill:white; " points="458,35 463,30 465,30 465,40 463,40 458,35 " description="&lt;b&gt;P773_RS0104485&lt;/b&gt;&lt;br&gt;hypothetical protein&lt;br&gt;Location: 821324 - 822467" id="dummy-4_q52_0_all" locus_tag="P773_RS0104485"  />
<polygon class="clusterblast-orf" style="stroke-width:1; stroke:black; fill:white; " points="465,35 470,30 480,30 480,40 470,40 465,35 " description="&lt;b&gt;P773_RS0104490&lt;/b&gt;&lt;br&gt;hypothetical protein&lt;br&gt;Location: 822468 - 824655" id="dummy-4_q53_0_all" locus_tag="P773_RS0104490"  />
<polygon class="clusterblast-orf" style="stroke-width:1; stroke:black; fill:white; " points="479,35 484,30 491,30 491,40 484,40 479,35 " description="&lt;b&gt;P773_RS0104495&lt;/b&gt;&lt;br&gt;hypothetical protein&lt;br&gt;Location: 824638 - 826480" id="dummy-4_q54_0_all" locus_tag="P773_RS0104495"  />
<polygon class="clusterblast-orf" style="stroke-width:1; stroke:black; fill:white; " points="491,35 496,30 506,30 506,40 496,40 491,35 " description="&lt;b&gt;P773_RS0104500&lt;/b&gt;&lt;br&gt;hypothetical protein&lt;br&gt;Location: 826472 - 828674" id="dummy-4_q55_0_all" locus_tag="P773_RS0104500"  />
<polygon class="clusterblast-orf" style="stroke-width:1; stroke:black; fill:white; " points="506,35 511,30 514,30 514,40 511,40 506,35 " description="&lt;b&gt;P773_RS0104505&lt;/b&gt;&lt;br&gt;hypothetical protein&lt;br&gt;Location: 828707 - 829976" id="dummy-4_q56_0_all" locus_tag="P773_RS0104505"  />
<polygon class="clusterblast-orf" style="stroke-width:1; stroke:black; fill:#d8156f; " points="514,35 518,30 518,40 514,35 " description="&lt;b&gt;P773_RS0104510&lt;/b&gt;&lt;br&gt;dTDP-4-keto-6-deoxy-D-glucose epimerase&lt;br&gt;Location: 829982 - 830486" id="dummy-4_q57_0_all" locus_tag="P773_RS0104510"  />
<polygon class="clusterblast-orf" style="stroke-width:1; stroke:black; fill:white; " points="517,35 522,30 524,30 524,40 522,40 517,35 " description="&lt;b&gt;P773_RS0104515&lt;/b&gt;&lt;br&gt;CDP-glucose 4,6-dehydratase&lt;br&gt;Location: 830472 - 831537" id="dummy-4_q58_0_all" locus_tag="P773_RS0104515"  />
<polygon class="clusterblast-orf" style="stroke-width:1; stroke:black; fill:#d86f15; " points="524,35 529,30 532,30 532,40 529,40 524,35 " description="&lt;b&gt;P773_RS0104520&lt;/b&gt;&lt;br&gt;DegT/DnrJ/EryC1/StrS family aminotransferase&lt;br&gt;Location: 831533 - 832655" id="dummy-4_q59_0_all" locus_tag="P773_RS0104520"  />
<polygon class="clusterblast-orf" style="stroke-width:1; stroke:black; fill:#8dd815; " points="532,35 537,30 537,30 537,40 537,40 532,35 " description="&lt;b&gt;P773_RS0104525&lt;/b&gt;&lt;br&gt;glucose-1-phosphate cytidylyltransferase&lt;br&gt;Location: 832648 - 833443" id="dummy-4_q60_0_all" locus_tag="P773_RS0104525"  />
<polygon class="clusterblast-orf" style="stroke-width:1; stroke:black; fill:white; " points="537,35 542,30 545,30 545,40 542,40 537,35 " description="&lt;b&gt;P773_RS0104530&lt;/b&gt;&lt;br&gt;hypothetical protein&lt;br&gt;Location: 833448 - 834681" id="dummy-4_q61_0_all" locus_tag="P773_RS0104530"  />
<polygon class="clusterblast-orf" style="stroke-width:1; stroke:black; fill:white; " points="545,35 550,30 550,30 550,40 550,40 545,35 " description="&lt;b&gt;P773_RS0104535&lt;/b&gt;&lt;br&gt;glycosyltransferase family 2 protein&lt;br&gt;Location: 834646 - 835483" id="dummy-4_q62_0_all" locus_tag="P773_RS0104535"  />
<polygon class="clusterblast-orf" style="stroke-width:1; stroke:black; fill:white; " points="550,35 555,30 557,30 557,40 555,40 550,35 " description="&lt;b&gt;P773_RS07780&lt;/b&gt;&lt;br&gt;hypothetical protein&lt;br&gt;Location: 835487 - 836474" id="dummy-4_q63_0_all" locus_tag="P773_RS07780"  />
<polygon class="clusterblast-orf" style="stroke-width:1; stroke:black; fill:white; " points="557,35 562,30 563,30 563,40 562,40 557,35 " description="&lt;b&gt;P773_RS0104545&lt;/b&gt;&lt;br&gt;glycosyltransferase family 2 protein&lt;br&gt;Location: 836482 - 837442" id="dummy-4_q64_0_all" locus_tag="P773_RS0104545"  />
<polygon class="clusterblast-orf" style="stroke-width:1; stroke:black; fill:white; " points="563,35 568,30 568,30 568,40 568,40 563,35 " description="&lt;b&gt;P773_RS0104550&lt;/b&gt;&lt;br&gt;CDP-alcohol phosphatidyltransferase family protein&lt;br&gt;Location: 837438 - 838212" id="dummy-4_q65_0_all" locus_tag="P773_RS0104550"  />
<polygon class="clusterblast-orf" style="stroke-width:1; stroke:black; fill:white; " points="569,35 572,30 572,40 569,35 " description="&lt;b&gt;P773_RS0104555&lt;/b&gt;&lt;br&gt;hypothetical protein&lt;br&gt;Location: 838383 - 838827" id="dummy-4_q66_0_all" locus_tag="P773_RS0104555"  />
<polygon class="clusterblast-orf" style="stroke-width:1; stroke:black; fill:white; " points="572,35 576,30 576,40 572,35 " description="&lt;b&gt;P773_RS0104560&lt;/b&gt;&lt;br&gt;hypothetical protein&lt;br&gt;Location: 838847 - 839474" id="dummy-4_q67_0_all" locus_tag="P773_RS0104560"  />
<polygon class="clusterblast-orf" style="stroke-width:1; stroke:black; fill:white; " points="576,35 581,30 582,30 582,40 581,40 576,35 " description="&lt;b&gt;P773_RS0104565&lt;/b&gt;&lt;br&gt;hypothetical protein&lt;br&gt;Location: 839470 - 840394" id="dummy-4_q68_0_all" locus_tag="P773_RS0104565"  />
<polygon class="clusterblast-orf" style="stroke-width:1; stroke:black; fill:white; " points="582,35 587,30 590,30 590,40 587,40 582,35 " description="&lt;b&gt;P773_RS0104570&lt;/b&gt;&lt;br&gt;glycosyltransferase family 1 protein&lt;br&gt;Location: 840390 - 841590" id="dummy-4_q69_0_all" locus_tag="P773_RS0104570"  />
<polygon class="clusterblast-orf" style="stroke-width:1; stroke:black; fill:white; " points="590,35 595,30 604,30 604,40 595,40 590,35 " description="&lt;b&gt;P773_RS0104575&lt;/b&gt;&lt;br&gt;hypothetical protein&lt;br&gt;Location: 841631 - 843716" id="dummy-4_q70_0_all" locus_tag="P773_RS0104575"  />
<polygon class="clusterblast-orf" style="stroke-width:1; stroke:black; fill:white; " points="637,40 640,40 645,35 640,30 637,30 637,40 " description="&lt;b&gt;P773_RS0104600&lt;/b&gt;&lt;br&gt;peptidase M23&lt;br&gt;Location: 848811 - 850104" id="dummy-4_q71_0_all" locus_tag="P773_RS0104600"  />
<polygon class="clusterblast-orf" style="stroke-width:1; stroke:black; fill:white; " points="645,35 648,30 648,40 645,35 " description="&lt;b&gt;P773_RS0104605&lt;/b&gt;&lt;br&gt;DUF4167 domain-containing protein&lt;br&gt;Location: 850100 - 850535" id="dummy-4_q72_0_all" locus_tag="P773_RS0104605"  />
<polygon class="clusterblast-orf" style="stroke-width:1; stroke:black; fill:white; " points="648,35 653,30 654,30 654,40 653,40 648,35 " description="&lt;b&gt;P773_RS0104610&lt;/b&gt;&lt;br&gt;peptide chain release factor N(5)-glutamine methyltransferase&lt;br&gt;Location: 850546 - 851389" id="dummy-4_q73_0_all" locus_tag="P773_RS0104610"  />
</g>
<g label="NZ_KN050654" class="clusterblast-cluster" description="NZ_KN050654_c3: Bacillus cereus ATCC 10876 scaffold1, whole genome shotgun se... (5% of genes show similarity), t1pks-nrps"  >
<text class="clusterblast-acc" y="70" x="5"  >
<a xlink:href="https://antismash-db.secondarymetabolites.org/go/NZ_KN050654/3" target="_blank">NZ_KN050654_c3</a>: Bacillus cereus ATCC 10876 scaffold1, whole genome shotgun se... (5% of genes show similarity), t1pks-nrps</text>
<line style="stroke-width:1; stroke:grey; " y1="85" x2="778.0" y2="85" x1="10"  />
</g>
<g id="a4_000"  >
<polygon class="clusterblast-orf" style="stroke-width:1; stroke:black; fill:white; " points="0,85 1,80 1,90 0,85 " description="&lt;b&gt;DJ50_RS11925&lt;/b&gt;&lt;br&gt;hypothetical protein&lt;br&gt;Location: 2327860 - 2328078" id="dummy-4_h4_4_0" locus_tag="DJ50_RS11925"  />
</g>
<g id="a4_001"  >
<polygon class="clusterblast-orf" style="stroke-width:1; stroke:black; fill:white; " points="5,85 9,80 9,90 5,85 " description="&lt;b&gt;DJ50_RS11930&lt;/b&gt;&lt;br&gt;NERD domain-containing protein&lt;br&gt;Location: 2328719 - 2329357" id="dummy-4_h4_4_1" locus_tag="DJ50_RS11930"  />
</g>
<g id="a4_002"  >
<polygon class="clusterblast-orf" style="stroke-width:1; stroke:black; fill:white; " points="9,85 12,80 12,90 9,85 " description="&lt;b&gt;DJ50_RS31320&lt;/b&gt;&lt;br&gt;hypothetical protein&lt;br&gt;Location: 2329374 - 2329775" id="dummy-4_h4_4_2" locus_tag="DJ50_RS31320"  />
</g>
<g id="a4_003"  >
<polygon class="clusterblast-orf" style="stroke-width:1; stroke:black; fill:white; " points="13,90 16,85 13,80 13,90 " description="&lt;b&gt;DJ50_RS11935&lt;/b&gt;&lt;br&gt;hypothetical protein&lt;br&gt;Location: 2329883 - 2330468" id="dummy-4_h4_4_3" locus_tag="DJ50_RS11935"  />
</g>
<g id="a4_004"  >
<polygon class="clusterblast-orf" style="stroke-width:1; stroke:black; fill:white; " points="17,90 20,85 17,80 17,90 " description="&lt;b&gt;DJ50_RS11940&lt;/b&gt;&lt;br&gt;hypothetical protein&lt;br&gt;Location: 2330488 - 2331066" id="dummy-4_h4_4_4" locus_tag="DJ50_RS11940"  />
</g>
<g id="a4_005"  >
<polygon class="clusterblast-orf" style="stroke-width:1; stroke:black; fill:white; " points="21,85 23,80 23,90 21,85 " description="&lt;b&gt;DJ50_RS31325&lt;/b&gt;&lt;br&gt;hypothetical protein&lt;br&gt;Location: 2331115 - 2331459" id="dummy-4_h4_4_5" locus_tag="DJ50_RS31325"  />
</g>
<g id="a4_006"  >
<polygon class="clusterblast-orf" style="stroke-width:1; stroke:black; fill:white; " points="25,85 29,80 29,90 25,85 " description="&lt;b&gt;DJ50_RS11950&lt;/b&gt;&lt;br&gt;hypothetical protein&lt;br&gt;Location: 2331747 - 2332379" id="dummy-4_h4_4_6" locus_tag="DJ50_RS11950"  />
</g>
<g id="a4_007"  >
<polygon class="clusterblast-orf" style="stroke-width:1; stroke:black; fill:white; " points="36,85 38,80 38,90 36,85 " description="&lt;b&gt;DJ50_RS31330&lt;/b&gt;&lt;br&gt;hypothetical protein&lt;br&gt;Location: 2333509 - 2333706" id="dummy-4_h4_4_7" locus_tag="DJ50_RS31330"  />
</g>
<g id="a4_008"  >
<polygon class="clusterblast-orf" style="stroke-width:1; stroke:black; fill:white; " points="40,85 45,80 46,80 46,90 45,90 40,85 " description="&lt;b&gt;DJ50_RS11955&lt;/b&gt;&lt;br&gt;hypothetical protein&lt;br&gt;Location: 2334020 - 2334946" id="dummy-4_h4_4_8" locus_tag="DJ50_RS11955"  />
</g>
<g id="a4_009"  >
<polygon class="clusterblast-orf" style="stroke-width:1; stroke:black; fill:white; " points="50,90 52,85 50,80 50,90 " description="&lt;b&gt;DJ50_RS31335&lt;/b&gt;&lt;br&gt;hypothetical protein&lt;br&gt;Location: 2335646 - 2335879" id="dummy-4_h4_4_9" locus_tag="DJ50_RS31335"  />
</g>
<g id="a4_0010"  >
<polygon class="clusterblast-orf" style="stroke-width:1; stroke:black; fill:white; " points="53,85 58,80 64,80 64,90 58,90 53,85 " description="&lt;b&gt;DJ50_RS11960&lt;/b&gt;&lt;br&gt;N-acetylmuramoyl-L-alanine amidase&lt;br&gt;Location: 2336097 - 2337710" id="dummy-4_h4_4_10" locus_tag="DJ50_RS11960"  />
</g>
<g id="a4_0011"  >
<polygon class="clusterblast-orf" style="stroke-width:1; stroke:black; fill:white; " points="72,90 74,85 72,80 72,90 " description="&lt;b&gt;DJ50_RS11965&lt;/b&gt;&lt;br&gt;hypothetical protein&lt;br&gt;Location: 2338923 - 2339219" id="dummy-4_h4_4_11" locus_tag="DJ50_RS11965"  />
</g>
<g id="a4_0012"  >
<polygon class="clusterblast-orf" style="stroke-width:1; stroke:black; fill:white; " points="80,90 80,90 85,85 80,80 80,80 80,90 " description="&lt;b&gt;DJ50_RS11975&lt;/b&gt;&lt;br&gt;hypothetical protein&lt;br&gt;Location: 2340288 - 2340961" id="dummy-4_h4_4_12" locus_tag="DJ50_RS11975"  />
</g>
<g id="a4_0013"  >
<polygon class="clusterblast-orf" style="stroke-width:1; stroke:black; fill:white; " points="85,85 86,80 86,90 85,85 " description="&lt;b&gt;DJ50_RS31340&lt;/b&gt;&lt;br&gt;hypothetical protein&lt;br&gt;Location: 2340918 - 2341139" id="dummy-4_h4_4_13" locus_tag="DJ50_RS31340"  />
</g>
<g id="a4_0014"  >
<polygon class="clusterblast-orf" style="stroke-width:1; stroke:black; fill:white; " points="87,85 88,80 88,90 87,85 " description="&lt;b&gt;DJ50_RS11980&lt;/b&gt;&lt;br&gt;DUF2164 domain-containing protein&lt;br&gt;Location: 2341218 - 2341469" id="dummy-4_h4_4_14" locus_tag="DJ50_RS11980"  />
</g>
<g id="a4_0015"  >
<polygon class="clusterblast-orf" style="stroke-width:1; stroke:black; fill:white; " points="89,85 94,80 94,80 94,90 94,90 89,85 " description="&lt;b&gt;DJ50_RS11985&lt;/b&gt;&lt;br&gt;hypothetical protein&lt;br&gt;Location: 2341609 - 2342382" id="dummy-4_h4_4_15" locus_tag="DJ50_RS11985"  />
</g>
<g id="a4_0016"  >
<polygon class="clusterblast-orf" style="stroke-width:1; stroke:black; fill:white; " points="95,85 100,80 101,80 101,90 100,90 95,85 " description="&lt;b&gt;DJ50_RS11990&lt;/b&gt;&lt;br&gt;2,3-diaminopropionate biosynthesis protein SbnB&lt;br&gt;Location: 2342514 - 2343482" id="dummy-4_h4_4_16" locus_tag="DJ50_RS11990"  />
</g>
<g id="a4_0017"  >
<polygon class="clusterblast-orf" style="stroke-width:1; stroke:black; fill:white; " points="101,85 106,80 108,80 108,90 106,90 101,85 " description="&lt;b&gt;DJ50_RS11995&lt;/b&gt;&lt;br&gt;2,3-diaminopropionate biosynthesis protein SbnA&lt;br&gt;Location: 2343510 - 2344487" id="dummy-4_h4_4_17" locus_tag="DJ50_RS11995"  />
</g>
<g id="a4_0018"  >
<polygon class="clusterblast-orf" style="stroke-width:1; stroke:black; fill:white; " points="109,85 114,80 115,80 115,90 114,90 109,85 " description="&lt;b&gt;DJ50_RS12000&lt;/b&gt;&lt;br&gt;ornithine carbamoyltransferase&lt;br&gt;Location: 2344608 - 2345540" id="dummy-4_h4_4_18" locus_tag="DJ50_RS12000"  />
</g>
<g id="a4_0019"  >
<polygon class="clusterblast-orf" style="stroke-width:1; stroke:black; fill:white; " points="120,85 124,80 124,90 120,85 " description="&lt;b&gt;DJ50_RS12005&lt;/b&gt;&lt;br&gt;hypothetical protein&lt;br&gt;Location: 2346329 - 2347027" id="dummy-4_h4_4_19" locus_tag="DJ50_RS12005"  />
</g>
<g id="a4_0020"  >
<polygon class="clusterblast-orf" style="stroke-width:1; stroke:black; fill:white; " points="125,90 126,85 125,80 125,90 " description="&lt;b&gt;DJ50_RS31345&lt;/b&gt;&lt;br&gt;hypothetical protein&lt;br&gt;Location: 2347090 - 2347269" id="dummy-4_h4_4_20" locus_tag="DJ50_RS31345"  />
</g>
<g id="a4_0021"  >
<polygon class="clusterblast-orf" style="stroke-width:1; stroke:black; fill:white; " points="126,85 131,80 169,80 169,90 131,90 126,85 " description="&lt;b&gt;DJ50_RS12010&lt;/b&gt;&lt;br&gt;non-ribosomal peptide synthetase&lt;br&gt;Location: 2347274 - 2353810" id="dummy-4_h4_4_21" locus_tag="DJ50_RS12010"  />
</g>
<g id="a4_0022"  >
<polygon class="clusterblast-orf" style="stroke-width:1; stroke:black; fill:white; " points="170,85 175,80 175,80 175,90 175,90 170,85 " description="&lt;b&gt;DJ50_RS12015&lt;/b&gt;&lt;br&gt;thioesterase&lt;br&gt;Location: 2354052 - 2354771" id="dummy-4_h4_4_22" locus_tag="DJ50_RS12015"  />
</g>
<g id="a4_0023"  >
<polygon class="clusterblast-orf" style="stroke-width:1; stroke:black; fill:white; " points="175,85 180,80 204,80 204,90 180,90 175,85 " description="&lt;b&gt;DJ50_RS12020&lt;/b&gt;&lt;br&gt;non-ribosomal peptide synthetase&lt;br&gt;Location: 2354827 - 2359323" id="dummy-4_h4_4_23" locus_tag="DJ50_RS12020"  />
</g>
<g id="a4_0024"  >
<polygon class="clusterblast-orf" style="stroke-width:1; stroke:black; fill:white; " points="204,85 209,80 211,80 211,90 209,90 204,85 " description="&lt;b&gt;DJ50_RS12025&lt;/b&gt;&lt;br&gt;methoxymalonyl-ACP biosynthesis protein FkbH&lt;br&gt;Location: 2359305 - 2360384" id="dummy-4_h4_4_24" locus_tag="DJ50_RS12025"  />
</g>
<g id="a4_0025"  >
<polygon class="clusterblast-orf" style="stroke-width:1; stroke:black; fill:white; " points="211,85 216,80 231,80 231,90 216,90 211,85 " description="&lt;b&gt;DJ50_RS12030&lt;/b&gt;&lt;br&gt;cyclic peptide export ABC transporter&lt;br&gt;Location: 2360381 - 2363464" id="dummy-4_h4_4_25" locus_tag="DJ50_RS12030"  />
</g>
<g id="a4_0026"  >
<polygon class="clusterblast-orf" style="stroke-width:1; stroke:black; fill:white; " points="232,85 237,80 239,80 239,90 237,90 232,85 " description="&lt;b&gt;DJ50_RS12035&lt;/b&gt;&lt;br&gt;flavin-dependent oxidoreductase&lt;br&gt;Location: 2363480 - 2364556" id="dummy-4_h4_4_26" locus_tag="DJ50_RS12035"  />
</g>
<g id="a4_0027"  >
<polygon class="clusterblast-orf" style="stroke-width:1; stroke:black; fill:white; " points="239,85 244,80 289,80 289,90 244,90 239,85 " description="&lt;b&gt;DJ50_RS12040&lt;/b&gt;&lt;br&gt;hybrid non-ribosomal peptide synthetase/type I polyketide synthase&lt;br&gt;Location: 2364575 - 2372263" id="dummy-4_h4_4_27" locus_tag="DJ50_RS12040"  />
</g>
<g id="a4_0028"  >
<polygon class="clusterblast-orf" style="stroke-width:1; stroke:black; fill:white; " points="289,85 294,80 299,80 299,90 294,90 289,85 " description="&lt;b&gt;DJ50_RS12045&lt;/b&gt;&lt;br&gt;peptide synthetase&lt;br&gt;Location: 2372238 - 2373815" id="dummy-4_h4_4_28" locus_tag="DJ50_RS12045"  />
</g>
<g id="a4_0029"  >
<polygon class="clusterblast-orf" style="stroke-width:1; stroke:black; fill:white; " points="299,85 304,80 307,80 307,90 304,90 299,85 " description="&lt;b&gt;DJ50_RS12050&lt;/b&gt;&lt;br&gt;acyl-CoA dehydrogenase&lt;br&gt;Location: 2373812 - 2375005" id="dummy-4_h4_4_29" locus_tag="DJ50_RS12050"  />
</g>
<g id="a4_0030"  >
<polygon class="clusterblast-orf" style="stroke-width:1; stroke:black; fill:white; " points="307,85 308,80 308,90 307,85 " description="&lt;b&gt;DJ50_RS12055&lt;/b&gt;&lt;br&gt;acyl carrier protein&lt;br&gt;Location: 2375005 - 2375250" id="dummy-4_h4_4_30" locus_tag="DJ50_RS12055"  />
</g>
<g id="a4_0031"  >
<polygon class="clusterblast-orf" style="stroke-width:1; stroke:black; fill:white; " points="308,85 313,80 314,80 314,90 313,90 308,85 " description="&lt;b&gt;DJ50_RS12060&lt;/b&gt;&lt;br&gt;3-hydroxybutyryl-CoA dehydrogenase&lt;br&gt;Location: 2375281 - 2376129" id="dummy-4_h4_4_31" locus_tag="DJ50_RS12060"  />
</g>
<g id="a4_0032"  >
<polygon class="clusterblast-orf" style="stroke-width:1; stroke:black; fill:white; " points="314,85 319,80 322,80 322,90 319,90 314,85 " description="&lt;b&gt;DJ50_RS12065&lt;/b&gt;&lt;br&gt;ACP S-malonyltransferase&lt;br&gt;Location: 2376170 - 2377387" id="dummy-4_h4_4_32" locus_tag="DJ50_RS12065"  />
</g>
<g id="a4_0033"  >
<polygon class="clusterblast-orf" style="stroke-width:1; stroke:black; fill:white; " points="322,85 327,80 330,80 330,90 327,90 322,85 " description="&lt;b&gt;DJ50_RS12070&lt;/b&gt;&lt;br&gt;GNAT family N-acetyltransferase&lt;br&gt;Location: 2377407 - 2378534" id="dummy-4_h4_4_33" locus_tag="DJ50_RS12070"  />
</g>
<g id="a4_0034"  >
<polygon class="clusterblast-orf" style="stroke-width:1; stroke:black; fill:white; " points="330,85 335,80 337,80 337,90 335,90 330,85 " description="&lt;b&gt;DJ50_RS12075&lt;/b&gt;&lt;br&gt;acyl-CoA dehydrogenase&lt;br&gt;Location: 2378531 - 2379679" id="dummy-4_h4_4_34" locus_tag="DJ50_RS12075"  />
</g>
<g id="a4_0035"  >
<polygon class="clusterblast-orf" style="stroke-width:1; stroke:black; fill:white; " points="337,85 339,80 339,90 337,85 " description="&lt;b&gt;DJ50_RS12080&lt;/b&gt;&lt;br&gt;acyl carrier protein&lt;br&gt;Location: 2379676 - 2379939" id="dummy-4_h4_4_35" locus_tag="DJ50_RS12080"  />
</g>
<g id="a4_0036"  >
<polygon class="clusterblast-orf" style="stroke-width:1; stroke:black; fill:white; " points="339,85 344,80 356,80 356,90 344,90 339,85 " description="&lt;b&gt;DJ50_RS12085&lt;/b&gt;&lt;br&gt;hypothetical protein&lt;br&gt;Location: 2379972 - 2382623" id="dummy-4_h4_4_36" locus_tag="DJ50_RS12085"  />
</g>
<g id="a4_0037"  >
<polygon class="clusterblast-orf" style="stroke-width:1; stroke:black; fill:white; " points="358,85 363,80 396,80 396,90 363,90 358,85 " description="&lt;b&gt;DJ50_RS12090&lt;/b&gt;&lt;br&gt;non-ribosomal peptide synthetase&lt;br&gt;Location: 2382942 - 2388665" id="dummy-4_h4_4_37" locus_tag="DJ50_RS12090"  />
</g>
<g id="a4_0038"  >
<polygon class="clusterblast-orf" style="stroke-width:1; stroke:black; fill:white; " points="396,85 401,80 461,80 461,90 401,90 396,85 " description="&lt;b&gt;DJ50_RS12095&lt;/b&gt;&lt;br&gt;type I polyketide synthase&lt;br&gt;Location: 2388692 - 2398702" id="dummy-4_h4_4_38" locus_tag="DJ50_RS12095"  />
</g>
<g id="a4_0039"  >
<polygon class="clusterblast-orf" style="stroke-width:1; stroke:black; fill:white; " points="474,90 474,90 479,85 474,80 474,80 474,90 " description="&lt;b&gt;DJ50_RS12100&lt;/b&gt;&lt;br&gt;hypothetical protein&lt;br&gt;Location: 2400620 - 2401420" id="dummy-4_h4_4_39" locus_tag="DJ50_RS12100"  />
</g>
<g id="a4_0040"  >
<polygon class="clusterblast-orf" style="stroke-width:1; stroke:black; fill:white; " points="480,85 483,80 483,90 480,85 " description="&lt;b&gt;DJ50_RS12105&lt;/b&gt;&lt;br&gt;DUF3021 domain-containing protein&lt;br&gt;Location: 2401674 - 2402069" id="dummy-4_h4_4_40" locus_tag="DJ50_RS12105"  />
</g>
<g id="a4_0041"  >
<polygon class="clusterblast-orf" style="stroke-width:1; stroke:black; fill:white; " points="483,85 486,80 486,90 483,85 " description="&lt;b&gt;DJ50_RS12110&lt;/b&gt;&lt;br&gt;hypothetical protein&lt;br&gt;Location: 2402093 - 2402602" id="dummy-4_h4_4_41" locus_tag="DJ50_RS12110"  />
</g>
<g id="a4_0042"  >
<polygon class="clusterblast-orf" style="stroke-width:1; stroke:black; fill:white; " points="487,85 490,80 490,90 487,85 " description="&lt;b&gt;DJ50_RS12115&lt;/b&gt;&lt;br&gt;LytTR family transcriptional regulator&lt;br&gt;Location: 2402697 - 2403149" id="dummy-4_h4_4_42" locus_tag="DJ50_RS12115"  />
</g>
<g id="a4_0043"  >
<polygon class="clusterblast-orf" style="stroke-width:1; stroke:black; fill:white; " points="492,85 497,80 501,80 501,90 497,90 492,85 " description="&lt;b&gt;DJ50_RS12120&lt;/b&gt;&lt;br&gt;MATE family efflux transporter&lt;br&gt;Location: 2403499 - 2404899" id="dummy-4_h4_4_43" locus_tag="DJ50_RS12120"  />
</g>
<g id="a4_0044"  >
<polygon class="clusterblast-orf" style="stroke-width:1; stroke:black; fill:white; " points="507,85 512,80 513,80 513,90 512,90 507,85 " description="&lt;b&gt;DJ50_RS12125&lt;/b&gt;&lt;br&gt;alpha/beta hydrolase&lt;br&gt;Location: 2405831 - 2406703" id="dummy-4_h4_4_44" locus_tag="DJ50_RS12125"  />
</g>
<g id="a4_0045"  >
<polygon class="clusterblast-orf" style="stroke-width:1; stroke:black; fill:white; " points="514,85 519,80 521,80 521,90 519,90 514,85 " description="&lt;b&gt;DJ50_RS12130&lt;/b&gt;&lt;br&gt;glycosyl transferase&lt;br&gt;Location: 2406765 - 2407967" id="dummy-4_h4_4_45" locus_tag="DJ50_RS12130"  />
</g>
<g id="a4_0046"  >
<polygon class="clusterblast-orf" style="stroke-width:1; stroke:black; fill:white; " points="523,90 527,85 523,80 523,90 " description="&lt;b&gt;DJ50_RS12135&lt;/b&gt;&lt;br&gt;N-acetyltransferase&lt;br&gt;Location: 2408261 - 2408791" id="dummy-4_h4_4_46" locus_tag="DJ50_RS12135"  />
</g>
<g id="a4_0047"  >
<polygon class="clusterblast-orf" style="stroke-width:1; stroke:black; fill:white; " points="529,85 534,80 536,80 536,90 534,90 529,85 " description="&lt;b&gt;DJ50_RS12140&lt;/b&gt;&lt;br&gt;esterase&lt;br&gt;Location: 2409207 - 2410178" id="dummy-4_h4_4_47" locus_tag="DJ50_RS12140"  />
</g>
<g id="a4_0048"  >
<polygon class="clusterblast-orf" style="stroke-width:1; stroke:black; fill:white; " points="538,85 540,80 540,90 538,85 " description="&lt;b&gt;DJ50_RS12145&lt;/b&gt;&lt;br&gt;hypothetical protein&lt;br&gt;Location: 2410482 - 2410823" id="dummy-4_h4_4_48" locus_tag="DJ50_RS12145"  />
</g>
<g id="a4_0049"  >
<polygon class="clusterblast-orf" style="stroke-width:1; stroke:black; fill:white; " points="541,90 543,85 541,80 541,90 " description="&lt;b&gt;DJ50_RS12150&lt;/b&gt;&lt;br&gt;integrase&lt;br&gt;Location: 2410901 - 2411236" id="dummy-4_h4_4_49" locus_tag="DJ50_RS12150"  />
</g>
<g id="a4_0050"  >
<polygon class="clusterblast-orf" style="stroke-width:1; stroke:black; fill:white; " points="545,85 550,80 552,80 552,90 550,90 545,85 " description="&lt;b&gt;DJ50_RS12155&lt;/b&gt;&lt;br&gt;FAD-dependent monooxygenase&lt;br&gt;Location: 2411570 - 2412718" id="dummy-4_h4_4_50" locus_tag="DJ50_RS12155"  />
</g>
<g id="a4_0051"  >
<polygon class="clusterblast-orf" style="stroke-width:1; stroke:black; fill:white; " points="565,85 570,80 572,80 572,90 570,90 565,85 " description="&lt;b&gt;DJ50_RS12160&lt;/b&gt;&lt;br&gt;D-alanyl-D-alanine carboxypeptidase&lt;br&gt;Location: 2414595 - 2415764" id="dummy-4_h4_4_51" locus_tag="DJ50_RS12160"  />
</g>
<g id="a4_0052"  >
<polygon class="clusterblast-orf" style="stroke-width:1; stroke:black; fill:white; " points="577,90 581,85 577,80 577,90 " description="&lt;b&gt;DJ50_RS12165&lt;/b&gt;&lt;br&gt;hypothetical protein&lt;br&gt;Location: 2416465 - 2417145" id="dummy-4_h4_4_52" locus_tag="DJ50_RS12165"  />
</g>
<g id="a4_0053"  >
<polygon class="clusterblast-orf" style="stroke-width:1; stroke:black; fill:white; " points="583,85 588,80 593,80 593,90 588,90 583,85 " description="&lt;b&gt;DJ50_RS12170&lt;/b&gt;&lt;br&gt;IS4 family transposase&lt;br&gt;Location: 2417480 - 2418916" id="dummy-4_h4_4_53" locus_tag="DJ50_RS12170"  />
</g>
<g id="a4_0054"  >
<polygon class="clusterblast-orf" style="stroke-width:1; stroke:black; fill:white; " points="593,85 598,80 598,80 598,90 598,90 593,85 " description="&lt;b&gt;DJ50_RS12175&lt;/b&gt;&lt;br&gt;NADH-flavin reductase&lt;br&gt;Location: 2419022 - 2419660" id="dummy-4_h4_4_54" locus_tag="DJ50_RS12175"  />
</g>
<g id="a4_0055"  >
<polygon class="clusterblast-orf" style="stroke-width:1; stroke:black; fill:white; " points="604,85 609,80 653,80 653,90 609,90 604,85 " description="&lt;b&gt;DJ50_RS12180&lt;/b&gt;&lt;br&gt;non-ribosomal peptide synthetase&lt;br&gt;Location: 2420602 - 2428212" id="dummy-4_h4_4_55" locus_tag="DJ50_RS12180"  />
</g>
<g id="a4_0056"  >
<polygon class="clusterblast-orf" style="stroke-width:1; stroke:black; fill:white; " points="656,90 657,90 662,85 657,80 656,80 656,90 " description="&lt;b&gt;DJ50_RS12185&lt;/b&gt;&lt;br&gt;aldo/keto reductase&lt;br&gt;Location: 2428579 - 2429505" id="dummy-4_h4_4_56" locus_tag="DJ50_RS12185"  />
</g>
<g id="a4_0057"  >
<polygon class="clusterblast-orf" style="stroke-width:1; stroke:black; fill:white; " points="665,90 671,90 676,85 671,80 665,80 665,90 " description="&lt;b&gt;DJ50_RS12190&lt;/b&gt;&lt;br&gt;aspartate aminotransferase family protein&lt;br&gt;Location: 2429991 - 2431643" id="dummy-4_h4_4_57" locus_tag="DJ50_RS12190"  />
</g>
<g id="a4_0058"  >
<polygon class="clusterblast-orf" style="stroke-width:1; stroke:black; fill:white; " points="676,90 676,90 681,85 676,80 676,80 676,90 " description="&lt;b&gt;DJ50_RS12195&lt;/b&gt;&lt;br&gt;hypothetical protein&lt;br&gt;Location: 2431747 - 2432391" id="dummy-4_h4_4_58" locus_tag="DJ50_RS12195"  />
</g>
<g id="a4_0059"  >
<polygon class="clusterblast-orf" style="stroke-width:1; stroke:black; fill:white; " points="685,85 690,80 692,80 692,90 690,90 685,85 " description="&lt;b&gt;DJ50_RS12200&lt;/b&gt;&lt;br&gt;transposase&lt;br&gt;Location: 2433091 - 2434210" id="dummy-4_h4_4_59" locus_tag="DJ50_RS12200"  />
</g>
<g id="a4_0060"  >
<polygon class="clusterblast-orf" style="stroke-width:1; stroke:black; fill:white; " points="702,85 703,80 703,90 702,85 " description="&lt;b&gt;DJ50_RS31350&lt;/b&gt;&lt;br&gt;hypothetical protein&lt;br&gt;Location: 2435726 - 2435824" id="dummy-4_h4_4_60" locus_tag="DJ50_RS31350"  />
</g>
<g id="a4_0061"  >
<polygon class="clusterblast-orf" style="stroke-width:1; stroke:black; fill:white; " points="703,90 705,85 703,80 703,90 " description="&lt;b&gt;DJ50_RS12205&lt;/b&gt;&lt;br&gt;hypothetical protein&lt;br&gt;Location: 2435911 - 2436144" id="dummy-4_h4_4_61" locus_tag="DJ50_RS12205"  />
</g>
<g id="a4_0062"  >
<polygon class="clusterblast-orf" style="stroke-width:1; stroke:black; fill:white; " points="706,90 708,85 706,80 706,90 " description="&lt;b&gt;DJ50_RS12210&lt;/b&gt;&lt;br&gt;hypothetical protein&lt;br&gt;Location: 2436370 - 2436615" id="dummy-4_h4_4_62" locus_tag="DJ50_RS12210"  />
</g>
<g id="a4_0063"  >
<polygon class="clusterblast-orf" style="stroke-width:1; stroke:black; fill:white; " points="708,90 710,90 715,85 710,80 708,80 708,90 " description="&lt;b&gt;DJ50_RS12215&lt;/b&gt;&lt;br&gt;hypothetical protein&lt;br&gt;Location: 2436647 - 2437624" id="dummy-4_h4_4_63" locus_tag="DJ50_RS12215"  />
</g>
<g id="a4_0064"  >
<polygon class="clusterblast-orf" style="stroke-width:1; stroke:black; fill:#1551d8; " points="716,85 721,80 723,80 723,90 721,90 716,85 " description="&lt;b&gt;DJ50_RS12220&lt;/b&gt;&lt;br&gt;pseudaminic acid synthase&lt;br&gt;Location: 2437865 - 2438914&lt;br&gt;&lt;br&gt;&lt;b&gt;BlastP hit with P773_RS0104380&lt;/b&gt;&lt;br&gt;Percentage identity: 40&lt;br&gt;Percentage coverage: 99&lt;br&gt;BLAST bit score: 247&lt;br&gt;E-value: 2.2e-63" id="dummy-4_h4_4_64" locus_tag="DJ50_RS12220"  />
</g>
<g id="a4_0065"  >
<polygon class="clusterblast-orf" style="stroke-width:1; stroke:black; fill:white; " points="723,85 727,80 727,90 723,85 " description="&lt;b&gt;DJ50_RS12225&lt;/b&gt;&lt;br&gt;UDP-4-amino-4, 6-dideoxy-N-acetyl-beta-L-altrosamine N-acetyltransferase&lt;br&gt;Location: 2438907 - 2439467" id="dummy-4_h4_4_65" locus_tag="DJ50_RS12225"  />
</g>
<g id="a4_0066"  >
<polygon class="clusterblast-orf" style="stroke-width:1; stroke:black; fill:white; " points="727,85 732,80 734,80 734,90 732,90 727,85 " description="&lt;b&gt;DJ50_RS12230&lt;/b&gt;&lt;br&gt;UDP-2,4-diacetamido-2,4, 6-trideoxy-beta-L-altropyranose hydrolase&lt;br&gt;Location: 2439469 - 2440569" id="dummy-4_h4_4_66" locus_tag="DJ50_RS12230"  />
</g>
<g id="a4_0067"  >
<polygon class="clusterblast-orf" style="stroke-width:1; stroke:black; fill:white; " points="734,85 739,80 741,80 741,90 739,90 734,85 " description="&lt;b&gt;DJ50_RS12235&lt;/b&gt;&lt;br&gt;spore coat protein&lt;br&gt;Location: 2440609 - 2441604" id="dummy-4_h4_4_67" locus_tag="DJ50_RS12235"  />
</g>
<g id="a4_0068"  >
<polygon class="clusterblast-orf" style="stroke-width:1; stroke:black; fill:#d86f15; " points="741,85 746,80 748,80 748,90 746,90 741,85 " description="&lt;b&gt;DJ50_RS12240&lt;/b&gt;&lt;br&gt;UDP-4-amino-4, 6-dideoxy-N-acetyl-beta-L-altrosamine transaminase&lt;br&gt;Location: 2441605 - 2442810&lt;br&gt;&lt;br&gt;&lt;b&gt;BlastP hit with P773_RS07860&lt;/b&gt;&lt;br&gt;Percentage identity: 39&lt;br&gt;Percentage coverage: 57&lt;br&gt;BLAST bit score: 267&lt;br&gt;E-value: 5.6e-69&lt;br&gt;&lt;br&gt;&lt;b&gt;BlastP hit with P773_RS0104415&lt;/b&gt;&lt;br&gt;Percentage identity: 32&lt;br&gt;Percentage coverage: 90&lt;br&gt;BLAST bit score: 150&lt;br&gt;E-value: 3.4e-34&lt;br&gt;&lt;br&gt;&lt;b&gt;BlastP hit with P773_RS0104520&lt;/b&gt;&lt;br&gt;Percentage identity: 33&lt;br&gt;Percentage coverage: 102&lt;br&gt;BLAST bit score: 208&lt;br&gt;E-value: 9.8e-52" id="dummy-4_h4_4_68" locus_tag="DJ50_RS12240"  />
</g>
<g id="a4_0069"  >
<polygon class="clusterblast-orf" style="stroke-width:1; stroke:black; fill:#d815c9; " points="748,85 753,80 755,80 755,90 753,90 748,85 " description="&lt;b&gt;DJ50_RS12245&lt;/b&gt;&lt;br&gt;NAD-dependent dehydratase&lt;br&gt;Location: 2442810 - 2443772&lt;br&gt;&lt;br&gt;&lt;b&gt;BlastP hit with P773_RS0104420&lt;/b&gt;&lt;br&gt;Percentage identity: 31&lt;br&gt;Percentage coverage: 102&lt;br&gt;BLAST bit score: 118&lt;br&gt;E-value: 1.5e-24" id="dummy-4_h4_4_69" locus_tag="DJ50_RS12245"  />
</g>
<g id="a4_0070"  >
<polygon class="clusterblast-orf" style="stroke-width:1; stroke:black; fill:#15d851; " points="755,85 760,80 761,80 761,90 760,90 755,85 " description="&lt;b&gt;DJ50_RS12250&lt;/b&gt;&lt;br&gt;membrane protein&lt;br&gt;Location: 2443769 - 2444794&lt;br&gt;&lt;br&gt;&lt;b&gt;BlastP hit with P773_RS0104355&lt;/b&gt;&lt;br&gt;Percentage identity: 39&lt;br&gt;Percentage coverage: 98&lt;br&gt;BLAST bit score: 206&lt;br&gt;E-value: 5.6e-51" id="dummy-4_h4_4_70" locus_tag="DJ50_RS12250"  />
</g>
<g id="a4_0071"  >
<polygon class="clusterblast-orf" style="stroke-width:1; stroke:black; fill:white; " points="763,85 764,80 764,90 763,85 " description="&lt;b&gt;DJ50_RS31355&lt;/b&gt;&lt;br&gt;spore coat protein&lt;br&gt;Location: 2445034 - 2445185" id="dummy-4_h4_4_71" locus_tag="DJ50_RS31355"  />
</g>
<g id="a4_0072"  >
<polygon class="clusterblast-orf" style="stroke-width:1; stroke:black; fill:white; " points="764,85 769,80 769,80 769,90 769,90 764,85 " description="&lt;b&gt;DJ50_RS12255&lt;/b&gt;&lt;br&gt;glycosyltransferase family 2 protein&lt;br&gt;Location: 2445237 - 2446004" id="dummy-4_h4_4_72" locus_tag="DJ50_RS12255"  />
</g>
<g id="a4_0073"  >
<polygon class="clusterblast-orf" style="stroke-width:1; stroke:black; fill:white; " points="771,90 775,90 780,85 775,80 771,80 771,90 " description="&lt;b&gt;DJ50_RS12260&lt;/b&gt;&lt;br&gt;glycosyltransferase family 2 protein&lt;br&gt;Location: 2446292 - 2447581" id="dummy-4_h4_4_73" locus_tag="DJ50_RS12260"  />
</g>
</svg>
