<svg version="1.1" preserveAspectRatio="none" width="800" y="0" xmlns:xlink="http://www.w3.org/1999/xlink" height="230" x="0" xmlns="http://www.w3.org/2000/svg" viewBox="0 0 800 230"  >
<g label="Query sequence" class="clusterblast-cluster"  >
<text class="clusterblast-acc" y="20" x="5"  >
Query sequence</text>
<line style="stroke-width:1; stroke:grey; " y1="35" x2="778.0" y2="35" x1="10"  />
<polygon class="clusterblast-orf" style="stroke-width:1; stroke:black; fill:#d81515; " points="113,35 118,30 126,30 126,40 118,40 113,35 " description="&lt;b&gt;P773_RS0102035&lt;/b&gt;&lt;br&gt;phosphate regulon transcriptional regulatory protein PhoB&lt;br&gt;Location: 349897 - 350581" id="dummy-3_q0_0_all" locus_tag="P773_RS0102035"  />
<polygon class="clusterblast-orf" style="stroke-width:1; stroke:black; fill:#5cd815; " points="126,35 131,30 139,30 139,40 131,40 126,35 " description="&lt;b&gt;P773_RS0102040&lt;/b&gt;&lt;br&gt;phosphate transport system regulatory protein PhoU&lt;br&gt;Location: 350584 - 351292" id="dummy-3_q1_0_all" locus_tag="P773_RS0102040"  />
<polygon class="clusterblast-orf" style="stroke-width:1; stroke:black; fill:#15a3d8; " points="139,35 144,30 153,30 153,40 144,40 139,35 " description="&lt;b&gt;P773_RS0102045&lt;/b&gt;&lt;br&gt;phosphate ABC transporter ATP-binding protein&lt;br&gt;Location: 351291 - 352047" id="dummy-3_q2_0_all" locus_tag="P773_RS0102045"  />
<polygon class="clusterblast-orf" style="stroke-width:1; stroke:black; fill:#c715d8; " points="153,35 158,30 176,30 176,40 158,40 153,35 " description="&lt;b&gt;P773_RS0102050&lt;/b&gt;&lt;br&gt;phosphate ABC transporter, permease protein PstA&lt;br&gt;Location: 352050 - 353322" id="dummy-3_q3_0_all" locus_tag="P773_RS0102050"  />
<polygon class="clusterblast-orf" style="stroke-width:1; stroke:black; fill:#d88015; " points="176,35 181,30 202,30 202,40 181,40 176,35 " description="&lt;b&gt;P773_RS0102055&lt;/b&gt;&lt;br&gt;phosphate ABC transporter permease subunit PstC&lt;br&gt;Location: 353314 - 354700" id="dummy-3_q4_0_all" locus_tag="P773_RS0102055"  />
<polygon class="clusterblast-orf" style="stroke-width:1; stroke:black; fill:#15d839; " points="203,35 208,30 223,30 223,40 208,40 203,35 " description="&lt;b&gt;P773_RS0102060&lt;/b&gt;&lt;br&gt;phosphate-binding protein&lt;br&gt;Location: 354775 - 355810" id="dummy-3_q5_0_all" locus_tag="P773_RS0102060"  />
<polygon class="clusterblast-orf" style="stroke-width:1; stroke:black; fill:white; " points="225,35 230,30 235,30 235,40 230,40 225,35 " description="&lt;b&gt;P773_RS0102065&lt;/b&gt;&lt;br&gt;hypothetical protein&lt;br&gt;Location: 355916 - 356483" id="dummy-3_q6_0_all" locus_tag="P773_RS0102065"  />
<polygon class="clusterblast-orf" style="stroke-width:1; stroke:black; fill:#1539d8; " points="238,35 243,30 259,30 259,40 243,40 238,35 " description="&lt;b&gt;P773_RS0102070&lt;/b&gt;&lt;br&gt;hypothetical protein&lt;br&gt;Location: 356628 - 357777" id="dummy-3_q7_0_all" locus_tag="P773_RS0102070"  />
<polygon class="clusterblast-orf" style="stroke-width:1; stroke:black; fill:white; " points="261,40 271,40 276,35 271,30 261,30 261,40 " description="&lt;b&gt;P773_RS0102075&lt;/b&gt;&lt;br&gt;GNAT family N-acetyltransferase&lt;br&gt;Location: 357848 - 358676" id="dummy-3_q8_0_all" locus_tag="P773_RS0102075"  />
<polygon class="clusterblast-orf" style="stroke-width:1; stroke:black; fill:#d81580; " points="276,40 285,40 290,35 285,30 276,30 276,40 " description="&lt;b&gt;P773_RS0102080&lt;/b&gt;&lt;br&gt;hypothetical protein&lt;br&gt;Location: 358675 - 359413" id="dummy-3_q9_0_all" locus_tag="P773_RS0102080"  />
<polygon class="clusterblast-orf" style="stroke-width:1; stroke:black; fill:white; " points="289,35 294,30 308,30 308,40 294,40 289,35 " description="&lt;b&gt;P773_RS0102085&lt;/b&gt;&lt;br&gt;glycosyltransferase family 1 protein&lt;br&gt;Location: 359405 - 360410" id="dummy-3_q10_0_all" locus_tag="P773_RS0102085"  />
<polygon class="clusterblast-orf" style="stroke-width:1; stroke:black; fill:white; " points="308,35 313,30 324,30 324,40 313,40 308,35 " description="&lt;b&gt;P773_RS0102090&lt;/b&gt;&lt;br&gt;UDP-2,3-diacylglucosamine diphosphatase&lt;br&gt;Location: 360412 - 361246" id="dummy-3_q11_0_all" locus_tag="P773_RS0102090"  />
<polygon class="clusterblast-orf" style="stroke-width:1; stroke:black; fill:white; " points="325,40 337,40 342,35 337,30 325,30 325,40 " description="&lt;b&gt;P773_RS0102095&lt;/b&gt;&lt;br&gt;hypothetical protein&lt;br&gt;Location: 361330 - 362221" id="dummy-3_q12_0_all" locus_tag="P773_RS0102095"  />
<polygon class="clusterblast-orf" style="stroke-width:1; stroke:black; fill:white; " points="343,40 347,35 343,30 343,40 " description="&lt;b&gt;P773_RS0102100&lt;/b&gt;&lt;br&gt;hypothetical protein&lt;br&gt;Location: 362290 - 362500" id="dummy-3_q13_0_all" locus_tag="P773_RS0102100"  />
<polygon class="clusterblast-orf" style="stroke-width:1; stroke:black; fill:white; " points="351,35 356,30 371,30 371,40 356,40 351,35 " description="&lt;b&gt;P773_RS0102105&lt;/b&gt;&lt;br&gt;hypothetical protein&lt;br&gt;Location: 362701 - 363799" id="dummy-3_q14_0_all" locus_tag="P773_RS0102105"  />
<polygon class="clusterblast-orf" style="stroke-width:1; stroke:black; fill:white; " points="371,35 376,30 391,30 391,40 376,40 371,35 " description="&lt;b&gt;P773_RS0102110&lt;/b&gt;&lt;br&gt;phosphonopyruvate decarboxylase&lt;br&gt;Location: 363795 - 364893" id="dummy-3_q15_0_all" locus_tag="P773_RS0102110"  />
<polygon class="clusterblast-orf" style="stroke-width:1; stroke:black; fill:white; " points="391,35 396,30 415,30 415,40 396,40 391,35 " description="&lt;b&gt;P773_RS0102115&lt;/b&gt;&lt;br&gt;phosphoenolpyruvate mutase&lt;br&gt;Location: 364885 - 366187" id="dummy-3_q16_0_all" locus_tag="P773_RS0102115"  />
<polygon class="clusterblast-orf" style="stroke-width:1; stroke:black; fill:white; " points="415,35 420,30 440,30 440,40 420,40 415,35 " description="&lt;b&gt;P773_RS0102120&lt;/b&gt;&lt;br&gt;hypothetical protein&lt;br&gt;Location: 366183 - 367488" id="dummy-3_q17_0_all" locus_tag="P773_RS0102120"  />
<polygon class="clusterblast-orf" style="stroke-width:1; stroke:black; fill:white; " points="442,35 447,30 463,30 463,40 447,40 442,35 " description="&lt;b&gt;P773_RS0102125&lt;/b&gt;&lt;br&gt;hypothetical protein&lt;br&gt;Location: 367607 - 368726" id="dummy-3_q18_0_all" locus_tag="P773_RS0102125"  />
<polygon class="clusterblast-orf" style="stroke-width:1; stroke:black; fill:white; " points="463,35 468,30 485,30 485,40 468,40 463,35 " description="&lt;b&gt;P773_RS0102130&lt;/b&gt;&lt;br&gt;mannose-6-phosphate isomerase&lt;br&gt;Location: 368750 - 369956" id="dummy-3_q19_0_all" locus_tag="P773_RS0102130"  />
<polygon class="clusterblast-orf" style="stroke-width:1; stroke:black; fill:white; " points="485,35 490,30 517,30 517,40 490,40 485,35 " description="&lt;b&gt;P773_RS0102135&lt;/b&gt;&lt;br&gt;dihydroxy-acid dehydratase&lt;br&gt;Location: 369955 - 371674" id="dummy-3_q20_0_all" locus_tag="P773_RS0102135"  />
<polygon class="clusterblast-orf" style="stroke-width:1; stroke:black; fill:white; " points="517,35 522,30 566,30 566,40 522,40 517,35 " description="&lt;b&gt;P773_RS0102140&lt;/b&gt;&lt;br&gt;valine--tRNA ligase&lt;br&gt;Location: 371673 - 374301" id="dummy-3_q21_0_all" locus_tag="P773_RS0102140"  />
<polygon class="clusterblast-orf" style="stroke-width:1; stroke:black; fill:white; " points="574,35 579,30 581,30 581,40 579,40 574,35 " description="&lt;b&gt;P773_RS0102155&lt;/b&gt;&lt;br&gt;XRE family transcriptional regulator&lt;br&gt;Location: 374716 - 375088" id="dummy-3_q22_0_all" locus_tag="P773_RS0102155"  />
<polygon class="clusterblast-orf" style="stroke-width:1; stroke:black; fill:#15a3d8; " points="584,35 589,30 598,30 598,40 589,40 584,35 " description="&lt;b&gt;P773_RS0102160&lt;/b&gt;&lt;br&gt;amino acid ABC transporter ATP-binding protein&lt;br&gt;Location: 375275 - 376010" id="dummy-3_q23_0_all" locus_tag="P773_RS0102160"  />
<polygon class="clusterblast-orf" style="stroke-width:1; stroke:black; fill:#c7d815; " points="598,35 603,30 625,30 625,40 603,40 598,35 " description="&lt;b&gt;P773_RS0102165&lt;/b&gt;&lt;br&gt;amino acid ABC transporter permease&lt;br&gt;Location: 376009 - 377452" id="dummy-3_q24_0_all" locus_tag="P773_RS0102165"  />
<polygon class="clusterblast-orf" style="stroke-width:1; stroke:black; fill:#15d8a3; " points="625,35 630,30 646,30 646,40 630,40 625,35 " description="&lt;b&gt;P773_RS0102170&lt;/b&gt;&lt;br&gt;amino acid ABC transporter permease&lt;br&gt;Location: 377451 - 378597" id="dummy-3_q25_0_all" locus_tag="P773_RS0102170"  />
<polygon class="clusterblast-orf" style="stroke-width:1; stroke:black; fill:#5c15d8; " points="647,35 652,30 667,30 667,40 652,40 647,35 " description="&lt;b&gt;P773_RS0102175&lt;/b&gt;&lt;br&gt;amino acid ABC transporter substrate-binding protein&lt;br&gt;Location: 378669 - 379710" id="dummy-3_q26_0_all" locus_tag="P773_RS0102175"  />
</g>
<g label="NZ_CP015318" class="clusterblast-cluster" description="NZ_CP015318_c1: Mesorhizobium amorphae CCNWGS0123, complete genome (14% of genes show similarity), other"  >
<text class="clusterblast-acc" y="70" x="5"  >
<a xlink:href="https://antismash-db.secondarymetabolites.org/go/NZ_CP015318/1" target="_blank">NZ_CP015318_c1</a>: Mesorhizobium amorphae CCNWGS0123, complete genome (14% of genes show similarity), other</text>
<line style="stroke-width:1; stroke:grey; " y1="85" x2="778.0" y2="85" x1="10"  />
</g>
<g id="a3_000"  >
<polygon class="clusterblast-orf" style="stroke-width:1; stroke:black; fill:white; " points="0,85 5,80 14,80 14,90 5,90 0,85 " description="&lt;b&gt;A6B35_RS01305&lt;/b&gt;&lt;br&gt;sugar ABC transporter ATP-binding protein&lt;br&gt;Location: 292109 - 292909" id="dummy-3_h3_3_0" locus_tag="A6B35_RS01305"  />
</g>
<g id="a3_001"  >
<polygon class="clusterblast-orf" style="stroke-width:1; stroke:black; fill:white; " points="15,85 20,80 39,80 39,90 20,90 15,85 " description="&lt;b&gt;A6B35_RS01310&lt;/b&gt;&lt;br&gt;sugar ABC transporter permease&lt;br&gt;Location: 292925 - 294256" id="dummy-3_h3_3_1" locus_tag="A6B35_RS01310"  />
</g>
<g id="a3_002"  >
<polygon class="clusterblast-orf" style="stroke-width:1; stroke:black; fill:white; " points="42,85 47,80 61,80 61,90 47,90 42,85 " description="&lt;b&gt;A6B35_RS01315&lt;/b&gt;&lt;br&gt;D-xylose ABC transporter substrate-binding protein&lt;br&gt;Location: 294406 - 295446" id="dummy-3_h3_3_2" locus_tag="A6B35_RS01315"  />
</g>
<g id="a3_003"  >
<polygon class="clusterblast-orf" style="stroke-width:1; stroke:black; fill:white; " points="67,90 85,90 90,85 85,80 67,80 67,90 " description="&lt;b&gt;A6B35_RS01320&lt;/b&gt;&lt;br&gt;ROK family protein&lt;br&gt;Location: 295717 - 296961" id="dummy-3_h3_3_3" locus_tag="A6B35_RS01320"  />
</g>
<g id="a3_004"  >
<polygon class="clusterblast-orf" style="stroke-width:1; stroke:black; fill:#d81515; " points="91,85 96,80 104,80 104,90 96,90 91,85 " description="&lt;b&gt;A6B35_RS01325&lt;/b&gt;&lt;br&gt;phosphate regulon transcriptional regulatory protein PhoB&lt;br&gt;Location: 297027 - 297716&lt;br&gt;&lt;br&gt;&lt;b&gt;BlastP hit with P773_RS0102035&lt;/b&gt;&lt;br&gt;Percentage identity: 48&lt;br&gt;Percentage coverage: 99&lt;br&gt;BLAST bit score: 241&lt;br&gt;E-value: 8.3e-62" id="dummy-3_h3_3_4" locus_tag="A6B35_RS01325"  />
</g>
<g id="a3_005"  >
<polygon class="clusterblast-orf" style="stroke-width:1; stroke:black; fill:#5cd815; " points="104,85 109,80 117,80 117,90 109,90 104,85 " description="&lt;b&gt;A6B35_RS01330&lt;/b&gt;&lt;br&gt;phosphate transport system regulatory protein PhoU&lt;br&gt;Location: 297733 - 298443&lt;br&gt;&lt;br&gt;&lt;b&gt;BlastP hit with P773_RS0102040&lt;/b&gt;&lt;br&gt;Percentage identity: 37&lt;br&gt;Percentage coverage: 95&lt;br&gt;BLAST bit score: 149&lt;br&gt;E-value: 3.4e-34" id="dummy-3_h3_3_5" locus_tag="A6B35_RS01330"  />
</g>
<g id="a3_006"  >
<polygon class="clusterblast-orf" style="stroke-width:1; stroke:black; fill:#15a3d8; " points="118,85 123,80 133,80 133,90 123,90 118,85 " description="&lt;b&gt;A6B35_RS01335&lt;/b&gt;&lt;br&gt;phosphate ABC transporter ATP-binding protein&lt;br&gt;Location: 298482 - 299306&lt;br&gt;&lt;br&gt;&lt;b&gt;BlastP hit with P773_RS0102045&lt;/b&gt;&lt;br&gt;Percentage identity: 73&lt;br&gt;Percentage coverage: 99&lt;br&gt;BLAST bit score: 386&lt;br&gt;E-value: 1.8e-105&lt;br&gt;&lt;br&gt;&lt;b&gt;BlastP hit with P773_RS0102160&lt;/b&gt;&lt;br&gt;Percentage identity: 35&lt;br&gt;Percentage coverage: 103&lt;br&gt;BLAST bit score: 145&lt;br&gt;E-value: 8.7e-33" id="dummy-3_h3_3_6" locus_tag="A6B35_RS01335"  />
</g>
<g id="a3_007"  >
<polygon class="clusterblast-orf" style="stroke-width:1; stroke:black; fill:#c715d8; " points="133,85 138,80 158,80 158,90 138,90 133,85 " description="&lt;b&gt;A6B35_RS01340&lt;/b&gt;&lt;br&gt;phosphate ABC transporter, permease protein PstA&lt;br&gt;Location: 299322 - 300638&lt;br&gt;&lt;br&gt;&lt;b&gt;BlastP hit with P773_RS0102050&lt;/b&gt;&lt;br&gt;Percentage identity: 47&lt;br&gt;Percentage coverage: 100&lt;br&gt;BLAST bit score: 350&lt;br&gt;E-value: 2.4e-94" id="dummy-3_h3_3_7" locus_tag="A6B35_RS01340"  />
</g>
<g id="a3_008"  >
<polygon class="clusterblast-orf" style="stroke-width:1; stroke:black; fill:#d88015; " points="158,85 163,80 185,80 185,90 163,90 158,85 " description="&lt;b&gt;A6B35_RS01345&lt;/b&gt;&lt;br&gt;phosphate ABC transporter permease subunit PstC&lt;br&gt;Location: 300635 - 302095&lt;br&gt;&lt;br&gt;&lt;b&gt;BlastP hit with P773_RS0102055&lt;/b&gt;&lt;br&gt;Percentage identity: 42&lt;br&gt;Percentage coverage: 107&lt;br&gt;BLAST bit score: 334&lt;br&gt;E-value: 1.5e-89" id="dummy-3_h3_3_8" locus_tag="A6B35_RS01345"  />
</g>
<g id="a3_009"  >
<polygon class="clusterblast-orf" style="stroke-width:1; stroke:black; fill:#15d839; " points="187,85 192,80 206,80 206,90 192,90 187,85 " description="&lt;b&gt;A6B35_RS01350&lt;/b&gt;&lt;br&gt;phosphonate ABC transporter substrate-binding protein&lt;br&gt;Location: 302194 - 303222&lt;br&gt;&lt;br&gt;&lt;b&gt;BlastP hit with P773_RS0102060&lt;/b&gt;&lt;br&gt;Percentage identity: 41&lt;br&gt;Percentage coverage: 97&lt;br&gt;BLAST bit score: 235&lt;br&gt;E-value: 1.2e-59" id="dummy-3_h3_3_9" locus_tag="A6B35_RS01350"  />
</g>
<g id="a3_0010"  >
<polygon class="clusterblast-orf" style="stroke-width:1; stroke:black; fill:white; " points="216,85 221,80 295,80 295,90 221,90 216,85 " description="&lt;b&gt;A6B35_RS01355&lt;/b&gt;&lt;br&gt;hybrid sensor histidine kinase/response regulator&lt;br&gt;Location: 303770 - 308008" id="dummy-3_h3_3_10" locus_tag="A6B35_RS01355"  />
</g>
<g id="a3_0011"  >
<polygon class="clusterblast-orf" style="stroke-width:1; stroke:black; fill:white; " points="298,90 300,90 305,85 300,80 298,80 298,90 " description="&lt;b&gt;A6B35_RS01360&lt;/b&gt;&lt;br&gt;hypothetical protein&lt;br&gt;Location: 308194 - 308553" id="dummy-3_h3_3_11" locus_tag="A6B35_RS01360"  />
</g>
<g id="a3_0012"  >
<polygon class="clusterblast-orf" style="stroke-width:1; stroke:black; fill:white; " points="308,85 312,80 312,90 308,85 " description="&lt;b&gt;A6B35_RS01365&lt;/b&gt;&lt;br&gt;hypothetical protein&lt;br&gt;Location: 308705 - 308941" id="dummy-3_h3_3_12" locus_tag="A6B35_RS01365"  />
</g>
<g id="a3_0013"  >
<polygon class="clusterblast-orf" style="stroke-width:1; stroke:black; fill:white; " points="312,90 313,90 318,85 313,80 312,80 312,90 " description="&lt;b&gt;A6B35_RS01370&lt;/b&gt;&lt;br&gt;hypothetical protein&lt;br&gt;Location: 308940 - 309236" id="dummy-3_h3_3_13" locus_tag="A6B35_RS01370"  />
</g>
<g id="a3_0014"  >
<polygon class="clusterblast-orf" style="stroke-width:1; stroke:black; fill:white; " points="318,90 322,85 318,80 318,90 " description="&lt;b&gt;A6B35_RS01375&lt;/b&gt;&lt;br&gt;hypothetical protein&lt;br&gt;Location: 309283 - 309498" id="dummy-3_h3_3_14" locus_tag="A6B35_RS01375"  />
</g>
<g id="a3_0015"  >
<polygon class="clusterblast-orf" style="stroke-width:1; stroke:black; fill:white; " points="323,85 328,80 329,80 329,90 328,90 323,85 " description="&lt;b&gt;A6B35_RS01380&lt;/b&gt;&lt;br&gt;hypothetical protein&lt;br&gt;Location: 309549 - 309875" id="dummy-3_h3_3_15" locus_tag="A6B35_RS01380"  />
</g>
<g id="a3_0016"  >
<polygon class="clusterblast-orf" style="stroke-width:1; stroke:black; fill:white; " points="336,85 341,80 352,80 352,90 341,90 336,85 " description="&lt;b&gt;A6B35_RS01385&lt;/b&gt;&lt;br&gt;glutathione S-transferase family protein&lt;br&gt;Location: 310221 - 311087" id="dummy-3_h3_3_16" locus_tag="A6B35_RS01385"  />
</g>
<g id="a3_0017"  >
<polygon class="clusterblast-orf" style="stroke-width:1; stroke:black; fill:white; " points="352,85 357,80 363,80 363,90 357,90 352,85 " description="&lt;b&gt;A6B35_RS01390&lt;/b&gt;&lt;br&gt;VOC family protein&lt;br&gt;Location: 311111 - 311692" id="dummy-3_h3_3_17" locus_tag="A6B35_RS01390"  />
</g>
<g id="a3_0018"  >
<polygon class="clusterblast-orf" style="stroke-width:1; stroke:black; fill:white; " points="369,90 411,90 416,85 411,80 369,80 369,90 " description="&lt;b&gt;A6B35_RS01395&lt;/b&gt;&lt;br&gt;AMP-dependent synthetase and ligase&lt;br&gt;Location: 312005 - 314551" id="dummy-3_h3_3_18" locus_tag="A6B35_RS01395"  />
</g>
<g id="a3_0019"  >
<polygon class="clusterblast-orf" style="stroke-width:1; stroke:black; fill:white; " points="420,85 425,80 428,80 428,90 425,90 420,85 " description="&lt;b&gt;A6B35_RS01405&lt;/b&gt;&lt;br&gt;VOC family protein&lt;br&gt;Location: 314749 - 315156" id="dummy-3_h3_3_19" locus_tag="A6B35_RS01405"  />
</g>
<g id="a3_0020"  >
<polygon class="clusterblast-orf" style="stroke-width:1; stroke:black; fill:white; " points="428,85 433,80 435,80 435,90 433,90 428,85 " description="&lt;b&gt;A6B35_RS01410&lt;/b&gt;&lt;br&gt;hypothetical protein&lt;br&gt;Location: 315170 - 315553" id="dummy-3_h3_3_20" locus_tag="A6B35_RS01410"  />
</g>
<g id="a3_0021"  >
<polygon class="clusterblast-orf" style="stroke-width:1; stroke:black; fill:white; " points="435,90 450,90 455,85 450,80 435,80 435,90 " description="&lt;b&gt;A6B35_RS01415&lt;/b&gt;&lt;br&gt;RluA family pseudouridine synthase&lt;br&gt;Location: 315580 - 316635" id="dummy-3_h3_3_21" locus_tag="A6B35_RS01415"  />
</g>
<g id="a3_0022"  >
<polygon class="clusterblast-orf" style="stroke-width:1; stroke:black; fill:white; " points="459,90 471,90 476,85 471,80 459,80 459,90 " description="&lt;b&gt;A6B35_RS01420&lt;/b&gt;&lt;br&gt;RNA polymerase sigma factor RpoH&lt;br&gt;Location: 316849 - 317760" id="dummy-3_h3_3_22" locus_tag="A6B35_RS01420"  />
</g>
<g id="a3_0023"  >
<polygon class="clusterblast-orf" style="stroke-width:1; stroke:black; fill:white; " points="478,85 483,80 491,80 491,90 483,90 478,85 " description="&lt;b&gt;A6B35_RS01425&lt;/b&gt;&lt;br&gt;peroxiredoxin&lt;br&gt;Location: 317900 - 318559" id="dummy-3_h3_3_23" locus_tag="A6B35_RS01425"  />
</g>
<g id="a3_0024"  >
<polygon class="clusterblast-orf" style="stroke-width:1; stroke:black; fill:white; " points="494,85 499,80 501,80 501,90 499,90 494,85 " description="&lt;b&gt;A6B35_RS01430&lt;/b&gt;&lt;br&gt;cell division protein ZapA&lt;br&gt;Location: 318748 - 319113" id="dummy-3_h3_3_24" locus_tag="A6B35_RS01430"  />
</g>
<g id="a3_0025"  >
<polygon class="clusterblast-orf" style="stroke-width:1; stroke:black; fill:white; " points="501,85 506,80 506,80 506,90 506,90 501,85 " description="&lt;b&gt;A6B35_RS01435&lt;/b&gt;&lt;br&gt;DUF4164 domain-containing protein&lt;br&gt;Location: 319118 - 319390" id="dummy-3_h3_3_25" locus_tag="A6B35_RS01435"  />
</g>
<g id="a3_0026"  >
<polygon class="clusterblast-orf" style="stroke-width:1; stroke:black; fill:white; " points="511,90 543,90 548,85 543,80 511,80 511,90 " description="&lt;b&gt;A6B35_RS01440&lt;/b&gt;&lt;br&gt;transketolase&lt;br&gt;Location: 319649 - 321640" id="dummy-3_h3_3_26" locus_tag="A6B35_RS01440"  />
</g>
<g id="a3_0027"  >
<polygon class="clusterblast-orf" style="stroke-width:1; stroke:black; fill:white; " points="551,90 565,90 570,85 565,80 551,80 551,90 " description="&lt;b&gt;A6B35_RS01445&lt;/b&gt;&lt;br&gt;type I glyceraldehyde-3-phosphate dehydrogenase&lt;br&gt;Location: 321797 - 322807" id="dummy-3_h3_3_27" locus_tag="A6B35_RS01445"  />
</g>
<g id="a3_0028"  >
<polygon class="clusterblast-orf" style="stroke-width:1; stroke:black; fill:white; " points="575,90 604,90 609,85 604,80 575,80 575,90 " description="&lt;b&gt;A6B35_RS01450&lt;/b&gt;&lt;br&gt;potassium/proton antiporter&lt;br&gt;Location: 323070 - 324953" id="dummy-3_h3_3_28" locus_tag="A6B35_RS01450"  />
</g>
<g id="a3_0029"  >
<polygon class="clusterblast-orf" style="stroke-width:1; stroke:black; fill:white; " points="611,90 629,90 634,85 629,80 611,80 611,90 " description="&lt;b&gt;A6B35_RS01455&lt;/b&gt;&lt;br&gt;phosphoglycerate kinase&lt;br&gt;Location: 325058 - 326254" id="dummy-3_h3_3_29" locus_tag="A6B35_RS01455"  />
</g>
<g id="a3_0030"  >
<polygon class="clusterblast-orf" style="stroke-width:1; stroke:black; fill:white; " points="636,90 650,90 655,85 650,80 636,80 636,90 " description="&lt;b&gt;A6B35_RS01460&lt;/b&gt;&lt;br&gt;fructose-bisphosphate aldolase class I&lt;br&gt;Location: 326395 - 327420" id="dummy-3_h3_3_30" locus_tag="A6B35_RS01460"  />
</g>
<g id="a3_0031"  >
<polygon class="clusterblast-orf" style="stroke-width:1; stroke:black; fill:white; " points="658,90 667,90 672,85 667,80 658,80 658,90 " description="&lt;b&gt;A6B35_RS01465&lt;/b&gt;&lt;br&gt;DUF899 domain-containing protein&lt;br&gt;Location: 327565 - 328305" id="dummy-3_h3_3_31" locus_tag="A6B35_RS01465"  />
</g>
<g id="a3_0032"  >
<polygon class="clusterblast-orf" style="stroke-width:1; stroke:black; fill:white; " points="673,90 682,90 687,85 682,80 673,80 673,90 " description="&lt;b&gt;A6B35_RS01470&lt;/b&gt;&lt;br&gt;SGNH/GDSL hydrolase family protein&lt;br&gt;Location: 328390 - 329121" id="dummy-3_h3_3_32" locus_tag="A6B35_RS01470"  />
</g>
<g id="a3_0033"  >
<polygon class="clusterblast-orf" style="stroke-width:1; stroke:black; fill:white; " points="687,85 690,80 690,90 687,85 " description="&lt;b&gt;A6B35_RS01475&lt;/b&gt;&lt;br&gt;hypothetical protein&lt;br&gt;Location: 329133 - 329294" id="dummy-3_h3_3_33" locus_tag="A6B35_RS01475"  />
</g>
<g id="a3_0034"  >
<polygon class="clusterblast-orf" style="stroke-width:1; stroke:black; fill:white; " points="694,90 697,85 694,80 694,90 " description="&lt;b&gt;A6B35_RS34140&lt;/b&gt;&lt;br&gt;hypothetical protein&lt;br&gt;Location: 329498 - 329665" id="dummy-3_h3_3_34" locus_tag="A6B35_RS34140"  />
</g>
<g id="a3_0035"  >
<polygon class="clusterblast-orf" style="stroke-width:1; stroke:black; fill:white; " points="699,90 701,90 706,85 701,80 699,80 699,90 " description="&lt;b&gt;A6B35_RS01480&lt;/b&gt;&lt;br&gt;VOC family protein&lt;br&gt;Location: 329797 - 330162" id="dummy-3_h3_3_35" locus_tag="A6B35_RS01480"  />
</g>
<g id="a3_0036"  >
<polygon class="clusterblast-orf" style="stroke-width:1; stroke:black; fill:white; " points="706,90 709,90 714,85 709,80 706,80 706,90 " description="&lt;b&gt;A6B35_RS01485&lt;/b&gt;&lt;br&gt;hypothetical protein&lt;br&gt;Location: 330174 - 330581" id="dummy-3_h3_3_36" locus_tag="A6B35_RS01485"  />
</g>
<g id="a3_0037"  >
<polygon class="clusterblast-orf" style="stroke-width:1; stroke:black; fill:white; " points="715,90 723,90 728,85 723,80 715,80 715,90 " description="&lt;b&gt;A6B35_RS01490&lt;/b&gt;&lt;br&gt;YafY family transcriptional regulator&lt;br&gt;Location: 330634 - 331353" id="dummy-3_h3_3_37" locus_tag="A6B35_RS01490"  />
</g>
<g id="a3_0038"  >
<polygon class="clusterblast-orf" style="stroke-width:1; stroke:black; fill:white; " points="730,85 735,80 743,80 743,90 735,90 730,85 " description="&lt;b&gt;A6B35_RS01495&lt;/b&gt;&lt;br&gt;DUF1013 domain-containing protein&lt;br&gt;Location: 331420 - 332118" id="dummy-3_h3_3_38" locus_tag="A6B35_RS01495"  />
</g>
<g id="a3_0039"  >
<polygon class="clusterblast-orf" style="stroke-width:1; stroke:black; fill:white; " points="748,85 751,80 751,90 748,85 " description="&lt;b&gt;A6B35_RS01500&lt;/b&gt;&lt;br&gt;DUF1127 domain-containing protein&lt;br&gt;Location: 332437 - 332577" id="dummy-3_h3_3_39" locus_tag="A6B35_RS01500"  />
</g>
<g id="a3_0040"  >
<polygon class="clusterblast-orf" style="stroke-width:1; stroke:black; fill:white; " points="755,85 760,80 774,80 774,90 760,90 755,85 " description="&lt;b&gt;A6B35_RS01505&lt;/b&gt;&lt;br&gt;NAD(P)H-quinone oxidoreductase&lt;br&gt;Location: 332794 - 333804" id="dummy-3_h3_3_40" locus_tag="A6B35_RS01505"  />
</g>
<g id="a3_0041"  >
<polygon class="clusterblast-orf" style="stroke-width:1; stroke:black; fill:white; " points="776,90 780,85 776,80 776,90 " description="&lt;b&gt;A6B35_RS01510&lt;/b&gt;&lt;br&gt;DUF1192 domain-containing protein&lt;br&gt;Location: 333914 - 334108" id="dummy-3_h3_3_41" locus_tag="A6B35_RS01510"  />
</g>
</svg>
