<svg version="1.1" preserveAspectRatio="none" width="800" y="0" xmlns:xlink="http://www.w3.org/1999/xlink" height="230" x="0" xmlns="http://www.w3.org/2000/svg" viewBox="0 0 800 230"  >
<g label="Query sequence" class="clusterblast-cluster"  >
<text class="clusterblast-acc" y="20" x="5"  >
Query sequence</text>
<line style="stroke-width:1; stroke:grey; " y1="35" x2="778.0" y2="35" x1="10"  />
<polygon class="clusterblast-orf" style="stroke-width:1; stroke:black; fill:white; " points="199,40 202,35 199,30 199,40 " description="&lt;b&gt;P773_RS0106855&lt;/b&gt;&lt;br&gt;hypothetical protein&lt;br&gt;Location: 1263416 - 1263665" id="dummy-9_q0_0_all" locus_tag="P773_RS0106855"  />
<polygon class="clusterblast-orf" style="stroke-width:1; stroke:black; fill:#d81515; " points="202,35 207,30 222,30 222,40 207,40 202,35 " description="&lt;b&gt;P773_RS0106860&lt;/b&gt;&lt;br&gt;two-component sensor histidine kinase&lt;br&gt;Location: 1263642 - 1264959" id="dummy-9_q1_0_all" locus_tag="P773_RS0106860"  />
<polygon class="clusterblast-orf" style="stroke-width:1; stroke:black; fill:#3cd815; " points="222,35 227,30 232,30 232,40 227,40 222,35 " description="&lt;b&gt;P773_RS0106865&lt;/b&gt;&lt;br&gt;DNA-binding response regulator&lt;br&gt;Location: 1264939 - 1265617" id="dummy-9_q2_0_all" locus_tag="P773_RS0106865"  />
<polygon class="clusterblast-orf" style="stroke-width:1; stroke:black; fill:#1563d8; " points="232,35 237,30 239,30 239,40 237,40 232,35 " description="&lt;b&gt;P773_RS0106870&lt;/b&gt;&lt;br&gt;MarR family transcriptional regulator&lt;br&gt;Location: 1265609 - 1266047" id="dummy-9_q3_0_all" locus_tag="P773_RS0106870"  />
<polygon class="clusterblast-orf" style="stroke-width:1; stroke:black; fill:#b115d8; " points="240,40 249,40 254,35 249,30 240,30 240,40 " description="&lt;b&gt;P773_RS0106875&lt;/b&gt;&lt;br&gt;branched-chain amino acid aminotransferase&lt;br&gt;Location: 1266117 - 1266999" id="dummy-9_q4_0_all" locus_tag="P773_RS0106875"  />
<polygon class="clusterblast-orf" style="stroke-width:1; stroke:black; fill:white; " points="253,35 258,30 262,30 262,40 258,40 253,35 " description="&lt;b&gt;P773_RS0106880&lt;/b&gt;&lt;br&gt;CDP-diacylglycerol--glycerol-3-phosphate 3-phosphatidyltransferase&lt;br&gt;Location: 1266995 - 1267580" id="dummy-9_q5_0_all" locus_tag="P773_RS0106880"  />
<polygon class="clusterblast-orf" style="stroke-width:1; stroke:black; fill:white; " points="262,35 267,30 291,30 291,40 267,40 262,35 " description="&lt;b&gt;P773_RS0106885&lt;/b&gt;&lt;br&gt;excinuclease ABC subunit UvrC&lt;br&gt;Location: 1267582 - 1269418" id="dummy-9_q6_0_all" locus_tag="P773_RS0106885"  />
<polygon class="clusterblast-orf" style="stroke-width:1; stroke:black; fill:white; " points="290,35 295,30 297,30 297,40 295,40 290,35 " description="&lt;b&gt;P773_RS0106890&lt;/b&gt;&lt;br&gt;dihydroneopterin aldolase&lt;br&gt;Location: 1269404 - 1269830" id="dummy-9_q7_0_all" locus_tag="P773_RS0106890"  />
<polygon class="clusterblast-orf" style="stroke-width:1; stroke:black; fill:white; " points="297,35 302,30 308,30 308,40 302,40 297,35 " description="&lt;b&gt;P773_RS0106895&lt;/b&gt;&lt;br&gt;short chain dehydrogenase&lt;br&gt;Location: 1269826 - 1270573" id="dummy-9_q8_0_all" locus_tag="P773_RS0106895"  />
<polygon class="clusterblast-orf" style="stroke-width:1; stroke:black; fill:#d88a15; " points="309,35 314,30 342,30 342,40 314,40 309,35 " description="&lt;b&gt;P773_RS0106900&lt;/b&gt;&lt;br&gt;excinuclease ABC subunit UvrB&lt;br&gt;Location: 1270588 - 1272757" id="dummy-9_q9_0_all" locus_tag="P773_RS0106900"  />
<polygon class="clusterblast-orf" style="stroke-width:1; stroke:black; fill:#15d863; " points="342,40 356,40 361,35 356,30 342,30 342,40 " description="&lt;b&gt;P773_RS0106905&lt;/b&gt;&lt;br&gt;pyridoxal phosphate-dependent aminotransferase&lt;br&gt;Location: 1272792 - 1273980" id="dummy-9_q10_0_all" locus_tag="P773_RS0106905"  />
<polygon class="clusterblast-orf" style="stroke-width:1; stroke:black; fill:white; " points="361,40 366,40 371,35 366,30 361,30 361,40 " description="&lt;b&gt;P773_RS0106910&lt;/b&gt;&lt;br&gt;segregation protein B&lt;br&gt;Location: 1273983 - 1274637" id="dummy-9_q11_0_all" locus_tag="P773_RS0106910"  />
<polygon class="clusterblast-orf" style="stroke-width:1; stroke:black; fill:white; " points="371,35 376,30 385,30 385,40 376,40 371,35 " description="&lt;b&gt;P773_RS0106915&lt;/b&gt;&lt;br&gt;ADP-ribosylglycohydrolase&lt;br&gt;Location: 1274639 - 1275587" id="dummy-9_q12_0_all" locus_tag="P773_RS0106915"  />
<polygon class="clusterblast-orf" style="stroke-width:1; stroke:black; fill:white; " points="385,35 390,30 396,30 396,40 390,40 385,35 " description="&lt;b&gt;P773_RS0106920&lt;/b&gt;&lt;br&gt;oxidoreductase&lt;br&gt;Location: 1275592 - 1276267" id="dummy-9_q13_0_all" locus_tag="P773_RS0106920"  />
<polygon class="clusterblast-orf" style="stroke-width:1; stroke:black; fill:white; " points="396,35 401,30 402,30 402,40 401,40 396,35 " description="&lt;b&gt;P773_RS0106925&lt;/b&gt;&lt;br&gt;hypothetical protein&lt;br&gt;Location: 1276292 - 1276706" id="dummy-9_q14_0_all" locus_tag="P773_RS0106925"  />
<polygon class="clusterblast-orf" style="stroke-width:1; stroke:black; fill:white; " points="402,35 407,30 417,30 417,40 407,40 402,35 " description="&lt;b&gt;P773_RS0106930&lt;/b&gt;&lt;br&gt;thioredoxin-disulfide reductase&lt;br&gt;Location: 1276709 - 1277654" id="dummy-9_q15_0_all" locus_tag="P773_RS0106930"  />
<polygon class="clusterblast-orf" style="stroke-width:1; stroke:black; fill:white; " points="417,40 427,40 432,35 427,30 417,30 417,40 " description="&lt;b&gt;P773_RS0106935&lt;/b&gt;&lt;br&gt;nucleoside-diphosphate sugar epimerase&lt;br&gt;Location: 1277675 - 1278620" id="dummy-9_q16_0_all" locus_tag="P773_RS0106935"  />
<polygon class="clusterblast-orf" style="stroke-width:1; stroke:black; fill:white; " points="432,40 437,40 442,35 437,30 432,30 432,40 " description="&lt;b&gt;P773_RS0106940&lt;/b&gt;&lt;br&gt;hypothetical protein&lt;br&gt;Location: 1278619 - 1279282" id="dummy-9_q17_0_all" locus_tag="P773_RS0106940"  />
<polygon class="clusterblast-orf" style="stroke-width:1; stroke:black; fill:white; " points="442,35 447,30 453,30 453,40 447,40 442,35 " description="&lt;b&gt;P773_RS0106945&lt;/b&gt;&lt;br&gt;20S proteasome subunits A/B&lt;br&gt;Location: 1279284 - 1280010" id="dummy-9_q18_0_all" locus_tag="P773_RS0106945"  />
<polygon class="clusterblast-orf" style="stroke-width:1; stroke:black; fill:white; " points="455,40 472,40 477,35 472,30 455,30 455,40 " description="&lt;b&gt;P773_RS0106950&lt;/b&gt;&lt;br&gt;circularly permuted type 2 ATP-grasp protein&lt;br&gt;Location: 1280123 - 1281569" id="dummy-9_q19_0_all" locus_tag="P773_RS0106950"  />
<polygon class="clusterblast-orf" style="stroke-width:1; stroke:black; fill:#3c15d8; " points="477,35 482,30 527,30 527,40 482,40 477,35 " description="&lt;b&gt;P773_RS0106955&lt;/b&gt;&lt;br&gt;carbamoyl-phosphate synthase large subunit&lt;br&gt;Location: 1281574 - 1284799" id="dummy-9_q20_0_all" locus_tag="P773_RS0106955"  />
<polygon class="clusterblast-orf" style="stroke-width:1; stroke:black; fill:#d8158a; " points="526,35 531,30 544,30 544,40 531,40 526,35 " description="&lt;b&gt;P773_RS0106960&lt;/b&gt;&lt;br&gt;carbamoyl-phosphate synthase small subunit&lt;br&gt;Location: 1284776 - 1285970" id="dummy-9_q21_0_all" locus_tag="P773_RS0106960"  />
<polygon class="clusterblast-orf" style="stroke-width:1; stroke:black; fill:#b1d815; " points="546,40 548,40 553,35 548,30 546,30 546,40 " description="&lt;b&gt;P773_RS0106965&lt;/b&gt;&lt;br&gt;GatB/YqeY domain-containing protein&lt;br&gt;Location: 1286096 - 1286558" id="dummy-9_q22_0_all" locus_tag="P773_RS0106965"  />
<polygon class="clusterblast-orf" style="stroke-width:1; stroke:black; fill:#15d8d8; " points="553,40 576,40 581,35 576,30 553,30 553,40 " description="&lt;b&gt;P773_RS0106970&lt;/b&gt;&lt;br&gt;DNA primase&lt;br&gt;Location: 1286557 - 1288333" id="dummy-9_q23_0_all" locus_tag="P773_RS0106970"  />
</g>
<g label="NZ_LNYR01000006" class="clusterblast-cluster" description="NZ_LNYR01000006_c2: Legionella quateirensis strain ATCC 49507 Lqua ctg006, wh... (5% of genes show similarity), nrps"  >
<text class="clusterblast-acc" y="70" x="5"  >
<a xlink:href="https://antismash-db.secondarymetabolites.org/go/NZ_LNYR01000006/2" target="_blank">NZ_LNYR01000006_c2</a>: Legionella quateirensis strain ATCC 49507 Lqua ctg006, wh... (5% of genes show similarity), nrps</text>
<line style="stroke-width:1; stroke:grey; " y1="85" x2="778.0" y2="85" x1="10"  />
</g>
<g id="a9_000"  >
<polygon class="clusterblast-orf" style="stroke-width:1; stroke:black; fill:white; " points="0,90 19,90 24,85 19,80 0,80 0,90 " description="&lt;b&gt;Lqua_RS04045&lt;/b&gt;&lt;br&gt;FMN-binding glutamate synthase family protein&lt;br&gt;Location: 368761 - 370332" id="dummy-9_h9_2_0" locus_tag="Lqua_RS04045"  />
</g>
<g id="a9_001"  >
<polygon class="clusterblast-orf" style="stroke-width:1; stroke:black; fill:white; " points="26,90 37,90 42,85 37,80 26,80 26,90 " description="&lt;b&gt;Lqua_RS04050&lt;/b&gt;&lt;br&gt;cupin domain-containing protein&lt;br&gt;Location: 370490 - 371518" id="dummy-9_h9_2_1" locus_tag="Lqua_RS04050"  />
</g>
<g id="a9_002"  >
<polygon class="clusterblast-orf" style="stroke-width:1; stroke:black; fill:white; " points="42,90 62,90 67,85 62,80 42,80 42,90 " description="&lt;b&gt;Lqua_RS04055&lt;/b&gt;&lt;br&gt;bifunctional diguanylate cyclase/phosphodiesterase&lt;br&gt;Location: 371519 - 373168" id="dummy-9_h9_2_2" locus_tag="Lqua_RS04055"  />
</g>
<g id="a9_003"  >
<polygon class="clusterblast-orf" style="stroke-width:1; stroke:black; fill:#d88a15; " points="71,85 76,80 102,80 102,90 76,90 71,85 " description="&lt;b&gt;Lqua_RS04060&lt;/b&gt;&lt;br&gt;excinuclease ABC subunit UvrB&lt;br&gt;Location: 373429 - 375420&lt;br&gt;&lt;br&gt;&lt;b&gt;BlastP hit with P773_RS0106900&lt;/b&gt;&lt;br&gt;Percentage identity: 57&lt;br&gt;Percentage coverage: 91&lt;br&gt;BLAST bit score: 732&lt;br&gt;E-value: 4.9e-209" id="dummy-9_h9_2_3" locus_tag="Lqua_RS04060"  />
</g>
<g id="a9_004"  >
<polygon class="clusterblast-orf" style="stroke-width:1; stroke:black; fill:#15d863; " points="102,90 115,90 120,85 115,80 102,80 102,90 " description="&lt;b&gt;Lqua_RS04065&lt;/b&gt;&lt;br&gt;pyridoxal phosphate-dependent aminotransferase&lt;br&gt;Location: 375467 - 376648&lt;br&gt;&lt;br&gt;&lt;b&gt;BlastP hit with P773_RS0106905&lt;/b&gt;&lt;br&gt;Percentage identity: 52&lt;br&gt;Percentage coverage: 98&lt;br&gt;BLAST bit score: 394&lt;br&gt;E-value: 1e-107" id="dummy-9_h9_2_4" locus_tag="Lqua_RS04065"  />
</g>
<g id="a9_005"  >
<polygon class="clusterblast-orf" style="stroke-width:1; stroke:black; fill:white; " points="124,90 132,90 137,85 132,80 124,80 124,90 " description="&lt;b&gt;Lqua_RS04075&lt;/b&gt;&lt;br&gt;hypothetical protein&lt;br&gt;Location: 376889 - 377728" id="dummy-9_h9_2_5" locus_tag="Lqua_RS04075"  />
</g>
<g id="a9_006"  >
<polygon class="clusterblast-orf" style="stroke-width:1; stroke:black; fill:white; " points="149,90 161,90 166,85 161,80 149,80 149,90 " description="&lt;b&gt;Lqua_RS04080&lt;/b&gt;&lt;br&gt;hypothetical protein&lt;br&gt;Location: 378514 - 379599" id="dummy-9_h9_2_6" locus_tag="Lqua_RS04080"  />
</g>
<g id="a9_007"  >
<polygon class="clusterblast-orf" style="stroke-width:1; stroke:black; fill:white; " points="169,90 173,85 169,80 169,90 " description="&lt;b&gt;Lqua_RS04085&lt;/b&gt;&lt;br&gt;hypothetical protein&lt;br&gt;Location: 379812 - 380066" id="dummy-9_h9_2_7" locus_tag="Lqua_RS04085"  />
</g>
<g id="a9_008"  >
<polygon class="clusterblast-orf" style="stroke-width:1; stroke:black; fill:white; " points="178,90 188,90 193,85 188,80 178,80 178,90 " description="&lt;b&gt;Lqua_RS04090&lt;/b&gt;&lt;br&gt;alpha/beta hydrolase&lt;br&gt;Location: 380407 - 381381" id="dummy-9_h9_2_8" locus_tag="Lqua_RS04090"  />
</g>
<g id="a9_009"  >
<polygon class="clusterblast-orf" style="stroke-width:1; stroke:black; fill:white; " points="197,90 203,90 208,85 203,80 197,80 197,90 " description="&lt;b&gt;Lqua_RS04095&lt;/b&gt;&lt;br&gt;hypothetical protein&lt;br&gt;Location: 381638 - 382354" id="dummy-9_h9_2_9" locus_tag="Lqua_RS04095"  />
</g>
<g id="a9_0010"  >
<polygon class="clusterblast-orf" style="stroke-width:1; stroke:black; fill:white; " points="210,90 211,90 216,85 211,80 210,80 210,90 " description="&lt;b&gt;Lqua_RS04100&lt;/b&gt;&lt;br&gt;hypothetical protein&lt;br&gt;Location: 382461 - 382889" id="dummy-9_h9_2_10" locus_tag="Lqua_RS04100"  />
</g>
<g id="a9_0011"  >
<polygon class="clusterblast-orf" style="stroke-width:1; stroke:black; fill:white; " points="221,85 225,80 225,90 221,85 " description="&lt;b&gt;Lqua_RS17835&lt;/b&gt;&lt;br&gt;hypothetical protein&lt;br&gt;Location: 383179 - 383457" id="dummy-9_h9_2_11" locus_tag="Lqua_RS17835"  />
</g>
<g id="a9_0012"  >
<polygon class="clusterblast-orf" style="stroke-width:1; stroke:black; fill:white; " points="226,90 242,90 247,85 242,80 226,80 226,90 " description="&lt;b&gt;Lqua_RS04110&lt;/b&gt;&lt;br&gt;hypothetical protein&lt;br&gt;Location: 383542 - 384894" id="dummy-9_h9_2_12" locus_tag="Lqua_RS04110"  />
</g>
<g id="a9_0013"  >
<polygon class="clusterblast-orf" style="stroke-width:1; stroke:black; fill:white; " points="250,90 250,90 255,85 250,80 250,80 250,90 " description="&lt;b&gt;Lqua_RS04115&lt;/b&gt;&lt;br&gt;hypothetical protein&lt;br&gt;Location: 385122 - 385445" id="dummy-9_h9_2_13" locus_tag="Lqua_RS04115"  />
</g>
<g id="a9_0014"  >
<polygon class="clusterblast-orf" style="stroke-width:1; stroke:black; fill:white; " points="264,85 269,80 278,80 278,90 269,90 264,85 " description="&lt;b&gt;Lqua_RS04120&lt;/b&gt;&lt;br&gt;hypothetical protein&lt;br&gt;Location: 386009 - 386896" id="dummy-9_h9_2_14" locus_tag="Lqua_RS04120"  />
</g>
<g id="a9_0015"  >
<polygon class="clusterblast-orf" style="stroke-width:1; stroke:black; fill:white; " points="278,85 283,80 302,80 302,90 283,90 278,85 " description="&lt;b&gt;Lqua_RS04125&lt;/b&gt;&lt;br&gt;MBL fold metallo-hydrolase&lt;br&gt;Location: 386911 - 388509" id="dummy-9_h9_2_15" locus_tag="Lqua_RS04125"  />
</g>
<g id="a9_0016"  >
<polygon class="clusterblast-orf" style="stroke-width:1; stroke:black; fill:white; " points="303,85 308,80 431,80 431,90 308,90 303,85 " description="&lt;b&gt;Lqua_RS04130&lt;/b&gt;&lt;br&gt;hypothetical protein&lt;br&gt;Location: 388521 - 396911" id="dummy-9_h9_2_16" locus_tag="Lqua_RS04130"  />
</g>
<g id="a9_0017"  >
<polygon class="clusterblast-orf" style="stroke-width:1; stroke:black; fill:white; " points="431,85 436,80 473,80 473,90 436,90 431,85 " description="&lt;b&gt;Lqua_RS04135&lt;/b&gt;&lt;br&gt;hypothetical protein&lt;br&gt;Location: 396898 - 399651" id="dummy-9_h9_2_17" locus_tag="Lqua_RS04135"  />
</g>
<g id="a9_0018"  >
<polygon class="clusterblast-orf" style="stroke-width:1; stroke:black; fill:white; " points="473,85 478,80 493,80 493,90 478,90 473,85 " description="&lt;b&gt;Lqua_RS04140&lt;/b&gt;&lt;br&gt;hypothetical protein&lt;br&gt;Location: 399648 - 400913" id="dummy-9_h9_2_18" locus_tag="Lqua_RS04140"  />
</g>
<g id="a9_0019"  >
<polygon class="clusterblast-orf" style="stroke-width:1; stroke:black; fill:white; " points="497,85 502,80 508,80 508,90 502,90 497,85 " description="&lt;b&gt;Lqua_RS04145&lt;/b&gt;&lt;br&gt;porin family protein&lt;br&gt;Location: 401182 - 401925" id="dummy-9_h9_2_19" locus_tag="Lqua_RS04145"  />
</g>
<g id="a9_0020"  >
<polygon class="clusterblast-orf" style="stroke-width:1; stroke:black; fill:white; " points="508,85 513,80 523,80 523,90 513,90 508,85 " description="&lt;b&gt;Lqua_RS17840&lt;/b&gt;&lt;br&gt;hypothetical protein&lt;br&gt;Location: 401922 - 402914" id="dummy-9_h9_2_20" locus_tag="Lqua_RS17840"  />
</g>
<g id="a9_0021"  >
<polygon class="clusterblast-orf" style="stroke-width:1; stroke:black; fill:white; " points="525,90 525,90 530,85 525,80 525,80 525,90 " description="&lt;b&gt;Lqua_RS17845&lt;/b&gt;&lt;br&gt;hypothetical protein&lt;br&gt;Location: 403000 - 403323" id="dummy-9_h9_2_21" locus_tag="Lqua_RS17845"  />
</g>
<g id="a9_0022"  >
<polygon class="clusterblast-orf" style="stroke-width:1; stroke:black; fill:white; " points="531,90 534,85 531,80 531,90 " description="&lt;b&gt;Lqua_RS17850&lt;/b&gt;&lt;br&gt;hypothetical protein&lt;br&gt;Location: 403441 - 403641" id="dummy-9_h9_2_22" locus_tag="Lqua_RS17850"  />
</g>
<g id="a9_0023"  >
<polygon class="clusterblast-orf" style="stroke-width:1; stroke:black; fill:white; " points="536,90 538,85 536,80 536,90 " description="&lt;b&gt;Lqua_RS17855&lt;/b&gt;&lt;br&gt;RNA-binding protein&lt;br&gt;Location: 403747 - 403854" id="dummy-9_h9_2_23" locus_tag="Lqua_RS17855"  />
</g>
<g id="a9_0024"  >
<polygon class="clusterblast-orf" style="stroke-width:1; stroke:black; fill:white; " points="554,90 554,90 559,85 554,80 554,80 554,90 " description="&lt;b&gt;Lqua_RS04155&lt;/b&gt;&lt;br&gt;hypothetical protein&lt;br&gt;Location: 404893 - 405219" id="dummy-9_h9_2_24" locus_tag="Lqua_RS04155"  />
</g>
<g id="a9_0025"  >
<polygon class="clusterblast-orf" style="stroke-width:1; stroke:black; fill:white; " points="560,90 574,90 579,85 574,80 560,80 560,90 " description="&lt;b&gt;Lqua_RS04160&lt;/b&gt;&lt;br&gt;DUF1311 domain-containing protein&lt;br&gt;Location: 405287 - 406522" id="dummy-9_h9_2_25" locus_tag="Lqua_RS04160"  />
</g>
<g id="a9_0026"  >
<polygon class="clusterblast-orf" style="stroke-width:1; stroke:black; fill:white; " points="580,85 585,80 611,80 611,90 585,90 580,85 " description="&lt;b&gt;Lqua_RS04165&lt;/b&gt;&lt;br&gt;hybrid sensor histidine kinase/response regulator&lt;br&gt;Location: 406590 - 408641" id="dummy-9_h9_2_26" locus_tag="Lqua_RS04165"  />
</g>
<g id="a9_0027"  >
<polygon class="clusterblast-orf" style="stroke-width:1; stroke:black; fill:white; " points="616,90 624,90 629,85 624,80 616,80 616,90 " description="&lt;b&gt;Lqua_RS04170&lt;/b&gt;&lt;br&gt;hypothetical protein&lt;br&gt;Location: 408985 - 409815" id="dummy-9_h9_2_27" locus_tag="Lqua_RS04170"  />
</g>
<g id="a9_0028"  >
<polygon class="clusterblast-orf" style="stroke-width:1; stroke:black; fill:white; " points="633,85 638,80 647,80 647,90 638,90 633,85 " description="&lt;b&gt;Lqua_RS04175&lt;/b&gt;&lt;br&gt;hypothetical protein&lt;br&gt;Location: 410060 - 411010" id="dummy-9_h9_2_28" locus_tag="Lqua_RS04175"  />
</g>
<g id="a9_0029"  >
<polygon class="clusterblast-orf" style="stroke-width:1; stroke:black; fill:white; " points="654,90 668,90 673,85 668,80 654,80 654,90 " description="&lt;b&gt;Lqua_RS04180&lt;/b&gt;&lt;br&gt;hypothetical protein&lt;br&gt;Location: 411435 - 412670" id="dummy-9_h9_2_29" locus_tag="Lqua_RS04180"  />
</g>
<g id="a9_0030"  >
<polygon class="clusterblast-orf" style="stroke-width:1; stroke:black; fill:white; " points="677,90 681,90 686,85 681,80 677,80 677,90 " description="&lt;b&gt;Lqua_RS04185&lt;/b&gt;&lt;br&gt;hypothetical protein&lt;br&gt;Location: 412955 - 413530" id="dummy-9_h9_2_30" locus_tag="Lqua_RS04185"  />
</g>
<g id="a9_0031"  >
<polygon class="clusterblast-orf" style="stroke-width:1; stroke:black; fill:white; " points="689,90 690,90 695,85 690,80 689,80 689,90 " description="&lt;b&gt;Lqua_RS04190&lt;/b&gt;&lt;br&gt;peptide chain release factor-like protein&lt;br&gt;Location: 413711 - 414079" id="dummy-9_h9_2_31" locus_tag="Lqua_RS04190"  />
</g>
<g id="a9_0032"  >
<polygon class="clusterblast-orf" style="stroke-width:1; stroke:black; fill:white; " points="695,85 700,80 702,80 702,90 700,90 695,85 " description="&lt;b&gt;Lqua_RS04195&lt;/b&gt;&lt;br&gt;hypothetical protein&lt;br&gt;Location: 414095 - 414559" id="dummy-9_h9_2_32" locus_tag="Lqua_RS04195"  />
</g>
<g id="a9_0033"  >
<polygon class="clusterblast-orf" style="stroke-width:1; stroke:black; fill:white; " points="706,90 741,90 746,85 741,80 706,80 706,90 " description="&lt;b&gt;Lqua_RS04200&lt;/b&gt;&lt;br&gt;hypothetical protein&lt;br&gt;Location: 414848 - 417451" id="dummy-9_h9_2_33" locus_tag="Lqua_RS04200"  />
</g>
<g id="a9_0034"  >
<polygon class="clusterblast-orf" style="stroke-width:1; stroke:black; fill:white; " points="750,85 755,80 780,80 780,90 755,90 750,85 " description="&lt;b&gt;Lqua_RS04205&lt;/b&gt;&lt;br&gt;hypothetical protein&lt;br&gt;Location: 417678 - 419621" id="dummy-9_h9_2_34" locus_tag="Lqua_RS04205"  />
</g>
</svg>
