<svg version="1.1" preserveAspectRatio="none" width="800" y="0" xmlns:xlink="http://www.w3.org/1999/xlink" height="230" x="0" xmlns="http://www.w3.org/2000/svg" viewBox="0 0 800 230"  >
<g label="Query sequence" class="clusterblast-cluster"  >
<text class="clusterblast-acc" y="20" x="5"  >
Query sequence</text>
<line style="stroke-width:1; stroke:grey; " y1="35" x2="778.0" y2="35" x1="10"  />
<polygon class="clusterblast-orf" style="stroke-width:1; stroke:black; fill:white; " points="162,40 162,40 167,35 162,30 162,30 162,40 " description="&lt;b&gt;P773_RS0106855&lt;/b&gt;&lt;br&gt;hypothetical protein&lt;br&gt;Location: 1263416 - 1263665" id="dummy-9_q0_0_all" locus_tag="P773_RS0106855"  />
<polygon class="clusterblast-orf" style="stroke-width:1; stroke:black; fill:#d81515; " points="166,35 171,30 190,30 190,40 171,40 166,35 " description="&lt;b&gt;P773_RS0106860&lt;/b&gt;&lt;br&gt;two-component sensor histidine kinase&lt;br&gt;Location: 1263642 - 1264959" id="dummy-9_q1_0_all" locus_tag="P773_RS0106860"  />
<polygon class="clusterblast-orf" style="stroke-width:1; stroke:black; fill:#3cd815; " points="190,35 195,30 202,30 202,40 195,40 190,35 " description="&lt;b&gt;P773_RS0106865&lt;/b&gt;&lt;br&gt;DNA-binding response regulator&lt;br&gt;Location: 1264939 - 1265617" id="dummy-9_q2_0_all" locus_tag="P773_RS0106865"  />
<polygon class="clusterblast-orf" style="stroke-width:1; stroke:black; fill:#1563d8; " points="202,35 207,30 210,30 210,40 207,40 202,35 " description="&lt;b&gt;P773_RS0106870&lt;/b&gt;&lt;br&gt;MarR family transcriptional regulator&lt;br&gt;Location: 1265609 - 1266047" id="dummy-9_q3_0_all" locus_tag="P773_RS0106870"  />
<polygon class="clusterblast-orf" style="stroke-width:1; stroke:black; fill:#b115d8; " points="211,40 223,40 228,35 223,30 211,30 211,40 " description="&lt;b&gt;P773_RS0106875&lt;/b&gt;&lt;br&gt;branched-chain amino acid aminotransferase&lt;br&gt;Location: 1266117 - 1266999" id="dummy-9_q4_0_all" locus_tag="P773_RS0106875"  />
<polygon class="clusterblast-orf" style="stroke-width:1; stroke:black; fill:white; " points="228,35 233,30 238,30 238,40 233,40 228,35 " description="&lt;b&gt;P773_RS0106880&lt;/b&gt;&lt;br&gt;CDP-diacylglycerol--glycerol-3-phosphate 3-phosphatidyltransferase&lt;br&gt;Location: 1266995 - 1267580" id="dummy-9_q5_0_all" locus_tag="P773_RS0106880"  />
<polygon class="clusterblast-orf" style="stroke-width:1; stroke:black; fill:white; " points="238,35 243,30 272,30 272,40 243,40 238,35 " description="&lt;b&gt;P773_RS0106885&lt;/b&gt;&lt;br&gt;excinuclease ABC subunit UvrC&lt;br&gt;Location: 1267582 - 1269418" id="dummy-9_q6_0_all" locus_tag="P773_RS0106885"  />
<polygon class="clusterblast-orf" style="stroke-width:1; stroke:black; fill:white; " points="272,35 277,30 279,30 279,40 277,40 272,35 " description="&lt;b&gt;P773_RS0106890&lt;/b&gt;&lt;br&gt;dihydroneopterin aldolase&lt;br&gt;Location: 1269404 - 1269830" id="dummy-9_q7_0_all" locus_tag="P773_RS0106890"  />
<polygon class="clusterblast-orf" style="stroke-width:1; stroke:black; fill:white; " points="279,35 284,30 293,30 293,40 284,40 279,35 " description="&lt;b&gt;P773_RS0106895&lt;/b&gt;&lt;br&gt;short chain dehydrogenase&lt;br&gt;Location: 1269826 - 1270573" id="dummy-9_q8_0_all" locus_tag="P773_RS0106895"  />
<polygon class="clusterblast-orf" style="stroke-width:1; stroke:black; fill:#d88a15; " points="293,35 298,30 333,30 333,40 298,40 293,35 " description="&lt;b&gt;P773_RS0106900&lt;/b&gt;&lt;br&gt;excinuclease ABC subunit UvrB&lt;br&gt;Location: 1270588 - 1272757" id="dummy-9_q9_0_all" locus_tag="P773_RS0106900"  />
<polygon class="clusterblast-orf" style="stroke-width:1; stroke:black; fill:#15d863; " points="333,40 350,40 355,35 350,30 333,30 333,40 " description="&lt;b&gt;P773_RS0106905&lt;/b&gt;&lt;br&gt;pyridoxal phosphate-dependent aminotransferase&lt;br&gt;Location: 1272792 - 1273980" id="dummy-9_q10_0_all" locus_tag="P773_RS0106905"  />
<polygon class="clusterblast-orf" style="stroke-width:1; stroke:black; fill:white; " points="355,40 362,40 367,35 362,30 355,30 355,40 " description="&lt;b&gt;P773_RS0106910&lt;/b&gt;&lt;br&gt;segregation protein B&lt;br&gt;Location: 1273983 - 1274637" id="dummy-9_q11_0_all" locus_tag="P773_RS0106910"  />
<polygon class="clusterblast-orf" style="stroke-width:1; stroke:black; fill:white; " points="367,35 372,30 384,30 384,40 372,40 367,35 " description="&lt;b&gt;P773_RS0106915&lt;/b&gt;&lt;br&gt;ADP-ribosylglycohydrolase&lt;br&gt;Location: 1274639 - 1275587" id="dummy-9_q12_0_all" locus_tag="P773_RS0106915"  />
<polygon class="clusterblast-orf" style="stroke-width:1; stroke:black; fill:white; " points="385,35 390,30 397,30 397,40 390,40 385,35 " description="&lt;b&gt;P773_RS0106920&lt;/b&gt;&lt;br&gt;oxidoreductase&lt;br&gt;Location: 1275592 - 1276267" id="dummy-9_q13_0_all" locus_tag="P773_RS0106920"  />
<polygon class="clusterblast-orf" style="stroke-width:1; stroke:black; fill:white; " points="397,35 402,30 405,30 405,40 402,40 397,35 " description="&lt;b&gt;P773_RS0106925&lt;/b&gt;&lt;br&gt;hypothetical protein&lt;br&gt;Location: 1276292 - 1276706" id="dummy-9_q14_0_all" locus_tag="P773_RS0106925"  />
<polygon class="clusterblast-orf" style="stroke-width:1; stroke:black; fill:white; " points="405,35 410,30 422,30 422,40 410,40 405,35 " description="&lt;b&gt;P773_RS0106930&lt;/b&gt;&lt;br&gt;thioredoxin-disulfide reductase&lt;br&gt;Location: 1276709 - 1277654" id="dummy-9_q15_0_all" locus_tag="P773_RS0106930"  />
<polygon class="clusterblast-orf" style="stroke-width:1; stroke:black; fill:white; " points="423,40 435,40 440,35 435,30 423,30 423,40 " description="&lt;b&gt;P773_RS0106935&lt;/b&gt;&lt;br&gt;nucleoside-diphosphate sugar epimerase&lt;br&gt;Location: 1277675 - 1278620" id="dummy-9_q16_0_all" locus_tag="P773_RS0106935"  />
<polygon class="clusterblast-orf" style="stroke-width:1; stroke:black; fill:white; " points="440,40 447,40 452,35 447,30 440,30 440,40 " description="&lt;b&gt;P773_RS0106940&lt;/b&gt;&lt;br&gt;hypothetical protein&lt;br&gt;Location: 1278619 - 1279282" id="dummy-9_q17_0_all" locus_tag="P773_RS0106940"  />
<polygon class="clusterblast-orf" style="stroke-width:1; stroke:black; fill:white; " points="452,35 457,30 465,30 465,40 457,40 452,35 " description="&lt;b&gt;P773_RS0106945&lt;/b&gt;&lt;br&gt;20S proteasome subunits A/B&lt;br&gt;Location: 1279284 - 1280010" id="dummy-9_q18_0_all" locus_tag="P773_RS0106945"  />
<polygon class="clusterblast-orf" style="stroke-width:1; stroke:black; fill:white; " points="467,40 489,40 494,35 489,30 467,30 467,40 " description="&lt;b&gt;P773_RS0106950&lt;/b&gt;&lt;br&gt;circularly permuted type 2 ATP-grasp protein&lt;br&gt;Location: 1280123 - 1281569" id="dummy-9_q19_0_all" locus_tag="P773_RS0106950"  />
<polygon class="clusterblast-orf" style="stroke-width:1; stroke:black; fill:#3c15d8; " points="494,35 499,30 553,30 553,40 499,40 494,35 " description="&lt;b&gt;P773_RS0106955&lt;/b&gt;&lt;br&gt;carbamoyl-phosphate synthase large subunit&lt;br&gt;Location: 1281574 - 1284799" id="dummy-9_q20_0_all" locus_tag="P773_RS0106955"  />
<polygon class="clusterblast-orf" style="stroke-width:1; stroke:black; fill:#d8158a; " points="552,35 557,30 574,30 574,40 557,40 552,35 " description="&lt;b&gt;P773_RS0106960&lt;/b&gt;&lt;br&gt;carbamoyl-phosphate synthase small subunit&lt;br&gt;Location: 1284776 - 1285970" id="dummy-9_q21_0_all" locus_tag="P773_RS0106960"  />
<polygon class="clusterblast-orf" style="stroke-width:1; stroke:black; fill:#b1d815; " points="576,40 580,40 585,35 580,30 576,30 576,40 " description="&lt;b&gt;P773_RS0106965&lt;/b&gt;&lt;br&gt;GatB/YqeY domain-containing protein&lt;br&gt;Location: 1286096 - 1286558" id="dummy-9_q22_0_all" locus_tag="P773_RS0106965"  />
<polygon class="clusterblast-orf" style="stroke-width:1; stroke:black; fill:#15d8d8; " points="585,40 612,40 617,35 612,30 585,30 585,40 " description="&lt;b&gt;P773_RS0106970&lt;/b&gt;&lt;br&gt;DNA primase&lt;br&gt;Location: 1286557 - 1288333" id="dummy-9_q23_0_all" locus_tag="P773_RS0106970"  />
</g>
<g label="NZ_AUHB01000010" class="clusterblast-cluster" description="NZ_AUHB01000010_c2: Pleomorphomonas oryzae DSM 16300 G522DRAFT scaffold00010.... (10% of genes show similarity), other"  >
<text class="clusterblast-acc" y="70" x="5"  >
<a xlink:href="https://antismash-db.secondarymetabolites.org/go/NZ_AUHB01000010/2" target="_blank">NZ_AUHB01000010_c2</a>: Pleomorphomonas oryzae DSM 16300 G522DRAFT scaffold00010.... (10% of genes show similarity), other</text>
<line style="stroke-width:1; stroke:grey; " y1="85" x2="778.0" y2="85" x1="10"  />
</g>
<g id="a9_000"  >
<polygon class="clusterblast-orf" style="stroke-width:1; stroke:black; fill:white; " points="0,90 14,90 19,85 14,80 0,80 0,90 " description="&lt;b&gt;G522_RS0116910&lt;/b&gt;&lt;br&gt;Tat pathway signal protein&lt;br&gt;Location: 147854 - 146769" id="dummy-9_h9_6_0" locus_tag="G522_RS0116910"  />
</g>
<g id="a9_001"  >
<polygon class="clusterblast-orf" style="stroke-width:1; stroke:black; fill:white; " points="21,90 53,90 58,85 53,80 21,80 21,90 " description="&lt;b&gt;G522_RS0116905&lt;/b&gt;&lt;br&gt;phosphatase PAP2 family protein&lt;br&gt;Location: 146665 - 144659" id="dummy-9_h9_6_1" locus_tag="G522_RS0116905"  />
</g>
<g id="a9_002"  >
<polygon class="clusterblast-orf" style="stroke-width:1; stroke:black; fill:white; " points="58,85 63,80 66,80 66,90 63,90 58,85 " description="&lt;b&gt;G522_RS0116900&lt;/b&gt;&lt;br&gt;glyoxalase&lt;br&gt;Location: 144636 - 144214" id="dummy-9_h9_6_2" locus_tag="G522_RS0116900"  />
</g>
<g id="a9_003"  >
<polygon class="clusterblast-orf" style="stroke-width:1; stroke:black; fill:white; " points="70,90 72,90 77,85 72,80 70,80 70,90 " description="&lt;b&gt;G522_RS27335&lt;/b&gt;&lt;br&gt;hypothetical protein&lt;br&gt;Location: 144008 - 143622" id="dummy-9_h9_6_3" locus_tag="G522_RS27335"  />
</g>
<g id="a9_004"  >
<polygon class="clusterblast-orf" style="stroke-width:1; stroke:black; fill:white; " points="77,90 83,90 88,85 83,80 77,80 77,90 " description="&lt;b&gt;G522_RS0116890&lt;/b&gt;&lt;br&gt;hypothetical protein&lt;br&gt;Location: 143625 - 142984" id="dummy-9_h9_6_4" locus_tag="G522_RS0116890"  />
</g>
<g id="a9_005"  >
<polygon class="clusterblast-orf" style="stroke-width:1; stroke:black; fill:white; " points="91,90 102,90 107,85 102,80 91,80 91,90 " description="&lt;b&gt;G522_RS0116885&lt;/b&gt;&lt;br&gt;EamA family transporter&lt;br&gt;Location: 142850 - 141951" id="dummy-9_h9_6_5" locus_tag="G522_RS0116885"  />
</g>
<g id="a9_006"  >
<polygon class="clusterblast-orf" style="stroke-width:1; stroke:black; fill:white; " points="108,85 113,80 146,80 146,90 113,90 108,85 " description="&lt;b&gt;G522_RS0116880&lt;/b&gt;&lt;br&gt;glycoside hydrolase family 31 protein&lt;br&gt;Location: 141930 - 139840" id="dummy-9_h9_6_6" locus_tag="G522_RS0116880"  />
</g>
<g id="a9_007"  >
<polygon class="clusterblast-orf" style="stroke-width:1; stroke:black; fill:white; " points="148,85 153,80 168,80 168,90 153,90 148,85 " description="&lt;b&gt;G522_RS0116875&lt;/b&gt;&lt;br&gt;ABC transporter ATP-binding protein&lt;br&gt;Location: 139714 - 138635" id="dummy-9_h9_6_7" locus_tag="G522_RS0116875"  />
</g>
<g id="a9_008"  >
<polygon class="clusterblast-orf" style="stroke-width:1; stroke:black; fill:white; " points="168,85 173,80 183,80 183,90 173,90 168,85 " description="&lt;b&gt;G522_RS0116870&lt;/b&gt;&lt;br&gt;carbohydrate ABC transporter permease&lt;br&gt;Location: 138638 - 137826" id="dummy-9_h9_6_8" locus_tag="G522_RS0116870"  />
</g>
<g id="a9_009"  >
<polygon class="clusterblast-orf" style="stroke-width:1; stroke:black; fill:white; " points="183,85 188,80 199,80 199,90 188,90 183,85 " description="&lt;b&gt;G522_RS0116865&lt;/b&gt;&lt;br&gt;sugar ABC transporter permease&lt;br&gt;Location: 137812 - 136904" id="dummy-9_h9_6_9" locus_tag="G522_RS0116865"  />
</g>
<g id="a9_0010"  >
<polygon class="clusterblast-orf" style="stroke-width:1; stroke:black; fill:white; " points="202,85 207,80 224,80 224,90 207,90 202,85 " description="&lt;b&gt;G522_RS0116860&lt;/b&gt;&lt;br&gt;sugar ABC transporter substrate-binding protein&lt;br&gt;Location: 136788 - 135580" id="dummy-9_h9_6_10" locus_tag="G522_RS0116860"  />
</g>
<g id="a9_0011"  >
<polygon class="clusterblast-orf" style="stroke-width:1; stroke:black; fill:white; " points="233,90 246,90 251,85 246,80 233,80 233,90 " description="&lt;b&gt;G522_RS0116855&lt;/b&gt;&lt;br&gt;LacI family transcriptional regulator&lt;br&gt;Location: 135096 - 134068" id="dummy-9_h9_6_11" locus_tag="G522_RS0116855"  />
</g>
<g id="a9_0012"  >
<polygon class="clusterblast-orf" style="stroke-width:1; stroke:black; fill:white; " points="253,90 268,90 273,85 268,80 253,80 253,90 " description="&lt;b&gt;G522_RS0116850&lt;/b&gt;&lt;br&gt;DUF1176 domain-containing protein&lt;br&gt;Location: 133957 - 132896" id="dummy-9_h9_6_12" locus_tag="G522_RS0116850"  />
</g>
<g id="a9_0013"  >
<polygon class="clusterblast-orf" style="stroke-width:1; stroke:black; fill:white; " points="272,85 277,80 289,80 289,90 277,90 272,85 " description="&lt;b&gt;G522_RS0116845&lt;/b&gt;&lt;br&gt;NADP-dependent oxidoreductase&lt;br&gt;Location: 132927 - 132016" id="dummy-9_h9_6_13" locus_tag="G522_RS0116845"  />
</g>
<g id="a9_0014"  >
<polygon class="clusterblast-orf" style="stroke-width:1; stroke:black; fill:white; " points="294,90 300,90 305,85 300,80 294,80 294,90 " description="&lt;b&gt;G522_RS27330&lt;/b&gt;&lt;br&gt;glutathione S-transferase family protein&lt;br&gt;Location: 131731 - 131132" id="dummy-9_h9_6_14" locus_tag="G522_RS27330"  />
</g>
<g id="a9_0015"  >
<polygon class="clusterblast-orf" style="stroke-width:1; stroke:black; fill:white; " points="306,85 311,80 317,80 317,90 311,90 306,85 " description="&lt;b&gt;G522_RS0116835&lt;/b&gt;&lt;br&gt;porin family protein&lt;br&gt;Location: 131063 - 130455" id="dummy-9_h9_6_15" locus_tag="G522_RS0116835"  />
</g>
<g id="a9_0016"  >
<polygon class="clusterblast-orf" style="stroke-width:1; stroke:black; fill:white; " points="326,90 336,90 341,85 336,80 326,80 326,90 " description="&lt;b&gt;G522_RS0116830&lt;/b&gt;&lt;br&gt;pyrroline-5-carboxylate reductase&lt;br&gt;Location: 129984 - 129163" id="dummy-9_h9_6_16" locus_tag="G522_RS0116830"  />
</g>
<g id="a9_0017"  >
<polygon class="clusterblast-orf" style="stroke-width:1; stroke:black; fill:white; " points="341,90 342,90 347,85 342,80 341,80 341,90 " description="&lt;b&gt;G522_RS0116825&lt;/b&gt;&lt;br&gt;tRNA-binding protein&lt;br&gt;Location: 129159 - 128818" id="dummy-9_h9_6_17" locus_tag="G522_RS0116825"  />
</g>
<g id="a9_0018"  >
<polygon class="clusterblast-orf" style="stroke-width:1; stroke:black; fill:white; " points="349,85 354,80 360,80 360,90 354,90 349,85 " description="&lt;b&gt;G522_RS27325&lt;/b&gt;&lt;br&gt;4'-phosphopantetheinyl transferase&lt;br&gt;Location: 128736 - 128104" id="dummy-9_h9_6_18" locus_tag="G522_RS27325"  />
</g>
<g id="a9_0019"  >
<polygon class="clusterblast-orf" style="stroke-width:1; stroke:black; fill:white; " points="360,85 365,80 434,80 434,90 365,90 360,85 " description="&lt;b&gt;G522_RS27320&lt;/b&gt;&lt;br&gt;peptide synthetase&lt;br&gt;Location: 128107 - 124052" id="dummy-9_h9_6_19" locus_tag="G522_RS27320"  />
</g>
<g id="a9_0020"  >
<polygon class="clusterblast-orf" style="stroke-width:1; stroke:black; fill:white; " points="437,85 442,80 454,80 454,90 442,90 437,85 " description="&lt;b&gt;G522_RS0116810&lt;/b&gt;&lt;br&gt;hypothetical protein&lt;br&gt;Location: 123890 - 122991" id="dummy-9_h9_6_20" locus_tag="G522_RS0116810"  />
</g>
<g id="a9_0021"  >
<polygon class="clusterblast-orf" style="stroke-width:1; stroke:black; fill:white; " points="460,90 464,85 460,80 460,90 " description="&lt;b&gt;G522_RS0116805&lt;/b&gt;&lt;br&gt;hypothetical protein&lt;br&gt;Location: 122650 - 122414" id="dummy-9_h9_6_21" locus_tag="G522_RS0116805"  />
</g>
<g id="a9_0022"  >
<polygon class="clusterblast-orf" style="stroke-width:1; stroke:black; fill:white; " points="466,85 471,80 488,80 488,90 471,90 466,85 " description="&lt;b&gt;G522_RS0116800&lt;/b&gt;&lt;br&gt;sugar ABC transporter permease&lt;br&gt;Location: 122289 - 121093" id="dummy-9_h9_6_22" locus_tag="G522_RS0116800"  />
</g>
<g id="a9_0023"  >
<polygon class="clusterblast-orf" style="stroke-width:1; stroke:black; fill:white; " points="488,85 493,80 528,80 528,90 493,90 488,85 " description="&lt;b&gt;G522_RS0116795&lt;/b&gt;&lt;br&gt;hypothetical protein&lt;br&gt;Location: 121093 - 118913" id="dummy-9_h9_6_23" locus_tag="G522_RS0116795"  />
</g>
<g id="a9_0024"  >
<polygon class="clusterblast-orf" style="stroke-width:1; stroke:black; fill:white; " points="532,90 539,90 544,85 539,80 532,80 532,90 " description="&lt;b&gt;G522_RS0116790&lt;/b&gt;&lt;br&gt;TetR/AcrR family transcriptional regulator&lt;br&gt;Location: 118686 - 118054" id="dummy-9_h9_6_24" locus_tag="G522_RS0116790"  />
</g>
<g id="a9_0025"  >
<polygon class="clusterblast-orf" style="stroke-width:1; stroke:black; fill:white; " points="547,90 556,90 561,85 556,80 547,80 547,90 " description="&lt;b&gt;G522_RS0116785&lt;/b&gt;&lt;br&gt;isocitrate lyase/phosphoenolpyruvate mutase family protein&lt;br&gt;Location: 117863 - 117108" id="dummy-9_h9_6_25" locus_tag="G522_RS0116785"  />
</g>
<g id="a9_0026"  >
<polygon class="clusterblast-orf" style="stroke-width:1; stroke:black; fill:white; " points="561,85 566,80 574,80 574,90 566,90 561,85 " description="&lt;b&gt;G522_RS0116780&lt;/b&gt;&lt;br&gt;isoprenylcysteine carboxylmethyltransferase family protein&lt;br&gt;Location: 117094 - 116420" id="dummy-9_h9_6_26" locus_tag="G522_RS0116780"  />
</g>
<g id="a9_0027"  >
<polygon class="clusterblast-orf" style="stroke-width:1; stroke:black; fill:white; " points="576,85 581,80 604,80 604,90 581,90 576,85 " description="&lt;b&gt;G522_RS29090&lt;/b&gt;&lt;br&gt;hypothetical protein&lt;br&gt;Location: 116265 - 114732" id="dummy-9_h9_6_27" locus_tag="G522_RS29090"  />
</g>
<g id="a9_0028"  >
<polygon class="clusterblast-orf" style="stroke-width:1; stroke:black; fill:white; " points="608,85 613,80 625,80 625,90 613,90 608,85 " description="&lt;b&gt;G522_RS0116765&lt;/b&gt;&lt;br&gt;tagatose-bisphosphate aldolase&lt;br&gt;Location: 114522 - 113605" id="dummy-9_h9_6_28" locus_tag="G522_RS0116765"  />
</g>
<g id="a9_0029"  >
<polygon class="clusterblast-orf" style="stroke-width:1; stroke:black; fill:white; " points="626,85 631,80 640,80 640,90 631,90 626,85 " description="&lt;b&gt;G522_RS0116760&lt;/b&gt;&lt;br&gt;sugar ABC transporter ATP-binding protein&lt;br&gt;Location: 113560 - 112763" id="dummy-9_h9_6_29" locus_tag="G522_RS0116760"  />
</g>
<g id="a9_0030"  >
<polygon class="clusterblast-orf" style="stroke-width:1; stroke:black; fill:white; " points="640,85 645,80 661,80 661,90 645,90 640,85 " description="&lt;b&gt;G522_RS0116755&lt;/b&gt;&lt;br&gt;ABC transporter permease&lt;br&gt;Location: 112760 - 111651" id="dummy-9_h9_6_30" locus_tag="G522_RS0116755"  />
</g>
<g id="a9_0031"  >
<polygon class="clusterblast-orf" style="stroke-width:1; stroke:black; fill:white; " points="664,85 669,80 682,80 682,90 669,90 664,85 " description="&lt;b&gt;G522_RS27310&lt;/b&gt;&lt;br&gt;hypothetical protein&lt;br&gt;Location: 111472 - 110495" id="dummy-9_h9_6_31" locus_tag="G522_RS27310"  />
</g>
<g id="a9_0032"  >
<polygon class="clusterblast-orf" style="stroke-width:1; stroke:black; fill:white; " points="688,85 693,80 706,80 706,90 693,90 688,85 " description="&lt;b&gt;G522_RS0116745&lt;/b&gt;&lt;br&gt;transcriptional regulator&lt;br&gt;Location: 110128 - 109148" id="dummy-9_h9_6_32" locus_tag="G522_RS0116745"  />
</g>
<g id="a9_0033"  >
<polygon class="clusterblast-orf" style="stroke-width:1; stroke:black; fill:#d81515; " points="708,85 713,80 735,80 735,90 713,90 708,85 " description="&lt;b&gt;G522_RS27305&lt;/b&gt;&lt;br&gt;HAMP domain-containing protein&lt;br&gt;Location: 109056 - 107590&lt;br&gt;&lt;br&gt;&lt;b&gt;BlastP hit with P773_RS0106860&lt;/b&gt;&lt;br&gt;Percentage identity: 32&lt;br&gt;Percentage coverage: 101&lt;br&gt;BLAST bit score: 217&lt;br&gt;E-value: 3.2e-54" id="dummy-9_h9_6_33" locus_tag="G522_RS27305"  />
</g>
<g id="a9_0034"  >
<polygon class="clusterblast-orf" style="stroke-width:1; stroke:black; fill:#3cd815; " points="737,85 742,80 750,80 750,90 742,90 737,85 " description="&lt;b&gt;G522_RS0116735&lt;/b&gt;&lt;br&gt;DNA-binding response regulator&lt;br&gt;Location: 107457 - 106756&lt;br&gt;&lt;br&gt;&lt;b&gt;BlastP hit with P773_RS0106865&lt;/b&gt;&lt;br&gt;Percentage identity: 43&lt;br&gt;Percentage coverage: 100&lt;br&gt;BLAST bit score: 185&lt;br&gt;E-value: 5.3e-45" id="dummy-9_h9_6_34" locus_tag="G522_RS0116735"  />
</g>
<g id="a9_0035"  >
<polygon class="clusterblast-orf" style="stroke-width:1; stroke:black; fill:#1563d8; " points="750,85 755,80 760,80 760,90 755,90 750,85 " description="&lt;b&gt;G522_RS27300&lt;/b&gt;&lt;br&gt;MarR family transcriptional regulator&lt;br&gt;Location: 106756 - 106229&lt;br&gt;&lt;br&gt;&lt;b&gt;BlastP hit with P773_RS0106870&lt;/b&gt;&lt;br&gt;Percentage identity: 34&lt;br&gt;Percentage coverage: 76&lt;br&gt;BLAST bit score: 68&lt;br&gt;E-value: 6.1e-10" id="dummy-9_h9_6_35" locus_tag="G522_RS27300"  />
</g>
<g id="a9_0036"  >
<polygon class="clusterblast-orf" style="stroke-width:1; stroke:black; fill:#b115d8; " points="763,90 775,90 780,85 775,80 763,80 763,90 " description="&lt;b&gt;G522_RS0116725&lt;/b&gt;&lt;br&gt;branched-chain amino acid aminotransferase&lt;br&gt;Location: 106035 - 105145&lt;br&gt;&lt;br&gt;&lt;b&gt;BlastP hit with P773_RS0106875&lt;/b&gt;&lt;br&gt;Percentage identity: 55&lt;br&gt;Percentage coverage: 100&lt;br&gt;BLAST bit score: 327&lt;br&gt;E-value: 1.9e-87" id="dummy-9_h9_6_36" locus_tag="G522_RS0116725"  />
</g>
</svg>
