<svg version="1.1" preserveAspectRatio="none" width="800" y="0" xmlns:xlink="http://www.w3.org/1999/xlink" height="230" x="0" xmlns="http://www.w3.org/2000/svg" viewBox="0 0 800 230"  >
<g label="Query sequence" class="clusterblast-cluster"  >
<text class="clusterblast-acc" y="20" x="5"  >
Query sequence</text>
<line style="stroke-width:1; stroke:grey; " y1="35" x2="778.0" y2="35" x1="10"  />
<polygon class="clusterblast-orf" style="stroke-width:1; stroke:black; fill:white; " points="0,40 12,40 17,35 12,30 0,30 0,40 " description="&lt;b&gt;P773_RS0100420&lt;/b&gt;&lt;br&gt;aspartate aminotransferase family protein&lt;br&gt;Location: 65229 - 66576" id="dummy-1_q0_0_all" locus_tag="P773_RS0100420"  />
<polygon class="clusterblast-orf" style="stroke-width:1; stroke:black; fill:#d81515; " points="17,40 27,40 32,35 27,30 17,30 17,40 " description="&lt;b&gt;P773_RS0100425&lt;/b&gt;&lt;br&gt;alanine dehydrogenase&lt;br&gt;Location: 66608 - 67724" id="dummy-1_q1_0_all" locus_tag="P773_RS0100425"  />
<polygon class="clusterblast-orf" style="stroke-width:1; stroke:black; fill:white; " points="32,40 40,40 45,35 40,30 32,30 32,40 " description="&lt;b&gt;P773_RS0100430&lt;/b&gt;&lt;br&gt;NAD-dependent dehydratase&lt;br&gt;Location: 67758 - 68769" id="dummy-1_q2_0_all" locus_tag="P773_RS0100430"  />
<polygon class="clusterblast-orf" style="stroke-width:1; stroke:black; fill:white; " points="50,40 53,40 58,35 53,30 50,30 50,40 " description="&lt;b&gt;P773_RS0100435&lt;/b&gt;&lt;br&gt;methyltransferase domain-containing protein&lt;br&gt;Location: 69104 - 69731" id="dummy-1_q3_0_all" locus_tag="P773_RS0100435"  />
<polygon class="clusterblast-orf" style="stroke-width:1; stroke:black; fill:white; " points="58,35 63,30 64,30 64,40 63,40 58,35 " description="&lt;b&gt;P773_RS0100440&lt;/b&gt;&lt;br&gt;hypothetical protein&lt;br&gt;Location: 69733 - 70186" id="dummy-1_q4_0_all" locus_tag="P773_RS0100440"  />
<polygon class="clusterblast-orf" style="stroke-width:1; stroke:black; fill:white; " points="64,40 98,40 103,35 98,30 64,30 64,40 " description="&lt;b&gt;P773_RS0100445&lt;/b&gt;&lt;br&gt;hypothetical protein&lt;br&gt;Location: 70171 - 73210" id="dummy-1_q5_0_all" locus_tag="P773_RS0100445"  />
<polygon class="clusterblast-orf" style="stroke-width:1; stroke:black; fill:white; " points="103,40 115,40 120,35 115,30 103,30 103,40 " description="&lt;b&gt;P773_RS0100450&lt;/b&gt;&lt;br&gt;hypothetical protein&lt;br&gt;Location: 73212 - 74544" id="dummy-1_q6_0_all" locus_tag="P773_RS0100450"  />
<polygon class="clusterblast-orf" style="stroke-width:1; stroke:black; fill:white; " points="120,35 125,30 135,30 135,40 125,40 120,35 " description="&lt;b&gt;P773_RS0100455&lt;/b&gt;&lt;br&gt;hypothetical protein&lt;br&gt;Location: 74533 - 75652" id="dummy-1_q7_0_all" locus_tag="P773_RS0100455"  />
<polygon class="clusterblast-orf" style="stroke-width:1; stroke:black; fill:white; " points="137,40 160,40 165,35 160,30 137,30 137,40 " description="&lt;b&gt;P773_RS0100460&lt;/b&gt;&lt;br&gt;hypothetical protein&lt;br&gt;Location: 75861 - 78003" id="dummy-1_q8_0_all" locus_tag="P773_RS0100460"  />
<polygon class="clusterblast-orf" style="stroke-width:1; stroke:black; fill:#33d815; " points="165,40 178,40 183,35 178,30 165,30 165,40 " description="&lt;b&gt;P773_RS07810&lt;/b&gt;&lt;br&gt;hypothetical protein&lt;br&gt;Location: 78006 - 79419" id="dummy-1_q9_0_all" locus_tag="P773_RS07810"  />
<polygon class="clusterblast-orf" style="stroke-width:1; stroke:black; fill:white; " points="185,40 202,40 207,35 202,30 185,30 185,40 " description="&lt;b&gt;P773_RS0100470&lt;/b&gt;&lt;br&gt;hypothetical protein&lt;br&gt;Location: 79512 - 81273" id="dummy-1_q10_0_all" locus_tag="P773_RS0100470"  />
<polygon class="clusterblast-orf" style="stroke-width:1; stroke:black; fill:#15abd8; " points="208,40 215,40 220,35 215,30 208,30 208,40 " description="&lt;b&gt;P773_RS0100475&lt;/b&gt;&lt;br&gt;glycosyltransferase family 2 protein&lt;br&gt;Location: 81336 - 82230" id="dummy-1_q11_0_all" locus_tag="P773_RS0100475"  />
<polygon class="clusterblast-orf" style="stroke-width:1; stroke:black; fill:white; " points="220,35 225,30 243,30 243,40 225,40 220,35 " description="&lt;b&gt;P773_RS0100480&lt;/b&gt;&lt;br&gt;asparagine synthase (glutamine-hydrolyzing)&lt;br&gt;Location: 82231 - 84034" id="dummy-1_q12_0_all" locus_tag="P773_RS0100480"  />
<polygon class="clusterblast-orf" style="stroke-width:1; stroke:black; fill:#8d15d8; " points="243,35 248,30 258,30 258,40 248,40 243,35 " description="&lt;b&gt;P773_RS0100485&lt;/b&gt;&lt;br&gt;hypothetical protein&lt;br&gt;Location: 84021 - 85218" id="dummy-1_q13_0_all" locus_tag="P773_RS0100485"  />
<polygon class="clusterblast-orf" style="stroke-width:1; stroke:black; fill:white; " points="259,35 264,30 275,30 275,40 264,40 259,35 " description="&lt;b&gt;P773_RS0100490&lt;/b&gt;&lt;br&gt;hypothetical protein&lt;br&gt;Location: 85244 - 86516" id="dummy-1_q14_0_all" locus_tag="P773_RS0100490"  />
<polygon class="clusterblast-orf" style="stroke-width:1; stroke:black; fill:white; " points="275,35 280,30 290,30 290,40 280,40 275,35 " description="&lt;b&gt;P773_RS0100495&lt;/b&gt;&lt;br&gt;hypothetical protein&lt;br&gt;Location: 86505 - 87684" id="dummy-1_q15_0_all" locus_tag="P773_RS0100495"  />
<polygon class="clusterblast-orf" style="stroke-width:1; stroke:black; fill:white; " points="291,35 296,30 304,30 304,40 296,40 291,35 " description="&lt;b&gt;P773_RS0100500&lt;/b&gt;&lt;br&gt;hypothetical protein&lt;br&gt;Location: 87725 - 88754" id="dummy-1_q16_0_all" locus_tag="P773_RS0100500"  />
<polygon class="clusterblast-orf" style="stroke-width:1; stroke:black; fill:#d86f15; " points="304,35 309,30 318,30 318,40 309,40 304,35 " description="&lt;b&gt;P773_RS0100505&lt;/b&gt;&lt;br&gt;glycosyltransferase family 1 protein&lt;br&gt;Location: 88759 - 89845" id="dummy-1_q17_0_all" locus_tag="P773_RS0100505"  />
<polygon class="clusterblast-orf" style="stroke-width:1; stroke:black; fill:white; " points="318,35 323,30 338,30 338,40 323,40 318,35 " description="&lt;b&gt;P773_RS0100510&lt;/b&gt;&lt;br&gt;hypothetical protein&lt;br&gt;Location: 89834 - 91379" id="dummy-1_q18_0_all" locus_tag="P773_RS0100510"  />
<polygon class="clusterblast-orf" style="stroke-width:1; stroke:black; fill:white; " points="338,35 343,30 354,30 354,40 343,40 338,35 " description="&lt;b&gt;P773_RS0100515&lt;/b&gt;&lt;br&gt;hypothetical protein&lt;br&gt;Location: 91398 - 92574" id="dummy-1_q19_0_all" locus_tag="P773_RS0100515"  />
<polygon class="clusterblast-orf" style="stroke-width:1; stroke:black; fill:#15d851; " points="354,35 359,30 363,30 363,40 359,40 354,35 " description="&lt;b&gt;P773_RS0100520&lt;/b&gt;&lt;br&gt;FkbM family methyltransferase&lt;br&gt;Location: 92566 - 93286" id="dummy-1_q20_0_all" locus_tag="P773_RS0100520"  />
<polygon class="clusterblast-orf" style="stroke-width:1; stroke:black; fill:white; " points="364,35 369,30 374,30 374,40 369,40 364,35 " description="&lt;b&gt;P773_RS0100525&lt;/b&gt;&lt;br&gt;glycosyltransferase&lt;br&gt;Location: 93379 - 94117" id="dummy-1_q21_0_all" locus_tag="P773_RS0100525"  />
<polygon class="clusterblast-orf" style="stroke-width:1; stroke:black; fill:white; " points="374,35 379,30 384,30 384,40 379,40 374,35 " description="&lt;b&gt;P773_RS0100530&lt;/b&gt;&lt;br&gt;hypothetical protein&lt;br&gt;Location: 94123 - 94930" id="dummy-1_q22_0_all" locus_tag="P773_RS0100530"  />
<polygon class="clusterblast-orf" style="stroke-width:1; stroke:black; fill:white; " points="384,35 389,30 402,30 402,40 389,40 384,35 " description="&lt;b&gt;P773_RS0100535&lt;/b&gt;&lt;br&gt;hypothetical protein&lt;br&gt;Location: 94935 - 96273" id="dummy-1_q23_0_all" locus_tag="P773_RS0100535"  />
<polygon class="clusterblast-orf" style="stroke-width:1; stroke:black; fill:#1551d8; " points="403,35 408,30 411,30 411,40 408,40 403,35 " description="&lt;b&gt;P773_RS07710&lt;/b&gt;&lt;br&gt;SIS domain-containing protein&lt;br&gt;Location: 96376 - 97003" id="dummy-1_q24_0_all" locus_tag="P773_RS07710"  />
<polygon class="clusterblast-orf" style="stroke-width:1; stroke:black; fill:#d815c9; " points="412,40 420,40 425,35 420,30 412,30 412,40 " description="&lt;b&gt;P773_RS0100545&lt;/b&gt;&lt;br&gt;hypothetical protein&lt;br&gt;Location: 97112 - 98084" id="dummy-1_q25_0_all" locus_tag="P773_RS0100545"  />
<polygon class="clusterblast-orf" style="stroke-width:1; stroke:black; fill:#d8c915; " points="425,40 436,40 441,35 436,30 425,30 425,40 " description="&lt;b&gt;P773_RS0100550&lt;/b&gt;&lt;br&gt;hypothetical protein&lt;br&gt;Location: 98083 - 99334" id="dummy-1_q26_0_all" locus_tag="P773_RS0100550"  />
<polygon class="clusterblast-orf" style="stroke-width:1; stroke:black; fill:#15d8ab; " points="442,40 449,40 454,35 449,30 442,30 442,40 " description="&lt;b&gt;P773_RS0100555&lt;/b&gt;&lt;br&gt;hypothetical protein&lt;br&gt;Location: 99373 - 100339" id="dummy-1_q27_0_all" locus_tag="P773_RS0100555"  />
<polygon class="clusterblast-orf" style="stroke-width:1; stroke:black; fill:#d815c9; " points="456,35 461,30 469,30 469,40 461,40 456,35 " description="&lt;b&gt;P773_RS0100560&lt;/b&gt;&lt;br&gt;UDP-glucuronate 5-epimerase&lt;br&gt;Location: 100462 - 101473" id="dummy-1_q28_0_all" locus_tag="P773_RS0100560"  />
<polygon class="clusterblast-orf" style="stroke-width:1; stroke:black; fill:#3315d8; " points="473,40 477,40 482,35 477,30 473,30 473,40 " description="&lt;b&gt;P773_RS0100565&lt;/b&gt;&lt;br&gt;transaldolase&lt;br&gt;Location: 101792 - 102488" id="dummy-1_q29_0_all" locus_tag="P773_RS0100565"  />
<polygon class="clusterblast-orf" style="stroke-width:1; stroke:black; fill:white; " points="482,40 509,40 514,35 509,30 482,30 482,40 " description="&lt;b&gt;P773_RS0100570&lt;/b&gt;&lt;br&gt;sarcosine dehydrogenase&lt;br&gt;Location: 102517 - 104962" id="dummy-1_q30_0_all" locus_tag="P773_RS0100570"  />
<polygon class="clusterblast-orf" style="stroke-width:1; stroke:black; fill:white; " points="515,40 517,35 515,30 515,40 " description="&lt;b&gt;P773_RS0100575&lt;/b&gt;&lt;br&gt;hypothetical protein&lt;br&gt;Location: 105011 - 105221" id="dummy-1_q31_0_all" locus_tag="P773_RS0100575"  />
<polygon class="clusterblast-orf" style="stroke-width:1; stroke:black; fill:white; " points="520,35 525,30 526,30 526,40 525,40 520,35 " description="&lt;b&gt;P773_RS0100585&lt;/b&gt;&lt;br&gt;adenine phosphoribosyltransferase&lt;br&gt;Location: 105387 - 105915" id="dummy-1_q32_0_all" locus_tag="P773_RS0100585"  />
<polygon class="clusterblast-orf" style="stroke-width:1; stroke:black; fill:white; " points="527,40 533,40 538,35 533,30 527,30 527,40 " description="&lt;b&gt;P773_RS0100590&lt;/b&gt;&lt;br&gt;S-methyl-5'-thioadenosine phosphorylase&lt;br&gt;Location: 105956 - 106829" id="dummy-1_q33_0_all" locus_tag="P773_RS0100590"  />
<polygon class="clusterblast-orf" style="stroke-width:1; stroke:black; fill:white; " points="538,40 547,40 552,35 547,30 538,30 538,40 " description="&lt;b&gt;P773_RS0100595&lt;/b&gt;&lt;br&gt;S-methyl-5-thioribose-1-phosphate isomerase&lt;br&gt;Location: 106825 - 107896" id="dummy-1_q34_0_all" locus_tag="P773_RS0100595"  />
<polygon class="clusterblast-orf" style="stroke-width:1; stroke:black; fill:white; " points="552,40 555,40 560,35 555,30 552,30 552,40 " description="&lt;b&gt;P773_RS0100600&lt;/b&gt;&lt;br&gt;fuculose phosphate aldolase&lt;br&gt;Location: 107892 - 108525" id="dummy-1_q35_0_all" locus_tag="P773_RS0100600"  />
<polygon class="clusterblast-orf" style="stroke-width:1; stroke:black; fill:white; " points="560,40 569,40 574,35 569,30 560,30 560,40 " description="&lt;b&gt;P773_RS0100605&lt;/b&gt;&lt;br&gt;adenosylmethionine decarboxylase&lt;br&gt;Location: 108528 - 109569" id="dummy-1_q36_0_all" locus_tag="P773_RS0100605"  />
<polygon class="clusterblast-orf" style="stroke-width:1; stroke:black; fill:white; " points="575,40 581,40 586,35 581,30 575,30 575,40 " description="&lt;b&gt;P773_RS0100610&lt;/b&gt;&lt;br&gt;ABC transporter substrate-binding protein&lt;br&gt;Location: 109628 - 110480" id="dummy-1_q37_0_all" locus_tag="P773_RS0100610"  />
<polygon class="clusterblast-orf" style="stroke-width:1; stroke:black; fill:#d8156f; " points="586,40 590,40 595,35 590,30 586,30 586,40 " description="&lt;b&gt;P773_RS0100615&lt;/b&gt;&lt;br&gt;ABC transporter permease&lt;br&gt;Location: 110524 - 111217" id="dummy-1_q38_0_all" locus_tag="P773_RS0100615"  />
<polygon class="clusterblast-orf" style="stroke-width:1; stroke:black; fill:#8dd815; " points="595,40 599,40 604,35 599,30 595,30 595,40 " description="&lt;b&gt;P773_RS0100620&lt;/b&gt;&lt;br&gt;ABC transporter permease&lt;br&gt;Location: 111216 - 111894" id="dummy-1_q39_0_all" locus_tag="P773_RS0100620"  />
<polygon class="clusterblast-orf" style="stroke-width:1; stroke:black; fill:white; " points="604,40 609,40 614,35 609,30 604,30 604,40 " description="&lt;b&gt;P773_RS0100625&lt;/b&gt;&lt;br&gt;phytanoyl-CoA dioxygenase&lt;br&gt;Location: 111896 - 112685" id="dummy-1_q40_0_all" locus_tag="P773_RS0100625"  />
<polygon class="clusterblast-orf" style="stroke-width:1; stroke:black; fill:white; " points="614,35 619,30 619,30 619,40 619,40 614,35 " description="&lt;b&gt;P773_RS0100630&lt;/b&gt;&lt;br&gt;hypothetical protein&lt;br&gt;Location: 112674 - 113064" id="dummy-1_q41_0_all" locus_tag="P773_RS0100630"  />
<polygon class="clusterblast-orf" style="stroke-width:1; stroke:black; fill:white; " points="619,40 627,40 632,35 627,30 619,30 619,40 " description="&lt;b&gt;P773_RS0100635&lt;/b&gt;&lt;br&gt;glycosyl transferase family 1&lt;br&gt;Location: 113096 - 114038" id="dummy-1_q42_0_all" locus_tag="P773_RS0100635"  />
<polygon class="clusterblast-orf" style="stroke-width:1; stroke:black; fill:white; " points="632,35 637,30 643,30 643,40 637,40 632,35 " description="&lt;b&gt;P773_RS0100640&lt;/b&gt;&lt;br&gt;EamA/RhaT family transporter&lt;br&gt;Location: 114052 - 114940" id="dummy-1_q43_0_all" locus_tag="P773_RS0100640"  />
<polygon class="clusterblast-orf" style="stroke-width:1; stroke:black; fill:white; " points="644,35 649,30 658,30 658,40 649,40 644,35 " description="&lt;b&gt;P773_RS0100645&lt;/b&gt;&lt;br&gt;glycosyl transferase&lt;br&gt;Location: 114979 - 116062" id="dummy-1_q44_0_all" locus_tag="P773_RS0100645"  />
<polygon class="clusterblast-orf" style="stroke-width:1; stroke:black; fill:white; " points="658,35 663,30 665,30 665,40 663,40 658,35 " description="&lt;b&gt;P773_RS0100650&lt;/b&gt;&lt;br&gt;thioredoxin family protein&lt;br&gt;Location: 116061 - 116616" id="dummy-1_q45_0_all" locus_tag="P773_RS0100650"  />
<polygon class="clusterblast-orf" style="stroke-width:1; stroke:black; fill:white; " points="665,40 667,40 672,35 667,30 665,30 665,40 " description="&lt;b&gt;P773_RS0100655&lt;/b&gt;&lt;br&gt;gamma carbonic anhydrase family protein&lt;br&gt;Location: 116636 - 117149" id="dummy-1_q46_0_all" locus_tag="P773_RS0100655"  />
<polygon class="clusterblast-orf" style="stroke-width:1; stroke:black; fill:white; " points="672,40 676,35 672,30 672,40 " description="&lt;b&gt;P773_RS0100660&lt;/b&gt;&lt;br&gt;DUF1330 domain-containing protein&lt;br&gt;Location: 117161 - 117452" id="dummy-1_q47_0_all" locus_tag="P773_RS0100660"  />
<polygon class="clusterblast-orf" style="stroke-width:1; stroke:black; fill:white; " points="676,35 681,30 684,30 684,40 681,40 676,35 " description="&lt;b&gt;P773_RS0100665&lt;/b&gt;&lt;br&gt;flavin-binding protein&lt;br&gt;Location: 117461 - 118061" id="dummy-1_q48_0_all" locus_tag="P773_RS0100665"  />
<polygon class="clusterblast-orf" style="stroke-width:1; stroke:black; fill:white; " points="684,35 689,30 695,30 695,40 689,40 684,35 " description="&lt;b&gt;P773_RS0100670&lt;/b&gt;&lt;br&gt;NAD(P)-dependent oxidoreductase&lt;br&gt;Location: 118067 - 118937" id="dummy-1_q49_0_all" locus_tag="P773_RS0100670"  />
<polygon class="clusterblast-orf" style="stroke-width:1; stroke:black; fill:white; " points="695,40 706,40 711,35 706,30 695,30 695,40 " description="&lt;b&gt;P773_RS0100675&lt;/b&gt;&lt;br&gt;MFS transporter&lt;br&gt;Location: 118951 - 120157" id="dummy-1_q50_0_all" locus_tag="P773_RS0100675"  />
<polygon class="clusterblast-orf" style="stroke-width:1; stroke:black; fill:white; " points="711,40 713,40 718,35 713,30 711,30 711,40 " description="&lt;b&gt;P773_RS0100680&lt;/b&gt;&lt;br&gt;DNA-directed RNA polymerase subunit omega&lt;br&gt;Location: 120200 - 120716" id="dummy-1_q51_0_all" locus_tag="P773_RS0100680"  />
<polygon class="clusterblast-orf" style="stroke-width:1; stroke:black; fill:white; " points="719,35 724,30 732,30 732,40 724,40 719,35 " description="&lt;b&gt;P773_RS0100685&lt;/b&gt;&lt;br&gt;hypothetical protein&lt;br&gt;Location: 120778 - 121792" id="dummy-1_q52_0_all" locus_tag="P773_RS0100685"  />
<polygon class="clusterblast-orf" style="stroke-width:1; stroke:black; fill:white; " points="734,35 739,30 749,30 749,40 739,40 734,35 " description="&lt;b&gt;P773_RS0100690&lt;/b&gt;&lt;br&gt;aminomethyltransferase&lt;br&gt;Location: 121945 - 123124" id="dummy-1_q53_0_all" locus_tag="P773_RS0100690"  />
<polygon class="clusterblast-orf" style="stroke-width:1; stroke:black; fill:white; " points="749,35 754,30 780,30 780,40 754,40 749,35 " description="&lt;b&gt;P773_RS0100695&lt;/b&gt;&lt;br&gt;biotin transporter BioY&lt;br&gt;Location: 123134 - 125465" id="dummy-1_q54_0_all" locus_tag="P773_RS0100695"  />
</g>
<g label="NZ_LZJK01000020" class="clusterblast-cluster" description="NZ_LZJK01000020_c1: Mycolicibacter sinensis strain E1572 contig 116, whole ge... (9% of genes show similarity), t1pks"  >
<text class="clusterblast-acc" y="70" x="5"  >
<a xlink:href="https://antismash-db.secondarymetabolites.org/go/NZ_LZJK01000020/1" target="_blank">NZ_LZJK01000020_c1</a>: Mycolicibacter sinensis strain E1572 contig 116, whole ge... (9% of genes show similarity), t1pks</text>
<line style="stroke-width:1; stroke:grey; " y1="85" x2="778.0" y2="85" x1="10"  />
</g>
<g id="a1_000"  >
<polygon class="clusterblast-orf" style="stroke-width:1; stroke:black; fill:white; " points="93,90 100,90 105,85 100,80 93,80 93,90 " description="&lt;b&gt;A5694_RS01590&lt;/b&gt;&lt;br&gt;4-(cytidine 5'-diphospho)-2-C-methyl-D-erythritol kinase&lt;br&gt;Location: 58380 - 57418" id="dummy-1_h1_8_0" locus_tag="A5694_RS01590"  />
</g>
<g id="a1_001"  >
<polygon class="clusterblast-orf" style="stroke-width:1; stroke:black; fill:white; " points="109,90 125,90 130,85 125,80 109,80 109,90 " description="&lt;b&gt;A5694_RS01585&lt;/b&gt;&lt;br&gt;long-chain fatty acid--CoA ligase&lt;br&gt;Location: 57167 - 55533" id="dummy-1_h1_8_1" locus_tag="A5694_RS01585"  />
</g>
<g id="a1_002"  >
<polygon class="clusterblast-orf" style="stroke-width:1; stroke:black; fill:white; " points="131,85 136,80 139,80 139,90 136,90 131,85 " description="&lt;b&gt;A5694_RS01580&lt;/b&gt;&lt;br&gt;aminoacyl-tRNA hydrolase&lt;br&gt;Location: 55445 - 54861" id="dummy-1_h1_8_2" locus_tag="A5694_RS01580"  />
</g>
<g id="a1_003"  >
<polygon class="clusterblast-orf" style="stroke-width:1; stroke:black; fill:white; " points="139,85 144,80 147,80 147,90 144,90 139,85 " description="&lt;b&gt;A5694_RS01575&lt;/b&gt;&lt;br&gt;50S ribosomal protein L25&lt;br&gt;Location: 54848 - 54216" id="dummy-1_h1_8_3" locus_tag="A5694_RS01575"  />
</g>
<g id="a1_004"  >
<polygon class="clusterblast-orf" style="stroke-width:1; stroke:black; fill:white; " points="149,85 154,80 160,80 160,90 154,90 149,85 " description="&lt;b&gt;A5694_RS01570&lt;/b&gt;&lt;br&gt;KR domain-containing protein&lt;br&gt;Location: 54078 - 53206" id="dummy-1_h1_8_4" locus_tag="A5694_RS01570"  />
</g>
<g id="a1_005"  >
<polygon class="clusterblast-orf" style="stroke-width:1; stroke:black; fill:white; " points="163,85 166,80 166,90 163,85 " description="&lt;b&gt;A5694_RS01565&lt;/b&gt;&lt;br&gt;hypothetical protein&lt;br&gt;Location: 53006 - 52740" id="dummy-1_h1_8_5" locus_tag="A5694_RS01565"  />
</g>
<g id="a1_006"  >
<polygon class="clusterblast-orf" style="stroke-width:1; stroke:black; fill:white; " points="166,85 171,80 171,80 171,90 171,90 166,85 " description="&lt;b&gt;A5694_RS01560&lt;/b&gt;&lt;br&gt;hemophore-related protein&lt;br&gt;Location: 52740 - 52372" id="dummy-1_h1_8_6" locus_tag="A5694_RS01560"  />
</g>
<g id="a1_007"  >
<polygon class="clusterblast-orf" style="stroke-width:1; stroke:black; fill:white; " points="172,85 177,80 180,80 180,90 177,90 172,85 " description="&lt;b&gt;A5694_RS01555&lt;/b&gt;&lt;br&gt;hypothetical protein&lt;br&gt;Location: 52312 - 51668" id="dummy-1_h1_8_7" locus_tag="A5694_RS01555"  />
</g>
<g id="a1_008"  >
<polygon class="clusterblast-orf" style="stroke-width:1; stroke:black; fill:white; " points="180,85 185,80 185,80 185,90 185,90 180,85 " description="&lt;b&gt;A5694_RS01550&lt;/b&gt;&lt;br&gt;arsenate reductase (glutaredoxin)&lt;br&gt;Location: 51653 - 51309" id="dummy-1_h1_8_8" locus_tag="A5694_RS01550"  />
</g>
<g id="a1_009"  >
<polygon class="clusterblast-orf" style="stroke-width:1; stroke:black; fill:white; " points="185,85 190,80 197,80 197,90 190,90 185,85 " description="&lt;b&gt;A5694_RS01545&lt;/b&gt;&lt;br&gt;ribose-phosphate diphosphokinase&lt;br&gt;Location: 51308 - 50328" id="dummy-1_h1_8_9" locus_tag="A5694_RS01545"  />
</g>
<g id="a1_0010"  >
<polygon class="clusterblast-orf" style="stroke-width:1; stroke:black; fill:white; " points="199,85 204,80 218,80 218,90 204,90 199,85 " description="&lt;b&gt;A5694_RS01540&lt;/b&gt;&lt;br&gt;bifunctional UDP-N-acetylglucosamine diphosphorylase/glucosamine-1-phosphate N-acetyltransferase GlmU&lt;br&gt;Location: 50218 - 48710" id="dummy-1_h1_8_10" locus_tag="A5694_RS01540"  />
</g>
<g id="a1_0011"  >
<polygon class="clusterblast-orf" style="stroke-width:1; stroke:black; fill:white; " points="224,90 228,85 224,80 224,90 " description="&lt;b&gt;A5694_RS01535&lt;/b&gt;&lt;br&gt;PE family protein&lt;br&gt;Location: 48259 - 47960" id="dummy-1_h1_8_11" locus_tag="A5694_RS01535"  />
</g>
<g id="a1_0012"  >
<polygon class="clusterblast-orf" style="stroke-width:1; stroke:black; fill:white; " points="228,90 242,90 247,85 242,80 228,80 228,90 " description="&lt;b&gt;A5694_RS01530&lt;/b&gt;&lt;br&gt;PPE family protein&lt;br&gt;Location: 47941 - 46475" id="dummy-1_h1_8_12" locus_tag="A5694_RS01530"  />
</g>
<g id="a1_0013"  >
<polygon class="clusterblast-orf" style="stroke-width:1; stroke:black; fill:white; " points="248,90 252,85 248,80 248,90 " description="&lt;b&gt;A5694_RS01525&lt;/b&gt;&lt;br&gt;WXG100 family type VII secretion target&lt;br&gt;Location: 46421 - 46125" id="dummy-1_h1_8_13" locus_tag="A5694_RS01525"  />
</g>
<g id="a1_0014"  >
<polygon class="clusterblast-orf" style="stroke-width:1; stroke:black; fill:white; " points="252,90 256,85 252,80 252,90 " description="&lt;b&gt;A5694_RS01520&lt;/b&gt;&lt;br&gt;type VII secretion protein EsxI&lt;br&gt;Location: 46108 - 45824" id="dummy-1_h1_8_14" locus_tag="A5694_RS01520"  />
</g>
<g id="a1_0015"  >
<polygon class="clusterblast-orf" style="stroke-width:1; stroke:black; fill:#33d815; " points="256,90 271,90 276,85 271,80 256,80 256,90 " description="&lt;b&gt;A5694_RS01515&lt;/b&gt;&lt;br&gt;sugar transferase&lt;br&gt;Location: 45793 - 44273&lt;br&gt;&lt;br&gt;&lt;b&gt;BlastP hit with P773_RS07810&lt;/b&gt;&lt;br&gt;Percentage identity: 33&lt;br&gt;Percentage coverage: 43&lt;br&gt;BLAST bit score: 103&lt;br&gt;E-value: 7.3e-20" id="dummy-1_h1_8_15" locus_tag="A5694_RS01515"  />
</g>
<g id="a1_0016"  >
<polygon class="clusterblast-orf" style="stroke-width:1; stroke:black; fill:white; " points="277,90 280,90 285,85 280,80 277,80 277,90 " description="&lt;b&gt;A5694_RS01510&lt;/b&gt;&lt;br&gt;SIS domain-containing protein&lt;br&gt;Location: 44192 - 43581" id="dummy-1_h1_8_16" locus_tag="A5694_RS01510"  />
</g>
<g id="a1_0017"  >
<polygon class="clusterblast-orf" style="stroke-width:1; stroke:black; fill:white; " points="284,90 287,90 292,85 287,80 284,80 284,90 " description="&lt;b&gt;A5694_RS01505&lt;/b&gt;&lt;br&gt;HAD family hydrolase&lt;br&gt;Location: 43599 - 42979" id="dummy-1_h1_8_17" locus_tag="A5694_RS01505"  />
</g>
<g id="a1_0018"  >
<polygon class="clusterblast-orf" style="stroke-width:1; stroke:black; fill:#3315d8; " points="292,90 297,90 302,85 297,80 292,80 292,90 " description="&lt;b&gt;A5694_RS01500&lt;/b&gt;&lt;br&gt;transaldolase&lt;br&gt;Location: 42998 - 42267&lt;br&gt;&lt;br&gt;&lt;b&gt;BlastP hit with P773_RS0100565&lt;/b&gt;&lt;br&gt;Percentage identity: 44&lt;br&gt;Percentage coverage: 99&lt;br&gt;BLAST bit score: 206&lt;br&gt;E-value: 3.9e-51" id="dummy-1_h1_8_18" locus_tag="A5694_RS01500"  />
</g>
<g id="a1_0019"  >
<polygon class="clusterblast-orf" style="stroke-width:1; stroke:black; fill:white; " points="302,90 311,90 316,85 311,80 302,80 302,90 " description="&lt;b&gt;A5694_RS01495&lt;/b&gt;&lt;br&gt;GDP-mannose 4,6-dehydratase&lt;br&gt;Location: 42208 - 41186" id="dummy-1_h1_8_19" locus_tag="A5694_RS01495"  />
</g>
<g id="a1_0020"  >
<polygon class="clusterblast-orf" style="stroke-width:1; stroke:black; fill:white; " points="316,90 323,90 328,85 323,80 316,80 316,90 " description="&lt;b&gt;A5694_RS01490&lt;/b&gt;&lt;br&gt;GDP-L-fucose synthase&lt;br&gt;Location: 41177 - 40215" id="dummy-1_h1_8_20" locus_tag="A5694_RS01490"  />
</g>
<g id="a1_0021"  >
<polygon class="clusterblast-orf" style="stroke-width:1; stroke:black; fill:white; " points="328,90 341,90 346,85 341,80 328,80 328,90 " description="&lt;b&gt;A5694_RS01485&lt;/b&gt;&lt;br&gt;glycosyltransferase WbuB&lt;br&gt;Location: 40218 - 38848" id="dummy-1_h1_8_21" locus_tag="A5694_RS01485"  />
</g>
<g id="a1_0022"  >
<polygon class="clusterblast-orf" style="stroke-width:1; stroke:black; fill:white; " points="347,90 424,90 429,85 424,80 347,80 347,90 " description="&lt;b&gt;A5694_RS01480&lt;/b&gt;&lt;br&gt;KR domain-containing protein&lt;br&gt;Location: 38798 - 32457" id="dummy-1_h1_8_22" locus_tag="A5694_RS01480"  />
</g>
<g id="a1_0023"  >
<polygon class="clusterblast-orf" style="stroke-width:1; stroke:black; fill:white; " points="429,85 434,80 438,80 438,90 434,90 429,85 " description="&lt;b&gt;A5694_RS01475&lt;/b&gt;&lt;br&gt;hypothetical protein&lt;br&gt;Location: 32437 - 31724" id="dummy-1_h1_8_23" locus_tag="A5694_RS01475"  />
</g>
<g id="a1_0024"  >
<polygon class="clusterblast-orf" style="stroke-width:1; stroke:black; fill:white; " points="440,85 445,80 449,80 449,90 445,90 440,85 " description="&lt;b&gt;A5694_RS01470&lt;/b&gt;&lt;br&gt;hypothetical protein&lt;br&gt;Location: 31568 - 30849" id="dummy-1_h1_8_24" locus_tag="A5694_RS01470"  />
</g>
<g id="a1_0025"  >
<polygon class="clusterblast-orf" style="stroke-width:1; stroke:black; fill:white; " points="451,85 456,80 471,80 471,90 456,90 451,85 " description="&lt;b&gt;A5694_RS01465&lt;/b&gt;&lt;br&gt;PE-PPE domain-containing protein&lt;br&gt;Location: 30719 - 29178" id="dummy-1_h1_8_25" locus_tag="A5694_RS01465"  />
</g>
<g id="a1_0026"  >
<polygon class="clusterblast-orf" style="stroke-width:1; stroke:black; fill:#15d851; " points="477,90 481,90 486,85 481,80 477,80 477,90 " description="&lt;b&gt;A5694_RS01460&lt;/b&gt;&lt;br&gt;FkbM family methyltransferase&lt;br&gt;Location: 28747 - 28007&lt;br&gt;&lt;br&gt;&lt;b&gt;BlastP hit with P773_RS0100520&lt;/b&gt;&lt;br&gt;Percentage identity: 31&lt;br&gt;Percentage coverage: 85&lt;br&gt;BLAST bit score: 88&lt;br&gt;E-value: 1.2e-15" id="dummy-1_h1_8_26" locus_tag="A5694_RS01460"  />
</g>
<g id="a1_0027"  >
<polygon class="clusterblast-orf" style="stroke-width:1; stroke:black; fill:white; " points="487,90 492,90 497,85 492,80 487,80 487,90 " description="&lt;b&gt;A5694_RS01455&lt;/b&gt;&lt;br&gt;class I SAM-dependent methyltransferase&lt;br&gt;Location: 27916 - 27173" id="dummy-1_h1_8_27" locus_tag="A5694_RS01455"  />
</g>
<g id="a1_0028"  >
<polygon class="clusterblast-orf" style="stroke-width:1; stroke:black; fill:white; " points="497,85 502,80 506,80 506,90 502,90 497,85 " description="&lt;b&gt;A5694_RS01450&lt;/b&gt;&lt;br&gt;hypothetical protein&lt;br&gt;Location: 27143 - 26490" id="dummy-1_h1_8_28" locus_tag="A5694_RS01450"  />
</g>
<g id="a1_0029"  >
<polygon class="clusterblast-orf" style="stroke-width:1; stroke:black; fill:white; " points="508,90 518,90 523,85 518,80 508,80 508,90 " description="&lt;b&gt;A5694_RS01445&lt;/b&gt;&lt;br&gt;glycosyltransferase family 1 protein&lt;br&gt;Location: 26333 - 25194" id="dummy-1_h1_8_29" locus_tag="A5694_RS01445"  />
</g>
<g id="a1_0030"  >
<polygon class="clusterblast-orf" style="stroke-width:1; stroke:black; fill:white; " points="523,90 530,90 535,85 530,80 523,80 523,90 " description="&lt;b&gt;A5694_RS01440&lt;/b&gt;&lt;br&gt;nucleoside-diphosphate sugar epimerase&lt;br&gt;Location: 25175 - 24216" id="dummy-1_h1_8_30" locus_tag="A5694_RS01440"  />
</g>
<g id="a1_0031"  >
<polygon class="clusterblast-orf" style="stroke-width:1; stroke:black; fill:white; " points="536,90 542,90 547,85 542,80 536,80 536,90 " description="&lt;b&gt;A5694_RS01435&lt;/b&gt;&lt;br&gt;SDR family NAD(P)-dependent oxidoreductase&lt;br&gt;Location: 24190 - 23333" id="dummy-1_h1_8_31" locus_tag="A5694_RS01435"  />
</g>
<g id="a1_0032"  >
<polygon class="clusterblast-orf" style="stroke-width:1; stroke:black; fill:white; " points="547,90 554,90 559,85 554,80 547,80 547,90 " description="&lt;b&gt;A5694_RS01430&lt;/b&gt;&lt;br&gt;gfo/Idh/MocA family oxidoreductase&lt;br&gt;Location: 23331 - 22354" id="dummy-1_h1_8_32" locus_tag="A5694_RS01430"  />
</g>
<g id="a1_0033"  >
<polygon class="clusterblast-orf" style="stroke-width:1; stroke:black; fill:#15d8ab; " points="559,90 567,90 572,85 567,80 559,80 559,90 " description="&lt;b&gt;A5694_RS01425&lt;/b&gt;&lt;br&gt;galactokinase&lt;br&gt;Location: 22357 - 21374&lt;br&gt;&lt;br&gt;&lt;b&gt;BlastP hit with P773_RS0100555&lt;/b&gt;&lt;br&gt;Percentage identity: 33&lt;br&gt;Percentage coverage: 100&lt;br&gt;BLAST bit score: 179&lt;br&gt;E-value: 5.5e-43" id="dummy-1_h1_8_33" locus_tag="A5694_RS01425"  />
</g>
<g id="a1_0034"  >
<polygon class="clusterblast-orf" style="stroke-width:1; stroke:black; fill:white; " points="572,90 576,90 581,85 576,80 572,80 572,90 " description="&lt;b&gt;A5694_RS01420&lt;/b&gt;&lt;br&gt;nucleotidyl transferase&lt;br&gt;Location: 21377 - 20661" id="dummy-1_h1_8_34" locus_tag="A5694_RS01420"  />
</g>
<g id="a1_0035"  >
<polygon class="clusterblast-orf" style="stroke-width:1; stroke:black; fill:white; " points="581,90 581,90 586,85 581,80 581,80 581,90 " description="&lt;b&gt;A5694_RS01415&lt;/b&gt;&lt;br&gt;hypothetical protein&lt;br&gt;Location: 20657 - 20310" id="dummy-1_h1_8_35" locus_tag="A5694_RS01415"  />
</g>
<g id="a1_0036"  >
<polygon class="clusterblast-orf" style="stroke-width:1; stroke:black; fill:white; " points="586,85 591,80 603,80 603,90 591,90 586,85 " description="&lt;b&gt;A5694_RS01410&lt;/b&gt;&lt;br&gt;hypothetical protein&lt;br&gt;Location: 20324 - 19011" id="dummy-1_h1_8_36" locus_tag="A5694_RS01410"  />
</g>
<g id="a1_0037"  >
<polygon class="clusterblast-orf" style="stroke-width:1; stroke:black; fill:white; " points="605,85 610,80 621,80 621,90 610,90 605,85 " description="&lt;b&gt;A5694_RS01405&lt;/b&gt;&lt;br&gt;O-antigen ligase domain-containing protein&lt;br&gt;Location: 18869 - 17598" id="dummy-1_h1_8_37" locus_tag="A5694_RS01405"  />
</g>
<g id="a1_0038"  >
<polygon class="clusterblast-orf" style="stroke-width:1; stroke:black; fill:white; " points="621,85 626,80 638,80 638,90 626,90 621,85 " description="&lt;b&gt;A5694_RS01400&lt;/b&gt;&lt;br&gt;hypothetical protein&lt;br&gt;Location: 17585 - 16275" id="dummy-1_h1_8_38" locus_tag="A5694_RS01400"  />
</g>
<g id="a1_0039"  >
<polygon class="clusterblast-orf" style="stroke-width:1; stroke:black; fill:white; " points="639,90 641,90 646,85 641,80 639,80 639,90 " description="&lt;b&gt;A5694_RS01395&lt;/b&gt;&lt;br&gt;hypothetical protein&lt;br&gt;Location: 16251 - 15643" id="dummy-1_h1_8_39" locus_tag="A5694_RS01395"  />
</g>
<g id="a1_0040"  >
<polygon class="clusterblast-orf" style="stroke-width:1; stroke:black; fill:white; " points="646,90 655,90 660,85 655,80 646,80 646,90 " description="&lt;b&gt;A5694_RS01390&lt;/b&gt;&lt;br&gt;hypothetical protein&lt;br&gt;Location: 15643 - 14597" id="dummy-1_h1_8_40" locus_tag="A5694_RS01390"  />
</g>
<g id="a1_0041"  >
<polygon class="clusterblast-orf" style="stroke-width:1; stroke:black; fill:white; " points="660,85 665,80 670,80 670,90 665,90 660,85 " description="&lt;b&gt;A5694_RS01385&lt;/b&gt;&lt;br&gt;SGNH/GDSL hydrolase family protein&lt;br&gt;Location: 14572 - 13817" id="dummy-1_h1_8_41" locus_tag="A5694_RS01385"  />
</g>
<g id="a1_0042"  >
<polygon class="clusterblast-orf" style="stroke-width:1; stroke:black; fill:white; " points="670,85 675,80 686,80 686,90 675,90 670,85 " description="&lt;b&gt;A5694_RS01380&lt;/b&gt;&lt;br&gt;hypothetical protein&lt;br&gt;Location: 13820 - 12582" id="dummy-1_h1_8_42" locus_tag="A5694_RS01380"  />
</g>
</svg>
