<svg version="1.1" preserveAspectRatio="none" width="800" y="0" xmlns:xlink="http://www.w3.org/1999/xlink" height="250" x="0" xmlns="http://www.w3.org/2000/svg" viewBox="0 0 800 250"  >
<g label="Query sequence" class="clusterblast-cluster"  >
<text class="clusterblast-acc" y="20" x="5"  >
Query sequence</text>
<line style="stroke-width:1; stroke:grey; " y1="35" x2="778.0" y2="35" x1="10"  />
<polygon class="clusterblast-orf" style="stroke-width:1; stroke:black; fill:white; " points="0,40 4,40 9,35 4,30 0,30 0,40 " description="&lt;b&gt;P773_RS0104210&lt;/b&gt;&lt;br&gt;type I glyceraldehyde-3-phosphate dehydrogenase&lt;br&gt;Location: 770293 - 771301" id="knownclusterblast-4_q0_0_all" locus_tag="P773_RS0104210"  />
<polygon class="clusterblast-orf" style="stroke-width:1; stroke:black; fill:white; " points="9,40 16,40 21,35 16,30 9,30 9,40 " description="&lt;b&gt;P773_RS0104215&lt;/b&gt;&lt;br&gt;phosphoglycerate kinase&lt;br&gt;Location: 771300 - 772479" id="knownclusterblast-4_q1_0_all" locus_tag="P773_RS0104215"  />
<polygon class="clusterblast-orf" style="stroke-width:1; stroke:black; fill:white; " points="21,40 25,40 30,35 25,30 21,30 21,40 " description="&lt;b&gt;P773_RS0104220&lt;/b&gt;&lt;br&gt;fructose-bisphosphate aldolase class I&lt;br&gt;Location: 772480 - 773491" id="knownclusterblast-4_q2_0_all" locus_tag="P773_RS0104220"  />
<polygon class="clusterblast-orf" style="stroke-width:1; stroke:black; fill:white; " points="30,40 31,40 36,35 31,30 30,30 30,40 " description="&lt;b&gt;P773_RS0104225&lt;/b&gt;&lt;br&gt;thiamine phosphate synthase&lt;br&gt;Location: 773477 - 774092" id="knownclusterblast-4_q3_0_all" locus_tag="P773_RS0104225"  />
<polygon class="clusterblast-orf" style="stroke-width:1; stroke:black; fill:white; " points="36,40 36,40 41,35 36,30 36,30 36,40 " description="&lt;b&gt;P773_RS0104230&lt;/b&gt;&lt;br&gt;elongation factor P&lt;br&gt;Location: 774088 - 774649" id="knownclusterblast-4_q4_0_all" locus_tag="P773_RS0104230"  />
<polygon class="clusterblast-orf" style="stroke-width:1; stroke:black; fill:white; " points="42,40 44,40 49,35 44,30 42,30 42,40 " description="&lt;b&gt;P773_RS0104235&lt;/b&gt;&lt;br&gt;inositol monophosphatase&lt;br&gt;Location: 774653 - 775394" id="knownclusterblast-4_q5_0_all" locus_tag="P773_RS0104235"  />
<polygon class="clusterblast-orf" style="stroke-width:1; stroke:black; fill:white; " points="49,40 51,35 49,30 49,40 " description="&lt;b&gt;P773_RS0104240&lt;/b&gt;&lt;br&gt;50S ribosomal protein L31&lt;br&gt;Location: 775429 - 775660" id="knownclusterblast-4_q6_0_all" locus_tag="P773_RS0104240"  />
<polygon class="clusterblast-orf" style="stroke-width:1; stroke:black; fill:white; " points="51,40 52,40 57,35 52,30 51,30 51,40 " description="&lt;b&gt;P773_RS0104245&lt;/b&gt;&lt;br&gt;DUF1013 domain-containing protein&lt;br&gt;Location: 775660 - 776248" id="knownclusterblast-4_q7_0_all" locus_tag="P773_RS0104245"  />
<polygon class="clusterblast-orf" style="stroke-width:1; stroke:black; fill:white; " points="57,40 59,35 57,30 57,40 " description="&lt;b&gt;P773_RS0104250&lt;/b&gt;&lt;br&gt;30S ribosomal protein S21&lt;br&gt;Location: 776301 - 776496" id="knownclusterblast-4_q8_0_all" locus_tag="P773_RS0104250"  />
<polygon class="clusterblast-orf" style="stroke-width:1; stroke:black; fill:#d81515; " points="61,35 66,30 74,30 74,40 66,40 61,35 " description="&lt;b&gt;P773_RS0104260&lt;/b&gt;&lt;br&gt;NAD synthetase&lt;br&gt;Location: 776664 - 778062" id="knownclusterblast-4_q9_0_all" locus_tag="P773_RS0104260"  />
<polygon class="clusterblast-orf" style="stroke-width:1; stroke:black; fill:#15d815; " points="74,35 77,30 77,40 74,35 " description="&lt;b&gt;P773_RS0104265&lt;/b&gt;&lt;br&gt;NAD(P) transhydrogenase subunit alpha&lt;br&gt;Location: 778061 - 778370" id="knownclusterblast-4_q10_0_all" locus_tag="P773_RS0104265"  />
<polygon class="clusterblast-orf" style="stroke-width:1; stroke:black; fill:white; " points="77,35 82,30 88,30 88,40 82,40 77,35 " description="&lt;b&gt;P773_RS0104270&lt;/b&gt;&lt;br&gt;NAD(P) transhydrogenase subunit alpha&lt;br&gt;Location: 778374 - 779463" id="knownclusterblast-4_q11_0_all" locus_tag="P773_RS0104270"  />
<polygon class="clusterblast-orf" style="stroke-width:1; stroke:black; fill:white; " points="88,35 89,30 89,40 88,35 " description="&lt;b&gt;P773_RS07910&lt;/b&gt;&lt;br&gt;aa3-type cytochrome c oxidase subunit IV&lt;br&gt;Location: 779472 - 779583" id="knownclusterblast-4_q12_0_all" locus_tag="P773_RS07910"  />
<polygon class="clusterblast-orf" style="stroke-width:1; stroke:black; fill:white; " points="89,35 90,30 90,40 89,35 " description="&lt;b&gt;P773_RS0104275&lt;/b&gt;&lt;br&gt;50S ribosomal protein L36&lt;br&gt;Location: 779588 - 779714" id="knownclusterblast-4_q13_0_all" locus_tag="P773_RS0104275"  />
<polygon class="clusterblast-orf" style="stroke-width:1; stroke:black; fill:white; " points="92,35 97,30 100,30 100,40 97,40 92,35 " description="&lt;b&gt;P773_RS0104285&lt;/b&gt;&lt;br&gt;ADP-glyceromanno-heptose 6-epimerase&lt;br&gt;Location: 779884 - 780781" id="knownclusterblast-4_q14_0_all" locus_tag="P773_RS0104285"  />
<polygon class="clusterblast-orf" style="stroke-width:1; stroke:black; fill:white; " points="105,35 110,30 121,30 121,40 110,40 105,35 " description="&lt;b&gt;P773_RS0104295&lt;/b&gt;&lt;br&gt;hypothetical protein&lt;br&gt;Location: 781271 - 782957" id="knownclusterblast-4_q15_0_all" locus_tag="P773_RS0104295"  />
<polygon class="clusterblast-orf" style="stroke-width:1; stroke:black; fill:white; " points="122,40 124,40 129,35 124,30 122,30 122,40 " description="&lt;b&gt;P773_RS0104300&lt;/b&gt;&lt;br&gt;hypothetical protein&lt;br&gt;Location: 783055 - 783766" id="knownclusterblast-4_q16_0_all" locus_tag="P773_RS0104300"  />
<polygon class="clusterblast-orf" style="stroke-width:1; stroke:black; fill:white; " points="129,35 134,30 141,30 141,40 134,40 129,35 " description="&lt;b&gt;P773_RS0104305&lt;/b&gt;&lt;br&gt;O-antigen ligase domain-containing protein&lt;br&gt;Location: 783737 - 785006" id="knownclusterblast-4_q17_0_all" locus_tag="P773_RS0104305"  />
<polygon class="clusterblast-orf" style="stroke-width:1; stroke:black; fill:white; " points="141,35 146,30 151,30 151,40 146,40 141,35 " description="&lt;b&gt;P773_RS0104310&lt;/b&gt;&lt;br&gt;hypothetical protein&lt;br&gt;Location: 785023 - 785998" id="knownclusterblast-4_q18_0_all" locus_tag="P773_RS0104310"  />
<polygon class="clusterblast-orf" style="stroke-width:1; stroke:black; fill:white; " points="151,35 156,30 161,30 161,40 156,40 151,35 " description="&lt;b&gt;P773_RS0104315&lt;/b&gt;&lt;br&gt;polysaccharide pyruvyl transferase family protein&lt;br&gt;Location: 786070 - 787045" id="knownclusterblast-4_q19_0_all" locus_tag="P773_RS0104315"  />
<polygon class="clusterblast-orf" style="stroke-width:1; stroke:black; fill:white; " points="161,35 166,30 170,30 170,40 166,40 161,35 " description="&lt;b&gt;P773_RS0104320&lt;/b&gt;&lt;br&gt;hypothetical protein&lt;br&gt;Location: 787069 - 787960" id="knownclusterblast-4_q20_0_all" locus_tag="P773_RS0104320"  />
<polygon class="clusterblast-orf" style="stroke-width:1; stroke:black; fill:white; " points="170,35 175,30 182,30 182,40 175,40 170,35 " description="&lt;b&gt;P773_RS0104325&lt;/b&gt;&lt;br&gt;hypothetical protein&lt;br&gt;Location: 787963 - 789304" id="knownclusterblast-4_q21_0_all" locus_tag="P773_RS0104325"  />
<polygon class="clusterblast-orf" style="stroke-width:1; stroke:black; fill:white; " points="182,35 187,30 189,30 189,40 187,40 182,35 " description="&lt;b&gt;P773_RS0104330&lt;/b&gt;&lt;br&gt;hypothetical protein&lt;br&gt;Location: 789303 - 789951" id="knownclusterblast-4_q22_0_all" locus_tag="P773_RS0104330"  />
<polygon class="clusterblast-orf" style="stroke-width:1; stroke:black; fill:white; " points="189,40 192,40 197,35 192,30 189,30 189,40 " description="&lt;b&gt;P773_RS07855&lt;/b&gt;&lt;br&gt;hypothetical protein&lt;br&gt;Location: 789997 - 790831" id="knownclusterblast-4_q23_0_all" locus_tag="P773_RS07855"  />
<polygon class="clusterblast-orf" style="stroke-width:1; stroke:black; fill:#1515d8; " points="197,40 205,40 210,35 205,30 197,30 197,40 " description="&lt;b&gt;P773_RS0104340&lt;/b&gt;&lt;br&gt;hypothetical protein&lt;br&gt;Location: 790845 - 792162" id="knownclusterblast-4_q24_0_all" locus_tag="P773_RS0104340"  />
<polygon class="clusterblast-orf" style="stroke-width:1; stroke:black; fill:white; " points="210,40 212,40 217,35 212,30 210,30 210,40 " description="&lt;b&gt;P773_RS0104345&lt;/b&gt;&lt;br&gt;hypothetical protein&lt;br&gt;Location: 792161 - 792848" id="knownclusterblast-4_q25_0_all" locus_tag="P773_RS0104345"  />
<polygon class="clusterblast-orf" style="stroke-width:1; stroke:black; fill:white; " points="216,35 221,30 237,30 237,40 221,40 216,35 " description="&lt;b&gt;P773_RS07860&lt;/b&gt;&lt;br&gt;hypothetical protein&lt;br&gt;Location: 792844 - 794932" id="knownclusterblast-4_q26_0_all" locus_tag="P773_RS07860"  />
<polygon class="clusterblast-orf" style="stroke-width:1; stroke:black; fill:#d815d8; " points="237,35 242,30 246,30 246,40 242,40 237,35 " description="&lt;b&gt;P773_RS0104355&lt;/b&gt;&lt;br&gt;hypothetical protein&lt;br&gt;Location: 794928 - 795915" id="knownclusterblast-4_q27_0_all" locus_tag="P773_RS0104355"  />
<polygon class="clusterblast-orf" style="stroke-width:1; stroke:black; fill:white; " points="246,35 251,30 259,30 259,40 251,40 246,35 " description="&lt;b&gt;P773_RS0104360&lt;/b&gt;&lt;br&gt;GNAT family N-acetyltransferase&lt;br&gt;Location: 795918 - 797226" id="knownclusterblast-4_q28_0_all" locus_tag="P773_RS0104360"  />
<polygon class="clusterblast-orf" style="stroke-width:1; stroke:black; fill:white; " points="259,35 264,30 274,30 274,40 264,40 259,35 " description="&lt;b&gt;P773_RS0104365&lt;/b&gt;&lt;br&gt;polysaccharide biosynthesis PFTS motif protein&lt;br&gt;Location: 797222 - 798827" id="knownclusterblast-4_q29_0_all" locus_tag="P773_RS0104365"  />
<polygon class="clusterblast-orf" style="stroke-width:1; stroke:black; fill:white; " points="274,35 279,30 288,30 288,40 279,40 274,35 " description="&lt;b&gt;P773_RS0104370&lt;/b&gt;&lt;br&gt;hypothetical protein&lt;br&gt;Location: 798823 - 800263" id="knownclusterblast-4_q30_0_all" locus_tag="P773_RS0104370"  />
<polygon class="clusterblast-orf" style="stroke-width:1; stroke:black; fill:white; " points="288,40 294,40 299,35 294,30 288,30 288,40 " description="&lt;b&gt;P773_RS0104375&lt;/b&gt;&lt;br&gt;radical SAM protein&lt;br&gt;Location: 800323 - 801376" id="knownclusterblast-4_q31_0_all" locus_tag="P773_RS0104375"  />
<polygon class="clusterblast-orf" style="stroke-width:1; stroke:black; fill:white; " points="299,35 304,30 308,30 308,40 304,40 299,35 " description="&lt;b&gt;P773_RS0104380&lt;/b&gt;&lt;br&gt;pseudaminic acid synthase&lt;br&gt;Location: 801380 - 802400" id="knownclusterblast-4_q32_0_all" locus_tag="P773_RS0104380"  />
<polygon class="clusterblast-orf" style="stroke-width:1; stroke:black; fill:white; " points="309,40 310,40 315,35 310,30 309,30 309,40 " description="&lt;b&gt;P773_RS07865&lt;/b&gt;&lt;br&gt;N-acetyltransferase&lt;br&gt;Location: 802457 - 803084" id="knownclusterblast-4_q33_0_all" locus_tag="P773_RS07865"  />
<polygon class="clusterblast-orf" style="stroke-width:1; stroke:black; fill:white; " points="315,35 320,30 321,30 321,40 320,40 315,35 " description="&lt;b&gt;P773_RS0104390&lt;/b&gt;&lt;br&gt;hypothetical protein&lt;br&gt;Location: 803072 - 803735" id="knownclusterblast-4_q34_0_all" locus_tag="P773_RS0104390"  />
<polygon class="clusterblast-orf" style="stroke-width:1; stroke:black; fill:white; " points="321,35 326,30 328,30 328,40 326,40 321,35 " description="&lt;b&gt;P773_RS0104395&lt;/b&gt;&lt;br&gt;PIG-L family deacetylase&lt;br&gt;Location: 803734 - 804421" id="knownclusterblast-4_q35_0_all" locus_tag="P773_RS0104395"  />
<polygon class="clusterblast-orf" style="stroke-width:1; stroke:black; fill:white; " points="330,40 345,40 350,35 345,30 330,30 330,40 " description="&lt;b&gt;P773_RS0104405&lt;/b&gt;&lt;br&gt;hypothetical protein&lt;br&gt;Location: 804623 - 806732" id="knownclusterblast-4_q36_0_all" locus_tag="P773_RS0104405"  />
<polygon class="clusterblast-orf" style="stroke-width:1; stroke:black; fill:white; " points="350,35 352,30 352,40 350,35 " description="&lt;b&gt;P773_RS0104410&lt;/b&gt;&lt;br&gt;hypothetical protein&lt;br&gt;Location: 806743 - 806929" id="knownclusterblast-4_q37_0_all" locus_tag="P773_RS0104410"  />
<polygon class="clusterblast-orf" style="stroke-width:1; stroke:black; fill:white; " points="352,40 359,40 364,35 359,30 352,30 352,40 " description="&lt;b&gt;P773_RS0104415&lt;/b&gt;&lt;br&gt;NarL family transcriptional regulator&lt;br&gt;Location: 806927 - 808142" id="knownclusterblast-4_q38_0_all" locus_tag="P773_RS0104415"  />
<polygon class="clusterblast-orf" style="stroke-width:1; stroke:black; fill:white; " points="364,40 368,40 373,35 368,30 364,30 364,40 " description="&lt;b&gt;P773_RS0104420&lt;/b&gt;&lt;br&gt;UDP-glucose 4-epimerase GalE&lt;br&gt;Location: 808168 - 809158" id="knownclusterblast-4_q39_0_all" locus_tag="P773_RS0104420"  />
<polygon class="clusterblast-orf" style="stroke-width:1; stroke:black; fill:white; " points="373,40 380,40 385,35 380,30 373,30 373,40 " description="&lt;b&gt;P773_RS0104425&lt;/b&gt;&lt;br&gt;hypothetical protein&lt;br&gt;Location: 809154 - 810399" id="knownclusterblast-4_q40_0_all" locus_tag="P773_RS0104425"  />
<polygon class="clusterblast-orf" style="stroke-width:1; stroke:black; fill:white; " points="386,40 390,35 386,30 386,40 " description="&lt;b&gt;P773_RS0104430&lt;/b&gt;&lt;br&gt;hypothetical protein&lt;br&gt;Location: 810419 - 810905" id="knownclusterblast-4_q41_0_all" locus_tag="P773_RS0104430"  />
<polygon class="clusterblast-orf" style="stroke-width:1; stroke:black; fill:white; " points="390,40 392,40 397,35 392,30 390,30 390,40 " description="&lt;b&gt;P773_RS0104435&lt;/b&gt;&lt;br&gt;hypothetical protein&lt;br&gt;Location: 810883 - 811603" id="knownclusterblast-4_q42_0_all" locus_tag="P773_RS0104435"  />
<polygon class="clusterblast-orf" style="stroke-width:1; stroke:black; fill:white; " points="397,40 403,40 408,35 403,30 397,30 397,40 " description="&lt;b&gt;P773_RS0104440&lt;/b&gt;&lt;br&gt;class I SAM-dependent methyltransferase&lt;br&gt;Location: 811599 - 812781" id="knownclusterblast-4_q43_0_all" locus_tag="P773_RS0104440"  />
<polygon class="clusterblast-orf" style="stroke-width:1; stroke:black; fill:white; " points="408,40 410,40 415,35 410,30 408,30 408,40 " description="&lt;b&gt;P773_RS0104445&lt;/b&gt;&lt;br&gt;hypothetical protein&lt;br&gt;Location: 812780 - 813443" id="knownclusterblast-4_q44_0_all" locus_tag="P773_RS0104445"  />
<polygon class="clusterblast-orf" style="stroke-width:1; stroke:black; fill:white; " points="415,40 424,40 429,35 424,30 415,30 415,40 " description="&lt;b&gt;P773_RS0104450&lt;/b&gt;&lt;br&gt;radical SAM protein&lt;br&gt;Location: 813442 - 814963" id="knownclusterblast-4_q45_0_all" locus_tag="P773_RS0104450"  />
<polygon class="clusterblast-orf" style="stroke-width:1; stroke:black; fill:white; " points="429,40 433,40 438,35 433,30 429,30 429,40 " description="&lt;b&gt;P773_RS0104455&lt;/b&gt;&lt;br&gt;glycosyltransferase&lt;br&gt;Location: 814971 - 815886" id="knownclusterblast-4_q46_0_all" locus_tag="P773_RS0104455"  />
<polygon class="clusterblast-orf" style="stroke-width:1; stroke:black; fill:#d8d815; " points="438,35 443,30 447,30 447,40 443,40 438,35 " description="&lt;b&gt;P773_RS0104460&lt;/b&gt;&lt;br&gt;glucose-1-phosphate thymidylyltransferase&lt;br&gt;Location: 815895 - 816759" id="knownclusterblast-4_q47_0_all" locus_tag="P773_RS0104460"  />
<polygon class="clusterblast-orf" style="stroke-width:1; stroke:black; fill:#15d8d8; " points="446,35 451,30 456,30 456,40 451,40 446,35 " description="&lt;b&gt;P773_RS0104465&lt;/b&gt;&lt;br&gt;dTDP-glucose 4,6-dehydratase&lt;br&gt;Location: 816755 - 817754" id="knownclusterblast-4_q48_0_all" locus_tag="P773_RS0104465"  />
<polygon class="clusterblast-orf" style="stroke-width:1; stroke:black; fill:white; " points="456,35 461,30 466,30 466,40 461,40 456,35 " description="&lt;b&gt;P773_RS0104470&lt;/b&gt;&lt;br&gt;glycosyltransferase family 2 protein&lt;br&gt;Location: 817755 - 818757" id="knownclusterblast-4_q49_0_all" locus_tag="P773_RS0104470"  />
<polygon class="clusterblast-orf" style="stroke-width:1; stroke:black; fill:white; " points="466,35 471,30 476,30 476,40 471,40 466,35 " description="&lt;b&gt;P773_RS0104475&lt;/b&gt;&lt;br&gt;glycosyltransferase family 1 protein&lt;br&gt;Location: 818760 - 819819" id="knownclusterblast-4_q50_0_all" locus_tag="P773_RS0104475"  />
<polygon class="clusterblast-orf" style="stroke-width:1; stroke:black; fill:white; " points="476,35 481,30 491,30 491,40 481,40 476,35 " description="&lt;b&gt;P773_RS0104480&lt;/b&gt;&lt;br&gt;DUF2079 domain-containing protein&lt;br&gt;Location: 819790 - 821332" id="knownclusterblast-4_q51_0_all" locus_tag="P773_RS0104480"  />
<polygon class="clusterblast-orf" style="stroke-width:1; stroke:black; fill:white; " points="490,35 495,30 501,30 501,40 495,40 490,35 " description="&lt;b&gt;P773_RS0104485&lt;/b&gt;&lt;br&gt;hypothetical protein&lt;br&gt;Location: 821324 - 822467" id="knownclusterblast-4_q52_0_all" locus_tag="P773_RS0104485"  />
<polygon class="clusterblast-orf" style="stroke-width:1; stroke:black; fill:white; " points="501,35 506,30 522,30 522,40 506,40 501,35 " description="&lt;b&gt;P773_RS0104490&lt;/b&gt;&lt;br&gt;hypothetical protein&lt;br&gt;Location: 822468 - 824655" id="knownclusterblast-4_q53_0_all" locus_tag="P773_RS0104490"  />
<polygon class="clusterblast-orf" style="stroke-width:1; stroke:black; fill:white; " points="522,35 527,30 540,30 540,40 527,40 522,35 " description="&lt;b&gt;P773_RS0104495&lt;/b&gt;&lt;br&gt;hypothetical protein&lt;br&gt;Location: 824638 - 826480" id="knownclusterblast-4_q54_0_all" locus_tag="P773_RS0104495"  />
<polygon class="clusterblast-orf" style="stroke-width:1; stroke:black; fill:white; " points="540,35 545,30 561,30 561,40 545,40 540,35 " description="&lt;b&gt;P773_RS0104500&lt;/b&gt;&lt;br&gt;hypothetical protein&lt;br&gt;Location: 826472 - 828674" id="knownclusterblast-4_q55_0_all" locus_tag="P773_RS0104500"  />
<polygon class="clusterblast-orf" style="stroke-width:1; stroke:black; fill:white; " points="561,35 566,30 574,30 574,40 566,40 561,35 " description="&lt;b&gt;P773_RS0104505&lt;/b&gt;&lt;br&gt;hypothetical protein&lt;br&gt;Location: 828707 - 829976" id="knownclusterblast-4_q56_0_all" locus_tag="P773_RS0104505"  />
<polygon class="clusterblast-orf" style="stroke-width:1; stroke:black; fill:white; " points="574,35 579,30 579,30 579,40 579,40 574,35 " description="&lt;b&gt;P773_RS0104510&lt;/b&gt;&lt;br&gt;dTDP-4-keto-6-deoxy-D-glucose epimerase&lt;br&gt;Location: 829982 - 830486" id="knownclusterblast-4_q57_0_all" locus_tag="P773_RS0104510"  />
<polygon class="clusterblast-orf" style="stroke-width:1; stroke:black; fill:white; " points="578,35 583,30 589,30 589,40 583,40 578,35 " description="&lt;b&gt;P773_RS0104515&lt;/b&gt;&lt;br&gt;CDP-glucose 4,6-dehydratase&lt;br&gt;Location: 830472 - 831537" id="knownclusterblast-4_q58_0_all" locus_tag="P773_RS0104515"  />
<polygon class="clusterblast-orf" style="stroke-width:1; stroke:black; fill:white; " points="589,35 594,30 599,30 599,40 594,40 589,35 " description="&lt;b&gt;P773_RS0104520&lt;/b&gt;&lt;br&gt;DegT/DnrJ/EryC1/StrS family aminotransferase&lt;br&gt;Location: 831533 - 832655" id="knownclusterblast-4_q59_0_all" locus_tag="P773_RS0104520"  />
<polygon class="clusterblast-orf" style="stroke-width:1; stroke:black; fill:white; " points="599,35 604,30 607,30 607,40 604,40 599,35 " description="&lt;b&gt;P773_RS0104525&lt;/b&gt;&lt;br&gt;glucose-1-phosphate cytidylyltransferase&lt;br&gt;Location: 832648 - 833443" id="knownclusterblast-4_q60_0_all" locus_tag="P773_RS0104525"  />
<polygon class="clusterblast-orf" style="stroke-width:1; stroke:black; fill:white; " points="607,35 612,30 619,30 619,40 612,40 607,35 " description="&lt;b&gt;P773_RS0104530&lt;/b&gt;&lt;br&gt;hypothetical protein&lt;br&gt;Location: 833448 - 834681" id="knownclusterblast-4_q61_0_all" locus_tag="P773_RS0104530"  />
<polygon class="clusterblast-orf" style="stroke-width:1; stroke:black; fill:white; " points="619,35 624,30 627,30 627,40 624,40 619,35 " description="&lt;b&gt;P773_RS0104535&lt;/b&gt;&lt;br&gt;glycosyltransferase family 2 protein&lt;br&gt;Location: 834646 - 835483" id="knownclusterblast-4_q62_0_all" locus_tag="P773_RS0104535"  />
<polygon class="clusterblast-orf" style="stroke-width:1; stroke:black; fill:white; " points="627,35 632,30 636,30 636,40 632,40 627,35 " description="&lt;b&gt;P773_RS07780&lt;/b&gt;&lt;br&gt;hypothetical protein&lt;br&gt;Location: 835487 - 836474" id="knownclusterblast-4_q63_0_all" locus_tag="P773_RS07780"  />
<polygon class="clusterblast-orf" style="stroke-width:1; stroke:black; fill:white; " points="636,35 641,30 645,30 645,40 641,40 636,35 " description="&lt;b&gt;P773_RS0104545&lt;/b&gt;&lt;br&gt;glycosyltransferase family 2 protein&lt;br&gt;Location: 836482 - 837442" id="knownclusterblast-4_q64_0_all" locus_tag="P773_RS0104545"  />
<polygon class="clusterblast-orf" style="stroke-width:1; stroke:black; fill:white; " points="645,35 650,30 653,30 653,40 650,40 645,35 " description="&lt;b&gt;P773_RS0104550&lt;/b&gt;&lt;br&gt;CDP-alcohol phosphatidyltransferase family protein&lt;br&gt;Location: 837438 - 838212" id="knownclusterblast-4_q65_0_all" locus_tag="P773_RS0104550"  />
<polygon class="clusterblast-orf" style="stroke-width:1; stroke:black; fill:white; " points="655,35 659,30 659,40 655,35 " description="&lt;b&gt;P773_RS0104555&lt;/b&gt;&lt;br&gt;hypothetical protein&lt;br&gt;Location: 838383 - 838827" id="knownclusterblast-4_q66_0_all" locus_tag="P773_RS0104555"  />
<polygon class="clusterblast-orf" style="stroke-width:1; stroke:black; fill:white; " points="659,35 664,30 665,30 665,40 664,40 659,35 " description="&lt;b&gt;P773_RS0104560&lt;/b&gt;&lt;br&gt;hypothetical protein&lt;br&gt;Location: 838847 - 839474" id="knownclusterblast-4_q67_0_all" locus_tag="P773_RS0104560"  />
<polygon class="clusterblast-orf" style="stroke-width:1; stroke:black; fill:white; " points="665,35 670,30 674,30 674,40 670,40 665,35 " description="&lt;b&gt;P773_RS0104565&lt;/b&gt;&lt;br&gt;hypothetical protein&lt;br&gt;Location: 839470 - 840394" id="knownclusterblast-4_q68_0_all" locus_tag="P773_RS0104565"  />
<polygon class="clusterblast-orf" style="stroke-width:1; stroke:black; fill:white; " points="674,35 679,30 685,30 685,40 679,40 674,35 " description="&lt;b&gt;P773_RS0104570&lt;/b&gt;&lt;br&gt;glycosyltransferase family 1 protein&lt;br&gt;Location: 840390 - 841590" id="knownclusterblast-4_q69_0_all" locus_tag="P773_RS0104570"  />
<polygon class="clusterblast-orf" style="stroke-width:1; stroke:black; fill:white; " points="686,35 691,30 706,30 706,40 691,40 686,35 " description="&lt;b&gt;P773_RS0104575&lt;/b&gt;&lt;br&gt;hypothetical protein&lt;br&gt;Location: 841631 - 843716" id="knownclusterblast-4_q70_0_all" locus_tag="P773_RS0104575"  />
<polygon class="clusterblast-orf" style="stroke-width:1; stroke:black; fill:white; " points="755,40 762,40 767,35 762,30 755,30 755,40 " description="&lt;b&gt;P773_RS0104600&lt;/b&gt;&lt;br&gt;peptidase M23&lt;br&gt;Location: 848811 - 850104" id="knownclusterblast-4_q71_0_all" locus_tag="P773_RS0104600"  />
<polygon class="clusterblast-orf" style="stroke-width:1; stroke:black; fill:white; " points="767,35 771,30 771,40 767,35 " description="&lt;b&gt;P773_RS0104605&lt;/b&gt;&lt;br&gt;DUF4167 domain-containing protein&lt;br&gt;Location: 850100 - 850535" id="knownclusterblast-4_q72_0_all" locus_tag="P773_RS0104605"  />
<polygon class="clusterblast-orf" style="stroke-width:1; stroke:black; fill:white; " points="771,35 776,30 780,30 780,40 776,40 771,35 " description="&lt;b&gt;P773_RS0104610&lt;/b&gt;&lt;br&gt;peptide chain release factor N(5)-glutamine methyltransferase&lt;br&gt;Location: 850546 - 851389" id="knownclusterblast-4_q73_0_all" locus_tag="P773_RS0104610"  />
</g>
<g label="BGC0000790" class="clusterblast-cluster" description="BGC0000790_c1: O-antigen (16% of genes show similarity), saccharide"  >
<text class="clusterblast-acc" y="70" x="5"  >
<a xlink:href="https://mibig.secondarymetabolites.org/go/BGC0000790/1" target="_blank">BGC0000790</a>:                                                                        O-antigen (16% of genes show similarity), saccharide</text>
<line style="stroke-width:1; stroke:grey; " y1="85" x2="778.0" y2="85" x1="10"  />
</g>
<g id="a4_000"  >
<polygon class="clusterblast-orf" style="stroke-width:1; stroke:black; fill:white; " points="334,85 339,80 344,80 344,90 339,90 334,85 " description="&lt;b&gt;ABK27324.1&lt;/b&gt;&lt;br&gt;GalE&lt;br&gt;Location: 11858 - 10830" id="knownclusterblast-4_all_4_1_0" locus_tag="ABK27324.1"  />
</g>
<g id="a4_001"  >
<polygon class="clusterblast-orf" style="stroke-width:1; stroke:black; fill:white; " points="344,85 349,80 355,80 355,90 349,90 344,85 " description="&lt;b&gt;ABK27323.1&lt;/b&gt;&lt;br&gt;RfpB&lt;br&gt;Location: 10751 - 9630" id="knownclusterblast-4_all_4_1_1" locus_tag="ABK27323.1"  />
</g>
<g id="a4_002"  >
<polygon class="clusterblast-orf" style="stroke-width:1; stroke:black; fill:white; " points="357,85 362,80 367,80 367,90 362,90 357,85 " description="&lt;b&gt;ABK27322.1&lt;/b&gt;&lt;br&gt;WbtF&lt;br&gt;Location: 9444 - 8353" id="knownclusterblast-4_all_4_1_2" locus_tag="ABK27322.1"  />
</g>
<g id="a4_003"  >
<polygon class="clusterblast-orf" style="stroke-width:1; stroke:black; fill:white; " points="368,85 373,80 379,80 379,90 373,90 368,85 " description="&lt;b&gt;ABK27321.1&lt;/b&gt;&lt;br&gt;Wzy&lt;br&gt;Location: 8350 - 7202" id="knownclusterblast-4_all_4_1_3" locus_tag="ABK27321.1"  />
</g>
<g id="a4_004"  >
<polygon class="clusterblast-orf" style="stroke-width:1; stroke:black; fill:white; " points="379,85 384,80 387,80 387,90 384,90 379,85 " description="&lt;b&gt;ABK27320.1&lt;/b&gt;&lt;br&gt;WbtE&lt;br&gt;Location: 7202 - 6312" id="knownclusterblast-4_all_4_1_4" locus_tag="ABK27320.1"  />
</g>
<g id="a4_005"  >
<polygon class="clusterblast-orf" style="stroke-width:1; stroke:black; fill:white; " points="387,85 392,80 397,80 397,90 392,90 387,85 " description="&lt;b&gt;ABK27319.1&lt;/b&gt;&lt;br&gt;WbtD&lt;br&gt;Location: 6309 - 5323" id="knownclusterblast-4_all_4_1_5" locus_tag="ABK27319.1"  />
</g>
<g id="a4_006"  >
<polygon class="clusterblast-orf" style="stroke-width:1; stroke:black; fill:white; " points="397,85 402,80 409,80 409,90 402,90 397,85 " description="&lt;b&gt;ABK27318.1&lt;/b&gt;&lt;br&gt;Wzx&lt;br&gt;Location: 5319 - 4054" id="knownclusterblast-4_all_4_1_6" locus_tag="ABK27318.1"  />
</g>
<g id="a4_007"  >
<polygon class="clusterblast-orf" style="stroke-width:1; stroke:black; fill:white; " points="409,85 414,80 419,80 419,90 414,90 409,85 " description="&lt;b&gt;ABK27317.1&lt;/b&gt;&lt;br&gt;WbtC&lt;br&gt;Location: 4066 - 2960" id="knownclusterblast-4_all_4_1_7" locus_tag="ABK27317.1"  />
</g>
<g id="a4_008"  >
<polygon class="clusterblast-orf" style="stroke-width:1; stroke:black; fill:white; " points="419,85 424,80 425,80 425,90 424,90 419,85 " description="&lt;b&gt;ABK27316.1&lt;/b&gt;&lt;br&gt;WbtB&lt;br&gt;Location: 2948 - 2415" id="knownclusterblast-4_all_4_1_8" locus_tag="ABK27316.1"  />
</g>
<g id="a4_009"  >
<polygon class="clusterblast-orf" style="stroke-width:1; stroke:black; fill:white; " points="425,85 428,80 428,90 425,85 " description="&lt;b&gt;ABK27315.1&lt;/b&gt;&lt;br&gt;WbtA&lt;br&gt;Location: 2422 - 2015" id="knownclusterblast-4_all_4_1_9" locus_tag="ABK27315.1"  />
</g>
<g id="a4_0010"  >
<polygon class="clusterblast-orf" style="stroke-width:1; stroke:black; fill:#d8d815; " points="428,85 433,80 437,80 437,90 433,90 428,85 " description="&lt;b&gt;ABK27314.1&lt;/b&gt;&lt;br&gt;RfbA&lt;br&gt;Location: 2022 - 1150&lt;br&gt;&lt;br&gt;&lt;b&gt;BlastP hit with P773_RS0104460&lt;/b&gt;&lt;br&gt;Percentage identity: 46&lt;br&gt;Percentage coverage: 100&lt;br&gt;BLAST bit score: 253&lt;br&gt;E-value: 4.7e-67" id="knownclusterblast-4_all_4_1_10" locus_tag="ABK27314.1"  />
</g>
<g id="a4_0011"  >
<polygon class="clusterblast-orf" style="stroke-width:1; stroke:black; fill:#15d8d8; " points="437,85 442,80 445,80 445,90 442,90 437,85 " description="&lt;b&gt;ABK27313.1&lt;/b&gt;&lt;br&gt;RfbB&lt;br&gt;Location: 1153 - 269&lt;br&gt;&lt;br&gt;&lt;b&gt;BlastP hit with P773_RS0104465&lt;/b&gt;&lt;br&gt;Percentage identity: 48&lt;br&gt;Percentage coverage: 83&lt;br&gt;BLAST bit score: 253&lt;br&gt;E-value: 4.2e-67" id="knownclusterblast-4_all_4_1_11" locus_tag="ABK27313.1"  />
</g>
<g label="BGC0001747" class="clusterblast-cluster" description="BGC0001747_c1: Pseudaminic acid (22% of genes show similarity), other"  >
<text class="clusterblast-acc" y="120" x="5"  >
<a xlink:href="https://mibig.secondarymetabolites.org/go/BGC0001747/1" target="_blank">BGC0001747</a>:                                                                 Pseudaminic acid (22% of genes show similarity), other</text>
<line style="stroke-width:1; stroke:grey; " y1="135" x2="778.0" y2="135" x1="10"  />
</g>
<g id="a4_000"  >
<polygon class="clusterblast-orf" style="stroke-width:1; stroke:black; fill:#d815d8; " points="336,140 341,140 346,135 341,130 336,130 336,140 " description="&lt;b&gt;Tanf_01185&lt;/b&gt;&lt;br&gt;UDP-N-acetylglucosamine 4,6-dehydratase&lt;br&gt;Location: 1 - 1020&lt;br&gt;&lt;br&gt;&lt;b&gt;BlastP hit with P773_RS0104355&lt;/b&gt;&lt;br&gt;Percentage identity: 50&lt;br&gt;Percentage coverage: 88&lt;br&gt;BLAST bit score: 257&lt;br&gt;E-value: 3.7e-68" id="knownclusterblast-4_all_4_2_0" locus_tag="Tanf_01185"  />
</g>
<g id="a4_001"  >
<polygon class="clusterblast-orf" style="stroke-width:1; stroke:black; fill:white; " points="346,140 352,140 357,135 352,130 346,130 346,140 " description="&lt;b&gt;Tanf_01190&lt;/b&gt;&lt;br&gt;pyridoxal-5'-phosphate-dependent protein&lt;br&gt;Location: 1020 - 2183" id="knownclusterblast-4_all_4_2_1" locus_tag="Tanf_01190"  />
</g>
<g id="a4_002"  >
<polygon class="clusterblast-orf" style="stroke-width:1; stroke:black; fill:white; " points="358,140 362,140 367,135 362,130 358,130 358,140 " description="&lt;b&gt;Tanf_01195&lt;/b&gt;&lt;br&gt;hypothetical protein&lt;br&gt;Location: 2324 - 3190" id="knownclusterblast-4_all_4_2_2" locus_tag="Tanf_01195"  />
</g>
<g id="a4_003"  >
<polygon class="clusterblast-orf" style="stroke-width:1; stroke:black; fill:white; " points="367,140 369,140 374,135 369,130 367,130 367,140 " description="&lt;b&gt;Tanf_01200&lt;/b&gt;&lt;br&gt;LPS biosynthesis protein&lt;br&gt;Location: 3192 - 3959" id="knownclusterblast-4_all_4_2_3" locus_tag="Tanf_01200"  />
</g>
<g id="a4_004"  >
<polygon class="clusterblast-orf" style="stroke-width:1; stroke:black; fill:#1515d8; " points="374,140 382,140 387,135 382,130 374,130 374,140 " description="&lt;b&gt;Tanf_01205&lt;/b&gt;&lt;br&gt;aminotransferase class III&lt;br&gt;Location: 3965 - 5269&lt;br&gt;&lt;br&gt;&lt;b&gt;BlastP hit with P773_RS0104340&lt;/b&gt;&lt;br&gt;Percentage identity: 47&lt;br&gt;Percentage coverage: 99&lt;br&gt;BLAST bit score: 399&lt;br&gt;E-value: 6.2e-111" id="knownclusterblast-4_all_4_2_4" locus_tag="Tanf_01205"  />
</g>
<g id="a4_005"  >
<polygon class="clusterblast-orf" style="stroke-width:1; stroke:black; fill:white; " points="400,140 404,135 400,130 400,140 " description="&lt;b&gt;Tanf_01220&lt;/b&gt;&lt;br&gt;lactoylglutathione lyase&lt;br&gt;Location: 6654 - 7055" id="knownclusterblast-4_all_4_2_5" locus_tag="Tanf_01220"  />
</g>
<g id="a4_006"  >
<polygon class="clusterblast-orf" style="stroke-width:1; stroke:black; fill:white; " points="404,140 414,140 419,135 414,130 404,130 404,140 " description="&lt;b&gt;Tanf_01225&lt;/b&gt;&lt;br&gt;hypothetical protein&lt;br&gt;Location: 7107 - 8690" id="knownclusterblast-4_all_4_2_6" locus_tag="Tanf_01225"  />
</g>
<g id="a4_007"  >
<polygon class="clusterblast-orf" style="stroke-width:1; stroke:black; fill:white; " points="419,140 422,135 419,130 419,140 " description="&lt;b&gt;Tanf_01230&lt;/b&gt;&lt;br&gt;acyl carrier protein&lt;br&gt;Location: 8696 - 8914" id="knownclusterblast-4_all_4_2_7" locus_tag="Tanf_01230"  />
</g>
<g id="a4_008"  >
<polygon class="clusterblast-orf" style="stroke-width:1; stroke:black; fill:white; " points="433,140 438,140 443,135 438,130 433,130 433,140 " description="&lt;b&gt;Tanf_01240&lt;/b&gt;&lt;br&gt;N-acetylneuraminate synthase&lt;br&gt;Location: 10146 - 11156" id="knownclusterblast-4_all_4_2_8" locus_tag="Tanf_01240"  />
</g>
<g label="BGC0001692" class="clusterblast-cluster" description="BGC0001692_c1: Nematophin (12% of genes show similarity), nrps"  >
<text class="clusterblast-acc" y="170" x="5"  >
<a xlink:href="https://mibig.secondarymetabolites.org/go/BGC0001692/1" target="_blank">BGC0001692</a>:                                                                       Nematophin (12% of genes show similarity), nrps</text>
<line style="stroke-width:1; stroke:grey; " y1="185" x2="778.0" y2="185" x1="10"  />
</g>
<g id="a4_000"  >
<polygon class="clusterblast-orf" style="stroke-width:1; stroke:black; fill:white; " points="231,185 236,180 240,180 240,190 236,190 231,185 " description="&lt;b&gt;XNC1_RS09450&lt;/b&gt;&lt;br&gt;hypothetical protein&lt;br&gt;Location: 32914 - 32021" id="knownclusterblast-4_all_4_3_0" locus_tag="XNC1_RS09450"  />
</g>
<g id="a4_001"  >
<polygon class="clusterblast-orf" style="stroke-width:1; stroke:black; fill:white; " points="242,190 245,190 250,185 245,180 242,180 242,190 " description="&lt;b&gt;XNC1_RS09445&lt;/b&gt;&lt;br&gt;fumarate/nitrate reduction transcriptional regulator Fnr&lt;br&gt;Location: 31755 - 30991" id="knownclusterblast-4_all_4_3_1" locus_tag="XNC1_RS09445"  />
</g>
<g id="a4_002"  >
<polygon class="clusterblast-orf" style="stroke-width:1; stroke:black; fill:white; " points="251,190 255,190 260,185 255,180 251,180 251,190 " description="&lt;b&gt;XNC1_RS09440&lt;/b&gt;&lt;br&gt;universal stress protein UspE&lt;br&gt;Location: 30863 - 29919" id="knownclusterblast-4_all_4_3_2" locus_tag="XNC1_RS09440"  />
</g>
<g id="a4_003"  >
<polygon class="clusterblast-orf" style="stroke-width:1; stroke:black; fill:white; " points="261,185 266,180 269,180 269,190 266,190 261,185 " description="&lt;b&gt;XNC1_RS09435&lt;/b&gt;&lt;br&gt;hypothetical protein&lt;br&gt;Location: 29851 - 28988" id="knownclusterblast-4_all_4_3_3" locus_tag="XNC1_RS09435"  />
</g>
<g id="a4_004"  >
<polygon class="clusterblast-orf" style="stroke-width:1; stroke:black; fill:white; " points="270,185 275,180 279,180 279,190 275,190 270,185 " description="&lt;b&gt;XNC1_RS09430&lt;/b&gt;&lt;br&gt;fatty acid desaturase&lt;br&gt;Location: 28905 - 27973" id="knownclusterblast-4_all_4_3_4" locus_tag="XNC1_RS09430"  />
</g>
<g id="a4_005"  >
<polygon class="clusterblast-orf" style="stroke-width:1; stroke:black; fill:white; " points="280,185 285,180 290,180 290,190 285,190 280,185 " description="&lt;b&gt;XNC1_RS09425&lt;/b&gt;&lt;br&gt;amidinotransferase&lt;br&gt;Location: 27861 - 26770" id="knownclusterblast-4_all_4_3_5" locus_tag="XNC1_RS09425"  />
</g>
<g id="a4_006"  >
<polygon class="clusterblast-orf" style="stroke-width:1; stroke:black; fill:white; " points="292,185 297,180 301,180 301,190 297,190 292,185 " description="&lt;b&gt;XNC1_RS09420&lt;/b&gt;&lt;br&gt;DMT family transporter&lt;br&gt;Location: 26565 - 25687" id="knownclusterblast-4_all_4_3_6" locus_tag="XNC1_RS09420"  />
</g>
<g id="a4_007"  >
<polygon class="clusterblast-orf" style="stroke-width:1; stroke:black; fill:white; " points="303,185 308,180 313,180 313,190 308,190 303,185 " description="&lt;b&gt;XNC1_RS09415&lt;/b&gt;&lt;br&gt;integrase&lt;br&gt;Location: 25402 - 24386" id="knownclusterblast-4_all_4_3_7" locus_tag="XNC1_RS09415"  />
</g>
<g id="a4_008"  >
<polygon class="clusterblast-orf" style="stroke-width:1; stroke:black; fill:white; " points="318,185 323,180 358,180 358,190 323,190 318,185 " description="&lt;b&gt;XNC1_RS09410&lt;/b&gt;&lt;br&gt;non-ribosomal peptide synthetase&lt;br&gt;Location: 23926 - 19715" id="knownclusterblast-4_all_4_3_8" locus_tag="XNC1_RS09410"  />
</g>
<g id="a4_009"  >
<polygon class="clusterblast-orf" style="stroke-width:1; stroke:black; fill:white; " points="358,185 362,180 362,190 358,185 " description="&lt;b&gt;XNC1_RS21355&lt;/b&gt;&lt;br&gt;hypothetical protein&lt;br&gt;Location: 19695 - 19285" id="knownclusterblast-4_all_4_3_9" locus_tag="XNC1_RS21355"  />
</g>
<g id="a4_0010"  >
<polygon class="clusterblast-orf" style="stroke-width:1; stroke:black; fill:white; " points="362,190 366,185 362,180 362,190 " description="&lt;b&gt;XNC1_RS22245&lt;/b&gt;&lt;br&gt;adenylate kinase&lt;br&gt;Location: 19333 - 18904" id="knownclusterblast-4_all_4_3_10" locus_tag="XNC1_RS22245"  />
</g>
<g id="a4_0011"  >
<polygon class="clusterblast-orf" style="stroke-width:1; stroke:black; fill:white; " points="367,185 372,180 424,180 424,190 372,190 367,185 " description="&lt;b&gt;XNC1_RS09395&lt;/b&gt;&lt;br&gt;non-ribosomal peptide synthetase&lt;br&gt;Location: 18828 - 12832" id="knownclusterblast-4_all_4_3_11" locus_tag="XNC1_RS09395"  />
</g>
<g id="a4_0012"  >
<polygon class="clusterblast-orf" style="stroke-width:1; stroke:black; fill:white; " points="424,185 429,180 469,180 469,190 429,190 424,185 " description="&lt;b&gt;XNC1_RS09390&lt;/b&gt;&lt;br&gt;non-ribosomal peptide synthetase&lt;br&gt;Location: 12835 - 8171" id="knownclusterblast-4_all_4_3_12" locus_tag="XNC1_RS09390"  />
</g>
<g id="a4_0013"  >
<polygon class="clusterblast-orf" style="stroke-width:1; stroke:black; fill:white; " points="469,185 474,180 514,180 514,190 474,190 469,185 " description="&lt;b&gt;XNC1_RS20595&lt;/b&gt;&lt;br&gt;non-ribosomal peptide synthetase&lt;br&gt;Location: 8174 - 3492" id="knownclusterblast-4_all_4_3_13" locus_tag="XNC1_RS20595"  />
</g>
<g id="a4_0014"  >
<polygon class="clusterblast-orf" style="stroke-width:1; stroke:black; fill:#d81515; " points="520,185 525,180 533,180 533,190 525,190 520,185 " description="&lt;b&gt;XNC1_RS09380&lt;/b&gt;&lt;br&gt;Re/Si-specific NAD(P)(+) transhydrogenase subunit beta&lt;br&gt;Location: 2932 - 1544&lt;br&gt;&lt;br&gt;&lt;b&gt;BlastP hit with P773_RS0104260&lt;/b&gt;&lt;br&gt;Percentage identity: 51&lt;br&gt;Percentage coverage: 99&lt;br&gt;BLAST bit score: 421&lt;br&gt;E-value: 1.6e-117" id="knownclusterblast-4_all_4_3_14" locus_tag="XNC1_RS09380"  />
</g>
<g id="a4_0015"  >
<polygon class="clusterblast-orf" style="stroke-width:1; stroke:black; fill:#15d815; " points="533,185 538,180 548,180 548,190 538,190 533,185 " description="&lt;b&gt;XNC1_RS09375&lt;/b&gt;&lt;br&gt;Re/Si-specific NAD(P)(+) transhydrogenase subunit alpha&lt;br&gt;Location: 1533 - 1&lt;br&gt;&lt;br&gt;&lt;b&gt;BlastP hit with P773_RS0104265&lt;/b&gt;&lt;br&gt;Percentage identity: 55&lt;br&gt;Percentage coverage: 90&lt;br&gt;BLAST bit score: 93&lt;br&gt;E-value: 1.7e-19" id="knownclusterblast-4_all_4_3_15" locus_tag="XNC1_RS09375"  />
</g>
<g label="BGC0001131" class="clusterblast-cluster" description="BGC0001131_c1: Ambactin (25% of genes show similarity), nrps"  >
<text class="clusterblast-acc" y="220" x="5"  >
<a xlink:href="https://mibig.secondarymetabolites.org/go/BGC0001131/1" target="_blank">BGC0001131</a>:                                                                         Ambactin (25% of genes show similarity), nrps</text>
<line style="stroke-width:1; stroke:grey; " y1="235" x2="778.0" y2="235" x1="10"  />
</g>
<g id="a4_000"  >
<polygon class="clusterblast-orf" style="stroke-width:1; stroke:black; fill:white; " points="248,240 248,240 253,235 248,230 248,230 248,240 " description="&lt;b&gt;Xmir_01409&lt;/b&gt;&lt;br&gt;ATPase AAA&lt;br&gt;Location: 29471 - 28974" id="knownclusterblast-4_all_4_4_0" locus_tag="Xmir_01409"  />
</g>
<g id="a4_001"  >
<polygon class="clusterblast-orf" style="stroke-width:1; stroke:black; fill:white; " points="253,235 258,230 258,230 258,240 258,240 253,235 " description="&lt;b&gt;Xmir_01408&lt;/b&gt;&lt;br&gt;dITP/XTP pyrophosphatase&lt;br&gt;Location: 28957 - 28370" id="knownclusterblast-4_all_4_4_1" locus_tag="Xmir_01408"  />
</g>
<g id="a4_002"  >
<polygon class="clusterblast-orf" style="stroke-width:1; stroke:black; fill:white; " points="262,235 267,230 454,230 454,240 267,240 262,235 " description="&lt;b&gt;Xmir_01407&lt;/b&gt;&lt;br&gt;Amino acid adenylation&lt;br&gt;Location: 27977 - 7989" id="knownclusterblast-4_all_4_4_2" locus_tag="Xmir_01407"  />
</g>
<g id="a4_003"  >
<polygon class="clusterblast-orf" style="stroke-width:1; stroke:black; fill:white; " points="459,240 466,240 471,235 466,230 459,230 459,240 " description="&lt;b&gt;Xmir_01406&lt;/b&gt;&lt;br&gt;aminoglycosides/tetracycline-transport integral membrane protein&lt;br&gt;Location: 7494 - 6265" id="knownclusterblast-4_all_4_4_3" locus_tag="Xmir_01406"  />
</g>
<g id="a4_004"  >
<polygon class="clusterblast-orf" style="stroke-width:1; stroke:black; fill:#d81515; " points="472,235 477,230 486,230 486,240 477,240 472,235 " description="&lt;b&gt;Xmir_01405&lt;/b&gt;&lt;br&gt;NAD transhydrogenase subunit beta&lt;br&gt;Location: 6137 - 4734&lt;br&gt;&lt;br&gt;&lt;b&gt;BlastP hit with P773_RS0104260&lt;/b&gt;&lt;br&gt;Percentage identity: 51&lt;br&gt;Percentage coverage: 99&lt;br&gt;BLAST bit score: 419&lt;br&gt;E-value: 6.2e-117" id="knownclusterblast-4_all_4_4_4" locus_tag="Xmir_01405"  />
</g>
<g id="a4_005"  >
<polygon class="clusterblast-orf" style="stroke-width:1; stroke:black; fill:#15d815; " points="486,235 491,230 501,230 501,240 491,240 486,235 " description="&lt;b&gt;Xmir_01404&lt;/b&gt;&lt;br&gt;NAD transhydrogenase subunit alpha&lt;br&gt;Location: 4723 - 3185&lt;br&gt;&lt;br&gt;&lt;b&gt;BlastP hit with P773_RS0104265&lt;/b&gt;&lt;br&gt;Percentage identity: 57&lt;br&gt;Percentage coverage: 90&lt;br&gt;BLAST bit score: 93&lt;br&gt;E-value: 2.2e-19" id="knownclusterblast-4_all_4_4_5" locus_tag="Xmir_01404"  />
</g>
<g id="a4_006"  >
<polygon class="clusterblast-orf" style="stroke-width:1; stroke:black; fill:white; " points="504,240 509,240 514,235 509,230 504,230 504,240 " description="&lt;b&gt;Xmir_01403&lt;/b&gt;&lt;br&gt;hypothetical protein&lt;br&gt;Location: 2794 - 1841" id="knownclusterblast-4_all_4_4_6" locus_tag="Xmir_01403"  />
</g>
<g id="a4_007"  >
<polygon class="clusterblast-orf" style="stroke-width:1; stroke:black; fill:white; " points="517,240 526,240 531,235 526,230 517,230 517,240 " description="&lt;b&gt;Xmir_01402&lt;/b&gt;&lt;br&gt;putative cadaverine/lysine antiporter&lt;br&gt;Location: 1470 - 1" id="knownclusterblast-4_all_4_4_7" locus_tag="Xmir_01402"  />
</g>
</svg>
