<svg version="1.1" preserveAspectRatio="none" width="800" y="0" xmlns:xlink="http://www.w3.org/1999/xlink" height="50" x="0" xmlns="http://www.w3.org/2000/svg" viewBox="0 0 800 50"  >
<g label="Query sequence" class="clusterblast-cluster"  >
<text class="clusterblast-acc" y="20" x="5"  >
Query sequence</text>
<line style="stroke-width:1; stroke:grey; " y1="35" x2="778.0" y2="35" x1="10"  />
<polygon class="clusterblast-orf" style="stroke-width:1; stroke:black; fill:white; " points="0,35 5,30 8,30 8,40 5,40 0,35 " description="&lt;b&gt;P773_RS0105755&lt;/b&gt;&lt;br&gt;EVE domain-containing protein&lt;br&gt;Location: 1063773 - 1064187" id="knownclusterblast-6_q0_0_all" locus_tag="P773_RS0105755"  />
<polygon class="clusterblast-orf" style="stroke-width:1; stroke:black; fill:white; " points="8,35 13,30 29,30 29,40 13,40 8,35 " description="&lt;b&gt;P773_RS0105760&lt;/b&gt;&lt;br&gt;tRNA (adenosine(37)-N6)-threonylcarbamoyltransferase complex transferase subunit TsaD&lt;br&gt;Location: 1064186 - 1065260" id="knownclusterblast-6_q1_0_all" locus_tag="P773_RS0105760"  />
<polygon class="clusterblast-orf" style="stroke-width:1; stroke:black; fill:white; " points="30,40 43,40 48,35 43,30 30,30 30,40 " description="&lt;b&gt;P773_RS0105765&lt;/b&gt;&lt;br&gt;hydroxymethylbilane synthase&lt;br&gt;Location: 1065316 - 1066234" id="knownclusterblast-6_q2_0_all" locus_tag="P773_RS0105765"  />
<polygon class="clusterblast-orf" style="stroke-width:1; stroke:black; fill:white; " points="48,40 57,40 62,35 57,30 48,30 48,40 " description="&lt;b&gt;P773_RS0105770&lt;/b&gt;&lt;br&gt;uroporphyrinogen-III synthase&lt;br&gt;Location: 1066235 - 1066934" id="knownclusterblast-6_q3_0_all" locus_tag="P773_RS0105770"  />
<polygon class="clusterblast-orf" style="stroke-width:1; stroke:black; fill:white; " points="62,40 78,40 83,35 78,30 62,30 62,40 " description="&lt;b&gt;P773_RS0105775&lt;/b&gt;&lt;br&gt;mechanosensitive ion channel family protein&lt;br&gt;Location: 1066936 - 1068022" id="knownclusterblast-6_q4_0_all" locus_tag="P773_RS0105775"  />
<polygon class="clusterblast-orf" style="stroke-width:1; stroke:black; fill:white; " points="83,40 84,40 89,35 84,30 83,30 83,40 " description="&lt;b&gt;P773_RS0105780&lt;/b&gt;&lt;br&gt;YggT family protein&lt;br&gt;Location: 1068018 - 1068309" id="knownclusterblast-6_q5_0_all" locus_tag="P773_RS0105780"  />
<polygon class="clusterblast-orf" style="stroke-width:1; stroke:black; fill:white; " points="89,40 101,40 106,35 101,30 89,30 89,40 " description="&lt;b&gt;P773_RS0105785&lt;/b&gt;&lt;br&gt;bifunctional 5,10-methylene-tetrahydrofolate dehydrogenase/5,10-methylene-tetrahydrofolate cyclohydrolase&lt;br&gt;Location: 1068318 - 1069164" id="knownclusterblast-6_q6_0_all" locus_tag="P773_RS0105785"  />
<polygon class="clusterblast-orf" style="stroke-width:1; stroke:black; fill:white; " points="107,40 111,35 107,30 107,40 " description="&lt;b&gt;P773_RS0105790&lt;/b&gt;&lt;br&gt;hypothetical protein&lt;br&gt;Location: 1069201 - 1069405" id="knownclusterblast-6_q7_0_all" locus_tag="P773_RS0105790"  />
<polygon class="clusterblast-orf" style="stroke-width:1; stroke:black; fill:white; " points="111,40 111,40 116,35 111,30 111,30 111,40 " description="&lt;b&gt;P773_RS0105795&lt;/b&gt;&lt;br&gt;hypothetical protein&lt;br&gt;Location: 1069408 - 1069675" id="knownclusterblast-6_q8_0_all" locus_tag="P773_RS0105795"  />
<polygon class="clusterblast-orf" style="stroke-width:1; stroke:black; fill:white; " points="116,35 121,30 134,30 134,40 121,40 116,35 " description="&lt;b&gt;P773_RS0105800&lt;/b&gt;&lt;br&gt;membrane protein&lt;br&gt;Location: 1069671 - 1070574" id="knownclusterblast-6_q9_0_all" locus_tag="P773_RS0105800"  />
<polygon class="clusterblast-orf" style="stroke-width:1; stroke:black; fill:white; " points="135,35 140,30 154,30 154,40 140,40 135,35 " description="&lt;b&gt;P773_RS0105805&lt;/b&gt;&lt;br&gt;MBL fold metallo-hydrolase&lt;br&gt;Location: 1070641 - 1071625" id="knownclusterblast-6_q10_0_all" locus_tag="P773_RS0105805"  />
<polygon class="clusterblast-orf" style="stroke-width:1; stroke:black; fill:white; " points="154,35 159,30 176,30 176,40 159,40 154,35 " description="&lt;b&gt;P773_RS0105810&lt;/b&gt;&lt;br&gt;PQQ-dependent sugar dehydrogenase&lt;br&gt;Location: 1071628 - 1072726" id="knownclusterblast-6_q11_0_all" locus_tag="P773_RS0105810"  />
<polygon class="clusterblast-orf" style="stroke-width:1; stroke:black; fill:white; " points="176,35 181,30 190,30 190,40 181,40 176,35 " description="&lt;b&gt;P773_RS0105815&lt;/b&gt;&lt;br&gt;short-chain dehydrogenase&lt;br&gt;Location: 1072700 - 1073411" id="knownclusterblast-6_q12_0_all" locus_tag="P773_RS0105815"  />
<polygon class="clusterblast-orf" style="stroke-width:1; stroke:black; fill:white; " points="190,40 214,40 219,35 214,30 190,30 190,40 " description="&lt;b&gt;P773_RS0105820&lt;/b&gt;&lt;br&gt;cryptochrome/photolyase family protein&lt;br&gt;Location: 1073438 - 1074929" id="knownclusterblast-6_q13_0_all" locus_tag="P773_RS0105820"  />
<polygon class="clusterblast-orf" style="stroke-width:1; stroke:black; fill:white; " points="219,40 222,35 219,30 219,40 " description="&lt;b&gt;P773_RS07920&lt;/b&gt;&lt;br&gt;DUF2256 domain-containing protein&lt;br&gt;Location: 1074928 - 1075051" id="knownclusterblast-6_q14_0_all" locus_tag="P773_RS07920"  />
<polygon class="clusterblast-orf" style="stroke-width:1; stroke:black; fill:white; " points="222,40 225,40 230,35 225,30 222,30 222,40 " description="&lt;b&gt;P773_RS0105830&lt;/b&gt;&lt;br&gt;DedA family protein&lt;br&gt;Location: 1075047 - 1075464" id="knownclusterblast-6_q15_0_all" locus_tag="P773_RS0105830"  />
<polygon class="clusterblast-orf" style="stroke-width:1; stroke:black; fill:white; " points="230,40 239,40 244,35 239,30 230,30 230,40 " description="&lt;b&gt;P773_RS0105835&lt;/b&gt;&lt;br&gt;type 1 glutamine amidotransferase&lt;br&gt;Location: 1075467 - 1076187" id="knownclusterblast-6_q16_0_all" locus_tag="P773_RS0105835"  />
<polygon class="clusterblast-orf" style="stroke-width:1; stroke:black; fill:white; " points="244,40 248,35 244,30 244,40 " description="&lt;b&gt;P773_RS0105840&lt;/b&gt;&lt;br&gt;hypothetical protein&lt;br&gt;Location: 1076183 - 1076405" id="knownclusterblast-6_q17_0_all" locus_tag="P773_RS0105840"  />
<polygon class="clusterblast-orf" style="stroke-width:1; stroke:black; fill:white; " points="249,40 287,40 292,35 287,30 249,30 249,40 " description="&lt;b&gt;P773_RS0105845&lt;/b&gt;&lt;br&gt;ammonium transporter&lt;br&gt;Location: 1076452 - 1078600" id="knownclusterblast-6_q18_0_all" locus_tag="P773_RS0105845"  />
<polygon class="clusterblast-orf" style="stroke-width:1; stroke:black; fill:white; " points="292,35 297,30 315,30 315,40 297,40 292,35 " description="&lt;b&gt;P773_RS0105850&lt;/b&gt;&lt;br&gt;deoxyribodipyrimidine photo-lyase&lt;br&gt;Location: 1078630 - 1079770" id="knownclusterblast-6_q19_0_all" locus_tag="P773_RS0105850"  />
<polygon class="clusterblast-orf" style="stroke-width:1; stroke:black; fill:white; " points="315,35 320,30 322,30 322,40 320,40 315,35 " description="&lt;b&gt;P773_RS0105855&lt;/b&gt;&lt;br&gt;phosphate starvation protein PhoH&lt;br&gt;Location: 1079776 - 1080157" id="knownclusterblast-6_q20_0_all" locus_tag="P773_RS0105855"  />
<polygon class="clusterblast-orf" style="stroke-width:1; stroke:black; fill:white; " points="322,35 327,30 331,30 331,40 327,40 322,35 " description="&lt;b&gt;P773_RS0105860&lt;/b&gt;&lt;br&gt;hypothetical protein&lt;br&gt;Location: 1080156 - 1080615" id="knownclusterblast-6_q21_0_all" locus_tag="P773_RS0105860"  />
<polygon class="clusterblast-orf" style="stroke-width:1; stroke:black; fill:white; " points="333,35 338,30 356,30 356,40 338,40 333,35 " description="&lt;b&gt;P773_RS0105865&lt;/b&gt;&lt;br&gt;argininosuccinate synthase&lt;br&gt;Location: 1080675 - 1081857" id="knownclusterblast-6_q22_0_all" locus_tag="P773_RS0105865"  />
<polygon class="clusterblast-orf" style="stroke-width:1; stroke:black; fill:white; " points="356,35 361,30 366,30 366,40 361,40 356,35 " description="&lt;b&gt;P773_RS0105870&lt;/b&gt;&lt;br&gt;hypothetical protein&lt;br&gt;Location: 1081860 - 1082373" id="knownclusterblast-6_q23_0_all" locus_tag="P773_RS0105870"  />
<polygon class="clusterblast-orf" style="stroke-width:1; stroke:black; fill:white; " points="366,35 371,30 386,30 386,40 371,40 366,35 " description="&lt;b&gt;P773_RS0105875&lt;/b&gt;&lt;br&gt;aldo/keto reductase&lt;br&gt;Location: 1082363 - 1083401" id="knownclusterblast-6_q24_0_all" locus_tag="P773_RS0105875"  />
<polygon class="clusterblast-orf" style="stroke-width:1; stroke:black; fill:white; " points="388,40 398,40 403,35 398,30 388,30 388,40 " description="&lt;b&gt;P773_RS0105880&lt;/b&gt;&lt;br&gt;BAX inhibitor (BI)-1/YccA family protein&lt;br&gt;Location: 1083484 - 1084246" id="knownclusterblast-6_q25_0_all" locus_tag="P773_RS0105880"  />
<polygon class="clusterblast-orf" style="stroke-width:1; stroke:black; fill:white; " points="403,35 408,30 410,30 410,40 408,40 403,35 " description="&lt;b&gt;P773_RS0105885&lt;/b&gt;&lt;br&gt;DUF2794 domain-containing protein&lt;br&gt;Location: 1084254 - 1084593" id="knownclusterblast-6_q26_0_all" locus_tag="P773_RS0105885"  />
<polygon class="clusterblast-orf" style="stroke-width:1; stroke:black; fill:white; " points="410,35 415,30 420,30 420,40 415,40 410,35 " description="&lt;b&gt;P773_RS0105890&lt;/b&gt;&lt;br&gt;septation protein A&lt;br&gt;Location: 1084585 - 1085137" id="knownclusterblast-6_q27_0_all" locus_tag="P773_RS0105890"  />
<polygon class="clusterblast-orf" style="stroke-width:1; stroke:black; fill:white; " points="422,40 423,40 428,35 423,30 422,30 422,40 " description="&lt;b&gt;P773_RS0105895&lt;/b&gt;&lt;br&gt;heat shock protein HspQ&lt;br&gt;Location: 1085223 - 1085544" id="knownclusterblast-6_q28_0_all" locus_tag="P773_RS0105895"  />
<polygon class="clusterblast-orf" style="stroke-width:1; stroke:black; fill:white; " points="432,40 441,40 446,35 441,30 432,30 432,40 " description="&lt;b&gt;P773_RS0105900&lt;/b&gt;&lt;br&gt;heme transporter HemC&lt;br&gt;Location: 1085720 - 1086428" id="knownclusterblast-6_q29_0_all" locus_tag="P773_RS0105900"  />
<polygon class="clusterblast-orf" style="stroke-width:1; stroke:black; fill:white; " points="446,40 450,35 446,30 446,40 " description="&lt;b&gt;P773_RS0105905&lt;/b&gt;&lt;br&gt;heme exporter protein D&lt;br&gt;Location: 1086424 - 1086652" id="knownclusterblast-6_q30_0_all" locus_tag="P773_RS0105905"  />
<polygon class="clusterblast-orf" style="stroke-width:1; stroke:black; fill:white; " points="450,40 454,40 459,35 454,30 450,30 450,40 " description="&lt;b&gt;P773_RS0105910&lt;/b&gt;&lt;br&gt;cytochrome c maturation protein CcmE&lt;br&gt;Location: 1086662 - 1087079" id="knownclusterblast-6_q31_0_all" locus_tag="P773_RS0105910"  />
<polygon class="clusterblast-orf" style="stroke-width:1; stroke:black; fill:white; " points="459,40 491,40 496,35 491,30 459,30 459,40 " description="&lt;b&gt;P773_RS0105915&lt;/b&gt;&lt;br&gt;cytochrome c biogenesis protein&lt;br&gt;Location: 1087082 - 1088960" id="knownclusterblast-6_q32_0_all" locus_tag="P773_RS0105915"  />
<polygon class="clusterblast-orf" style="stroke-width:1; stroke:black; fill:white; " points="496,40 501,40 506,35 501,30 496,30 496,40 " description="&lt;b&gt;P773_RS0105920&lt;/b&gt;&lt;br&gt;DsbE family thiol:disulfide interchange protein&lt;br&gt;Location: 1088952 - 1089471" id="knownclusterblast-6_q33_0_all" locus_tag="P773_RS0105920"  />
<polygon class="clusterblast-orf" style="stroke-width:1; stroke:black; fill:white; " points="506,40 508,40 513,35 508,30 506,30 506,40 " description="&lt;b&gt;P773_RS0105925&lt;/b&gt;&lt;br&gt;cytochrome c-type biogenesis protein CcmH&lt;br&gt;Location: 1089467 - 1089830" id="knownclusterblast-6_q34_0_all" locus_tag="P773_RS0105925"  />
<polygon class="clusterblast-orf" style="stroke-width:1; stroke:black; fill:white; " points="513,40 518,40 523,35 518,30 513,30 513,40 " description="&lt;b&gt;P773_RS0105930&lt;/b&gt;&lt;br&gt;acyloxyacyl hydrolase&lt;br&gt;Location: 1089840 - 1090353" id="knownclusterblast-6_q35_0_all" locus_tag="P773_RS0105930"  />
<polygon class="clusterblast-orf" style="stroke-width:1; stroke:black; fill:white; " points="523,40 541,40 546,35 541,30 523,30 523,40 " description="&lt;b&gt;P773_RS0105935&lt;/b&gt;&lt;br&gt;alpha-hydroxy-acid oxidizing protein&lt;br&gt;Location: 1090362 - 1091514" id="knownclusterblast-6_q36_0_all" locus_tag="P773_RS0105935"  />
<polygon class="clusterblast-orf" style="stroke-width:1; stroke:black; fill:white; " points="546,40 564,40 569,35 564,30 546,30 546,40 " description="&lt;b&gt;P773_RS0105940&lt;/b&gt;&lt;br&gt;alpha-hydroxy-acid oxidizing protein&lt;br&gt;Location: 1091516 - 1092668" id="knownclusterblast-6_q37_0_all" locus_tag="P773_RS0105940"  />
<polygon class="clusterblast-orf" style="stroke-width:1; stroke:black; fill:white; " points="569,40 587,40 592,35 587,30 569,30 569,40 " description="&lt;b&gt;P773_RS0105945&lt;/b&gt;&lt;br&gt;aspartate aminotransferase&lt;br&gt;Location: 1092683 - 1093850" id="knownclusterblast-6_q38_0_all" locus_tag="P773_RS0105945"  />
<polygon class="clusterblast-orf" style="stroke-width:1; stroke:black; fill:white; " points="593,40 615,40 620,35 615,30 593,30 593,40 " description="&lt;b&gt;P773_RS0105950&lt;/b&gt;&lt;br&gt;FAD-binding protein&lt;br&gt;Location: 1093889 - 1095263" id="knownclusterblast-6_q39_0_all" locus_tag="P773_RS0105950"  />
<polygon class="clusterblast-orf" style="stroke-width:1; stroke:black; fill:white; " points="620,40 634,40 639,35 634,30 620,30 620,40 " description="&lt;b&gt;P773_RS0105955&lt;/b&gt;&lt;br&gt;D-glycerate dehydrogenase&lt;br&gt;Location: 1095278 - 1096235" id="knownclusterblast-6_q40_0_all" locus_tag="P773_RS0105955"  />
<polygon class="clusterblast-orf" style="stroke-width:1; stroke:black; fill:white; " points="642,40 659,40 664,35 659,30 642,30 642,40 " description="&lt;b&gt;P773_RS0105960&lt;/b&gt;&lt;br&gt;C4-dicarboxylate ABC transporter&lt;br&gt;Location: 1096361 - 1097519" id="knownclusterblast-6_q41_0_all" locus_tag="P773_RS0105960"  />
<polygon class="clusterblast-orf" style="stroke-width:1; stroke:black; fill:white; " points="666,40 672,40 677,35 672,30 666,30 666,40 " description="&lt;b&gt;P773_RS0105965&lt;/b&gt;&lt;br&gt;TRAP transporter permease DctQ&lt;br&gt;Location: 1097591 - 1098179" id="knownclusterblast-6_q42_0_all" locus_tag="P773_RS0105965"  />
<polygon class="clusterblast-orf" style="stroke-width:1; stroke:black; fill:white; " points="677,40 699,40 704,35 699,30 677,30 677,40 " description="&lt;b&gt;P773_RS0105970&lt;/b&gt;&lt;br&gt;C4-dicarboxylate ABC transporter&lt;br&gt;Location: 1098168 - 1099530" id="knownclusterblast-6_q43_0_all" locus_tag="P773_RS0105970"  />
<polygon class="clusterblast-orf" style="stroke-width:1; stroke:black; fill:white; " points="704,40 725,40 730,35 725,30 704,30 704,40 " description="&lt;b&gt;P773_RS0105975&lt;/b&gt;&lt;br&gt;amidase&lt;br&gt;Location: 1099532 - 1100861" id="knownclusterblast-6_q44_0_all" locus_tag="P773_RS0105975"  />
<polygon class="clusterblast-orf" style="stroke-width:1; stroke:black; fill:white; " points="734,40 747,40 752,35 747,30 734,30 734,40 " description="&lt;b&gt;P773_RS0105985&lt;/b&gt;&lt;br&gt;EamA/RhaT family transporter&lt;br&gt;Location: 1101057 - 1101963" id="knownclusterblast-6_q45_0_all" locus_tag="P773_RS0105985"  />
<polygon class="clusterblast-orf" style="stroke-width:1; stroke:black; fill:white; " points="752,40 763,40 768,35 763,30 752,30 752,40 " description="&lt;b&gt;P773_RS0105990&lt;/b&gt;&lt;br&gt;alpha/beta hydrolase&lt;br&gt;Location: 1101946 - 1102765" id="knownclusterblast-6_q46_0_all" locus_tag="P773_RS0105990"  />
<polygon class="clusterblast-orf" style="stroke-width:1; stroke:black; fill:white; " points="769,40 775,40 780,35 775,30 769,30 769,40 " description="&lt;b&gt;P773_RS0105995&lt;/b&gt;&lt;br&gt;hypothetical protein&lt;br&gt;Location: 1102813 - 1103377" id="knownclusterblast-6_q47_0_all" locus_tag="P773_RS0105995"  />
</g>
</svg>
