<svg version="1.1" preserveAspectRatio="none" width="800" y="0" xmlns:xlink="http://www.w3.org/1999/xlink" height="50" x="0" xmlns="http://www.w3.org/2000/svg" viewBox="0 0 800 50"  >
<g label="Query sequence" class="clusterblast-cluster"  >
<text class="clusterblast-acc" y="20" x="5"  >
Query sequence</text>
<line style="stroke-width:1; stroke:grey; " y1="35" x2="778.0" y2="35" x1="10"  />
<polygon class="clusterblast-orf" style="stroke-width:1; stroke:black; fill:white; " points="0,40 21,40 26,35 21,30 0,30 0,40 " description="&lt;b&gt;P773_RS0107005&lt;/b&gt;&lt;br&gt;N-acetylmuramoyl-L-alanine amidase&lt;br&gt;Location: 1292440 - 1293184" id="knownclusterblast-10_q0_0_all" locus_tag="P773_RS0107005"  />
<polygon class="clusterblast-orf" style="stroke-width:1; stroke:black; fill:white; " points="49,40 60,40 65,35 60,30 49,30 49,40 " description="&lt;b&gt;P773_RS0107010&lt;/b&gt;&lt;br&gt;transcriptional regulator MraZ&lt;br&gt;Location: 1293844 - 1294312" id="knownclusterblast-10_q1_0_all" locus_tag="P773_RS0107010"  />
<polygon class="clusterblast-orf" style="stroke-width:1; stroke:black; fill:white; " points="66,40 112,40 117,35 112,30 66,30 66,40 " description="&lt;b&gt;P773_RS0107015&lt;/b&gt;&lt;br&gt;cell division protein FtsZ&lt;br&gt;Location: 1294315 - 1295794" id="knownclusterblast-10_q2_0_all" locus_tag="P773_RS0107015"  />
<polygon class="clusterblast-orf" style="stroke-width:1; stroke:black; fill:white; " points="118,40 148,40 153,35 148,30 118,30 118,40 " description="&lt;b&gt;P773_RS0107020&lt;/b&gt;&lt;br&gt;16S rRNA (cytosine(1402)-N(4))-methyltransferase RsmH&lt;br&gt;Location: 1295812 - 1296823" id="knownclusterblast-10_q3_0_all" locus_tag="P773_RS0107020"  />
<polygon class="clusterblast-orf" style="stroke-width:1; stroke:black; fill:white; " points="153,40 159,40 164,35 159,30 153,30 153,40 " description="&lt;b&gt;P773_RS0107025&lt;/b&gt;&lt;br&gt;hypothetical protein&lt;br&gt;Location: 1296819 - 1297125" id="knownclusterblast-10_q4_0_all" locus_tag="P773_RS0107025"  />
<polygon class="clusterblast-orf" style="stroke-width:1; stroke:black; fill:white; " points="164,40 218,40 223,35 218,30 164,30 164,40 " description="&lt;b&gt;P773_RS0107030&lt;/b&gt;&lt;br&gt;penicillin-binding protein 2&lt;br&gt;Location: 1297124 - 1298816" id="knownclusterblast-10_q5_0_all" locus_tag="P773_RS0107030"  />
<polygon class="clusterblast-orf" style="stroke-width:1; stroke:black; fill:white; " points="223,40 318,40 323,35 318,30 223,30 223,40 " description="&lt;b&gt;P773_RS0107035&lt;/b&gt;&lt;br&gt;UDP-N-acetylmuramoyl-L-alanyl-D-glutamate--2, 6-diaminopimelate ligase&lt;br&gt;Location: 1298818 - 1301662" id="knownclusterblast-10_q6_0_all" locus_tag="P773_RS0107035"  />
<polygon class="clusterblast-orf" style="stroke-width:1; stroke:black; fill:white; " points="323,40 356,40 361,35 356,30 323,30 323,40 " description="&lt;b&gt;P773_RS0107040&lt;/b&gt;&lt;br&gt;phospho-N-acetylmuramoyl-pentapeptide- transferase&lt;br&gt;Location: 1301662 - 1302748" id="knownclusterblast-10_q7_0_all" locus_tag="P773_RS0107040"  />
<polygon class="clusterblast-orf" style="stroke-width:1; stroke:black; fill:white; " points="361,40 401,40 406,35 401,30 361,30 361,40 " description="&lt;b&gt;P773_RS0107045&lt;/b&gt;&lt;br&gt;UDP-N-acetylmuramoyl-L-alanine--D-glutamate ligase&lt;br&gt;Location: 1302747 - 1304043" id="knownclusterblast-10_q8_0_all" locus_tag="P773_RS0107045"  />
<polygon class="clusterblast-orf" style="stroke-width:1; stroke:black; fill:white; " points="406,40 440,40 445,35 440,30 406,30 406,40 " description="&lt;b&gt;P773_RS0107050&lt;/b&gt;&lt;br&gt;cell division protein FtsW&lt;br&gt;Location: 1304032 - 1305154" id="knownclusterblast-10_q9_0_all" locus_tag="P773_RS0107050"  />
<polygon class="clusterblast-orf" style="stroke-width:1; stroke:black; fill:white; " points="445,40 478,40 483,35 478,30 445,30 445,40 " description="&lt;b&gt;P773_RS0107055&lt;/b&gt;&lt;br&gt;UDP-N-acetylglucosamine--N-acetylmuramyl- (pentapeptide) pyrophosphoryl-undecaprenol N-acetylglucosamine transferase&lt;br&gt;Location: 1305157 - 1306225" id="knownclusterblast-10_q10_0_all" locus_tag="P773_RS0107055"  />
<polygon class="clusterblast-orf" style="stroke-width:1; stroke:black; fill:white; " points="483,40 526,40 531,35 526,30 483,30 483,40 " description="&lt;b&gt;P773_RS0107060&lt;/b&gt;&lt;br&gt;UDP-N-acetylmuramate--L-alanine ligase&lt;br&gt;Location: 1306214 - 1307609" id="knownclusterblast-10_q11_0_all" locus_tag="P773_RS0107060"  />
<polygon class="clusterblast-orf" style="stroke-width:1; stroke:black; fill:white; " points="531,40 558,40 563,35 558,30 531,30 531,40 " description="&lt;b&gt;P773_RS0107065&lt;/b&gt;&lt;br&gt;UDP-N-acetylenolpyruvoylglucosamine reductase&lt;br&gt;Location: 1307608 - 1308514" id="knownclusterblast-10_q12_0_all" locus_tag="P773_RS0107065"  />
<polygon class="clusterblast-orf" style="stroke-width:1; stroke:black; fill:white; " points="563,40 590,40 595,35 590,30 563,30 563,40 " description="&lt;b&gt;P773_RS0107070&lt;/b&gt;&lt;br&gt;D-alanine--D-alanine ligase&lt;br&gt;Location: 1308515 - 1309430" id="knownclusterblast-10_q13_0_all" locus_tag="P773_RS0107070"  />
<polygon class="clusterblast-orf" style="stroke-width:1; stroke:black; fill:white; " points="595,40 613,40 618,35 613,30 595,30 595,40 " description="&lt;b&gt;P773_RS0107075&lt;/b&gt;&lt;br&gt;hypothetical protein&lt;br&gt;Location: 1309410 - 1310088" id="knownclusterblast-10_q14_0_all" locus_tag="P773_RS0107075"  />
<polygon class="clusterblast-orf" style="stroke-width:1; stroke:black; fill:white; " points="618,40 638,40 643,35 638,30 618,30 618,40 " description="&lt;b&gt;P773_RS0107080&lt;/b&gt;&lt;br&gt;hypothetical protein&lt;br&gt;Location: 1310080 - 1310782" id="knownclusterblast-10_q15_0_all" locus_tag="P773_RS0107080"  />
<polygon class="clusterblast-orf" style="stroke-width:1; stroke:black; fill:white; " points="645,40 672,40 677,35 672,30 645,30 645,40 " description="&lt;b&gt;P773_RS0107085&lt;/b&gt;&lt;br&gt;UDP-3-O-[3-hydroxymyristoyl] N-acetylglucosamine deacetylase&lt;br&gt;Location: 1310846 - 1311767" id="knownclusterblast-10_q16_0_all" locus_tag="P773_RS0107085"  />
<polygon class="clusterblast-orf" style="stroke-width:1; stroke:black; fill:white; " points="679,40 704,40 709,35 704,30 679,30 679,40 " description="&lt;b&gt;P773_RS0107090&lt;/b&gt;&lt;br&gt;outer membrane protein assembly factor BamD&lt;br&gt;Location: 1311823 - 1312675" id="knownclusterblast-10_q17_0_all" locus_tag="P773_RS0107090"  />
<polygon class="clusterblast-orf" style="stroke-width:1; stroke:black; fill:white; " points="709,40 775,40 780,35 775,30 709,30 709,40 " description="&lt;b&gt;P773_RS0107095&lt;/b&gt;&lt;br&gt;NAD-dependent DNA ligase LigA&lt;br&gt;Location: 1312667 - 1314698" id="knownclusterblast-10_q18_0_all" locus_tag="P773_RS0107095"  />
</g>
</svg>
