<svg version="1.1" preserveAspectRatio="none" width="800" y="0" xmlns:xlink="http://www.w3.org/1999/xlink" height="50" x="0" xmlns="http://www.w3.org/2000/svg" viewBox="0 0 800 50"  >
<g label="Query sequence" class="clusterblast-cluster"  >
<text class="clusterblast-acc" y="20" x="5"  >
Query sequence</text>
<line style="stroke-width:1; stroke:grey; " y1="35" x2="778.0" y2="35" x1="10"  />
<polygon class="clusterblast-orf" style="stroke-width:1; stroke:black; fill:white; " points="0,35 5,30 34,30 34,40 5,40 0,35 " description="&lt;b&gt;P773_RS0105270&lt;/b&gt;&lt;br&gt;bifunctional DNA-formamidopyrimidine glycosylase/DNA-(apurinic or apyrimidinic site) lyase&lt;br&gt;Location: 974945 - 975809" id="subclusterblast-5_q0_0_all" locus_tag="P773_RS0105270"  />
<polygon class="clusterblast-orf" style="stroke-width:1; stroke:black; fill:white; " points="35,40 58,40 63,35 58,30 35,30 35,40 " description="&lt;b&gt;P773_RS0105275&lt;/b&gt;&lt;br&gt;bifunctional demethylmenaquinone methyltransferase/2-methoxy-6-polyprenyl-1,4-benzoquinol methylase UbiE&lt;br&gt;Location: 975840 - 976545" id="subclusterblast-5_q1_0_all" locus_tag="P773_RS0105275"  />
<polygon class="clusterblast-orf" style="stroke-width:1; stroke:black; fill:white; " points="63,40 119,40 124,35 119,30 63,30 63,40 " description="&lt;b&gt;P773_RS0105280&lt;/b&gt;&lt;br&gt;2-polyprenylphenol 6-hydroxylase&lt;br&gt;Location: 976544 - 978113" id="subclusterblast-5_q2_0_all" locus_tag="P773_RS0105280"  />
<polygon class="clusterblast-orf" style="stroke-width:1; stroke:black; fill:white; " points="125,40 167,40 172,35 167,30 125,30 125,40 " description="&lt;b&gt;P773_RS0105285&lt;/b&gt;&lt;br&gt;bifunctional phosphopantothenoylcysteine decarboxylase/phosphopantothenate--cysteine ligase CoaBC&lt;br&gt;Location: 978122 - 979328" id="subclusterblast-5_q3_0_all" locus_tag="P773_RS0105285"  />
<polygon class="clusterblast-orf" style="stroke-width:1; stroke:black; fill:white; " points="172,40 184,40 189,35 184,30 172,30 172,40 " description="&lt;b&gt;P773_RS0105290&lt;/b&gt;&lt;br&gt;dUTP diphosphatase&lt;br&gt;Location: 979327 - 979765" id="subclusterblast-5_q4_0_all" locus_tag="P773_RS0105290"  />
<polygon class="clusterblast-orf" style="stroke-width:1; stroke:black; fill:white; " points="189,40 214,40 219,35 214,30 189,30 189,40 " description="&lt;b&gt;P773_RS0105295&lt;/b&gt;&lt;br&gt;molybdopterin biosynthesis protein&lt;br&gt;Location: 979761 - 980517" id="subclusterblast-5_q5_0_all" locus_tag="P773_RS0105295"  />
<polygon class="clusterblast-orf" style="stroke-width:1; stroke:black; fill:white; " points="218,40 231,40 236,35 231,30 218,30 218,40 " description="&lt;b&gt;P773_RS0105300&lt;/b&gt;&lt;br&gt;hypothetical protein&lt;br&gt;Location: 980516 - 980960" id="subclusterblast-5_q6_0_all" locus_tag="P773_RS0105300"  />
<polygon class="clusterblast-orf" style="stroke-width:1; stroke:black; fill:white; " points="236,35 241,30 259,30 259,40 241,40 236,35 " description="&lt;b&gt;P773_RS0105305&lt;/b&gt;&lt;br&gt;peptide-aspartate beta-dioxygenase&lt;br&gt;Location: 980960 - 981557" id="subclusterblast-5_q7_0_all" locus_tag="P773_RS0105305"  />
<polygon class="clusterblast-orf" style="stroke-width:1; stroke:black; fill:white; " points="260,35 265,30 347,30 347,40 265,40 260,35 " description="&lt;b&gt;P773_RS0105310&lt;/b&gt;&lt;br&gt;catalase/peroxidase HPI&lt;br&gt;Location: 981573 - 983781" id="subclusterblast-5_q8_0_all" locus_tag="P773_RS0105310"  />
<polygon class="clusterblast-orf" style="stroke-width:1; stroke:black; fill:white; " points="351,35 356,30 367,30 367,40 356,40 351,35 " description="&lt;b&gt;P773_RS0105315&lt;/b&gt;&lt;br&gt;transcriptional repressor&lt;br&gt;Location: 983889 - 984303" id="subclusterblast-5_q9_0_all" locus_tag="P773_RS0105315"  />
<polygon class="clusterblast-orf" style="stroke-width:1; stroke:black; fill:white; " points="371,40 385,40 390,35 385,30 371,30 371,40 " description="&lt;b&gt;P773_RS0105320&lt;/b&gt;&lt;br&gt;bifunctional 3-hydroxydecanoyl-ACP dehydratase/trans-2-decenoyl-ACP isomerase&lt;br&gt;Location: 984398 - 984899" id="subclusterblast-5_q10_0_all" locus_tag="P773_RS0105320"  />
<polygon class="clusterblast-orf" style="stroke-width:1; stroke:black; fill:white; " points="390,40 433,40 438,35 433,30 390,30 390,40 " description="&lt;b&gt;P773_RS0105325&lt;/b&gt;&lt;br&gt;beta-ketoacyl-[acyl-carrier-protein] synthase I&lt;br&gt;Location: 984898 - 986110" id="subclusterblast-5_q11_0_all" locus_tag="P773_RS0105325"  />
<polygon class="clusterblast-orf" style="stroke-width:1; stroke:black; fill:white; " points="438,40 464,40 469,35 464,30 438,30 438,40 " description="&lt;b&gt;P773_RS0105330&lt;/b&gt;&lt;br&gt;enoyl-ACP reductase&lt;br&gt;Location: 986113 - 986899" id="subclusterblast-5_q12_0_all" locus_tag="P773_RS0105330"  />
<polygon class="clusterblast-orf" style="stroke-width:1; stroke:black; fill:white; " points="473,35 478,30 555,30 555,40 478,40 473,35 " description="&lt;b&gt;P773_RS0105335&lt;/b&gt;&lt;br&gt;polyribonucleotide nucleotidyltransferase&lt;br&gt;Location: 987012 - 989085" id="subclusterblast-5_q13_0_all" locus_tag="P773_RS0105335"  />
<polygon class="clusterblast-orf" style="stroke-width:1; stroke:black; fill:white; " points="557,35 562,30 567,30 567,40 562,40 557,35 " description="&lt;b&gt;P773_RS0105340&lt;/b&gt;&lt;br&gt;30S ribosomal protein S15&lt;br&gt;Location: 989142 - 989391" id="subclusterblast-5_q14_0_all" locus_tag="P773_RS0105340"  />
<polygon class="clusterblast-orf" style="stroke-width:1; stroke:black; fill:white; " points="567,35 572,30 582,30 582,40 572,40 567,35 " description="&lt;b&gt;P773_RS0105345&lt;/b&gt;&lt;br&gt;30S ribosome-binding factor RbfA&lt;br&gt;Location: 989403 - 989772" id="subclusterblast-5_q15_0_all" locus_tag="P773_RS0105345"  />
<polygon class="clusterblast-orf" style="stroke-width:1; stroke:black; fill:white; " points="582,35 587,30 669,30 669,40 587,40 582,35 " description="&lt;b&gt;P773_RS0105350&lt;/b&gt;&lt;br&gt;translation initiation factor IF-2&lt;br&gt;Location: 989771 - 991991" id="subclusterblast-5_q16_0_all" locus_tag="P773_RS0105350"  />
<polygon class="clusterblast-orf" style="stroke-width:1; stroke:black; fill:white; " points="669,35 674,30 732,30 732,40 674,40 669,35 " description="&lt;b&gt;P773_RS0105355&lt;/b&gt;&lt;br&gt;transcription termination/antitermination protein NusA&lt;br&gt;Location: 992001 - 993594" id="subclusterblast-5_q17_0_all" locus_tag="P773_RS0105355"  />
<polygon class="clusterblast-orf" style="stroke-width:1; stroke:black; fill:white; " points="734,35 739,30 780,30 780,40 739,40 734,35 " description="&lt;b&gt;P773_RS0105360&lt;/b&gt;&lt;br&gt;methionine adenosyltransferase&lt;br&gt;Location: 993653 - 994823" id="subclusterblast-5_q18_0_all" locus_tag="P773_RS0105360"  />
</g>
</svg>
