<svg version="1.1" preserveAspectRatio="none" width="800" y="0" xmlns:xlink="http://www.w3.org/1999/xlink" height="50" x="0" xmlns="http://www.w3.org/2000/svg" viewBox="0 0 800 50"  >
<g label="Query sequence" class="clusterblast-cluster"  >
<text class="clusterblast-acc" y="20" x="5"  >
Query sequence</text>
<line style="stroke-width:1; stroke:grey; " y1="35" x2="778.0" y2="35" x1="10"  />
<polygon class="clusterblast-orf" style="stroke-width:1; stroke:black; fill:white; " points="0,40 55,40 60,35 55,30 0,30 0,40 " description="&lt;b&gt;P773_RS0106630&lt;/b&gt;&lt;br&gt;cytochrome c oxidase subunit I&lt;br&gt;Location: 1225167 - 1226802" id="subclusterblast-8_q0_0_all" locus_tag="P773_RS0106630"  />
<polygon class="clusterblast-orf" style="stroke-width:1; stroke:black; fill:white; " points="61,40 89,40 94,35 89,30 61,30 61,40 " description="&lt;b&gt;P773_RS0106635&lt;/b&gt;&lt;br&gt;protoheme IX farnesyltransferase&lt;br&gt;Location: 1226831 - 1227743" id="subclusterblast-8_q1_0_all" locus_tag="P773_RS0106635"  />
<polygon class="clusterblast-orf" style="stroke-width:1; stroke:black; fill:white; " points="94,40 98,35 94,30 94,40 " description="&lt;b&gt;P773_RS0106640&lt;/b&gt;&lt;br&gt;hypothetical protein&lt;br&gt;Location: 1227739 - 1227865" id="subclusterblast-8_q2_0_all" locus_tag="P773_RS0106640"  />
<polygon class="clusterblast-orf" style="stroke-width:1; stroke:black; fill:white; " points="98,40 113,40 118,35 113,30 98,30 98,40 " description="&lt;b&gt;P773_RS0106645&lt;/b&gt;&lt;br&gt;cytochrome c oxidase assembly protein&lt;br&gt;Location: 1227864 - 1228395" id="subclusterblast-8_q3_0_all" locus_tag="P773_RS0106645"  />
<polygon class="clusterblast-orf" style="stroke-width:1; stroke:black; fill:white; " points="118,40 142,40 147,35 142,30 118,30 118,40 " description="&lt;b&gt;P773_RS0106650&lt;/b&gt;&lt;br&gt;cytochrome c oxidase subunit 3&lt;br&gt;Location: 1228404 - 1229193" id="subclusterblast-8_q4_0_all" locus_tag="P773_RS0106650"  />
<polygon class="clusterblast-orf" style="stroke-width:1; stroke:black; fill:white; " points="147,40 166,40 171,35 166,30 147,30 147,40 " description="&lt;b&gt;P773_RS0106655&lt;/b&gt;&lt;br&gt;SURF1 family protein&lt;br&gt;Location: 1229203 - 1229857" id="subclusterblast-8_q5_0_all" locus_tag="P773_RS0106655"  />
<polygon class="clusterblast-orf" style="stroke-width:1; stroke:black; fill:white; " points="171,40 217,40 222,35 217,30 171,30 171,40 " description="&lt;b&gt;P773_RS0106660&lt;/b&gt;&lt;br&gt;threonine synthase&lt;br&gt;Location: 1229857 - 1231240" id="subclusterblast-8_q6_0_all" locus_tag="P773_RS0106660"  />
<polygon class="clusterblast-orf" style="stroke-width:1; stroke:black; fill:white; " points="221,40 234,40 239,35 234,30 221,30 221,40 " description="&lt;b&gt;P773_RS0106665&lt;/b&gt;&lt;br&gt;peroxiredoxin&lt;br&gt;Location: 1231236 - 1231725" id="subclusterblast-8_q7_0_all" locus_tag="P773_RS0106665"  />
<polygon class="clusterblast-orf" style="stroke-width:1; stroke:black; fill:white; " points="239,35 244,30 255,30 255,40 244,40 239,35 " description="&lt;b&gt;P773_RS0106670&lt;/b&gt;&lt;br&gt;ribonuclease HI&lt;br&gt;Location: 1231716 - 1232142" id="subclusterblast-8_q8_0_all" locus_tag="P773_RS0106670"  />
<polygon class="clusterblast-orf" style="stroke-width:1; stroke:black; fill:white; " points="255,35 260,30 290,30 290,40 260,40 255,35 " description="&lt;b&gt;P773_RS0106675&lt;/b&gt;&lt;br&gt;homoserine kinase&lt;br&gt;Location: 1232141 - 1233107" id="subclusterblast-8_q9_0_all" locus_tag="P773_RS0106675"  />
<polygon class="clusterblast-orf" style="stroke-width:1; stroke:black; fill:white; " points="290,35 295,30 324,30 324,40 295,40 290,35 " description="&lt;b&gt;P773_RS0106680&lt;/b&gt;&lt;br&gt;4-hydroxy-3-methylbut-2-enyl diphosphate reductase&lt;br&gt;Location: 1233107 - 1234052" id="subclusterblast-8_q10_0_all" locus_tag="P773_RS0106680"  />
<polygon class="clusterblast-orf" style="stroke-width:1; stroke:black; fill:white; " points="324,35 329,30 358,30 358,40 329,40 324,35 " description="&lt;b&gt;P773_RS0106685&lt;/b&gt;&lt;br&gt;membrane protein&lt;br&gt;Location: 1234041 - 1234977" id="subclusterblast-8_q11_0_all" locus_tag="P773_RS0106685"  />
<polygon class="clusterblast-orf" style="stroke-width:1; stroke:black; fill:white; " points="358,35 363,30 397,30 397,40 363,40 358,35 " description="&lt;b&gt;P773_RS0106690&lt;/b&gt;&lt;br&gt;lycopene cyclase&lt;br&gt;Location: 1234979 - 1236044" id="subclusterblast-8_q12_0_all" locus_tag="P773_RS0106690"  />
<polygon class="clusterblast-orf" style="stroke-width:1; stroke:black; fill:white; " points="397,35 402,30 428,30 428,40 402,40 397,35 " description="&lt;b&gt;P773_RS0106695&lt;/b&gt;&lt;br&gt;phytoene synthase&lt;br&gt;Location: 1236030 - 1236885" id="subclusterblast-8_q13_0_all" locus_tag="P773_RS0106695"  />
<polygon class="clusterblast-orf" style="stroke-width:1; stroke:black; fill:white; " points="428,35 433,30 481,30 481,40 433,40 428,35 " description="&lt;b&gt;P773_RS0106700&lt;/b&gt;&lt;br&gt;phytoene desaturase&lt;br&gt;Location: 1236881 - 1238342" id="subclusterblast-8_q14_0_all" locus_tag="P773_RS0106700"  />
<polygon class="clusterblast-orf" style="stroke-width:1; stroke:black; fill:white; " points="482,35 487,30 501,30 501,40 487,40 482,35 " description="&lt;b&gt;P773_RS0106705&lt;/b&gt;&lt;br&gt;ATPase&lt;br&gt;Location: 1238381 - 1238888" id="subclusterblast-8_q15_0_all" locus_tag="P773_RS0106705"  />
<polygon class="clusterblast-orf" style="stroke-width:1; stroke:black; fill:white; " points="500,35 505,30 520,30 520,40 505,40 500,35 " description="&lt;b&gt;P773_RS0106710&lt;/b&gt;&lt;br&gt;ATP synthase subunit B&lt;br&gt;Location: 1238868 - 1239408" id="subclusterblast-8_q16_0_all" locus_tag="P773_RS0106710"  />
<polygon class="clusterblast-orf" style="stroke-width:1; stroke:black; fill:white; " points="522,35 527,30 530,30 530,40 527,40 522,35 " description="&lt;b&gt;P773_RS0106715&lt;/b&gt;&lt;br&gt;ATP synthase subunit C&lt;br&gt;Location: 1239464 - 1239692" id="subclusterblast-8_q17_0_all" locus_tag="P773_RS0106715"  />
<polygon class="clusterblast-orf" style="stroke-width:1; stroke:black; fill:white; " points="531,35 536,30 558,30 558,40 536,40 531,35 " description="&lt;b&gt;P773_RS0106720&lt;/b&gt;&lt;br&gt;F0F1 ATP synthase subunit A&lt;br&gt;Location: 1239710 - 1240445" id="subclusterblast-8_q18_0_all" locus_tag="P773_RS0106720"  />
<polygon class="clusterblast-orf" style="stroke-width:1; stroke:black; fill:white; " points="558,35 563,30 568,30 568,40 563,40 558,35 " description="&lt;b&gt;P773_RS0106725&lt;/b&gt;&lt;br&gt;membrane protein&lt;br&gt;Location: 1240454 - 1240730" id="subclusterblast-8_q19_0_all" locus_tag="P773_RS0106725"  />
<polygon class="clusterblast-orf" style="stroke-width:1; stroke:black; fill:white; " points="568,35 573,30 662,30 662,40 573,40 568,35 " description="&lt;b&gt;P773_RS0106730&lt;/b&gt;&lt;br&gt;chromosome segregation protein SMC&lt;br&gt;Location: 1240739 - 1243313" id="subclusterblast-8_q20_0_all" locus_tag="P773_RS0106730"  />
<polygon class="clusterblast-orf" style="stroke-width:1; stroke:black; fill:white; " points="663,35 668,30 684,30 684,40 668,40 663,35 " description="&lt;b&gt;P773_RS0106735&lt;/b&gt;&lt;br&gt;DSBA oxidoreductase&lt;br&gt;Location: 1243321 - 1243900" id="subclusterblast-8_q21_0_all" locus_tag="P773_RS0106735"  />
<polygon class="clusterblast-orf" style="stroke-width:1; stroke:black; fill:white; " points="684,35 689,30 702,30 702,40 689,40 684,35 " description="&lt;b&gt;P773_RS0106740&lt;/b&gt;&lt;br&gt;DUF721 domain-containing protein&lt;br&gt;Location: 1243896 - 1244385" id="subclusterblast-8_q22_0_all" locus_tag="P773_RS0106740"  />
<polygon class="clusterblast-orf" style="stroke-width:1; stroke:black; fill:white; " points="702,40 733,40 738,35 733,30 702,30 702,40 " description="&lt;b&gt;P773_RS0106745&lt;/b&gt;&lt;br&gt;A/G-specific adenine glycosylase&lt;br&gt;Location: 1244399 - 1245380" id="subclusterblast-8_q23_0_all" locus_tag="P773_RS0106745"  />
<polygon class="clusterblast-orf" style="stroke-width:1; stroke:black; fill:white; " points="738,40 775,40 780,35 775,30 738,30 738,40 " description="&lt;b&gt;P773_RS0106750&lt;/b&gt;&lt;br&gt;FAD-dependent monooxygenase&lt;br&gt;Location: 1245376 - 1246528" id="subclusterblast-8_q24_0_all" locus_tag="P773_RS0106750"  />
</g>
</svg>
