<svg version="1.1" preserveAspectRatio="none" width="800" y="0" xmlns:xlink="http://www.w3.org/1999/xlink" height="50" x="0" xmlns="http://www.w3.org/2000/svg" viewBox="0 0 800 50"  >
<g label="Query sequence" class="clusterblast-cluster"  >
<text class="clusterblast-acc" y="20" x="5"  >
Query sequence</text>
<line style="stroke-width:1; stroke:grey; " y1="35" x2="778.0" y2="35" x1="10"  />
<polygon class="clusterblast-orf" style="stroke-width:1; stroke:black; fill:white; " points="0,35 5,30 18,30 18,40 5,40 0,35 " description="&lt;b&gt;P773_RS0102035&lt;/b&gt;&lt;br&gt;phosphate regulon transcriptional regulatory protein PhoB&lt;br&gt;Location: 349897 - 350581" id="subclusterblast-3_q0_0_all" locus_tag="P773_RS0102035"  />
<polygon class="clusterblast-orf" style="stroke-width:1; stroke:black; fill:white; " points="18,35 23,30 36,30 36,40 23,40 18,35 " description="&lt;b&gt;P773_RS0102040&lt;/b&gt;&lt;br&gt;phosphate transport system regulatory protein PhoU&lt;br&gt;Location: 350584 - 351292" id="subclusterblast-3_q1_0_all" locus_tag="P773_RS0102040"  />
<polygon class="clusterblast-orf" style="stroke-width:1; stroke:black; fill:white; " points="36,35 41,30 56,30 56,40 41,40 36,35 " description="&lt;b&gt;P773_RS0102045&lt;/b&gt;&lt;br&gt;phosphate ABC transporter ATP-binding protein&lt;br&gt;Location: 351291 - 352047" id="subclusterblast-3_q2_0_all" locus_tag="P773_RS0102045"  />
<polygon class="clusterblast-orf" style="stroke-width:1; stroke:black; fill:white; " points="56,35 61,30 89,30 89,40 61,40 56,35 " description="&lt;b&gt;P773_RS0102050&lt;/b&gt;&lt;br&gt;phosphate ABC transporter, permease protein PstA&lt;br&gt;Location: 352050 - 353322" id="subclusterblast-3_q3_0_all" locus_tag="P773_RS0102050"  />
<polygon class="clusterblast-orf" style="stroke-width:1; stroke:black; fill:white; " points="89,35 94,30 125,30 125,40 94,40 89,35 " description="&lt;b&gt;P773_RS0102055&lt;/b&gt;&lt;br&gt;phosphate ABC transporter permease subunit PstC&lt;br&gt;Location: 353314 - 354700" id="subclusterblast-3_q4_0_all" locus_tag="P773_RS0102055"  />
<polygon class="clusterblast-orf" style="stroke-width:1; stroke:black; fill:white; " points="127,35 132,30 154,30 154,40 132,40 127,35 " description="&lt;b&gt;P773_RS0102060&lt;/b&gt;&lt;br&gt;phosphate-binding protein&lt;br&gt;Location: 354775 - 355810" id="subclusterblast-3_q5_0_all" locus_tag="P773_RS0102060"  />
<polygon class="clusterblast-orf" style="stroke-width:1; stroke:black; fill:white; " points="157,35 162,30 172,30 172,40 162,40 157,35 " description="&lt;b&gt;P773_RS0102065&lt;/b&gt;&lt;br&gt;hypothetical protein&lt;br&gt;Location: 355916 - 356483" id="subclusterblast-3_q6_0_all" locus_tag="P773_RS0102065"  />
<polygon class="clusterblast-orf" style="stroke-width:1; stroke:black; fill:white; " points="176,35 181,30 206,30 206,40 181,40 176,35 " description="&lt;b&gt;P773_RS0102070&lt;/b&gt;&lt;br&gt;hypothetical protein&lt;br&gt;Location: 356628 - 357777" id="subclusterblast-3_q7_0_all" locus_tag="P773_RS0102070"  />
<polygon class="clusterblast-orf" style="stroke-width:1; stroke:black; fill:white; " points="208,40 224,40 229,35 224,30 208,30 208,40 " description="&lt;b&gt;P773_RS0102075&lt;/b&gt;&lt;br&gt;GNAT family N-acetyltransferase&lt;br&gt;Location: 357848 - 358676" id="subclusterblast-3_q8_0_all" locus_tag="P773_RS0102075"  />
<polygon class="clusterblast-orf" style="stroke-width:1; stroke:black; fill:white; " points="229,40 244,40 249,35 244,30 229,30 229,40 " description="&lt;b&gt;P773_RS0102080&lt;/b&gt;&lt;br&gt;hypothetical protein&lt;br&gt;Location: 358675 - 359413" id="subclusterblast-3_q9_0_all" locus_tag="P773_RS0102080"  />
<polygon class="clusterblast-orf" style="stroke-width:1; stroke:black; fill:white; " points="249,35 254,30 275,30 275,40 254,40 249,35 " description="&lt;b&gt;P773_RS0102085&lt;/b&gt;&lt;br&gt;glycosyltransferase family 1 protein&lt;br&gt;Location: 359405 - 360410" id="subclusterblast-3_q10_0_all" locus_tag="P773_RS0102085"  />
<polygon class="clusterblast-orf" style="stroke-width:1; stroke:black; fill:white; " points="275,35 280,30 297,30 297,40 280,40 275,35 " description="&lt;b&gt;P773_RS0102090&lt;/b&gt;&lt;br&gt;UDP-2,3-diacylglucosamine diphosphatase&lt;br&gt;Location: 360412 - 361246" id="subclusterblast-3_q11_0_all" locus_tag="P773_RS0102090"  />
<polygon class="clusterblast-orf" style="stroke-width:1; stroke:black; fill:white; " points="299,40 317,40 322,35 317,30 299,30 299,40 " description="&lt;b&gt;P773_RS0102095&lt;/b&gt;&lt;br&gt;hypothetical protein&lt;br&gt;Location: 361330 - 362221" id="subclusterblast-3_q12_0_all" locus_tag="P773_RS0102095"  />
<polygon class="clusterblast-orf" style="stroke-width:1; stroke:black; fill:white; " points="324,40 324,40 329,35 324,30 324,30 324,40 " description="&lt;b&gt;P773_RS0102100&lt;/b&gt;&lt;br&gt;hypothetical protein&lt;br&gt;Location: 362290 - 362500" id="subclusterblast-3_q13_0_all" locus_tag="P773_RS0102100"  />
<polygon class="clusterblast-orf" style="stroke-width:1; stroke:black; fill:white; " points="335,35 340,30 363,30 363,40 340,40 335,35 " description="&lt;b&gt;P773_RS0102105&lt;/b&gt;&lt;br&gt;hypothetical protein&lt;br&gt;Location: 362701 - 363799" id="subclusterblast-3_q14_0_all" locus_tag="P773_RS0102105"  />
<polygon class="clusterblast-orf" style="stroke-width:1; stroke:black; fill:white; " points="363,35 368,30 392,30 392,40 368,40 363,35 " description="&lt;b&gt;P773_RS0102110&lt;/b&gt;&lt;br&gt;phosphonopyruvate decarboxylase&lt;br&gt;Location: 363795 - 364893" id="subclusterblast-3_q15_0_all" locus_tag="P773_RS0102110"  />
<polygon class="clusterblast-orf" style="stroke-width:1; stroke:black; fill:white; " points="392,35 397,30 426,30 426,40 397,40 392,35 " description="&lt;b&gt;P773_RS0102115&lt;/b&gt;&lt;br&gt;phosphoenolpyruvate mutase&lt;br&gt;Location: 364885 - 366187" id="subclusterblast-3_q16_0_all" locus_tag="P773_RS0102115"  />
<polygon class="clusterblast-orf" style="stroke-width:1; stroke:black; fill:white; " points="426,35 431,30 460,30 460,40 431,40 426,35 " description="&lt;b&gt;P773_RS0102120&lt;/b&gt;&lt;br&gt;hypothetical protein&lt;br&gt;Location: 366183 - 367488" id="subclusterblast-3_q17_0_all" locus_tag="P773_RS0102120"  />
<polygon class="clusterblast-orf" style="stroke-width:1; stroke:black; fill:white; " points="463,35 468,30 492,30 492,40 468,40 463,35 " description="&lt;b&gt;P773_RS0102125&lt;/b&gt;&lt;br&gt;hypothetical protein&lt;br&gt;Location: 367607 - 368726" id="subclusterblast-3_q18_0_all" locus_tag="P773_RS0102125"  />
<polygon class="clusterblast-orf" style="stroke-width:1; stroke:black; fill:white; " points="493,35 498,30 525,30 525,40 498,40 493,35 " description="&lt;b&gt;P773_RS0102130&lt;/b&gt;&lt;br&gt;mannose-6-phosphate isomerase&lt;br&gt;Location: 368750 - 369956" id="subclusterblast-3_q19_0_all" locus_tag="P773_RS0102130"  />
<polygon class="clusterblast-orf" style="stroke-width:1; stroke:black; fill:white; " points="525,35 530,30 570,30 570,40 530,40 525,35 " description="&lt;b&gt;P773_RS0102135&lt;/b&gt;&lt;br&gt;dihydroxy-acid dehydratase&lt;br&gt;Location: 369955 - 371674" id="subclusterblast-3_q20_0_all" locus_tag="P773_RS0102135"  />
<polygon class="clusterblast-orf" style="stroke-width:1; stroke:black; fill:white; " points="569,35 574,30 638,30 638,40 574,40 569,35 " description="&lt;b&gt;P773_RS0102140&lt;/b&gt;&lt;br&gt;valine--tRNA ligase&lt;br&gt;Location: 371673 - 374301" id="subclusterblast-3_q21_0_all" locus_tag="P773_RS0102140"  />
<polygon class="clusterblast-orf" style="stroke-width:1; stroke:black; fill:white; " points="649,35 654,30 659,30 659,40 654,40 649,35 " description="&lt;b&gt;P773_RS0102155&lt;/b&gt;&lt;br&gt;XRE family transcriptional regulator&lt;br&gt;Location: 374716 - 375088" id="subclusterblast-3_q22_0_all" locus_tag="P773_RS0102155"  />
<polygon class="clusterblast-orf" style="stroke-width:1; stroke:black; fill:white; " points="664,35 669,30 683,30 683,40 669,40 664,35 " description="&lt;b&gt;P773_RS0102160&lt;/b&gt;&lt;br&gt;amino acid ABC transporter ATP-binding protein&lt;br&gt;Location: 375275 - 376010" id="subclusterblast-3_q23_0_all" locus_tag="P773_RS0102160"  />
<polygon class="clusterblast-orf" style="stroke-width:1; stroke:black; fill:white; " points="683,35 688,30 721,30 721,40 688,40 683,35 " description="&lt;b&gt;P773_RS0102165&lt;/b&gt;&lt;br&gt;amino acid ABC transporter permease&lt;br&gt;Location: 376009 - 377452" id="subclusterblast-3_q24_0_all" locus_tag="P773_RS0102165"  />
<polygon class="clusterblast-orf" style="stroke-width:1; stroke:black; fill:white; " points="721,35 726,30 751,30 751,40 726,40 721,35 " description="&lt;b&gt;P773_RS0102170&lt;/b&gt;&lt;br&gt;amino acid ABC transporter permease&lt;br&gt;Location: 377451 - 378597" id="subclusterblast-3_q25_0_all" locus_tag="P773_RS0102170"  />
<polygon class="clusterblast-orf" style="stroke-width:1; stroke:black; fill:white; " points="753,35 758,30 780,30 780,40 758,40 753,35 " description="&lt;b&gt;P773_RS0102175&lt;/b&gt;&lt;br&gt;amino acid ABC transporter substrate-binding protein&lt;br&gt;Location: 378669 - 379710" id="subclusterblast-3_q26_0_all" locus_tag="P773_RS0102175"  />
</g>
</svg>
