<svg version="1.1" preserveAspectRatio="none" width="800" y="0" xmlns:xlink="http://www.w3.org/1999/xlink" height="50" x="0" xmlns="http://www.w3.org/2000/svg" viewBox="0 0 800 50"  >
<g label="Query sequence" class="clusterblast-cluster"  >
<text class="clusterblast-acc" y="20" x="5"  >
Query sequence</text>
<line style="stroke-width:1; stroke:grey; " y1="35" x2="778.0" y2="35" x1="10"  />
<polygon class="clusterblast-orf" style="stroke-width:1; stroke:black; fill:white; " points="0,40 3,40 8,35 3,30 0,30 0,40 " description="&lt;b&gt;P773_RS0106855&lt;/b&gt;&lt;br&gt;hypothetical protein&lt;br&gt;Location: 1263416 - 1263665" id="subclusterblast-9_q0_0_all" locus_tag="P773_RS0106855"  />
<polygon class="clusterblast-orf" style="stroke-width:1; stroke:black; fill:white; " points="7,35 12,30 48,30 48,40 12,40 7,35 " description="&lt;b&gt;P773_RS0106860&lt;/b&gt;&lt;br&gt;two-component sensor histidine kinase&lt;br&gt;Location: 1263642 - 1264959" id="subclusterblast-9_q1_0_all" locus_tag="P773_RS0106860"  />
<polygon class="clusterblast-orf" style="stroke-width:1; stroke:black; fill:white; " points="47,35 52,30 69,30 69,40 52,40 47,35 " description="&lt;b&gt;P773_RS0106865&lt;/b&gt;&lt;br&gt;DNA-binding response regulator&lt;br&gt;Location: 1264939 - 1265617" id="subclusterblast-9_q2_0_all" locus_tag="P773_RS0106865"  />
<polygon class="clusterblast-orf" style="stroke-width:1; stroke:black; fill:white; " points="68,35 73,30 82,30 82,40 73,40 68,35 " description="&lt;b&gt;P773_RS0106870&lt;/b&gt;&lt;br&gt;MarR family transcriptional regulator&lt;br&gt;Location: 1265609 - 1266047" id="subclusterblast-9_q3_0_all" locus_tag="P773_RS0106870"  />
<polygon class="clusterblast-orf" style="stroke-width:1; stroke:black; fill:white; " points="84,40 107,40 112,35 107,30 84,30 84,40 " description="&lt;b&gt;P773_RS0106875&lt;/b&gt;&lt;br&gt;branched-chain amino acid aminotransferase&lt;br&gt;Location: 1266117 - 1266999" id="subclusterblast-9_q4_0_all" locus_tag="P773_RS0106875"  />
<polygon class="clusterblast-orf" style="stroke-width:1; stroke:black; fill:white; " points="112,35 117,30 130,30 130,40 117,40 112,35 " description="&lt;b&gt;P773_RS0106880&lt;/b&gt;&lt;br&gt;CDP-diacylglycerol--glycerol-3-phosphate 3-phosphatidyltransferase&lt;br&gt;Location: 1266995 - 1267580" id="subclusterblast-9_q5_0_all" locus_tag="P773_RS0106880"  />
<polygon class="clusterblast-orf" style="stroke-width:1; stroke:black; fill:white; " points="130,35 135,30 188,30 188,40 135,40 130,35 " description="&lt;b&gt;P773_RS0106885&lt;/b&gt;&lt;br&gt;excinuclease ABC subunit UvrC&lt;br&gt;Location: 1267582 - 1269418" id="subclusterblast-9_q6_0_all" locus_tag="P773_RS0106885"  />
<polygon class="clusterblast-orf" style="stroke-width:1; stroke:black; fill:white; " points="187,35 192,30 201,30 201,40 192,40 187,35 " description="&lt;b&gt;P773_RS0106890&lt;/b&gt;&lt;br&gt;dihydroneopterin aldolase&lt;br&gt;Location: 1269404 - 1269830" id="subclusterblast-9_q7_0_all" locus_tag="P773_RS0106890"  />
<polygon class="clusterblast-orf" style="stroke-width:1; stroke:black; fill:white; " points="200,35 205,30 224,30 224,40 205,40 200,35 " description="&lt;b&gt;P773_RS0106895&lt;/b&gt;&lt;br&gt;short chain dehydrogenase&lt;br&gt;Location: 1269826 - 1270573" id="subclusterblast-9_q8_0_all" locus_tag="P773_RS0106895"  />
<polygon class="clusterblast-orf" style="stroke-width:1; stroke:black; fill:white; " points="224,35 229,30 292,30 292,40 229,40 224,35 " description="&lt;b&gt;P773_RS0106900&lt;/b&gt;&lt;br&gt;excinuclease ABC subunit UvrB&lt;br&gt;Location: 1270588 - 1272757" id="subclusterblast-9_q9_0_all" locus_tag="P773_RS0106900"  />
<polygon class="clusterblast-orf" style="stroke-width:1; stroke:black; fill:white; " points="293,40 326,40 331,35 326,30 293,30 293,40 " description="&lt;b&gt;P773_RS0106905&lt;/b&gt;&lt;br&gt;pyridoxal phosphate-dependent aminotransferase&lt;br&gt;Location: 1272792 - 1273980" id="subclusterblast-9_q10_0_all" locus_tag="P773_RS0106905"  />
<polygon class="clusterblast-orf" style="stroke-width:1; stroke:black; fill:white; " points="331,40 346,40 351,35 346,30 331,30 331,40 " description="&lt;b&gt;P773_RS0106910&lt;/b&gt;&lt;br&gt;segregation protein B&lt;br&gt;Location: 1273983 - 1274637" id="subclusterblast-9_q11_0_all" locus_tag="P773_RS0106910"  />
<polygon class="clusterblast-orf" style="stroke-width:1; stroke:black; fill:white; " points="351,35 356,30 381,30 381,40 356,40 351,35 " description="&lt;b&gt;P773_RS0106915&lt;/b&gt;&lt;br&gt;ADP-ribosylglycohydrolase&lt;br&gt;Location: 1274639 - 1275587" id="subclusterblast-9_q12_0_all" locus_tag="P773_RS0106915"  />
<polygon class="clusterblast-orf" style="stroke-width:1; stroke:black; fill:white; " points="381,35 386,30 402,30 402,40 386,40 381,35 " description="&lt;b&gt;P773_RS0106920&lt;/b&gt;&lt;br&gt;oxidoreductase&lt;br&gt;Location: 1275592 - 1276267" id="subclusterblast-9_q13_0_all" locus_tag="P773_RS0106920"  />
<polygon class="clusterblast-orf" style="stroke-width:1; stroke:black; fill:white; " points="403,35 408,30 416,30 416,40 408,40 403,35 " description="&lt;b&gt;P773_RS0106925&lt;/b&gt;&lt;br&gt;hypothetical protein&lt;br&gt;Location: 1276292 - 1276706" id="subclusterblast-9_q14_0_all" locus_tag="P773_RS0106925"  />
<polygon class="clusterblast-orf" style="stroke-width:1; stroke:black; fill:white; " points="416,35 421,30 446,30 446,40 421,40 416,35 " description="&lt;b&gt;P773_RS0106930&lt;/b&gt;&lt;br&gt;thioredoxin-disulfide reductase&lt;br&gt;Location: 1276709 - 1277654" id="subclusterblast-9_q15_0_all" locus_tag="P773_RS0106930"  />
<polygon class="clusterblast-orf" style="stroke-width:1; stroke:black; fill:white; " points="446,40 471,40 476,35 471,30 446,30 446,40 " description="&lt;b&gt;P773_RS0106935&lt;/b&gt;&lt;br&gt;nucleoside-diphosphate sugar epimerase&lt;br&gt;Location: 1277675 - 1278620" id="subclusterblast-9_q16_0_all" locus_tag="P773_RS0106935"  />
<polygon class="clusterblast-orf" style="stroke-width:1; stroke:black; fill:white; " points="476,40 491,40 496,35 491,30 476,30 476,40 " description="&lt;b&gt;P773_RS0106940&lt;/b&gt;&lt;br&gt;hypothetical protein&lt;br&gt;Location: 1278619 - 1279282" id="subclusterblast-9_q17_0_all" locus_tag="P773_RS0106940"  />
<polygon class="clusterblast-orf" style="stroke-width:1; stroke:black; fill:white; " points="497,35 502,30 519,30 519,40 502,40 497,35 " description="&lt;b&gt;P773_RS0106945&lt;/b&gt;&lt;br&gt;20S proteasome subunits A/B&lt;br&gt;Location: 1279284 - 1280010" id="subclusterblast-9_q18_0_all" locus_tag="P773_RS0106945"  />
<polygon class="clusterblast-orf" style="stroke-width:1; stroke:black; fill:white; " points="523,40 563,40 568,35 563,30 523,30 523,40 " description="&lt;b&gt;P773_RS0106950&lt;/b&gt;&lt;br&gt;circularly permuted type 2 ATP-grasp protein&lt;br&gt;Location: 1280123 - 1281569" id="subclusterblast-9_q19_0_all" locus_tag="P773_RS0106950"  />
<polygon class="clusterblast-orf" style="stroke-width:1; stroke:black; fill:white; " points="568,35 573,30 669,30 669,40 573,40 568,35 " description="&lt;b&gt;P773_RS0106955&lt;/b&gt;&lt;br&gt;carbamoyl-phosphate synthase large subunit&lt;br&gt;Location: 1281574 - 1284799" id="subclusterblast-9_q20_0_all" locus_tag="P773_RS0106955"  />
<polygon class="clusterblast-orf" style="stroke-width:1; stroke:black; fill:white; " points="668,35 673,30 706,30 706,40 673,40 668,35 " description="&lt;b&gt;P773_RS0106960&lt;/b&gt;&lt;br&gt;carbamoyl-phosphate synthase small subunit&lt;br&gt;Location: 1284776 - 1285970" id="subclusterblast-9_q21_0_all" locus_tag="P773_RS0106960"  />
<polygon class="clusterblast-orf" style="stroke-width:1; stroke:black; fill:white; " points="710,40 719,40 724,35 719,30 710,30 710,40 " description="&lt;b&gt;P773_RS0106965&lt;/b&gt;&lt;br&gt;GatB/YqeY domain-containing protein&lt;br&gt;Location: 1286096 - 1286558" id="subclusterblast-9_q22_0_all" locus_tag="P773_RS0106965"  />
<polygon class="clusterblast-orf" style="stroke-width:1; stroke:black; fill:white; " points="724,40 775,40 780,35 775,30 724,30 724,40 " description="&lt;b&gt;P773_RS0106970&lt;/b&gt;&lt;br&gt;DNA primase&lt;br&gt;Location: 1286557 - 1288333" id="subclusterblast-9_q23_0_all" locus_tag="P773_RS0106970"  />
</g>
</svg>
