<svg width="800" x="0" version="1.1" viewBox="0 0 800 100" xmlns:xlink="http://www.w3.org/1999/xlink" preserveAspectRatio="none" y="0" xmlns="http://www.w3.org/2000/svg" height="100"  >
<g label="Query sequence" class="clusterblast-cluster"  >
<text x="5" class="clusterblast-acc" y="20"  >
Query sequence</text>
<line style="stroke-width:1; stroke:grey; " y1="35" y2="35" x2="778.0" x1="10"  />
<polygon style="stroke-width:1; fill:white; stroke:black; " id="knownclusterblast-4_q0_0_all" class="clusterblast-orf" description="&lt;b&gt;EV02_RS03975&lt;/b&gt;&lt;br&gt;ATPase AAA&lt;br&gt;Location: 422558 - 425315" locus_tag="EV02_RS03975" points="166,40 222,40 227,35 222,30 166,30 166,40 "  />
<polygon style="stroke-width:1; fill:white; stroke:black; " id="knownclusterblast-4_q1_0_all" class="clusterblast-orf" description="&lt;b&gt;EV02_RS03970&lt;/b&gt;&lt;br&gt;preprotein translocase subunit SecE&lt;br&gt;Location: 425377 - 425620" locus_tag="EV02_RS03970" points="228,40 229,40 234,35 229,30 228,30 228,40 "  />
<polygon style="stroke-width:1; fill:white; stroke:black; " id="knownclusterblast-4_q2_0_all" class="clusterblast-orf" description="&lt;b&gt;EV02_RS03965&lt;/b&gt;&lt;br&gt;transcription termination/antitermination protein NusG&lt;br&gt;Location: 425671 - 426283" locus_tag="EV02_RS03965" points="235,40 243,40 248,35 243,30 235,30 235,40 "  />
<polygon style="stroke-width:1; fill:#d81515; stroke:black; " id="knownclusterblast-4_q3_0_all" class="clusterblast-orf" description="&lt;b&gt;EV02_RS03960&lt;/b&gt;&lt;br&gt;50S ribosomal protein L11&lt;br&gt;Location: 426350 - 426776" locus_tag="EV02_RS03960" points="250,40 254,40 259,35 254,30 250,30 250,40 "  />
<polygon style="stroke-width:1; fill:#15d8d8; stroke:black; " id="knownclusterblast-4_q4_0_all" class="clusterblast-orf" description="&lt;b&gt;EV02_RS03955&lt;/b&gt;&lt;br&gt;50S ribosomal protein L1&lt;br&gt;Location: 426842 - 427550" locus_tag="EV02_RS03955" points="261,40 272,40 277,35 272,30 261,30 261,40 "  />
<polygon style="stroke-width:1; fill:white; stroke:black; " id="knownclusterblast-4_q5_0_all" class="clusterblast-orf" description="&lt;b&gt;EV02_RS03950&lt;/b&gt;&lt;br&gt;50S ribosomal protein L10&lt;br&gt;Location: 427740 - 428268" locus_tag="EV02_RS03950" points="281,40 288,40 293,35 288,30 281,30 281,40 "  />
<polygon style="stroke-width:1; fill:white; stroke:black; " id="knownclusterblast-4_q6_0_all" class="clusterblast-orf" description="&lt;b&gt;EV02_RS03945&lt;/b&gt;&lt;br&gt;50S ribosomal protein L7/L12&lt;br&gt;Location: 428296 - 428692" locus_tag="EV02_RS03945" points="293,40 297,40 302,35 297,30 293,30 293,40 "  />
<polygon style="stroke-width:1; fill:white; stroke:black; " id="knownclusterblast-4_q7_0_all" class="clusterblast-orf" description="&lt;b&gt;EV02_RS03940&lt;/b&gt;&lt;br&gt;ribonuclease HI&lt;br&gt;Location: 428739 - 429468" locus_tag="EV02_RS03940" points="303,40 314,40 319,35 314,30 303,30 303,40 "  />
<polygon style="stroke-width:1; fill:white; stroke:black; " id="knownclusterblast-4_q8_0_all" class="clusterblast-orf" description="&lt;b&gt;EV02_RS03935&lt;/b&gt;&lt;br&gt;quinone-dependent dihydroorotate dehydrogenase&lt;br&gt;Location: 429464 - 430634" locus_tag="EV02_RS03935" points="319,40 340,40 345,35 340,30 319,30 319,40 "  />
<polygon style="stroke-width:1; fill:white; stroke:black; " id="knownclusterblast-4_q9_0_all" class="clusterblast-orf" description="&lt;b&gt;EV02_RS03930&lt;/b&gt;&lt;br&gt;aspartate aminotransferase&lt;br&gt;Location: 430643 - 431765" locus_tag="EV02_RS03930" points="345,40 365,40 370,35 365,30 345,30 345,40 "  />
<polygon style="stroke-width:1; fill:white; stroke:black; " id="knownclusterblast-4_q10_0_all" class="clusterblast-orf" description="&lt;b&gt;EV02_RS03925&lt;/b&gt;&lt;br&gt;UDP-N-acetylglucosamine--N-acetylmuramyl- (pentapeptide) pyrophosphoryl-undecaprenol N-acetylglucosamine transferase&lt;br&gt;Location: 431743 - 432835" locus_tag="EV02_RS03925" points="370,35 375,30 394,30 394,40 375,40 370,35 "  />
<polygon style="stroke-width:1; fill:white; stroke:black; " id="knownclusterblast-4_q11_0_all" class="clusterblast-orf" description="&lt;b&gt;EV02_RS03920&lt;/b&gt;&lt;br&gt;hypothetical protein&lt;br&gt;Location: 432876 - 433602" locus_tag="EV02_RS03920" points="395,40 406,40 411,35 406,30 395,30 395,40 "  />
<polygon style="stroke-width:1; fill:white; stroke:black; " id="knownclusterblast-4_q12_0_all" class="clusterblast-orf" description="&lt;b&gt;EV02_RS03915&lt;/b&gt;&lt;br&gt;phosphoglycerate kinase&lt;br&gt;Location: 433603 - 434812" locus_tag="EV02_RS03915" points="411,35 416,30 438,30 438,40 416,40 411,35 "  />
<polygon style="stroke-width:1; fill:white; stroke:black; " id="knownclusterblast-4_q13_0_all" class="clusterblast-orf" description="&lt;b&gt;EV02_RS03910&lt;/b&gt;&lt;br&gt;ribosome biogenesis GTPase YlqF&lt;br&gt;Location: 435024 - 435897" locus_tag="EV02_RS03910" points="443,40 457,40 462,35 457,30 443,30 443,40 "  />
<polygon style="stroke-width:1; fill:white; stroke:black; " id="knownclusterblast-4_q14_0_all" class="clusterblast-orf" description="&lt;b&gt;EV02_RS03905&lt;/b&gt;&lt;br&gt;RluA family pseudouridine synthase&lt;br&gt;Location: 435887 - 436847" locus_tag="EV02_RS03905" points="462,40 478,40 483,35 478,30 462,30 462,40 "  />
<polygon style="stroke-width:1; fill:white; stroke:black; " id="knownclusterblast-4_q15_0_all" class="clusterblast-orf" description="&lt;b&gt;EV02_RS03900&lt;/b&gt;&lt;br&gt;ABC transporter ATP-binding protein&lt;br&gt;Location: 436839 - 438438" locus_tag="EV02_RS03900" points="483,35 488,30 519,30 519,40 488,40 483,35 "  />
<polygon style="stroke-width:1; fill:white; stroke:black; " id="knownclusterblast-4_q16_0_all" class="clusterblast-orf" description="&lt;b&gt;EV02_RS03895&lt;/b&gt;&lt;br&gt;bifunctional (p)ppGpp synthetase/guanosine-3',5'-bis(diphosphate) 3'-pyrophosphohydrolase&lt;br&gt;Location: 438492 - 440802" locus_tag="EV02_RS03895" points="520,40 566,40 571,35 566,30 520,30 520,40 "  />
<polygon style="stroke-width:1; fill:white; stroke:black; " id="knownclusterblast-4_q17_0_all" class="clusterblast-orf" description="&lt;b&gt;EV02_RS03890&lt;/b&gt;&lt;br&gt;DUF2062 domain-containing protein&lt;br&gt;Location: 440820 - 441264" locus_tag="EV02_RS03890" points="572,35 577,30 582,30 582,40 577,40 572,35 "  />
<polygon style="stroke-width:1; fill:white; stroke:black; " id="knownclusterblast-4_q18_0_all" class="clusterblast-orf" description="&lt;b&gt;EV02_RS03885&lt;/b&gt;&lt;br&gt;tRNA uridine-5-carboxymethylaminomethyl(34) synthesis GTPase MnmE&lt;br&gt;Location: 441330 - 442713" locus_tag="EV02_RS03885" points="583,40 609,40 614,35 609,30 583,30 583,40 "  />
</g>
<g description="BGC0000615_c1: TP-1161 (8% of genes show similarity), thiopeptide" label="BGC0000615" class="clusterblast-cluster"  >
<text x="5" class="clusterblast-acc" y="70"  >
<a xlink:href="https://mibig.secondarymetabolites.org/go/BGC0000615/1" target="_blank">BGC0000615</a>:                                                                          TP-1161 (8% of genes show similarity), thiopeptide</text>
<line style="stroke-width:1; stroke:grey; " y1="85" y2="85" x2="778.0" x1="10"  />
</g>
<g id="a4_000"  >
<polygon style="stroke-width:1; fill:#d81515; stroke:black; " id="knownclusterblast-4_all_4_1_0" class="clusterblast-orf" description="&lt;b&gt;ADO67763.1&lt;/b&gt;&lt;br&gt;Tpa1&lt;br&gt;Location: 1 - 429&lt;br&gt;&lt;br&gt;&lt;b&gt;BlastP hit with EV02_RS03960&lt;/b&gt;&lt;br&gt;Percentage identity: 61&lt;br&gt;Percentage coverage: 97&lt;br&gt;BLAST bit score: 175&lt;br&gt;E-value: 6.1e-44" locus_tag="ADO67763.1" points="0,90 4,90 9,85 4,80 0,80 0,90 "  />
</g>
<g id="a4_001"  >
<polygon style="stroke-width:1; fill:#15d8d8; stroke:black; " id="knownclusterblast-4_all_4_1_1" class="clusterblast-orf" description="&lt;b&gt;ADO67764.1&lt;/b&gt;&lt;br&gt;Tpa2&lt;br&gt;Location: 518 - 1195&lt;br&gt;&lt;br&gt;&lt;b&gt;BlastP hit with EV02_RS03955&lt;/b&gt;&lt;br&gt;Percentage identity: 48&lt;br&gt;Percentage coverage: 95&lt;br&gt;BLAST bit score: 230&lt;br&gt;E-value: 2.7e-60" locus_tag="ADO67764.1" points="11,90 21,90 26,85 21,80 11,80 11,90 "  />
</g>
<g id="a4_002"  >
<polygon style="stroke-width:1; fill:white; stroke:black; " id="knownclusterblast-4_all_4_1_2" class="clusterblast-orf" description="&lt;b&gt;ADO67765.1&lt;/b&gt;&lt;br&gt;Tpa3&lt;br&gt;Location: 1603 - 2130" locus_tag="ADO67765.1" points="35,90 42,90 47,85 42,80 35,80 35,90 "  />
</g>
<g id="a4_003"  >
<polygon style="stroke-width:1; fill:white; stroke:black; " id="knownclusterblast-4_all_4_1_3" class="clusterblast-orf" description="&lt;b&gt;ADO67766.1&lt;/b&gt;&lt;br&gt;Tpa4&lt;br&gt;Location: 2227 - 2616" locus_tag="ADO67766.1" points="49,90 53,90 58,85 53,80 49,80 49,90 "  />
</g>
<g id="a4_004"  >
<polygon style="stroke-width:1; fill:white; stroke:black; " id="knownclusterblast-4_all_4_1_4" class="clusterblast-orf" description="&lt;b&gt;ADO67767.1&lt;/b&gt;&lt;br&gt;Tpa5&lt;br&gt;Location: 3355 - 6822" locus_tag="ADO67767.1" points="74,90 146,90 151,85 146,80 74,80 74,90 "  />
</g>
<g id="a4_005"  >
<polygon style="stroke-width:1; fill:white; stroke:black; " id="knownclusterblast-4_all_4_1_5" class="clusterblast-orf" description="&lt;b&gt;ADO67768.1&lt;/b&gt;&lt;br&gt;Tpa6&lt;br&gt;Location: 6857 - 10735" locus_tag="ADO67768.1" points="152,90 233,90 238,85 233,80 152,80 152,90 "  />
</g>
<g id="a4_006"  >
<polygon style="stroke-width:1; fill:white; stroke:black; " id="knownclusterblast-4_all_4_1_6" class="clusterblast-orf" description="&lt;b&gt;ADO67769.1&lt;/b&gt;&lt;br&gt;hypothetical protein&lt;br&gt;Location: 10852 - 14034" locus_tag="ADO67769.1" points="241,90 307,90 312,85 307,80 241,80 241,90 "  />
</g>
<g id="a4_007"  >
<polygon style="stroke-width:1; fill:white; stroke:black; " id="knownclusterblast-4_all_4_1_7" class="clusterblast-orf" description="&lt;b&gt;ADO67770.1&lt;/b&gt;&lt;br&gt;TpaA&lt;br&gt;Location: 14405 - 14551" locus_tag="ADO67770.1" points="320,90 323,85 320,80 320,90 "  />
</g>
<g id="a4_008"  >
<polygon style="stroke-width:1; fill:white; stroke:black; " id="knownclusterblast-4_all_4_1_8" class="clusterblast-orf" description="&lt;b&gt;ADO67771.1&lt;/b&gt;&lt;br&gt;hypothetical protein&lt;br&gt;Location: 14689 - 15756" locus_tag="ADO67771.1" points="326,90 345,90 350,85 345,80 326,80 326,90 "  />
</g>
<g id="a4_009"  >
<polygon style="stroke-width:1; fill:white; stroke:black; " id="knownclusterblast-4_all_4_1_9" class="clusterblast-orf" description="&lt;b&gt;ADO67772.1&lt;/b&gt;&lt;br&gt;TpaC&lt;br&gt;Location: 15806 - 17152" locus_tag="ADO67772.1" points="351,90 376,90 381,85 376,80 351,80 351,90 "  />
</g>
<g id="a4_0010"  >
<polygon style="stroke-width:1; fill:white; stroke:black; " id="knownclusterblast-4_all_4_1_10" class="clusterblast-orf" description="&lt;b&gt;ADO67773.1&lt;/b&gt;&lt;br&gt;TpaD&lt;br&gt;Location: 17180 - 17782" locus_tag="ADO67773.1" points="381,90 390,90 395,85 390,80 381,80 381,90 "  />
</g>
<g id="a4_0011"  >
<polygon style="stroke-width:1; fill:white; stroke:black; " id="knownclusterblast-4_all_4_1_11" class="clusterblast-orf" description="&lt;b&gt;ADO67774.1&lt;/b&gt;&lt;br&gt;TpaE&lt;br&gt;Location: 17794 - 19434" locus_tag="ADO67774.1" points="395,90 427,90 432,85 427,80 395,80 395,90 "  />
</g>
<g id="a4_0012"  >
<polygon style="stroke-width:1; fill:white; stroke:black; " id="knownclusterblast-4_all_4_1_12" class="clusterblast-orf" description="&lt;b&gt;ADO67775.1&lt;/b&gt;&lt;br&gt;TpaF&lt;br&gt;Location: 19424 - 20125" locus_tag="ADO67775.1" points="431,90 442,90 447,85 442,80 431,80 431,90 "  />
</g>
<g id="a4_0013"  >
<polygon style="stroke-width:1; fill:white; stroke:black; " id="knownclusterblast-4_all_4_1_13" class="clusterblast-orf" description="&lt;b&gt;ADO67776.1&lt;/b&gt;&lt;br&gt;hypothetical protein&lt;br&gt;Location: 20217 - 22031" locus_tag="ADO67776.1" points="449,90 484,90 489,85 484,80 449,80 449,90 "  />
</g>
<g id="a4_0014"  >
<polygon style="stroke-width:1; fill:white; stroke:black; " id="knownclusterblast-4_all_4_1_14" class="clusterblast-orf" description="&lt;b&gt;ADO67777.1&lt;/b&gt;&lt;br&gt;TpaH&lt;br&gt;Location: 22028 - 23893" locus_tag="ADO67777.1" points="489,90 526,90 531,85 526,80 489,80 489,90 "  />
</g>
<g id="a4_0015"  >
<polygon style="stroke-width:1; fill:white; stroke:black; " id="knownclusterblast-4_all_4_1_15" class="clusterblast-orf" description="&lt;b&gt;ADO67778.1&lt;/b&gt;&lt;br&gt;TpaI&lt;br&gt;Location: 24008 - 24817" locus_tag="ADO67778.1" points="533,85 538,80 551,80 551,90 538,90 533,85 "  />
</g>
<g id="a4_0016"  >
<polygon style="stroke-width:1; fill:white; stroke:black; " id="knownclusterblast-4_all_4_1_16" class="clusterblast-orf" description="&lt;b&gt;ADO67779.1&lt;/b&gt;&lt;br&gt;TpaJ&lt;br&gt;Location: 24879 - 26093" locus_tag="ADO67779.1" points="553,85 558,80 580,80 580,90 558,90 553,85 "  />
</g>
<g id="a4_0017"  >
<polygon style="stroke-width:1; fill:white; stroke:black; " id="knownclusterblast-4_all_4_1_17" class="clusterblast-orf" description="&lt;b&gt;ADO67780.1&lt;/b&gt;&lt;br&gt;TpaX&lt;br&gt;Location: 26463 - 26609" locus_tag="ADO67780.1" points="588,90 591,85 588,80 588,90 "  />
</g>
<g id="a4_0018"  >
<polygon style="stroke-width:1; fill:white; stroke:black; " id="knownclusterblast-4_all_4_1_18" class="clusterblast-orf" description="&lt;b&gt;ADO67781.1&lt;/b&gt;&lt;br&gt;TpaK&lt;br&gt;Location: 26673 - 29462" locus_tag="ADO67781.1" points="593,90 650,90 655,85 650,80 593,80 593,90 "  />
</g>
<g id="a4_0019"  >
<polygon style="stroke-width:1; fill:white; stroke:black; " id="knownclusterblast-4_all_4_1_19" class="clusterblast-orf" description="&lt;b&gt;ADO67782.1&lt;/b&gt;&lt;br&gt;TpaL&lt;br&gt;Location: 29497 - 30369" locus_tag="ADO67782.1" points="655,90 670,90 675,85 670,80 655,80 655,90 "  />
</g>
<g id="a4_0020"  >
<polygon style="stroke-width:1; fill:white; stroke:black; " id="knownclusterblast-4_all_4_1_20" class="clusterblast-orf" description="&lt;b&gt;ADO67783.1&lt;/b&gt;&lt;br&gt;Tpa8&lt;br&gt;Location: 30799 - 31170" locus_tag="ADO67783.1" points="684,90 688,90 693,85 688,80 684,80 684,90 "  />
</g>
<g id="a4_0021"  >
<polygon style="stroke-width:1; fill:white; stroke:black; " id="knownclusterblast-4_all_4_1_21" class="clusterblast-orf" description="&lt;b&gt;ADO67784.1&lt;/b&gt;&lt;br&gt;Tpa9&lt;br&gt;Location: 31173 - 31643" locus_tag="ADO67784.1" points="693,90 698,90 703,85 698,80 693,80 693,90 "  />
</g>
<g id="a4_0022"  >
<polygon style="stroke-width:1; fill:white; stroke:black; " id="knownclusterblast-4_all_4_1_22" class="clusterblast-orf" description="&lt;b&gt;ADO67785.1&lt;/b&gt;&lt;br&gt;Tpa10&lt;br&gt;Location: 31692 - 33803" locus_tag="ADO67785.1" points="704,90 746,90 751,85 746,80 704,80 704,90 "  />
</g>
<g id="a4_0023"  >
<polygon style="stroke-width:1; fill:white; stroke:black; " id="knownclusterblast-4_all_4_1_23" class="clusterblast-orf" description="&lt;b&gt;ADO67786.1&lt;/b&gt;&lt;br&gt;Tpa11&lt;br&gt;Location: 33887 - 35080" locus_tag="ADO67786.1" points="753,90 775,90 780,85 775,80 753,80 753,90 "  />
</g>
</svg>
