<svg width="800" x="0" version="1.1" viewBox="0 0 800 50" xmlns:xlink="http://www.w3.org/1999/xlink" preserveAspectRatio="none" y="0" xmlns="http://www.w3.org/2000/svg" height="50"  >
<g label="Query sequence" class="clusterblast-cluster"  >
<text x="5" class="clusterblast-acc" y="20"  >
Query sequence</text>
<line style="stroke-width:1; stroke:grey; " y1="35" y2="35" x2="778.0" x1="10"  />
<polygon style="stroke-width:1; fill:white; stroke:black; " id="knownclusterblast-1_q0_0_all" class="clusterblast-orf" description="&lt;b&gt;EV02_RS06530&lt;/b&gt;&lt;br&gt;cysteine desulfuration protein SufE&lt;br&gt;Location: 349945 - 350365" locus_tag="EV02_RS06530" points="0,35 5,30 16,30 16,40 5,40 0,35 "  />
<polygon style="stroke-width:1; fill:white; stroke:black; " id="knownclusterblast-1_q1_0_all" class="clusterblast-orf" description="&lt;b&gt;EV02_RS06525&lt;/b&gt;&lt;br&gt;5-formyltetrahydrofolate cyclo-ligase&lt;br&gt;Location: 350401 - 350959" locus_tag="EV02_RS06525" points="18,35 23,30 39,30 39,40 23,40 18,35 "  />
<polygon style="stroke-width:1; fill:white; stroke:black; " id="knownclusterblast-1_q2_0_all" class="clusterblast-orf" description="&lt;b&gt;EV02_RS06520&lt;/b&gt;&lt;br&gt;crossover junction endodeoxyribonuclease RuvC&lt;br&gt;Location: 350968 - 351442" locus_tag="EV02_RS06520" points="39,35 44,30 58,30 58,40 44,40 39,35 "  />
<polygon style="stroke-width:1; fill:white; stroke:black; " id="knownclusterblast-1_q3_0_all" class="clusterblast-orf" description="&lt;b&gt;EV02_RS06515&lt;/b&gt;&lt;br&gt;magnesium chelatase ATPase subunit I&lt;br&gt;Location: 351447 - 352536" locus_tag="EV02_RS06515" points="58,35 63,30 100,30 100,40 63,40 58,35 "  />
<polygon style="stroke-width:1; fill:white; stroke:black; " id="knownclusterblast-1_q4_0_all" class="clusterblast-orf" description="&lt;b&gt;EV02_RS06510&lt;/b&gt;&lt;br&gt;rRNA methyltransferase&lt;br&gt;Location: 352653 - 353406" locus_tag="EV02_RS06510" points="105,35 110,30 134,30 134,40 110,40 105,35 "  />
<polygon style="stroke-width:1; fill:white; stroke:black; " id="knownclusterblast-1_q5_0_all" class="clusterblast-orf" description="&lt;b&gt;EV02_RS06505&lt;/b&gt;&lt;br&gt;cytochrome c&lt;br&gt;Location: 353402 - 353789" locus_tag="EV02_RS06505" points="134,35 139,30 149,30 149,40 139,40 134,35 "  />
<polygon style="stroke-width:1; fill:white; stroke:black; " id="knownclusterblast-1_q6_0_all" class="clusterblast-orf" description="&lt;b&gt;EV02_RS0108630&lt;/b&gt;&lt;br&gt;cytochrome b6-f complex subunit 5&lt;br&gt;Location: 353844 - 353964" locus_tag="EV02_RS0108630" points="151,40 155,35 151,30 151,40 "  />
<polygon style="stroke-width:1; fill:white; stroke:black; " id="knownclusterblast-1_q7_0_all" class="clusterblast-orf" description="&lt;b&gt;EV02_RS06500&lt;/b&gt;&lt;br&gt;16S rRNA (guanine(966)-N(2))-methyltransferase RsmD&lt;br&gt;Location: 353940 - 354540" locus_tag="EV02_RS06500" points="154,35 159,30 178,30 178,40 159,40 154,35 "  />
<polygon style="stroke-width:1; fill:white; stroke:black; " id="knownclusterblast-1_q8_0_all" class="clusterblast-orf" description="&lt;b&gt;EV02_RS06495&lt;/b&gt;&lt;br&gt;imidazole glycerol phosphate synthase subunit HisH&lt;br&gt;Location: 354553 - 355171" locus_tag="EV02_RS06495" points="178,35 183,30 202,30 202,40 183,40 178,35 "  />
<polygon style="stroke-width:1; fill:white; stroke:black; " id="knownclusterblast-1_q9_0_all" class="clusterblast-orf" description="&lt;b&gt;EV02_RS06490&lt;/b&gt;&lt;br&gt;thioredoxin&lt;br&gt;Location: 355182 - 355506" locus_tag="EV02_RS06490" points="202,35 207,30 215,30 215,40 207,40 202,35 "  />
<polygon style="stroke-width:1; fill:white; stroke:black; " id="knownclusterblast-1_q10_0_all" class="clusterblast-orf" description="&lt;b&gt;EV02_RS0108635&lt;/b&gt;&lt;br&gt;GuaB3 family IMP dehydrogenase-related protein&lt;br&gt;Location: 355736 - 356900" locus_tag="EV02_RS0108635" points="224,35 229,30 269,30 269,40 229,40 224,35 "  />
<polygon style="stroke-width:1; fill:white; stroke:black; " id="knownclusterblast-1_q11_0_all" class="clusterblast-orf" description="&lt;b&gt;EV02_RS06485&lt;/b&gt;&lt;br&gt;DNA gyrase subunit A&lt;br&gt;Location: 357079 - 359677" locus_tag="EV02_RS06485" points="276,40 371,40 376,35 371,30 276,30 276,40 "  />
<polygon style="stroke-width:1; fill:white; stroke:black; " id="knownclusterblast-1_q12_0_all" class="clusterblast-orf" description="&lt;b&gt;EV02_RS06480&lt;/b&gt;&lt;br&gt;lycopene cyclase family protein&lt;br&gt;Location: 359701 - 360913" locus_tag="EV02_RS06480" points="377,40 419,40 424,35 419,30 377,30 377,40 "  />
<polygon style="stroke-width:1; fill:white; stroke:black; " id="knownclusterblast-1_q13_0_all" class="clusterblast-orf" description="&lt;b&gt;EV02_RS06475&lt;/b&gt;&lt;br&gt;DUF1957 domain-containing protein&lt;br&gt;Location: 360918 - 362502" locus_tag="EV02_RS06475" points="424,35 429,30 485,30 485,40 429,40 424,35 "  />
<polygon style="stroke-width:1; fill:white; stroke:black; " id="knownclusterblast-1_q14_0_all" class="clusterblast-orf" description="&lt;b&gt;EV02_RS06470&lt;/b&gt;&lt;br&gt;2-isopropylmalate synthase&lt;br&gt;Location: 362723 - 364364" locus_tag="EV02_RS06470" points="494,40 552,40 557,35 552,30 494,30 494,40 "  />
<polygon style="stroke-width:1; fill:white; stroke:black; " id="knownclusterblast-1_q15_0_all" class="clusterblast-orf" description="&lt;b&gt;EV02_RS06465&lt;/b&gt;&lt;br&gt;hypothetical protein&lt;br&gt;Location: 364446 - 364839" locus_tag="EV02_RS06465" points="561,40 571,40 576,35 571,30 561,30 561,40 "  />
<polygon style="stroke-width:1; fill:white; stroke:black; " id="knownclusterblast-1_q16_0_all" class="clusterblast-orf" description="&lt;b&gt;EV02_RS06460&lt;/b&gt;&lt;br&gt;phosphodiesterase&lt;br&gt;Location: 364848 - 366324" locus_tag="EV02_RS06460" points="576,35 581,30 633,30 633,40 581,40 576,35 "  />
<polygon style="stroke-width:1; fill:white; stroke:black; " id="knownclusterblast-1_q17_0_all" class="clusterblast-orf" description="&lt;b&gt;EV02_RS06455&lt;/b&gt;&lt;br&gt;bifunctional methylenetetrahydrofolate dehydrogenase/methenyltetrahydrofolate cyclohydrolase FolD&lt;br&gt;Location: 366398 - 367295" locus_tag="EV02_RS06455" points="636,40 666,40 671,35 666,30 636,30 636,40 "  />
<polygon style="stroke-width:1; fill:white; stroke:black; " id="knownclusterblast-1_q18_0_all" class="clusterblast-orf" description="&lt;b&gt;EV02_RS06450&lt;/b&gt;&lt;br&gt;polyprenyl synthetase family protein&lt;br&gt;Location: 367331 - 368234" locus_tag="EV02_RS06450" points="672,40 702,40 707,35 702,30 672,30 672,40 "  />
<polygon style="stroke-width:1; fill:white; stroke:black; " id="knownclusterblast-1_q19_0_all" class="clusterblast-orf" description="&lt;b&gt;EV02_RS06445&lt;/b&gt;&lt;br&gt;divergent PAP2 family protein&lt;br&gt;Location: 368247 - 368727" locus_tag="EV02_RS06445" points="708,40 721,40 726,35 721,30 708,30 708,40 "  />
<polygon style="stroke-width:1; fill:white; stroke:black; " id="knownclusterblast-1_q20_0_all" class="clusterblast-orf" description="&lt;b&gt;EV02_RS06440&lt;/b&gt;&lt;br&gt;cobyrinate a,c-diamide synthase&lt;br&gt;Location: 368723 - 370115" locus_tag="EV02_RS06440" points="726,35 731,30 780,30 780,40 731,40 726,35 "  />
</g>
</svg>
