<svg width="800" x="0" version="1.1" viewBox="0 0 800 50" xmlns:xlink="http://www.w3.org/1999/xlink" preserveAspectRatio="none" y="0" xmlns="http://www.w3.org/2000/svg" height="50"  >
<g label="Query sequence" class="clusterblast-cluster"  >
<text x="5" class="clusterblast-acc" y="20"  >
Query sequence</text>
<line style="stroke-width:1; stroke:grey; " y1="35" y2="35" x2="778.0" x1="10"  />
<polygon style="stroke-width:1; fill:white; stroke:black; " id="knownclusterblast-1_q0_0_all" class="clusterblast-orf" description="&lt;b&gt;EV02_RS06115&lt;/b&gt;&lt;br&gt;O-acetylhomoserine aminocarboxypropyltransferase/cysteine synthase&lt;br&gt;Location: 15362 - 16691" locus_tag="EV02_RS06115" points="0,35 5,30 24,30 24,40 5,40 0,35 "  />
<polygon style="stroke-width:1; fill:white; stroke:black; " id="knownclusterblast-1_q1_0_all" class="clusterblast-orf" description="&lt;b&gt;EV02_RS06110&lt;/b&gt;&lt;br&gt;hypothetical protein&lt;br&gt;Location: 16763 - 17423" locus_tag="EV02_RS06110" points="25,35 30,30 37,30 37,40 30,40 25,35 "  />
<polygon style="stroke-width:1; fill:white; stroke:black; " id="knownclusterblast-1_q2_0_all" class="clusterblast-orf" description="&lt;b&gt;EV02_RS06105&lt;/b&gt;&lt;br&gt;hypothetical protein&lt;br&gt;Location: 17515 - 19024" locus_tag="EV02_RS06105" points="39,35 44,30 66,30 66,40 44,40 39,35 "  />
<polygon style="stroke-width:1; fill:white; stroke:black; " id="knownclusterblast-1_q3_0_all" class="clusterblast-orf" description="&lt;b&gt;EV02_RS06100&lt;/b&gt;&lt;br&gt;glucosylglycerol 3-phosphatase&lt;br&gt;Location: 19191 - 20412" locus_tag="EV02_RS06100" points="69,40 86,40 91,35 86,30 69,30 69,40 "  />
<polygon style="stroke-width:1; fill:white; stroke:black; " id="knownclusterblast-1_q4_0_all" class="clusterblast-orf" description="&lt;b&gt;EV02_RS06095&lt;/b&gt;&lt;br&gt;DUF3641 domain-containing protein&lt;br&gt;Location: 20451 - 21384" locus_tag="EV02_RS06095" points="92,40 104,40 109,35 104,30 92,30 92,40 "  />
<polygon style="stroke-width:1; fill:white; stroke:black; " id="knownclusterblast-1_q5_0_all" class="clusterblast-orf" description="&lt;b&gt;EV02_RS06090&lt;/b&gt;&lt;br&gt;transcriptional repressor&lt;br&gt;Location: 21390 - 21843" locus_tag="EV02_RS06090" points="109,35 114,30 117,30 117,40 114,40 109,35 "  />
<polygon style="stroke-width:1; fill:white; stroke:black; " id="knownclusterblast-1_q6_0_all" class="clusterblast-orf" description="&lt;b&gt;EV02_RS06085&lt;/b&gt;&lt;br&gt;hydrolase&lt;br&gt;Location: 21963 - 22530" locus_tag="EV02_RS06085" points="119,40 125,40 130,35 125,30 119,30 119,40 "  />
<polygon style="stroke-width:1; fill:white; stroke:black; " id="knownclusterblast-1_q7_0_all" class="clusterblast-orf" description="&lt;b&gt;EV02_RS06080&lt;/b&gt;&lt;br&gt;mechanosensitive ion channel protein MscS&lt;br&gt;Location: 22607 - 23639" locus_tag="EV02_RS06080" points="131,40 145,40 150,35 145,30 131,30 131,40 "  />
<polygon style="stroke-width:1; fill:white; stroke:black; " id="knownclusterblast-1_q8_0_all" class="clusterblast-orf" description="&lt;b&gt;EV02_RS06075&lt;/b&gt;&lt;br&gt;light-dependent protochlorophyllide oxido-reductase&lt;br&gt;Location: 23609 - 24611" locus_tag="EV02_RS06075" points="149,35 154,30 167,30 167,40 154,40 149,35 "  />
<polygon style="stroke-width:1; fill:white; stroke:black; " id="knownclusterblast-1_q9_0_all" class="clusterblast-orf" description="&lt;b&gt;EV02_RS06070&lt;/b&gt;&lt;br&gt;lycopene cyclase family protein&lt;br&gt;Location: 24833 - 26117" locus_tag="EV02_RS06070" points="171,40 190,40 195,35 190,30 171,30 171,40 "  />
<polygon style="stroke-width:1; fill:white; stroke:black; " id="knownclusterblast-1_q10_0_all" class="clusterblast-orf" description="&lt;b&gt;EV02_RS06065&lt;/b&gt;&lt;br&gt;short-chain dehydrogenase&lt;br&gt;Location: 26124 - 26832" locus_tag="EV02_RS06065" points="195,40 203,40 208,35 203,30 195,30 195,40 "  />
<polygon style="stroke-width:1; fill:white; stroke:black; " id="knownclusterblast-1_q11_0_all" class="clusterblast-orf" description="&lt;b&gt;EV02_RS06060&lt;/b&gt;&lt;br&gt;NADH-ubiquinone oxidoreductase&lt;br&gt;Location: 26828 - 27371" locus_tag="EV02_RS06060" points="208,35 213,30 217,30 217,40 213,40 208,35 "  />
<polygon style="stroke-width:1; fill:white; stroke:black; " id="knownclusterblast-1_q12_0_all" class="clusterblast-orf" description="&lt;b&gt;EV02_RS06055&lt;/b&gt;&lt;br&gt;glutathione S-transferase&lt;br&gt;Location: 27445 - 28105" locus_tag="EV02_RS06055" points="219,40 226,40 231,35 226,30 219,30 219,40 "  />
<polygon style="stroke-width:1; fill:white; stroke:black; " id="knownclusterblast-1_q13_0_all" class="clusterblast-orf" description="&lt;b&gt;EV02_RS06050&lt;/b&gt;&lt;br&gt;hypothetical protein&lt;br&gt;Location: 28101 - 28359" locus_tag="EV02_RS06050" points="231,35 235,30 235,40 231,35 "  />
<polygon style="stroke-width:1; fill:white; stroke:black; " id="knownclusterblast-1_q14_0_all" class="clusterblast-orf" description="&lt;b&gt;EV02_RS06045&lt;/b&gt;&lt;br&gt;sodium:solute symporter&lt;br&gt;Location: 28392 - 29784" locus_tag="EV02_RS06045" points="236,35 241,30 261,30 261,40 241,40 236,35 "  />
<polygon style="stroke-width:1; fill:white; stroke:black; " id="knownclusterblast-1_q15_0_all" class="clusterblast-orf" description="&lt;b&gt;EV02_RS06040&lt;/b&gt;&lt;br&gt;chlorophyll a/b binding light-harvesting protein&lt;br&gt;Location: 29872 - 30931" locus_tag="EV02_RS06040" points="263,35 268,30 282,30 282,40 268,40 263,35 "  />
<polygon style="stroke-width:1; fill:white; stroke:black; " id="knownclusterblast-1_q16_0_all" class="clusterblast-orf" description="&lt;b&gt;EV02_RS06035&lt;/b&gt;&lt;br&gt;hypothetical protein&lt;br&gt;Location: 31481 - 31715" locus_tag="EV02_RS06035" points="292,35 296,30 296,40 292,35 "  />
<polygon style="stroke-width:1; fill:white; stroke:black; " id="knownclusterblast-1_q17_0_all" class="clusterblast-orf" description="&lt;b&gt;EV02_RS06030&lt;/b&gt;&lt;br&gt;TIGR02450 family Trp-rich protein&lt;br&gt;Location: 31851 - 32151" locus_tag="EV02_RS06030" points="299,35 304,30 304,30 304,40 304,40 299,35 "  />
<polygon style="stroke-width:1; fill:white; stroke:black; " id="knownclusterblast-1_q18_0_all" class="clusterblast-orf" description="&lt;b&gt;EV02_RS06025&lt;/b&gt;&lt;br&gt;hypothetical protein&lt;br&gt;Location: 32153 - 32444" locus_tag="EV02_RS06025" points="304,35 309,30 309,30 309,40 309,40 304,35 "  />
<polygon style="stroke-width:1; fill:white; stroke:black; " id="knownclusterblast-1_q19_0_all" class="clusterblast-orf" description="&lt;b&gt;EV02_RS06020&lt;/b&gt;&lt;br&gt;histidine--tRNA ligase&lt;br&gt;Location: 32443 - 33721" locus_tag="EV02_RS06020" points="309,35 314,30 333,30 333,40 314,40 309,35 "  />
<polygon style="stroke-width:1; fill:white; stroke:black; " id="knownclusterblast-1_q20_0_all" class="clusterblast-orf" description="&lt;b&gt;EV02_RS06015&lt;/b&gt;&lt;br&gt;GLTT repeat protein&lt;br&gt;Location: 33819 - 34242" locus_tag="EV02_RS06015" points="334,40 337,40 342,35 337,30 334,30 334,40 "  />
<polygon style="stroke-width:1; fill:white; stroke:black; " id="knownclusterblast-1_q21_0_all" class="clusterblast-orf" description="&lt;b&gt;EV02_RS06010&lt;/b&gt;&lt;br&gt;3'-5' exonuclease&lt;br&gt;Location: 34271 - 35051" locus_tag="EV02_RS06010" points="343,35 348,30 357,30 357,40 348,40 343,35 "  />
<polygon style="stroke-width:1; fill:white; stroke:black; " id="knownclusterblast-1_q22_0_all" class="clusterblast-orf" description="&lt;b&gt;EV02_RS06005&lt;/b&gt;&lt;br&gt;DUF1350 domain-containing protein&lt;br&gt;Location: 35169 - 35892" locus_tag="EV02_RS06005" points="359,40 367,40 372,35 367,30 359,30 359,40 "  />
<polygon style="stroke-width:1; fill:white; stroke:black; " id="knownclusterblast-1_q23_0_all" class="clusterblast-orf" description="&lt;b&gt;EV02_RS06000&lt;/b&gt;&lt;br&gt;acetate--CoA ligase&lt;br&gt;Location: 35888 - 37871" locus_tag="EV02_RS06000" points="372,35 377,30 408,30 408,40 377,40 372,35 "  />
<polygon style="stroke-width:1; fill:white; stroke:black; " id="knownclusterblast-1_q24_0_all" class="clusterblast-orf" description="&lt;b&gt;EV02_RS05995&lt;/b&gt;&lt;br&gt;solanesyl diphosphate synthase&lt;br&gt;Location: 37965 - 38937" locus_tag="EV02_RS05995" points="409,35 414,30 427,30 427,40 414,40 409,35 "  />
<polygon style="stroke-width:1; fill:white; stroke:black; " id="knownclusterblast-1_q25_0_all" class="clusterblast-orf" description="&lt;b&gt;EV02_RS05990&lt;/b&gt;&lt;br&gt;glutamate racemase&lt;br&gt;Location: 38964 - 39759" locus_tag="EV02_RS05990" points="428,35 433,30 442,30 442,40 433,40 428,35 "  />
<polygon style="stroke-width:1; fill:white; stroke:black; " id="knownclusterblast-1_q26_0_all" class="clusterblast-orf" description="&lt;b&gt;EV02_RS05985&lt;/b&gt;&lt;br&gt;N-acetylmuramoyl-L-alanine amidase&lt;br&gt;Location: 39755 - 40841" locus_tag="EV02_RS05985" points="442,35 447,30 462,30 462,40 447,40 442,35 "  />
<polygon style="stroke-width:1; fill:white; stroke:black; " id="knownclusterblast-1_q27_0_all" class="clusterblast-orf" description="&lt;b&gt;EV02_RS05980&lt;/b&gt;&lt;br&gt;carbon-nitrogen hydrolase family protein&lt;br&gt;Location: 40840 - 41668" locus_tag="EV02_RS05980" points="462,35 467,30 477,30 477,40 467,40 462,35 "  />
<polygon style="stroke-width:1; fill:white; stroke:black; " id="knownclusterblast-1_q28_0_all" class="clusterblast-orf" description="&lt;b&gt;EV02_RS05975&lt;/b&gt;&lt;br&gt;2-phosphosulfolactate phosphatase family protein&lt;br&gt;Location: 41698 - 42427" locus_tag="EV02_RS05975" points="477,35 482,30 490,30 490,40 482,40 477,35 "  />
<polygon style="stroke-width:1; fill:white; stroke:black; " id="knownclusterblast-1_q29_0_all" class="clusterblast-orf" description="&lt;b&gt;EV02_RS05970&lt;/b&gt;&lt;br&gt;3-phosphoshikimate 1-carboxyvinyltransferase&lt;br&gt;Location: 42562 - 43873" locus_tag="EV02_RS05970" points="493,40 512,40 517,35 512,30 493,30 493,40 "  />
<polygon style="stroke-width:1; fill:white; stroke:black; " id="knownclusterblast-1_q30_0_all" class="clusterblast-orf" description="&lt;b&gt;EV02_RS05965&lt;/b&gt;&lt;br&gt;SAM-dependent methyltransferase&lt;br&gt;Location: 43885 - 44791" locus_tag="EV02_RS05965" points="517,40 528,40 533,35 528,30 517,30 517,40 "  />
<polygon style="stroke-width:1; fill:white; stroke:black; " id="knownclusterblast-1_q31_0_all" class="clusterblast-orf" description="&lt;b&gt;EV02_RS05960&lt;/b&gt;&lt;br&gt;UDP-N-acetylglucosamine diphosphorylase/glucosamine-1-phosphate N-acetyltransferase&lt;br&gt;Location: 44816 - 46178" locus_tag="EV02_RS05960" points="534,40 553,40 558,35 553,30 534,30 534,40 "  />
<polygon style="stroke-width:1; fill:white; stroke:black; " id="knownclusterblast-1_q32_0_all" class="clusterblast-orf" description="&lt;b&gt;EV02_RS05955&lt;/b&gt;&lt;br&gt;UDP-N-acetylmuramoyl-tripeptide--D-alanyl-D- alanine ligase&lt;br&gt;Location: 46166 - 47540" locus_tag="EV02_RS05955" points="558,35 563,30 583,30 583,40 563,40 558,35 "  />
<polygon style="stroke-width:1; fill:white; stroke:black; " id="knownclusterblast-1_q33_0_all" class="clusterblast-orf" description="&lt;b&gt;EV02_RS05950&lt;/b&gt;&lt;br&gt;glycogen synthase GlgA&lt;br&gt;Location: 47552 - 49004" locus_tag="EV02_RS05950" points="583,35 588,30 610,30 610,40 588,40 583,35 "  />
<polygon style="stroke-width:1; fill:white; stroke:black; " id="knownclusterblast-1_q34_0_all" class="clusterblast-orf" description="&lt;b&gt;EV02_RS05945&lt;/b&gt;&lt;br&gt;1,4-dihydroxy-2-naphthoyl-CoA synthase&lt;br&gt;Location: 49040 - 49898" locus_tag="EV02_RS05945" points="610,35 615,30 626,30 626,40 615,40 610,35 "  />
<polygon style="stroke-width:1; fill:white; stroke:black; " id="knownclusterblast-1_q35_0_all" class="clusterblast-orf" description="&lt;b&gt;EV02_RS05940&lt;/b&gt;&lt;br&gt;2-succinyl-5-enolpyruvyl-6-hydroxy-3- cyclohexene-1-carboxylic-acid synthase&lt;br&gt;Location: 49933 - 51697" locus_tag="EV02_RS05940" points="626,35 631,30 658,30 658,40 631,40 626,35 "  />
<polygon style="stroke-width:1; fill:white; stroke:black; " id="knownclusterblast-1_q36_0_all" class="clusterblast-orf" description="&lt;b&gt;EV02_RS05935&lt;/b&gt;&lt;br&gt;signal peptidase I&lt;br&gt;Location: 51747 - 52332" locus_tag="EV02_RS05935" points="659,40 665,40 670,35 665,30 659,30 659,40 "  />
<polygon style="stroke-width:1; fill:white; stroke:black; " id="knownclusterblast-1_q37_0_all" class="clusterblast-orf" description="&lt;b&gt;EV02_RS05930&lt;/b&gt;&lt;br&gt;DUF760 domain-containing protein&lt;br&gt;Location: 52377 - 52713" locus_tag="EV02_RS05930" points="671,40 672,40 677,35 672,30 671,30 671,40 "  />
<polygon style="stroke-width:1; fill:white; stroke:black; " id="knownclusterblast-1_q38_0_all" class="clusterblast-orf" description="&lt;b&gt;EV02_RS05925&lt;/b&gt;&lt;br&gt;DUF4336 domain-containing protein&lt;br&gt;Location: 52719 - 53892" locus_tag="EV02_RS05925" points="677,35 682,30 698,30 698,40 682,40 677,35 "  />
<polygon style="stroke-width:1; fill:white; stroke:black; " id="knownclusterblast-1_q39_0_all" class="clusterblast-orf" description="&lt;b&gt;EV02_RS05920&lt;/b&gt;&lt;br&gt;metal ABC transporter permease&lt;br&gt;Location: 53888 - 54761" locus_tag="EV02_RS05920" points="698,35 703,30 714,30 714,40 703,40 698,35 "  />
<polygon style="stroke-width:1; fill:white; stroke:black; " id="knownclusterblast-1_q40_0_all" class="clusterblast-orf" description="&lt;b&gt;EV02_RS05915&lt;/b&gt;&lt;br&gt;metal ABC transporter ATP-binding protein&lt;br&gt;Location: 54773 - 55538" locus_tag="EV02_RS05915" points="714,35 719,30 728,30 728,40 719,40 714,35 "  />
<polygon style="stroke-width:1; fill:white; stroke:black; " id="knownclusterblast-1_q41_0_all" class="clusterblast-orf" description="&lt;b&gt;EV02_RS05910&lt;/b&gt;&lt;br&gt;metal ABC transporter substrate-binding protein&lt;br&gt;Location: 55541 - 56441" locus_tag="EV02_RS05910" points="728,35 733,30 744,30 744,40 733,40 728,35 "  />
<polygon style="stroke-width:1; fill:white; stroke:black; " id="knownclusterblast-1_q42_0_all" class="clusterblast-orf" description="&lt;b&gt;EV02_RS05905&lt;/b&gt;&lt;br&gt;DUF697 domain-containing protein&lt;br&gt;Location: 56461 - 57796" locus_tag="EV02_RS05905" points="745,35 750,30 769,30 769,40 750,40 745,35 "  />
<polygon style="stroke-width:1; fill:white; stroke:black; " id="knownclusterblast-1_q43_0_all" class="clusterblast-orf" description="&lt;b&gt;EV02_RS05900&lt;/b&gt;&lt;br&gt;hypothetical protein&lt;br&gt;Location: 57961 - 58384" locus_tag="EV02_RS05900" points="772,40 775,40 780,35 775,30 772,30 772,40 "  />
</g>
</svg>
