<svg width="800" x="0" version="1.1" viewBox="0 0 800 50" xmlns:xlink="http://www.w3.org/1999/xlink" preserveAspectRatio="none" y="0" xmlns="http://www.w3.org/2000/svg" height="50"  >
<g label="Query sequence" class="clusterblast-cluster"  >
<text x="5" class="clusterblast-acc" y="20"  >
Query sequence</text>
<line style="stroke-width:1; stroke:grey; " y1="35" y2="35" x2="778.0" x1="10"  />
<polygon style="stroke-width:1; fill:white; stroke:black; " id="knownclusterblast-6_q0_0_all" class="clusterblast-orf" description="&lt;b&gt;EV02_RS02950&lt;/b&gt;&lt;br&gt;DNA polymerase III subunit beta&lt;br&gt;Location: 629116 - 630274" locus_tag="EV02_RS02950" points="0,35 5,30 43,30 43,40 5,40 0,35 "  />
<polygon style="stroke-width:1; fill:white; stroke:black; " id="knownclusterblast-6_q1_0_all" class="clusterblast-orf" description="&lt;b&gt;EV02_RS02945&lt;/b&gt;&lt;br&gt;threonine synthase&lt;br&gt;Location: 630611 - 631715" locus_tag="EV02_RS02945" points="55,35 60,30 96,30 96,40 60,40 55,35 "  />
<polygon style="stroke-width:1; fill:white; stroke:black; " id="knownclusterblast-6_q2_0_all" class="clusterblast-orf" description="&lt;b&gt;EV02_RS02940&lt;/b&gt;&lt;br&gt;alpha/beta hydrolase&lt;br&gt;Location: 631721 - 632294" locus_tag="EV02_RS02940" points="96,35 101,30 117,30 117,40 101,40 96,35 "  />
<polygon style="stroke-width:1; fill:white; stroke:black; " id="knownclusterblast-6_q3_0_all" class="clusterblast-orf" description="&lt;b&gt;EV02_RS02935&lt;/b&gt;&lt;br&gt;AarF/ABC1/UbiB kinase family protein&lt;br&gt;Location: 632294 - 634151" locus_tag="EV02_RS02935" points="117,35 122,30 185,30 185,40 122,40 117,35 "  />
<polygon style="stroke-width:1; fill:white; stroke:black; " id="knownclusterblast-6_q4_0_all" class="clusterblast-orf" description="&lt;b&gt;EV02_RS02930&lt;/b&gt;&lt;br&gt;DNA recombination protein RecN&lt;br&gt;Location: 634219 - 635899" locus_tag="EV02_RS02930" points="188,40 245,40 250,35 245,30 188,30 188,40 "  />
<polygon style="stroke-width:1; fill:white; stroke:black; " id="knownclusterblast-6_q5_0_all" class="clusterblast-orf" description="&lt;b&gt;EV02_RS02925&lt;/b&gt;&lt;br&gt;excinuclease ABC subunit UvrA&lt;br&gt;Location: 635953 - 638857" locus_tag="EV02_RS02925" points="252,40 354,40 359,35 354,30 252,30 252,40 "  />
<polygon style="stroke-width:1; fill:white; stroke:black; " id="knownclusterblast-6_q6_0_all" class="clusterblast-orf" description="&lt;b&gt;EV02_RS02920&lt;/b&gt;&lt;br&gt;glycosyl transferase&lt;br&gt;Location: 639059 - 640469" locus_tag="EV02_RS02920" points="366,40 413,40 418,35 413,30 366,30 366,40 "  />
<polygon style="stroke-width:1; fill:white; stroke:black; " id="knownclusterblast-6_q7_0_all" class="clusterblast-orf" description="&lt;b&gt;EV02_RS0108835&lt;/b&gt;&lt;br&gt;hypothetical protein&lt;br&gt;Location: 640402 - 640648" locus_tag="EV02_RS0108835" points="416,35 421,30 425,30 425,40 421,40 416,35 "  />
<polygon style="stroke-width:1; fill:white; stroke:black; " id="knownclusterblast-6_q8_0_all" class="clusterblast-orf" description="&lt;b&gt;EV02_RS02915&lt;/b&gt;&lt;br&gt;phospho-N-acetylmuramoyl-pentapeptide- transferase&lt;br&gt;Location: 640658 - 641735" locus_tag="EV02_RS02915" points="425,35 430,30 465,30 465,40 430,40 425,35 "  />
<polygon style="stroke-width:1; fill:white; stroke:black; " id="knownclusterblast-6_q9_0_all" class="clusterblast-orf" description="&lt;b&gt;EV02_RS0108840&lt;/b&gt;&lt;br&gt;DUF3134 domain-containing protein&lt;br&gt;Location: 641718 - 642000" locus_tag="EV02_RS0108840" points="464,35 469,30 474,30 474,40 469,40 464,35 "  />
<polygon style="stroke-width:1; fill:white; stroke:black; " id="knownclusterblast-6_q10_0_all" class="clusterblast-orf" description="&lt;b&gt;EV02_RS09215&lt;/b&gt;&lt;br&gt;hypothetical protein&lt;br&gt;Location: 642037 - 642232" locus_tag="EV02_RS09215" points="476,40 478,40 483,35 478,30 476,30 476,40 "  />
<polygon style="stroke-width:1; fill:white; stroke:black; " id="knownclusterblast-6_q11_0_all" class="clusterblast-orf" description="&lt;b&gt;EV02_RS02910&lt;/b&gt;&lt;br&gt;argininosuccinate synthase&lt;br&gt;Location: 642283 - 643498" locus_tag="EV02_RS02910" points="485,40 525,40 530,35 525,30 485,30 485,40 "  />
<polygon style="stroke-width:1; fill:white; stroke:black; " id="knownclusterblast-6_q12_0_all" class="clusterblast-orf" description="&lt;b&gt;EV02_RS02905&lt;/b&gt;&lt;br&gt;30S ribosomal protein S6&lt;br&gt;Location: 643501 - 643963" locus_tag="EV02_RS02905" points="530,35 535,30 547,30 547,40 535,40 530,35 "  />
<polygon style="stroke-width:1; fill:white; stroke:black; " id="knownclusterblast-6_q13_0_all" class="clusterblast-orf" description="&lt;b&gt;EV02_RS02900&lt;/b&gt;&lt;br&gt;shikimate dehydrogenase&lt;br&gt;Location: 644066 - 644927" locus_tag="EV02_RS02900" points="550,35 555,30 582,30 582,40 555,40 550,35 "  />
<polygon style="stroke-width:1; fill:white; stroke:black; " id="knownclusterblast-6_q14_0_all" class="clusterblast-orf" description="&lt;b&gt;EV02_RS02895&lt;/b&gt;&lt;br&gt;molecular chaperone DnaK&lt;br&gt;Location: 645044 - 646952" locus_tag="EV02_RS02895" points="586,40 652,40 657,35 652,30 586,30 586,40 "  />
<polygon style="stroke-width:1; fill:white; stroke:black; " id="knownclusterblast-6_q15_0_all" class="clusterblast-orf" description="&lt;b&gt;EV02_RS02890&lt;/b&gt;&lt;br&gt;FAD-binding oxidoreductase&lt;br&gt;Location: 646948 - 648031" locus_tag="EV02_RS02890" points="657,35 662,30 696,30 696,40 662,40 657,35 "  />
<polygon style="stroke-width:1; fill:white; stroke:black; " id="knownclusterblast-6_q16_0_all" class="clusterblast-orf" description="&lt;b&gt;EV02_RS02885&lt;/b&gt;&lt;br&gt;formyltetrahydrofolate deformylase&lt;br&gt;Location: 648075 - 648930" locus_tag="EV02_RS02885" points="698,40 725,40 730,35 725,30 698,30 698,40 "  />
<polygon style="stroke-width:1; fill:white; stroke:black; " id="knownclusterblast-6_q17_0_all" class="clusterblast-orf" description="&lt;b&gt;EV02_RS02880&lt;/b&gt;&lt;br&gt;ClC family H(+)/Cl(-) exchange transporter&lt;br&gt;Location: 648939 - 650295" locus_tag="EV02_RS02880" points="730,35 735,30 780,30 780,40 735,40 730,35 "  />
</g>
</svg>
