<svg width="800" x="0" version="1.1" viewBox="0 0 800 50" xmlns:xlink="http://www.w3.org/1999/xlink" preserveAspectRatio="none" y="0" xmlns="http://www.w3.org/2000/svg" height="50"  >
<g label="Query sequence" class="clusterblast-cluster"  >
<text x="5" class="clusterblast-acc" y="20"  >
Query sequence</text>
<line style="stroke-width:1; stroke:grey; " y1="35" y2="35" x2="778.0" x1="10"  />
<polygon style="stroke-width:1; fill:white; stroke:black; " id="knownclusterblast-7_q0_0_all" class="clusterblast-orf" description="&lt;b&gt;EV02_RS02740&lt;/b&gt;&lt;br&gt;replicative DNA helicase&lt;br&gt;Location: 680746 - 682129" locus_tag="EV02_RS02740" points="0,35 5,30 42,30 42,40 5,40 0,35 "  />
<polygon style="stroke-width:1; fill:white; stroke:black; " id="knownclusterblast-7_q1_0_all" class="clusterblast-orf" description="&lt;b&gt;EV02_RS02735&lt;/b&gt;&lt;br&gt;50S ribosomal protein L9&lt;br&gt;Location: 682187 - 682643" locus_tag="EV02_RS02735" points="44,35 49,30 57,30 57,40 49,40 44,35 "  />
<polygon style="stroke-width:1; fill:white; stroke:black; " id="knownclusterblast-7_q2_0_all" class="clusterblast-orf" description="&lt;b&gt;EV02_RS02730&lt;/b&gt;&lt;br&gt;acyl-CoA desaturase&lt;br&gt;Location: 682663 - 683602" locus_tag="EV02_RS02730" points="58,35 63,30 86,30 86,40 63,40 58,35 "  />
<polygon style="stroke-width:1; fill:white; stroke:black; " id="knownclusterblast-7_q3_0_all" class="clusterblast-orf" description="&lt;b&gt;EV02_RS02725&lt;/b&gt;&lt;br&gt;hypothetical protein&lt;br&gt;Location: 683677 - 684376" locus_tag="EV02_RS02725" points="89,40 105,40 110,35 105,30 89,30 89,40 "  />
<polygon style="stroke-width:1; fill:white; stroke:black; " id="knownclusterblast-7_q4_0_all" class="clusterblast-orf" description="&lt;b&gt;EV02_RS02720&lt;/b&gt;&lt;br&gt;aluminum resistance family protein&lt;br&gt;Location: 684394 - 685687" locus_tag="EV02_RS02720" points="110,40 145,40 150,35 145,30 110,30 110,40 "  />
<polygon style="stroke-width:1; fill:white; stroke:black; " id="knownclusterblast-7_q5_0_all" class="clusterblast-orf" description="&lt;b&gt;EV02_RS02715&lt;/b&gt;&lt;br&gt;glycine cleavage system protein H&lt;br&gt;Location: 685689 - 686079" locus_tag="EV02_RS02715" points="150,40 157,40 162,35 157,30 150,30 150,40 "  />
<polygon style="stroke-width:1; fill:white; stroke:black; " id="knownclusterblast-7_q6_0_all" class="clusterblast-orf" description="&lt;b&gt;EV02_RS02710&lt;/b&gt;&lt;br&gt;glycine dehydrogenase (aminomethyl-transferring)&lt;br&gt;Location: 686124 - 689034" locus_tag="EV02_RS02710" points="163,40 246,40 251,35 246,30 163,30 163,40 "  />
<polygon style="stroke-width:1; fill:white; stroke:black; " id="knownclusterblast-7_q7_0_all" class="clusterblast-orf" description="&lt;b&gt;EV02_RS02705&lt;/b&gt;&lt;br&gt;hypothetical protein&lt;br&gt;Location: 689163 - 689412" locus_tag="EV02_RS02705" points="255,40 258,40 263,35 258,30 255,30 255,40 "  />
<polygon style="stroke-width:1; fill:white; stroke:black; " id="knownclusterblast-7_q8_0_all" class="clusterblast-orf" description="&lt;b&gt;EV02_RS02700&lt;/b&gt;&lt;br&gt;glycosyltransferase family 1 protein&lt;br&gt;Location: 689427 - 690561" locus_tag="EV02_RS02700" points="263,35 268,30 298,30 298,40 268,40 263,35 "  />
<polygon style="stroke-width:1; fill:white; stroke:black; " id="knownclusterblast-7_q9_0_all" class="clusterblast-orf" description="&lt;b&gt;EV02_RS02695&lt;/b&gt;&lt;br&gt;NAD-dependent dehydratase&lt;br&gt;Location: 690588 - 691782" locus_tag="EV02_RS02695" points="298,35 303,30 335,30 335,40 303,40 298,35 "  />
<polygon style="stroke-width:1; fill:white; stroke:black; " id="knownclusterblast-7_q10_0_all" class="clusterblast-orf" description="&lt;b&gt;EV02_RS02690&lt;/b&gt;&lt;br&gt;thiazole synthase&lt;br&gt;Location: 691952 - 692747" locus_tag="EV02_RS02690" points="340,35 345,30 364,30 364,40 345,40 340,35 "  />
<polygon style="stroke-width:1; fill:white; stroke:black; " id="knownclusterblast-7_q11_0_all" class="clusterblast-orf" description="&lt;b&gt;EV02_RS02685&lt;/b&gt;&lt;br&gt;tetratricopeptide repeat protein&lt;br&gt;Location: 692749 - 693307" locus_tag="EV02_RS02685" points="364,35 369,30 381,30 381,40 369,40 364,35 "  />
<polygon style="stroke-width:1; fill:white; stroke:black; " id="knownclusterblast-7_q12_0_all" class="clusterblast-orf" description="&lt;b&gt;EV02_RS02680&lt;/b&gt;&lt;br&gt;50S ribosomal protein L20&lt;br&gt;Location: 693342 - 693690" locus_tag="EV02_RS02680" points="382,35 387,30 393,30 393,40 387,40 382,35 "  />
<polygon style="stroke-width:1; fill:white; stroke:black; " id="knownclusterblast-7_q13_0_all" class="clusterblast-orf" description="&lt;b&gt;EV02_RS02675&lt;/b&gt;&lt;br&gt;50S ribosomal protein L35&lt;br&gt;Location: 693718 - 693916" locus_tag="EV02_RS02675" points="393,35 398,30 399,30 399,40 398,40 393,35 "  />
<polygon style="stroke-width:1; fill:white; stroke:black; " id="knownclusterblast-7_q14_0_all" class="clusterblast-orf" description="&lt;b&gt;EV02_RS02670&lt;/b&gt;&lt;br&gt;amidase&lt;br&gt;Location: 694007 - 695546" locus_tag="EV02_RS02670" points="402,40 444,40 449,35 444,30 402,30 402,40 "  />
<polygon style="stroke-width:1; fill:white; stroke:black; " id="knownclusterblast-7_q15_0_all" class="clusterblast-orf" description="&lt;b&gt;EV02_RS02665&lt;/b&gt;&lt;br&gt;glycosyltransferase family 2 protein&lt;br&gt;Location: 695573 - 696875" locus_tag="EV02_RS02665" points="450,40 484,40 489,35 484,30 450,30 450,40 "  />
<polygon style="stroke-width:1; fill:white; stroke:black; " id="knownclusterblast-7_q16_0_all" class="clusterblast-orf" description="&lt;b&gt;EV02_RS02660&lt;/b&gt;&lt;br&gt;DNA polymerase III subunit gamma/tau&lt;br&gt;Location: 696876 - 698637" locus_tag="EV02_RS02660" points="489,35 494,30 543,30 543,40 494,40 489,35 "  />
<polygon style="stroke-width:1; fill:white; stroke:black; " id="knownclusterblast-7_q17_0_all" class="clusterblast-orf" description="&lt;b&gt;EV02_RS02655&lt;/b&gt;&lt;br&gt;ATP-dependent protease ATP-binding subunit ClpX&lt;br&gt;Location: 698694 - 700062" locus_tag="EV02_RS02655" points="544,35 549,30 586,30 586,40 549,40 544,35 "  />
<polygon style="stroke-width:1; fill:white; stroke:black; " id="knownclusterblast-7_q18_0_all" class="clusterblast-orf" description="&lt;b&gt;EV02_RS02650&lt;/b&gt;&lt;br&gt;ATP-dependent Clp endopeptidase, proteolytic subunit ClpP&lt;br&gt;Location: 700167 - 700788" locus_tag="EV02_RS02650" points="589,35 594,30 608,30 608,40 594,40 589,35 "  />
<polygon style="stroke-width:1; fill:white; stroke:black; " id="knownclusterblast-7_q19_0_all" class="clusterblast-orf" description="&lt;b&gt;EV02_RS02645&lt;/b&gt;&lt;br&gt;trigger factor&lt;br&gt;Location: 700878 - 702330" locus_tag="EV02_RS02645" points="611,35 616,30 655,30 655,40 616,40 611,35 "  />
<polygon style="stroke-width:1; fill:white; stroke:black; " id="knownclusterblast-7_q20_0_all" class="clusterblast-orf" description="&lt;b&gt;EV02_RS02640&lt;/b&gt;&lt;br&gt;aspartate-semialdehyde dehydrogenase&lt;br&gt;Location: 702454 - 703486" locus_tag="EV02_RS02640" points="658,40 685,40 690,35 685,30 658,30 658,40 "  />
<polygon style="stroke-width:1; fill:white; stroke:black; " id="knownclusterblast-7_q21_0_all" class="clusterblast-orf" description="&lt;b&gt;EV02_RS02635&lt;/b&gt;&lt;br&gt;4-hydroxy-tetrahydrodipicolinate synthase&lt;br&gt;Location: 703482 - 704385" locus_tag="EV02_RS02635" points="690,40 712,40 717,35 712,30 690,30 690,40 "  />
<polygon style="stroke-width:1; fill:white; stroke:black; " id="knownclusterblast-7_q22_0_all" class="clusterblast-orf" description="&lt;b&gt;EV02_RS02630&lt;/b&gt;&lt;br&gt;ribonuclease J&lt;br&gt;Location: 704465 - 706454" locus_tag="EV02_RS02630" points="719,40 775,40 780,35 775,30 719,30 719,40 "  />
</g>
</svg>
