<svg width="800" x="0" version="1.1" viewBox="0 0 800 50" xmlns:xlink="http://www.w3.org/1999/xlink" preserveAspectRatio="none" y="0" xmlns="http://www.w3.org/2000/svg" height="50"  >
<g label="Query sequence" class="clusterblast-cluster"  >
<text x="5" class="clusterblast-acc" y="20"  >
Query sequence</text>
<line style="stroke-width:1; stroke:grey; " y1="35" y2="35" x2="778.0" x1="10"  />
<polygon style="stroke-width:1; fill:white; stroke:black; " id="knownclusterblast-2_q0_0_all" class="clusterblast-orf" description="&lt;b&gt;EV02_RS05865&lt;/b&gt;&lt;br&gt;lipase&lt;br&gt;Location: 67026 - 67620" locus_tag="EV02_RS05865" points="0,35 5,30 11,30 11,40 5,40 0,35 "  />
<polygon style="stroke-width:1; fill:white; stroke:black; " id="knownclusterblast-2_q1_0_all" class="clusterblast-orf" description="&lt;b&gt;EV02_RS05860&lt;/b&gt;&lt;br&gt;dihydroneopterin aldolase&lt;br&gt;Location: 67628 - 67988" locus_tag="EV02_RS05860" points="11,35 16,30 19,30 19,40 16,40 11,35 "  />
<polygon style="stroke-width:1; fill:white; stroke:black; " id="knownclusterblast-2_q2_0_all" class="clusterblast-orf" description="&lt;b&gt;EV02_RS05855&lt;/b&gt;&lt;br&gt;glutamate-5-semialdehyde dehydrogenase&lt;br&gt;Location: 67999 - 69310" locus_tag="EV02_RS05855" points="19,35 24,30 44,30 44,40 24,40 19,35 "  />
<polygon style="stroke-width:1; fill:white; stroke:black; " id="knownclusterblast-2_q3_0_all" class="clusterblast-orf" description="&lt;b&gt;EV02_RS05850&lt;/b&gt;&lt;br&gt;hypothetical protein&lt;br&gt;Location: 69376 - 73273" locus_tag="EV02_RS05850" points="46,35 51,30 122,30 122,40 51,40 46,35 "  />
<polygon style="stroke-width:1; fill:white; stroke:black; " id="knownclusterblast-2_q4_0_all" class="clusterblast-orf" description="&lt;b&gt;EV02_RS05845&lt;/b&gt;&lt;br&gt;hypothetical protein&lt;br&gt;Location: 73388 - 73832" locus_tag="EV02_RS05845" points="124,40 128,40 133,35 128,30 124,30 124,40 "  />
<polygon style="stroke-width:1; fill:white; stroke:black; " id="knownclusterblast-2_q5_0_all" class="clusterblast-orf" description="&lt;b&gt;EV02_RS05840&lt;/b&gt;&lt;br&gt;DUF4332 domain-containing protein&lt;br&gt;Location: 73843 - 74251" locus_tag="EV02_RS05840" points="133,40 136,40 141,35 136,30 133,30 133,40 "  />
<polygon style="stroke-width:1; fill:white; stroke:black; " id="knownclusterblast-2_q6_0_all" class="clusterblast-orf" description="&lt;b&gt;EV02_RS0108675&lt;/b&gt;&lt;br&gt;hypothetical protein&lt;br&gt;Location: 74303 - 74570" locus_tag="EV02_RS0108675" points="142,40 143,40 148,35 143,30 142,30 142,40 "  />
<polygon style="stroke-width:1; fill:white; stroke:black; " id="knownclusterblast-2_q7_0_all" class="clusterblast-orf" description="&lt;b&gt;EV02_RS05835&lt;/b&gt;&lt;br&gt;acyl esterase&lt;br&gt;Location: 74577 - 76158" locus_tag="EV02_RS05835" points="148,40 174,40 179,35 174,30 148,30 148,40 "  />
<polygon style="stroke-width:1; fill:white; stroke:black; " id="knownclusterblast-2_q8_0_all" class="clusterblast-orf" description="&lt;b&gt;EV02_RS05830&lt;/b&gt;&lt;br&gt;1,4-alpha-glucan branching protein GlgB&lt;br&gt;Location: 76210 - 78475" locus_tag="EV02_RS05830" points="180,40 219,40 224,35 219,30 180,30 180,40 "  />
<polygon style="stroke-width:1; fill:white; stroke:black; " id="knownclusterblast-2_q9_0_all" class="clusterblast-orf" description="&lt;b&gt;EV02_RS05825&lt;/b&gt;&lt;br&gt;uroporphyrinogen decarboxylase&lt;br&gt;Location: 78590 - 79631" locus_tag="EV02_RS05825" points="226,40 242,40 247,35 242,30 226,30 226,40 "  />
<polygon style="stroke-width:1; fill:white; stroke:black; " id="knownclusterblast-2_q10_0_all" class="clusterblast-orf" description="&lt;b&gt;EV02_RS05820&lt;/b&gt;&lt;br&gt;NAD(P)-dependent oxidoreductase&lt;br&gt;Location: 79639 - 80623" locus_tag="EV02_RS05820" points="247,40 261,40 266,35 261,30 247,30 247,40 "  />
<polygon style="stroke-width:1; fill:white; stroke:black; " id="knownclusterblast-2_q11_0_all" class="clusterblast-orf" description="&lt;b&gt;EV02_RS05815&lt;/b&gt;&lt;br&gt;plastocyanin&lt;br&gt;Location: 80683 - 81034" locus_tag="EV02_RS05815" points="267,40 269,40 274,35 269,30 267,30 267,40 "  />
<polygon style="stroke-width:1; fill:white; stroke:black; " id="knownclusterblast-2_q12_0_all" class="clusterblast-orf" description="&lt;b&gt;EV02_RS05810&lt;/b&gt;&lt;br&gt;ATP-dependent chaperone ClpB&lt;br&gt;Location: 81101 - 83684" locus_tag="EV02_RS05810" points="276,40 321,40 326,35 321,30 276,30 276,40 "  />
<polygon style="stroke-width:1; fill:white; stroke:black; " id="knownclusterblast-2_q13_0_all" class="clusterblast-orf" description="&lt;b&gt;EV02_RS0108680&lt;/b&gt;&lt;br&gt;6-carboxytetrahydropterin synthase&lt;br&gt;Location: 83732 - 84203" locus_tag="EV02_RS0108680" points="327,35 332,30 336,30 336,40 332,40 327,35 "  />
<polygon style="stroke-width:1; fill:white; stroke:black; " id="knownclusterblast-2_q14_0_all" class="clusterblast-orf" description="&lt;b&gt;EV02_RS05805&lt;/b&gt;&lt;br&gt;bifunctional phosphoribosyl-AMP cyclohydrolase/phosphoribosyl-ATP diphosphatase HisIE&lt;br&gt;Location: 84266 - 84929" locus_tag="EV02_RS05805" points="338,40 346,40 351,35 346,30 338,30 338,40 "  />
<polygon style="stroke-width:1; fill:white; stroke:black; " id="knownclusterblast-2_q15_0_all" class="clusterblast-orf" description="&lt;b&gt;EV02_RS05800&lt;/b&gt;&lt;br&gt;DNA-directed RNA polymerase sigma-70 factor&lt;br&gt;Location: 85085 - 86009" locus_tag="EV02_RS05800" points="354,40 367,40 372,35 367,30 354,30 354,40 "  />
<polygon style="stroke-width:1; fill:white; stroke:black; " id="knownclusterblast-2_q16_0_all" class="clusterblast-orf" description="&lt;b&gt;EV02_RS05795&lt;/b&gt;&lt;br&gt;DUF1232 domain-containing protein&lt;br&gt;Location: 86046 - 86415" locus_tag="EV02_RS05795" points="373,40 375,40 380,35 375,30 373,30 373,40 "  />
<polygon style="stroke-width:1; fill:white; stroke:black; " id="knownclusterblast-2_q17_0_all" class="clusterblast-orf" description="&lt;b&gt;EV02_RS05790&lt;/b&gt;&lt;br&gt;hypothetical protein&lt;br&gt;Location: 86415 - 86736" locus_tag="EV02_RS05790" points="380,40 381,40 386,35 381,30 380,30 380,40 "  />
<polygon style="stroke-width:1; fill:white; stroke:black; " id="knownclusterblast-2_q18_0_all" class="clusterblast-orf" description="&lt;b&gt;EV02_RS05785&lt;/b&gt;&lt;br&gt;hypothetical protein&lt;br&gt;Location: 86930 - 87200" locus_tag="EV02_RS05785" points="390,35 395,30 395,30 395,40 395,40 390,35 "  />
<polygon style="stroke-width:1; fill:white; stroke:black; " id="knownclusterblast-2_q19_0_all" class="clusterblast-orf" description="&lt;b&gt;EV02_RS05780&lt;/b&gt;&lt;br&gt;AbrB family transcriptional regulator&lt;br&gt;Location: 87297 - 87654" locus_tag="EV02_RS05780" points="397,40 399,40 404,35 399,30 397,30 397,40 "  />
<polygon style="stroke-width:1; fill:white; stroke:black; " id="knownclusterblast-2_q20_0_all" class="clusterblast-orf" description="&lt;b&gt;EV02_RS05775&lt;/b&gt;&lt;br&gt;tryptophan synthase subunit alpha&lt;br&gt;Location: 87742 - 88582" locus_tag="EV02_RS05775" points="406,35 411,30 422,30 422,40 411,40 406,35 "  />
<polygon style="stroke-width:1; fill:white; stroke:black; " id="knownclusterblast-2_q21_0_all" class="clusterblast-orf" description="&lt;b&gt;EV02_RS05770&lt;/b&gt;&lt;br&gt;DUF3007 domain-containing protein&lt;br&gt;Location: 88609 - 88930" locus_tag="EV02_RS05770" points="423,35 428,30 429,30 429,40 428,40 423,35 "  />
<polygon style="stroke-width:1; fill:white; stroke:black; " id="knownclusterblast-2_q22_0_all" class="clusterblast-orf" description="&lt;b&gt;EV02_RS0108685&lt;/b&gt;&lt;br&gt;NAD(P)H-quinone oxidoreductase&lt;br&gt;Location: 88934 - 89168" locus_tag="EV02_RS0108685" points="429,35 434,30 434,30 434,40 434,40 429,35 "  />
<polygon style="stroke-width:1; fill:white; stroke:black; " id="knownclusterblast-2_q23_0_all" class="clusterblast-orf" description="&lt;b&gt;EV02_RS05760&lt;/b&gt;&lt;br&gt;dihydroorotase&lt;br&gt;Location: 89431 - 90481" locus_tag="EV02_RS05760" points="439,35 444,30 460,30 460,40 444,40 439,35 "  />
<polygon style="stroke-width:1; fill:white; stroke:black; " id="knownclusterblast-2_q24_0_all" class="clusterblast-orf" description="&lt;b&gt;EV02_RS05755&lt;/b&gt;&lt;br&gt;C50 carotenoid epsilon cyclase&lt;br&gt;Location: 90599 - 91679" locus_tag="EV02_RS05755" points="462,40 478,40 483,35 478,30 462,30 462,40 "  />
<polygon style="stroke-width:1; fill:white; stroke:black; " id="knownclusterblast-2_q25_0_all" class="clusterblast-orf" description="&lt;b&gt;EV02_RS05750&lt;/b&gt;&lt;br&gt;glutathione-disulfide reductase&lt;br&gt;Location: 91681 - 93061" locus_tag="EV02_RS05750" points="483,35 488,30 510,30 510,40 488,40 483,35 "  />
<polygon style="stroke-width:1; fill:white; stroke:black; " id="knownclusterblast-2_q26_0_all" class="clusterblast-orf" description="&lt;b&gt;EV02_RS05745&lt;/b&gt;&lt;br&gt;glutathione S-transferase&lt;br&gt;Location: 93097 - 94327" locus_tag="EV02_RS05745" points="511,40 530,40 535,35 530,30 511,30 511,40 "  />
<polygon style="stroke-width:1; fill:white; stroke:black; " id="knownclusterblast-2_q27_0_all" class="clusterblast-orf" description="&lt;b&gt;EV02_RS05740&lt;/b&gt;&lt;br&gt;chromosomal replication initiator protein DnaA&lt;br&gt;Location: 94335 - 95730" locus_tag="EV02_RS05740" points="535,35 540,30 562,30 562,40 540,40 535,35 "  />
<polygon style="stroke-width:1; fill:white; stroke:black; " id="knownclusterblast-2_q28_0_all" class="clusterblast-orf" description="&lt;b&gt;EV02_RS05735&lt;/b&gt;&lt;br&gt;glycosyltransferase&lt;br&gt;Location: 95919 - 96531" locus_tag="EV02_RS05735" points="566,40 573,40 578,35 573,30 566,30 566,40 "  />
<polygon style="stroke-width:1; fill:white; stroke:black; " id="knownclusterblast-2_q29_0_all" class="clusterblast-orf" description="&lt;b&gt;EV02_RS05730&lt;/b&gt;&lt;br&gt;cell wall biosynthesis glycosyltransferase&lt;br&gt;Location: 96536 - 97220" locus_tag="EV02_RS05730" points="578,40 587,40 592,35 587,30 578,30 578,40 "  />
<polygon style="stroke-width:1; fill:white; stroke:black; " id="knownclusterblast-2_q30_0_all" class="clusterblast-orf" description="&lt;b&gt;EV02_RS05725&lt;/b&gt;&lt;br&gt;N-acetyltransferase&lt;br&gt;Location: 97220 - 97751" locus_tag="EV02_RS05725" points="592,35 597,30 602,30 602,40 597,40 592,35 "  />
<polygon style="stroke-width:1; fill:white; stroke:black; " id="knownclusterblast-2_q31_0_all" class="clusterblast-orf" description="&lt;b&gt;EV02_RS05720&lt;/b&gt;&lt;br&gt;ABC transporter ATP-binding protein&lt;br&gt;Location: 97750 - 99547" locus_tag="EV02_RS05720" points="602,35 607,30 637,30 637,40 607,40 602,35 "  />
<polygon style="stroke-width:1; fill:white; stroke:black; " id="knownclusterblast-2_q32_0_all" class="clusterblast-orf" description="&lt;b&gt;EV02_RS05715&lt;/b&gt;&lt;br&gt;ATP phosphoribosyltransferase&lt;br&gt;Location: 99559 - 100198" locus_tag="EV02_RS05715" points="637,35 642,30 650,30 650,40 642,40 637,35 "  />
<polygon style="stroke-width:1; fill:white; stroke:black; " id="knownclusterblast-2_q33_0_all" class="clusterblast-orf" description="&lt;b&gt;EV02_RS05710&lt;/b&gt;&lt;br&gt;hydroxyacylglutathione hydrolase&lt;br&gt;Location: 100238 - 100979" locus_tag="EV02_RS05710" points="651,40 660,40 665,35 660,30 651,30 651,40 "  />
<polygon style="stroke-width:1; fill:white; stroke:black; " id="knownclusterblast-2_q34_0_all" class="clusterblast-orf" description="&lt;b&gt;EV02_RS05705&lt;/b&gt;&lt;br&gt;endoribonuclease L-PSP&lt;br&gt;Location: 101003 - 101396" locus_tag="EV02_RS05705" points="666,40 668,40 673,35 668,30 666,30 666,40 "  />
<polygon style="stroke-width:1; fill:white; stroke:black; " id="knownclusterblast-2_q35_0_all" class="clusterblast-orf" description="&lt;b&gt;EV02_RS05700&lt;/b&gt;&lt;br&gt;DUF3136 domain-containing protein&lt;br&gt;Location: 101481 - 101709" locus_tag="EV02_RS05700" points="675,40 675,40 680,35 675,30 675,30 675,40 "  />
<polygon style="stroke-width:1; fill:white; stroke:black; " id="knownclusterblast-2_q36_0_all" class="clusterblast-orf" description="&lt;b&gt;EV02_RS05695&lt;/b&gt;&lt;br&gt;hypothetical protein&lt;br&gt;Location: 101715 - 101955" locus_tag="EV02_RS05695" points="680,35 684,30 684,40 680,35 "  />
<polygon style="stroke-width:1; fill:white; stroke:black; " id="knownclusterblast-2_q37_0_all" class="clusterblast-orf" description="&lt;b&gt;EV02_RS05690&lt;/b&gt;&lt;br&gt;carboxysome peptide B&lt;br&gt;Location: 102028 - 102277" locus_tag="EV02_RS05690" points="686,35 691,30 691,30 691,40 691,40 686,35 "  />
<polygon style="stroke-width:1; fill:white; stroke:black; " id="knownclusterblast-2_q38_0_all" class="clusterblast-orf" description="&lt;b&gt;EV02_RS05685&lt;/b&gt;&lt;br&gt;carboxysome peptide A&lt;br&gt;Location: 102290 - 102548" locus_tag="EV02_RS05685" points="691,35 696,30 696,30 696,40 696,40 691,35 "  />
<polygon style="stroke-width:1; fill:white; stroke:black; " id="knownclusterblast-2_q39_0_all" class="clusterblast-orf" description="&lt;b&gt;EV02_RS05680&lt;/b&gt;&lt;br&gt;carboxysome shell carbonic anhydrase&lt;br&gt;Location: 102550 - 104080" locus_tag="EV02_RS05680" points="696,35 701,30 726,30 726,40 701,40 696,35 "  />
<polygon style="stroke-width:1; fill:white; stroke:black; " id="knownclusterblast-2_q40_0_all" class="clusterblast-orf" description="&lt;b&gt;EV02_RS05675&lt;/b&gt;&lt;br&gt;carboxysome shell protein&lt;br&gt;Location: 104087 - 106382" locus_tag="EV02_RS05675" points="726,35 731,30 771,30 771,40 731,40 726,35 "  />
<polygon style="stroke-width:1; fill:white; stroke:black; " id="knownclusterblast-2_q41_0_all" class="clusterblast-orf" description="&lt;b&gt;EV02_RS0108690&lt;/b&gt;&lt;br&gt;ribulose bisphosphate carboxylase small subunit&lt;br&gt;Location: 106472 - 106814" locus_tag="EV02_RS0108690" points="773,35 778,30 780,30 780,40 778,40 773,35 "  />
</g>
</svg>
