<svg width="800" x="0" version="1.1" viewBox="0 0 800 50" xmlns:xlink="http://www.w3.org/1999/xlink" preserveAspectRatio="none" y="0" xmlns="http://www.w3.org/2000/svg" height="50"  >
<g label="Query sequence" class="clusterblast-cluster"  >
<text x="5" class="clusterblast-acc" y="20"  >
Query sequence</text>
<line style="stroke-width:1; stroke:grey; " y1="35" y2="35" x2="778.0" x1="10"  />
<polygon style="stroke-width:1; fill:white; stroke:black; " id="knownclusterblast-8_q0_0_all" class="clusterblast-orf" description="&lt;b&gt;EV02_RS02460&lt;/b&gt;&lt;br&gt;lysine--tRNA ligase&lt;br&gt;Location: 748645 - 750157" locus_tag="EV02_RS02460" points="0,40 54,40 59,35 54,30 0,30 0,40 "  />
<polygon style="stroke-width:1; fill:white; stroke:black; " id="knownclusterblast-8_q1_0_all" class="clusterblast-orf" description="&lt;b&gt;EV02_RS02455&lt;/b&gt;&lt;br&gt;hypothetical protein&lt;br&gt;Location: 750212 - 750458" locus_tag="EV02_RS02455" points="61,40 65,40 70,35 65,30 61,30 61,40 "  />
<polygon style="stroke-width:1; fill:white; stroke:black; " id="knownclusterblast-8_q2_0_all" class="clusterblast-orf" description="&lt;b&gt;EV02_RS02450&lt;/b&gt;&lt;br&gt;SsrA-binding protein&lt;br&gt;Location: 750484 - 750979" locus_tag="EV02_RS02450" points="71,35 76,30 90,30 90,40 76,40 71,35 "  />
<polygon style="stroke-width:1; fill:white; stroke:black; " id="knownclusterblast-8_q3_0_all" class="clusterblast-orf" description="&lt;b&gt;EV02_RS02445&lt;/b&gt;&lt;br&gt;Holliday junction branch migration DNA helicase RuvB&lt;br&gt;Location: 751031 - 752090" locus_tag="EV02_RS02445" points="92,40 129,40 134,35 129,30 92,30 92,40 "  />
<polygon style="stroke-width:1; fill:white; stroke:black; " id="knownclusterblast-8_q4_0_all" class="clusterblast-orf" description="&lt;b&gt;EV02_RS02440&lt;/b&gt;&lt;br&gt;tetratricopeptide repeat protein&lt;br&gt;Location: 752076 - 752865" locus_tag="EV02_RS02440" points="133,40 159,40 164,35 159,30 133,30 133,40 "  />
<polygon style="stroke-width:1; fill:white; stroke:black; " id="knownclusterblast-8_q5_0_all" class="clusterblast-orf" description="&lt;b&gt;EV02_RS02435&lt;/b&gt;&lt;br&gt;amidohydrolase&lt;br&gt;Location: 752868 - 754053" locus_tag="EV02_RS02435" points="164,40 205,40 210,35 205,30 164,30 164,40 "  />
<polygon style="stroke-width:1; fill:white; stroke:black; " id="knownclusterblast-8_q6_0_all" class="clusterblast-orf" description="&lt;b&gt;EV02_RS02430&lt;/b&gt;&lt;br&gt;DUF3188 domain-containing protein&lt;br&gt;Location: 754049 - 754265" locus_tag="EV02_RS02430" points="210,40 213,40 218,35 213,30 210,30 210,40 "  />
<polygon style="stroke-width:1; fill:white; stroke:black; " id="knownclusterblast-8_q7_0_all" class="clusterblast-orf" description="&lt;b&gt;EV02_RS02425&lt;/b&gt;&lt;br&gt;phosphomethylpyrimidine synthase&lt;br&gt;Location: 754462 - 755833" locus_tag="EV02_RS02425" points="226,40 274,40 279,35 274,30 226,30 226,40 "  />
<polygon style="stroke-width:1; fill:white; stroke:black; " id="knownclusterblast-8_q8_0_all" class="clusterblast-orf" description="&lt;b&gt;EV02_RS02420&lt;/b&gt;&lt;br&gt;transketolase&lt;br&gt;Location: 755847 - 757854" locus_tag="EV02_RS02420" points="279,35 284,30 357,30 357,40 284,40 279,35 "  />
<polygon style="stroke-width:1; fill:white; stroke:black; " id="knownclusterblast-8_q9_0_all" class="clusterblast-orf" description="&lt;b&gt;EV02_RS02415&lt;/b&gt;&lt;br&gt;beta-ketoacyl-[acyl-carrier-protein] synthase II&lt;br&gt;Location: 757897 - 759142" locus_tag="EV02_RS02415" points="359,35 364,30 407,30 407,40 364,40 359,35 "  />
<polygon style="stroke-width:1; fill:white; stroke:black; " id="knownclusterblast-8_q10_0_all" class="clusterblast-orf" description="&lt;b&gt;EV02_RS02410&lt;/b&gt;&lt;br&gt;acyl carrier protein&lt;br&gt;Location: 759148 - 759388" locus_tag="EV02_RS02410" points="407,35 412,30 417,30 417,40 412,40 407,35 "  />
<polygon style="stroke-width:1; fill:white; stroke:black; " id="knownclusterblast-8_q11_0_all" class="clusterblast-orf" description="&lt;b&gt;EV02_RS02405&lt;/b&gt;&lt;br&gt;photosystem I iron-sulfur center protein PsaC&lt;br&gt;Location: 759521 - 759767" locus_tag="EV02_RS02405" points="422,40 426,40 431,35 426,30 422,30 422,40 "  />
<polygon style="stroke-width:1; fill:white; stroke:black; " id="knownclusterblast-8_q12_0_all" class="clusterblast-orf" description="&lt;b&gt;EV02_RS02400&lt;/b&gt;&lt;br&gt;glutamine--fructose-6-phosphate transaminase (isomerizing)&lt;br&gt;Location: 759846 - 761742" locus_tag="EV02_RS02400" points="435,40 503,40 508,35 503,30 435,30 435,40 "  />
<polygon style="stroke-width:1; fill:white; stroke:black; " id="knownclusterblast-8_q13_0_all" class="clusterblast-orf" description="&lt;b&gt;EV02_RS02395&lt;/b&gt;&lt;br&gt;ribosome maturation factor RimM&lt;br&gt;Location: 761773 - 762313" locus_tag="EV02_RS02395" points="509,35 514,30 530,30 530,40 514,40 509,35 "  />
<polygon style="stroke-width:1; fill:white; stroke:black; " id="knownclusterblast-8_q14_0_all" class="clusterblast-orf" description="&lt;b&gt;EV02_RS02390&lt;/b&gt;&lt;br&gt;DUF3252 domain-containing protein&lt;br&gt;Location: 762337 - 762523" locus_tag="EV02_RS02390" points="531,40 533,40 538,35 533,30 531,30 531,40 "  />
<polygon style="stroke-width:1; fill:white; stroke:black; " id="knownclusterblast-8_q15_0_all" class="clusterblast-orf" description="&lt;b&gt;EV02_RS02385&lt;/b&gt;&lt;br&gt;ribonuclease III&lt;br&gt;Location: 762525 - 763275" locus_tag="EV02_RS02385" points="539,35 544,30 568,30 568,40 544,40 539,35 "  />
<polygon style="stroke-width:1; fill:white; stroke:black; " id="knownclusterblast-8_q16_0_all" class="clusterblast-orf" description="&lt;b&gt;EV02_RS02375&lt;/b&gt;&lt;br&gt;hypothetical protein&lt;br&gt;Location: 763868 - 764201" locus_tag="EV02_RS02375" points="591,40 599,40 604,35 599,30 591,30 591,40 "  />
<polygon style="stroke-width:1; fill:white; stroke:black; " id="knownclusterblast-8_q17_0_all" class="clusterblast-orf" description="&lt;b&gt;EV02_RS0108850&lt;/b&gt;&lt;br&gt;hypothetical protein&lt;br&gt;Location: 764232 - 764688" locus_tag="EV02_RS0108850" points="605,40 617,40 622,35 617,30 605,30 605,40 "  />
<polygon style="stroke-width:1; fill:white; stroke:black; " id="knownclusterblast-8_q18_0_all" class="clusterblast-orf" description="&lt;b&gt;EV02_RS02370&lt;/b&gt;&lt;br&gt;glycogen/starch/alpha-glucan phosphorylase&lt;br&gt;Location: 764680 - 767227" locus_tag="EV02_RS02370" points="622,35 627,30 721,30 721,40 627,40 622,35 "  />
<polygon style="stroke-width:1; fill:white; stroke:black; " id="knownclusterblast-8_q19_0_all" class="clusterblast-orf" description="&lt;b&gt;EV02_RS02365&lt;/b&gt;&lt;br&gt;cation:proton antiporter&lt;br&gt;Location: 767377 - 768745" locus_tag="EV02_RS02365" points="727,40 775,40 780,35 775,30 727,30 727,40 "  />
</g>
</svg>
