<svg width="800" x="0" version="1.1" viewBox="0 0 800 50" xmlns:xlink="http://www.w3.org/1999/xlink" preserveAspectRatio="none" y="0" xmlns="http://www.w3.org/2000/svg" height="50"  >
<g label="Query sequence" class="clusterblast-cluster"  >
<text x="5" class="clusterblast-acc" y="20"  >
Query sequence</text>
<line style="stroke-width:1; stroke:grey; " y1="35" y2="35" x2="778.0" x1="10"  />
<polygon style="stroke-width:1; fill:white; stroke:black; " id="knownclusterblast-9_q0_0_all" class="clusterblast-orf" description="&lt;b&gt;EV02_RS01195&lt;/b&gt;&lt;br&gt;peptide-methionine (S)-S-oxide reductase&lt;br&gt;Location: 990535 - 991138" locus_tag="EV02_RS01195" points="0,40 18,40 23,35 18,30 0,30 0,40 "  />
<polygon style="stroke-width:1; fill:white; stroke:black; " id="knownclusterblast-9_q1_0_all" class="clusterblast-orf" description="&lt;b&gt;EV02_RS01190&lt;/b&gt;&lt;br&gt;leucyl aminopeptidase&lt;br&gt;Location: 991149 - 992622" locus_tag="EV02_RS01190" points="23,35 28,30 79,30 79,40 28,40 23,35 "  />
<polygon style="stroke-width:1; fill:white; stroke:black; " id="knownclusterblast-9_q2_0_all" class="clusterblast-orf" description="&lt;b&gt;EV02_RS01185&lt;/b&gt;&lt;br&gt;hypothetical protein&lt;br&gt;Location: 992646 - 993258" locus_tag="EV02_RS01185" points="80,35 85,30 103,30 103,40 85,40 80,35 "  />
<polygon style="stroke-width:1; fill:white; stroke:black; " id="knownclusterblast-9_q3_0_all" class="clusterblast-orf" description="&lt;b&gt;EV02_RS01180&lt;/b&gt;&lt;br&gt;DUF1825 domain-containing protein&lt;br&gt;Location: 993408 - 993732" locus_tag="EV02_RS01180" points="108,40 116,40 121,35 116,30 108,30 108,40 "  />
<polygon style="stroke-width:1; fill:white; stroke:black; " id="knownclusterblast-9_q4_0_all" class="clusterblast-orf" description="&lt;b&gt;EV02_RS01175&lt;/b&gt;&lt;br&gt;tyrosine--tRNA ligase&lt;br&gt;Location: 993751 - 994990" locus_tag="EV02_RS01175" points="121,40 163,40 168,35 163,30 121,30 121,40 "  />
<polygon style="stroke-width:1; fill:white; stroke:black; " id="knownclusterblast-9_q5_0_all" class="clusterblast-orf" description="&lt;b&gt;EV02_RS01170&lt;/b&gt;&lt;br&gt;orotidine-5'-phosphate decarboxylase&lt;br&gt;Location: 994996 - 995725" locus_tag="EV02_RS01170" points="168,40 191,40 196,35 191,30 168,30 168,40 "  />
<polygon style="stroke-width:1; fill:white; stroke:black; " id="knownclusterblast-9_q6_0_all" class="clusterblast-orf" description="&lt;b&gt;EV02_RS01165&lt;/b&gt;&lt;br&gt;acyl-phosphate glycerol 3-phosphate acyltransferase&lt;br&gt;Location: 995711 - 996302" locus_tag="EV02_RS01165" points="195,35 200,30 218,30 218,40 200,40 195,35 "  />
<polygon style="stroke-width:1; fill:white; stroke:black; " id="knownclusterblast-9_q7_0_all" class="clusterblast-orf" description="&lt;b&gt;EV02_RS01160&lt;/b&gt;&lt;br&gt;DUF3086 domain-containing protein&lt;br&gt;Location: 996307 - 997318" locus_tag="EV02_RS01160" points="218,35 223,30 256,30 256,40 223,40 218,35 "  />
<polygon style="stroke-width:1; fill:white; stroke:black; " id="knownclusterblast-9_q8_0_all" class="clusterblast-orf" description="&lt;b&gt;EV02_RS01155&lt;/b&gt;&lt;br&gt;DUF3119 domain-containing protein&lt;br&gt;Location: 997353 - 997758" locus_tag="EV02_RS01155" points="257,35 262,30 272,30 272,40 262,40 257,35 "  />
<polygon style="stroke-width:1; fill:white; stroke:black; " id="knownclusterblast-9_q9_0_all" class="clusterblast-orf" description="&lt;b&gt;EV02_RS01150&lt;/b&gt;&lt;br&gt;ABC transporter permease&lt;br&gt;Location: 997762 - 998518" locus_tag="EV02_RS01150" points="273,35 278,30 301,30 301,40 278,40 273,35 "  />
<polygon style="stroke-width:1; fill:white; stroke:black; " id="knownclusterblast-9_q10_0_all" class="clusterblast-orf" description="&lt;b&gt;EV02_RS01145&lt;/b&gt;&lt;br&gt;sugar transporter&lt;br&gt;Location: 998527 - 999874" locus_tag="EV02_RS01145" points="301,35 306,30 352,30 352,40 306,40 301,35 "  />
<polygon style="stroke-width:1; fill:white; stroke:black; " id="knownclusterblast-9_q11_0_all" class="clusterblast-orf" description="&lt;b&gt;EV02_RS01135&lt;/b&gt;&lt;br&gt;glycogen-debranching protein&lt;br&gt;Location: 1000058 - 1002092" locus_tag="EV02_RS01135" points="359,35 364,30 436,30 436,40 364,40 359,35 "  />
<polygon style="stroke-width:1; fill:white; stroke:black; " id="knownclusterblast-9_q12_0_all" class="clusterblast-orf" description="&lt;b&gt;EV02_RS0108910&lt;/b&gt;&lt;br&gt;hypothetical protein&lt;br&gt;Location: 1002506 - 1002716" locus_tag="EV02_RS0108910" points="452,35 457,30 460,30 460,40 457,40 452,35 "  />
<polygon style="stroke-width:1; fill:white; stroke:black; " id="knownclusterblast-9_q13_0_all" class="clusterblast-orf" description="&lt;b&gt;EV02_RS01130&lt;/b&gt;&lt;br&gt;HU family DNA-binding protein&lt;br&gt;Location: 1002715 - 1002991" locus_tag="EV02_RS01130" points="460,40 465,40 470,35 465,30 460,30 460,40 "  />
<polygon style="stroke-width:1; fill:white; stroke:black; " id="knownclusterblast-9_q14_0_all" class="clusterblast-orf" description="&lt;b&gt;EV02_RS01125&lt;/b&gt;&lt;br&gt;hypothetical protein&lt;br&gt;Location: 1003128 - 1003440" locus_tag="EV02_RS01125" points="475,40 482,40 487,35 482,30 475,30 475,40 "  />
<polygon style="stroke-width:1; fill:white; stroke:black; " id="knownclusterblast-9_q15_0_all" class="clusterblast-orf" description="&lt;b&gt;EV02_RS01120&lt;/b&gt;&lt;br&gt;hypothetical protein&lt;br&gt;Location: 1003494 - 1003737" locus_tag="EV02_RS01120" points="489,40 493,40 498,35 493,30 489,30 489,40 "  />
<polygon style="stroke-width:1; fill:white; stroke:black; " id="knownclusterblast-9_q16_0_all" class="clusterblast-orf" description="&lt;b&gt;EV02_RS0108915&lt;/b&gt;&lt;br&gt;hypothetical protein&lt;br&gt;Location: 1003795 - 1004053" locus_tag="EV02_RS0108915" points="500,40 505,40 510,35 505,30 500,30 500,40 "  />
<polygon style="stroke-width:1; fill:white; stroke:black; " id="knownclusterblast-9_q17_0_all" class="clusterblast-orf" description="&lt;b&gt;EV02_RS01115&lt;/b&gt;&lt;br&gt;hypothetical protein&lt;br&gt;Location: 1004047 - 1004260" locus_tag="EV02_RS01115" points="510,35 515,30 518,30 518,40 515,40 510,35 "  />
<polygon style="stroke-width:1; fill:white; stroke:black; " id="knownclusterblast-9_q18_0_all" class="clusterblast-orf" description="&lt;b&gt;EV02_RS01110&lt;/b&gt;&lt;br&gt;high light inducible protein&lt;br&gt;Location: 1004262 - 1004511" locus_tag="EV02_RS01110" points="518,35 523,30 527,30 527,40 523,40 518,35 "  />
<polygon style="stroke-width:1; fill:white; stroke:black; " id="knownclusterblast-9_q19_0_all" class="clusterblast-orf" description="&lt;b&gt;EV02_RS01105&lt;/b&gt;&lt;br&gt;cobalamin biosynthesis protein CobD&lt;br&gt;Location: 1004556 - 1005582" locus_tag="EV02_RS01105" points="529,35 534,30 568,30 568,40 534,40 529,35 "  />
<polygon style="stroke-width:1; fill:white; stroke:black; " id="knownclusterblast-9_q20_0_all" class="clusterblast-orf" description="&lt;b&gt;EV02_RS01100&lt;/b&gt;&lt;br&gt;ketol-acid reductoisomerase&lt;br&gt;Location: 1005569 - 1006559" locus_tag="EV02_RS01100" points="567,35 572,30 605,30 605,40 572,40 567,35 "  />
<polygon style="stroke-width:1; fill:white; stroke:black; " id="knownclusterblast-9_q21_0_all" class="clusterblast-orf" description="&lt;b&gt;EV02_RS01095&lt;/b&gt;&lt;br&gt;ATP-dependent Clp protease proteolytic subunit&lt;br&gt;Location: 1006670 - 1007282" locus_tag="EV02_RS01095" points="609,35 614,30 632,30 632,40 614,40 609,35 "  />
<polygon style="stroke-width:1; fill:white; stroke:black; " id="knownclusterblast-9_q22_0_all" class="clusterblast-orf" description="&lt;b&gt;EV02_RS01090&lt;/b&gt;&lt;br&gt;ATP-dependent Clp protease proteolytic subunit&lt;br&gt;Location: 1007306 - 1007969" locus_tag="EV02_RS01090" points="633,35 638,30 658,30 658,40 638,40 633,35 "  />
<polygon style="stroke-width:1; fill:white; stroke:black; " id="knownclusterblast-9_q23_0_all" class="clusterblast-orf" description="&lt;b&gt;EV02_RS01085&lt;/b&gt;&lt;br&gt;PIN/TRAM domain-containing protein&lt;br&gt;Location: 1008009 - 1009119" locus_tag="EV02_RS01085" points="659,35 664,30 701,30 701,40 664,40 659,35 "  />
<polygon style="stroke-width:1; fill:white; stroke:black; " id="knownclusterblast-9_q24_0_all" class="clusterblast-orf" description="&lt;b&gt;EV02_RS01080&lt;/b&gt;&lt;br&gt;radical SAM protein&lt;br&gt;Location: 1009215 - 1010439" locus_tag="EV02_RS01080" points="705,40 746,40 751,35 746,30 705,30 705,40 "  />
<polygon style="stroke-width:1; fill:white; stroke:black; " id="knownclusterblast-9_q25_0_all" class="clusterblast-orf" description="&lt;b&gt;EV02_RS01075&lt;/b&gt;&lt;br&gt;3-methyl-2-oxobutanoate hydroxymethyltransferase&lt;br&gt;Location: 1010431 - 1011205" locus_tag="EV02_RS01075" points="751,35 756,30 780,30 780,40 756,40 751,35 "  />
</g>
</svg>
