<svg width="800" x="0" version="1.1" viewBox="0 0 800 230" xmlns:xlink="http://www.w3.org/1999/xlink" preserveAspectRatio="none" y="0" xmlns="http://www.w3.org/2000/svg" height="230"  >
<g label="Query sequence" class="clusterblast-cluster"  >
<text x="5" class="clusterblast-acc" y="20"  >
Query sequence</text>
<line style="stroke-width:1; stroke:grey; " y1="35" y2="35" x2="778.0" x1="10"  />
<polygon style="stroke-width:1; fill:white; stroke:black; " id="dummy-10_q0_0_all" class="clusterblast-orf" description="&lt;b&gt;EV02_RS09110&lt;/b&gt;&lt;br&gt;SAM-dependent methyltransferase&lt;br&gt;Location: 1058959 - 1059691" locus_tag="EV02_RS09110" points="44,40 47,40 52,35 47,30 44,30 44,40 "  />
<polygon style="stroke-width:1; fill:white; stroke:black; " id="dummy-10_q1_0_all" class="clusterblast-orf" description="&lt;b&gt;EV02_RS00830&lt;/b&gt;&lt;br&gt;acyltransferase&lt;br&gt;Location: 1060533 - 1060764" locus_tag="EV02_RS00830" points="61,40 63,35 61,30 61,40 "  />
<polygon style="stroke-width:1; fill:white; stroke:black; " id="dummy-10_q2_0_all" class="clusterblast-orf" description="&lt;b&gt;EV02_RS00825&lt;/b&gt;&lt;br&gt;acyltransferase&lt;br&gt;Location: 1060835 - 1061501" locus_tag="EV02_RS00825" points="64,40 66,40 71,35 66,30 64,30 64,40 "  />
<polygon style="stroke-width:1; fill:white; stroke:black; " id="dummy-10_q3_0_all" class="clusterblast-orf" description="&lt;b&gt;EV02_RS00820&lt;/b&gt;&lt;br&gt;hypothetical protein&lt;br&gt;Location: 1061501 - 1062287" locus_tag="EV02_RS00820" points="71,40 75,40 80,35 75,30 71,30 71,40 "  />
<polygon style="stroke-width:1; fill:white; stroke:black; " id="dummy-10_q4_0_all" class="clusterblast-orf" description="&lt;b&gt;EV02_RS00815&lt;/b&gt;&lt;br&gt;hypothetical protein&lt;br&gt;Location: 1063028 - 1063469" locus_tag="EV02_RS00815" points="88,35 93,30 93,30 93,40 93,40 88,35 "  />
<polygon style="stroke-width:1; fill:white; stroke:black; " id="dummy-10_q5_0_all" class="clusterblast-orf" description="&lt;b&gt;EV02_RS00810&lt;/b&gt;&lt;br&gt;hypothetical protein&lt;br&gt;Location: 1063924 - 1064965" locus_tag="EV02_RS00810" points="98,35 103,30 109,30 109,40 103,40 98,35 "  />
<polygon style="stroke-width:1; fill:white; stroke:black; " id="dummy-10_q6_0_all" class="clusterblast-orf" description="&lt;b&gt;EV02_RS00805&lt;/b&gt;&lt;br&gt;hypothetical protein&lt;br&gt;Location: 1065123 - 1065597" locus_tag="EV02_RS00805" points="111,35 116,30 116,30 116,40 116,40 111,35 "  />
<polygon style="stroke-width:1; fill:white; stroke:black; " id="dummy-10_q7_0_all" class="clusterblast-orf" description="&lt;b&gt;EV02_RS00800&lt;/b&gt;&lt;br&gt;hypothetical protein&lt;br&gt;Location: 1065596 - 1067999" locus_tag="EV02_RS00800" points="116,35 121,30 143,30 143,40 121,40 116,35 "  />
<polygon style="stroke-width:1; fill:white; stroke:black; " id="dummy-10_q8_0_all" class="clusterblast-orf" description="&lt;b&gt;EV02_RS00795&lt;/b&gt;&lt;br&gt;hypothetical protein&lt;br&gt;Location: 1068089 - 1069193" locus_tag="EV02_RS00795" points="144,40 151,40 156,35 151,30 144,30 144,40 "  />
<polygon style="stroke-width:1; fill:white; stroke:black; " id="dummy-10_q9_0_all" class="clusterblast-orf" description="&lt;b&gt;EV02_RS0108935&lt;/b&gt;&lt;br&gt;hypothetical protein&lt;br&gt;Location: 1069194 - 1070301" locus_tag="EV02_RS0108935" points="156,40 163,40 168,35 163,30 156,30 156,40 "  />
<polygon style="stroke-width:1; fill:white; stroke:black; " id="dummy-10_q10_0_all" class="clusterblast-orf" description="&lt;b&gt;EV02_RS00790&lt;/b&gt;&lt;br&gt;hypothetical protein&lt;br&gt;Location: 1070297 - 1071644" locus_tag="EV02_RS00790" points="168,40 178,40 183,35 178,30 168,30 168,40 "  />
<polygon style="stroke-width:1; fill:white; stroke:black; " id="dummy-10_q11_0_all" class="clusterblast-orf" description="&lt;b&gt;EV02_RS00785&lt;/b&gt;&lt;br&gt;hypothetical protein&lt;br&gt;Location: 1071643 - 1072846" locus_tag="EV02_RS00785" points="183,40 191,40 196,35 191,30 183,30 183,40 "  />
<polygon style="stroke-width:1; fill:white; stroke:black; " id="dummy-10_q12_0_all" class="clusterblast-orf" description="&lt;b&gt;EV02_RS00780&lt;/b&gt;&lt;br&gt;hypothetical protein&lt;br&gt;Location: 1072842 - 1073955" locus_tag="EV02_RS00780" points="196,40 203,40 208,35 203,30 196,30 196,40 "  />
<polygon style="stroke-width:1; fill:white; stroke:black; " id="dummy-10_q13_0_all" class="clusterblast-orf" description="&lt;b&gt;EV02_RS00775&lt;/b&gt;&lt;br&gt;hypothetical protein&lt;br&gt;Location: 1073947 - 1075363" locus_tag="EV02_RS00775" points="208,40 218,40 223,35 218,30 208,30 208,40 "  />
<polygon style="stroke-width:1; fill:white; stroke:black; " id="dummy-10_q14_0_all" class="clusterblast-orf" description="&lt;b&gt;EV02_RS00770&lt;/b&gt;&lt;br&gt;hypothetical protein&lt;br&gt;Location: 1075418 - 1076681" locus_tag="EV02_RS00770" points="224,40 233,40 238,35 233,30 224,30 224,40 "  />
<polygon style="stroke-width:1; fill:white; stroke:black; " id="dummy-10_q15_0_all" class="clusterblast-orf" description="&lt;b&gt;EV02_RS00765&lt;/b&gt;&lt;br&gt;exosortase/archaeosortase family protein&lt;br&gt;Location: 1076710 - 1077571" locus_tag="EV02_RS00765" points="238,35 243,30 247,30 247,40 243,40 238,35 "  />
<polygon style="stroke-width:1; fill:white; stroke:black; " id="dummy-10_q16_0_all" class="clusterblast-orf" description="&lt;b&gt;EV02_RS00760&lt;/b&gt;&lt;br&gt;hypothetical protein&lt;br&gt;Location: 1077567 - 1078224" locus_tag="EV02_RS00760" points="247,35 252,30 255,30 255,40 252,40 247,35 "  />
<polygon style="stroke-width:1; fill:white; stroke:black; " id="dummy-10_q17_0_all" class="clusterblast-orf" description="&lt;b&gt;EV02_RS00755&lt;/b&gt;&lt;br&gt;hypothetical protein&lt;br&gt;Location: 1078227 - 1078770" locus_tag="EV02_RS00755" points="255,35 260,30 261,30 261,40 260,40 255,35 "  />
<polygon style="stroke-width:1; fill:white; stroke:black; " id="dummy-10_q18_0_all" class="clusterblast-orf" description="&lt;b&gt;EV02_RS09115&lt;/b&gt;&lt;br&gt;hypothetical protein&lt;br&gt;Location: 1078928 - 1080290" locus_tag="EV02_RS09115" points="262,40 272,40 277,35 272,30 262,30 262,40 "  />
<polygon style="stroke-width:1; fill:white; stroke:black; " id="dummy-10_q19_0_all" class="clusterblast-orf" description="&lt;b&gt;EV02_RS00750&lt;/b&gt;&lt;br&gt;hypothetical protein&lt;br&gt;Location: 1080322 - 1081168" locus_tag="EV02_RS00750" points="278,35 283,30 287,30 287,40 283,40 278,35 "  />
<polygon style="stroke-width:1; fill:#d81515; stroke:black; " id="dummy-10_q20_0_all" class="clusterblast-orf" description="&lt;b&gt;EV02_RS00745&lt;/b&gt;&lt;br&gt;GDP-L-fucose synthase&lt;br&gt;Location: 1081245 - 1082262" locus_tag="EV02_RS00745" points="288,35 293,30 299,30 299,40 293,40 288,35 "  />
<polygon style="stroke-width:1; fill:#4dd815; stroke:black; " id="dummy-10_q21_0_all" class="clusterblast-orf" description="&lt;b&gt;EV02_RS00740&lt;/b&gt;&lt;br&gt;UDP-glucose 4-epimerase GalE&lt;br&gt;Location: 1082663 - 1083719" locus_tag="EV02_RS00740" points="303,40 310,40 315,35 310,30 303,30 303,40 "  />
<polygon style="stroke-width:1; fill:#1585d8; stroke:black; " id="dummy-10_q22_0_all" class="clusterblast-orf" description="&lt;b&gt;EV02_RS0108945&lt;/b&gt;&lt;br&gt;hypothetical protein&lt;br&gt;Location: 1083814 - 1084834" locus_tag="EV02_RS0108945" points="316,40 322,40 327,35 322,30 316,30 316,40 "  />
<polygon style="stroke-width:1; fill:#d815bc; stroke:black; " id="dummy-10_q23_0_all" class="clusterblast-orf" description="&lt;b&gt;EV02_RS00735&lt;/b&gt;&lt;br&gt;GDP-mannose 4,6-dehydratase&lt;br&gt;Location: 1084891 - 1086010" locus_tag="EV02_RS00735" points="328,40 335,40 340,35 335,30 328,30 328,40 "  />
<polygon style="stroke-width:1; fill:#d8bc15; stroke:black; " id="dummy-10_q24_0_all" class="clusterblast-orf" description="&lt;b&gt;EV02_RS00730&lt;/b&gt;&lt;br&gt;mannose-1-phosphate guanylyltransferase/mannose-6-phosphate isomerase&lt;br&gt;Location: 1086009 - 1087464" locus_tag="EV02_RS00730" points="340,40 351,40 356,35 351,30 340,30 340,40 "  />
<polygon style="stroke-width:1; fill:white; stroke:black; " id="dummy-10_q25_0_all" class="clusterblast-orf" description="&lt;b&gt;EV02_RS00725&lt;/b&gt;&lt;br&gt;nucleotide sugar dehydrogenase&lt;br&gt;Location: 1087480 - 1088920" locus_tag="EV02_RS00725" points="356,35 361,30 372,30 372,40 361,40 356,35 "  />
<polygon style="stroke-width:1; fill:white; stroke:black; " id="dummy-10_q26_0_all" class="clusterblast-orf" description="&lt;b&gt;EV02_RS00720&lt;/b&gt;&lt;br&gt;hypothetical protein&lt;br&gt;Location: 1089138 - 1089969" locus_tag="EV02_RS00720" points="374,35 379,30 383,30 383,40 379,40 374,35 "  />
<polygon style="stroke-width:1; fill:white; stroke:black; " id="dummy-10_q27_0_all" class="clusterblast-orf" description="&lt;b&gt;EV02_RS00715&lt;/b&gt;&lt;br&gt;hypothetical protein&lt;br&gt;Location: 1090115 - 1091048" locus_tag="EV02_RS00715" points="385,40 390,40 395,35 390,30 385,30 385,40 "  />
<polygon style="stroke-width:1; fill:white; stroke:black; " id="dummy-10_q28_0_all" class="clusterblast-orf" description="&lt;b&gt;EV02_RS0108950&lt;/b&gt;&lt;br&gt;hypothetical protein&lt;br&gt;Location: 1091079 - 1092246" locus_tag="EV02_RS0108950" points="395,40 403,40 408,35 403,30 395,30 395,40 "  />
<polygon style="stroke-width:1; fill:#15d885; stroke:black; " id="dummy-10_q29_0_all" class="clusterblast-orf" description="&lt;b&gt;EV02_RS00710&lt;/b&gt;&lt;br&gt;phosphoenolpyruvate mutase&lt;br&gt;Location: 1092361 - 1093672" locus_tag="EV02_RS00710" points="409,40 419,40 424,35 419,30 409,30 409,40 "  />
<polygon style="stroke-width:1; fill:#4d15d8; stroke:black; " id="dummy-10_q30_0_all" class="clusterblast-orf" description="&lt;b&gt;EV02_RS00705&lt;/b&gt;&lt;br&gt;phosphonopyruvate decarboxylase&lt;br&gt;Location: 1093664 - 1094810" locus_tag="EV02_RS00705" points="424,40 431,40 436,35 431,30 424,30 424,40 "  />
<polygon style="stroke-width:1; fill:white; stroke:black; " id="dummy-10_q31_0_all" class="clusterblast-orf" description="&lt;b&gt;EV02_RS00700&lt;/b&gt;&lt;br&gt;hypothetical protein&lt;br&gt;Location: 1094810 - 1095941" locus_tag="EV02_RS00700" points="436,40 444,40 449,35 444,30 436,30 436,40 "  />
<polygon style="stroke-width:1; fill:white; stroke:black; " id="dummy-10_q32_0_all" class="clusterblast-orf" description="&lt;b&gt;EV02_RS09255&lt;/b&gt;&lt;br&gt;O-antigen ligase domain-containing protein&lt;br&gt;Location: 1095949 - 1097257" locus_tag="EV02_RS09255" points="449,35 454,30 463,30 463,40 454,40 449,35 "  />
<polygon style="stroke-width:1; fill:white; stroke:black; " id="dummy-10_q33_0_all" class="clusterblast-orf" description="&lt;b&gt;EV02_RS00685&lt;/b&gt;&lt;br&gt;hypothetical protein&lt;br&gt;Location: 1097583 - 1098210" locus_tag="EV02_RS00685" points="467,40 468,40 473,35 468,30 467,30 467,40 "  />
<polygon style="stroke-width:1; fill:white; stroke:black; " id="dummy-10_q34_0_all" class="clusterblast-orf" description="&lt;b&gt;EV02_RS0108955&lt;/b&gt;&lt;br&gt;hypothetical protein&lt;br&gt;Location: 1098211 - 1098436" locus_tag="EV02_RS0108955" points="473,35 476,30 476,40 473,35 "  />
<polygon style="stroke-width:1; fill:white; stroke:black; " id="dummy-10_q35_0_all" class="clusterblast-orf" description="&lt;b&gt;EV02_RS00680&lt;/b&gt;&lt;br&gt;16S rRNA (cytidine(1402)-2'-O)-methyltransferase&lt;br&gt;Location: 1098455 - 1099319" locus_tag="EV02_RS00680" points="476,35 481,30 486,30 486,40 481,40 476,35 "  />
<polygon style="stroke-width:1; fill:white; stroke:black; " id="dummy-10_q36_0_all" class="clusterblast-orf" description="&lt;b&gt;EV02_RS00675&lt;/b&gt;&lt;br&gt;3'(2'),5'-bisphosphate nucleotidase CysQ&lt;br&gt;Location: 1099322 - 1100222" locus_tag="EV02_RS00675" points="486,40 490,40 495,35 490,30 486,30 486,40 "  />
<polygon style="stroke-width:1; fill:white; stroke:black; " id="dummy-10_q37_0_all" class="clusterblast-orf" description="&lt;b&gt;EV02_RS00670&lt;/b&gt;&lt;br&gt;polyribonucleotide nucleotidyltransferase&lt;br&gt;Location: 1100225 - 1102391" locus_tag="EV02_RS00670" points="495,35 500,30 519,30 519,40 500,40 495,35 "  />
<polygon style="stroke-width:1; fill:white; stroke:black; " id="dummy-10_q38_0_all" class="clusterblast-orf" description="&lt;b&gt;EV02_RS00665&lt;/b&gt;&lt;br&gt;30S ribosomal protein S14&lt;br&gt;Location: 1102561 - 1102864" locus_tag="EV02_RS00665" points="521,35 524,30 524,40 521,35 "  />
<polygon style="stroke-width:1; fill:white; stroke:black; " id="dummy-10_q39_0_all" class="clusterblast-orf" description="&lt;b&gt;EV02_RS00660&lt;/b&gt;&lt;br&gt;RIP metalloprotease RseP&lt;br&gt;Location: 1102926 - 1104006" locus_tag="EV02_RS00660" points="525,35 530,30 537,30 537,40 530,40 525,35 "  />
<polygon style="stroke-width:1; fill:white; stroke:black; " id="dummy-10_q40_0_all" class="clusterblast-orf" description="&lt;b&gt;EV02_RS00655&lt;/b&gt;&lt;br&gt;serine--tRNA ligase&lt;br&gt;Location: 1104015 - 1105293" locus_tag="EV02_RS00655" points="537,35 542,30 551,30 551,40 542,40 537,35 "  />
<polygon style="stroke-width:1; fill:white; stroke:black; " id="dummy-10_q41_0_all" class="clusterblast-orf" description="&lt;b&gt;EV02_RS00650&lt;/b&gt;&lt;br&gt;ATPase AAA&lt;br&gt;Location: 1105415 - 1106882" locus_tag="EV02_RS00650" points="552,35 557,30 568,30 568,40 557,40 552,35 "  />
<polygon style="stroke-width:1; fill:white; stroke:black; " id="dummy-10_q42_0_all" class="clusterblast-orf" description="&lt;b&gt;EV02_RS00645&lt;/b&gt;&lt;br&gt;membrane protein insertase YidC&lt;br&gt;Location: 1106896 - 1108039" locus_tag="EV02_RS00645" points="569,35 574,30 581,30 581,40 574,40 569,35 "  />
<polygon style="stroke-width:1; fill:white; stroke:black; " id="dummy-10_q43_0_all" class="clusterblast-orf" description="&lt;b&gt;EV02_RS00640&lt;/b&gt;&lt;br&gt;ribonuclease P&lt;br&gt;Location: 1108101 - 1108524" locus_tag="EV02_RS00640" points="582,35 586,30 586,40 582,35 "  />
<polygon style="stroke-width:1; fill:white; stroke:black; " id="dummy-10_q44_0_all" class="clusterblast-orf" description="&lt;b&gt;EV02_RS00635&lt;/b&gt;&lt;br&gt;ribonuclease P&lt;br&gt;Location: 1108520 - 1108907" locus_tag="EV02_RS00635" points="586,35 591,30 591,30 591,40 591,40 586,35 "  />
<polygon style="stroke-width:1; fill:white; stroke:black; " id="dummy-10_q45_0_all" class="clusterblast-orf" description="&lt;b&gt;EV02_RS00630&lt;/b&gt;&lt;br&gt;50S ribosomal protein L34&lt;br&gt;Location: 1108919 - 1109057" locus_tag="EV02_RS00630" points="591,35 592,30 592,40 591,35 "  />
<polygon style="stroke-width:1; fill:white; stroke:black; " id="dummy-10_q46_0_all" class="clusterblast-orf" description="&lt;b&gt;EV02_RS00625&lt;/b&gt;&lt;br&gt;DUF2808 domain-containing protein&lt;br&gt;Location: 1109087 - 1109666" locus_tag="EV02_RS00625" points="593,35 598,30 599,30 599,40 598,40 593,35 "  />
<polygon style="stroke-width:1; fill:white; stroke:black; " id="dummy-10_q47_0_all" class="clusterblast-orf" description="&lt;b&gt;EV02_RS00620&lt;/b&gt;&lt;br&gt;chorismate mutase&lt;br&gt;Location: 1109733 - 1110117" locus_tag="EV02_RS00620" points="600,35 604,30 604,40 600,35 "  />
<polygon style="stroke-width:1; fill:white; stroke:black; " id="dummy-10_q48_0_all" class="clusterblast-orf" description="&lt;b&gt;EV02_RS00615&lt;/b&gt;&lt;br&gt;signal peptide peptidase SppA&lt;br&gt;Location: 1110123 - 1110933" locus_tag="EV02_RS00615" points="604,35 609,30 613,30 613,40 609,40 604,35 "  />
<polygon style="stroke-width:1; fill:white; stroke:black; " id="dummy-10_q49_0_all" class="clusterblast-orf" description="&lt;b&gt;EV02_RS00610&lt;/b&gt;&lt;br&gt;EamA family transporter&lt;br&gt;Location: 1110985 - 1111927" locus_tag="EV02_RS00610" points="613,40 619,40 624,35 619,30 613,30 613,40 "  />
<polygon style="stroke-width:1; fill:white; stroke:black; " id="dummy-10_q50_0_all" class="clusterblast-orf" description="&lt;b&gt;EV02_RS00605&lt;/b&gt;&lt;br&gt;glycosyl transferase&lt;br&gt;Location: 1111955 - 1113032" locus_tag="EV02_RS00605" points="624,40 631,40 636,35 631,30 624,30 624,40 "  />
<polygon style="stroke-width:1; fill:white; stroke:black; " id="dummy-10_q51_0_all" class="clusterblast-orf" description="&lt;b&gt;EV02_RS00600&lt;/b&gt;&lt;br&gt;glycosyl transferase&lt;br&gt;Location: 1113038 - 1114844" locus_tag="EV02_RS00600" points="636,40 651,40 656,35 651,30 636,30 636,40 "  />
<polygon style="stroke-width:1; fill:white; stroke:black; " id="dummy-10_q52_0_all" class="clusterblast-orf" description="&lt;b&gt;EV02_RS00595&lt;/b&gt;&lt;br&gt;hypothetical protein&lt;br&gt;Location: 1114840 - 1115092" locus_tag="EV02_RS00595" points="656,35 658,30 658,40 656,35 "  />
<polygon style="stroke-width:1; fill:white; stroke:black; " id="dummy-10_q53_0_all" class="clusterblast-orf" description="&lt;b&gt;EV02_RS0108960&lt;/b&gt;&lt;br&gt;malate transporter&lt;br&gt;Location: 1115173 - 1115968" locus_tag="EV02_RS0108960" points="659,35 664,30 668,30 668,40 664,40 659,35 "  />
<polygon style="stroke-width:1; fill:white; stroke:black; " id="dummy-10_q54_0_all" class="clusterblast-orf" description="&lt;b&gt;EV02_RS00590&lt;/b&gt;&lt;br&gt;hypothetical protein&lt;br&gt;Location: 1116173 - 1116398" locus_tag="EV02_RS00590" points="670,35 673,30 673,40 670,35 "  />
<polygon style="stroke-width:1; fill:white; stroke:black; " id="dummy-10_q55_0_all" class="clusterblast-orf" description="&lt;b&gt;EV02_RS00585&lt;/b&gt;&lt;br&gt;MtN3 and saliva related protein&lt;br&gt;Location: 1116479 - 1116737" locus_tag="EV02_RS00585" points="673,35 676,30 676,40 673,35 "  />
<polygon style="stroke-width:1; fill:white; stroke:black; " id="dummy-10_q56_0_all" class="clusterblast-orf" description="&lt;b&gt;EV02_RS00580&lt;/b&gt;&lt;br&gt;hypothetical protein&lt;br&gt;Location: 1116754 - 1117489" locus_tag="EV02_RS00580" points="676,35 681,30 685,30 685,40 681,40 676,35 "  />
<polygon style="stroke-width:1; fill:white; stroke:black; " id="dummy-10_q57_0_all" class="clusterblast-orf" description="&lt;b&gt;EV02_RS00575&lt;/b&gt;&lt;br&gt;flavodoxin FldA&lt;br&gt;Location: 1117630 - 1118155" locus_tag="EV02_RS00575" points="686,40 687,40 692,35 687,30 686,30 686,40 "  />
<polygon style="stroke-width:1; fill:white; stroke:black; " id="dummy-10_q58_0_all" class="clusterblast-orf" description="&lt;b&gt;EV02_RS00570&lt;/b&gt;&lt;br&gt;chlorophyll a/b binding light-harvesting protein&lt;br&gt;Location: 1118298 - 1119357" locus_tag="EV02_RS00570" points="693,40 700,40 705,35 700,30 693,30 693,40 "  />
<polygon style="stroke-width:1; fill:white; stroke:black; " id="dummy-10_q59_0_all" class="clusterblast-orf" description="&lt;b&gt;EV02_RS00565&lt;/b&gt;&lt;br&gt;DUF3386 domain-containing protein&lt;br&gt;Location: 1119434 - 1120088" locus_tag="EV02_RS00565" points="706,40 708,40 713,35 708,30 706,30 706,40 "  />
<polygon style="stroke-width:1; fill:white; stroke:black; " id="dummy-10_q60_0_all" class="clusterblast-orf" description="&lt;b&gt;EV02_RS00560&lt;/b&gt;&lt;br&gt;hypothetical protein&lt;br&gt;Location: 1120092 - 1120338" locus_tag="EV02_RS00560" points="713,35 716,30 716,40 713,35 "  />
<polygon style="stroke-width:1; fill:white; stroke:black; " id="dummy-10_q61_0_all" class="clusterblast-orf" description="&lt;b&gt;EV02_RS00555&lt;/b&gt;&lt;br&gt;methyltransferase type 11&lt;br&gt;Location: 1120447 - 1121086" locus_tag="EV02_RS00555" points="717,35 722,30 724,30 724,40 722,40 717,35 "  />
<polygon style="stroke-width:1; fill:white; stroke:black; " id="dummy-10_q62_0_all" class="clusterblast-orf" description="&lt;b&gt;EV02_RS00550&lt;/b&gt;&lt;br&gt;hypothetical protein&lt;br&gt;Location: 1121410 - 1121743" locus_tag="EV02_RS00550" points="727,40 731,35 727,30 727,40 "  />
<polygon style="stroke-width:1; fill:white; stroke:black; " id="dummy-10_q63_0_all" class="clusterblast-orf" description="&lt;b&gt;EV02_RS00545&lt;/b&gt;&lt;br&gt;DUF1824 domain-containing protein&lt;br&gt;Location: 1121764 - 1122151" locus_tag="EV02_RS00545" points="731,40 731,40 736,35 731,30 731,30 731,40 "  />
</g>
<g description="BGC0000362_c1: Glycopeptidolipid (5% of genes show similarity), nrps" label="BGC0000362" class="clusterblast-cluster"  >
<text x="5" class="clusterblast-acc" y="70"  >
<a xlink:href="https://mibig.secondarymetabolites.org/go/BGC0000362/1" target="_blank">BGC0000362</a>:                                                                Glycopeptidolipid (5% of genes show similarity), nrps</text>
<line style="stroke-width:1; stroke:grey; " y1="85" y2="85" x2="778.0" x1="10"  />
</g>
<g id="a10_000"  >
<polygon style="stroke-width:1; fill:white; stroke:black; " id="dummy-10_h10_8_0" class="clusterblast-orf" description="&lt;b&gt;AAD44199.1&lt;/b&gt;&lt;br&gt;unknown&lt;br&gt;Location: 47 - 1132" locus_tag="AAD44199.1" points="0,90 6,90 11,85 6,80 0,80 0,90 "  />
</g>
<g id="a10_001"  >
<polygon style="stroke-width:1; fill:white; stroke:black; " id="dummy-10_h10_8_1" class="clusterblast-orf" description="&lt;b&gt;AAD44200.1&lt;/b&gt;&lt;br&gt;IS1601-D&lt;br&gt;Location: 1524 - 2441" locus_tag="AAD44200.1" points="16,85 21,80 26,80 26,90 21,90 16,85 "  />
</g>
<g id="a10_002"  >
<polygon style="stroke-width:1; fill:white; stroke:black; " id="dummy-10_h10_8_2" class="clusterblast-orf" description="&lt;b&gt;AAD44201.1&lt;/b&gt;&lt;br&gt;IS1601-C&lt;br&gt;Location: 2441 - 2785" locus_tag="AAD44201.1" points="26,85 29,80 29,90 26,85 "  />
</g>
<g id="a10_003"  >
<polygon style="stroke-width:1; fill:white; stroke:black; " id="dummy-10_h10_8_3" class="clusterblast-orf" description="&lt;b&gt;AAD44202.1&lt;/b&gt;&lt;br&gt;IS1601-B&lt;br&gt;Location: 2837 - 4039" locus_tag="AAD44202.1" points="30,85 35,80 43,80 43,90 35,90 30,85 "  />
</g>
<g id="a10_004"  >
<polygon style="stroke-width:1; fill:white; stroke:black; " id="dummy-10_h10_8_4" class="clusterblast-orf" description="&lt;b&gt;AAD44203.1&lt;/b&gt;&lt;br&gt;IS1601-A&lt;br&gt;Location: 4298 - 5545" locus_tag="AAD44203.1" points="46,85 51,80 60,80 60,90 51,90 46,85 "  />
</g>
<g id="a10_005"  >
<polygon style="stroke-width:1; fill:white; stroke:black; " id="dummy-10_h10_8_5" class="clusterblast-orf" description="&lt;b&gt;AAD44204.1&lt;/b&gt;&lt;br&gt;A-protein-like protein&lt;br&gt;Location: 5791 - 6876" locus_tag="AAD44204.1" points="62,90 69,90 74,85 69,80 62,80 62,90 "  />
</g>
<g id="a10_006"  >
<polygon style="stroke-width:1; fill:white; stroke:black; " id="dummy-10_h10_8_6" class="clusterblast-orf" description="&lt;b&gt;AAD44205.1&lt;/b&gt;&lt;br&gt;GepiA&lt;br&gt;Location: 6996 - 8057" locus_tag="AAD44205.1" points="76,90 82,90 87,85 82,80 76,80 76,90 "  />
</g>
<g id="a10_007"  >
<polygon style="stroke-width:1; fill:white; stroke:black; " id="dummy-10_h10_8_7" class="clusterblast-orf" description="&lt;b&gt;AAD44206.1&lt;/b&gt;&lt;br&gt;MtfA&lt;br&gt;Location: 8321 - 9448" locus_tag="AAD44206.1" points="90,90 97,90 102,85 97,80 90,80 90,90 "  />
</g>
<g id="a10_008"  >
<polygon style="stroke-width:1; fill:white; stroke:black; " id="dummy-10_h10_8_8" class="clusterblast-orf" description="&lt;b&gt;AAD44207.1&lt;/b&gt;&lt;br&gt;MtfB&lt;br&gt;Location: 9715 - 10536" locus_tag="AAD44207.1" points="105,90 109,90 114,85 109,80 105,80 105,90 "  />
</g>
<g id="a10_009"  >
<polygon style="stroke-width:1; fill:white; stroke:black; " id="dummy-10_h10_8_9" class="clusterblast-orf" description="&lt;b&gt;AAD44208.1&lt;/b&gt;&lt;br&gt;GtfA&lt;br&gt;Location: 10658 - 11935" locus_tag="AAD44208.1" points="116,90 125,90 130,85 125,80 116,80 116,90 "  />
</g>
<g id="a10_0010"  >
<polygon style="stroke-width:1; fill:white; stroke:black; " id="dummy-10_h10_8_10" class="clusterblast-orf" description="&lt;b&gt;AAD44209.1&lt;/b&gt;&lt;br&gt;RtfA&lt;br&gt;Location: 12339 - 13625" locus_tag="AAD44209.1" points="134,90 143,90 148,85 143,80 134,80 134,90 "  />
</g>
<g id="a10_0011"  >
<polygon style="stroke-width:1; fill:white; stroke:black; " id="dummy-10_h10_8_11" class="clusterblast-orf" description="&lt;b&gt;AAD44210.1&lt;/b&gt;&lt;br&gt;MtfC&lt;br&gt;Location: 13727 - 14527" locus_tag="AAD44210.1" points="149,90 153,90 158,85 153,80 149,80 149,90 "  />
</g>
<g id="a10_0012"  >
<polygon style="stroke-width:1; fill:white; stroke:black; " id="dummy-10_h10_8_12" class="clusterblast-orf" description="&lt;b&gt;AAD44211.1&lt;/b&gt;&lt;br&gt;mtfD&lt;br&gt;Location: 14627 - 15445" locus_tag="AAD44211.1" points="159,90 163,90 168,85 163,80 159,80 159,90 "  />
</g>
<g id="a10_0013"  >
<polygon style="stroke-width:1; fill:white; stroke:black; " id="dummy-10_h10_8_13" class="clusterblast-orf" description="&lt;b&gt;AAD44212.1&lt;/b&gt;&lt;br&gt;transposase&lt;br&gt;Location: 16004 - 17236" locus_tag="AAD44212.1" points="174,85 179,80 188,80 188,90 179,90 174,85 "  />
</g>
<g id="a10_0014"  >
<polygon style="stroke-width:1; fill:white; stroke:black; " id="dummy-10_h10_8_14" class="clusterblast-orf" description="&lt;b&gt;AAD44213.2&lt;/b&gt;&lt;br&gt;GtfB&lt;br&gt;Location: 17728 - 18984" locus_tag="AAD44213.2" points="193,85 198,80 207,80 207,90 198,90 193,85 "  />
</g>
<g id="a10_0015"  >
<polygon style="stroke-width:1; fill:white; stroke:black; " id="dummy-10_h10_8_15" class="clusterblast-orf" description="&lt;b&gt;AAD44214.2&lt;/b&gt;&lt;br&gt;unknown&lt;br&gt;Location: 19126 - 19779" locus_tag="AAD44214.2" points="208,90 211,90 216,85 211,80 208,80 208,90 "  />
</g>
<g id="a10_0016"  >
<polygon style="stroke-width:1; fill:white; stroke:black; " id="dummy-10_h10_8_16" class="clusterblast-orf" description="&lt;b&gt;AAD44215.1&lt;/b&gt;&lt;br&gt;transposase&lt;br&gt;Location: 20437 - 20781" locus_tag="AAD44215.1" points="223,90 227,85 223,80 223,90 "  />
</g>
<g id="a10_0017"  >
<polygon style="stroke-width:1; fill:white; stroke:black; " id="dummy-10_h10_8_17" class="clusterblast-orf" description="&lt;b&gt;AAD44216.1&lt;/b&gt;&lt;br&gt;transposase&lt;br&gt;Location: 20781 - 21698" locus_tag="AAD44216.1" points="227,90 232,90 237,85 232,80 227,80 227,90 "  />
</g>
<g id="a10_0018"  >
<polygon style="stroke-width:1; fill:white; stroke:black; " id="dummy-10_h10_8_18" class="clusterblast-orf" description="&lt;b&gt;AAD44217.2&lt;/b&gt;&lt;br&gt;GdhgA&lt;br&gt;Location: 22689 - 23729" locus_tag="AAD44217.2" points="247,85 252,80 259,80 259,90 252,90 247,85 "  />
</g>
<g id="a10_0019"  >
<polygon style="stroke-width:1; fill:white; stroke:black; " id="dummy-10_h10_8_19" class="clusterblast-orf" description="&lt;b&gt;AAD44218.1&lt;/b&gt;&lt;br&gt;GtfC&lt;br&gt;Location: 24002 - 24811" locus_tag="AAD44218.1" points="262,90 266,90 271,85 266,80 262,80 262,90 "  />
</g>
<g id="a10_0020"  >
<polygon style="stroke-width:1; fill:#d815bc; stroke:black; " id="dummy-10_h10_8_20" class="clusterblast-orf" description="&lt;b&gt;AAD44219.1&lt;/b&gt;&lt;br&gt;mdhtA&lt;br&gt;Location: 25020 - 26051&lt;br&gt;&lt;br&gt;&lt;b&gt;BlastP hit with EV02_RS00735&lt;/b&gt;&lt;br&gt;Percentage identity: 53&lt;br&gt;Percentage coverage: 93&lt;br&gt;BLAST bit score: 362&lt;br&gt;E-value: 7.2e-100" locus_tag="AAD44219.1" points="273,90 279,90 284,85 279,80 273,80 273,90 "  />
</g>
<g id="a10_0021"  >
<polygon style="stroke-width:1; fill:#d81515; stroke:black; " id="dummy-10_h10_8_21" class="clusterblast-orf" description="&lt;b&gt;AAD44220.1&lt;/b&gt;&lt;br&gt;MerA&lt;br&gt;Location: 25991 - 27010&lt;br&gt;&lt;br&gt;&lt;b&gt;BlastP hit with EV02_RS00745&lt;/b&gt;&lt;br&gt;Percentage identity: 46&lt;br&gt;Percentage coverage: 93&lt;br&gt;BLAST bit score: 285&lt;br&gt;E-value: 1e-76" locus_tag="AAD44220.1" points="284,90 290,90 295,85 290,80 284,80 284,90 "  />
</g>
<g id="a10_0022"  >
<polygon style="stroke-width:1; fill:white; stroke:black; " id="dummy-10_h10_8_22" class="clusterblast-orf" description="&lt;b&gt;AAD44221.1&lt;/b&gt;&lt;br&gt;unknown&lt;br&gt;Location: 27286 - 28008" locus_tag="AAD44221.1" points="298,90 301,90 306,85 301,80 298,80 298,90 "  />
</g>
<g id="a10_0023"  >
<polygon style="stroke-width:1; fill:white; stroke:black; " id="dummy-10_h10_8_23" class="clusterblast-orf" description="&lt;b&gt;AAD44222.1&lt;/b&gt;&lt;br&gt;GtfD&lt;br&gt;Location: 28153 - 28953" locus_tag="AAD44222.1" points="307,90 311,90 316,85 311,80 307,80 307,90 "  />
</g>
<g id="a10_0024"  >
<polygon style="stroke-width:1; fill:white; stroke:black; " id="dummy-10_h10_8_24" class="clusterblast-orf" description="&lt;b&gt;AAD44223.1&lt;/b&gt;&lt;br&gt;IS1601-D&lt;br&gt;Location: 29601 - 30518" locus_tag="AAD44223.1" points="323,85 328,80 333,80 333,90 328,90 323,85 "  />
</g>
<g id="a10_0025"  >
<polygon style="stroke-width:1; fill:white; stroke:black; " id="dummy-10_h10_8_25" class="clusterblast-orf" description="&lt;b&gt;AAD44224.1&lt;/b&gt;&lt;br&gt;IS1601-C&lt;br&gt;Location: 30518 - 30862" locus_tag="AAD44224.1" points="333,85 337,80 337,90 333,85 "  />
</g>
<g id="a10_0026"  >
<polygon style="stroke-width:1; fill:white; stroke:black; " id="dummy-10_h10_8_26" class="clusterblast-orf" description="&lt;b&gt;AAD44225.1&lt;/b&gt;&lt;br&gt;IS1601-B&lt;br&gt;Location: 30914 - 32116" locus_tag="AAD44225.1" points="337,85 342,80 351,80 351,90 342,90 337,85 "  />
</g>
<g id="a10_0027"  >
<polygon style="stroke-width:1; fill:white; stroke:black; " id="dummy-10_h10_8_27" class="clusterblast-orf" description="&lt;b&gt;AAD44226.1&lt;/b&gt;&lt;br&gt;IS1601-A&lt;br&gt;Location: 32375 - 33622" locus_tag="AAD44226.1" points="353,85 358,80 367,80 367,90 358,90 353,85 "  />
</g>
<g id="a10_0028"  >
<polygon style="stroke-width:1; fill:white; stroke:black; " id="dummy-10_h10_8_28" class="clusterblast-orf" description="&lt;b&gt;AAD44227.1&lt;/b&gt;&lt;br&gt;DrrC&lt;br&gt;Location: 33901 - 34692" locus_tag="AAD44227.1" points="370,85 375,80 379,80 379,90 375,90 370,85 "  />
</g>
<g id="a10_0029"  >
<polygon style="stroke-width:1; fill:white; stroke:black; " id="dummy-10_h10_8_29" class="clusterblast-orf" description="&lt;b&gt;AAD44228.1&lt;/b&gt;&lt;br&gt;DrrB&lt;br&gt;Location: 34692 - 35432" locus_tag="AAD44228.1" points="379,85 384,80 387,80 387,90 384,90 379,85 "  />
</g>
<g id="a10_0030"  >
<polygon style="stroke-width:1; fill:white; stroke:black; " id="dummy-10_h10_8_30" class="clusterblast-orf" description="&lt;b&gt;AAD44229.1&lt;/b&gt;&lt;br&gt;DrrA&lt;br&gt;Location: 35429 - 36376" locus_tag="AAD44229.1" points="387,85 392,80 397,80 397,90 392,90 387,85 "  />
</g>
<g id="a10_0031"  >
<polygon style="stroke-width:1; fill:white; stroke:black; " id="dummy-10_h10_8_31" class="clusterblast-orf" description="&lt;b&gt;AAD44230.1&lt;/b&gt;&lt;br&gt;TmtpC&lt;br&gt;Location: 36589 - 39513" locus_tag="AAD44230.1" points="400,85 405,80 432,80 432,90 405,90 400,85 "  />
</g>
<g id="a10_0032"  >
<polygon style="stroke-width:1; fill:white; stroke:black; " id="dummy-10_h10_8_32" class="clusterblast-orf" description="&lt;b&gt;AAD44231.1&lt;/b&gt;&lt;br&gt;TmtpB&lt;br&gt;Location: 39572 - 42463" locus_tag="AAD44231.1" points="432,85 437,80 464,80 464,90 437,90 432,85 "  />
</g>
<g id="a10_0033"  >
<polygon style="stroke-width:1; fill:white; stroke:black; " id="dummy-10_h10_8_33" class="clusterblast-orf" description="&lt;b&gt;AAD44232.1&lt;/b&gt;&lt;br&gt;TmtpA&lt;br&gt;Location: 42460 - 43125" locus_tag="AAD44232.1" points="464,85 469,80 471,80 471,90 469,90 464,85 "  />
</g>
<g id="a10_0034"  >
<polygon style="stroke-width:1; fill:white; stroke:black; " id="dummy-10_h10_8_34" class="clusterblast-orf" description="&lt;b&gt;AAD44233.1&lt;/b&gt;&lt;br&gt;PstA&lt;br&gt;Location: 44047 - 54294" locus_tag="AAD44233.1" points="481,90 588,90 593,85 588,80 481,80 481,90 "  />
</g>
<g id="a10_0035"  >
<polygon style="stroke-width:1; fill:white; stroke:black; " id="dummy-10_h10_8_35" class="clusterblast-orf" description="&lt;b&gt;AAD44234.1&lt;/b&gt;&lt;br&gt;PstB&lt;br&gt;Location: 54291 - 61949" locus_tag="AAD44234.1" points="593,90 672,90 677,85 672,80 593,80 593,90 "  />
</g>
<g id="a10_0036"  >
<polygon style="stroke-width:1; fill:white; stroke:black; " id="dummy-10_h10_8_36" class="clusterblast-orf" description="&lt;b&gt;AAD44235.1&lt;/b&gt;&lt;br&gt;IS1601-D&lt;br&gt;Location: 65266 - 66183" locus_tag="AAD44235.1" points="714,85 719,80 724,80 724,90 719,90 714,85 "  />
</g>
<g id="a10_0037"  >
<polygon style="stroke-width:1; fill:white; stroke:black; " id="dummy-10_h10_8_37" class="clusterblast-orf" description="&lt;b&gt;AAD44236.1&lt;/b&gt;&lt;br&gt;IS1601-C&lt;br&gt;Location: 66183 - 66527" locus_tag="AAD44236.1" points="724,85 727,80 727,90 724,85 "  />
</g>
<g id="a10_0038"  >
<polygon style="stroke-width:1; fill:white; stroke:black; " id="dummy-10_h10_8_38" class="clusterblast-orf" description="&lt;b&gt;AAF63833.1&lt;/b&gt;&lt;br&gt;PstD&lt;br&gt;Location: 67088 - 71286" locus_tag="AAF63833.1" points="734,90 775,90 780,85 775,80 734,80 734,90 "  />
</g>
</svg>
