<svg width="800" x="0" version="1.1" viewBox="0 0 800 230" xmlns:xlink="http://www.w3.org/1999/xlink" preserveAspectRatio="none" y="0" xmlns="http://www.w3.org/2000/svg" height="230"  >
<g label="Query sequence" class="clusterblast-cluster"  >
<text x="5" class="clusterblast-acc" y="20"  >
Query sequence</text>
<line style="stroke-width:1; stroke:grey; " y1="35" y2="35" x2="778.0" x1="10"  />
<polygon style="stroke-width:1; fill:white; stroke:black; " id="dummy-10_q0_0_all" class="clusterblast-orf" description="&lt;b&gt;EV02_RS09110&lt;/b&gt;&lt;br&gt;SAM-dependent methyltransferase&lt;br&gt;Location: 1058959 - 1059691" locus_tag="EV02_RS09110" points="0,40 4,40 9,35 4,30 0,30 0,40 "  />
<polygon style="stroke-width:1; fill:white; stroke:black; " id="dummy-10_q1_0_all" class="clusterblast-orf" description="&lt;b&gt;EV02_RS00830&lt;/b&gt;&lt;br&gt;acyltransferase&lt;br&gt;Location: 1060533 - 1060764" locus_tag="EV02_RS00830" points="19,40 22,35 19,30 19,40 "  />
<polygon style="stroke-width:1; fill:white; stroke:black; " id="dummy-10_q2_0_all" class="clusterblast-orf" description="&lt;b&gt;EV02_RS00825&lt;/b&gt;&lt;br&gt;acyltransferase&lt;br&gt;Location: 1060835 - 1061501" locus_tag="EV02_RS00825" points="23,40 26,40 31,35 26,30 23,30 23,40 "  />
<polygon style="stroke-width:1; fill:white; stroke:black; " id="dummy-10_q3_0_all" class="clusterblast-orf" description="&lt;b&gt;EV02_RS00820&lt;/b&gt;&lt;br&gt;hypothetical protein&lt;br&gt;Location: 1061501 - 1062287" locus_tag="EV02_RS00820" points="31,40 36,40 41,35 36,30 31,30 31,40 "  />
<polygon style="stroke-width:1; fill:white; stroke:black; " id="dummy-10_q4_0_all" class="clusterblast-orf" description="&lt;b&gt;EV02_RS00815&lt;/b&gt;&lt;br&gt;hypothetical protein&lt;br&gt;Location: 1063028 - 1063469" locus_tag="EV02_RS00815" points="50,35 55,30 55,30 55,40 55,40 50,35 "  />
<polygon style="stroke-width:1; fill:white; stroke:black; " id="dummy-10_q5_0_all" class="clusterblast-orf" description="&lt;b&gt;EV02_RS00810&lt;/b&gt;&lt;br&gt;hypothetical protein&lt;br&gt;Location: 1063924 - 1064965" locus_tag="EV02_RS00810" points="61,35 66,30 74,30 74,40 66,40 61,35 "  />
<polygon style="stroke-width:1; fill:white; stroke:black; " id="dummy-10_q6_0_all" class="clusterblast-orf" description="&lt;b&gt;EV02_RS00805&lt;/b&gt;&lt;br&gt;hypothetical protein&lt;br&gt;Location: 1065123 - 1065597" locus_tag="EV02_RS00805" points="76,35 81,30 82,30 82,40 81,40 76,35 "  />
<polygon style="stroke-width:1; fill:white; stroke:black; " id="dummy-10_q7_0_all" class="clusterblast-orf" description="&lt;b&gt;EV02_RS00800&lt;/b&gt;&lt;br&gt;hypothetical protein&lt;br&gt;Location: 1065596 - 1067999" locus_tag="EV02_RS00800" points="82,35 87,30 111,30 111,40 87,40 82,35 "  />
<polygon style="stroke-width:1; fill:white; stroke:black; " id="dummy-10_q8_0_all" class="clusterblast-orf" description="&lt;b&gt;EV02_RS00795&lt;/b&gt;&lt;br&gt;hypothetical protein&lt;br&gt;Location: 1068089 - 1069193" locus_tag="EV02_RS00795" points="112,40 121,40 126,35 121,30 112,30 112,40 "  />
<polygon style="stroke-width:1; fill:white; stroke:black; " id="dummy-10_q9_0_all" class="clusterblast-orf" description="&lt;b&gt;EV02_RS0108935&lt;/b&gt;&lt;br&gt;hypothetical protein&lt;br&gt;Location: 1069194 - 1070301" locus_tag="EV02_RS0108935" points="126,40 135,40 140,35 135,30 126,30 126,40 "  />
<polygon style="stroke-width:1; fill:white; stroke:black; " id="dummy-10_q10_0_all" class="clusterblast-orf" description="&lt;b&gt;EV02_RS00790&lt;/b&gt;&lt;br&gt;hypothetical protein&lt;br&gt;Location: 1070297 - 1071644" locus_tag="EV02_RS00790" points="140,40 151,40 156,35 151,30 140,30 140,40 "  />
<polygon style="stroke-width:1; fill:white; stroke:black; " id="dummy-10_q11_0_all" class="clusterblast-orf" description="&lt;b&gt;EV02_RS00785&lt;/b&gt;&lt;br&gt;hypothetical protein&lt;br&gt;Location: 1071643 - 1072846" locus_tag="EV02_RS00785" points="156,40 166,40 171,35 166,30 156,30 156,40 "  />
<polygon style="stroke-width:1; fill:white; stroke:black; " id="dummy-10_q12_0_all" class="clusterblast-orf" description="&lt;b&gt;EV02_RS00780&lt;/b&gt;&lt;br&gt;hypothetical protein&lt;br&gt;Location: 1072842 - 1073955" locus_tag="EV02_RS00780" points="171,40 180,40 185,35 180,30 171,30 171,40 "  />
<polygon style="stroke-width:1; fill:white; stroke:black; " id="dummy-10_q13_0_all" class="clusterblast-orf" description="&lt;b&gt;EV02_RS00775&lt;/b&gt;&lt;br&gt;hypothetical protein&lt;br&gt;Location: 1073947 - 1075363" locus_tag="EV02_RS00775" points="185,40 197,40 202,35 197,30 185,30 185,40 "  />
<polygon style="stroke-width:1; fill:white; stroke:black; " id="dummy-10_q14_0_all" class="clusterblast-orf" description="&lt;b&gt;EV02_RS00770&lt;/b&gt;&lt;br&gt;hypothetical protein&lt;br&gt;Location: 1075418 - 1076681" locus_tag="EV02_RS00770" points="203,40 213,40 218,35 213,30 203,30 203,40 "  />
<polygon style="stroke-width:1; fill:white; stroke:black; " id="dummy-10_q15_0_all" class="clusterblast-orf" description="&lt;b&gt;EV02_RS00765&lt;/b&gt;&lt;br&gt;exosortase/archaeosortase family protein&lt;br&gt;Location: 1076710 - 1077571" locus_tag="EV02_RS00765" points="219,35 224,30 229,30 229,40 224,40 219,35 "  />
<polygon style="stroke-width:1; fill:white; stroke:black; " id="dummy-10_q16_0_all" class="clusterblast-orf" description="&lt;b&gt;EV02_RS00760&lt;/b&gt;&lt;br&gt;hypothetical protein&lt;br&gt;Location: 1077567 - 1078224" locus_tag="EV02_RS00760" points="229,35 234,30 237,30 237,40 234,40 229,35 "  />
<polygon style="stroke-width:1; fill:white; stroke:black; " id="dummy-10_q17_0_all" class="clusterblast-orf" description="&lt;b&gt;EV02_RS00755&lt;/b&gt;&lt;br&gt;hypothetical protein&lt;br&gt;Location: 1078227 - 1078770" locus_tag="EV02_RS00755" points="237,35 242,30 244,30 244,40 242,40 237,35 "  />
<polygon style="stroke-width:1; fill:white; stroke:black; " id="dummy-10_q18_0_all" class="clusterblast-orf" description="&lt;b&gt;EV02_RS09115&lt;/b&gt;&lt;br&gt;hypothetical protein&lt;br&gt;Location: 1078928 - 1080290" locus_tag="EV02_RS09115" points="246,40 258,40 263,35 258,30 246,30 246,40 "  />
<polygon style="stroke-width:1; fill:white; stroke:black; " id="dummy-10_q19_0_all" class="clusterblast-orf" description="&lt;b&gt;EV02_RS00750&lt;/b&gt;&lt;br&gt;hypothetical protein&lt;br&gt;Location: 1080322 - 1081168" locus_tag="EV02_RS00750" points="263,35 268,30 274,30 274,40 268,40 263,35 "  />
<polygon style="stroke-width:1; fill:#d81515; stroke:black; " id="dummy-10_q20_0_all" class="clusterblast-orf" description="&lt;b&gt;EV02_RS00745&lt;/b&gt;&lt;br&gt;GDP-L-fucose synthase&lt;br&gt;Location: 1081245 - 1082262" locus_tag="EV02_RS00745" points="275,35 280,30 287,30 287,40 280,40 275,35 "  />
<polygon style="stroke-width:1; fill:#4dd815; stroke:black; " id="dummy-10_q21_0_all" class="clusterblast-orf" description="&lt;b&gt;EV02_RS00740&lt;/b&gt;&lt;br&gt;UDP-glucose 4-epimerase GalE&lt;br&gt;Location: 1082663 - 1083719" locus_tag="EV02_RS00740" points="292,40 300,40 305,35 300,30 292,30 292,40 "  />
<polygon style="stroke-width:1; fill:#1585d8; stroke:black; " id="dummy-10_q22_0_all" class="clusterblast-orf" description="&lt;b&gt;EV02_RS0108945&lt;/b&gt;&lt;br&gt;hypothetical protein&lt;br&gt;Location: 1083814 - 1084834" locus_tag="EV02_RS0108945" points="306,40 314,40 319,35 314,30 306,30 306,40 "  />
<polygon style="stroke-width:1; fill:#d815bc; stroke:black; " id="dummy-10_q23_0_all" class="clusterblast-orf" description="&lt;b&gt;EV02_RS00735&lt;/b&gt;&lt;br&gt;GDP-mannose 4,6-dehydratase&lt;br&gt;Location: 1084891 - 1086010" locus_tag="EV02_RS00735" points="320,40 329,40 334,35 329,30 320,30 320,40 "  />
<polygon style="stroke-width:1; fill:#d8bc15; stroke:black; " id="dummy-10_q24_0_all" class="clusterblast-orf" description="&lt;b&gt;EV02_RS00730&lt;/b&gt;&lt;br&gt;mannose-1-phosphate guanylyltransferase/mannose-6-phosphate isomerase&lt;br&gt;Location: 1086009 - 1087464" locus_tag="EV02_RS00730" points="334,40 346,40 351,35 346,30 334,30 334,40 "  />
<polygon style="stroke-width:1; fill:white; stroke:black; " id="dummy-10_q25_0_all" class="clusterblast-orf" description="&lt;b&gt;EV02_RS00725&lt;/b&gt;&lt;br&gt;nucleotide sugar dehydrogenase&lt;br&gt;Location: 1087480 - 1088920" locus_tag="EV02_RS00725" points="352,35 357,30 369,30 369,40 357,40 352,35 "  />
<polygon style="stroke-width:1; fill:white; stroke:black; " id="dummy-10_q26_0_all" class="clusterblast-orf" description="&lt;b&gt;EV02_RS00720&lt;/b&gt;&lt;br&gt;hypothetical protein&lt;br&gt;Location: 1089138 - 1089969" locus_tag="EV02_RS00720" points="372,35 377,30 382,30 382,40 377,40 372,35 "  />
<polygon style="stroke-width:1; fill:white; stroke:black; " id="dummy-10_q27_0_all" class="clusterblast-orf" description="&lt;b&gt;EV02_RS00715&lt;/b&gt;&lt;br&gt;hypothetical protein&lt;br&gt;Location: 1090115 - 1091048" locus_tag="EV02_RS00715" points="384,40 391,40 396,35 391,30 384,30 384,40 "  />
<polygon style="stroke-width:1; fill:white; stroke:black; " id="dummy-10_q28_0_all" class="clusterblast-orf" description="&lt;b&gt;EV02_RS0108950&lt;/b&gt;&lt;br&gt;hypothetical protein&lt;br&gt;Location: 1091079 - 1092246" locus_tag="EV02_RS0108950" points="396,40 405,40 410,35 405,30 396,30 396,40 "  />
<polygon style="stroke-width:1; fill:#15d885; stroke:black; " id="dummy-10_q29_0_all" class="clusterblast-orf" description="&lt;b&gt;EV02_RS00710&lt;/b&gt;&lt;br&gt;phosphoenolpyruvate mutase&lt;br&gt;Location: 1092361 - 1093672" locus_tag="EV02_RS00710" points="412,40 423,40 428,35 423,30 412,30 412,40 "  />
<polygon style="stroke-width:1; fill:#4d15d8; stroke:black; " id="dummy-10_q30_0_all" class="clusterblast-orf" description="&lt;b&gt;EV02_RS00705&lt;/b&gt;&lt;br&gt;phosphonopyruvate decarboxylase&lt;br&gt;Location: 1093664 - 1094810" locus_tag="EV02_RS00705" points="428,40 437,40 442,35 437,30 428,30 428,40 "  />
<polygon style="stroke-width:1; fill:white; stroke:black; " id="dummy-10_q31_0_all" class="clusterblast-orf" description="&lt;b&gt;EV02_RS00700&lt;/b&gt;&lt;br&gt;hypothetical protein&lt;br&gt;Location: 1094810 - 1095941" locus_tag="EV02_RS00700" points="442,40 451,40 456,35 451,30 442,30 442,40 "  />
<polygon style="stroke-width:1; fill:white; stroke:black; " id="dummy-10_q32_0_all" class="clusterblast-orf" description="&lt;b&gt;EV02_RS09255&lt;/b&gt;&lt;br&gt;O-antigen ligase domain-containing protein&lt;br&gt;Location: 1095949 - 1097257" locus_tag="EV02_RS09255" points="456,35 461,30 472,30 472,40 461,40 456,35 "  />
<polygon style="stroke-width:1; fill:white; stroke:black; " id="dummy-10_q33_0_all" class="clusterblast-orf" description="&lt;b&gt;EV02_RS00685&lt;/b&gt;&lt;br&gt;hypothetical protein&lt;br&gt;Location: 1097583 - 1098210" locus_tag="EV02_RS00685" points="476,40 479,40 484,35 479,30 476,30 476,40 "  />
<polygon style="stroke-width:1; fill:white; stroke:black; " id="dummy-10_q34_0_all" class="clusterblast-orf" description="&lt;b&gt;EV02_RS0108955&lt;/b&gt;&lt;br&gt;hypothetical protein&lt;br&gt;Location: 1098211 - 1098436" locus_tag="EV02_RS0108955" points="484,35 487,30 487,40 484,35 "  />
<polygon style="stroke-width:1; fill:white; stroke:black; " id="dummy-10_q35_0_all" class="clusterblast-orf" description="&lt;b&gt;EV02_RS00680&lt;/b&gt;&lt;br&gt;16S rRNA (cytidine(1402)-2'-O)-methyltransferase&lt;br&gt;Location: 1098455 - 1099319" locus_tag="EV02_RS00680" points="487,35 492,30 498,30 498,40 492,40 487,35 "  />
<polygon style="stroke-width:1; fill:white; stroke:black; " id="dummy-10_q36_0_all" class="clusterblast-orf" description="&lt;b&gt;EV02_RS00675&lt;/b&gt;&lt;br&gt;3'(2'),5'-bisphosphate nucleotidase CysQ&lt;br&gt;Location: 1099322 - 1100222" locus_tag="EV02_RS00675" points="498,40 504,40 509,35 504,30 498,30 498,40 "  />
<polygon style="stroke-width:1; fill:white; stroke:black; " id="dummy-10_q37_0_all" class="clusterblast-orf" description="&lt;b&gt;EV02_RS00670&lt;/b&gt;&lt;br&gt;polyribonucleotide nucleotidyltransferase&lt;br&gt;Location: 1100225 - 1102391" locus_tag="EV02_RS00670" points="509,35 514,30 536,30 536,40 514,40 509,35 "  />
<polygon style="stroke-width:1; fill:white; stroke:black; " id="dummy-10_q38_0_all" class="clusterblast-orf" description="&lt;b&gt;EV02_RS00665&lt;/b&gt;&lt;br&gt;30S ribosomal protein S14&lt;br&gt;Location: 1102561 - 1102864" locus_tag="EV02_RS00665" points="538,35 542,30 542,40 538,35 "  />
<polygon style="stroke-width:1; fill:white; stroke:black; " id="dummy-10_q39_0_all" class="clusterblast-orf" description="&lt;b&gt;EV02_RS00660&lt;/b&gt;&lt;br&gt;RIP metalloprotease RseP&lt;br&gt;Location: 1102926 - 1104006" locus_tag="EV02_RS00660" points="542,35 547,30 556,30 556,40 547,40 542,35 "  />
<polygon style="stroke-width:1; fill:white; stroke:black; " id="dummy-10_q40_0_all" class="clusterblast-orf" description="&lt;b&gt;EV02_RS00655&lt;/b&gt;&lt;br&gt;serine--tRNA ligase&lt;br&gt;Location: 1104015 - 1105293" locus_tag="EV02_RS00655" points="556,35 561,30 572,30 572,40 561,40 556,35 "  />
<polygon style="stroke-width:1; fill:white; stroke:black; " id="dummy-10_q41_0_all" class="clusterblast-orf" description="&lt;b&gt;EV02_RS00650&lt;/b&gt;&lt;br&gt;ATPase AAA&lt;br&gt;Location: 1105415 - 1106882" locus_tag="EV02_RS00650" points="573,35 578,30 591,30 591,40 578,40 573,35 "  />
<polygon style="stroke-width:1; fill:white; stroke:black; " id="dummy-10_q42_0_all" class="clusterblast-orf" description="&lt;b&gt;EV02_RS00645&lt;/b&gt;&lt;br&gt;membrane protein insertase YidC&lt;br&gt;Location: 1106896 - 1108039" locus_tag="EV02_RS00645" points="591,35 596,30 605,30 605,40 596,40 591,35 "  />
<polygon style="stroke-width:1; fill:white; stroke:black; " id="dummy-10_q43_0_all" class="clusterblast-orf" description="&lt;b&gt;EV02_RS00640&lt;/b&gt;&lt;br&gt;ribonuclease P&lt;br&gt;Location: 1108101 - 1108524" locus_tag="EV02_RS00640" points="606,35 611,30 611,30 611,40 611,40 606,35 "  />
<polygon style="stroke-width:1; fill:white; stroke:black; " id="dummy-10_q44_0_all" class="clusterblast-orf" description="&lt;b&gt;EV02_RS00635&lt;/b&gt;&lt;br&gt;ribonuclease P&lt;br&gt;Location: 1108520 - 1108907" locus_tag="EV02_RS00635" points="611,35 616,30 616,30 616,40 616,40 611,35 "  />
<polygon style="stroke-width:1; fill:white; stroke:black; " id="dummy-10_q45_0_all" class="clusterblast-orf" description="&lt;b&gt;EV02_RS00630&lt;/b&gt;&lt;br&gt;50S ribosomal protein L34&lt;br&gt;Location: 1108919 - 1109057" locus_tag="EV02_RS00630" points="616,35 618,30 618,40 616,35 "  />
<polygon style="stroke-width:1; fill:white; stroke:black; " id="dummy-10_q46_0_all" class="clusterblast-orf" description="&lt;b&gt;EV02_RS00625&lt;/b&gt;&lt;br&gt;DUF2808 domain-containing protein&lt;br&gt;Location: 1109087 - 1109666" locus_tag="EV02_RS00625" points="618,35 623,30 626,30 626,40 623,40 618,35 "  />
<polygon style="stroke-width:1; fill:white; stroke:black; " id="dummy-10_q47_0_all" class="clusterblast-orf" description="&lt;b&gt;EV02_RS00620&lt;/b&gt;&lt;br&gt;chorismate mutase&lt;br&gt;Location: 1109733 - 1110117" locus_tag="EV02_RS00620" points="626,35 631,30 631,30 631,40 631,40 626,35 "  />
<polygon style="stroke-width:1; fill:white; stroke:black; " id="dummy-10_q48_0_all" class="clusterblast-orf" description="&lt;b&gt;EV02_RS00615&lt;/b&gt;&lt;br&gt;signal peptide peptidase SppA&lt;br&gt;Location: 1110123 - 1110933" locus_tag="EV02_RS00615" points="631,35 636,30 641,30 641,40 636,40 631,35 "  />
<polygon style="stroke-width:1; fill:white; stroke:black; " id="dummy-10_q49_0_all" class="clusterblast-orf" description="&lt;b&gt;EV02_RS00610&lt;/b&gt;&lt;br&gt;EamA family transporter&lt;br&gt;Location: 1110985 - 1111927" locus_tag="EV02_RS00610" points="642,40 648,40 653,35 648,30 642,30 642,40 "  />
<polygon style="stroke-width:1; fill:white; stroke:black; " id="dummy-10_q50_0_all" class="clusterblast-orf" description="&lt;b&gt;EV02_RS00605&lt;/b&gt;&lt;br&gt;glycosyl transferase&lt;br&gt;Location: 1111955 - 1113032" locus_tag="EV02_RS00605" points="654,40 662,40 667,35 662,30 654,30 654,40 "  />
<polygon style="stroke-width:1; fill:white; stroke:black; " id="dummy-10_q51_0_all" class="clusterblast-orf" description="&lt;b&gt;EV02_RS00600&lt;/b&gt;&lt;br&gt;glycosyl transferase&lt;br&gt;Location: 1113038 - 1114844" locus_tag="EV02_RS00600" points="667,40 684,40 689,35 684,30 667,30 667,40 "  />
<polygon style="stroke-width:1; fill:white; stroke:black; " id="dummy-10_q52_0_all" class="clusterblast-orf" description="&lt;b&gt;EV02_RS00595&lt;/b&gt;&lt;br&gt;hypothetical protein&lt;br&gt;Location: 1114840 - 1115092" locus_tag="EV02_RS00595" points="689,35 692,30 692,40 689,35 "  />
<polygon style="stroke-width:1; fill:white; stroke:black; " id="dummy-10_q53_0_all" class="clusterblast-orf" description="&lt;b&gt;EV02_RS0108960&lt;/b&gt;&lt;br&gt;malate transporter&lt;br&gt;Location: 1115173 - 1115968" locus_tag="EV02_RS0108960" points="693,35 698,30 703,30 703,40 698,40 693,35 "  />
<polygon style="stroke-width:1; fill:white; stroke:black; " id="dummy-10_q54_0_all" class="clusterblast-orf" description="&lt;b&gt;EV02_RS00590&lt;/b&gt;&lt;br&gt;hypothetical protein&lt;br&gt;Location: 1116173 - 1116398" locus_tag="EV02_RS00590" points="706,35 709,30 709,40 706,35 "  />
<polygon style="stroke-width:1; fill:white; stroke:black; " id="dummy-10_q55_0_all" class="clusterblast-orf" description="&lt;b&gt;EV02_RS00585&lt;/b&gt;&lt;br&gt;MtN3 and saliva related protein&lt;br&gt;Location: 1116479 - 1116737" locus_tag="EV02_RS00585" points="710,35 713,30 713,40 710,35 "  />
<polygon style="stroke-width:1; fill:white; stroke:black; " id="dummy-10_q56_0_all" class="clusterblast-orf" description="&lt;b&gt;EV02_RS00580&lt;/b&gt;&lt;br&gt;hypothetical protein&lt;br&gt;Location: 1116754 - 1117489" locus_tag="EV02_RS00580" points="713,35 718,30 722,30 722,40 718,40 713,35 "  />
<polygon style="stroke-width:1; fill:white; stroke:black; " id="dummy-10_q57_0_all" class="clusterblast-orf" description="&lt;b&gt;EV02_RS00575&lt;/b&gt;&lt;br&gt;flavodoxin FldA&lt;br&gt;Location: 1117630 - 1118155" locus_tag="EV02_RS00575" points="724,40 725,40 730,35 725,30 724,30 724,40 "  />
<polygon style="stroke-width:1; fill:white; stroke:black; " id="dummy-10_q58_0_all" class="clusterblast-orf" description="&lt;b&gt;EV02_RS00570&lt;/b&gt;&lt;br&gt;chlorophyll a/b binding light-harvesting protein&lt;br&gt;Location: 1118298 - 1119357" locus_tag="EV02_RS00570" points="732,40 740,40 745,35 740,30 732,30 732,40 "  />
<polygon style="stroke-width:1; fill:white; stroke:black; " id="dummy-10_q59_0_all" class="clusterblast-orf" description="&lt;b&gt;EV02_RS00565&lt;/b&gt;&lt;br&gt;DUF3386 domain-containing protein&lt;br&gt;Location: 1119434 - 1120088" locus_tag="EV02_RS00565" points="746,40 749,40 754,35 749,30 746,30 746,40 "  />
<polygon style="stroke-width:1; fill:white; stroke:black; " id="dummy-10_q60_0_all" class="clusterblast-orf" description="&lt;b&gt;EV02_RS00560&lt;/b&gt;&lt;br&gt;hypothetical protein&lt;br&gt;Location: 1120092 - 1120338" locus_tag="EV02_RS00560" points="754,35 757,30 757,40 754,35 "  />
<polygon style="stroke-width:1; fill:white; stroke:black; " id="dummy-10_q61_0_all" class="clusterblast-orf" description="&lt;b&gt;EV02_RS00555&lt;/b&gt;&lt;br&gt;methyltransferase type 11&lt;br&gt;Location: 1120447 - 1121086" locus_tag="EV02_RS00555" points="759,35 764,30 766,30 766,40 764,40 759,35 "  />
<polygon style="stroke-width:1; fill:white; stroke:black; " id="dummy-10_q62_0_all" class="clusterblast-orf" description="&lt;b&gt;EV02_RS00550&lt;/b&gt;&lt;br&gt;hypothetical protein&lt;br&gt;Location: 1121410 - 1121743" locus_tag="EV02_RS00550" points="770,40 770,40 775,35 770,30 770,30 770,40 "  />
<polygon style="stroke-width:1; fill:white; stroke:black; " id="dummy-10_q63_0_all" class="clusterblast-orf" description="&lt;b&gt;EV02_RS00545&lt;/b&gt;&lt;br&gt;DUF1824 domain-containing protein&lt;br&gt;Location: 1121764 - 1122151" locus_tag="EV02_RS00545" points="775,40 775,40 780,35 775,30 775,30 775,40 "  />
</g>
<g description="BGC0000774_c1: Lipopolysaccharide (5% of genes show similarity), saccharide" label="BGC0000774" class="clusterblast-cluster"  >
<text x="5" class="clusterblast-acc" y="70"  >
<a xlink:href="https://mibig.secondarymetabolites.org/go/BGC0000774/1" target="_blank">BGC0000774</a>:                                                               Lipopolysaccharide (5% of genes show similarity), saccharide</text>
<line style="stroke-width:1; stroke:grey; " y1="85" y2="85" x2="778.0" x1="10"  />
</g>
<g id="a10_000"  >
<polygon style="stroke-width:1; fill:white; stroke:black; " id="dummy-10_h10_7_0" class="clusterblast-orf" description="&lt;b&gt;AAK53494.1&lt;/b&gt;&lt;br&gt;putative methyltransferase&lt;br&gt;Location: 134 - 772" locus_tag="AAK53494.1" points="157,90 160,90 165,85 160,80 157,80 157,90 "  />
</g>
<g id="a10_001"  >
<polygon style="stroke-width:1; fill:white; stroke:black; " id="dummy-10_h10_7_1" class="clusterblast-orf" description="&lt;b&gt;AAK53493.1&lt;/b&gt;&lt;br&gt;beta-subunit of putative 3-oxoacid CoA-transferase&lt;br&gt;Location: 1054 - 1692" locus_tag="AAK53493.1" points="169,85 174,80 177,80 177,90 174,90 169,85 "  />
</g>
<g id="a10_002"  >
<polygon style="stroke-width:1; fill:white; stroke:black; " id="dummy-10_h10_7_2" class="clusterblast-orf" description="&lt;b&gt;AAK53462.1&lt;/b&gt;&lt;br&gt;alpha subunit of putative 3-oxoacid CoA-transferase&lt;br&gt;Location: 1692 - 2420" locus_tag="AAK53462.1" points="177,85 182,80 186,80 186,90 182,90 177,85 "  />
</g>
<g id="a10_003"  >
<polygon style="stroke-width:1; fill:white; stroke:black; " id="dummy-10_h10_7_3" class="clusterblast-orf" description="&lt;b&gt;AAA27610.1&lt;/b&gt;&lt;br&gt;phosphomannomutase/phosphoglucomutase&lt;br&gt;Location: 2555 - 3901" locus_tag="AAA27610.1" points="187,90 199,90 204,85 199,80 187,80 187,90 "  />
</g>
<g id="a10_004"  >
<polygon style="stroke-width:1; fill:#d8bc15; stroke:black; " id="dummy-10_h10_7_4" class="clusterblast-orf" description="&lt;b&gt;AAK53463.1&lt;/b&gt;&lt;br&gt;phosphomannose isomerase/GDP-D-mannose pyrophosphorylase&lt;br&gt;Location: 3947 - 5350&lt;br&gt;&lt;br&gt;&lt;b&gt;BlastP hit with EV02_RS00730&lt;/b&gt;&lt;br&gt;Percentage identity: 50&lt;br&gt;Percentage coverage: 98&lt;br&gt;BLAST bit score: 460&lt;br&gt;E-value: 2.5e-129" locus_tag="AAK53463.1" points="204,90 217,90 222,85 217,80 204,80 204,90 "  />
</g>
<g id="a10_005"  >
<polygon style="stroke-width:1; fill:white; stroke:black; " id="dummy-10_h10_7_5" class="clusterblast-orf" description="&lt;b&gt;AAK53464.1&lt;/b&gt;&lt;br&gt;dTDP-4-dehydrorhamnose reductase&lt;br&gt;Location: 5472 - 6380" locus_tag="AAK53464.1" points="223,85 228,80 234,80 234,90 228,90 223,85 "  />
</g>
<g id="a10_006"  >
<polygon style="stroke-width:1; fill:white; stroke:black; " id="dummy-10_h10_7_6" class="clusterblast-orf" description="&lt;b&gt;AAK53465.1&lt;/b&gt;&lt;br&gt;dTDP-4-dehydrorhamnose 3,5-epimerase&lt;br&gt;Location: 6377 - 6934" locus_tag="AAK53465.1" points="234,85 239,80 241,80 241,90 239,90 234,85 "  />
</g>
<g id="a10_007"  >
<polygon style="stroke-width:1; fill:white; stroke:black; " id="dummy-10_h10_7_7" class="clusterblast-orf" description="&lt;b&gt;AAA16191.1&lt;/b&gt;&lt;br&gt;glucose-1-phosphate thymidyltransferase&lt;br&gt;Location: 6931 - 7818" locus_tag="AAA16191.1" points="241,85 246,80 252,80 252,90 246,90 241,85 "  />
</g>
<g id="a10_008"  >
<polygon style="stroke-width:1; fill:white; stroke:black; " id="dummy-10_h10_7_8" class="clusterblast-orf" description="&lt;b&gt;AAK53466.1&lt;/b&gt;&lt;br&gt;dTDP-glucose-4,6-dehydratase&lt;br&gt;Location: 7882 - 8937" locus_tag="AAK53466.1" points="253,85 258,80 266,80 266,90 258,90 253,85 "  />
</g>
<g id="a10_009"  >
<polygon style="stroke-width:1; fill:white; stroke:black; " id="dummy-10_h10_7_9" class="clusterblast-orf" description="&lt;b&gt;AAK53467.1&lt;/b&gt;&lt;br&gt;putative electron-transferring flavoprotein beta subunit&lt;br&gt;Location: 9166 - 9912" locus_tag="AAK53467.1" points="269,90 273,90 278,85 273,80 269,80 269,90 "  />
</g>
<g id="a10_0010"  >
<polygon style="stroke-width:1; fill:white; stroke:black; " id="dummy-10_h10_7_10" class="clusterblast-orf" description="&lt;b&gt;AAK53468.1&lt;/b&gt;&lt;br&gt;putative electron-transferring flavoprotein alpha subunit&lt;br&gt;Location: 9912 - 10856" locus_tag="AAK53468.1" points="278,90 285,90 290,85 285,80 278,80 278,90 "  />
</g>
<g id="a10_0011"  >
<polygon style="stroke-width:1; fill:white; stroke:black; " id="dummy-10_h10_7_11" class="clusterblast-orf" description="&lt;b&gt;AAK53469.1&lt;/b&gt;&lt;br&gt;WxcH&lt;br&gt;Location: 10916 - 11263" locus_tag="AAK53469.1" points="290,90 290,90 295,85 290,80 290,80 290,90 "  />
</g>
<g id="a10_0012"  >
<polygon style="stroke-width:1; fill:white; stroke:black; " id="dummy-10_h10_7_12" class="clusterblast-orf" description="&lt;b&gt;AAK53470.1&lt;/b&gt;&lt;br&gt;putative aminotransferase&lt;br&gt;Location: 11312 - 12415" locus_tag="AAK53470.1" points="295,90 304,90 309,85 304,80 295,80 295,90 "  />
</g>
<g id="a10_0013"  >
<polygon style="stroke-width:1; fill:white; stroke:black; " id="dummy-10_h10_7_13" class="clusterblast-orf" description="&lt;b&gt;AAK53471.1&lt;/b&gt;&lt;br&gt;putative glycosyltransferase&lt;br&gt;Location: 12400 - 13371" locus_tag="AAK53471.1" points="309,90 316,90 321,85 316,80 309,80 309,90 "  />
</g>
<g id="a10_0014"  >
<polygon style="stroke-width:1; fill:white; stroke:black; " id="dummy-10_h10_7_14" class="clusterblast-orf" description="&lt;b&gt;AAK53472.1&lt;/b&gt;&lt;br&gt;putative bifunctional enzyme WxcM&lt;br&gt;Location: 13368 - 14297" locus_tag="AAK53472.1" points="321,90 327,90 332,85 327,80 321,80 321,90 "  />
</g>
<g id="a10_0015"  >
<polygon style="stroke-width:1; fill:white; stroke:black; " id="dummy-10_h10_7_15" class="clusterblast-orf" description="&lt;b&gt;AAK53473.1&lt;/b&gt;&lt;br&gt;putative integral membrane protein WxcN&lt;br&gt;Location: 14284 - 14724" locus_tag="AAK53473.1" points="332,90 332,90 337,85 332,80 332,80 332,90 "  />
</g>
<g id="a10_0016"  >
<polygon style="stroke-width:1; fill:white; stroke:black; " id="dummy-10_h10_7_16" class="clusterblast-orf" description="&lt;b&gt;AAK53474.1&lt;/b&gt;&lt;br&gt;integral membrane protein WxcO&lt;br&gt;Location: 14794 - 17046" locus_tag="AAK53474.1" points="338,90 361,90 366,85 361,80 338,80 338,90 "  />
</g>
<g id="a10_0017"  >
<polygon style="stroke-width:1; fill:white; stroke:black; " id="dummy-10_h10_7_17" class="clusterblast-orf" description="&lt;b&gt;AAK53475.1&lt;/b&gt;&lt;br&gt;putative NDP-hexose epimerase/oxydoreductase&lt;br&gt;Location: 17188 - 18126" locus_tag="AAK53475.1" points="368,85 373,80 379,80 379,90 373,90 368,85 "  />
</g>
<g id="a10_0018"  >
<polygon style="stroke-width:1; fill:#d815bc; stroke:black; " id="dummy-10_h10_7_18" class="clusterblast-orf" description="&lt;b&gt;AAK53476.1&lt;/b&gt;&lt;br&gt;putative GDP-mannose 4,6-dehydratase&lt;br&gt;Location: 18110 - 19144&lt;br&gt;&lt;br&gt;&lt;b&gt;BlastP hit with EV02_RS00735&lt;/b&gt;&lt;br&gt;Percentage identity: 48&lt;br&gt;Percentage coverage: 93&lt;br&gt;BLAST bit score: 325&lt;br&gt;E-value: 1.3e-88" locus_tag="AAK53476.1" points="379,85 384,80 392,80 392,90 384,90 379,85 "  />
</g>
<g id="a10_0019"  >
<polygon style="stroke-width:1; fill:white; stroke:black; " id="dummy-10_h10_7_19" class="clusterblast-orf" description="&lt;b&gt;AAK53477.1&lt;/b&gt;&lt;br&gt;putative membrane protein WxcE&lt;br&gt;Location: 19222 - 19857" locus_tag="AAK53477.1" points="393,85 398,80 401,80 401,90 398,90 393,85 "  />
</g>
<g id="a10_0020"  >
<polygon style="stroke-width:1; fill:white; stroke:black; " id="dummy-10_h10_7_20" class="clusterblast-orf" description="&lt;b&gt;AAK53478.1&lt;/b&gt;&lt;br&gt;putative membrane protein WxcD&lt;br&gt;Location: 19857 - 21602" locus_tag="AAK53478.1" points="401,85 406,80 422,80 422,90 406,90 401,85 "  />
</g>
<g id="a10_0021"  >
<polygon style="stroke-width:1; fill:white; stroke:black; " id="dummy-10_h10_7_21" class="clusterblast-orf" description="&lt;b&gt;AAK53479.1&lt;/b&gt;&lt;br&gt;putative glycosyltransferase&lt;br&gt;Location: 21623 - 22684" locus_tag="AAK53479.1" points="423,85 428,80 436,80 436,90 428,90 423,85 "  />
</g>
<g id="a10_0022"  >
<polygon style="stroke-width:1; fill:white; stroke:black; " id="dummy-10_h10_7_22" class="clusterblast-orf" description="&lt;b&gt;AAK53480.1&lt;/b&gt;&lt;br&gt;putative kinase&lt;br&gt;Location: 22734 - 25022" locus_tag="AAK53480.1" points="436,85 441,80 465,80 465,90 441,90 436,85 "  />
</g>
<g id="a10_0023"  >
<polygon style="stroke-width:1; fill:white; stroke:black; " id="dummy-10_h10_7_23" class="clusterblast-orf" description="&lt;b&gt;AAK53481.1&lt;/b&gt;&lt;br&gt;ABC transporter&lt;br&gt;Location: 25062 - 26348" locus_tag="AAK53481.1" points="465,85 470,80 481,80 481,90 470,90 465,85 "  />
</g>
<g id="a10_0024"  >
<polygon style="stroke-width:1; fill:white; stroke:black; " id="dummy-10_h10_7_24" class="clusterblast-orf" description="&lt;b&gt;AAK53482.1&lt;/b&gt;&lt;br&gt;ABC transporter&lt;br&gt;Location: 26345 - 27130" locus_tag="AAK53482.1" points="481,85 486,80 491,80 491,90 486,90 481,85 "  />
</g>
<g id="a10_0025"  >
<polygon style="stroke-width:1; fill:white; stroke:black; " id="dummy-10_h10_7_25" class="clusterblast-orf" description="&lt;b&gt;AAK53483.1&lt;/b&gt;&lt;br&gt;putative glycosyltransferase&lt;br&gt;Location: 27214 - 28599" locus_tag="AAK53483.1" points="492,85 497,80 509,80 509,90 497,90 492,85 "  />
</g>
<g id="a10_0026"  >
<polygon style="stroke-width:1; fill:white; stroke:black; " id="dummy-10_h10_7_26" class="clusterblast-orf" description="&lt;b&gt;AAK53484.1&lt;/b&gt;&lt;br&gt;cystathionine gamma-synthase&lt;br&gt;Location: 28596 - 29795" locus_tag="AAK53484.1" points="509,85 514,80 523,80 523,90 514,90 509,85 "  />
</g>
<g id="a10_0027"  >
<polygon style="stroke-width:1; fill:white; stroke:black; " id="dummy-10_h10_7_27" class="clusterblast-orf" description="&lt;b&gt;AAK53485.1&lt;/b&gt;&lt;br&gt;cystathionine beta-lyase&lt;br&gt;Location: 29889 - 31259" locus_tag="AAK53485.1" points="525,85 530,80 542,80 542,90 530,90 525,85 "  />
</g>
<g id="a10_0028"  >
<polygon style="stroke-width:1; fill:white; stroke:black; " id="dummy-10_h10_7_28" class="clusterblast-orf" description="&lt;b&gt;AAK53486.1&lt;/b&gt;&lt;br&gt;UptF&lt;br&gt;Location: 31491 - 31985" locus_tag="AAK53486.1" points="544,85 549,80 550,80 550,90 549,90 544,85 "  />
</g>
<g id="a10_0029"  >
<polygon style="stroke-width:1; fill:white; stroke:black; " id="dummy-10_h10_7_29" class="clusterblast-orf" description="&lt;b&gt;AAK53487.1&lt;/b&gt;&lt;br&gt;putative outer membrane protein UptE precursor&lt;br&gt;Location: 32051 - 32941" locus_tag="AAK53487.1" points="551,85 556,80 562,80 562,90 556,90 551,85 "  />
</g>
<g id="a10_0030"  >
<polygon style="stroke-width:1; fill:white; stroke:black; " id="dummy-10_h10_7_30" class="clusterblast-orf" description="&lt;b&gt;AAK53488.1&lt;/b&gt;&lt;br&gt;putative outer membrane protein UptD precursor&lt;br&gt;Location: 32938 - 33321" locus_tag="AAK53488.1" points="562,85 567,80 567,80 567,90 567,90 562,85 "  />
</g>
<g id="a10_0031"  >
<polygon style="stroke-width:1; fill:white; stroke:black; " id="dummy-10_h10_7_31" class="clusterblast-orf" description="&lt;b&gt;AAK53489.1&lt;/b&gt;&lt;br&gt;type II secretion system protein-like protein&lt;br&gt;Location: 33420 - 34553" locus_tag="AAK53489.1" points="568,90 577,90 582,85 577,80 568,80 568,90 "  />
</g>
<g id="a10_0032"  >
<polygon style="stroke-width:1; fill:white; stroke:black; " id="dummy-10_h10_7_32" class="clusterblast-orf" description="&lt;b&gt;AAK53490.1&lt;/b&gt;&lt;br&gt;putative maleylacetoacetate isomerase&lt;br&gt;Location: 35073 - 35735" locus_tag="AAK53490.1" points="589,85 594,80 597,80 597,90 594,90 589,85 "  />
</g>
<g id="a10_0033"  >
<polygon style="stroke-width:1; fill:white; stroke:black; " id="dummy-10_h10_7_33" class="clusterblast-orf" description="&lt;b&gt;AAK53491.1&lt;/b&gt;&lt;br&gt;putative dioxygenase&lt;br&gt;Location: 35779 - 36768" locus_tag="AAK53491.1" points="597,85 602,80 610,80 610,90 602,90 597,85 "  />
</g>
<g id="a10_0034"  >
<polygon style="stroke-width:1; fill:white; stroke:black; " id="dummy-10_h10_7_34" class="clusterblast-orf" description="&lt;b&gt;AAK53492.1&lt;/b&gt;&lt;br&gt;putative ATP-dependent RNA helicase&lt;br&gt;Location: 37148 - 37753" locus_tag="AAK53492.1" points="614,90 617,90 622,85 617,80 614,80 614,90 "  />
</g>
</svg>
