<svg width="800" x="0" version="1.1" viewBox="0 0 800 50" xmlns:xlink="http://www.w3.org/1999/xlink" preserveAspectRatio="none" y="0" xmlns="http://www.w3.org/2000/svg" height="50"  >
<g label="Query sequence" class="clusterblast-cluster"  >
<text x="5" class="clusterblast-acc" y="20"  >
Query sequence</text>
<line style="stroke-width:1; stroke:grey; " y1="35" y2="35" x2="778.0" x1="10"  />
<polygon style="stroke-width:1; fill:white; stroke:black; " id="subclusterblast-5_q0_0_all" class="clusterblast-orf" description="&lt;b&gt;EV02_RS03695&lt;/b&gt;&lt;br&gt;chromosome segregation protein ScpA&lt;br&gt;Location: 474335 - 475157" locus_tag="EV02_RS03695" points="0,35 5,30 26,30 26,40 5,40 0,35 "  />
<polygon style="stroke-width:1; fill:white; stroke:black; " id="subclusterblast-5_q1_0_all" class="clusterblast-orf" description="&lt;b&gt;EV02_RS03690&lt;/b&gt;&lt;br&gt;NAD(P)H-quinone oxidoreductase subunit 4&lt;br&gt;Location: 475280 - 476885" locus_tag="EV02_RS03690" points="29,35 34,30 80,30 80,40 34,40 29,35 "  />
<polygon style="stroke-width:1; fill:white; stroke:black; " id="subclusterblast-5_q2_0_all" class="clusterblast-orf" description="&lt;b&gt;EV02_RS03685&lt;/b&gt;&lt;br&gt;NAD(P)H-quinone oxidoreductase subunit F&lt;br&gt;Location: 477006 - 479028" locus_tag="EV02_RS03685" points="84,35 89,30 147,30 147,40 89,40 84,35 "  />
<polygon style="stroke-width:1; fill:white; stroke:black; " id="subclusterblast-5_q3_0_all" class="clusterblast-orf" description="&lt;b&gt;EV02_RS03680&lt;/b&gt;&lt;br&gt;membrane protein&lt;br&gt;Location: 479061 - 479790" locus_tag="EV02_RS03680" points="148,35 153,30 171,30 171,40 153,40 148,35 "  />
<polygon style="stroke-width:1; fill:white; stroke:black; " id="subclusterblast-5_q4_0_all" class="clusterblast-orf" description="&lt;b&gt;EV02_RS03675&lt;/b&gt;&lt;br&gt;LysR family transcriptional regulator&lt;br&gt;Location: 479872 - 480817" locus_tag="EV02_RS03675" points="174,40 198,40 203,35 198,30 174,30 174,40 "  />
<polygon style="stroke-width:1; fill:white; stroke:black; " id="subclusterblast-5_q5_0_all" class="clusterblast-orf" description="&lt;b&gt;EV02_RS03670&lt;/b&gt;&lt;br&gt;DUF3172 domain-containing protein&lt;br&gt;Location: 480823 - 481447" locus_tag="EV02_RS03670" points="204,35 209,30 223,30 223,40 209,40 204,35 "  />
<polygon style="stroke-width:1; fill:white; stroke:black; " id="subclusterblast-5_q6_0_all" class="clusterblast-orf" description="&lt;b&gt;EV02_RS03665&lt;/b&gt;&lt;br&gt;NAD(P)H-quinone oxidoreductase&lt;br&gt;Location: 481443 - 481791" locus_tag="EV02_RS03665" points="223,35 228,30 234,30 234,40 228,40 223,35 "  />
<polygon style="stroke-width:1; fill:white; stroke:black; " id="subclusterblast-5_q7_0_all" class="clusterblast-orf" description="&lt;b&gt;EV02_RS03660&lt;/b&gt;&lt;br&gt;15-cis-phytoene desaturase&lt;br&gt;Location: 481881 - 483282" locus_tag="EV02_RS03660" points="237,40 276,40 281,35 276,30 237,30 237,40 "  />
<polygon style="stroke-width:1; fill:white; stroke:black; " id="subclusterblast-5_q8_0_all" class="clusterblast-orf" description="&lt;b&gt;EV02_RS03655&lt;/b&gt;&lt;br&gt;phytoene synthase&lt;br&gt;Location: 483322 - 484231" locus_tag="EV02_RS03655" points="282,40 306,40 311,35 306,30 282,30 282,40 "  />
<polygon style="stroke-width:1; fill:white; stroke:black; " id="subclusterblast-5_q9_0_all" class="clusterblast-orf" description="&lt;b&gt;EV02_RS03650&lt;/b&gt;&lt;br&gt;RNA-binding protein&lt;br&gt;Location: 484231 - 484651" locus_tag="EV02_RS03650" points="311,35 316,30 324,30 324,40 316,40 311,35 "  />
<polygon style="stroke-width:1; fill:white; stroke:black; " id="subclusterblast-5_q10_0_all" class="clusterblast-orf" description="&lt;b&gt;EV02_RS03645&lt;/b&gt;&lt;br&gt;CCA tRNA nucleotidyltransferase&lt;br&gt;Location: 484709 - 485927" locus_tag="EV02_RS03645" points="326,35 331,30 364,30 364,40 331,40 326,35 "  />
<polygon style="stroke-width:1; fill:white; stroke:black; " id="subclusterblast-5_q11_0_all" class="clusterblast-orf" description="&lt;b&gt;EV02_RS03640&lt;/b&gt;&lt;br&gt;hypothetical protein&lt;br&gt;Location: 485941 - 486193" locus_tag="EV02_RS03640" points="364,40 367,40 372,35 367,30 364,30 364,40 "  />
<polygon style="stroke-width:1; fill:white; stroke:black; " id="subclusterblast-5_q12_0_all" class="clusterblast-orf" description="&lt;b&gt;EV02_RS03635&lt;/b&gt;&lt;br&gt;molecular chaperone&lt;br&gt;Location: 486202 - 486856" locus_tag="EV02_RS03635" points="372,40 388,40 393,35 388,30 372,30 372,40 "  />
<polygon style="stroke-width:1; fill:white; stroke:black; " id="subclusterblast-5_q13_0_all" class="clusterblast-orf" description="&lt;b&gt;EV02_RS03630&lt;/b&gt;&lt;br&gt;1-acyl-sn-glycerol-3-phosphate acyltransferase&lt;br&gt;Location: 486860 - 487481" locus_tag="EV02_RS03630" points="393,35 398,30 413,30 413,40 398,40 393,35 "  />
<polygon style="stroke-width:1; fill:white; stroke:black; " id="subclusterblast-5_q14_0_all" class="clusterblast-orf" description="&lt;b&gt;EV02_RS03625&lt;/b&gt;&lt;br&gt;[acyl-carrier-protein] S-malonyltransferase&lt;br&gt;Location: 487487 - 488384" locus_tag="EV02_RS03625" points="413,35 418,30 441,30 441,40 418,40 413,35 "  />
<polygon style="stroke-width:1; fill:white; stroke:black; " id="subclusterblast-5_q15_0_all" class="clusterblast-orf" description="&lt;b&gt;EV02_RS03620&lt;/b&gt;&lt;br&gt;ketoacyl-ACP synthase III&lt;br&gt;Location: 488402 - 489410" locus_tag="EV02_RS03620" points="442,35 447,30 473,30 473,40 447,40 442,35 "  />
<polygon style="stroke-width:1; fill:white; stroke:black; " id="subclusterblast-5_q16_0_all" class="clusterblast-orf" description="&lt;b&gt;EV02_RS03615&lt;/b&gt;&lt;br&gt;phosphate acyltransferase PlsX&lt;br&gt;Location: 489464 - 490871" locus_tag="EV02_RS03615" points="475,35 480,30 519,30 519,40 480,40 475,35 "  />
<polygon style="stroke-width:1; fill:white; stroke:black; " id="subclusterblast-5_q17_0_all" class="clusterblast-orf" description="&lt;b&gt;EV02_RS03610&lt;/b&gt;&lt;br&gt;DNA-binding response regulator&lt;br&gt;Location: 490871 - 491618" locus_tag="EV02_RS03610" points="519,35 524,30 542,30 542,40 524,40 519,35 "  />
<polygon style="stroke-width:1; fill:white; stroke:black; " id="subclusterblast-5_q18_0_all" class="clusterblast-orf" description="&lt;b&gt;EV02_RS03605&lt;/b&gt;&lt;br&gt;DNA repair protein RadA&lt;br&gt;Location: 491725 - 493087" locus_tag="EV02_RS03605" points="546,40 584,40 589,35 584,30 546,30 546,40 "  />
<polygon style="stroke-width:1; fill:white; stroke:black; " id="subclusterblast-5_q19_0_all" class="clusterblast-orf" description="&lt;b&gt;EV02_RS03600&lt;/b&gt;&lt;br&gt;photosystem I assembly protein Ycf3&lt;br&gt;Location: 493092 - 493614" locus_tag="EV02_RS03600" points="589,35 594,30 605,30 605,40 594,40 589,35 "  />
<polygon style="stroke-width:1; fill:white; stroke:black; " id="subclusterblast-5_q20_0_all" class="clusterblast-orf" description="&lt;b&gt;EV02_RS03595&lt;/b&gt;&lt;br&gt;heavy metal translocating P-type ATPase&lt;br&gt;Location: 493735 - 496030" locus_tag="EV02_RS03595" points="609,40 676,40 681,35 676,30 609,30 609,40 "  />
<polygon style="stroke-width:1; fill:white; stroke:black; " id="subclusterblast-5_q21_0_all" class="clusterblast-orf" description="&lt;b&gt;EV02_RS03590&lt;/b&gt;&lt;br&gt;dTMP kinase&lt;br&gt;Location: 496030 - 496669" locus_tag="EV02_RS03590" points="681,40 696,40 701,35 696,30 681,30 681,40 "  />
<polygon style="stroke-width:1; fill:white; stroke:black; " id="subclusterblast-5_q22_0_all" class="clusterblast-orf" description="&lt;b&gt;EV02_RS03585&lt;/b&gt;&lt;br&gt;DNA polymerase III subunit delta'&lt;br&gt;Location: 496665 - 497628" locus_tag="EV02_RS03585" points="701,40 726,40 731,35 726,30 701,30 701,40 "  />
<polygon style="stroke-width:1; fill:white; stroke:black; " id="subclusterblast-5_q23_0_all" class="clusterblast-orf" description="&lt;b&gt;EV02_RS03580&lt;/b&gt;&lt;br&gt;DNA-binding response regulator&lt;br&gt;Location: 497630 - 498413" locus_tag="EV02_RS03580" points="731,35 736,30 756,30 756,40 736,40 731,35 "  />
<polygon style="stroke-width:1; fill:white; stroke:black; " id="subclusterblast-5_q24_0_all" class="clusterblast-orf" description="&lt;b&gt;EV02_RS03575&lt;/b&gt;&lt;br&gt;hypothetical protein&lt;br&gt;Location: 498816 - 499176" locus_tag="EV02_RS03575" points="769,40 775,40 780,35 775,30 769,30 769,40 "  />
</g>
</svg>
