<svg width="800" x="0" version="1.1" viewBox="0 0 800 50" xmlns:xlink="http://www.w3.org/1999/xlink" preserveAspectRatio="none" y="0" xmlns="http://www.w3.org/2000/svg" height="50"  >
<g label="Query sequence" class="clusterblast-cluster"  >
<text x="5" class="clusterblast-acc" y="20"  >
Query sequence</text>
<line style="stroke-width:1; stroke:grey; " y1="35" y2="35" x2="778.0" x1="10"  />
<polygon style="stroke-width:1; fill:white; stroke:black; " id="subclusterblast-3_q0_0_all" class="clusterblast-orf" description="&lt;b&gt;EV02_RS0108740&lt;/b&gt;&lt;br&gt;DUF1651 domain-containing protein&lt;br&gt;Location: 289273 - 289522" locus_tag="EV02_RS0108740" points="0,35 5,30 20,30 20,40 5,40 0,35 "  />
<polygon style="stroke-width:1; fill:white; stroke:black; " id="subclusterblast-3_q1_0_all" class="clusterblast-orf" description="&lt;b&gt;EV02_RS04690&lt;/b&gt;&lt;br&gt;aminoacyl-tRNA hydrolase&lt;br&gt;Location: 289594 - 290023" locus_tag="EV02_RS04690" points="25,35 30,30 59,30 59,40 30,40 25,35 "  />
<polygon style="stroke-width:1; fill:white; stroke:black; " id="subclusterblast-3_q2_0_all" class="clusterblast-orf" description="&lt;b&gt;EV02_RS04685&lt;/b&gt;&lt;br&gt;hypothetical protein&lt;br&gt;Location: 290227 - 290464" locus_tag="EV02_RS04685" points="75,40 88,40 93,35 88,30 75,30 75,40 "  />
<polygon style="stroke-width:1; fill:white; stroke:black; " id="subclusterblast-3_q3_0_all" class="clusterblast-orf" description="&lt;b&gt;EV02_RS04680&lt;/b&gt;&lt;br&gt;hypothetical protein&lt;br&gt;Location: 290693 - 291038" locus_tag="EV02_RS04680" points="111,40 133,40 138,35 133,30 111,30 111,40 "  />
<polygon style="stroke-width:1; fill:white; stroke:black; " id="subclusterblast-3_q4_0_all" class="clusterblast-orf" description="&lt;b&gt;EV02_RS04675&lt;/b&gt;&lt;br&gt;DUF4090 domain-containing protein&lt;br&gt;Location: 291135 - 291408" locus_tag="EV02_RS04675" points="146,35 151,30 167,30 167,40 151,40 146,35 "  />
<polygon style="stroke-width:1; fill:white; stroke:black; " id="subclusterblast-3_q5_0_all" class="clusterblast-orf" description="&lt;b&gt;EV02_RS04670&lt;/b&gt;&lt;br&gt;peroxiredoxin&lt;br&gt;Location: 291475 - 291925" locus_tag="EV02_RS04670" points="172,35 177,30 207,30 207,40 177,40 172,35 "  />
<polygon style="stroke-width:1; fill:white; stroke:black; " id="subclusterblast-3_q6_0_all" class="clusterblast-orf" description="&lt;b&gt;EV02_RS0108745&lt;/b&gt;&lt;br&gt;hypothetical protein&lt;br&gt;Location: 292240 - 292480" locus_tag="EV02_RS0108745" points="232,35 237,30 251,30 251,40 237,40 232,35 "  />
<polygon style="stroke-width:1; fill:white; stroke:black; " id="subclusterblast-3_q7_0_all" class="clusterblast-orf" description="&lt;b&gt;EV02_RS0108750&lt;/b&gt;&lt;br&gt;Sec-independent protein translocase TatA&lt;br&gt;Location: 292885 - 293146" locus_tag="EV02_RS0108750" points="282,40 298,40 303,35 298,30 282,30 282,40 "  />
<polygon style="stroke-width:1; fill:white; stroke:black; " id="subclusterblast-3_q8_0_all" class="clusterblast-orf" description="&lt;b&gt;EV02_RS04665&lt;/b&gt;&lt;br&gt;hypothetical protein&lt;br&gt;Location: 293300 - 293693" locus_tag="EV02_RS04665" points="315,40 340,40 345,35 340,30 315,30 315,40 "  />
<polygon style="stroke-width:1; fill:white; stroke:black; " id="subclusterblast-3_q9_0_all" class="clusterblast-orf" description="&lt;b&gt;EV02_RS0108755&lt;/b&gt;&lt;br&gt;hypothetical protein&lt;br&gt;Location: 293694 - 294012" locus_tag="EV02_RS0108755" points="345,35 350,30 370,30 370,40 350,40 345,35 "  />
<polygon style="stroke-width:1; fill:white; stroke:black; " id="subclusterblast-3_q10_0_all" class="clusterblast-orf" description="&lt;b&gt;EV02_RS04660&lt;/b&gt;&lt;br&gt;Nif11-like leader peptide family natural product precursor&lt;br&gt;Location: 294103 - 294319" locus_tag="EV02_RS04660" points="377,40 389,40 394,35 389,30 377,30 377,40 "  />
<polygon style="stroke-width:1; fill:white; stroke:black; " id="subclusterblast-3_q11_0_all" class="clusterblast-orf" description="&lt;b&gt;EV02_RS04655&lt;/b&gt;&lt;br&gt;hypothetical protein&lt;br&gt;Location: 294320 - 294806" locus_tag="EV02_RS04655" points="394,35 399,30 432,30 432,40 399,40 394,35 "  />
<polygon style="stroke-width:1; fill:white; stroke:black; " id="subclusterblast-3_q12_0_all" class="clusterblast-orf" description="&lt;b&gt;EV02_RS09185&lt;/b&gt;&lt;br&gt;hypothetical protein&lt;br&gt;Location: 294853 - 295090" locus_tag="EV02_RS09185" points="436,40 449,40 454,35 449,30 436,30 436,40 "  />
<polygon style="stroke-width:1; fill:white; stroke:black; " id="subclusterblast-3_q13_0_all" class="clusterblast-orf" description="&lt;b&gt;EV02_RS04650&lt;/b&gt;&lt;br&gt;NAD(P)/FAD-dependent oxidoreductase&lt;br&gt;Location: 295129 - 296659" locus_tag="EV02_RS04650" points="457,40 572,40 577,35 572,30 457,30 457,40 "  />
<polygon style="stroke-width:1; fill:white; stroke:black; " id="subclusterblast-3_q14_0_all" class="clusterblast-orf" description="&lt;b&gt;EV02_RS04645&lt;/b&gt;&lt;br&gt;hypothetical protein&lt;br&gt;Location: 296775 - 296979" locus_tag="EV02_RS04645" points="586,40 597,40 602,35 597,30 586,30 586,40 "  />
<polygon style="stroke-width:1; fill:white; stroke:black; " id="subclusterblast-3_q15_0_all" class="clusterblast-orf" description="&lt;b&gt;EV02_RS04640&lt;/b&gt;&lt;br&gt;TIGR03894 family protein&lt;br&gt;Location: 296991 - 297282" locus_tag="EV02_RS04640" points="603,35 608,30 625,30 625,40 608,40 603,35 "  />
<polygon style="stroke-width:1; fill:white; stroke:black; " id="subclusterblast-3_q16_0_all" class="clusterblast-orf" description="&lt;b&gt;EV02_RS04635&lt;/b&gt;&lt;br&gt;hypothetical protein&lt;br&gt;Location: 297372 - 297579" locus_tag="EV02_RS04635" points="633,35 638,30 649,30 649,40 638,40 633,35 "  />
<polygon style="stroke-width:1; fill:white; stroke:black; " id="subclusterblast-3_q17_0_all" class="clusterblast-orf" description="&lt;b&gt;EV02_RS04630&lt;/b&gt;&lt;br&gt;hypothetical protein&lt;br&gt;Location: 297879 - 298188" locus_tag="EV02_RS04630" points="672,40 691,40 696,35 691,30 672,30 672,40 "  />
<polygon style="stroke-width:1; fill:white; stroke:black; " id="subclusterblast-3_q18_0_all" class="clusterblast-orf" description="&lt;b&gt;EV02_RS04625&lt;/b&gt;&lt;br&gt;plastoquinol terminal oxidase&lt;br&gt;Location: 298755 - 299265" locus_tag="EV02_RS04625" points="740,40 775,40 780,35 775,30 740,30 740,40 "  />
</g>
</svg>
