<svg width="800" x="0" version="1.1" viewBox="0 0 800 50" xmlns:xlink="http://www.w3.org/1999/xlink" preserveAspectRatio="none" y="0" xmlns="http://www.w3.org/2000/svg" height="50"  >
<g label="Query sequence" class="clusterblast-cluster"  >
<text x="5" class="clusterblast-acc" y="20"  >
Query sequence</text>
<line style="stroke-width:1; stroke:grey; " y1="35" y2="35" x2="778.0" x1="10"  />
<polygon style="stroke-width:1; fill:white; stroke:black; " id="subclusterblast-4_q0_0_all" class="clusterblast-orf" description="&lt;b&gt;EV02_RS03975&lt;/b&gt;&lt;br&gt;ATPase AAA&lt;br&gt;Location: 422558 - 425315" locus_tag="EV02_RS03975" points="0,40 102,40 107,35 102,30 0,30 0,40 "  />
<polygon style="stroke-width:1; fill:white; stroke:black; " id="subclusterblast-4_q1_0_all" class="clusterblast-orf" description="&lt;b&gt;EV02_RS03970&lt;/b&gt;&lt;br&gt;preprotein translocase subunit SecE&lt;br&gt;Location: 425377 - 425620" locus_tag="EV02_RS03970" points="109,40 113,40 118,35 113,30 109,30 109,40 "  />
<polygon style="stroke-width:1; fill:white; stroke:black; " id="subclusterblast-4_q2_0_all" class="clusterblast-orf" description="&lt;b&gt;EV02_RS03965&lt;/b&gt;&lt;br&gt;transcription termination/antitermination protein NusG&lt;br&gt;Location: 425671 - 426283" locus_tag="EV02_RS03965" points="120,40 139,40 144,35 139,30 120,30 120,40 "  />
<polygon style="stroke-width:1; fill:white; stroke:black; " id="subclusterblast-4_q3_0_all" class="clusterblast-orf" description="&lt;b&gt;EV02_RS03960&lt;/b&gt;&lt;br&gt;50S ribosomal protein L11&lt;br&gt;Location: 426350 - 426776" locus_tag="EV02_RS03960" points="147,40 158,40 163,35 158,30 147,30 147,40 "  />
<polygon style="stroke-width:1; fill:white; stroke:black; " id="subclusterblast-4_q4_0_all" class="clusterblast-orf" description="&lt;b&gt;EV02_RS03955&lt;/b&gt;&lt;br&gt;50S ribosomal protein L1&lt;br&gt;Location: 426842 - 427550" locus_tag="EV02_RS03955" points="166,40 188,40 193,35 188,30 166,30 166,40 "  />
<polygon style="stroke-width:1; fill:white; stroke:black; " id="subclusterblast-4_q5_0_all" class="clusterblast-orf" description="&lt;b&gt;EV02_RS03950&lt;/b&gt;&lt;br&gt;50S ribosomal protein L10&lt;br&gt;Location: 427740 - 428268" locus_tag="EV02_RS03950" points="200,40 216,40 221,35 216,30 200,30 200,40 "  />
<polygon style="stroke-width:1; fill:white; stroke:black; " id="subclusterblast-4_q6_0_all" class="clusterblast-orf" description="&lt;b&gt;EV02_RS03945&lt;/b&gt;&lt;br&gt;50S ribosomal protein L7/L12&lt;br&gt;Location: 428296 - 428692" locus_tag="EV02_RS03945" points="222,40 232,40 237,35 232,30 222,30 222,40 "  />
<polygon style="stroke-width:1; fill:white; stroke:black; " id="subclusterblast-4_q7_0_all" class="clusterblast-orf" description="&lt;b&gt;EV02_RS03940&lt;/b&gt;&lt;br&gt;ribonuclease HI&lt;br&gt;Location: 428739 - 429468" locus_tag="EV02_RS03940" points="239,40 262,40 267,35 262,30 239,30 239,40 "  />
<polygon style="stroke-width:1; fill:white; stroke:black; " id="subclusterblast-4_q8_0_all" class="clusterblast-orf" description="&lt;b&gt;EV02_RS03935&lt;/b&gt;&lt;br&gt;quinone-dependent dihydroorotate dehydrogenase&lt;br&gt;Location: 429464 - 430634" locus_tag="EV02_RS03935" points="267,40 307,40 312,35 307,30 267,30 267,40 "  />
<polygon style="stroke-width:1; fill:white; stroke:black; " id="subclusterblast-4_q9_0_all" class="clusterblast-orf" description="&lt;b&gt;EV02_RS03930&lt;/b&gt;&lt;br&gt;aspartate aminotransferase&lt;br&gt;Location: 430643 - 431765" locus_tag="EV02_RS03930" points="313,40 351,40 356,35 351,30 313,30 313,40 "  />
<polygon style="stroke-width:1; fill:white; stroke:black; " id="subclusterblast-4_q10_0_all" class="clusterblast-orf" description="&lt;b&gt;EV02_RS03925&lt;/b&gt;&lt;br&gt;UDP-N-acetylglucosamine--N-acetylmuramyl- (pentapeptide) pyrophosphoryl-undecaprenol N-acetylglucosamine transferase&lt;br&gt;Location: 431743 - 432835" locus_tag="EV02_RS03925" points="355,35 360,30 398,30 398,40 360,40 355,35 "  />
<polygon style="stroke-width:1; fill:white; stroke:black; " id="subclusterblast-4_q11_0_all" class="clusterblast-orf" description="&lt;b&gt;EV02_RS03920&lt;/b&gt;&lt;br&gt;hypothetical protein&lt;br&gt;Location: 432876 - 433602" locus_tag="EV02_RS03920" points="399,40 422,40 427,35 422,30 399,30 399,40 "  />
<polygon style="stroke-width:1; fill:white; stroke:black; " id="subclusterblast-4_q12_0_all" class="clusterblast-orf" description="&lt;b&gt;EV02_RS03915&lt;/b&gt;&lt;br&gt;phosphoglycerate kinase&lt;br&gt;Location: 433603 - 434812" locus_tag="EV02_RS03915" points="427,35 432,30 474,30 474,40 432,40 427,35 "  />
<polygon style="stroke-width:1; fill:white; stroke:black; " id="subclusterblast-4_q13_0_all" class="clusterblast-orf" description="&lt;b&gt;EV02_RS03910&lt;/b&gt;&lt;br&gt;ribosome biogenesis GTPase YlqF&lt;br&gt;Location: 435024 - 435897" locus_tag="EV02_RS03910" points="482,40 511,40 516,35 511,30 482,30 482,40 "  />
<polygon style="stroke-width:1; fill:white; stroke:black; " id="subclusterblast-4_q14_0_all" class="clusterblast-orf" description="&lt;b&gt;EV02_RS03905&lt;/b&gt;&lt;br&gt;RluA family pseudouridine synthase&lt;br&gt;Location: 435887 - 436847" locus_tag="EV02_RS03905" points="516,40 548,40 553,35 548,30 516,30 516,40 "  />
<polygon style="stroke-width:1; fill:white; stroke:black; " id="subclusterblast-4_q15_0_all" class="clusterblast-orf" description="&lt;b&gt;EV02_RS03900&lt;/b&gt;&lt;br&gt;ABC transporter ATP-binding protein&lt;br&gt;Location: 436839 - 438438" locus_tag="EV02_RS03900" points="553,35 558,30 614,30 614,40 558,40 553,35 "  />
<polygon style="stroke-width:1; fill:white; stroke:black; " id="subclusterblast-4_q16_0_all" class="clusterblast-orf" description="&lt;b&gt;EV02_RS03895&lt;/b&gt;&lt;br&gt;bifunctional (p)ppGpp synthetase/guanosine-3',5'-bis(diphosphate) 3'-pyrophosphohydrolase&lt;br&gt;Location: 438492 - 440802" locus_tag="EV02_RS03895" points="617,40 701,40 706,35 701,30 617,30 617,40 "  />
<polygon style="stroke-width:1; fill:white; stroke:black; " id="subclusterblast-4_q17_0_all" class="clusterblast-orf" description="&lt;b&gt;EV02_RS03890&lt;/b&gt;&lt;br&gt;DUF2062 domain-containing protein&lt;br&gt;Location: 440820 - 441264" locus_tag="EV02_RS03890" points="707,35 712,30 724,30 724,40 712,40 707,35 "  />
<polygon style="stroke-width:1; fill:white; stroke:black; " id="subclusterblast-4_q18_0_all" class="clusterblast-orf" description="&lt;b&gt;EV02_RS03885&lt;/b&gt;&lt;br&gt;tRNA uridine-5-carboxymethylaminomethyl(34) synthesis GTPase MnmE&lt;br&gt;Location: 441330 - 442713" locus_tag="EV02_RS03885" points="726,40 775,40 780,35 775,30 726,30 726,40 "  />
</g>
</svg>
